G04*
G04 #@! TF.GenerationSoftware,Altium Limited,Altium Designer,23.5.1 (21)*
G04*
G04 Layer_Color=32896*
%FSLAX44Y44*%
%MOMM*%
G71*
G04*
G04 #@! TF.SameCoordinates,ABEBA2A1-82FC-470D-B438-6AC9AF40FB77*
G04*
G04*
G04 #@! TF.FilePolarity,Positive*
G04*
G01*
G75*
%ADD13C,0.2540*%
%ADD18C,0.2560*%
G36*
X-165100Y-38100D02*
X-197265D01*
Y-22863D01*
X-165100D01*
Y-38100D01*
D02*
G37*
G36*
X177947Y102952D02*
X166053D01*
Y181048D01*
X177947D01*
Y102952D01*
D02*
G37*
G36*
X177912Y-22116D02*
X166088D01*
Y31000D01*
X177912D01*
Y-22116D01*
D02*
G37*
G36*
X-108353Y-111599D02*
X-120246D01*
Y-53501D01*
X-108353D01*
Y-111599D01*
D02*
G37*
%LPC*%
G36*
X-166716Y-25442D02*
D01*
Y-30379D01*
X-166723Y-30299D01*
Y-30196D01*
X-166731Y-30062D01*
X-166747Y-29903D01*
X-166771Y-29729D01*
X-166795Y-29539D01*
X-166826Y-29341D01*
X-166874Y-29119D01*
X-166922Y-28897D01*
X-166985Y-28667D01*
X-167056Y-28437D01*
X-167143Y-28199D01*
X-167239Y-27970D01*
X-167350Y-27748D01*
X-167358Y-27732D01*
X-167381Y-27692D01*
X-167421Y-27637D01*
X-167468Y-27550D01*
X-167540Y-27454D01*
X-167619Y-27336D01*
X-167714Y-27209D01*
X-167825Y-27074D01*
X-167952Y-26931D01*
X-168087Y-26781D01*
X-168245Y-26630D01*
X-168412Y-26480D01*
X-168594Y-26329D01*
X-168784Y-26186D01*
X-168998Y-26060D01*
X-169220Y-25933D01*
X-169228Y-25925D01*
X-169259Y-25909D01*
X-169315Y-25885D01*
X-169386Y-25854D01*
X-169481Y-25822D01*
X-169592Y-25774D01*
X-169719Y-25735D01*
X-169862Y-25687D01*
X-170028Y-25640D01*
X-170203Y-25600D01*
X-170393Y-25552D01*
X-170599Y-25521D01*
X-170821Y-25489D01*
X-171058Y-25465D01*
X-171304Y-25449D01*
X-171558Y-25442D01*
X-171684D01*
X-171732Y-25449D01*
X-171859D01*
X-172009Y-25465D01*
X-172184Y-25481D01*
X-172382Y-25505D01*
X-172596Y-25537D01*
X-172818Y-25576D01*
X-173048Y-25632D01*
X-173285Y-25687D01*
X-173523Y-25766D01*
X-173753Y-25854D01*
X-173983Y-25957D01*
X-174197Y-26075D01*
X-174395Y-26210D01*
X-174403Y-26218D01*
X-174442Y-26242D01*
X-174490Y-26289D01*
X-174561Y-26353D01*
X-174640Y-26424D01*
X-174736Y-26519D01*
X-174839Y-26630D01*
X-174942Y-26757D01*
X-175053Y-26900D01*
X-175163Y-27058D01*
X-175274Y-27232D01*
X-175377Y-27415D01*
X-175480Y-27621D01*
X-175568Y-27835D01*
X-175647Y-28065D01*
X-175710Y-28310D01*
X-173753Y-28675D01*
Y-28667D01*
X-173745Y-28643D01*
X-173729Y-28603D01*
X-173713Y-28556D01*
X-173689Y-28493D01*
X-173658Y-28429D01*
X-173578Y-28263D01*
X-173468Y-28088D01*
X-173333Y-27898D01*
X-173253Y-27803D01*
X-173166Y-27708D01*
X-173071Y-27621D01*
X-172968Y-27542D01*
X-172960Y-27534D01*
X-172945Y-27526D01*
X-172913Y-27502D01*
X-172865Y-27478D01*
X-172810Y-27446D01*
X-172746Y-27407D01*
X-172667Y-27367D01*
X-172580Y-27328D01*
X-172485Y-27296D01*
X-172374Y-27256D01*
X-172263Y-27217D01*
X-172136Y-27185D01*
X-172001Y-27161D01*
X-171859Y-27137D01*
X-171716Y-27129D01*
X-171558Y-27122D01*
X-171502D01*
X-171431Y-27129D01*
X-171344Y-27137D01*
X-171233Y-27145D01*
X-171106Y-27161D01*
X-170971Y-27193D01*
X-170821Y-27225D01*
X-170654Y-27264D01*
X-170488Y-27320D01*
X-170321Y-27391D01*
X-170147Y-27470D01*
X-169981Y-27565D01*
X-169814Y-27676D01*
X-169656Y-27803D01*
X-169505Y-27946D01*
X-169497Y-27954D01*
X-169473Y-27985D01*
X-169434Y-28033D01*
X-169386Y-28096D01*
X-169331Y-28184D01*
X-169267Y-28286D01*
X-169196Y-28413D01*
X-169125Y-28556D01*
X-169053Y-28714D01*
X-168982Y-28897D01*
X-168919Y-29095D01*
X-168863Y-29317D01*
X-168816Y-29546D01*
X-168776Y-29808D01*
X-168752Y-30078D01*
X-168744Y-30371D01*
Y-30379D01*
Y-30387D01*
Y-30410D01*
Y-30450D01*
Y-30490D01*
X-168752Y-30537D01*
X-168760Y-30656D01*
X-168768Y-30799D01*
X-168784Y-30965D01*
X-168808Y-31147D01*
X-168839Y-31346D01*
X-168879Y-31551D01*
X-168934Y-31773D01*
X-168998Y-31987D01*
X-169069Y-32201D01*
X-169156Y-32415D01*
X-169259Y-32613D01*
X-169378Y-32804D01*
X-169513Y-32978D01*
X-169521Y-32986D01*
X-169553Y-33018D01*
X-169592Y-33057D01*
X-169656Y-33113D01*
X-169727Y-33176D01*
X-169822Y-33247D01*
X-169933Y-33327D01*
X-170052Y-33406D01*
X-170195Y-33493D01*
X-170345Y-33564D01*
X-170511Y-33644D01*
X-170694Y-33707D01*
X-170884Y-33763D01*
X-171090Y-33802D01*
X-171304Y-33834D01*
X-171534Y-33842D01*
X-171597D01*
X-171637Y-33834D01*
X-171700D01*
X-171764Y-33826D01*
X-171835Y-33818D01*
X-171922Y-33810D01*
X-172104Y-33786D01*
X-172318Y-33739D01*
X-172540Y-33683D01*
X-172770Y-33604D01*
X-172778D01*
X-172802Y-33596D01*
X-172833Y-33580D01*
X-172873Y-33556D01*
X-172929Y-33533D01*
X-172992Y-33509D01*
X-173143Y-33438D01*
X-173309Y-33350D01*
X-173491Y-33255D01*
X-173673Y-33136D01*
X-173848Y-33018D01*
Y-31773D01*
X-171589D01*
Y-30125D01*
X-175837D01*
Y-34016D01*
X-175829Y-34024D01*
X-175805Y-34040D01*
X-175774Y-34072D01*
X-175718Y-34119D01*
X-175655Y-34167D01*
X-175576Y-34230D01*
X-175488Y-34301D01*
X-175377Y-34373D01*
X-175259Y-34452D01*
X-175124Y-34539D01*
X-174973Y-34626D01*
X-174815Y-34713D01*
X-174640Y-34809D01*
X-174450Y-34896D01*
X-174252Y-34983D01*
X-174038Y-35070D01*
X-174022Y-35078D01*
X-173983Y-35086D01*
X-173919Y-35110D01*
X-173840Y-35141D01*
X-173729Y-35173D01*
X-173602Y-35213D01*
X-173460Y-35252D01*
X-173301Y-35292D01*
X-173127Y-35340D01*
X-172945Y-35379D01*
X-172746Y-35419D01*
X-172540Y-35450D01*
X-172326Y-35482D01*
X-172112Y-35506D01*
X-171882Y-35514D01*
X-171661Y-35522D01*
X-175837D01*
D01*
X-166716D01*
Y-25442D01*
D02*
G37*
G36*
X-177676Y-25600D02*
X-179578D01*
X-183580Y-32130D01*
Y-25600D01*
X-181915D01*
X-185402D01*
Y-35355D01*
X-177676D01*
Y-25600D01*
D02*
G37*
G36*
X-187479D02*
X-195649D01*
X-191267D01*
X-191370Y-25608D01*
X-191488D01*
X-191615Y-25616D01*
X-191758Y-25624D01*
X-192059Y-25647D01*
X-192368Y-25679D01*
X-192519Y-25703D01*
X-192661Y-25727D01*
X-192796Y-25759D01*
X-192923Y-25790D01*
X-192931D01*
X-192962Y-25806D01*
X-193010Y-25814D01*
X-193065Y-25838D01*
X-193145Y-25869D01*
X-193232Y-25901D01*
X-193327Y-25949D01*
X-193430Y-25996D01*
X-193541Y-26060D01*
X-193660Y-26123D01*
X-193787Y-26194D01*
X-193906Y-26281D01*
X-194032Y-26369D01*
X-194159Y-26472D01*
X-194278Y-26575D01*
X-194397Y-26694D01*
X-194405Y-26702D01*
X-194421Y-26725D01*
X-194452Y-26757D01*
X-194500Y-26804D01*
X-194548Y-26868D01*
X-194611Y-26947D01*
X-194674Y-27034D01*
X-194746Y-27129D01*
X-194817Y-27240D01*
X-194888Y-27359D01*
X-194967Y-27494D01*
X-195047Y-27629D01*
X-195118Y-27779D01*
X-195197Y-27938D01*
X-195324Y-28271D01*
Y-28279D01*
X-195340Y-28310D01*
X-195356Y-28366D01*
X-195372Y-28437D01*
X-195403Y-28532D01*
X-195427Y-28635D01*
X-195459Y-28762D01*
X-195490Y-28912D01*
X-195514Y-29071D01*
X-195546Y-29245D01*
X-195578Y-29436D01*
X-195602Y-29642D01*
X-195617Y-29856D01*
X-195633Y-30085D01*
X-195649Y-30323D01*
Y-30696D01*
X-195641Y-30775D01*
Y-30886D01*
X-195633Y-31005D01*
X-195625Y-31139D01*
X-195609Y-31290D01*
X-195593Y-31449D01*
X-195578Y-31615D01*
X-195522Y-31964D01*
X-195451Y-32312D01*
X-195348Y-32653D01*
X-195340Y-32661D01*
X-195332Y-32701D01*
X-195308Y-32756D01*
X-195285Y-32827D01*
X-195245Y-32922D01*
X-195197Y-33026D01*
X-195142Y-33136D01*
X-195078Y-33263D01*
X-195007Y-33398D01*
X-194936Y-33541D01*
X-194753Y-33826D01*
X-194540Y-34111D01*
X-194429Y-34246D01*
X-194302Y-34373D01*
X-194294Y-34381D01*
X-194278Y-34397D01*
X-194246Y-34420D01*
X-194207Y-34452D01*
X-194159Y-34499D01*
X-194096Y-34547D01*
X-194016Y-34602D01*
X-193937Y-34658D01*
X-193842Y-34721D01*
X-193739Y-34785D01*
X-193628Y-34848D01*
X-193501Y-34912D01*
X-193375Y-34975D01*
X-193232Y-35038D01*
X-193081Y-35094D01*
X-192923Y-35149D01*
X-192915D01*
X-192891Y-35157D01*
X-192852Y-35165D01*
X-192804Y-35181D01*
X-192741Y-35197D01*
X-192661Y-35213D01*
X-192566Y-35236D01*
X-192455Y-35252D01*
X-192336Y-35268D01*
X-192210Y-35292D01*
X-192067Y-35308D01*
X-191908Y-35324D01*
X-191742Y-35340D01*
X-191568Y-35347D01*
X-191378Y-35355D01*
X-187479D01*
Y-25600D01*
D02*
G37*
%LPD*%
G36*
X-166716Y-35522D02*
X-171589D01*
X-171510Y-35514D01*
X-171407D01*
X-171272Y-35506D01*
X-171114Y-35490D01*
X-170940Y-35466D01*
X-170757Y-35443D01*
X-170551Y-35411D01*
X-170337Y-35363D01*
X-170115Y-35316D01*
X-169886Y-35252D01*
X-169664Y-35181D01*
X-169434Y-35094D01*
X-169212Y-34999D01*
X-168990Y-34888D01*
X-168974Y-34880D01*
X-168942Y-34856D01*
X-168879Y-34817D01*
X-168808Y-34769D01*
X-168713Y-34706D01*
X-168602Y-34618D01*
X-168483Y-34523D01*
X-168356Y-34420D01*
X-168213Y-34293D01*
X-168079Y-34159D01*
X-167936Y-34008D01*
X-167793Y-33842D01*
X-167659Y-33660D01*
X-167524Y-33469D01*
X-167397Y-33263D01*
X-167286Y-33049D01*
X-167278Y-33033D01*
X-167262Y-32994D01*
X-167231Y-32930D01*
X-167199Y-32843D01*
X-167151Y-32732D01*
X-167104Y-32598D01*
X-167056Y-32447D01*
X-167001Y-32273D01*
X-166945Y-32090D01*
X-166898Y-31892D01*
X-166850Y-31670D01*
X-166803Y-31449D01*
X-166771Y-31211D01*
X-166739Y-30965D01*
X-166723Y-30712D01*
X-166716Y-30450D01*
Y-35522D01*
D02*
G37*
G36*
X-179498Y-35355D02*
X-183429D01*
X-179498Y-28976D01*
Y-35355D01*
D02*
G37*
G36*
X-189444Y-33707D02*
X-191116D01*
X-191187Y-33699D01*
X-191370D01*
X-191568Y-33683D01*
X-191766Y-33667D01*
X-191948Y-33652D01*
X-192035Y-33636D01*
X-192107Y-33620D01*
X-192115D01*
X-192130Y-33612D01*
X-192154Y-33604D01*
X-192186Y-33596D01*
X-192273Y-33564D01*
X-192384Y-33525D01*
X-192511Y-33469D01*
X-192645Y-33398D01*
X-192772Y-33311D01*
X-192899Y-33216D01*
X-192915Y-33200D01*
X-192955Y-33160D01*
X-193010Y-33089D01*
X-193081Y-32986D01*
X-193161Y-32859D01*
X-193208Y-32780D01*
X-193248Y-32693D01*
X-193295Y-32598D01*
X-193335Y-32503D01*
X-193375Y-32392D01*
X-193414Y-32273D01*
Y-32265D01*
X-193422Y-32241D01*
X-193430Y-32201D01*
X-193446Y-32154D01*
X-193462Y-32083D01*
X-193478Y-32003D01*
X-193501Y-31908D01*
X-193517Y-31805D01*
X-193533Y-31678D01*
X-193557Y-31544D01*
X-193573Y-31401D01*
X-193589Y-31242D01*
X-193604Y-31068D01*
X-193612Y-30886D01*
X-193620Y-30688D01*
Y-30482D01*
Y-30466D01*
Y-30434D01*
Y-30371D01*
Y-30299D01*
X-193612Y-30204D01*
Y-30093D01*
X-193604Y-29975D01*
X-193596Y-29840D01*
X-193573Y-29562D01*
X-193533Y-29277D01*
X-193486Y-29000D01*
X-193454Y-28873D01*
X-193414Y-28754D01*
Y-28746D01*
X-193406Y-28730D01*
X-193390Y-28699D01*
X-193375Y-28651D01*
X-193359Y-28603D01*
X-193335Y-28540D01*
X-193272Y-28405D01*
X-193192Y-28255D01*
X-193097Y-28096D01*
X-192978Y-27938D01*
X-192852Y-27803D01*
Y-27795D01*
X-192836Y-27787D01*
X-192788Y-27748D01*
X-192709Y-27692D01*
X-192606Y-27621D01*
X-192471Y-27542D01*
X-192321Y-27462D01*
X-192146Y-27399D01*
X-191948Y-27343D01*
X-191940D01*
X-191924Y-27336D01*
X-191901D01*
X-191861Y-27328D01*
X-191813Y-27320D01*
X-191750Y-27312D01*
X-191679Y-27304D01*
X-191591Y-27296D01*
X-191488Y-27288D01*
X-191370Y-27280D01*
X-191235Y-27272D01*
X-191084Y-27264D01*
X-190918Y-27256D01*
X-190736Y-27248D01*
X-189444D01*
Y-33707D01*
D02*
G37*
%LPC*%
G36*
X176874Y179667D02*
X167118Y175871D01*
Y173778D01*
X176874Y169879D01*
Y172027D01*
X174655Y172867D01*
Y176774D01*
X176874Y177582D01*
Y179667D01*
D02*
G37*
G36*
Y168818D02*
X167118D01*
Y166916D01*
X173648Y162913D01*
X167118D01*
Y161091D01*
X176874D01*
Y168818D01*
D02*
G37*
G36*
Y159997D02*
D01*
X167118Y156201D01*
Y154109D01*
X176874Y150210D01*
X167118D01*
X176874D01*
Y159997D01*
D02*
G37*
G36*
Y149116D02*
X167206D01*
Y147151D01*
X175225D01*
Y142254D01*
X173746D01*
X176874D01*
Y149116D01*
D02*
G37*
G36*
X177040Y141247D02*
Y136603D01*
X177032Y136659D01*
Y136714D01*
X177024Y136785D01*
X177016Y136865D01*
X177008Y136960D01*
X177001Y137055D01*
X176969Y137269D01*
X176929Y137499D01*
X176874Y137760D01*
X176802Y138030D01*
X176715Y138315D01*
X176612Y138600D01*
X176485Y138885D01*
X176327Y139171D01*
X176153Y139456D01*
X175947Y139718D01*
X175717Y139971D01*
X175701Y139987D01*
X175653Y140027D01*
X175582Y140090D01*
X175471Y140169D01*
X175336Y140265D01*
X175178Y140375D01*
X174980Y140486D01*
X174766Y140605D01*
X174520Y140724D01*
X174243Y140843D01*
X173942Y140954D01*
X173617Y141049D01*
X173268Y141128D01*
X172888Y141192D01*
X172491Y141231D01*
X172063Y141247D01*
X177040D01*
X166960D01*
D01*
X171921D01*
X171818Y141239D01*
X171683Y141231D01*
X171540Y141223D01*
X171374Y141208D01*
X171192Y141192D01*
X171001Y141168D01*
X170795Y141136D01*
X170383Y141057D01*
X170169Y141009D01*
X169963Y140946D01*
X169757Y140883D01*
X169567Y140803D01*
X169559Y140795D01*
X169535Y140787D01*
X169496Y140772D01*
X169440Y140740D01*
X169377Y140708D01*
X169298Y140669D01*
X169210Y140621D01*
X169123Y140566D01*
X168909Y140439D01*
X168687Y140280D01*
X168458Y140106D01*
X168228Y139900D01*
X168220Y139892D01*
X168204Y139876D01*
X168172Y139844D01*
X168133Y139797D01*
X168077Y139741D01*
X168022Y139678D01*
X167958Y139607D01*
X167895Y139528D01*
X167824Y139432D01*
X167752Y139337D01*
X167602Y139123D01*
X167467Y138885D01*
X167348Y138640D01*
X167340Y138632D01*
X167332Y138600D01*
X167309Y138545D01*
X167285Y138481D01*
X167261Y138394D01*
X167221Y138291D01*
X167190Y138172D01*
X167150Y138038D01*
X167118Y137887D01*
X167079Y137729D01*
X167047Y137554D01*
X167023Y137372D01*
X166992Y137174D01*
X166976Y136968D01*
X166968Y136762D01*
X166960Y136540D01*
Y136445D01*
X166968Y136397D01*
Y136334D01*
X166976Y136262D01*
X166984Y136183D01*
X166992Y136096D01*
X166999Y136001D01*
X167031Y135787D01*
X167071Y135557D01*
X167126Y135303D01*
X167198Y135034D01*
X167285Y134749D01*
X167396Y134464D01*
X167523Y134178D01*
X167681Y133893D01*
X167855Y133608D01*
X168061Y133346D01*
X168299Y133092D01*
X168315Y133077D01*
X168363Y133037D01*
X168442Y132974D01*
X168545Y132886D01*
X168680Y132791D01*
X168846Y132680D01*
X169044Y132562D01*
X169266Y132443D01*
X169520Y132324D01*
X169797Y132205D01*
X170098Y132094D01*
X170431Y131999D01*
X170788Y131912D01*
X171176Y131848D01*
X171580Y131809D01*
X172016Y131793D01*
X172119D01*
X172174Y131801D01*
X172246D01*
X172317Y131809D01*
X172404D01*
X172499Y131825D01*
X172602Y131833D01*
X172832Y131864D01*
X173086Y131904D01*
X173363Y131951D01*
X173656Y132023D01*
X173957Y132110D01*
X174259Y132213D01*
X174568Y132332D01*
X174877Y132482D01*
X175170Y132649D01*
X175447Y132847D01*
X175709Y133077D01*
X175725Y133092D01*
X175764Y133132D01*
X175828Y133211D01*
X175915Y133314D01*
X176018Y133441D01*
X176129Y133600D01*
X176248Y133782D01*
X176374Y133988D01*
X176501Y134218D01*
X176620Y134479D01*
X176731Y134757D01*
X176834Y135066D01*
X176913Y135391D01*
X176985Y135747D01*
X177024Y136112D01*
X177040Y136508D01*
Y132324D01*
Y141247D01*
D02*
G37*
G36*
X172016Y131793D02*
X171795D01*
X172016D01*
D01*
D02*
G37*
G36*
X177040Y130596D02*
X166960D01*
D01*
X171897D01*
X171818Y130588D01*
X171715D01*
X171580Y130580D01*
X171422Y130564D01*
X171247Y130541D01*
X171057Y130517D01*
X170859Y130485D01*
X170637Y130438D01*
X170415Y130390D01*
X170185Y130327D01*
X169955Y130255D01*
X169718Y130168D01*
X169488Y130073D01*
X169266Y129962D01*
X169250Y129954D01*
X169210Y129930D01*
X169155Y129891D01*
X169068Y129843D01*
X168973Y129772D01*
X168854Y129693D01*
X168727Y129598D01*
X168592Y129487D01*
X168450Y129360D01*
X168299Y129225D01*
X168149Y129067D01*
X167998Y128900D01*
X167847Y128718D01*
X167705Y128528D01*
X167578Y128314D01*
X167451Y128092D01*
X167443Y128084D01*
X167427Y128052D01*
X167404Y127997D01*
X167372Y127926D01*
X167340Y127830D01*
X167293Y127719D01*
X167253Y127593D01*
X167206Y127450D01*
X167158Y127284D01*
X167118Y127109D01*
X167071Y126919D01*
X167039Y126713D01*
X167007Y126491D01*
X166984Y126253D01*
X166968Y126008D01*
X166960Y125754D01*
D01*
Y125627D01*
X166968Y125580D01*
Y125453D01*
X166984Y125302D01*
X166999Y125128D01*
X167023Y124930D01*
X167055Y124716D01*
X167095Y124494D01*
X167150Y124264D01*
X167206Y124026D01*
X167285Y123789D01*
X167372Y123559D01*
X167475Y123329D01*
X167594Y123115D01*
X167729Y122917D01*
X167736Y122909D01*
X167760Y122870D01*
X167808Y122822D01*
X167871Y122751D01*
X167943Y122671D01*
X168038Y122576D01*
X168149Y122473D01*
X168275Y122370D01*
X168418Y122259D01*
X168577Y122148D01*
X168751Y122037D01*
X168933Y121934D01*
X169139Y121831D01*
X169353Y121744D01*
X169583Y121665D01*
X169829Y121602D01*
X170193Y123559D01*
X170185D01*
X170161Y123567D01*
X170122Y123583D01*
X170074Y123599D01*
X170011Y123622D01*
X169947Y123654D01*
X169781Y123733D01*
X169607Y123844D01*
X169417Y123979D01*
X169321Y124058D01*
X169226Y124145D01*
X169139Y124241D01*
X169060Y124344D01*
X169052Y124352D01*
X169044Y124367D01*
X169020Y124399D01*
X168997Y124447D01*
X168965Y124502D01*
X168925Y124565D01*
X168886Y124645D01*
X168846Y124732D01*
X168814Y124827D01*
X168775Y124938D01*
X168735Y125049D01*
X168703Y125176D01*
X168680Y125310D01*
X168656Y125453D01*
X168648Y125596D01*
X168640Y125754D01*
Y125810D01*
X168648Y125881D01*
X168656Y125968D01*
X168664Y126079D01*
X168680Y126206D01*
X168711Y126341D01*
X168743Y126491D01*
X168783Y126658D01*
X168838Y126824D01*
X168909Y126990D01*
X168989Y127165D01*
X169084Y127331D01*
X169195Y127498D01*
X169321Y127656D01*
X169464Y127807D01*
X169472Y127815D01*
X169504Y127838D01*
X169551Y127878D01*
X169615Y127926D01*
X169702Y127981D01*
X169805Y128044D01*
X169932Y128116D01*
X170074Y128187D01*
X170233Y128258D01*
X170415Y128330D01*
X170613Y128393D01*
X170835Y128449D01*
X171065Y128496D01*
X171326Y128536D01*
X171596Y128560D01*
X171889Y128567D01*
X171897D01*
X171905D01*
X171929D01*
X171968D01*
X172008D01*
X172055Y128560D01*
X172174Y128552D01*
X172317Y128544D01*
X172483Y128528D01*
X172666Y128504D01*
X172864Y128472D01*
X173070Y128433D01*
X173292Y128377D01*
X173506Y128314D01*
X173720Y128243D01*
X173934Y128155D01*
X174132Y128052D01*
X174322Y127934D01*
X174496Y127799D01*
X174504Y127791D01*
X174536Y127759D01*
X174576Y127719D01*
X174631Y127656D01*
X174694Y127585D01*
X174766Y127490D01*
X174845Y127379D01*
X174924Y127260D01*
X175011Y127117D01*
X175083Y126967D01*
X175162Y126800D01*
X175225Y126618D01*
X175281Y126428D01*
X175320Y126222D01*
X175352Y126008D01*
X175360Y125778D01*
Y125715D01*
X175352Y125675D01*
Y125611D01*
X175344Y125548D01*
X175336Y125477D01*
X175328Y125390D01*
X175305Y125207D01*
X175257Y124993D01*
X175202Y124771D01*
X175122Y124542D01*
Y124534D01*
X175114Y124510D01*
X175099Y124478D01*
X175075Y124439D01*
X175051Y124383D01*
X175027Y124320D01*
X174956Y124169D01*
X174869Y124003D01*
X174774Y123820D01*
X174655Y123638D01*
X174536Y123464D01*
X173292D01*
Y125723D01*
X171643D01*
Y121475D01*
X177040D01*
Y125723D01*
X177032Y125802D01*
Y125905D01*
X177024Y126039D01*
X177008Y126198D01*
X176985Y126372D01*
X176961Y126555D01*
X176929Y126761D01*
X176882Y126975D01*
X176834Y127197D01*
X176771Y127426D01*
X176699Y127648D01*
X176612Y127878D01*
X176517Y128100D01*
X176406Y128322D01*
X176398Y128338D01*
X176374Y128369D01*
X176335Y128433D01*
X176287Y128504D01*
X176224Y128599D01*
X176137Y128710D01*
X176042Y128829D01*
X175939Y128956D01*
X175812Y129098D01*
X175677Y129233D01*
X175527Y129376D01*
X175360Y129518D01*
X175178Y129653D01*
X174988Y129788D01*
X174782Y129915D01*
X174568Y130026D01*
X174552Y130034D01*
X174512Y130049D01*
X174449Y130081D01*
X174362Y130113D01*
X174251Y130160D01*
X174116Y130208D01*
X173965Y130255D01*
X173791Y130311D01*
X173609Y130366D01*
X173411Y130414D01*
X173189Y130462D01*
X172967Y130509D01*
X172729Y130541D01*
X172483Y130572D01*
X172230Y130588D01*
X171968Y130596D01*
X177040D01*
D02*
G37*
G36*
X176874Y115927D02*
X167118D01*
Y113962D01*
X176874D01*
Y115927D01*
D02*
G37*
G36*
Y112060D02*
X167118D01*
Y106156D01*
Y110158D01*
X173648Y106156D01*
X167118D01*
Y104333D01*
X176874D01*
Y112060D01*
D02*
G37*
%LPD*%
G36*
X173006Y173501D02*
X169393Y174848D01*
X173006Y176172D01*
Y173501D01*
D02*
G37*
G36*
X176874Y163064D02*
X170494Y166995D01*
X176874D01*
Y163064D01*
D02*
G37*
G36*
X173006Y153832D02*
X169393Y155179D01*
X173006Y156502D01*
Y153832D01*
D02*
G37*
G36*
X176874Y152358D02*
X174655Y153198D01*
Y157105D01*
X176874Y157913D01*
Y152358D01*
D02*
G37*
G36*
X172159Y139211D02*
X172269Y139202D01*
X172412Y139195D01*
X172571Y139179D01*
X172745Y139155D01*
X172935Y139123D01*
X173133Y139084D01*
X173339Y139036D01*
X173553Y138973D01*
X173759Y138893D01*
X173965Y138806D01*
X174156Y138711D01*
X174346Y138592D01*
X174512Y138458D01*
X174520Y138450D01*
X174552Y138426D01*
X174591Y138378D01*
X174647Y138315D01*
X174710Y138244D01*
X174782Y138148D01*
X174853Y138046D01*
X174932Y137927D01*
X175011Y137792D01*
X175091Y137649D01*
X175162Y137483D01*
X175225Y137316D01*
X175281Y137134D01*
X175320Y136936D01*
X175352Y136730D01*
X175360Y136516D01*
Y136461D01*
X175352Y136405D01*
X175344Y136318D01*
X175336Y136223D01*
X175313Y136104D01*
X175289Y135969D01*
X175257Y135835D01*
X175210Y135684D01*
X175154Y135525D01*
X175083Y135367D01*
X175004Y135201D01*
X174908Y135042D01*
X174790Y134883D01*
X174663Y134725D01*
X174512Y134582D01*
X174504Y134574D01*
X174473Y134551D01*
X174425Y134511D01*
X174354Y134464D01*
X174266Y134408D01*
X174156Y134345D01*
X174029Y134273D01*
X173878Y134202D01*
X173704Y134131D01*
X173522Y134059D01*
X173308Y133996D01*
X173078Y133940D01*
X172832Y133893D01*
X172563Y133853D01*
X172277Y133829D01*
X171968Y133822D01*
X171960D01*
X171952D01*
X171929D01*
X171897D01*
X171857D01*
X171810Y133829D01*
X171691D01*
X171556Y133845D01*
X171398Y133861D01*
X171215Y133885D01*
X171025Y133917D01*
X170827Y133956D01*
X170621Y134004D01*
X170415Y134059D01*
X170209Y134131D01*
X170011Y134218D01*
X169813Y134313D01*
X169638Y134432D01*
X169472Y134559D01*
X169464Y134566D01*
X169432Y134590D01*
X169393Y134638D01*
X169345Y134693D01*
X169282Y134765D01*
X169210Y134860D01*
X169131Y134963D01*
X169052Y135082D01*
X168981Y135216D01*
X168901Y135359D01*
X168830Y135518D01*
X168767Y135692D01*
X168719Y135882D01*
X168672Y136080D01*
X168648Y136294D01*
X168640Y136516D01*
Y136572D01*
X168648Y136635D01*
X168656Y136714D01*
X168664Y136817D01*
X168687Y136936D01*
X168711Y137071D01*
X168743Y137213D01*
X168790Y137364D01*
X168846Y137530D01*
X168909Y137689D01*
X168997Y137855D01*
X169092Y138014D01*
X169203Y138172D01*
X169329Y138331D01*
X169480Y138474D01*
X169488Y138481D01*
X169520Y138505D01*
X169567Y138545D01*
X169638Y138592D01*
X169726Y138648D01*
X169829Y138711D01*
X169963Y138775D01*
X170106Y138846D01*
X170272Y138917D01*
X170463Y138981D01*
X170669Y139044D01*
X170891Y139100D01*
X171144Y139147D01*
X171406Y139187D01*
X171691Y139211D01*
X172000Y139218D01*
X172008D01*
X172016D01*
X172040D01*
X172071D01*
X172159Y139211D01*
D02*
G37*
G36*
X177040Y121475D02*
X175534D01*
X175542Y121483D01*
X175558Y121507D01*
X175590Y121538D01*
X175637Y121594D01*
X175685Y121657D01*
X175748Y121736D01*
X175820Y121824D01*
X175891Y121934D01*
X175970Y122053D01*
X176057Y122188D01*
X176145Y122339D01*
X176232Y122497D01*
X176327Y122671D01*
X176414Y122862D01*
X176501Y123060D01*
X176588Y123274D01*
X176596Y123289D01*
X176604Y123329D01*
X176628Y123393D01*
X176660Y123472D01*
X176691Y123583D01*
X176731Y123710D01*
X176771Y123852D01*
X176810Y124011D01*
X176858Y124185D01*
X176898Y124367D01*
X176937Y124565D01*
X176969Y124771D01*
X177001Y124985D01*
X177024Y125199D01*
X177032Y125429D01*
X177040Y125651D01*
Y121475D01*
D02*
G37*
G36*
X176874Y106307D02*
X170494Y110237D01*
X176874D01*
Y106307D01*
D02*
G37*
%LPC*%
G36*
X176874Y29639D02*
X167118D01*
Y26200D01*
X167126Y26049D01*
Y25891D01*
X167134Y25708D01*
Y25518D01*
X167158Y25130D01*
X167166Y24932D01*
X167182Y24741D01*
X167198Y24567D01*
X167221Y24401D01*
X167245Y24266D01*
X167269Y24147D01*
Y24139D01*
X167277Y24107D01*
X167293Y24068D01*
X167316Y24004D01*
X167340Y23933D01*
X167380Y23854D01*
X167419Y23759D01*
X167475Y23656D01*
X167530Y23545D01*
X167602Y23434D01*
X167681Y23315D01*
X167768Y23204D01*
X167863Y23085D01*
X167974Y22966D01*
X168093Y22855D01*
X168228Y22745D01*
X168236Y22737D01*
X168260Y22721D01*
X168299Y22689D01*
X168363Y22657D01*
X168434Y22610D01*
X168521Y22562D01*
X168624Y22515D01*
X168735Y22459D01*
X168870Y22404D01*
X169012Y22356D01*
X169163Y22309D01*
X169337Y22261D01*
X169512Y22229D01*
X169702Y22198D01*
X169908Y22182D01*
X170122Y22174D01*
X176874D01*
Y29639D01*
D02*
G37*
G36*
X177040Y20954D02*
Y16309D01*
X177032Y16365D01*
Y16421D01*
X177024Y16492D01*
X177016Y16571D01*
X177008Y16666D01*
X177001Y16761D01*
X176969Y16975D01*
X176929Y17205D01*
X176874Y17467D01*
X176802Y17736D01*
X176715Y18021D01*
X176612Y18307D01*
X176485Y18592D01*
X176327Y18877D01*
X176153Y19162D01*
X175947Y19424D01*
X175717Y19678D01*
X175701Y19693D01*
X175653Y19733D01*
X175582Y19797D01*
X175471Y19876D01*
X175336Y19971D01*
X175178Y20082D01*
X174980Y20193D01*
X174766Y20312D01*
X174520Y20430D01*
X174243Y20549D01*
X173942Y20660D01*
X173617Y20755D01*
X173268Y20835D01*
X172888Y20898D01*
X172491Y20938D01*
X172063Y20954D01*
X171921D01*
X171818Y20946D01*
X171683Y20938D01*
X171540Y20930D01*
X171374Y20914D01*
X171192Y20898D01*
X171001Y20874D01*
X170795Y20842D01*
X170383Y20763D01*
X170169Y20716D01*
X169963Y20652D01*
X169757Y20589D01*
X169567Y20510D01*
X169559Y20502D01*
X169535Y20494D01*
X169496Y20478D01*
X169440Y20446D01*
X169377Y20415D01*
X169298Y20375D01*
X169210Y20327D01*
X169123Y20272D01*
X168909Y20145D01*
X168687Y19987D01*
X168458Y19812D01*
X168228Y19606D01*
X168220Y19598D01*
X168204Y19583D01*
X168172Y19551D01*
X168133Y19503D01*
X168077Y19448D01*
X168022Y19384D01*
X167958Y19313D01*
X167895Y19234D01*
X167824Y19139D01*
X167752Y19044D01*
X167602Y18830D01*
X167467Y18592D01*
X167348Y18346D01*
X167340Y18338D01*
X167332Y18307D01*
X167309Y18251D01*
X167285Y18188D01*
X167261Y18101D01*
X167221Y17997D01*
X167190Y17879D01*
X167150Y17744D01*
X167118Y17593D01*
X167079Y17435D01*
X167047Y17261D01*
X167023Y17078D01*
X166992Y16880D01*
X166976Y16674D01*
X166968Y16468D01*
X166960Y16246D01*
Y16151D01*
X166968Y16104D01*
Y16040D01*
X166976Y15969D01*
X166984Y15890D01*
X166992Y15802D01*
X166999Y15707D01*
X167031Y15493D01*
X167071Y15264D01*
X167126Y15010D01*
X167198Y14740D01*
X167285Y14455D01*
X167396Y14170D01*
X167523Y13885D01*
X167681Y13599D01*
X167855Y13314D01*
X168061Y13053D01*
X168299Y12799D01*
X168315Y12783D01*
X168363Y12743D01*
X168442Y12680D01*
X168545Y12593D01*
X168680Y12498D01*
X168846Y12387D01*
X169044Y12268D01*
X169266Y12149D01*
X169520Y12030D01*
X169797Y11911D01*
X170098Y11800D01*
X170431Y11705D01*
X170788Y11618D01*
X171176Y11555D01*
X171580Y11515D01*
X172016Y11499D01*
X166960D01*
X172119D01*
X172174Y11507D01*
X172246D01*
X172317Y11515D01*
X172404D01*
X172499Y11531D01*
X172602Y11539D01*
X172832Y11571D01*
X173086Y11610D01*
X173363Y11658D01*
X173656Y11729D01*
X173957Y11816D01*
X174259Y11919D01*
X174568Y12038D01*
X174877Y12189D01*
X175170Y12355D01*
X175447Y12553D01*
X175709Y12783D01*
X175725Y12799D01*
X175764Y12838D01*
X175828Y12918D01*
X175915Y13021D01*
X176018Y13147D01*
X176129Y13306D01*
X176248Y13488D01*
X176374Y13694D01*
X176501Y13924D01*
X176620Y14186D01*
X176731Y14463D01*
X176834Y14772D01*
X176913Y15097D01*
X176985Y15454D01*
X177024Y15818D01*
X177040Y16214D01*
Y12030D01*
Y20954D01*
D02*
G37*
G36*
X176874Y10905D02*
D01*
Y8591D01*
X167118Y10905D01*
Y8892D01*
X173823Y7426D01*
X167118Y5643D01*
Y3297D01*
X173934Y1593D01*
X167118Y103D01*
Y-1886D01*
X176874Y476D01*
Y10905D01*
D02*
G37*
G36*
Y-2900D02*
X167118D01*
Y-10310D01*
Y-10120D01*
X168767D01*
Y-4866D01*
X170930D01*
Y-9755D01*
X172579D01*
Y-4866D01*
X175225D01*
Y-10310D01*
X167118D01*
X176874D01*
Y-2900D01*
D02*
G37*
G36*
Y-11990D02*
X167118D01*
Y-20755D01*
Y-16380D01*
X167126Y-16507D01*
X167134Y-16658D01*
X167142Y-16824D01*
X167150Y-16998D01*
X167166Y-17181D01*
X167182Y-17363D01*
X167229Y-17743D01*
X167261Y-17926D01*
X167301Y-18092D01*
X167340Y-18250D01*
X167388Y-18393D01*
Y-18401D01*
X167404Y-18425D01*
X167419Y-18464D01*
X167435Y-18512D01*
X167467Y-18575D01*
X167507Y-18639D01*
X167554Y-18718D01*
X167602Y-18805D01*
X167665Y-18892D01*
X167729Y-18987D01*
X167808Y-19083D01*
X167895Y-19178D01*
X167990Y-19273D01*
X168085Y-19360D01*
X168204Y-19455D01*
X168323Y-19534D01*
X168331Y-19542D01*
X168355Y-19550D01*
X168386Y-19574D01*
X168442Y-19598D01*
X168505Y-19637D01*
X168577Y-19669D01*
X168664Y-19709D01*
X168767Y-19748D01*
X168870Y-19788D01*
X168989Y-19828D01*
X169115Y-19867D01*
X169250Y-19899D01*
X169543Y-19946D01*
X169702Y-19954D01*
X169860Y-19962D01*
X169876D01*
X169908D01*
X169963Y-19954D01*
X170043D01*
X170138Y-19946D01*
X170241Y-19931D01*
X170368Y-19907D01*
X170494Y-19883D01*
X170637Y-19843D01*
X170788Y-19804D01*
X170938Y-19748D01*
X171089Y-19685D01*
X171239Y-19614D01*
X171390Y-19526D01*
X171532Y-19423D01*
X171675Y-19312D01*
X171683Y-19304D01*
X171707Y-19281D01*
X171738Y-19241D01*
X171786Y-19194D01*
X171849Y-19122D01*
X171913Y-19043D01*
X171984Y-18948D01*
X172055Y-18829D01*
X172127Y-18702D01*
X172206Y-18560D01*
X172285Y-18401D01*
X172357Y-18227D01*
X172420Y-18045D01*
X172483Y-17838D01*
X172531Y-17616D01*
X172571Y-17387D01*
X172579Y-17395D01*
X172586Y-17418D01*
X172610Y-17450D01*
X172634Y-17490D01*
X172674Y-17545D01*
X172713Y-17609D01*
X172816Y-17759D01*
X172935Y-17918D01*
X173078Y-18092D01*
X173228Y-18266D01*
X173395Y-18433D01*
X173403Y-18441D01*
X173419Y-18449D01*
X173442Y-18480D01*
X173482Y-18512D01*
X173529Y-18552D01*
X173593Y-18599D01*
X173672Y-18663D01*
X173759Y-18734D01*
X173862Y-18805D01*
X173973Y-18892D01*
X174100Y-18987D01*
X174251Y-19083D01*
X174409Y-19194D01*
X174576Y-19304D01*
X174766Y-19431D01*
X174972Y-19558D01*
X176874Y-20755D01*
Y-18393D01*
X174758Y-16975D01*
X174742Y-16967D01*
X174710Y-16943D01*
X174647Y-16903D01*
X174576Y-16848D01*
X174480Y-16792D01*
X174377Y-16721D01*
X174266Y-16642D01*
X174148Y-16562D01*
X173902Y-16388D01*
X173783Y-16301D01*
X173672Y-16214D01*
X173561Y-16135D01*
X173466Y-16063D01*
X173387Y-15992D01*
X173323Y-15936D01*
X173308Y-15921D01*
X173276Y-15889D01*
X173220Y-15833D01*
X173157Y-15762D01*
X173094Y-15667D01*
X173022Y-15572D01*
X172959Y-15461D01*
X172911Y-15342D01*
X172903Y-15326D01*
X172896Y-15287D01*
X172880Y-15207D01*
X172864Y-15160D01*
X172856Y-15104D01*
X172848Y-15041D01*
X172832Y-14962D01*
X172824Y-14883D01*
X172816Y-14795D01*
X172808Y-14700D01*
Y-14589D01*
X172800Y-14478D01*
Y-13955D01*
X176874D01*
Y-11990D01*
D02*
G37*
%LPD*%
G36*
X171548Y26414D02*
X171540Y26319D01*
Y26216D01*
X171532Y26097D01*
Y25970D01*
X171509Y25716D01*
X171485Y25455D01*
X171469Y25336D01*
X171445Y25225D01*
X171422Y25130D01*
X171398Y25051D01*
Y25043D01*
X171390Y25035D01*
X171366Y24987D01*
X171334Y24916D01*
X171279Y24821D01*
X171215Y24726D01*
X171136Y24623D01*
X171033Y24520D01*
X170922Y24432D01*
X170906Y24425D01*
X170867Y24393D01*
X170795Y24361D01*
X170700Y24314D01*
X170589Y24274D01*
X170455Y24234D01*
X170312Y24211D01*
X170154Y24203D01*
X170146D01*
X170130D01*
X170098D01*
X170066Y24211D01*
X170019D01*
X169963Y24218D01*
X169844Y24242D01*
X169702Y24282D01*
X169559Y24337D01*
X169409Y24417D01*
X169274Y24520D01*
X169266D01*
X169258Y24536D01*
X169218Y24575D01*
X169155Y24646D01*
X169092Y24734D01*
X169012Y24852D01*
X168941Y24987D01*
X168878Y25138D01*
X168838Y25312D01*
Y25328D01*
X168830Y25352D01*
Y25383D01*
X168822Y25423D01*
X168814Y25478D01*
X168806Y25542D01*
X168798Y25621D01*
Y25708D01*
X168790Y25811D01*
X168783Y25930D01*
X168775Y26057D01*
Y26200D01*
X168767Y26366D01*
Y27674D01*
X171548D01*
Y26414D01*
D02*
G37*
G36*
X176874Y22174D02*
X170209D01*
X170272Y22182D01*
X170352D01*
X170439Y22190D01*
X170542Y22198D01*
X170653Y22213D01*
X170891Y22253D01*
X171144Y22317D01*
X171398Y22396D01*
X171635Y22507D01*
X171643D01*
X171659Y22523D01*
X171691Y22538D01*
X171738Y22562D01*
X171786Y22594D01*
X171849Y22634D01*
X171984Y22729D01*
X172143Y22847D01*
X172301Y22990D01*
X172460Y23149D01*
X172602Y23331D01*
Y23339D01*
X172618Y23355D01*
X172634Y23379D01*
X172658Y23418D01*
X172689Y23466D01*
X172721Y23513D01*
X172792Y23648D01*
X172864Y23798D01*
X172943Y23973D01*
X173006Y24155D01*
X173062Y24353D01*
Y24361D01*
X173070Y24385D01*
X173078Y24425D01*
X173086Y24488D01*
X173094Y24559D01*
X173102Y24646D01*
X173117Y24750D01*
X173125Y24876D01*
X173141Y25011D01*
X173157Y25161D01*
X173165Y25328D01*
X173173Y25510D01*
X173181Y25708D01*
X173189Y25922D01*
X173197Y26152D01*
Y27674D01*
X176874D01*
Y22174D01*
D02*
G37*
G36*
X172159Y18917D02*
X172269Y18909D01*
X172412Y18901D01*
X172571Y18885D01*
X172745Y18861D01*
X172935Y18830D01*
X173133Y18790D01*
X173339Y18743D01*
X173553Y18679D01*
X173759Y18600D01*
X173965Y18513D01*
X174156Y18418D01*
X174346Y18299D01*
X174512Y18164D01*
X174520Y18156D01*
X174552Y18132D01*
X174591Y18085D01*
X174647Y18021D01*
X174710Y17950D01*
X174782Y17855D01*
X174853Y17752D01*
X174932Y17633D01*
X175011Y17498D01*
X175091Y17356D01*
X175162Y17189D01*
X175225Y17023D01*
X175281Y16840D01*
X175320Y16642D01*
X175352Y16436D01*
X175360Y16222D01*
Y16167D01*
X175352Y16111D01*
X175344Y16024D01*
X175336Y15929D01*
X175313Y15810D01*
X175289Y15676D01*
X175257Y15541D01*
X175210Y15390D01*
X175154Y15232D01*
X175083Y15073D01*
X175004Y14907D01*
X174908Y14748D01*
X174790Y14590D01*
X174663Y14431D01*
X174512Y14289D01*
X174504Y14281D01*
X174473Y14257D01*
X174425Y14217D01*
X174354Y14170D01*
X174266Y14114D01*
X174156Y14051D01*
X174029Y13980D01*
X173878Y13908D01*
X173704Y13837D01*
X173521Y13766D01*
X173308Y13702D01*
X173078Y13647D01*
X172832Y13599D01*
X172563Y13560D01*
X172277Y13536D01*
X171968Y13528D01*
X171960D01*
X171952D01*
X171929D01*
X171897D01*
X171857D01*
X171810Y13536D01*
X171691D01*
X171556Y13552D01*
X171398Y13568D01*
X171215Y13591D01*
X171025Y13623D01*
X170827Y13663D01*
X170621Y13710D01*
X170415Y13766D01*
X170209Y13837D01*
X170011Y13924D01*
X169813Y14019D01*
X169638Y14138D01*
X169472Y14265D01*
X169464Y14273D01*
X169432Y14297D01*
X169393Y14344D01*
X169345Y14400D01*
X169282Y14471D01*
X169210Y14566D01*
X169131Y14669D01*
X169052Y14788D01*
X168981Y14923D01*
X168901Y15065D01*
X168830Y15224D01*
X168767Y15398D01*
X168719Y15588D01*
X168672Y15786D01*
X168648Y16000D01*
X168640Y16222D01*
Y16278D01*
X168648Y16341D01*
X168656Y16421D01*
X168664Y16523D01*
X168687Y16642D01*
X168711Y16777D01*
X168743Y16920D01*
X168790Y17070D01*
X168846Y17237D01*
X168909Y17395D01*
X168997Y17562D01*
X169092Y17720D01*
X169202Y17879D01*
X169329Y18037D01*
X169480Y18180D01*
X169488Y18188D01*
X169520Y18211D01*
X169567Y18251D01*
X169638Y18299D01*
X169726Y18354D01*
X169829Y18418D01*
X169963Y18481D01*
X170106Y18552D01*
X170272Y18624D01*
X170463Y18687D01*
X170669Y18750D01*
X170891Y18806D01*
X171144Y18853D01*
X171406Y18893D01*
X171691Y18917D01*
X172000Y18925D01*
X172008D01*
X172016D01*
X172040D01*
X172071D01*
X172159Y18917D01*
D02*
G37*
G36*
X176874Y2576D02*
X169583Y4509D01*
X176874Y6451D01*
Y2576D01*
D02*
G37*
G36*
X171247Y-15746D02*
X171239Y-15873D01*
Y-16016D01*
X171231Y-16158D01*
X171215Y-16459D01*
X171208Y-16610D01*
X171200Y-16753D01*
X171184Y-16880D01*
X171168Y-16998D01*
X171152Y-17093D01*
X171128Y-17173D01*
Y-17181D01*
X171120Y-17189D01*
X171105Y-17228D01*
X171073Y-17299D01*
X171033Y-17379D01*
X170978Y-17466D01*
X170906Y-17561D01*
X170819Y-17648D01*
X170716Y-17728D01*
X170700Y-17735D01*
X170661Y-17759D01*
X170597Y-17791D01*
X170518Y-17830D01*
X170407Y-17870D01*
X170288Y-17902D01*
X170146Y-17926D01*
X169987Y-17933D01*
X169979D01*
X169963D01*
X169939D01*
X169908D01*
X169813Y-17918D01*
X169702Y-17902D01*
X169575Y-17870D01*
X169440Y-17823D01*
X169306Y-17751D01*
X169187Y-17664D01*
X169171Y-17648D01*
X169139Y-17616D01*
X169084Y-17553D01*
X169028Y-17474D01*
X168965Y-17371D01*
X168901Y-17244D01*
X168846Y-17093D01*
X168806Y-16927D01*
Y-16895D01*
X168798Y-16872D01*
Y-16832D01*
X168790Y-16792D01*
Y-16729D01*
X168783Y-16658D01*
Y-16467D01*
X168775Y-16357D01*
Y-16222D01*
X168767Y-16063D01*
Y-13955D01*
X171247D01*
Y-15746D01*
D02*
G37*
%LPC*%
G36*
X-109505Y-56006D02*
Y-60904D01*
X-117525D01*
Y-56006D01*
X-119174D01*
Y-62869D01*
X-109505D01*
Y-56006D01*
D02*
G37*
G36*
X-109418Y-63962D02*
Y-67861D01*
X-119174Y-63962D01*
D01*
Y-66110D01*
X-116955Y-66950D01*
Y-70857D01*
X-119174Y-71665D01*
Y-73750D01*
X-109418D01*
Y-63962D01*
D02*
G37*
G36*
Y-74027D02*
X-111067D01*
Y-76912D01*
X-119174D01*
Y-78877D01*
X-111067D01*
Y-81770D01*
X-119174D01*
D01*
X-109418D01*
Y-74027D01*
D02*
G37*
G36*
Y-82958D02*
X-119174D01*
Y-84924D01*
X-109418D01*
Y-82958D01*
D02*
G37*
G36*
X-113943Y-86683D02*
X-117834D01*
X-117842Y-86691D01*
X-117858Y-86715D01*
X-117890Y-86746D01*
X-117937Y-86802D01*
X-117985Y-86865D01*
X-118048Y-86945D01*
X-118120Y-87032D01*
X-118191Y-87143D01*
X-118270Y-87261D01*
X-118357Y-87396D01*
X-118444Y-87547D01*
X-118532Y-87705D01*
X-118627Y-87880D01*
X-118714Y-88070D01*
X-118801Y-88268D01*
X-118888Y-88482D01*
X-118896Y-88498D01*
X-118904Y-88537D01*
X-118928Y-88601D01*
X-118960Y-88680D01*
X-118991Y-88791D01*
X-119031Y-88918D01*
X-119071Y-89060D01*
X-119110Y-89219D01*
X-119158Y-89393D01*
X-119197Y-89576D01*
X-119237Y-89774D01*
X-119269Y-89980D01*
X-119300Y-90194D01*
X-119324Y-90408D01*
X-119332Y-90637D01*
X-119340Y-90859D01*
Y-90931D01*
X-119332Y-91010D01*
Y-91113D01*
X-119324Y-91248D01*
X-119308Y-91406D01*
X-119284Y-91580D01*
X-119261Y-91763D01*
X-119229Y-91969D01*
X-119181Y-92183D01*
X-119134Y-92405D01*
X-119071Y-92634D01*
X-118999Y-92856D01*
X-118912Y-93086D01*
X-118817Y-93308D01*
X-118706Y-93530D01*
X-118698Y-93546D01*
X-118674Y-93577D01*
X-118635Y-93641D01*
X-118587Y-93712D01*
X-118524Y-93807D01*
X-118437Y-93918D01*
X-118342Y-94037D01*
X-118238Y-94164D01*
X-118112Y-94307D01*
X-117977Y-94441D01*
X-117826Y-94584D01*
X-117660Y-94727D01*
X-117478Y-94861D01*
X-117288Y-94996D01*
X-117081Y-95123D01*
X-116868Y-95234D01*
X-116852Y-95242D01*
X-116812Y-95258D01*
X-116749Y-95289D01*
X-116661Y-95321D01*
X-116551Y-95368D01*
X-116416Y-95416D01*
X-116265Y-95464D01*
X-116091Y-95519D01*
X-115909Y-95575D01*
X-115710Y-95622D01*
X-115489Y-95670D01*
X-115267Y-95717D01*
X-115029Y-95749D01*
X-114783Y-95781D01*
X-114530Y-95796D01*
X-114268Y-95804D01*
X-119340D01*
D01*
X-109260D01*
X-114197D01*
X-114118Y-95796D01*
X-114015D01*
X-113880Y-95788D01*
X-113721Y-95773D01*
X-113547Y-95749D01*
X-113357Y-95725D01*
X-113159Y-95693D01*
X-112937Y-95646D01*
X-112715Y-95598D01*
X-112485Y-95535D01*
X-112255Y-95464D01*
X-112017Y-95376D01*
X-111788Y-95281D01*
X-111566Y-95170D01*
X-111550Y-95162D01*
X-111510Y-95139D01*
X-111455Y-95099D01*
X-111368Y-95051D01*
X-111273Y-94980D01*
X-111154Y-94901D01*
X-111027Y-94806D01*
X-110892Y-94695D01*
X-110750Y-94568D01*
X-110599Y-94433D01*
X-110448Y-94275D01*
X-110298Y-94108D01*
X-110147Y-93926D01*
X-110005Y-93736D01*
X-109878Y-93522D01*
X-109751Y-93300D01*
X-109743Y-93292D01*
X-109727Y-93260D01*
X-109704Y-93205D01*
X-109672Y-93134D01*
X-109640Y-93039D01*
X-109593Y-92928D01*
X-109553Y-92801D01*
X-109505Y-92658D01*
X-109458Y-92492D01*
X-109418Y-92317D01*
X-109371Y-92127D01*
X-109339Y-91921D01*
X-109307Y-91699D01*
X-109283Y-91462D01*
X-109268Y-91216D01*
X-109260Y-90962D01*
Y-90836D01*
X-109268Y-90788D01*
Y-90661D01*
X-109283Y-90511D01*
X-109299Y-90336D01*
X-109323Y-90138D01*
X-109355Y-89924D01*
X-109394Y-89702D01*
X-109450Y-89473D01*
X-109505Y-89235D01*
X-109585Y-88997D01*
X-109672Y-88767D01*
X-109775Y-88537D01*
X-109894Y-88323D01*
X-110028Y-88125D01*
X-110036Y-88117D01*
X-110060Y-88078D01*
X-110108Y-88030D01*
X-110171Y-87959D01*
X-110242Y-87880D01*
X-110337Y-87785D01*
X-110448Y-87682D01*
X-110575Y-87578D01*
X-110718Y-87467D01*
X-110876Y-87357D01*
X-111051Y-87246D01*
X-111233Y-87143D01*
X-111439Y-87040D01*
X-111653Y-86952D01*
X-111883Y-86873D01*
X-112128Y-86810D01*
X-112493Y-88767D01*
X-112485D01*
X-112461Y-88775D01*
X-112422Y-88791D01*
X-112374Y-88807D01*
X-112311Y-88831D01*
X-112247Y-88862D01*
X-112081Y-88941D01*
X-111907Y-89052D01*
X-111716Y-89187D01*
X-111621Y-89266D01*
X-111526Y-89354D01*
X-111439Y-89449D01*
X-111360Y-89552D01*
X-111352Y-89560D01*
X-111344Y-89576D01*
X-111320Y-89607D01*
X-111296Y-89655D01*
X-111265Y-89710D01*
X-111225Y-89774D01*
X-111185Y-89853D01*
X-111146Y-89940D01*
X-111114Y-90035D01*
X-111074Y-90146D01*
X-111035Y-90257D01*
X-111003Y-90384D01*
X-110979Y-90519D01*
X-110956Y-90661D01*
X-110948Y-90804D01*
X-110940Y-90962D01*
Y-91018D01*
X-110948Y-91089D01*
X-110956Y-91176D01*
X-110963Y-91287D01*
X-110979Y-91414D01*
X-111011Y-91549D01*
X-111043Y-91699D01*
X-111082Y-91866D01*
X-111138Y-92032D01*
X-111209Y-92199D01*
X-111288Y-92373D01*
X-111383Y-92539D01*
X-111495Y-92706D01*
X-111621Y-92864D01*
X-111764Y-93015D01*
X-111772Y-93023D01*
X-111804Y-93047D01*
X-111851Y-93086D01*
X-111915Y-93134D01*
X-112002Y-93189D01*
X-112105Y-93253D01*
X-112232Y-93324D01*
X-112374Y-93395D01*
X-112533Y-93467D01*
X-112715Y-93538D01*
X-112913Y-93601D01*
X-113135Y-93657D01*
X-113365Y-93704D01*
X-113626Y-93744D01*
X-113896Y-93768D01*
X-114189Y-93776D01*
X-114197D01*
X-114205D01*
X-114228D01*
X-114268D01*
X-114308D01*
X-114355Y-93768D01*
X-114474Y-93760D01*
X-114617Y-93752D01*
X-114783Y-93736D01*
X-114965Y-93712D01*
X-115164Y-93680D01*
X-115370Y-93641D01*
X-115592Y-93585D01*
X-115806Y-93522D01*
X-116019Y-93451D01*
X-116234Y-93364D01*
X-116432Y-93260D01*
X-116622Y-93142D01*
X-116796Y-93007D01*
X-116804Y-92999D01*
X-116836Y-92967D01*
X-116875Y-92928D01*
X-116931Y-92864D01*
X-116994Y-92793D01*
X-117066Y-92698D01*
X-117145Y-92587D01*
X-117224Y-92468D01*
X-117311Y-92325D01*
X-117383Y-92175D01*
X-117462Y-92008D01*
X-117525Y-91826D01*
X-117581Y-91636D01*
X-117620Y-91430D01*
X-117652Y-91216D01*
X-117660Y-90986D01*
Y-90923D01*
X-117652Y-90883D01*
Y-90820D01*
X-117644Y-90756D01*
X-117636Y-90685D01*
X-117628Y-90598D01*
X-117605Y-90415D01*
X-117557Y-90202D01*
X-117501Y-89980D01*
X-117422Y-89750D01*
Y-89742D01*
X-117414Y-89718D01*
X-117398Y-89686D01*
X-117375Y-89647D01*
X-117351Y-89591D01*
X-117327Y-89528D01*
X-117256Y-89377D01*
X-117169Y-89211D01*
X-117073Y-89029D01*
X-116955Y-88846D01*
X-116836Y-88672D01*
X-115592D01*
Y-90931D01*
X-113943D01*
Y-86683D01*
D02*
G37*
G36*
X-109418Y-97342D02*
X-119174D01*
Y-99307D01*
X-109418D01*
Y-97342D01*
D02*
G37*
G36*
X-114141Y-100924D02*
X-114514D01*
X-114593Y-100932D01*
X-114704D01*
X-114823Y-100940D01*
X-114958Y-100948D01*
X-115108Y-100963D01*
X-115267Y-100979D01*
X-115433Y-100995D01*
X-115782Y-101051D01*
X-116131Y-101122D01*
X-116471Y-101225D01*
X-116479Y-101233D01*
X-116519Y-101241D01*
X-116574Y-101265D01*
X-116646Y-101288D01*
X-116741Y-101328D01*
X-116844Y-101376D01*
X-116955Y-101431D01*
X-117081Y-101494D01*
X-117216Y-101566D01*
X-117359Y-101637D01*
X-117644Y-101819D01*
X-117929Y-102033D01*
X-118064Y-102144D01*
X-118191Y-102271D01*
X-118199Y-102279D01*
X-118215Y-102295D01*
X-118238Y-102326D01*
X-118270Y-102366D01*
X-118318Y-102414D01*
X-118365Y-102477D01*
X-118421Y-102556D01*
X-118476Y-102636D01*
X-118540Y-102731D01*
X-118603Y-102834D01*
X-118666Y-102945D01*
X-118730Y-103071D01*
X-118793Y-103198D01*
X-118857Y-103341D01*
X-118912Y-103491D01*
X-118968Y-103650D01*
Y-103658D01*
X-118975Y-103682D01*
X-118983Y-103721D01*
X-118999Y-103769D01*
X-119015Y-103832D01*
X-119031Y-103912D01*
X-119055Y-104007D01*
X-119071Y-104117D01*
X-119086Y-104236D01*
X-119110Y-104363D01*
X-119126Y-104506D01*
X-119142Y-104664D01*
X-119158Y-104831D01*
X-119166Y-105005D01*
X-119174Y-105195D01*
Y-100924D01*
Y-109094D01*
X-109418D01*
Y-105195D01*
Y-105306D01*
X-109426Y-105203D01*
Y-105084D01*
X-109434Y-104958D01*
X-109442Y-104815D01*
X-109466Y-104514D01*
X-109497Y-104205D01*
X-109521Y-104054D01*
X-109545Y-103912D01*
X-109577Y-103777D01*
X-109608Y-103650D01*
Y-103642D01*
X-109624Y-103610D01*
X-109632Y-103563D01*
X-109656Y-103507D01*
X-109688Y-103428D01*
X-109719Y-103341D01*
X-109767Y-103246D01*
X-109814Y-103143D01*
X-109878Y-103032D01*
X-109941Y-102913D01*
X-110013Y-102786D01*
X-110100Y-102667D01*
X-110187Y-102541D01*
X-110290Y-102414D01*
X-110393Y-102295D01*
X-110512Y-102176D01*
X-110520Y-102168D01*
X-110543Y-102152D01*
X-110575Y-102120D01*
X-110623Y-102073D01*
X-110686Y-102025D01*
X-110765Y-101962D01*
X-110853Y-101899D01*
X-110948Y-101827D01*
X-111059Y-101756D01*
X-111178Y-101685D01*
X-111312Y-101605D01*
X-111447Y-101526D01*
X-111597Y-101455D01*
X-111756Y-101376D01*
X-112089Y-101249D01*
X-112097D01*
X-112128Y-101233D01*
X-112184Y-101217D01*
X-112255Y-101201D01*
X-112350Y-101170D01*
X-112453Y-101146D01*
X-112580Y-101114D01*
X-112731Y-101082D01*
X-112889Y-101059D01*
X-113064Y-101027D01*
X-113254Y-100995D01*
X-113460Y-100971D01*
X-113674Y-100955D01*
X-113904Y-100940D01*
X-114141Y-100924D01*
D02*
G37*
%LPD*%
G36*
X-111693Y-68931D02*
X-115306Y-70255D01*
Y-67584D01*
X-111693Y-68931D01*
D02*
G37*
G36*
X-109418Y-73750D02*
X-119174D01*
X-109418Y-69954D01*
Y-73750D01*
D02*
G37*
G36*
X-114023Y-102961D02*
X-113912D01*
X-113793Y-102968D01*
X-113658Y-102976D01*
X-113381Y-103000D01*
X-113095Y-103040D01*
X-112818Y-103087D01*
X-112691Y-103119D01*
X-112572Y-103159D01*
X-112564D01*
X-112549Y-103167D01*
X-112517Y-103182D01*
X-112469Y-103198D01*
X-112422Y-103214D01*
X-112358Y-103238D01*
X-112224Y-103301D01*
X-112073Y-103380D01*
X-111915Y-103476D01*
X-111756Y-103595D01*
X-111621Y-103721D01*
X-111613D01*
X-111605Y-103737D01*
X-111566Y-103785D01*
X-111510Y-103864D01*
X-111439Y-103967D01*
X-111360Y-104102D01*
X-111280Y-104252D01*
X-111217Y-104427D01*
X-111162Y-104625D01*
Y-104633D01*
X-111154Y-104649D01*
Y-104672D01*
X-111146Y-104712D01*
X-111138Y-104759D01*
X-111130Y-104823D01*
X-111122Y-104894D01*
X-111114Y-104981D01*
X-111106Y-105084D01*
X-111098Y-105203D01*
X-111090Y-105338D01*
X-111082Y-105489D01*
X-111074Y-105655D01*
X-111067Y-105837D01*
Y-107129D01*
X-117525D01*
Y-105457D01*
X-117517Y-105386D01*
Y-105203D01*
X-117501Y-105005D01*
X-117486Y-104807D01*
X-117470Y-104625D01*
X-117454Y-104537D01*
X-117438Y-104466D01*
Y-104458D01*
X-117430Y-104442D01*
X-117422Y-104419D01*
X-117414Y-104387D01*
X-117383Y-104300D01*
X-117343Y-104189D01*
X-117288Y-104062D01*
X-117216Y-103927D01*
X-117129Y-103800D01*
X-117034Y-103674D01*
X-117018Y-103658D01*
X-116978Y-103618D01*
X-116907Y-103563D01*
X-116804Y-103491D01*
X-116677Y-103412D01*
X-116598Y-103365D01*
X-116511Y-103325D01*
X-116416Y-103278D01*
X-116321Y-103238D01*
X-116210Y-103198D01*
X-116091Y-103159D01*
X-116083D01*
X-116059Y-103151D01*
X-116019Y-103143D01*
X-115972Y-103127D01*
X-115901Y-103111D01*
X-115821Y-103095D01*
X-115726Y-103071D01*
X-115623Y-103056D01*
X-115497Y-103040D01*
X-115362Y-103016D01*
X-115219Y-103000D01*
X-115061Y-102984D01*
X-114886Y-102968D01*
X-114704Y-102961D01*
X-114506Y-102953D01*
X-114300D01*
X-114284D01*
X-114252D01*
X-114189D01*
X-114118D01*
X-114023Y-102961D01*
D02*
G37*
G54D13*
X-143311Y-188996D02*
X-141618Y-187303D01*
X-138233D01*
X-136540Y-188996D01*
Y-195767D01*
X-138233Y-197460D01*
X-141618D01*
X-143311Y-195767D01*
Y-192382D01*
X-139926D01*
X-146697Y-187303D02*
Y-197460D01*
X-151775D01*
X-153468Y-195767D01*
Y-188996D01*
X-151775Y-187303D01*
X-146697D01*
X-156854Y-188996D02*
X-158546Y-187303D01*
X-161932D01*
X-163625Y-188996D01*
Y-195767D01*
X-161932Y-197460D01*
X-158546D01*
X-156854Y-195767D01*
Y-188996D01*
X-167010Y-192382D02*
X-173781D01*
X-177167Y-187303D02*
Y-197460D01*
X-182245D01*
X-183938Y-195767D01*
Y-188996D01*
X-182245Y-187303D01*
X-177167D01*
X-194095Y-197460D02*
X-187324D01*
X-194095Y-190689D01*
Y-188996D01*
X-192402Y-187303D01*
X-189016D01*
X-187324Y-188996D01*
X-145311Y-209996D02*
X-143618Y-208303D01*
X-140233D01*
X-138540Y-209996D01*
Y-216767D01*
X-140233Y-218460D01*
X-143618D01*
X-145311Y-216767D01*
Y-213382D01*
X-141926D01*
X-148697Y-208303D02*
Y-218460D01*
X-153775D01*
X-155468Y-216767D01*
Y-209996D01*
X-153775Y-208303D01*
X-148697D01*
X-158854Y-218460D02*
X-162239D01*
X-160546D01*
Y-208303D01*
X-158854Y-209996D01*
X-167317Y-213382D02*
X-174088D01*
X-177474Y-208303D02*
Y-218460D01*
X-182553D01*
X-184245Y-216767D01*
Y-209996D01*
X-182553Y-208303D01*
X-177474D01*
X-187631Y-209996D02*
X-189324Y-208303D01*
X-192709D01*
X-194402Y-209996D01*
Y-211689D01*
X-192709Y-213382D01*
X-191016D01*
X-192709D01*
X-194402Y-215074D01*
Y-216767D01*
X-192709Y-218460D01*
X-189324D01*
X-187631Y-216767D01*
X-129540Y342897D02*
Y332740D01*
X-134618D01*
X-136311Y334433D01*
Y341204D01*
X-134618Y342897D01*
X-129540D01*
X-139697Y341204D02*
X-141390Y342897D01*
X-144775D01*
X-146468Y341204D01*
Y334433D01*
X-144775Y332740D01*
X-141390D01*
X-139697Y334433D01*
Y341204D01*
X-149853Y337818D02*
X-156625D01*
X-160010Y332740D02*
X-165089Y337818D01*
X-160010Y342897D01*
X-168474Y332740D02*
Y342897D01*
X-173552D01*
X-175245Y341204D01*
Y337818D01*
X-173552Y336126D01*
X-168474D01*
X-171860D02*
X-175245Y332740D01*
X-178631Y342897D02*
X-185402Y332740D01*
Y342897D02*
X-178631Y332740D01*
X-129540Y317497D02*
Y307340D01*
X-134618D01*
X-136311Y309033D01*
Y315804D01*
X-134618Y317497D01*
X-129540D01*
X-139697Y307340D02*
X-143082D01*
X-141390D01*
Y317497D01*
X-139697Y315804D01*
X-153239Y307340D02*
X-148161Y312418D01*
X-153239Y317497D01*
X-158317Y312418D02*
X-165089D01*
X-168474Y317497D02*
X-175245D01*
X-171860D01*
Y307340D01*
X-178631Y317497D02*
X-185402Y307340D01*
Y317497D02*
X-178631Y307340D01*
X-167640Y292097D02*
Y281940D01*
X-172718D01*
X-174411Y283633D01*
Y290404D01*
X-172718Y292097D01*
X-167640D01*
X-184568Y281940D02*
X-177797D01*
X-184568Y288711D01*
Y290404D01*
X-182875Y292097D01*
X-179489D01*
X-177797Y290404D01*
X-167640Y266697D02*
Y256540D01*
X-172718D01*
X-174411Y258233D01*
Y265004D01*
X-172718Y266697D01*
X-167640D01*
X-177797Y265004D02*
X-179489Y266697D01*
X-182875D01*
X-184568Y265004D01*
Y263311D01*
X-182875Y261618D01*
X-181182D01*
X-182875D01*
X-184568Y259926D01*
Y258233D01*
X-182875Y256540D01*
X-179489D01*
X-177797Y258233D01*
X-167640Y241297D02*
Y231140D01*
X-172718D01*
X-174411Y232833D01*
Y239604D01*
X-172718Y241297D01*
X-167640D01*
X-182875Y231140D02*
Y241297D01*
X-177797Y236218D01*
X-184568D01*
X-167640Y215897D02*
Y205740D01*
X-172718D01*
X-174411Y207433D01*
Y214204D01*
X-172718Y215897D01*
X-167640D01*
X-184568D02*
X-177797D01*
Y210818D01*
X-181182Y212511D01*
X-182875D01*
X-184568Y210818D01*
Y207433D01*
X-182875Y205740D01*
X-179489D01*
X-177797Y207433D01*
X-167640Y190497D02*
Y180340D01*
X-172718D01*
X-174411Y182033D01*
Y188804D01*
X-172718Y190497D01*
X-167640D01*
X-184568D02*
X-181182Y188804D01*
X-177797Y185418D01*
Y182033D01*
X-179489Y180340D01*
X-182875D01*
X-184568Y182033D01*
Y183726D01*
X-182875Y185418D01*
X-177797D01*
X-167640Y165097D02*
Y154940D01*
X-172718D01*
X-174411Y156633D01*
Y163404D01*
X-172718Y165097D01*
X-167640D01*
X-177797D02*
X-184568D01*
Y163404D01*
X-177797Y156633D01*
Y154940D01*
X-167640Y126997D02*
Y116840D01*
X-172718D01*
X-174411Y118533D01*
Y125304D01*
X-172718Y126997D01*
X-167640D01*
X-177797Y125304D02*
X-179489Y126997D01*
X-182875D01*
X-184568Y125304D01*
Y123611D01*
X-182875Y121918D01*
X-184568Y120226D01*
Y118533D01*
X-182875Y116840D01*
X-179489D01*
X-177797Y118533D01*
Y120226D01*
X-179489Y121918D01*
X-177797Y123611D01*
Y125304D01*
X-179489Y121918D02*
X-182875D01*
X-167640Y101597D02*
Y91440D01*
X-172718D01*
X-174411Y93133D01*
Y99904D01*
X-172718Y101597D01*
X-167640D01*
X-177797Y93133D02*
X-179489Y91440D01*
X-182875D01*
X-184568Y93133D01*
Y99904D01*
X-182875Y101597D01*
X-179489D01*
X-177797Y99904D01*
Y98211D01*
X-179489Y96518D01*
X-184568D01*
X-167640Y76197D02*
Y66040D01*
X-172718D01*
X-174411Y67733D01*
Y74504D01*
X-172718Y76197D01*
X-167640D01*
X-177797Y66040D02*
X-181182D01*
X-179489D01*
Y76197D01*
X-177797Y74504D01*
X-186261D02*
X-187953Y76197D01*
X-191339D01*
X-193032Y74504D01*
Y67733D01*
X-191339Y66040D01*
X-187953D01*
X-186261Y67733D01*
Y74504D01*
X-167640Y50797D02*
Y40640D01*
X-172718D01*
X-174411Y42333D01*
Y49104D01*
X-172718Y50797D01*
X-167640D01*
X-177797Y40640D02*
X-181182D01*
X-179489D01*
Y50797D01*
X-177797Y49104D01*
X-186261Y40640D02*
X-189646D01*
X-187953D01*
Y50797D01*
X-186261Y49104D01*
X-167640Y25397D02*
Y15240D01*
X-172718D01*
X-174411Y16933D01*
Y23704D01*
X-172718Y25397D01*
X-167640D01*
X-177797Y15240D02*
X-181182D01*
X-179489D01*
Y25397D01*
X-177797Y23704D01*
X-193032Y15240D02*
X-186261D01*
X-193032Y22011D01*
Y23704D01*
X-191339Y25397D01*
X-187953D01*
X-186261Y23704D01*
X-167640Y-3D02*
Y-10160D01*
X-172718D01*
X-174411Y-8467D01*
Y-1696D01*
X-172718Y-3D01*
X-167640D01*
X-177797Y-10160D02*
X-181182D01*
X-179489D01*
Y-3D01*
X-177797Y-1696D01*
X-186261D02*
X-187953Y-3D01*
X-191339D01*
X-193032Y-1696D01*
Y-3389D01*
X-191339Y-5082D01*
X-189646D01*
X-191339D01*
X-193032Y-6774D01*
Y-8467D01*
X-191339Y-10160D01*
X-187953D01*
X-186261Y-8467D01*
X-129540Y-74510D02*
X-132926D01*
X-131233D01*
Y-84667D01*
X-129540D01*
X-132926D01*
X-144775D02*
X-138004D01*
X-144775Y-77896D01*
Y-76203D01*
X-143082Y-74510D01*
X-139697D01*
X-138004Y-76203D01*
X-154932D02*
X-153239Y-74510D01*
X-149853D01*
X-148161Y-76203D01*
Y-82974D01*
X-149853Y-84667D01*
X-153239D01*
X-154932Y-82974D01*
X-158317Y-86360D02*
X-165089D01*
X-175245Y-76203D02*
X-173552Y-74510D01*
X-170167D01*
X-168474Y-76203D01*
Y-77896D01*
X-170167Y-79589D01*
X-173552D01*
X-175245Y-81282D01*
Y-82974D01*
X-173552Y-84667D01*
X-170167D01*
X-168474Y-82974D01*
X-178631Y-74510D02*
Y-84667D01*
X-183709D01*
X-185402Y-82974D01*
Y-76203D01*
X-183709Y-74510D01*
X-178631D01*
X-188788Y-84667D02*
Y-77896D01*
X-192173Y-74510D01*
X-195559Y-77896D01*
Y-84667D01*
Y-79589D01*
X-188788D01*
X-129540Y-99910D02*
X-132926D01*
X-131233D01*
Y-110067D01*
X-129540D01*
X-132926D01*
X-144775D02*
X-138004D01*
X-144775Y-103296D01*
Y-101603D01*
X-143082Y-99910D01*
X-139697D01*
X-138004Y-101603D01*
X-154932D02*
X-153239Y-99910D01*
X-149853D01*
X-148161Y-101603D01*
Y-108374D01*
X-149853Y-110067D01*
X-153239D01*
X-154932Y-108374D01*
X-158317Y-111760D02*
X-165089D01*
X-175245Y-101603D02*
X-173552Y-99910D01*
X-170167D01*
X-168474Y-101603D01*
Y-108374D01*
X-170167Y-110067D01*
X-173552D01*
X-175245Y-108374D01*
X-178631Y-99910D02*
Y-110067D01*
X-185402D01*
X-188788Y-99910D02*
Y-110067D01*
Y-106682D01*
X-195559Y-99910D01*
X-190480Y-104989D01*
X-195559Y-110067D01*
X-167640Y-227756D02*
X-169333Y-226063D01*
X-172718D01*
X-174411Y-227756D01*
Y-229449D01*
X-172718Y-231142D01*
X-171026D01*
X-172718D01*
X-174411Y-232834D01*
Y-234527D01*
X-172718Y-236220D01*
X-169333D01*
X-167640Y-234527D01*
X-177797Y-226063D02*
Y-232834D01*
X-181182Y-236220D01*
X-184568Y-232834D01*
Y-226063D01*
X-187953Y-227756D02*
X-189646Y-226063D01*
X-193032D01*
X-194725Y-227756D01*
Y-229449D01*
X-193032Y-231142D01*
X-191339D01*
X-193032D01*
X-194725Y-232834D01*
Y-234527D01*
X-193032Y-236220D01*
X-189646D01*
X-187953Y-234527D01*
X-174411Y-248076D02*
X-172718Y-246383D01*
X-169333D01*
X-167640Y-248076D01*
Y-254847D01*
X-169333Y-256540D01*
X-172718D01*
X-174411Y-254847D01*
Y-251462D01*
X-171026D01*
X-177797Y-256540D02*
Y-246383D01*
X-184568Y-256540D01*
Y-246383D01*
X-187953D02*
Y-256540D01*
X-193032D01*
X-194725Y-254847D01*
Y-248076D01*
X-193032Y-246383D01*
X-187953D01*
X238760Y27940D02*
Y38097D01*
X233682D01*
X231989Y36404D01*
Y33018D01*
X233682Y31326D01*
X238760D01*
X235374D02*
X231989Y27940D01*
X221832Y38097D02*
X228603D01*
Y27940D01*
X221832D01*
X228603Y33018D02*
X225218D01*
X211675Y36404D02*
X213368Y38097D01*
X216754D01*
X218447Y36404D01*
Y34711D01*
X216754Y33018D01*
X213368D01*
X211675Y31326D01*
Y29633D01*
X213368Y27940D01*
X216754D01*
X218447Y29633D01*
X201519Y38097D02*
X208290D01*
Y27940D01*
X201519D01*
X208290Y33018D02*
X204904D01*
X198133Y38097D02*
X191362D01*
X194748D01*
Y27940D01*
X238760Y61804D02*
X237067Y63497D01*
X233682D01*
X231989Y61804D01*
Y60111D01*
X233682Y58418D01*
X235374D01*
X233682D01*
X231989Y56726D01*
Y55033D01*
X233682Y53340D01*
X237067D01*
X238760Y55033D01*
X228603Y63497D02*
Y56726D01*
X225218Y53340D01*
X221832Y56726D01*
Y63497D01*
X218447Y61804D02*
X216754Y63497D01*
X213368D01*
X211675Y61804D01*
Y60111D01*
X213368Y58418D01*
X215061D01*
X213368D01*
X211675Y56726D01*
Y55033D01*
X213368Y53340D01*
X216754D01*
X218447Y55033D01*
X231989Y88897D02*
X238760D01*
Y83818D01*
X235374Y85511D01*
X233682D01*
X231989Y83818D01*
Y80433D01*
X233682Y78740D01*
X237067D01*
X238760Y80433D01*
X228603Y88897D02*
Y82126D01*
X225218Y78740D01*
X221832Y82126D01*
Y88897D01*
X231989Y112604D02*
X233682Y114297D01*
X237067D01*
X238760Y112604D01*
Y105833D01*
X237067Y104140D01*
X233682D01*
X231989Y105833D01*
Y109218D01*
X235374D01*
X228603Y104140D02*
Y114297D01*
X221832Y104140D01*
Y114297D01*
X218447D02*
Y104140D01*
X213368D01*
X211675Y105833D01*
Y112604D01*
X213368Y114297D01*
X218447D01*
X231989Y138004D02*
X233682Y139697D01*
X237067D01*
X238760Y138004D01*
Y131233D01*
X237067Y129540D01*
X233682D01*
X231989Y131233D01*
Y134618D01*
X235374D01*
X228603Y129540D02*
Y139697D01*
X221832Y129540D01*
Y139697D01*
X218447D02*
Y129540D01*
X213368D01*
X211675Y131233D01*
Y138004D01*
X213368Y139697D01*
X218447D01*
X231989Y165097D02*
X238760D01*
Y160018D01*
X235374Y161711D01*
X233682D01*
X231989Y160018D01*
Y156633D01*
X233682Y154940D01*
X237067D01*
X238760Y156633D01*
X228603Y165097D02*
Y158326D01*
X225218Y154940D01*
X221832Y158326D01*
Y165097D01*
X219710Y332740D02*
Y339511D01*
X216324Y342897D01*
X212939Y339511D01*
Y332740D01*
Y337818D01*
X219710D01*
X202782Y342897D02*
X209553D01*
Y337818D01*
X206168Y339511D01*
X204475D01*
X202782Y337818D01*
Y334433D01*
X204475Y332740D01*
X207861D01*
X209553Y334433D01*
X181189Y341204D02*
X182882Y342897D01*
X186267D01*
X187960Y341204D01*
Y334433D01*
X186267Y332740D01*
X182882D01*
X181189Y334433D01*
Y337818D01*
X184574D01*
X177803Y332740D02*
Y342897D01*
X171032Y332740D01*
Y342897D01*
X167647D02*
Y332740D01*
X162568D01*
X160875Y334433D01*
Y341204D01*
X162568Y342897D01*
X167647D01*
X187960Y307340D02*
Y317497D01*
X182882D01*
X181189Y315804D01*
Y312418D01*
X182882Y310726D01*
X187960D01*
X184574D02*
X181189Y307340D01*
X177803Y317497D02*
X171032Y307340D01*
Y317497D02*
X177803Y307340D01*
X167647Y317497D02*
Y307340D01*
X162568D01*
X160875Y309033D01*
Y315804D01*
X162568Y317497D01*
X167647D01*
X219710Y307340D02*
Y314111D01*
X216324Y317497D01*
X212939Y314111D01*
Y307340D01*
Y312418D01*
X219710D01*
X204475Y307340D02*
Y317497D01*
X209553Y312418D01*
X202782D01*
X219710Y281940D02*
Y288711D01*
X216324Y292097D01*
X212939Y288711D01*
Y281940D01*
Y287018D01*
X219710D01*
X209553Y290404D02*
X207861Y292097D01*
X204475D01*
X202782Y290404D01*
Y288711D01*
X204475Y287018D01*
X206168D01*
X204475D01*
X202782Y285326D01*
Y283633D01*
X204475Y281940D01*
X207861D01*
X209553Y283633D01*
X187960Y292097D02*
X181189D01*
X184574D01*
Y281940D01*
X177803Y292097D02*
X171032Y281940D01*
Y292097D02*
X177803Y281940D01*
X167647Y292097D02*
Y281940D01*
X162568D01*
X160875Y283633D01*
Y290404D01*
X162568Y292097D01*
X167647D01*
X187960Y266697D02*
Y256540D01*
X182882D01*
X181189Y258233D01*
Y265004D01*
X182882Y266697D01*
X187960D01*
X177803D02*
X171032D01*
X174418D01*
Y256540D01*
X167647D02*
Y266697D01*
X162568D01*
X160875Y265004D01*
Y261618D01*
X162568Y259926D01*
X167647D01*
X164261D02*
X160875Y256540D01*
X219710D02*
Y263311D01*
X216324Y266697D01*
X212939Y263311D01*
Y256540D01*
Y261618D01*
X219710D01*
X202782Y256540D02*
X209553D01*
X202782Y263311D01*
Y265004D01*
X204475Y266697D01*
X207861D01*
X209553Y265004D01*
X219710Y231140D02*
Y237911D01*
X216324Y241297D01*
X212939Y237911D01*
Y231140D01*
Y236218D01*
X219710D01*
X209553Y231140D02*
X206168D01*
X207861D01*
Y241297D01*
X209553Y239604D01*
X187960Y231140D02*
Y241297D01*
X182882D01*
X181189Y239604D01*
Y236218D01*
X182882Y234526D01*
X187960D01*
X184574D02*
X181189Y231140D01*
X177803Y241297D02*
X171032D01*
X174418D01*
Y231140D01*
X160875Y239604D02*
X162568Y241297D01*
X165954D01*
X167647Y239604D01*
Y237911D01*
X165954Y236218D01*
X162568D01*
X160875Y234526D01*
Y232833D01*
X162568Y231140D01*
X165954D01*
X167647Y232833D01*
X187960Y214204D02*
X186267Y215897D01*
X182882D01*
X181189Y214204D01*
Y212511D01*
X182882Y210818D01*
X184574D01*
X182882D01*
X181189Y209126D01*
Y207433D01*
X182882Y205740D01*
X186267D01*
X187960Y207433D01*
X177803Y215897D02*
Y209126D01*
X174418Y205740D01*
X171032Y209126D01*
Y215897D01*
X167647Y214204D02*
X165954Y215897D01*
X162568D01*
X160875Y214204D01*
Y212511D01*
X162568Y210818D01*
X164261D01*
X162568D01*
X160875Y209126D01*
Y207433D01*
X162568Y205740D01*
X165954D01*
X167647Y207433D01*
X219710Y205740D02*
Y212511D01*
X216324Y215897D01*
X212939Y212511D01*
Y205740D01*
Y210818D01*
X219710D01*
X209553Y214204D02*
X207861Y215897D01*
X204475D01*
X202782Y214204D01*
Y207433D01*
X204475Y205740D01*
X207861D01*
X209553Y207433D01*
Y214204D01*
G54D18*
X-120650Y-110490D02*
Y-50800D01*
X-158750Y-12700D02*
X-120650Y-50800D01*
X-158750Y-12700D02*
Y292100D01*
X178000Y-21000D02*
Y32000D01*
X197000Y51000D01*
Y165000D01*
X178000Y104000D02*
Y167000D01*
Y182000D01*
X196850Y200850D01*
Y203200D01*
Y342900D01*
M02*
