G04*
G04 #@! TF.GenerationSoftware,Altium Limited,Altium Designer,21.9.2 (33)*
G04*
G04 Layer_Color=32896*
%FSLAX44Y44*%
%MOMM*%
G71*
G04*
G04 #@! TF.SameCoordinates,2677EA57-048B-4CE0-8197-23F7109DD1FC*
G04*
G04*
G04 #@! TF.FilePolarity,Positive*
G04*
G01*
G75*
%ADD13C,0.2540*%
%ADD15C,0.1500*%
%ADD18C,0.2560*%
G36*
X-131853Y-32501D02*
Y-90599D01*
X-143746D01*
Y-32501D01*
X-131853D01*
D02*
G37*
G36*
X-188600Y-17100D02*
X-220765D01*
Y-1863D01*
X-188600D01*
Y-17100D01*
D02*
G37*
G36*
X154412Y-1116D02*
X142588D01*
Y52000D01*
X154412D01*
Y-1116D01*
D02*
G37*
G36*
X154447Y123952D02*
X142553D01*
Y202048D01*
X154447D01*
Y123952D01*
D02*
G37*
%LPC*%
G36*
X-132992Y-34992D02*
X-142677D01*
Y-41871D01*
X-132992D01*
Y-34992D01*
D02*
G37*
G36*
X-132922Y-42970D02*
X-142677D01*
Y-45099D01*
X-140464Y-45945D01*
Y-49864D01*
X-142677Y-50667D01*
Y-49864D01*
Y-52754D01*
D01*
X-132922Y-48976D01*
Y-46889D01*
X-142677Y-42970D01*
X-132922D01*
D01*
D02*
G37*
G36*
Y-53036D02*
X-142677D01*
Y-60775D01*
Y-57885D01*
X-134571D01*
Y-60775D01*
X-132922D01*
Y-53036D01*
D02*
G37*
G36*
Y-61973D02*
X-142677D01*
Y-63947D01*
X-132922D01*
Y-61973D01*
D02*
G37*
G36*
X-132739Y-65709D02*
X-142860D01*
D01*
X-141366D01*
X-141394Y-65737D01*
X-141423Y-65779D01*
X-141465Y-65822D01*
X-141521Y-65892D01*
X-141578Y-65963D01*
X-141719Y-66160D01*
X-141874Y-66428D01*
X-142057Y-66738D01*
X-142240Y-67090D01*
X-142409Y-67513D01*
Y-67527D01*
X-142423Y-67570D01*
X-142452Y-67626D01*
X-142480Y-67711D01*
X-142508Y-67823D01*
X-142550Y-67950D01*
X-142592Y-68091D01*
X-142635Y-68246D01*
X-142719Y-68599D01*
X-142790Y-69008D01*
X-142846Y-69430D01*
X-142860Y-69882D01*
Y-70037D01*
X-142846Y-70135D01*
Y-70276D01*
X-142832Y-70431D01*
X-142804Y-70601D01*
X-142776Y-70798D01*
X-142705Y-71207D01*
X-142592Y-71658D01*
X-142437Y-72123D01*
X-142339Y-72334D01*
X-142226Y-72560D01*
X-142212Y-72574D01*
X-142198Y-72602D01*
X-142156Y-72673D01*
X-142099Y-72743D01*
X-142043Y-72842D01*
X-141958Y-72941D01*
X-141860Y-73067D01*
X-141747Y-73194D01*
X-141493Y-73476D01*
X-141169Y-73758D01*
X-140802Y-74026D01*
X-140379Y-74266D01*
X-140365D01*
X-140323Y-74294D01*
X-140252Y-74322D01*
X-140168Y-74350D01*
X-140055Y-74393D01*
X-139928Y-74449D01*
X-139773Y-74491D01*
X-139604Y-74548D01*
X-139421Y-74604D01*
X-139209Y-74646D01*
X-138772Y-74745D01*
X-138293Y-74801D01*
X-137771Y-74830D01*
X-137616D01*
X-137518Y-74816D01*
X-137377D01*
X-137222Y-74801D01*
X-137052Y-74773D01*
X-136855Y-74745D01*
X-136446Y-74675D01*
X-135981Y-74562D01*
X-135516Y-74407D01*
X-135290Y-74308D01*
X-135065Y-74195D01*
X-135051Y-74181D01*
X-135008Y-74167D01*
X-134952Y-74125D01*
X-134867Y-74082D01*
X-134769Y-74012D01*
X-134656Y-73927D01*
X-134529Y-73829D01*
X-134388Y-73730D01*
X-134247Y-73603D01*
X-134092Y-73462D01*
X-133937Y-73307D01*
X-133782Y-73138D01*
X-133641Y-72955D01*
X-133486Y-72771D01*
X-133232Y-72334D01*
Y-72320D01*
X-133204Y-72292D01*
X-133190Y-72236D01*
X-133147Y-72165D01*
X-133119Y-72067D01*
X-133077Y-71968D01*
X-133035Y-71827D01*
X-132978Y-71686D01*
X-132936Y-71531D01*
X-132894Y-71348D01*
X-132851Y-71150D01*
X-132809Y-70953D01*
X-132753Y-70502D01*
X-132739Y-69994D01*
Y-70445D01*
Y-69994D01*
Y-69825D01*
X-132753Y-69698D01*
X-132767Y-69543D01*
X-132781Y-69360D01*
X-132795Y-69163D01*
X-132837Y-68951D01*
X-132922Y-68500D01*
X-133063Y-68035D01*
X-133147Y-67795D01*
X-133246Y-67570D01*
X-133359Y-67358D01*
X-133500Y-67161D01*
X-133514Y-67147D01*
X-133528Y-67119D01*
X-133584Y-67062D01*
X-133641Y-66992D01*
X-133711Y-66907D01*
X-133810Y-66823D01*
X-133923Y-66724D01*
X-134050Y-66611D01*
X-134191Y-66498D01*
X-134346Y-66385D01*
X-134515Y-66273D01*
X-134712Y-66174D01*
X-134910Y-66061D01*
X-135121Y-65977D01*
X-135361Y-65892D01*
X-135600Y-65836D01*
X-135967Y-67795D01*
X-135953D01*
X-135939Y-67809D01*
X-135854Y-67838D01*
X-135727Y-67894D01*
X-135558Y-67979D01*
X-135375Y-68077D01*
X-135192Y-68218D01*
X-135008Y-68387D01*
X-134839Y-68585D01*
X-134825Y-68613D01*
X-134769Y-68683D01*
X-134698Y-68810D01*
X-134628Y-68965D01*
X-134543Y-69177D01*
X-134487Y-69416D01*
X-134430Y-69684D01*
X-134416Y-69994D01*
Y-70121D01*
X-134430Y-70206D01*
X-134445Y-70319D01*
X-134459Y-70445D01*
X-134487Y-70586D01*
X-134515Y-70742D01*
X-134614Y-71066D01*
X-134684Y-71235D01*
X-134769Y-71404D01*
X-134867Y-71573D01*
X-134966Y-71742D01*
X-135107Y-71897D01*
X-135248Y-72052D01*
X-135262Y-72067D01*
X-135290Y-72081D01*
X-135333Y-72123D01*
X-135403Y-72165D01*
X-135488Y-72222D01*
X-135586Y-72292D01*
X-135713Y-72363D01*
X-135854Y-72419D01*
X-136023Y-72490D01*
X-136207Y-72560D01*
X-136404Y-72631D01*
X-136615Y-72687D01*
X-136855Y-72729D01*
X-137123Y-72771D01*
X-137391Y-72786D01*
X-137687Y-72800D01*
X-137701D01*
X-137757D01*
X-137856D01*
X-137969Y-72786D01*
X-138124Y-72771D01*
X-138279Y-72757D01*
X-138476Y-72729D01*
X-138674Y-72701D01*
X-139096Y-72616D01*
X-139534Y-72475D01*
X-139745Y-72391D01*
X-139942Y-72292D01*
X-140140Y-72165D01*
X-140309Y-72038D01*
X-140323Y-72024D01*
X-140351Y-71996D01*
X-140393Y-71954D01*
X-140450Y-71897D01*
X-140506Y-71813D01*
X-140591Y-71728D01*
X-140661Y-71616D01*
X-140746Y-71489D01*
X-140830Y-71348D01*
X-140901Y-71207D01*
X-141042Y-70854D01*
X-141098Y-70657D01*
X-141140Y-70459D01*
X-141169Y-70234D01*
X-141183Y-70008D01*
Y-69896D01*
X-141169Y-69783D01*
X-141155Y-69614D01*
X-141126Y-69430D01*
X-141084Y-69219D01*
X-141028Y-68993D01*
X-140943Y-68768D01*
Y-68754D01*
X-140929Y-68740D01*
X-140901Y-68669D01*
X-140844Y-68542D01*
X-140774Y-68401D01*
X-140689Y-68232D01*
X-140591Y-68049D01*
X-140478Y-67866D01*
X-140351Y-67696D01*
X-139096D01*
Y-69952D01*
X-137447D01*
Y-65709D01*
X-132739D01*
D01*
D02*
G37*
G36*
Y-70445D02*
Y-74830D01*
D01*
Y-70445D01*
D02*
G37*
G36*
X-132922Y-76366D02*
X-142677D01*
Y-78340D01*
X-132922D01*
Y-76366D01*
D02*
G37*
G36*
Y-79947D02*
X-142677D01*
D01*
X-138096D01*
X-138208Y-79961D01*
X-138321D01*
X-138462Y-79975D01*
X-138617Y-79989D01*
X-138941Y-80017D01*
X-139280Y-80074D01*
X-139632Y-80158D01*
X-139971Y-80257D01*
X-139985D01*
X-140013Y-80271D01*
X-140069Y-80299D01*
X-140154Y-80327D01*
X-140238Y-80356D01*
X-140337Y-80412D01*
X-140591Y-80525D01*
X-140859Y-80666D01*
X-141155Y-80849D01*
X-141437Y-81060D01*
X-141704Y-81300D01*
X-141733Y-81328D01*
X-141789Y-81399D01*
X-141874Y-81512D01*
X-141986Y-81667D01*
X-142113Y-81864D01*
X-142240Y-82090D01*
X-142367Y-82372D01*
X-142480Y-82682D01*
Y-82696D01*
X-142494Y-82710D01*
Y-82752D01*
X-142508Y-82794D01*
X-142536Y-82949D01*
X-142578Y-83147D01*
X-142621Y-83386D01*
X-142649Y-83682D01*
X-142663Y-84035D01*
X-142677Y-84416D01*
Y-88109D01*
X-132922D01*
Y-79947D01*
D02*
G37*
%LPD*%
G36*
X-132992Y-39897D02*
X-141028D01*
Y-34992D01*
X-132992D01*
Y-39897D01*
D02*
G37*
G36*
X-135192Y-47947D02*
X-138814Y-49272D01*
Y-46579D01*
X-135192Y-47947D01*
D02*
G37*
G36*
X-134571Y-55911D02*
X-142677D01*
Y-53036D01*
X-134571D01*
Y-55911D01*
D02*
G37*
G36*
X-132922Y-84218D02*
X-132936Y-84105D01*
X-132950Y-83838D01*
X-132964Y-83541D01*
X-133007Y-83231D01*
X-133049Y-82935D01*
X-133119Y-82668D01*
Y-82653D01*
X-133133Y-82625D01*
X-133147Y-82583D01*
X-133162Y-82527D01*
X-133232Y-82357D01*
X-133331Y-82160D01*
X-133458Y-81934D01*
X-133613Y-81681D01*
X-133796Y-81441D01*
X-134022Y-81201D01*
Y-81187D01*
X-134050Y-81173D01*
X-134134Y-81103D01*
X-134275Y-80990D01*
X-134459Y-80863D01*
X-134684Y-80708D01*
X-134952Y-80553D01*
X-135262Y-80398D01*
X-135600Y-80271D01*
X-135615D01*
X-135643Y-80257D01*
X-135699Y-80243D01*
X-135770Y-80215D01*
X-135854Y-80201D01*
X-135967Y-80172D01*
X-136094Y-80144D01*
X-136235Y-80102D01*
X-136390Y-80074D01*
X-136573Y-80045D01*
X-136756Y-80017D01*
X-136968Y-80003D01*
X-137405Y-79961D01*
X-137898Y-79947D01*
X-132922D01*
Y-84218D01*
D02*
G37*
G36*
X-137419Y-81991D02*
X-137179Y-82005D01*
X-136897Y-82033D01*
X-136601Y-82061D01*
X-136334Y-82118D01*
X-136080Y-82188D01*
X-136066D01*
X-136052Y-82202D01*
X-135981Y-82231D01*
X-135868Y-82273D01*
X-135727Y-82329D01*
X-135586Y-82414D01*
X-135431Y-82513D01*
X-135276Y-82625D01*
X-135135Y-82752D01*
X-135121Y-82766D01*
X-135079Y-82809D01*
X-135022Y-82893D01*
X-134952Y-82992D01*
X-134867Y-83133D01*
X-134797Y-83288D01*
X-134726Y-83457D01*
X-134670Y-83654D01*
Y-83668D01*
X-134656Y-83739D01*
X-134642Y-83852D01*
X-134614Y-84007D01*
Y-84105D01*
X-134600Y-84232D01*
Y-84359D01*
X-134585Y-84500D01*
Y-84669D01*
X-134571Y-84853D01*
Y-86135D01*
X-141028D01*
Y-84402D01*
X-141014Y-84218D01*
Y-84021D01*
X-140985Y-83823D01*
X-140971Y-83640D01*
X-140943Y-83485D01*
Y-83457D01*
X-140915Y-83401D01*
X-140887Y-83316D01*
X-140844Y-83203D01*
X-140788Y-83076D01*
X-140718Y-82949D01*
X-140633Y-82823D01*
X-140534Y-82696D01*
X-140520Y-82682D01*
X-140478Y-82639D01*
X-140407Y-82583D01*
X-140309Y-82513D01*
X-140182Y-82442D01*
X-140027Y-82343D01*
X-139830Y-82273D01*
X-139604Y-82188D01*
X-139590D01*
X-139576Y-82174D01*
X-139534D01*
X-139477Y-82160D01*
X-139421Y-82132D01*
X-139336Y-82118D01*
X-139125Y-82076D01*
X-138871Y-82047D01*
X-138575Y-82005D01*
X-138208Y-81991D01*
X-137814Y-81977D01*
X-137800D01*
X-137757D01*
X-137701D01*
X-137630D01*
X-137532D01*
X-137419Y-81991D01*
D02*
G37*
%LPC*%
G36*
X-201158Y-4604D02*
X-203061D01*
X-207093Y-11173D01*
Y-4604D01*
X-206014D01*
X-208911D01*
Y-14359D01*
X-206938D01*
X-202977Y-7931D01*
Y-14359D01*
X-204124D01*
X-201158D01*
Y-4604D01*
D02*
G37*
G36*
X-210998D02*
X-219160D01*
Y-14359D01*
D01*
Y-9778D01*
X-219146Y-9890D01*
Y-10003D01*
X-219132Y-10144D01*
X-219118Y-10299D01*
X-219089Y-10624D01*
X-219033Y-10962D01*
X-218948Y-11314D01*
X-218850Y-11653D01*
Y-11667D01*
X-218836Y-11695D01*
X-218808Y-11751D01*
X-218779Y-11836D01*
X-218751Y-11920D01*
X-218695Y-12019D01*
X-218582Y-12273D01*
X-218441Y-12541D01*
X-218258Y-12837D01*
X-218046Y-13119D01*
X-217807Y-13386D01*
X-217778Y-13415D01*
X-217708Y-13471D01*
X-217595Y-13556D01*
X-217440Y-13669D01*
X-217243Y-13795D01*
X-217017Y-13922D01*
X-216735Y-14049D01*
X-216425Y-14162D01*
X-216411D01*
X-216397Y-14176D01*
X-216355D01*
X-216312Y-14190D01*
X-216157Y-14218D01*
X-215960Y-14261D01*
X-215720Y-14303D01*
X-215424Y-14331D01*
X-215072Y-14345D01*
X-214691Y-14359D01*
X-210998D01*
Y-4604D01*
D02*
G37*
G36*
X-195040Y-4421D02*
X-199325D01*
Y-14542D01*
D01*
Y-13048D01*
X-199297Y-13076D01*
X-199255Y-13105D01*
X-199213Y-13147D01*
X-199142Y-13203D01*
X-199072Y-13260D01*
X-198874Y-13401D01*
X-198606Y-13556D01*
X-198296Y-13739D01*
X-197944Y-13922D01*
X-197521Y-14091D01*
X-197507D01*
X-197465Y-14105D01*
X-197408Y-14134D01*
X-197324Y-14162D01*
X-197211Y-14190D01*
X-197084Y-14232D01*
X-196943Y-14275D01*
X-196788Y-14317D01*
X-196436Y-14402D01*
X-196027Y-14472D01*
X-195604Y-14528D01*
X-195153Y-14542D01*
X-194998D01*
X-194899Y-14528D01*
X-194758D01*
X-194603Y-14514D01*
X-194434Y-14486D01*
X-194236Y-14458D01*
X-193828Y-14387D01*
X-193377Y-14275D01*
X-192911Y-14120D01*
X-192700Y-14021D01*
X-192474Y-13908D01*
X-192460Y-13894D01*
X-192432Y-13880D01*
X-192362Y-13838D01*
X-192291Y-13781D01*
X-192192Y-13725D01*
X-192094Y-13640D01*
X-191967Y-13542D01*
X-191840Y-13429D01*
X-191558Y-13175D01*
X-191276Y-12851D01*
X-191008Y-12484D01*
X-190769Y-12061D01*
Y-12047D01*
X-190740Y-12005D01*
X-190712Y-11934D01*
X-190684Y-11850D01*
X-190642Y-11737D01*
X-190585Y-11610D01*
X-190543Y-11455D01*
X-190487Y-11286D01*
X-190430Y-11103D01*
X-190388Y-10891D01*
X-190289Y-10454D01*
X-190233Y-9975D01*
X-190205Y-9453D01*
Y-9298D01*
X-190219Y-9200D01*
Y-9059D01*
X-190233Y-8904D01*
X-190261Y-8734D01*
X-190289Y-8537D01*
X-190360Y-8128D01*
X-190473Y-7663D01*
X-190628Y-7198D01*
X-190726Y-6972D01*
X-190839Y-6747D01*
X-190853Y-6733D01*
X-190867Y-6690D01*
X-190910Y-6634D01*
X-190952Y-6550D01*
X-191022Y-6451D01*
X-191107Y-6338D01*
X-191206Y-6211D01*
X-191304Y-6070D01*
X-191431Y-5929D01*
X-191572Y-5774D01*
X-191727Y-5619D01*
X-191896Y-5464D01*
X-192080Y-5323D01*
X-192263Y-5168D01*
X-192700Y-4914D01*
X-192714D01*
X-192742Y-4886D01*
X-192799Y-4872D01*
X-192869Y-4830D01*
X-192968Y-4802D01*
X-193066Y-4759D01*
X-193207Y-4717D01*
X-193348Y-4660D01*
X-193503Y-4618D01*
X-193687Y-4576D01*
X-193884Y-4534D01*
X-194081Y-4491D01*
X-194533Y-4435D01*
X-195040Y-4421D01*
D02*
G37*
%LPD*%
G36*
X-215001Y-4618D02*
X-215269Y-4632D01*
X-215565Y-4646D01*
X-215875Y-4689D01*
X-216171Y-4731D01*
X-216439Y-4802D01*
X-216453D01*
X-216481Y-4816D01*
X-216524Y-4830D01*
X-216580Y-4844D01*
X-216749Y-4914D01*
X-216947Y-5013D01*
X-217172Y-5140D01*
X-217426Y-5295D01*
X-217666Y-5478D01*
X-217905Y-5704D01*
X-217919D01*
X-217934Y-5732D01*
X-218004Y-5816D01*
X-218117Y-5957D01*
X-218244Y-6141D01*
X-218399Y-6366D01*
X-218554Y-6634D01*
X-218709Y-6944D01*
X-218836Y-7283D01*
Y-7297D01*
X-218850Y-7325D01*
X-218864Y-7381D01*
X-218892Y-7452D01*
X-218906Y-7536D01*
X-218934Y-7649D01*
X-218963Y-7776D01*
X-219005Y-7917D01*
X-219033Y-8072D01*
X-219061Y-8255D01*
X-219089Y-8439D01*
X-219104Y-8650D01*
X-219146Y-9087D01*
X-219160Y-9580D01*
Y-4604D01*
X-214888D01*
X-215001Y-4618D01*
D02*
G37*
G36*
X-212971Y-12710D02*
X-214705D01*
X-214888Y-12696D01*
X-215086D01*
X-215283Y-12668D01*
X-215466Y-12653D01*
X-215622Y-12625D01*
X-215650D01*
X-215706Y-12597D01*
X-215791Y-12569D01*
X-215903Y-12527D01*
X-216030Y-12470D01*
X-216157Y-12400D01*
X-216284Y-12315D01*
X-216411Y-12217D01*
X-216425Y-12202D01*
X-216467Y-12160D01*
X-216524Y-12090D01*
X-216594Y-11991D01*
X-216665Y-11864D01*
X-216763Y-11709D01*
X-216834Y-11512D01*
X-216919Y-11286D01*
Y-11272D01*
X-216933Y-11258D01*
Y-11216D01*
X-216947Y-11159D01*
X-216975Y-11103D01*
X-216989Y-11018D01*
X-217031Y-10807D01*
X-217059Y-10553D01*
X-217102Y-10257D01*
X-217116Y-9890D01*
X-217130Y-9496D01*
Y-9482D01*
Y-9439D01*
Y-9383D01*
Y-9312D01*
Y-9214D01*
X-217116Y-9101D01*
X-217102Y-8861D01*
X-217074Y-8579D01*
X-217045Y-8283D01*
X-216989Y-8016D01*
X-216919Y-7762D01*
Y-7748D01*
X-216904Y-7734D01*
X-216876Y-7663D01*
X-216834Y-7550D01*
X-216777Y-7409D01*
X-216693Y-7268D01*
X-216594Y-7113D01*
X-216481Y-6958D01*
X-216355Y-6817D01*
X-216341Y-6803D01*
X-216298Y-6761D01*
X-216214Y-6705D01*
X-216115Y-6634D01*
X-215974Y-6550D01*
X-215819Y-6479D01*
X-215650Y-6409D01*
X-215452Y-6352D01*
X-215438D01*
X-215368Y-6338D01*
X-215255Y-6324D01*
X-215100Y-6296D01*
X-215001D01*
X-214874Y-6282D01*
X-214748D01*
X-214607Y-6268D01*
X-214437D01*
X-214254Y-6253D01*
X-212971D01*
Y-12710D01*
D02*
G37*
G36*
X-195336Y-4435D02*
X-195491Y-4449D01*
X-195674Y-4463D01*
X-195872Y-4477D01*
X-196083Y-4520D01*
X-196534Y-4604D01*
X-196999Y-4745D01*
X-197239Y-4830D01*
X-197465Y-4928D01*
X-197676Y-5041D01*
X-197873Y-5182D01*
X-197887Y-5196D01*
X-197916Y-5210D01*
X-197972Y-5267D01*
X-198043Y-5323D01*
X-198127Y-5393D01*
X-198212Y-5492D01*
X-198310Y-5605D01*
X-198423Y-5732D01*
X-198536Y-5873D01*
X-198649Y-6028D01*
X-198762Y-6197D01*
X-198860Y-6394D01*
X-198973Y-6592D01*
X-199058Y-6803D01*
X-199142Y-7043D01*
X-199199Y-7283D01*
X-197239Y-7649D01*
Y-7635D01*
X-197225Y-7621D01*
X-197197Y-7536D01*
X-197140Y-7409D01*
X-197056Y-7240D01*
X-196957Y-7057D01*
X-196816Y-6874D01*
X-196647Y-6690D01*
X-196450Y-6521D01*
X-196422Y-6507D01*
X-196351Y-6451D01*
X-196224Y-6380D01*
X-196069Y-6310D01*
X-195858Y-6225D01*
X-195618Y-6169D01*
X-195350Y-6112D01*
X-195040Y-6098D01*
X-194913D01*
X-194828Y-6112D01*
X-194716Y-6127D01*
X-194589Y-6141D01*
X-194448Y-6169D01*
X-194293Y-6197D01*
X-193969Y-6296D01*
X-193799Y-6366D01*
X-193630Y-6451D01*
X-193461Y-6550D01*
X-193292Y-6648D01*
X-193137Y-6789D01*
X-192982Y-6930D01*
X-192968Y-6944D01*
X-192954Y-6972D01*
X-192911Y-7015D01*
X-192869Y-7085D01*
X-192813Y-7170D01*
X-192742Y-7268D01*
X-192672Y-7395D01*
X-192615Y-7536D01*
X-192545Y-7705D01*
X-192474Y-7889D01*
X-192404Y-8086D01*
X-192347Y-8298D01*
X-192305Y-8537D01*
X-192263Y-8805D01*
X-192249Y-9073D01*
X-192235Y-9369D01*
Y-9383D01*
Y-9439D01*
Y-9538D01*
X-192249Y-9651D01*
X-192263Y-9806D01*
X-192277Y-9961D01*
X-192305Y-10158D01*
X-192333Y-10356D01*
X-192418Y-10779D01*
X-192559Y-11216D01*
X-192644Y-11427D01*
X-192742Y-11624D01*
X-192869Y-11822D01*
X-192996Y-11991D01*
X-193010Y-12005D01*
X-193038Y-12033D01*
X-193081Y-12076D01*
X-193137Y-12132D01*
X-193221Y-12188D01*
X-193306Y-12273D01*
X-193419Y-12343D01*
X-193546Y-12428D01*
X-193687Y-12513D01*
X-193828Y-12583D01*
X-194180Y-12724D01*
X-194377Y-12780D01*
X-194575Y-12823D01*
X-194800Y-12851D01*
X-195026Y-12865D01*
X-195139D01*
X-195251Y-12851D01*
X-195421Y-12837D01*
X-195604Y-12809D01*
X-195815Y-12766D01*
X-196041Y-12710D01*
X-196266Y-12625D01*
X-196280D01*
X-196295Y-12611D01*
X-196365Y-12583D01*
X-196492Y-12527D01*
X-196633Y-12456D01*
X-196802Y-12372D01*
X-196985Y-12273D01*
X-197169Y-12160D01*
X-197338Y-12033D01*
Y-10779D01*
X-195082D01*
Y-9129D01*
X-199325D01*
Y-4421D01*
X-195209D01*
X-195336Y-4435D01*
D02*
G37*
%LPC*%
G36*
X153378Y50655D02*
X143622D01*
Y47060D01*
X143637Y46905D01*
Y46538D01*
X143665Y46143D01*
X143693Y45749D01*
X143707Y45580D01*
X143721Y45410D01*
X143749Y45269D01*
X143778Y45157D01*
Y45143D01*
X143792Y45114D01*
X143806Y45072D01*
X143820Y45016D01*
X143890Y44861D01*
X143975Y44663D01*
X144102Y44452D01*
X144271Y44212D01*
X144482Y43987D01*
X144736Y43761D01*
X144750D01*
X144764Y43733D01*
X144807Y43705D01*
X144863Y43677D01*
X144948Y43620D01*
X145032Y43578D01*
X145131Y43521D01*
X145244Y43465D01*
X145526Y43366D01*
X145836Y43268D01*
X146216Y43211D01*
X146625Y43183D01*
X146780D01*
X146851Y43197D01*
X146949D01*
X147147Y43225D01*
X147386Y43268D01*
X147654Y43324D01*
X147908Y43409D01*
X148148Y43521D01*
X148176Y43535D01*
X148246Y43578D01*
X148359Y43648D01*
X148500Y43747D01*
X148641Y43860D01*
X148810Y44015D01*
X148965Y44170D01*
X149106Y44353D01*
X149120Y44381D01*
X149163Y44438D01*
X149219Y44536D01*
X149289Y44663D01*
X149374Y44818D01*
X149445Y44988D01*
X149515Y45171D01*
X149571Y45368D01*
Y45396D01*
X149586Y45439D01*
Y45495D01*
X149600Y45566D01*
X149614Y45664D01*
X149628Y45763D01*
Y45890D01*
X149642Y46017D01*
X149656Y46172D01*
X149670Y46341D01*
X149684Y46524D01*
Y46721D01*
X149698Y46933D01*
Y48681D01*
X153378D01*
Y43183D01*
D01*
Y50655D01*
D02*
G37*
G36*
X153561Y41971D02*
X143439D01*
D01*
X148429D01*
X148317Y41957D01*
X148190D01*
X148049Y41943D01*
X147880Y41929D01*
X147697Y41914D01*
X147302Y41858D01*
X146879Y41788D01*
X146456Y41675D01*
X146061Y41534D01*
X146047D01*
X146033Y41520D01*
X145991Y41491D01*
X145934Y41477D01*
X145793Y41393D01*
X145610Y41294D01*
X145399Y41167D01*
X145187Y41012D01*
X144948Y40829D01*
X144722Y40631D01*
X144708Y40617D01*
X144694Y40603D01*
X144623Y40533D01*
X144510Y40406D01*
X144384Y40251D01*
X144243Y40068D01*
X144088Y39856D01*
X143947Y39617D01*
X143834Y39363D01*
Y39349D01*
X143820Y39320D01*
X143792Y39264D01*
X143778Y39194D01*
X143735Y39109D01*
X143707Y39010D01*
X143679Y38884D01*
X143637Y38757D01*
X143566Y38447D01*
X143496Y38094D01*
X143453Y37685D01*
X143439Y37262D01*
Y37347D01*
Y32512D01*
Y37164D01*
X143453Y37051D01*
Y36910D01*
X143482Y36727D01*
X143510Y36515D01*
X143552Y36276D01*
X143608Y36022D01*
X143679Y35754D01*
X143763Y35472D01*
X143876Y35190D01*
X144003Y34894D01*
X144158Y34612D01*
X144341Y34330D01*
X144553Y34062D01*
X144792Y33809D01*
X144807Y33795D01*
X144849Y33752D01*
X144933Y33682D01*
X145032Y33611D01*
X145173Y33513D01*
X145342Y33400D01*
X145540Y33287D01*
X145765Y33160D01*
X146005Y33033D01*
X146287Y32920D01*
X146597Y32808D01*
X146921Y32709D01*
X147288Y32624D01*
X147668Y32568D01*
X148077Y32526D01*
X148514Y32512D01*
X148613D01*
X148740Y32526D01*
X148909D01*
X149106Y32554D01*
X149332Y32582D01*
X149600Y32624D01*
X149867Y32667D01*
X150163Y32737D01*
X150474Y32822D01*
X150784Y32935D01*
X151094Y33061D01*
X151390Y33202D01*
X151686Y33386D01*
X151968Y33583D01*
X152236Y33809D01*
X152250Y33823D01*
X152292Y33865D01*
X152363Y33935D01*
X152447Y34048D01*
X152546Y34175D01*
X152659Y34330D01*
X152771Y34513D01*
X152898Y34711D01*
X153025Y34950D01*
X153138Y35204D01*
X153251Y35486D01*
X153349Y35796D01*
X153434Y36121D01*
X153504Y36473D01*
X153547Y36839D01*
X153561Y37234D01*
Y37333D01*
X153547Y37446D01*
X153533Y37587D01*
X153518Y37770D01*
X153490Y37981D01*
X153448Y38221D01*
X153392Y38475D01*
X153321Y38757D01*
X153237Y39025D01*
X153124Y39320D01*
X152997Y39602D01*
X152856Y39899D01*
X152673Y40166D01*
X152475Y40434D01*
X152236Y40688D01*
X152222Y40702D01*
X152179Y40744D01*
X152095Y40801D01*
X151996Y40885D01*
X151855Y40984D01*
X151686Y41097D01*
X151503Y41210D01*
X151277Y41322D01*
X151037Y41449D01*
X150756Y41562D01*
X150459Y41675D01*
X150135Y41773D01*
X149783Y41858D01*
X149402Y41914D01*
X148993Y41957D01*
X148570Y41971D01*
X153561D01*
D02*
G37*
%LPD*%
G36*
X153378Y29608D02*
X143622Y31920D01*
X153378D01*
Y29608D01*
D02*
G37*
%LPC*%
G36*
Y31920D02*
X143622D01*
Y19119D01*
D01*
X153378Y21474D01*
Y23602D01*
X146089Y25520D01*
X153378Y27465D01*
Y31920D01*
D02*
G37*
G36*
Y18090D02*
X143622D01*
Y10675D01*
Y10859D01*
X145272D01*
Y16117D01*
X147429D01*
Y11225D01*
X149078D01*
Y16117D01*
X151728D01*
Y10675D01*
X153378D01*
Y18090D01*
D02*
G37*
G36*
Y8998D02*
X143622D01*
Y229D01*
Y4600D01*
X143637Y4473D01*
Y4318D01*
X143651Y4163D01*
Y3979D01*
X143693Y3613D01*
X143735Y3232D01*
X143806Y2880D01*
X143848Y2725D01*
X143890Y2584D01*
Y2570D01*
X143904Y2555D01*
X143947Y2471D01*
X144017Y2344D01*
X144102Y2175D01*
X144243Y1992D01*
X144398Y1808D01*
X144595Y1625D01*
X144835Y1456D01*
X144849D01*
X144863Y1442D01*
X144905Y1414D01*
X144948Y1385D01*
X145089Y1315D01*
X145272Y1230D01*
X145497Y1160D01*
X145751Y1089D01*
X146047Y1033D01*
X146357Y1019D01*
X146371D01*
X146399D01*
X146470D01*
X146540Y1033D01*
X146639D01*
X146738Y1047D01*
X146992Y1104D01*
X147288Y1174D01*
X147584Y1287D01*
X147894Y1456D01*
X148035Y1555D01*
X148176Y1667D01*
X148190Y1681D01*
X148204Y1696D01*
X148246Y1738D01*
X148288Y1794D01*
X148345Y1851D01*
X148415Y1935D01*
X148486Y2034D01*
X148556Y2147D01*
X148641Y2274D01*
X148711Y2429D01*
X148782Y2584D01*
X148852Y2753D01*
X148923Y2950D01*
X148979Y3148D01*
X149036Y3359D01*
X149078Y3599D01*
Y3585D01*
X149092Y3571D01*
X149148Y3486D01*
X149219Y3373D01*
X149318Y3232D01*
X149445Y3063D01*
X149571Y2894D01*
X149726Y2711D01*
X149896Y2555D01*
X149910Y2541D01*
X149980Y2471D01*
X150093Y2386D01*
X150262Y2260D01*
X150474Y2090D01*
X150615Y2006D01*
X150756Y1907D01*
X150911Y1794D01*
X151080Y1681D01*
X151277Y1555D01*
X151474Y1428D01*
X153378Y229D01*
D01*
Y2598D01*
X151263Y4008D01*
X151249Y4022D01*
X151207Y4036D01*
X151150Y4078D01*
X151080Y4134D01*
X150995Y4191D01*
X150882Y4261D01*
X150657Y4416D01*
X150403Y4600D01*
X150177Y4769D01*
X149966Y4924D01*
X149896Y4994D01*
X149825Y5051D01*
X149811Y5065D01*
X149783Y5093D01*
X149726Y5149D01*
X149656Y5220D01*
X149600Y5319D01*
X149529Y5417D01*
X149473Y5530D01*
X149416Y5643D01*
Y5657D01*
X149402Y5699D01*
X149374Y5770D01*
X149360Y5882D01*
X149332Y6023D01*
X149318Y6193D01*
X149304Y6390D01*
Y7024D01*
X153378D01*
Y8998D01*
D02*
G37*
%LPD*%
G36*
X148049Y47328D02*
X148035Y47229D01*
Y46975D01*
X148021Y46721D01*
X147992Y46468D01*
X147950Y46242D01*
X147936Y46143D01*
X147908Y46059D01*
X147894Y46045D01*
X147880Y45988D01*
X147837Y45918D01*
X147795Y45833D01*
X147725Y45735D01*
X147640Y45636D01*
X147541Y45523D01*
X147429Y45439D01*
X147415Y45424D01*
X147372Y45396D01*
X147302Y45368D01*
X147203Y45326D01*
X147090Y45284D01*
X146963Y45241D01*
X146822Y45227D01*
X146667Y45213D01*
X146639D01*
X146583D01*
X146484Y45227D01*
X146357Y45255D01*
X146216Y45298D01*
X146061Y45354D01*
X145920Y45424D01*
X145779Y45537D01*
X145765Y45551D01*
X145723Y45594D01*
X145667Y45664D01*
X145596Y45749D01*
X145511Y45862D01*
X145441Y46002D01*
X145385Y46158D01*
X145342Y46327D01*
Y46341D01*
X145328Y46397D01*
X145314Y46496D01*
X145300Y46637D01*
Y46820D01*
X145286Y46947D01*
Y47074D01*
X145272Y47215D01*
Y48681D01*
X148049D01*
Y47328D01*
D02*
G37*
G36*
X148768Y39927D02*
X148909Y39913D01*
X149078Y39899D01*
X149247Y39870D01*
X149445Y39842D01*
X149853Y39757D01*
X150262Y39617D01*
X150474Y39532D01*
X150671Y39433D01*
X150854Y39306D01*
X151023Y39180D01*
X151037Y39165D01*
X151066Y39137D01*
X151108Y39095D01*
X151150Y39039D01*
X151221Y38968D01*
X151291Y38869D01*
X151376Y38771D01*
X151446Y38644D01*
X151615Y38376D01*
X151742Y38038D01*
X151799Y37854D01*
X151841Y37657D01*
X151869Y37446D01*
X151883Y37234D01*
Y37121D01*
X151869Y37037D01*
X151855Y36938D01*
X151841Y36825D01*
X151770Y36558D01*
X151672Y36247D01*
X151601Y36092D01*
X151531Y35923D01*
X151432Y35768D01*
X151319Y35599D01*
X151193Y35444D01*
X151037Y35303D01*
X151023Y35289D01*
X150995Y35275D01*
X150953Y35232D01*
X150882Y35190D01*
X150784Y35120D01*
X150671Y35063D01*
X150544Y34993D01*
X150389Y34922D01*
X150220Y34852D01*
X150037Y34781D01*
X149825Y34711D01*
X149586Y34654D01*
X149346Y34612D01*
X149078Y34570D01*
X148782Y34556D01*
X148472Y34542D01*
X148458D01*
X148401D01*
X148317D01*
X148190Y34556D01*
X148049Y34570D01*
X147894Y34584D01*
X147711Y34598D01*
X147527Y34640D01*
X147119Y34725D01*
X146696Y34852D01*
X146484Y34936D01*
X146301Y35035D01*
X146118Y35162D01*
X145948Y35289D01*
X145934Y35303D01*
X145906Y35317D01*
X145878Y35359D01*
X145822Y35416D01*
X145751Y35500D01*
X145681Y35585D01*
X145610Y35684D01*
X145526Y35810D01*
X145455Y35937D01*
X145385Y36092D01*
X145244Y36416D01*
X145187Y36600D01*
X145159Y36797D01*
X145131Y37009D01*
X145117Y37234D01*
Y37347D01*
X145131Y37431D01*
X145145Y37544D01*
X145159Y37657D01*
X145215Y37939D01*
X145328Y38249D01*
X145385Y38418D01*
X145469Y38588D01*
X145568Y38742D01*
X145681Y38912D01*
X145808Y39067D01*
X145962Y39208D01*
X145977Y39222D01*
X146005Y39236D01*
X146047Y39278D01*
X146118Y39320D01*
X146216Y39377D01*
X146315Y39433D01*
X146442Y39504D01*
X146597Y39574D01*
X146766Y39645D01*
X146949Y39715D01*
X147161Y39772D01*
X147386Y39828D01*
X147640Y39870D01*
X147908Y39913D01*
X148190Y39927D01*
X148500Y39941D01*
X148514D01*
X148570D01*
X148655D01*
X148768Y39927D01*
D02*
G37*
G36*
X150333Y28438D02*
X143622Y26661D01*
Y29904D01*
X150333Y28438D01*
D02*
G37*
G36*
X150445Y22601D02*
X143622Y21107D01*
Y24293D01*
X150445Y22601D01*
D02*
G37*
G36*
X147753Y5107D02*
X147739Y4825D01*
X147725Y4529D01*
X147711Y4233D01*
X147697Y4106D01*
X147682Y3993D01*
X147654Y3881D01*
X147640Y3810D01*
Y3796D01*
X147612Y3754D01*
X147584Y3683D01*
X147541Y3613D01*
X147415Y3430D01*
X147330Y3345D01*
X147231Y3260D01*
X147217Y3246D01*
X147175Y3232D01*
X147119Y3190D01*
X147034Y3148D01*
X146921Y3119D01*
X146794Y3077D01*
X146653Y3063D01*
X146498Y3049D01*
X146470D01*
X146414D01*
X146329Y3063D01*
X146216Y3077D01*
X146089Y3119D01*
X145962Y3162D01*
X145822Y3232D01*
X145709Y3317D01*
X145695Y3331D01*
X145652Y3359D01*
X145610Y3430D01*
X145540Y3514D01*
X145469Y3613D01*
X145413Y3740D01*
X145356Y3895D01*
X145314Y4064D01*
Y4078D01*
X145300Y4120D01*
Y4205D01*
X145286Y4332D01*
Y4642D01*
X145272Y4769D01*
Y7024D01*
X147753D01*
Y5107D01*
D02*
G37*
%LPC*%
G36*
X153378Y200695D02*
D01*
X143622Y196917D01*
Y194831D01*
X153378Y190912D01*
X143622D01*
X153378D01*
Y200695D01*
D02*
G37*
G36*
Y189855D02*
X143622D01*
Y182101D01*
X153378D01*
Y184075D01*
X146949Y188036D01*
X153378D01*
Y189855D01*
D02*
G37*
G36*
Y181016D02*
X143622Y177238D01*
Y175152D01*
X153378Y171233D01*
Y174207D01*
Y173361D01*
X151164Y174207D01*
Y178126D01*
X153378Y178930D01*
Y181016D01*
D02*
G37*
G36*
Y170133D02*
X143693D01*
Y168160D01*
X151728D01*
Y163254D01*
X153378D01*
Y170133D01*
D02*
G37*
G36*
X153561Y162253D02*
X143439D01*
D01*
X148429D01*
X148317Y162239D01*
X148190D01*
X148049Y162225D01*
X147880Y162211D01*
X147697Y162196D01*
X147302Y162140D01*
X146879Y162070D01*
X146456Y161957D01*
X146061Y161816D01*
X146047D01*
X146033Y161802D01*
X145991Y161773D01*
X145934Y161759D01*
X145793Y161675D01*
X145610Y161576D01*
X145399Y161449D01*
X145187Y161294D01*
X144948Y161111D01*
X144722Y160914D01*
X144708Y160900D01*
X144694Y160885D01*
X144623Y160815D01*
X144511Y160688D01*
X144384Y160533D01*
X144243Y160350D01*
X144088Y160138D01*
X143947Y159899D01*
X143834Y159645D01*
Y159631D01*
X143820Y159603D01*
X143792Y159546D01*
X143778Y159476D01*
X143735Y159391D01*
X143707Y159292D01*
X143679Y159166D01*
X143637Y159039D01*
X143566Y158729D01*
X143496Y158376D01*
X143453Y157967D01*
X143439Y157544D01*
Y157629D01*
Y152794D01*
Y157446D01*
X143453Y157333D01*
Y157192D01*
X143482Y157009D01*
X143510Y156797D01*
X143552Y156558D01*
X143608Y156304D01*
X143679Y156036D01*
X143763Y155754D01*
X143876Y155472D01*
X144003Y155176D01*
X144158Y154894D01*
X144341Y154612D01*
X144553Y154344D01*
X144792Y154091D01*
X144807Y154077D01*
X144849Y154034D01*
X144934Y153964D01*
X145032Y153893D01*
X145173Y153795D01*
X145342Y153682D01*
X145540Y153569D01*
X145765Y153442D01*
X146005Y153315D01*
X146287Y153203D01*
X146597Y153090D01*
X146921Y152991D01*
X147288Y152907D01*
X147668Y152850D01*
X148077Y152808D01*
X148514Y152794D01*
X148613D01*
X148740Y152808D01*
X148909D01*
X149106Y152836D01*
X149332Y152864D01*
X149600Y152907D01*
X149867Y152949D01*
X150163Y153019D01*
X150474Y153104D01*
X150784Y153217D01*
X151094Y153343D01*
X151390Y153484D01*
X151686Y153668D01*
X151968Y153865D01*
X152236Y154091D01*
X152250Y154105D01*
X152292Y154147D01*
X152363Y154218D01*
X152447Y154330D01*
X152546Y154457D01*
X152659Y154612D01*
X152771Y154796D01*
X152898Y154993D01*
X153025Y155232D01*
X153138Y155486D01*
X153251Y155768D01*
X153349Y156078D01*
X153434Y156403D01*
X153504Y156755D01*
X153547Y157121D01*
X153561Y157516D01*
Y157615D01*
X153547Y157728D01*
X153533Y157869D01*
X153518Y158052D01*
X153490Y158263D01*
X153448Y158503D01*
X153392Y158757D01*
X153321Y159039D01*
X153237Y159307D01*
X153124Y159603D01*
X152997Y159885D01*
X152856Y160181D01*
X152673Y160448D01*
X152475Y160716D01*
X152236Y160970D01*
X152222Y160984D01*
X152179Y161026D01*
X152095Y161083D01*
X151996Y161167D01*
X151855Y161266D01*
X151686Y161379D01*
X151503Y161492D01*
X151277Y161604D01*
X151038Y161731D01*
X150756Y161844D01*
X150459Y161957D01*
X150135Y162055D01*
X149783Y162140D01*
X149402Y162196D01*
X148993Y162239D01*
X148570Y162253D01*
X153561D01*
D02*
G37*
G36*
Y151595D02*
X143439D01*
D01*
X148317D01*
X148218Y151581D01*
X148077D01*
X147922Y151567D01*
X147753Y151539D01*
X147556Y151511D01*
X147147Y151440D01*
X146681Y151328D01*
X146216Y151173D01*
X145991Y151074D01*
X145765Y150961D01*
X145751Y150947D01*
X145709Y150933D01*
X145652Y150891D01*
X145568Y150848D01*
X145469Y150778D01*
X145356Y150693D01*
X145230Y150595D01*
X145089Y150496D01*
X144948Y150369D01*
X144792Y150228D01*
X144637Y150073D01*
X144482Y149904D01*
X144341Y149721D01*
X144186Y149537D01*
X143933Y149100D01*
Y149086D01*
X143904Y149058D01*
X143890Y149002D01*
X143848Y148931D01*
X143820Y148833D01*
X143778Y148734D01*
X143735Y148593D01*
X143679Y148452D01*
X143637Y148297D01*
X143594Y148113D01*
X143552Y147916D01*
X143510Y147719D01*
X143453Y147268D01*
X143439Y146760D01*
Y142475D01*
Y146591D01*
X143453Y146464D01*
X143467Y146309D01*
X143482Y146126D01*
X143496Y145928D01*
X143538Y145717D01*
X143622Y145266D01*
X143763Y144801D01*
X143848Y144561D01*
X143947Y144336D01*
X144059Y144124D01*
X144200Y143927D01*
X144214Y143913D01*
X144229Y143884D01*
X144285Y143828D01*
X144341Y143758D01*
X144412Y143673D01*
X144511Y143588D01*
X144623Y143490D01*
X144750Y143377D01*
X144891Y143264D01*
X145046Y143151D01*
X145215Y143039D01*
X145413Y142940D01*
X145610Y142827D01*
X145822Y142743D01*
X146061Y142658D01*
X146301Y142602D01*
X146667Y144561D01*
X146653D01*
X146639Y144575D01*
X146555Y144603D01*
X146428Y144660D01*
X146259Y144744D01*
X146075Y144843D01*
X145892Y144984D01*
X145709Y145153D01*
X145540Y145351D01*
X145526Y145379D01*
X145469Y145449D01*
X145399Y145576D01*
X145328Y145731D01*
X145244Y145943D01*
X145187Y146182D01*
X145131Y146450D01*
X145117Y146760D01*
Y146887D01*
X145131Y146972D01*
X145145Y147085D01*
X145159Y147211D01*
X145187Y147352D01*
X145215Y147507D01*
X145314Y147832D01*
X145385Y148001D01*
X145469Y148170D01*
X145568Y148339D01*
X145667Y148508D01*
X145808Y148663D01*
X145948Y148818D01*
X145962Y148833D01*
X145991Y148847D01*
X146033Y148889D01*
X146103Y148931D01*
X146188Y148988D01*
X146287Y149058D01*
X146414Y149129D01*
X146555Y149185D01*
X146724Y149255D01*
X146907Y149326D01*
X147104Y149396D01*
X147316Y149453D01*
X147556Y149495D01*
X147823Y149537D01*
X148091Y149551D01*
X148387Y149565D01*
X148401D01*
X148458D01*
X148556D01*
X148669Y149551D01*
X148824Y149537D01*
X148979Y149523D01*
X149177Y149495D01*
X149374Y149467D01*
X149797Y149382D01*
X150234Y149241D01*
X150445Y149157D01*
X150643Y149058D01*
X150840Y148931D01*
X151009Y148804D01*
X151023Y148790D01*
X151052Y148762D01*
X151094Y148720D01*
X151150Y148663D01*
X151207Y148579D01*
X151291Y148494D01*
X151362Y148381D01*
X151446Y148254D01*
X151531Y148113D01*
X151601Y147973D01*
X151742Y147620D01*
X151799Y147423D01*
X151841Y147225D01*
X151869Y147000D01*
X151883Y146774D01*
Y146662D01*
X151869Y146549D01*
X151855Y146380D01*
X151827Y146196D01*
X151785Y145985D01*
X151728Y145759D01*
X151644Y145534D01*
Y145520D01*
X151629Y145506D01*
X151601Y145435D01*
X151545Y145308D01*
X151475Y145167D01*
X151390Y144998D01*
X151291Y144815D01*
X151178Y144632D01*
X151052Y144462D01*
X149797D01*
Y146718D01*
X148148D01*
Y142475D01*
X143439D01*
X152066D01*
X152095Y142503D01*
X152123Y142545D01*
X152165Y142587D01*
X152222Y142658D01*
X152278Y142729D01*
X152419Y142926D01*
X152574Y143194D01*
X152757Y143504D01*
X152941Y143856D01*
X153110Y144279D01*
Y144293D01*
X153124Y144336D01*
X153152Y144392D01*
X153180Y144476D01*
X153208Y144589D01*
X153251Y144716D01*
X153293Y144857D01*
X153335Y145012D01*
X153420Y145365D01*
X153490Y145773D01*
X153547Y146196D01*
X153561Y146648D01*
Y143673D01*
Y146803D01*
X153547Y146901D01*
Y147042D01*
X153533Y147197D01*
X153504Y147366D01*
X153476Y147564D01*
X153406Y147973D01*
X153293Y148424D01*
X153138Y148889D01*
X153039Y149100D01*
X152927Y149326D01*
X152912Y149340D01*
X152898Y149368D01*
X152856Y149439D01*
X152800Y149509D01*
X152743Y149608D01*
X152659Y149706D01*
X152560Y149833D01*
X152447Y149960D01*
X152193Y150242D01*
X151869Y150524D01*
X151503Y150792D01*
X151080Y151032D01*
X151066D01*
X151023Y151060D01*
X150953Y151088D01*
X150868Y151116D01*
X150756Y151159D01*
X150629Y151215D01*
X150474Y151257D01*
X150304Y151314D01*
X150121Y151370D01*
X149910Y151412D01*
X149473Y151511D01*
X148993Y151567D01*
X148472Y151595D01*
X153561D01*
D02*
G37*
G36*
X153378Y136920D02*
X143622D01*
Y134947D01*
X153378D01*
Y136920D01*
D02*
G37*
G36*
Y133058D02*
X143622D01*
Y131155D01*
X150192Y127123D01*
X143622D01*
Y125305D01*
X153378D01*
Y133058D01*
D02*
G37*
%LPD*%
G36*
X149515Y194521D02*
X145892Y195888D01*
X149515Y197213D01*
Y194521D01*
D02*
G37*
G36*
X153378Y193041D02*
X151164Y193887D01*
Y197806D01*
X153378Y198609D01*
Y193041D01*
D02*
G37*
G36*
X150192Y183920D02*
X143622D01*
Y187952D01*
X150192Y183920D01*
D02*
G37*
G36*
X149515Y174841D02*
X145892Y176209D01*
X149515Y177534D01*
Y174841D01*
D02*
G37*
G36*
X148768Y160209D02*
X148909Y160195D01*
X149078Y160181D01*
X149247Y160152D01*
X149445Y160124D01*
X149853Y160040D01*
X150262Y159899D01*
X150474Y159814D01*
X150671Y159715D01*
X150854Y159588D01*
X151023Y159462D01*
X151038Y159447D01*
X151066Y159419D01*
X151108Y159377D01*
X151150Y159321D01*
X151221Y159250D01*
X151291Y159151D01*
X151376Y159053D01*
X151446Y158926D01*
X151615Y158658D01*
X151742Y158320D01*
X151799Y158137D01*
X151841Y157939D01*
X151869Y157728D01*
X151883Y157516D01*
Y157403D01*
X151869Y157319D01*
X151855Y157220D01*
X151841Y157107D01*
X151770Y156840D01*
X151672Y156530D01*
X151601Y156374D01*
X151531Y156205D01*
X151432Y156050D01*
X151319Y155881D01*
X151193Y155726D01*
X151038Y155585D01*
X151023Y155571D01*
X150995Y155557D01*
X150953Y155514D01*
X150882Y155472D01*
X150784Y155402D01*
X150671Y155345D01*
X150544Y155275D01*
X150389Y155204D01*
X150220Y155134D01*
X150037Y155063D01*
X149825Y154993D01*
X149586Y154937D01*
X149346Y154894D01*
X149078Y154852D01*
X148782Y154838D01*
X148472Y154824D01*
X148458D01*
X148401D01*
X148317D01*
X148190Y154838D01*
X148049Y154852D01*
X147894Y154866D01*
X147711Y154880D01*
X147527Y154922D01*
X147119Y155007D01*
X146696Y155134D01*
X146484Y155218D01*
X146301Y155317D01*
X146118Y155444D01*
X145948Y155571D01*
X145934Y155585D01*
X145906Y155599D01*
X145878Y155641D01*
X145822Y155698D01*
X145751Y155782D01*
X145681Y155867D01*
X145610Y155966D01*
X145526Y156092D01*
X145455Y156219D01*
X145385Y156374D01*
X145244Y156699D01*
X145187Y156882D01*
X145159Y157079D01*
X145131Y157291D01*
X145117Y157516D01*
Y157629D01*
X145131Y157714D01*
X145145Y157826D01*
X145159Y157939D01*
X145215Y158221D01*
X145328Y158531D01*
X145385Y158700D01*
X145469Y158870D01*
X145568Y159025D01*
X145681Y159194D01*
X145808Y159349D01*
X145962Y159490D01*
X145977Y159504D01*
X146005Y159518D01*
X146047Y159560D01*
X146118Y159603D01*
X146216Y159659D01*
X146315Y159715D01*
X146442Y159786D01*
X146597Y159856D01*
X146766Y159927D01*
X146949Y159997D01*
X147161Y160054D01*
X147386Y160110D01*
X147640Y160152D01*
X147908Y160195D01*
X148190Y160209D01*
X148500Y160223D01*
X148514D01*
X148570D01*
X148655D01*
X148768Y160209D01*
D02*
G37*
G36*
X153378Y127278D02*
X146949Y131239D01*
X153378D01*
Y127278D01*
D02*
G37*
G54D13*
X215260Y-1860D02*
Y8297D01*
X208489Y-1860D01*
Y8297D01*
X198332Y6604D02*
X200025Y8297D01*
X203410D01*
X205103Y6604D01*
Y-167D01*
X203410Y-1860D01*
X200025D01*
X198332Y-167D01*
X215260Y23540D02*
Y33697D01*
X208489Y23540D01*
Y33697D01*
X198332Y32004D02*
X200025Y33697D01*
X203410D01*
X205103Y32004D01*
Y25233D01*
X203410Y23540D01*
X200025D01*
X198332Y25233D01*
X-191348Y-39752D02*
Y-29595D01*
X-198119Y-39752D01*
Y-29595D01*
X-208276Y-31288D02*
X-206583Y-29595D01*
X-203198D01*
X-201505Y-31288D01*
Y-38059D01*
X-203198Y-39752D01*
X-206583D01*
X-208276Y-38059D01*
X-166811Y-167996D02*
X-165118Y-166303D01*
X-161733D01*
X-160040Y-167996D01*
Y-174767D01*
X-161733Y-176460D01*
X-165118D01*
X-166811Y-174767D01*
Y-171382D01*
X-163426D01*
X-170197Y-166303D02*
Y-176460D01*
X-175275D01*
X-176968Y-174767D01*
Y-167996D01*
X-175275Y-166303D01*
X-170197D01*
X-180354Y-167996D02*
X-182046Y-166303D01*
X-185432D01*
X-187125Y-167996D01*
Y-174767D01*
X-185432Y-176460D01*
X-182046D01*
X-180354Y-174767D01*
Y-167996D01*
X-190510Y-171382D02*
X-197281D01*
X-200667Y-166303D02*
Y-176460D01*
X-205745D01*
X-207438Y-174767D01*
Y-167996D01*
X-205745Y-166303D01*
X-200667D01*
X-217595Y-176460D02*
X-210824D01*
X-217595Y-169689D01*
Y-167996D01*
X-215902Y-166303D01*
X-212516D01*
X-210824Y-167996D01*
X-168811Y-188996D02*
X-167118Y-187303D01*
X-163733D01*
X-162040Y-188996D01*
Y-195767D01*
X-163733Y-197460D01*
X-167118D01*
X-168811Y-195767D01*
Y-192382D01*
X-165426D01*
X-172197Y-187303D02*
Y-197460D01*
X-177275D01*
X-178968Y-195767D01*
Y-188996D01*
X-177275Y-187303D01*
X-172197D01*
X-182353Y-197460D02*
X-185739D01*
X-184046D01*
Y-187303D01*
X-182353Y-188996D01*
X-190817Y-192382D02*
X-197589D01*
X-200974Y-187303D02*
Y-197460D01*
X-206052D01*
X-207745Y-195767D01*
Y-188996D01*
X-206052Y-187303D01*
X-200974D01*
X-211131Y-188996D02*
X-212824Y-187303D01*
X-216209D01*
X-217902Y-188996D01*
Y-190689D01*
X-216209Y-192382D01*
X-214516D01*
X-216209D01*
X-217902Y-194074D01*
Y-195767D01*
X-216209Y-197460D01*
X-212824D01*
X-211131Y-195767D01*
X-153040Y363897D02*
Y353740D01*
X-158118D01*
X-159811Y355433D01*
Y362204D01*
X-158118Y363897D01*
X-153040D01*
X-163197Y362204D02*
X-164890Y363897D01*
X-168275D01*
X-169968Y362204D01*
Y355433D01*
X-168275Y353740D01*
X-164890D01*
X-163197Y355433D01*
Y362204D01*
X-173354Y358818D02*
X-180125D01*
X-183510Y353740D02*
X-188589Y358818D01*
X-183510Y363897D01*
X-191974Y353740D02*
Y363897D01*
X-197052D01*
X-198745Y362204D01*
Y358818D01*
X-197052Y357126D01*
X-191974D01*
X-195360D02*
X-198745Y353740D01*
X-202131Y363897D02*
X-208902Y353740D01*
Y363897D02*
X-202131Y353740D01*
X-153040Y338497D02*
Y328340D01*
X-158118D01*
X-159811Y330033D01*
Y336804D01*
X-158118Y338497D01*
X-153040D01*
X-163197Y328340D02*
X-166582D01*
X-164890D01*
Y338497D01*
X-163197Y336804D01*
X-176739Y328340D02*
X-171661Y333418D01*
X-176739Y338497D01*
X-181817Y333418D02*
X-188589D01*
X-191974Y338497D02*
X-198745D01*
X-195360D01*
Y328340D01*
X-202131Y338497D02*
X-208902Y328340D01*
Y338497D02*
X-202131Y328340D01*
X-191140Y313097D02*
Y302940D01*
X-196218D01*
X-197911Y304633D01*
Y311404D01*
X-196218Y313097D01*
X-191140D01*
X-208068Y302940D02*
X-201297D01*
X-208068Y309711D01*
Y311404D01*
X-206375Y313097D01*
X-202990D01*
X-201297Y311404D01*
X-191140Y287697D02*
Y277540D01*
X-196218D01*
X-197911Y279233D01*
Y286004D01*
X-196218Y287697D01*
X-191140D01*
X-201297Y286004D02*
X-202990Y287697D01*
X-206375D01*
X-208068Y286004D01*
Y284311D01*
X-206375Y282618D01*
X-204682D01*
X-206375D01*
X-208068Y280926D01*
Y279233D01*
X-206375Y277540D01*
X-202990D01*
X-201297Y279233D01*
X-191140Y262297D02*
Y252140D01*
X-196218D01*
X-197911Y253833D01*
Y260604D01*
X-196218Y262297D01*
X-191140D01*
X-206375Y252140D02*
Y262297D01*
X-201297Y257218D01*
X-208068D01*
X-191040Y227697D02*
Y217540D01*
X-196118D01*
X-197811Y219233D01*
Y226004D01*
X-196118Y227697D01*
X-191040D01*
X-207968D02*
X-201197D01*
Y222618D01*
X-204582Y224311D01*
X-206275D01*
X-207968Y222618D01*
Y219233D01*
X-206275Y217540D01*
X-202889D01*
X-201197Y219233D01*
X-191040Y204697D02*
Y194540D01*
X-196118D01*
X-197811Y196233D01*
Y203004D01*
X-196118Y204697D01*
X-191040D01*
X-207968D02*
X-204582Y203004D01*
X-201197Y199618D01*
Y196233D01*
X-202889Y194540D01*
X-206275D01*
X-207968Y196233D01*
Y197925D01*
X-206275Y199618D01*
X-201197D01*
X-191040Y167697D02*
Y157540D01*
X-196118D01*
X-197811Y159233D01*
Y166004D01*
X-196118Y167697D01*
X-191040D01*
X-201197D02*
X-207968D01*
Y166004D01*
X-201197Y159233D01*
Y157540D01*
X-191140Y147997D02*
Y137840D01*
X-196218D01*
X-197911Y139533D01*
Y146304D01*
X-196218Y147997D01*
X-191140D01*
X-201297Y146304D02*
X-202990Y147997D01*
X-206375D01*
X-208068Y146304D01*
Y144611D01*
X-206375Y142918D01*
X-208068Y141226D01*
Y139533D01*
X-206375Y137840D01*
X-202990D01*
X-201297Y139533D01*
Y141226D01*
X-202990Y142918D01*
X-201297Y144611D01*
Y146304D01*
X-202990Y142918D02*
X-206375D01*
X-191140Y122597D02*
Y112440D01*
X-196218D01*
X-197911Y114133D01*
Y120904D01*
X-196218Y122597D01*
X-191140D01*
X-201297Y114133D02*
X-202990Y112440D01*
X-206375D01*
X-208068Y114133D01*
Y120904D01*
X-206375Y122597D01*
X-202990D01*
X-201297Y120904D01*
Y119211D01*
X-202990Y117518D01*
X-208068D01*
X-191140Y97197D02*
Y87040D01*
X-196218D01*
X-197911Y88733D01*
Y95504D01*
X-196218Y97197D01*
X-191140D01*
X-201297Y87040D02*
X-204682D01*
X-202990D01*
Y97197D01*
X-201297Y95504D01*
X-209761D02*
X-211453Y97197D01*
X-214839D01*
X-216532Y95504D01*
Y88733D01*
X-214839Y87040D01*
X-211453D01*
X-209761Y88733D01*
Y95504D01*
X-191140Y71797D02*
Y61640D01*
X-196218D01*
X-197911Y63333D01*
Y70104D01*
X-196218Y71797D01*
X-191140D01*
X-201297Y61640D02*
X-204682D01*
X-202990D01*
Y71797D01*
X-201297Y70104D01*
X-209761Y61640D02*
X-213146D01*
X-211453D01*
Y71797D01*
X-209761Y70104D01*
X-191140Y46397D02*
Y36240D01*
X-196218D01*
X-197911Y37933D01*
Y44704D01*
X-196218Y46397D01*
X-191140D01*
X-201297Y36240D02*
X-204682D01*
X-202990D01*
Y46397D01*
X-201297Y44704D01*
X-216532Y36240D02*
X-209761D01*
X-216532Y43011D01*
Y44704D01*
X-214839Y46397D01*
X-211453D01*
X-209761Y44704D01*
X-191140Y20997D02*
Y10840D01*
X-196218D01*
X-197911Y12533D01*
Y19304D01*
X-196218Y20997D01*
X-191140D01*
X-201297Y10840D02*
X-204682D01*
X-202990D01*
Y20997D01*
X-201297Y19304D01*
X-209761D02*
X-211453Y20997D01*
X-214839D01*
X-216532Y19304D01*
Y17611D01*
X-214839Y15918D01*
X-213146D01*
X-214839D01*
X-216532Y14225D01*
Y12533D01*
X-214839Y10840D01*
X-211453D01*
X-209761Y12533D01*
X-153040Y-53510D02*
X-156426D01*
X-154733D01*
Y-63667D01*
X-153040D01*
X-156426D01*
X-168275D02*
X-161504D01*
X-168275Y-56896D01*
Y-55203D01*
X-166582Y-53510D01*
X-163197D01*
X-161504Y-55203D01*
X-178432D02*
X-176739Y-53510D01*
X-173354D01*
X-171661Y-55203D01*
Y-61975D01*
X-173354Y-63667D01*
X-176739D01*
X-178432Y-61975D01*
X-181817Y-65360D02*
X-188589D01*
X-198745Y-55203D02*
X-197052Y-53510D01*
X-193667D01*
X-191974Y-55203D01*
Y-56896D01*
X-193667Y-58589D01*
X-197052D01*
X-198745Y-60282D01*
Y-61975D01*
X-197052Y-63667D01*
X-193667D01*
X-191974Y-61975D01*
X-202131Y-53510D02*
Y-63667D01*
X-207209D01*
X-208902Y-61975D01*
Y-55203D01*
X-207209Y-53510D01*
X-202131D01*
X-212288Y-63667D02*
Y-56896D01*
X-215673Y-53510D01*
X-219059Y-56896D01*
Y-63667D01*
Y-58589D01*
X-212288D01*
X-153040Y-78910D02*
X-156426D01*
X-154733D01*
Y-89067D01*
X-153040D01*
X-156426D01*
X-168275D02*
X-161504D01*
X-168275Y-82296D01*
Y-80603D01*
X-166582Y-78910D01*
X-163197D01*
X-161504Y-80603D01*
X-178432D02*
X-176739Y-78910D01*
X-173354D01*
X-171661Y-80603D01*
Y-87374D01*
X-173354Y-89067D01*
X-176739D01*
X-178432Y-87374D01*
X-181817Y-90760D02*
X-188589D01*
X-198745Y-80603D02*
X-197052Y-78910D01*
X-193667D01*
X-191974Y-80603D01*
Y-87374D01*
X-193667Y-89067D01*
X-197052D01*
X-198745Y-87374D01*
X-202131Y-78910D02*
Y-89067D01*
X-208902D01*
X-212288Y-78910D02*
Y-89067D01*
Y-85682D01*
X-219059Y-78910D01*
X-213980Y-83989D01*
X-219059Y-89067D01*
X-191140Y-206756D02*
X-192833Y-205063D01*
X-196218D01*
X-197911Y-206756D01*
Y-208449D01*
X-196218Y-210142D01*
X-194526D01*
X-196218D01*
X-197911Y-211835D01*
Y-213527D01*
X-196218Y-215220D01*
X-192833D01*
X-191140Y-213527D01*
X-201297Y-205063D02*
Y-211835D01*
X-204682Y-215220D01*
X-208068Y-211835D01*
Y-205063D01*
X-211453Y-206756D02*
X-213146Y-205063D01*
X-216532D01*
X-218225Y-206756D01*
Y-208449D01*
X-216532Y-210142D01*
X-214839D01*
X-216532D01*
X-218225Y-211835D01*
Y-213527D01*
X-216532Y-215220D01*
X-213146D01*
X-211453Y-213527D01*
X-197911Y-227076D02*
X-196218Y-225383D01*
X-192833D01*
X-191140Y-227076D01*
Y-233847D01*
X-192833Y-235540D01*
X-196218D01*
X-197911Y-233847D01*
Y-230462D01*
X-194526D01*
X-201297Y-235540D02*
Y-225383D01*
X-208068Y-235540D01*
Y-225383D01*
X-211453D02*
Y-235540D01*
X-216532D01*
X-218225Y-233847D01*
Y-227076D01*
X-216532Y-225383D01*
X-211453D01*
X215260Y48940D02*
Y59097D01*
X210182D01*
X208489Y57404D01*
Y54018D01*
X210182Y52326D01*
X215260D01*
X211874D02*
X208489Y48940D01*
X198332Y59097D02*
X205103D01*
Y48940D01*
X198332D01*
X205103Y54018D02*
X201718D01*
X188175Y57404D02*
X189868Y59097D01*
X193254D01*
X194946Y57404D01*
Y55711D01*
X193254Y54018D01*
X189868D01*
X188175Y52326D01*
Y50633D01*
X189868Y48940D01*
X193254D01*
X194946Y50633D01*
X178019Y59097D02*
X184790D01*
Y48940D01*
X178019D01*
X184790Y54018D02*
X181404D01*
X174633Y59097D02*
X167862D01*
X171248D01*
Y48940D01*
X215260Y82804D02*
X213567Y84497D01*
X210182D01*
X208489Y82804D01*
Y81111D01*
X210182Y79418D01*
X211874D01*
X210182D01*
X208489Y77726D01*
Y76033D01*
X210182Y74340D01*
X213567D01*
X215260Y76033D01*
X205103Y84497D02*
Y77726D01*
X201718Y74340D01*
X198332Y77726D01*
Y84497D01*
X194946Y82804D02*
X193254Y84497D01*
X189868D01*
X188175Y82804D01*
Y81111D01*
X189868Y79418D01*
X191561D01*
X189868D01*
X188175Y77726D01*
Y76033D01*
X189868Y74340D01*
X193254D01*
X194946Y76033D01*
X208489Y109897D02*
X215260D01*
Y104818D01*
X211874Y106511D01*
X210182D01*
X208489Y104818D01*
Y101433D01*
X210182Y99740D01*
X213567D01*
X215260Y101433D01*
X205103Y109897D02*
Y103125D01*
X201718Y99740D01*
X198332Y103125D01*
Y109897D01*
X208489Y133604D02*
X210182Y135297D01*
X213567D01*
X215260Y133604D01*
Y126833D01*
X213567Y125140D01*
X210182D01*
X208489Y126833D01*
Y130218D01*
X211874D01*
X205103Y125140D02*
Y135297D01*
X198332Y125140D01*
Y135297D01*
X194946D02*
Y125140D01*
X189868D01*
X188175Y126833D01*
Y133604D01*
X189868Y135297D01*
X194946D01*
X208489Y159004D02*
X210182Y160697D01*
X213567D01*
X215260Y159004D01*
Y152233D01*
X213567Y150540D01*
X210182D01*
X208489Y152233D01*
Y155618D01*
X211874D01*
X205103Y150540D02*
Y160697D01*
X198332Y150540D01*
Y160697D01*
X194946D02*
Y150540D01*
X189868D01*
X188175Y152233D01*
Y159004D01*
X189868Y160697D01*
X194946D01*
X208489Y186097D02*
X215260D01*
Y181018D01*
X211874Y182711D01*
X210182D01*
X208489Y181018D01*
Y177633D01*
X210182Y175940D01*
X213567D01*
X215260Y177633D01*
X205103Y186097D02*
Y179326D01*
X201718Y175940D01*
X198332Y179326D01*
Y186097D01*
X196210Y353740D02*
Y360511D01*
X192824Y363897D01*
X189439Y360511D01*
Y353740D01*
Y358818D01*
X196210D01*
X179282Y363897D02*
X186053D01*
Y358818D01*
X182668Y360511D01*
X180975D01*
X179282Y358818D01*
Y355433D01*
X180975Y353740D01*
X184361D01*
X186053Y355433D01*
X157689Y362204D02*
X159382Y363897D01*
X162767D01*
X164460Y362204D01*
Y355433D01*
X162767Y353740D01*
X159382D01*
X157689Y355433D01*
Y358818D01*
X161074D01*
X154303Y353740D02*
Y363897D01*
X147532Y353740D01*
Y363897D01*
X144146D02*
Y353740D01*
X139068D01*
X137375Y355433D01*
Y362204D01*
X139068Y363897D01*
X144146D01*
X164460Y328340D02*
Y338497D01*
X159382D01*
X157689Y336804D01*
Y333418D01*
X159382Y331726D01*
X164460D01*
X161074D02*
X157689Y328340D01*
X154303Y338497D02*
X147532Y328340D01*
Y338497D02*
X154303Y328340D01*
X144146Y338497D02*
Y328340D01*
X139068D01*
X137375Y330033D01*
Y336804D01*
X139068Y338497D01*
X144146D01*
X196210Y328340D02*
Y335111D01*
X192824Y338497D01*
X189439Y335111D01*
Y328340D01*
Y333418D01*
X196210D01*
X180975Y328340D02*
Y338497D01*
X186053Y333418D01*
X179282D01*
X196210Y302940D02*
Y309711D01*
X192824Y313097D01*
X189439Y309711D01*
Y302940D01*
Y308018D01*
X196210D01*
X186053Y311404D02*
X184361Y313097D01*
X180975D01*
X179282Y311404D01*
Y309711D01*
X180975Y308018D01*
X182668D01*
X180975D01*
X179282Y306325D01*
Y304633D01*
X180975Y302940D01*
X184361D01*
X186053Y304633D01*
X164460Y313097D02*
X157689D01*
X161074D01*
Y302940D01*
X154303Y313097D02*
X147532Y302940D01*
Y313097D02*
X154303Y302940D01*
X144146Y313097D02*
Y302940D01*
X139068D01*
X137375Y304633D01*
Y311404D01*
X139068Y313097D01*
X144146D01*
X164460Y287697D02*
Y277540D01*
X159382D01*
X157689Y279233D01*
Y286004D01*
X159382Y287697D01*
X164460D01*
X154303D02*
X147532D01*
X150918D01*
Y277540D01*
X144146D02*
Y287697D01*
X139068D01*
X137375Y286004D01*
Y282618D01*
X139068Y280926D01*
X144146D01*
X140761D02*
X137375Y277540D01*
X196210D02*
Y284311D01*
X192824Y287697D01*
X189439Y284311D01*
Y277540D01*
Y282618D01*
X196210D01*
X179282Y277540D02*
X186053D01*
X179282Y284311D01*
Y286004D01*
X180975Y287697D01*
X184361D01*
X186053Y286004D01*
X196210Y252140D02*
Y258911D01*
X192824Y262297D01*
X189439Y258911D01*
Y252140D01*
Y257218D01*
X196210D01*
X186053Y252140D02*
X182668D01*
X184361D01*
Y262297D01*
X186053Y260604D01*
X164460Y252140D02*
Y262297D01*
X159382D01*
X157689Y260604D01*
Y257218D01*
X159382Y255525D01*
X164460D01*
X161074D02*
X157689Y252140D01*
X154303Y262297D02*
X147532D01*
X150918D01*
Y252140D01*
X137375Y260604D02*
X139068Y262297D01*
X142454D01*
X144146Y260604D01*
Y258911D01*
X142454Y257218D01*
X139068D01*
X137375Y255525D01*
Y253833D01*
X139068Y252140D01*
X142454D01*
X144146Y253833D01*
X164460Y235204D02*
X162767Y236897D01*
X159382D01*
X157689Y235204D01*
Y233511D01*
X159382Y231818D01*
X161074D01*
X159382D01*
X157689Y230126D01*
Y228433D01*
X159382Y226740D01*
X162767D01*
X164460Y228433D01*
X154303Y236897D02*
Y230126D01*
X150918Y226740D01*
X147532Y230126D01*
Y236897D01*
X144146Y235204D02*
X142454Y236897D01*
X139068D01*
X137375Y235204D01*
Y233511D01*
X139068Y231818D01*
X140761D01*
X139068D01*
X137375Y230126D01*
Y228433D01*
X139068Y226740D01*
X142454D01*
X144146Y228433D01*
X196210Y226740D02*
Y233511D01*
X192824Y236897D01*
X189439Y233511D01*
Y226740D01*
Y231818D01*
X196210D01*
X186053Y235204D02*
X184361Y236897D01*
X180975D01*
X179282Y235204D01*
Y228433D01*
X180975Y226740D01*
X184361D01*
X186053Y228433D01*
Y235204D01*
G54D15*
X-152337Y320999D02*
X-157668D01*
X-155003D01*
Y313001D01*
X-160334D02*
Y320999D01*
X-164333D01*
X-165666Y319666D01*
Y317000D01*
X-164333Y315667D01*
X-160334D01*
X-173663Y313001D02*
X-168332D01*
X-173663Y318333D01*
Y319666D01*
X-172330Y320999D01*
X-169664D01*
X-168332Y319666D01*
X-12170Y204999D02*
X-17501D01*
X-14835D01*
Y197001D01*
X-20167D02*
Y204999D01*
X-24166D01*
X-25499Y203666D01*
Y201000D01*
X-24166Y199667D01*
X-20167D01*
X-28165Y197001D02*
X-30830D01*
X-29497D01*
Y204999D01*
X-28165Y203666D01*
G54D18*
X-182250Y190500D02*
Y227466D01*
Y8300D02*
Y167640D01*
Y245811D02*
Y313100D01*
X-144150Y-89490D02*
Y-29800D01*
X-182250Y8300D02*
X-144150Y-29800D01*
X154500Y-0D02*
Y53000D01*
X173500Y72000D01*
Y186000D01*
X154500Y125000D02*
Y188000D01*
Y203000D01*
X173350Y221850D01*
Y224200D01*
Y363900D01*
M02*
