G04*
G04 #@! TF.GenerationSoftware,Altium Limited,Altium Designer,21.9.2 (33)*
G04*
G04 Layer_Color=65535*
%FSLAX44Y44*%
%MOMM*%
G71*
G04*
G04 #@! TF.SameCoordinates,2677EA57-048B-4CE0-8197-23F7109DD1FC*
G04*
G04*
G04 #@! TF.FilePolarity,Positive*
G04*
G01*
G75*
%ADD10C,0.2000*%
%ADD11C,0.2500*%
%ADD12C,0.1000*%
%ADD13C,0.2540*%
%ADD14C,0.1000*%
%ADD15C,0.1500*%
%ADD16C,0.1270*%
%ADD17C,0.3000*%
%ADD18C,0.2560*%
%ADD19C,0.2032*%
%ADD20R,0.3300X0.7000*%
G36*
X-166852Y-298150D02*
X-176148D01*
Y-257849D01*
X-166852D01*
Y-298150D01*
D02*
G37*
G36*
X-216006Y97377D02*
Y46623D01*
X-227994D01*
Y97377D01*
X-216006D01*
D02*
G37*
G36*
X-255006Y-107377D02*
X-266994D01*
Y-56623D01*
X-255006D01*
Y-107377D01*
D02*
G37*
G36*
X196578Y-190688D02*
X185422D01*
Y-155311D01*
X196578D01*
Y-190688D01*
D02*
G37*
G36*
X-216006Y118311D02*
X-227994D01*
Y159689D01*
X-216006D01*
Y118311D01*
D02*
G37*
G36*
X-182849Y355648D02*
Y346352D01*
X-223151D01*
Y355648D01*
X-182849D01*
D02*
G37*
G36*
X-250332Y-242092D02*
X-250322Y-242157D01*
Y-242240D01*
X-250313Y-242333D01*
X-250295Y-242536D01*
Y-242546D01*
X-250285Y-242582D01*
X-250276Y-242638D01*
X-250258Y-242703D01*
X-250221Y-242851D01*
X-250202Y-242915D01*
X-250175Y-242980D01*
X-250165Y-242989D01*
X-250156Y-243008D01*
X-250138Y-243045D01*
X-250101Y-243082D01*
X-250027Y-243183D01*
X-249925Y-243267D01*
X-249916Y-243276D01*
X-249897Y-243285D01*
X-249860Y-243304D01*
X-249814Y-243322D01*
X-249749Y-243350D01*
X-249675Y-243368D01*
X-249592Y-243387D01*
X-249500Y-243396D01*
Y-244016D01*
X-254890D01*
Y-245236D01*
X-255500D01*
Y-242000D01*
X-254890D01*
Y-243248D01*
X-250877D01*
Y-242000D01*
X-250332D01*
Y-242092D01*
D02*
G37*
%LPC*%
G36*
X-168248Y-262033D02*
X-174752D01*
D01*
X-169348D01*
Y-265660D01*
X-171115D01*
Y-262399D01*
X-172214D01*
Y-265660D01*
X-173652D01*
Y-262155D01*
X-174752D01*
Y-266976D01*
X-168248D01*
Y-262033D01*
D02*
G37*
G36*
Y-267643D02*
X-174752D01*
Y-273705D01*
D01*
X-168248Y-271374D01*
Y-269955D01*
X-174752Y-267643D01*
X-168248D01*
D02*
G37*
G36*
X-171425Y-274071D02*
X-174874D01*
Y-280378D01*
D01*
Y-277239D01*
X-174865Y-277521D01*
X-174836Y-277793D01*
X-174789Y-278028D01*
X-174742Y-278235D01*
X-174714Y-278319D01*
X-174695Y-278404D01*
X-174677Y-278470D01*
X-174648Y-278526D01*
X-174639Y-278573D01*
X-174620Y-278611D01*
X-174611Y-278629D01*
Y-278639D01*
X-174536Y-278808D01*
X-174442Y-278968D01*
X-174338Y-279109D01*
X-174244Y-279231D01*
X-174160Y-279334D01*
X-174084Y-279419D01*
X-174037Y-279466D01*
X-174028Y-279475D01*
X-174019Y-279485D01*
X-173868Y-279616D01*
X-173709Y-279738D01*
X-173568Y-279842D01*
X-173427Y-279926D01*
X-173305Y-279992D01*
X-173211Y-280049D01*
X-173173Y-280058D01*
X-173145Y-280077D01*
X-173135Y-280086D01*
X-173126D01*
X-172863Y-280180D01*
X-172581Y-280255D01*
X-172299Y-280302D01*
X-172036Y-280340D01*
X-171914Y-280349D01*
X-171801Y-280359D01*
X-171707Y-280368D01*
X-171622D01*
X-171547Y-280378D01*
X-171453D01*
X-171171Y-280368D01*
X-170899Y-280340D01*
X-170645Y-280302D01*
X-170410Y-280246D01*
X-170194Y-280180D01*
X-169996Y-280105D01*
X-169808Y-280030D01*
X-169649Y-279945D01*
X-169498Y-279870D01*
X-169376Y-279795D01*
X-169263Y-279720D01*
X-169169Y-279654D01*
X-169104Y-279597D01*
X-169047Y-279560D01*
X-169019Y-279532D01*
X-169010Y-279522D01*
X-168850Y-279353D01*
X-168718Y-279174D01*
X-168596Y-278996D01*
X-168502Y-278799D01*
X-168417Y-278611D01*
X-168342Y-278413D01*
X-168286Y-278235D01*
X-168239Y-278047D01*
X-168201Y-277878D01*
X-168173Y-277718D01*
X-168154Y-277577D01*
X-168145Y-277455D01*
X-168136Y-277361D01*
X-168126Y-277285D01*
Y-277220D01*
X-168136Y-276957D01*
X-168164Y-276712D01*
X-168211Y-276477D01*
X-168267Y-276261D01*
X-168333Y-276054D01*
X-168408Y-275866D01*
X-168483Y-275697D01*
X-168568Y-275537D01*
X-168652Y-275406D01*
X-168728Y-275284D01*
X-168803Y-275180D01*
X-168869Y-275096D01*
X-168925Y-275021D01*
X-168972Y-274974D01*
X-169000Y-274945D01*
X-169010Y-274936D01*
X-169188Y-274786D01*
X-169376Y-274654D01*
X-169573Y-274532D01*
X-169771Y-274438D01*
X-169978Y-274353D01*
X-170184Y-274278D01*
X-170391Y-274222D01*
X-170588Y-274175D01*
X-170767Y-274147D01*
X-170946Y-274118D01*
X-171096Y-274100D01*
X-171227Y-274081D01*
X-171340D01*
X-171425Y-274071D01*
D02*
G37*
G36*
X-168248Y-280819D02*
X-174752D01*
Y-286665D01*
X-168248D01*
Y-285349D01*
X-170964D01*
Y-284926D01*
X-170955Y-284795D01*
X-170946Y-284682D01*
X-170927Y-284588D01*
X-170917Y-284513D01*
X-170899Y-284466D01*
X-170889Y-284437D01*
Y-284428D01*
X-170852Y-284353D01*
X-170814Y-284278D01*
X-170767Y-284212D01*
X-170729Y-284146D01*
X-170682Y-284099D01*
X-170645Y-284062D01*
X-170626Y-284043D01*
X-170617Y-284033D01*
X-170570Y-283996D01*
X-170523Y-283949D01*
X-170382Y-283845D01*
X-170231Y-283733D01*
X-170062Y-283610D01*
X-169912Y-283507D01*
X-169837Y-283460D01*
X-169780Y-283422D01*
X-169733Y-283385D01*
X-169696Y-283357D01*
X-169667Y-283347D01*
X-169658Y-283338D01*
X-168248Y-282398D01*
Y-280819D01*
X-169517Y-281618D01*
X-169649Y-281703D01*
X-169780Y-281787D01*
X-169893Y-281862D01*
X-169996Y-281938D01*
X-170090Y-282003D01*
X-170184Y-282060D01*
X-170325Y-282173D01*
X-170438Y-282257D01*
X-170513Y-282313D01*
X-170560Y-282360D01*
X-170570Y-282370D01*
X-170682Y-282473D01*
X-170786Y-282595D01*
X-170870Y-282708D01*
X-170955Y-282821D01*
X-171021Y-282915D01*
X-171068Y-282990D01*
X-171105Y-283046D01*
X-171115Y-283056D01*
Y-283065D01*
X-171143Y-282906D01*
X-171180Y-282765D01*
X-171218Y-282633D01*
X-171265Y-282501D01*
X-171312Y-282389D01*
X-171359Y-282285D01*
X-171406Y-282182D01*
X-171462Y-282097D01*
X-171509Y-282022D01*
X-171556Y-281956D01*
X-171603Y-281900D01*
X-171641Y-281862D01*
X-171669Y-281825D01*
X-171697Y-281797D01*
X-171707Y-281787D01*
X-171716Y-281778D01*
X-171810Y-281703D01*
X-171904Y-281637D01*
X-172111Y-281524D01*
X-172308Y-281449D01*
X-172506Y-281402D01*
X-172675Y-281364D01*
X-172741Y-281355D01*
X-172806D01*
X-172853Y-281346D01*
X-172900D01*
X-172919D01*
X-172929D01*
X-173135Y-281355D01*
X-173333Y-281392D01*
X-173502Y-281439D01*
X-173652Y-281486D01*
X-173774Y-281543D01*
X-173868Y-281590D01*
X-173897Y-281609D01*
X-173925Y-281627D01*
X-173934Y-281637D01*
X-173944D01*
X-174103Y-281750D01*
X-174235Y-281872D01*
X-174338Y-281994D01*
X-174432Y-282116D01*
X-174489Y-282229D01*
X-174536Y-282313D01*
X-174564Y-282370D01*
X-174573Y-282379D01*
Y-282389D01*
X-174601Y-282483D01*
X-174630Y-282586D01*
X-174677Y-282821D01*
X-174705Y-283075D01*
X-174733Y-283319D01*
Y-283441D01*
X-174742Y-283545D01*
Y-283648D01*
X-174752Y-283733D01*
Y-280819D01*
X-168248D01*
D02*
G37*
G36*
X-168126Y-287887D02*
X-174874D01*
X-171735D01*
Y-290715D01*
X-170635D01*
Y-289212D01*
X-169799D01*
X-169714Y-289324D01*
X-169639Y-289447D01*
X-169573Y-289569D01*
X-169517Y-289681D01*
X-169470Y-289776D01*
X-169433Y-289860D01*
X-169414Y-289907D01*
X-169404Y-289916D01*
Y-289926D01*
X-169348Y-290076D01*
X-169310Y-290227D01*
X-169282Y-290368D01*
X-169263Y-290490D01*
X-169254Y-290602D01*
X-169244Y-290678D01*
Y-290753D01*
X-169254Y-290903D01*
X-169273Y-291054D01*
X-169301Y-291185D01*
X-169338Y-291317D01*
X-169433Y-291552D01*
X-169480Y-291646D01*
X-169536Y-291740D01*
X-169592Y-291824D01*
X-169639Y-291899D01*
X-169696Y-291956D01*
X-169733Y-292012D01*
X-169771Y-292050D01*
X-169799Y-292078D01*
X-169818Y-292097D01*
X-169827Y-292106D01*
X-169940Y-292191D01*
X-170072Y-292275D01*
X-170203Y-292341D01*
X-170344Y-292397D01*
X-170635Y-292491D01*
X-170917Y-292548D01*
X-171049Y-292567D01*
X-171180Y-292586D01*
X-171284Y-292595D01*
X-171387Y-292604D01*
X-171462Y-292614D01*
X-171528D01*
X-171566D01*
X-171575D01*
X-171773Y-292604D01*
X-171951Y-292595D01*
X-172130Y-292567D01*
X-172290Y-292539D01*
X-172430Y-292501D01*
X-172562Y-292454D01*
X-172684Y-292407D01*
X-172797Y-292360D01*
X-172891Y-292322D01*
X-172976Y-292275D01*
X-173041Y-292228D01*
X-173098Y-292191D01*
X-173145Y-292163D01*
X-173173Y-292134D01*
X-173192Y-292125D01*
X-173201Y-292116D01*
X-173295Y-292012D01*
X-173389Y-291909D01*
X-173455Y-291796D01*
X-173521Y-291683D01*
X-173577Y-291570D01*
X-173624Y-291458D01*
X-173690Y-291242D01*
X-173709Y-291138D01*
X-173727Y-291044D01*
X-173737Y-290960D01*
X-173746Y-290884D01*
X-173756Y-290828D01*
Y-290744D01*
X-173746Y-290537D01*
X-173709Y-290358D01*
X-173671Y-290198D01*
X-173615Y-290057D01*
X-173568Y-289954D01*
X-173521Y-289869D01*
X-173483Y-289823D01*
X-173474Y-289804D01*
X-173361Y-289672D01*
X-173239Y-289559D01*
X-173116Y-289465D01*
X-172994Y-289400D01*
X-172882Y-289343D01*
X-172797Y-289306D01*
X-172741Y-289287D01*
X-172731Y-289277D01*
X-172722D01*
X-172966Y-287971D01*
X-173126Y-288009D01*
X-173286Y-288065D01*
X-173427Y-288121D01*
X-173558Y-288197D01*
X-173690Y-288262D01*
X-173803Y-288338D01*
X-173906Y-288413D01*
X-174000Y-288488D01*
X-174084Y-288563D01*
X-174160Y-288629D01*
X-174226Y-288685D01*
X-174272Y-288742D01*
X-174310Y-288789D01*
X-174348Y-288826D01*
X-174357Y-288845D01*
X-174366Y-288855D01*
X-174460Y-288986D01*
X-174536Y-289127D01*
X-174601Y-289277D01*
X-174658Y-289437D01*
X-174752Y-289747D01*
X-174808Y-290048D01*
X-174836Y-290189D01*
X-174846Y-290321D01*
X-174855Y-290443D01*
X-174865Y-290546D01*
X-174874Y-290631D01*
Y-293967D01*
D01*
Y-290744D01*
X-174865Y-291082D01*
X-174827Y-291383D01*
X-174799Y-291514D01*
X-174771Y-291646D01*
X-174742Y-291768D01*
X-174714Y-291871D01*
X-174677Y-291965D01*
X-174648Y-292059D01*
X-174620Y-292125D01*
X-174601Y-292191D01*
X-174573Y-292238D01*
X-174564Y-292275D01*
X-174545Y-292294D01*
Y-292304D01*
X-174376Y-292595D01*
X-174272Y-292717D01*
X-174179Y-292839D01*
X-174075Y-292952D01*
X-173972Y-293055D01*
X-173868Y-293149D01*
X-173774Y-293234D01*
X-173680Y-293300D01*
X-173596Y-293365D01*
X-173521Y-293422D01*
X-173455Y-293469D01*
X-173398Y-293497D01*
X-173361Y-293525D01*
X-173333Y-293535D01*
X-173323Y-293544D01*
X-173173Y-293619D01*
X-173022Y-293685D01*
X-172712Y-293788D01*
X-172402Y-293864D01*
X-172130Y-293911D01*
X-171998Y-293929D01*
X-171885Y-293948D01*
X-171782Y-293958D01*
X-171688D01*
X-171622Y-293967D01*
X-171519D01*
X-171171Y-293948D01*
X-170852Y-293911D01*
X-170560Y-293845D01*
X-170419Y-293817D01*
X-170297Y-293779D01*
X-170184Y-293741D01*
X-170081Y-293713D01*
X-169996Y-293676D01*
X-169921Y-293647D01*
X-169865Y-293629D01*
X-169818Y-293610D01*
X-169790Y-293591D01*
X-169780D01*
X-169498Y-293431D01*
X-169254Y-293253D01*
X-169038Y-293065D01*
X-168869Y-292877D01*
X-168793Y-292792D01*
X-168728Y-292708D01*
X-168671Y-292642D01*
X-168634Y-292576D01*
X-168596Y-292529D01*
X-168568Y-292482D01*
X-168559Y-292463D01*
X-168549Y-292454D01*
X-168474Y-292304D01*
X-168408Y-292163D01*
X-168305Y-291852D01*
X-168230Y-291552D01*
X-168183Y-291279D01*
X-168164Y-291148D01*
X-168145Y-291035D01*
X-168136Y-290931D01*
Y-290837D01*
X-168126Y-290772D01*
Y-290668D01*
X-168136Y-290368D01*
X-168173Y-290086D01*
X-168220Y-289813D01*
X-168277Y-289578D01*
X-168305Y-289475D01*
X-168333Y-289381D01*
X-168361Y-289296D01*
X-168380Y-289221D01*
X-168399Y-289165D01*
X-168417Y-289127D01*
X-168427Y-289099D01*
Y-289089D01*
X-168540Y-288808D01*
X-168662Y-288573D01*
X-168784Y-288366D01*
X-168887Y-288187D01*
X-168981Y-288056D01*
X-169019Y-288009D01*
X-169057Y-287962D01*
X-169085Y-287934D01*
X-169104Y-287905D01*
X-169122Y-287887D01*
X-168126D01*
D02*
G37*
%LPD*%
G36*
X-169940Y-270632D02*
X-174752Y-272286D01*
Y-269044D01*
X-169940Y-270632D01*
D02*
G37*
G36*
X-171782Y-274081D02*
X-172055Y-274109D01*
X-172308Y-274147D01*
X-172553Y-274203D01*
X-172769Y-274269D01*
X-172976Y-274344D01*
X-173164Y-274419D01*
X-173323Y-274504D01*
X-173474Y-274588D01*
X-173605Y-274664D01*
X-173718Y-274739D01*
X-173812Y-274804D01*
X-173878Y-274851D01*
X-173934Y-274898D01*
X-173962Y-274927D01*
X-173972Y-274936D01*
X-174132Y-275105D01*
X-174272Y-275284D01*
X-174395Y-275472D01*
X-174498Y-275660D01*
X-174583Y-275857D01*
X-174658Y-276045D01*
X-174714Y-276233D01*
X-174761Y-276411D01*
X-174799Y-276581D01*
X-174827Y-276740D01*
X-174846Y-276881D01*
X-174865Y-277004D01*
Y-277098D01*
X-174874Y-277173D01*
Y-274071D01*
X-171491D01*
X-171782Y-274081D01*
D02*
G37*
G36*
X-171312Y-275434D02*
X-171115Y-275443D01*
X-170936Y-275472D01*
X-170776Y-275500D01*
X-170617Y-275537D01*
X-170476Y-275585D01*
X-170354Y-275632D01*
X-170241Y-275679D01*
X-170137Y-275725D01*
X-170053Y-275772D01*
X-169978Y-275810D01*
X-169912Y-275857D01*
X-169865Y-275885D01*
X-169837Y-275913D01*
X-169818Y-275923D01*
X-169808Y-275932D01*
X-169705Y-276026D01*
X-169620Y-276130D01*
X-169545Y-276242D01*
X-169480Y-276346D01*
X-169433Y-276458D01*
X-169386Y-276562D01*
X-169320Y-276769D01*
X-169273Y-276947D01*
X-169263Y-277022D01*
X-169254Y-277088D01*
X-169244Y-277145D01*
Y-277220D01*
X-169254Y-277361D01*
X-169273Y-277502D01*
X-169301Y-277633D01*
X-169338Y-277755D01*
X-169423Y-277981D01*
X-169536Y-278160D01*
X-169583Y-278244D01*
X-169639Y-278310D01*
X-169686Y-278376D01*
X-169733Y-278423D01*
X-169761Y-278460D01*
X-169790Y-278489D01*
X-169808Y-278507D01*
X-169818Y-278517D01*
X-169931Y-278601D01*
X-170053Y-278686D01*
X-170184Y-278752D01*
X-170325Y-278808D01*
X-170598Y-278902D01*
X-170870Y-278958D01*
X-171002Y-278977D01*
X-171115Y-278996D01*
X-171227Y-279005D01*
X-171322Y-279015D01*
X-171397Y-279024D01*
X-171453D01*
X-171491D01*
X-171500D01*
X-171707Y-279015D01*
X-171895Y-279005D01*
X-172073Y-278977D01*
X-172243Y-278949D01*
X-172393Y-278911D01*
X-172534Y-278874D01*
X-172656Y-278827D01*
X-172769Y-278780D01*
X-172872Y-278733D01*
X-172957Y-278686D01*
X-173022Y-278648D01*
X-173088Y-278611D01*
X-173135Y-278582D01*
X-173164Y-278554D01*
X-173182Y-278545D01*
X-173192Y-278535D01*
X-173295Y-278442D01*
X-173380Y-278338D01*
X-173455Y-278225D01*
X-173521Y-278122D01*
X-173577Y-278009D01*
X-173615Y-277896D01*
X-173690Y-277690D01*
X-173727Y-277502D01*
X-173737Y-277426D01*
X-173746Y-277351D01*
X-173756Y-277295D01*
Y-277220D01*
X-173746Y-277069D01*
X-173727Y-276928D01*
X-173709Y-276797D01*
X-173671Y-276675D01*
X-173577Y-276458D01*
X-173530Y-276355D01*
X-173483Y-276271D01*
X-173427Y-276186D01*
X-173380Y-276120D01*
X-173333Y-276064D01*
X-173286Y-276007D01*
X-173248Y-275970D01*
X-173229Y-275942D01*
X-173211Y-275932D01*
X-173201Y-275923D01*
X-173088Y-275838D01*
X-172966Y-275754D01*
X-172844Y-275688D01*
X-172703Y-275632D01*
X-172421Y-275547D01*
X-172148Y-275490D01*
X-172026Y-275462D01*
X-171904Y-275453D01*
X-171801Y-275443D01*
X-171707Y-275434D01*
X-171622Y-275425D01*
X-171566D01*
X-171528D01*
X-171519D01*
X-171312Y-275434D01*
D02*
G37*
G36*
X-172731Y-282708D02*
X-172637Y-282718D01*
X-172553Y-282746D01*
X-172477Y-282765D01*
X-172421Y-282793D01*
X-172383Y-282821D01*
X-172355Y-282830D01*
X-172346Y-282840D01*
X-172280Y-282896D01*
X-172224Y-282952D01*
X-172139Y-283075D01*
X-172111Y-283122D01*
X-172092Y-283169D01*
X-172073Y-283197D01*
Y-283206D01*
X-172064Y-283253D01*
X-172045Y-283328D01*
X-172036Y-283404D01*
X-172026Y-283488D01*
X-172017Y-283686D01*
X-172008Y-283883D01*
X-171998Y-284071D01*
Y-285349D01*
X-173652D01*
Y-283845D01*
X-173643Y-283761D01*
Y-283554D01*
X-173633Y-283469D01*
Y-283413D01*
X-173624Y-283385D01*
Y-283375D01*
X-173596Y-283263D01*
X-173558Y-283159D01*
X-173521Y-283075D01*
X-173474Y-283009D01*
X-173427Y-282952D01*
X-173398Y-282906D01*
X-173370Y-282887D01*
X-173361Y-282877D01*
X-173286Y-282821D01*
X-173192Y-282774D01*
X-173107Y-282746D01*
X-173022Y-282718D01*
X-172947Y-282708D01*
X-172891Y-282699D01*
X-172853D01*
X-172835D01*
X-172731Y-282708D01*
D02*
G37*
%LPC*%
G36*
X-217122Y94083D02*
Y91207D01*
X-225228D01*
Y94083D01*
X-226877D01*
Y86344D01*
X-217122D01*
Y94083D01*
D02*
G37*
G36*
Y85357D02*
X-226877D01*
X-218772D01*
Y79915D01*
X-221422D01*
Y84807D01*
X-223071D01*
Y79915D01*
X-225228D01*
Y85174D01*
X-226877D01*
Y77942D01*
X-217122D01*
Y85357D01*
D02*
G37*
G36*
X-219815Y76264D02*
X-227061D01*
X-219956D01*
X-220294Y76250D01*
X-220590Y76208D01*
X-220858Y76137D01*
X-221084Y76067D01*
X-221267Y75996D01*
X-221394Y75926D01*
X-221478Y75884D01*
X-221507Y75870D01*
X-221732Y75715D01*
X-221929Y75531D01*
X-222099Y75348D01*
X-222240Y75179D01*
X-222352Y75024D01*
X-222437Y74897D01*
X-222493Y74812D01*
X-222507Y74798D01*
Y74784D01*
X-222578Y74643D01*
X-222648Y74502D01*
X-222775Y74164D01*
X-222888Y73811D01*
X-223001Y73473D01*
X-223043Y73318D01*
X-223085Y73163D01*
X-223128Y73022D01*
X-223156Y72909D01*
X-223184Y72811D01*
X-223198Y72740D01*
X-223212Y72684D01*
Y72670D01*
X-223283Y72416D01*
X-223339Y72190D01*
X-223396Y71979D01*
X-223452Y71782D01*
X-223508Y71627D01*
X-223565Y71471D01*
X-223621Y71344D01*
X-223663Y71232D01*
X-223706Y71133D01*
X-223748Y71063D01*
X-223776Y70992D01*
X-223804Y70950D01*
X-223847Y70879D01*
X-223861Y70865D01*
X-223959Y70767D01*
X-224058Y70696D01*
X-224157Y70654D01*
X-224256Y70626D01*
X-224326Y70597D01*
X-224396Y70583D01*
X-224439D01*
X-224453D01*
X-224594Y70597D01*
X-224707Y70626D01*
X-224819Y70682D01*
X-224904Y70738D01*
X-224974Y70795D01*
X-225017Y70851D01*
X-225045Y70879D01*
X-225059Y70893D01*
X-225186Y71091D01*
X-225270Y71302D01*
X-225341Y71528D01*
X-225383Y71739D01*
X-225411Y71922D01*
X-225425Y72078D01*
Y72218D01*
X-225411Y72515D01*
X-225369Y72768D01*
X-225313Y72980D01*
X-225256Y73149D01*
X-225200Y73290D01*
X-225144Y73389D01*
X-225101Y73445D01*
X-225087Y73459D01*
X-224946Y73600D01*
X-224777Y73727D01*
X-224608Y73826D01*
X-224425Y73896D01*
X-224270Y73952D01*
X-224143Y73981D01*
X-224044Y74009D01*
X-224030D01*
X-224016D01*
X-224086Y75982D01*
X-224340Y75968D01*
X-224566Y75926D01*
X-224791Y75870D01*
X-224988Y75799D01*
X-225186Y75729D01*
X-225369Y75644D01*
X-225524Y75560D01*
X-225679Y75475D01*
X-225806Y75376D01*
X-225919Y75292D01*
X-226018Y75207D01*
X-226102Y75137D01*
X-226159Y75080D01*
X-226201Y75038D01*
X-226229Y75010D01*
X-226243Y74996D01*
X-226384Y74812D01*
X-226511Y74615D01*
X-226624Y74404D01*
X-226722Y74178D01*
X-226793Y73952D01*
X-226863Y73727D01*
X-226962Y73276D01*
X-226990Y73064D01*
X-227019Y72881D01*
X-227033Y72698D01*
X-227047Y72543D01*
X-227061Y72416D01*
Y72543D01*
Y68328D01*
Y72247D01*
X-227047Y71838D01*
X-227004Y71471D01*
X-226948Y71147D01*
X-226892Y70865D01*
X-226849Y70738D01*
X-226821Y70626D01*
X-226793Y70541D01*
X-226765Y70456D01*
X-226737Y70400D01*
X-226722Y70358D01*
X-226708Y70329D01*
Y70315D01*
X-226567Y70033D01*
X-226412Y69794D01*
X-226243Y69582D01*
X-226088Y69413D01*
X-225947Y69272D01*
X-225834Y69188D01*
X-225750Y69117D01*
X-225736Y69103D01*
X-225721D01*
X-225482Y68962D01*
X-225228Y68863D01*
X-224988Y68793D01*
X-224777Y68751D01*
X-224594Y68723D01*
X-224453Y68694D01*
X-224396D01*
X-224354D01*
X-224340D01*
X-224326D01*
X-224114Y68708D01*
X-223903Y68737D01*
X-223720Y68779D01*
X-223536Y68835D01*
X-223198Y68976D01*
X-222902Y69145D01*
X-222775Y69216D01*
X-222677Y69300D01*
X-222578Y69371D01*
X-222493Y69441D01*
X-222437Y69498D01*
X-222395Y69540D01*
X-222367Y69568D01*
X-222352Y69582D01*
X-222254Y69709D01*
X-222155Y69864D01*
X-222056Y70019D01*
X-221972Y70203D01*
X-221803Y70555D01*
X-221662Y70922D01*
X-221605Y71105D01*
X-221549Y71260D01*
X-221507Y71415D01*
X-221464Y71542D01*
X-221436Y71641D01*
X-221408Y71725D01*
X-221394Y71782D01*
Y71796D01*
X-221337Y72021D01*
X-221281Y72218D01*
X-221239Y72402D01*
X-221196Y72571D01*
X-221154Y72712D01*
X-221126Y72839D01*
X-221084Y72952D01*
X-221055Y73050D01*
X-221041Y73135D01*
X-221013Y73205D01*
X-220985Y73304D01*
X-220957Y73360D01*
Y73375D01*
X-220886Y73558D01*
X-220816Y73699D01*
X-220745Y73826D01*
X-220675Y73924D01*
X-220618Y73995D01*
X-220576Y74037D01*
X-220548Y74065D01*
X-220534Y74079D01*
X-220435Y74150D01*
X-220336Y74206D01*
X-220238Y74234D01*
X-220153Y74263D01*
X-220069Y74277D01*
X-219998Y74291D01*
X-219956D01*
X-219942D01*
X-219744Y74277D01*
X-219575Y74220D01*
X-219406Y74136D01*
X-219265Y74051D01*
X-219152Y73952D01*
X-219068Y73882D01*
X-219011Y73826D01*
X-218997Y73797D01*
X-218870Y73600D01*
X-218772Y73375D01*
X-218701Y73135D01*
X-218659Y72909D01*
X-218631Y72698D01*
X-218603Y72529D01*
Y72374D01*
X-218617Y72049D01*
X-218673Y71767D01*
X-218743Y71528D01*
X-218828Y71316D01*
X-218913Y71147D01*
X-218983Y71034D01*
X-219040Y70964D01*
X-219054Y70936D01*
X-219251Y70752D01*
X-219463Y70612D01*
X-219702Y70485D01*
X-219942Y70400D01*
X-220153Y70329D01*
X-220322Y70273D01*
X-220379Y70259D01*
X-220435D01*
X-220463Y70245D01*
X-220478D01*
X-220294Y68328D01*
X-219998Y68370D01*
X-219716Y68426D01*
X-219448Y68511D01*
X-219209Y68582D01*
X-218983Y68680D01*
X-218772Y68779D01*
X-218589Y68878D01*
X-218419Y68976D01*
X-218278Y69075D01*
X-218151Y69174D01*
X-218039Y69258D01*
X-217940Y69343D01*
X-217869Y69399D01*
X-217827Y69455D01*
X-217799Y69484D01*
X-217785Y69498D01*
X-217630Y69695D01*
X-217503Y69907D01*
X-217390Y70132D01*
X-217292Y70372D01*
X-217221Y70597D01*
X-217151Y70837D01*
X-217052Y71302D01*
X-217010Y71514D01*
X-216981Y71711D01*
X-216967Y71880D01*
X-216953Y72035D01*
X-216939Y72162D01*
Y72345D01*
X-216953Y72797D01*
X-216996Y73205D01*
X-217052Y73572D01*
X-217080Y73727D01*
X-217122Y73882D01*
X-217151Y74009D01*
X-217179Y74122D01*
X-217207Y74220D01*
X-217235Y74305D01*
X-217263Y74375D01*
X-217277Y74418D01*
X-217292Y74446D01*
Y74460D01*
X-217447Y74770D01*
X-217616Y75024D01*
X-217785Y75264D01*
X-217968Y75447D01*
X-218123Y75588D01*
X-218264Y75700D01*
X-218349Y75757D01*
X-218363Y75785D01*
X-218377D01*
X-218659Y75940D01*
X-218927Y76067D01*
X-219195Y76152D01*
X-219448Y76208D01*
X-219646Y76236D01*
X-219744Y76250D01*
X-219815Y76264D01*
D02*
G37*
G36*
X-217122Y67172D02*
X-226877D01*
X-218772D01*
Y61730D01*
X-221422D01*
Y66622D01*
X-223071D01*
Y61730D01*
X-225228D01*
Y66989D01*
X-226877D01*
Y59757D01*
X-217122D01*
Y67172D01*
D02*
G37*
G36*
Y58685D02*
X-219025Y57487D01*
X-219223Y57360D01*
X-219420Y57233D01*
X-219589Y57121D01*
X-219744Y57008D01*
X-219885Y56909D01*
X-220026Y56825D01*
X-220238Y56655D01*
X-220407Y56529D01*
X-220520Y56444D01*
X-220590Y56374D01*
X-220604Y56359D01*
X-220774Y56204D01*
X-220929Y56021D01*
X-221055Y55852D01*
X-221182Y55683D01*
X-221281Y55542D01*
X-221352Y55429D01*
X-221408Y55344D01*
X-221422Y55330D01*
Y55316D01*
X-221464Y55556D01*
X-221521Y55767D01*
X-221577Y55965D01*
X-221647Y56162D01*
X-221718Y56331D01*
X-221789Y56486D01*
X-221859Y56641D01*
X-221943Y56768D01*
X-222014Y56881D01*
X-222085Y56980D01*
X-222155Y57064D01*
X-222211Y57121D01*
X-222254Y57177D01*
X-222296Y57219D01*
X-222310Y57233D01*
X-222324Y57248D01*
X-222465Y57360D01*
X-222606Y57459D01*
X-222916Y57628D01*
X-223212Y57741D01*
X-223508Y57811D01*
X-223762Y57868D01*
X-223861Y57882D01*
X-223959D01*
X-224030Y57896D01*
X-224100D01*
X-224129D01*
X-224143D01*
X-224453Y57882D01*
X-224749Y57825D01*
X-225003Y57755D01*
X-225228Y57684D01*
X-225411Y57600D01*
X-225552Y57530D01*
X-225595Y57501D01*
X-225637Y57473D01*
X-225651Y57459D01*
X-225665D01*
X-225905Y57290D01*
X-226102Y57106D01*
X-226257Y56923D01*
X-226398Y56740D01*
X-226483Y56571D01*
X-226553Y56444D01*
X-226596Y56359D01*
X-226610Y56345D01*
Y56331D01*
X-226652Y56190D01*
X-226694Y56035D01*
X-226765Y55683D01*
X-226807Y55302D01*
X-226849Y54936D01*
Y54752D01*
X-226863Y54597D01*
Y54442D01*
X-226877Y54315D01*
Y49917D01*
X-217122D01*
Y51891D01*
X-221196D01*
Y52525D01*
X-221182Y52722D01*
X-221168Y52892D01*
X-221140Y53032D01*
X-221126Y53145D01*
X-221098Y53216D01*
X-221084Y53258D01*
Y53272D01*
X-221027Y53385D01*
X-220971Y53498D01*
X-220900Y53596D01*
X-220844Y53695D01*
X-220774Y53766D01*
X-220717Y53822D01*
X-220689Y53850D01*
X-220675Y53864D01*
X-220604Y53921D01*
X-220534Y53991D01*
X-220322Y54146D01*
X-220097Y54315D01*
X-219843Y54499D01*
X-219618Y54654D01*
X-219505Y54724D01*
X-219420Y54781D01*
X-219350Y54837D01*
X-219293Y54879D01*
X-219251Y54893D01*
X-219237Y54907D01*
X-217122Y56317D01*
Y56190D01*
Y58685D01*
D02*
G37*
%LPD*%
G36*
Y86344D02*
X-225228D01*
Y89234D01*
X-217122D01*
Y86344D01*
D02*
G37*
G36*
X-223847Y55852D02*
X-223706Y55838D01*
X-223579Y55795D01*
X-223466Y55767D01*
X-223381Y55725D01*
X-223325Y55683D01*
X-223283Y55669D01*
X-223269Y55655D01*
X-223170Y55570D01*
X-223085Y55485D01*
X-222959Y55302D01*
X-222916Y55232D01*
X-222888Y55161D01*
X-222860Y55119D01*
Y55105D01*
X-222846Y55034D01*
X-222818Y54921D01*
X-222803Y54809D01*
X-222789Y54682D01*
X-222775Y54386D01*
X-222761Y54090D01*
X-222747Y53808D01*
Y51891D01*
X-225228D01*
Y54146D01*
X-225214Y54273D01*
Y54583D01*
X-225200Y54710D01*
Y54795D01*
X-225186Y54837D01*
Y54851D01*
X-225144Y55020D01*
X-225087Y55175D01*
X-225031Y55302D01*
X-224960Y55401D01*
X-224890Y55485D01*
X-224848Y55556D01*
X-224805Y55584D01*
X-224791Y55598D01*
X-224678Y55683D01*
X-224537Y55753D01*
X-224410Y55795D01*
X-224284Y55838D01*
X-224171Y55852D01*
X-224086Y55866D01*
X-224030D01*
X-224002D01*
X-223847Y55852D01*
D02*
G37*
%LPC*%
G36*
X-256003Y-58225D02*
X-265997D01*
X-261049D01*
X-261529Y-58239D01*
X-261966Y-58268D01*
X-262374Y-58310D01*
X-262755Y-58380D01*
X-263093Y-58451D01*
X-263403Y-58521D01*
X-263685Y-58620D01*
X-263939Y-58705D01*
X-264151Y-58789D01*
X-264334Y-58874D01*
X-264489Y-58958D01*
X-264616Y-59029D01*
X-264715Y-59099D01*
X-264785Y-59142D01*
X-264827Y-59170D01*
X-264841Y-59184D01*
X-265039Y-59367D01*
X-265222Y-59565D01*
X-265377Y-59762D01*
X-265504Y-59959D01*
X-265617Y-60171D01*
X-265715Y-60368D01*
X-265786Y-60566D01*
X-265856Y-60763D01*
X-265899Y-60932D01*
X-265941Y-61101D01*
X-265969Y-61242D01*
X-265983Y-61369D01*
Y-61482D01*
X-265997Y-61552D01*
Y-61425D01*
Y-64738D01*
Y-61623D01*
X-265983Y-61877D01*
X-265955Y-62102D01*
X-265913Y-62328D01*
X-265856Y-62539D01*
X-265786Y-62736D01*
X-265701Y-62920D01*
X-265631Y-63103D01*
X-265546Y-63244D01*
X-265448Y-63385D01*
X-265377Y-63512D01*
X-265292Y-63610D01*
X-265222Y-63709D01*
X-265166Y-63780D01*
X-265123Y-63822D01*
X-265095Y-63850D01*
X-265081Y-63864D01*
X-264898Y-64019D01*
X-264715Y-64146D01*
X-264517Y-64273D01*
X-264320Y-64372D01*
X-264122Y-64456D01*
X-263911Y-64527D01*
X-263530Y-64625D01*
X-263361Y-64668D01*
X-263192Y-64696D01*
X-263051Y-64710D01*
X-262924Y-64724D01*
X-262811Y-64738D01*
X-262670D01*
X-262417Y-64724D01*
X-262163Y-64696D01*
X-261923Y-64668D01*
X-261712Y-64611D01*
X-261500Y-64541D01*
X-261317Y-64470D01*
X-261134Y-64400D01*
X-260979Y-64315D01*
X-260838Y-64245D01*
X-260711Y-64174D01*
X-260612Y-64104D01*
X-260514Y-64033D01*
X-260457Y-63977D01*
X-260401Y-63949D01*
X-260373Y-63921D01*
X-260359Y-63906D01*
X-260203Y-63751D01*
X-260063Y-63582D01*
X-259950Y-63413D01*
X-259851Y-63244D01*
X-259766Y-63075D01*
X-259682Y-62920D01*
X-259583Y-62610D01*
X-259513Y-62342D01*
X-259499Y-62229D01*
X-259485Y-62130D01*
X-259470Y-62046D01*
Y-61933D01*
X-259485Y-61736D01*
X-259513Y-61552D01*
X-259541Y-61383D01*
X-259597Y-61214D01*
X-259724Y-60904D01*
X-259879Y-60650D01*
X-260034Y-60453D01*
X-260105Y-60368D01*
X-260161Y-60298D01*
X-260217Y-60241D01*
X-260260Y-60199D01*
X-260274Y-60185D01*
X-260288Y-60171D01*
X-259992Y-60199D01*
X-259710Y-60227D01*
X-259456Y-60255D01*
X-259231Y-60298D01*
X-259033Y-60340D01*
X-258850Y-60382D01*
X-258695Y-60424D01*
X-258554Y-60467D01*
X-258427Y-60523D01*
X-258328Y-60551D01*
X-258244Y-60594D01*
X-258188Y-60622D01*
X-258131Y-60650D01*
X-258103Y-60678D01*
X-258075Y-60692D01*
X-257906Y-60847D01*
X-257779Y-61017D01*
X-257680Y-61172D01*
X-257624Y-61327D01*
X-257581Y-61468D01*
X-257567Y-61566D01*
X-257553Y-61637D01*
Y-61665D01*
X-257567Y-61820D01*
X-257596Y-61975D01*
X-257638Y-62088D01*
X-257680Y-62201D01*
X-257722Y-62285D01*
X-257765Y-62342D01*
X-257793Y-62384D01*
X-257807Y-62398D01*
X-257920Y-62497D01*
X-258047Y-62567D01*
X-258188Y-62624D01*
X-258328Y-62666D01*
X-258441Y-62708D01*
X-258540Y-62722D01*
X-258610Y-62736D01*
X-258639D01*
X-258427Y-64541D01*
X-258202Y-64499D01*
X-258004Y-64442D01*
X-257807Y-64386D01*
X-257638Y-64315D01*
X-257469Y-64245D01*
X-257314Y-64174D01*
X-257187Y-64090D01*
X-257060Y-64019D01*
X-256961Y-63935D01*
X-256863Y-63878D01*
X-256792Y-63808D01*
X-256721Y-63751D01*
X-256679Y-63709D01*
X-256637Y-63667D01*
X-256623Y-63653D01*
X-256609Y-63639D01*
X-256496Y-63498D01*
X-256411Y-63357D01*
X-256256Y-63047D01*
X-256158Y-62751D01*
X-256073Y-62455D01*
X-256031Y-62187D01*
X-256017Y-62074D01*
Y-61975D01*
X-256003Y-61905D01*
Y-61792D01*
X-256017Y-61496D01*
X-256059Y-61228D01*
X-256115Y-60974D01*
X-256186Y-60721D01*
X-256285Y-60495D01*
X-256383Y-60283D01*
X-256482Y-60086D01*
X-256595Y-59917D01*
X-256707Y-59762D01*
X-256806Y-59621D01*
X-256919Y-59508D01*
X-257003Y-59409D01*
X-257074Y-59325D01*
X-257130Y-59269D01*
X-257173Y-59240D01*
X-257187Y-59226D01*
X-257426Y-59043D01*
X-257694Y-58902D01*
X-257990Y-58761D01*
X-258286Y-58648D01*
X-258610Y-58550D01*
X-258935Y-58465D01*
X-259245Y-58409D01*
X-259569Y-58352D01*
X-259865Y-58310D01*
X-260133Y-58282D01*
X-260387Y-58254D01*
X-260612Y-58239D01*
X-260795Y-58225D01*
X-256003D01*
D02*
G37*
G36*
X-256186Y-65852D02*
X-265941D01*
X-260965D01*
X-261458Y-65866D01*
X-261895Y-65908D01*
X-262106Y-65922D01*
X-262290Y-65950D01*
X-262473Y-65979D01*
X-262628Y-66007D01*
X-262769Y-66049D01*
X-262896Y-66077D01*
X-263009Y-66106D01*
X-263093Y-66120D01*
X-263164Y-66148D01*
X-263220Y-66162D01*
X-263248Y-66176D01*
X-263263D01*
X-263601Y-66303D01*
X-263911Y-66458D01*
X-264179Y-66613D01*
X-264404Y-66768D01*
X-264588Y-66895D01*
X-264729Y-67008D01*
X-264813Y-67078D01*
X-264841Y-67092D01*
Y-67106D01*
X-265067Y-67346D01*
X-265250Y-67586D01*
X-265405Y-67839D01*
X-265532Y-68065D01*
X-265631Y-68262D01*
X-265701Y-68432D01*
X-265715Y-68488D01*
X-265730Y-68530D01*
X-265744Y-68559D01*
Y-68573D01*
X-265814Y-68840D01*
X-265856Y-69137D01*
X-265899Y-69447D01*
X-265913Y-69743D01*
X-265927Y-70010D01*
X-265941Y-70123D01*
Y-70010D01*
Y-74014D01*
X-256186D01*
Y-70321D01*
X-256200Y-69940D01*
X-256214Y-69588D01*
X-256242Y-69292D01*
X-256285Y-69052D01*
X-256327Y-68854D01*
X-256355Y-68699D01*
X-256369Y-68657D01*
Y-68615D01*
X-256383Y-68601D01*
Y-68587D01*
X-256496Y-68277D01*
X-256623Y-67995D01*
X-256750Y-67769D01*
X-256877Y-67572D01*
X-256989Y-67417D01*
X-257074Y-67304D01*
X-257130Y-67233D01*
X-257159Y-67205D01*
X-257426Y-66965D01*
X-257708Y-66754D01*
X-258004Y-66571D01*
X-258272Y-66430D01*
X-258526Y-66317D01*
X-258625Y-66261D01*
X-258709Y-66233D01*
X-258794Y-66204D01*
X-258850Y-66176D01*
X-258878Y-66162D01*
X-258892D01*
X-259231Y-66063D01*
X-259583Y-65979D01*
X-259921Y-65922D01*
X-260246Y-65894D01*
X-260401Y-65880D01*
X-260542Y-65866D01*
X-260655D01*
X-260767Y-65852D01*
X-256186D01*
D02*
G37*
G36*
X-258794Y-75114D02*
X-260669D01*
Y-78793D01*
X-258794D01*
Y-75114D01*
D02*
G37*
G36*
X-256186Y-80231D02*
X-265941D01*
X-260965D01*
X-261458Y-80245D01*
X-261895Y-80287D01*
X-262106Y-80301D01*
X-262290Y-80330D01*
X-262473Y-80358D01*
X-262628Y-80386D01*
X-262769Y-80428D01*
X-262896Y-80456D01*
X-263009Y-80485D01*
X-263093Y-80499D01*
X-263164Y-80527D01*
X-263220Y-80541D01*
X-263248Y-80555D01*
X-263263D01*
X-263601Y-80682D01*
X-263911Y-80837D01*
X-264179Y-80992D01*
X-264404Y-81147D01*
X-264588Y-81274D01*
X-264729Y-81387D01*
X-264813Y-81457D01*
X-264841Y-81471D01*
Y-81485D01*
X-265067Y-81725D01*
X-265250Y-81965D01*
X-265405Y-82219D01*
X-265532Y-82444D01*
X-265631Y-82641D01*
X-265701Y-82811D01*
X-265715Y-82867D01*
X-265730Y-82909D01*
X-265744Y-82937D01*
Y-82951D01*
X-265814Y-83219D01*
X-265856Y-83515D01*
X-265899Y-83826D01*
X-265913Y-84122D01*
X-265927Y-84389D01*
X-265941Y-84502D01*
Y-84389D01*
Y-88393D01*
X-256186D01*
Y-84700D01*
X-256200Y-84319D01*
X-256214Y-83967D01*
X-256242Y-83671D01*
X-256285Y-83431D01*
X-256327Y-83233D01*
X-256355Y-83078D01*
X-256369Y-83036D01*
Y-82994D01*
X-256383Y-82980D01*
Y-82966D01*
X-256496Y-82655D01*
X-256623Y-82374D01*
X-256750Y-82148D01*
X-256877Y-81951D01*
X-256989Y-81796D01*
X-257074Y-81683D01*
X-257130Y-81612D01*
X-257159Y-81584D01*
X-257426Y-81344D01*
X-257708Y-81133D01*
X-258004Y-80950D01*
X-258272Y-80809D01*
X-258526Y-80696D01*
X-258625Y-80640D01*
X-258709Y-80611D01*
X-258794Y-80583D01*
X-258850Y-80555D01*
X-258878Y-80541D01*
X-258892D01*
X-259231Y-80442D01*
X-259583Y-80358D01*
X-259921Y-80301D01*
X-260246Y-80273D01*
X-260401Y-80259D01*
X-260542Y-80245D01*
X-260655D01*
X-260767Y-80231D01*
X-256186D01*
D02*
G37*
G36*
Y-90070D02*
X-265941D01*
Y-97486D01*
X-256186D01*
Y-90070D01*
D02*
G37*
G36*
Y-98895D02*
X-265870D01*
Y-105775D01*
X-256186D01*
Y-98895D01*
D02*
G37*
%LPD*%
G36*
X-262219Y-60340D02*
X-261966Y-60382D01*
X-261754Y-60453D01*
X-261571Y-60509D01*
X-261444Y-60580D01*
X-261345Y-60650D01*
X-261275Y-60692D01*
X-261261Y-60707D01*
X-261120Y-60847D01*
X-261021Y-61002D01*
X-260937Y-61158D01*
X-260894Y-61298D01*
X-260866Y-61425D01*
X-260852Y-61524D01*
X-260838Y-61581D01*
Y-61609D01*
X-260852Y-61806D01*
X-260908Y-61989D01*
X-260979Y-62144D01*
X-261063Y-62285D01*
X-261134Y-62398D01*
X-261204Y-62469D01*
X-261261Y-62525D01*
X-261275Y-62539D01*
X-261458Y-62666D01*
X-261684Y-62751D01*
X-261909Y-62821D01*
X-262149Y-62863D01*
X-262346Y-62892D01*
X-262515Y-62906D01*
X-262586D01*
X-262628D01*
X-262656D01*
X-262670D01*
X-262995Y-62892D01*
X-263277Y-62849D01*
X-263516Y-62793D01*
X-263699Y-62736D01*
X-263841Y-62680D01*
X-263939Y-62624D01*
X-264010Y-62581D01*
X-264024Y-62567D01*
X-264165Y-62426D01*
X-264263Y-62285D01*
X-264348Y-62144D01*
X-264390Y-62003D01*
X-264418Y-61891D01*
X-264447Y-61792D01*
Y-61707D01*
X-264418Y-61510D01*
X-264362Y-61327D01*
X-264292Y-61158D01*
X-264193Y-61017D01*
X-264094Y-60904D01*
X-264024Y-60819D01*
X-263967Y-60763D01*
X-263939Y-60749D01*
X-263728Y-60608D01*
X-263502Y-60509D01*
X-263263Y-60424D01*
X-263037Y-60382D01*
X-262826Y-60354D01*
X-262670Y-60326D01*
X-262600D01*
X-262558D01*
X-262529D01*
X-262515D01*
X-262219Y-60340D01*
D02*
G37*
G36*
X-260655Y-67896D02*
X-260288Y-67910D01*
X-259992Y-67952D01*
X-259738Y-67980D01*
X-259527Y-68023D01*
X-259442Y-68037D01*
X-259386Y-68065D01*
X-259329Y-68079D01*
X-259287D01*
X-259273Y-68093D01*
X-259259D01*
X-259033Y-68178D01*
X-258836Y-68248D01*
X-258681Y-68347D01*
X-258554Y-68418D01*
X-258455Y-68488D01*
X-258385Y-68544D01*
X-258343Y-68587D01*
X-258328Y-68601D01*
X-258230Y-68728D01*
X-258145Y-68854D01*
X-258075Y-68981D01*
X-258018Y-69108D01*
X-257976Y-69221D01*
X-257948Y-69306D01*
X-257920Y-69362D01*
Y-69390D01*
X-257892Y-69545D01*
X-257877Y-69728D01*
X-257849Y-69926D01*
Y-70123D01*
X-257835Y-70307D01*
Y-72040D01*
X-264292D01*
Y-70758D01*
X-264277Y-70574D01*
Y-70405D01*
X-264263Y-70264D01*
Y-70137D01*
X-264249Y-70010D01*
Y-69912D01*
X-264221Y-69757D01*
X-264207Y-69644D01*
X-264193Y-69573D01*
Y-69559D01*
X-264137Y-69362D01*
X-264066Y-69193D01*
X-263995Y-69038D01*
X-263911Y-68897D01*
X-263841Y-68798D01*
X-263784Y-68714D01*
X-263742Y-68671D01*
X-263728Y-68657D01*
X-263587Y-68530D01*
X-263432Y-68418D01*
X-263277Y-68319D01*
X-263136Y-68234D01*
X-262995Y-68178D01*
X-262882Y-68136D01*
X-262811Y-68107D01*
X-262797Y-68093D01*
X-262783D01*
X-262529Y-68023D01*
X-262262Y-67966D01*
X-261966Y-67938D01*
X-261684Y-67910D01*
X-261444Y-67896D01*
X-261331Y-67882D01*
X-261232D01*
X-261162D01*
X-261106D01*
X-261063D01*
X-261049D01*
X-260655Y-67896D01*
D02*
G37*
G36*
Y-82275D02*
X-260288Y-82289D01*
X-259992Y-82331D01*
X-259738Y-82359D01*
X-259527Y-82402D01*
X-259442Y-82416D01*
X-259386Y-82444D01*
X-259329Y-82458D01*
X-259287D01*
X-259273Y-82472D01*
X-259259D01*
X-259033Y-82557D01*
X-258836Y-82627D01*
X-258681Y-82726D01*
X-258554Y-82796D01*
X-258455Y-82867D01*
X-258385Y-82923D01*
X-258343Y-82966D01*
X-258328Y-82980D01*
X-258230Y-83107D01*
X-258145Y-83233D01*
X-258075Y-83360D01*
X-258018Y-83487D01*
X-257976Y-83600D01*
X-257948Y-83685D01*
X-257920Y-83741D01*
Y-83769D01*
X-257892Y-83924D01*
X-257877Y-84108D01*
X-257849Y-84305D01*
Y-84502D01*
X-257835Y-84685D01*
Y-86419D01*
X-264292D01*
Y-85137D01*
X-264277Y-84953D01*
Y-84784D01*
X-264263Y-84643D01*
Y-84516D01*
X-264249Y-84389D01*
Y-84291D01*
X-264221Y-84136D01*
X-264207Y-84023D01*
X-264193Y-83952D01*
Y-83938D01*
X-264137Y-83741D01*
X-264066Y-83572D01*
X-263995Y-83417D01*
X-263911Y-83276D01*
X-263841Y-83177D01*
X-263784Y-83092D01*
X-263742Y-83050D01*
X-263728Y-83036D01*
X-263587Y-82909D01*
X-263432Y-82796D01*
X-263277Y-82698D01*
X-263136Y-82613D01*
X-262995Y-82557D01*
X-262882Y-82514D01*
X-262811Y-82486D01*
X-262797Y-82472D01*
X-262783D01*
X-262529Y-82402D01*
X-262262Y-82345D01*
X-261966Y-82317D01*
X-261684Y-82289D01*
X-261444Y-82275D01*
X-261331Y-82261D01*
X-261232D01*
X-261162D01*
X-261106D01*
X-261063D01*
X-261049D01*
X-260655Y-82275D01*
D02*
G37*
G36*
X-257835Y-95512D02*
X-260485D01*
Y-90620D01*
X-262135D01*
Y-95512D01*
X-264292D01*
Y-90254D01*
X-265941D01*
Y-90070D01*
X-257835D01*
Y-95512D01*
D02*
G37*
G36*
Y-103801D02*
X-265870D01*
Y-98895D01*
X-257835D01*
Y-103801D01*
D02*
G37*
%LPC*%
G36*
X195210Y-157752D02*
Y-161351D01*
X195201Y-161229D01*
X195182Y-161126D01*
X195163Y-161032D01*
X195154Y-160947D01*
X195135Y-160891D01*
X195126Y-160853D01*
Y-160844D01*
X195098Y-160740D01*
X195060Y-160646D01*
X195022Y-160571D01*
X194994Y-160505D01*
X194966Y-160449D01*
X194938Y-160411D01*
X194928Y-160383D01*
X194919Y-160374D01*
X194806Y-160233D01*
X194693Y-160129D01*
X194637Y-160092D01*
X194599Y-160064D01*
X194571Y-160045D01*
X194562Y-160035D01*
X194468Y-159979D01*
X194374Y-159923D01*
X194270Y-159866D01*
X194167Y-159819D01*
X194073Y-159782D01*
X193998Y-159744D01*
X193951Y-159725D01*
X193932Y-159716D01*
X193124Y-159415D01*
X188575Y-157752D01*
Y-159039D01*
X191930Y-160148D01*
X188575Y-161266D01*
Y-162545D01*
D01*
Y-162592D01*
X193302Y-160806D01*
X193444Y-160853D01*
X193566Y-160900D01*
X193678Y-160956D01*
X193772Y-161003D01*
X193848Y-161050D01*
X193904Y-161088D01*
X193942Y-161116D01*
X193951Y-161126D01*
X194036Y-161210D01*
X194101Y-161313D01*
X194148Y-161417D01*
X194177Y-161520D01*
X194195Y-161614D01*
X194214Y-161689D01*
Y-161765D01*
X194205Y-161943D01*
X194195Y-162037D01*
X194177Y-162112D01*
X194167Y-162188D01*
X194158Y-162244D01*
X194148Y-162281D01*
Y-162291D01*
X195126Y-162178D01*
X195173Y-161924D01*
X195191Y-161812D01*
X195201Y-161699D01*
Y-161614D01*
X195210Y-161539D01*
Y-162592D01*
X193293D01*
Y-164340D01*
X191846D01*
X191630D01*
X191432D01*
X191254Y-164330D01*
X191094Y-164321D01*
X190944D01*
X190821Y-164312D01*
X190699Y-164302D01*
X190605Y-164293D01*
X190521Y-164283D01*
X190445Y-164274D01*
X190389Y-164265D01*
X190342D01*
X190314Y-164255D01*
X190286Y-164246D01*
X190267D01*
X190135Y-164208D01*
X190023Y-164161D01*
X189929Y-164114D01*
X189863Y-164067D01*
X189806Y-164030D01*
X189769Y-163992D01*
X189750Y-163973D01*
X189741Y-163964D01*
X189694Y-163888D01*
X189656Y-163813D01*
X189628Y-163738D01*
X189609Y-163672D01*
X189600Y-163616D01*
X189590Y-163560D01*
Y-163522D01*
X189600Y-163419D01*
X189618Y-163315D01*
X189656Y-163221D01*
X189694Y-163127D01*
X189731Y-163052D01*
X189769Y-162996D01*
X189788Y-162949D01*
X189797Y-162939D01*
X188716Y-162545D01*
D01*
D01*
D01*
X188690Y-162592D01*
X188632Y-162695D01*
X188575Y-162836D01*
X188528Y-162977D01*
X188500Y-163109D01*
X188481Y-163212D01*
X188472Y-163297D01*
Y-163372D01*
X188481Y-163484D01*
X188491Y-163578D01*
X188519Y-163672D01*
X188547Y-163748D01*
X188575Y-163813D01*
X188594Y-163870D01*
X188613Y-163898D01*
X188622Y-163907D01*
X188688Y-164001D01*
X188782Y-164086D01*
X188885Y-164180D01*
X188989Y-164255D01*
X189092Y-164330D01*
X189177Y-164387D01*
X189233Y-164424D01*
X189243Y-164434D01*
X188575D01*
Y-165590D01*
X193293D01*
Y-162592D01*
X195210D01*
Y-157752D01*
D02*
G37*
G36*
X188575Y-162545D02*
X188472D01*
D01*
X188575D01*
D02*
G37*
G36*
X193396Y-166558D02*
X188472D01*
Y-170956D01*
D01*
Y-168804D01*
X188481Y-168973D01*
X188500Y-169133D01*
X188538Y-169292D01*
X188575Y-169433D01*
X188622Y-169574D01*
X188679Y-169697D01*
X188745Y-169819D01*
X188801Y-169922D01*
X188867Y-170016D01*
X188932Y-170101D01*
X188989Y-170176D01*
X189036Y-170232D01*
X189073Y-170279D01*
X189111Y-170317D01*
X189130Y-170336D01*
X189139Y-170345D01*
X189271Y-170448D01*
X189412Y-170542D01*
X189553Y-170627D01*
X189703Y-170702D01*
X189863Y-170758D01*
X190013Y-170805D01*
X190305Y-170881D01*
X190445Y-170909D01*
X190568Y-170928D01*
X190681Y-170937D01*
X190774Y-170946D01*
X190859Y-170956D01*
X190972D01*
X191150Y-170946D01*
X191329Y-170937D01*
X191489Y-170909D01*
X191639Y-170881D01*
X191789Y-170853D01*
X191921Y-170805D01*
X192043Y-170768D01*
X192156Y-170721D01*
X192259Y-170683D01*
X192344Y-170636D01*
X192419Y-170599D01*
X192485Y-170571D01*
X192532Y-170533D01*
X192570Y-170514D01*
X192588Y-170505D01*
X192598Y-170495D01*
X192739Y-170373D01*
X192861Y-170251D01*
X192964Y-170110D01*
X193058Y-169960D01*
X193133Y-169809D01*
X193199Y-169659D01*
X193256Y-169509D01*
X193293Y-169358D01*
X193331Y-169227D01*
X193349Y-169095D01*
X193368Y-168973D01*
X193387Y-168869D01*
Y-168785D01*
X193396Y-168729D01*
Y-168672D01*
X193378Y-168400D01*
X193340Y-168146D01*
X193284Y-167930D01*
X193218Y-167742D01*
X193180Y-167657D01*
X193152Y-167591D01*
X193124Y-167526D01*
X193096Y-167479D01*
X193068Y-167441D01*
X193058Y-167403D01*
X193039Y-167394D01*
Y-167385D01*
X192889Y-167206D01*
X192729Y-167046D01*
X192551Y-166915D01*
X192381Y-166811D01*
X192231Y-166727D01*
X192165Y-166698D01*
X192109Y-166670D01*
X192062Y-166652D01*
X192024Y-166633D01*
X192006Y-166623D01*
X191996D01*
X191789Y-167864D01*
X191912Y-167911D01*
X192024Y-167958D01*
X192109Y-168005D01*
X192184Y-168061D01*
X192241Y-168099D01*
X192278Y-168136D01*
X192297Y-168165D01*
X192306Y-168174D01*
X192363Y-168249D01*
X192400Y-168334D01*
X192428Y-168418D01*
X192447Y-168494D01*
X192457Y-168559D01*
X192466Y-168616D01*
Y-168663D01*
X192457Y-168813D01*
X192419Y-168954D01*
X192372Y-169086D01*
X192316Y-169189D01*
X192259Y-169274D01*
X192212Y-169330D01*
X192175Y-169377D01*
X192165Y-169386D01*
X192043Y-169480D01*
X191902Y-169546D01*
X191752Y-169603D01*
X191620Y-169640D01*
X191489Y-169659D01*
X191395Y-169668D01*
X191357Y-169678D01*
X191329D01*
X191310D01*
X191301D01*
Y-166558D01*
X193396D01*
D02*
G37*
G36*
Y-171351D02*
D01*
Y-172337D01*
X193387Y-172140D01*
X193368Y-171952D01*
X193340Y-171783D01*
X193302Y-171642D01*
X193274Y-171520D01*
X193246Y-171426D01*
X193227Y-171369D01*
X193218Y-171360D01*
Y-171351D01*
X192250Y-171463D01*
X192288Y-171576D01*
X192316Y-171679D01*
X192334Y-171764D01*
X192344Y-171839D01*
X192353Y-171896D01*
X192363Y-171933D01*
Y-171971D01*
X192353Y-172055D01*
X192334Y-172121D01*
X192316Y-172159D01*
X192306Y-172178D01*
X192250Y-172234D01*
X192203Y-172262D01*
X192165Y-172281D01*
X192147Y-172290D01*
X192128D01*
X192090Y-172300D01*
X192006D01*
X191893D01*
X191780Y-172309D01*
X191667D01*
X191573D01*
X191536D01*
X191507D01*
X191489D01*
X191479D01*
X189571D01*
Y-171454D01*
X188575D01*
Y-172309D01*
X186903D01*
X187635Y-173559D01*
X188575D01*
Y-174132D01*
X186903D01*
X193396D01*
Y-171351D01*
D02*
G37*
G36*
Y-174377D02*
D01*
Y-175364D01*
X193387Y-175166D01*
X193368Y-174978D01*
X193340Y-174809D01*
X193302Y-174668D01*
X193274Y-174546D01*
X193246Y-174452D01*
X193227Y-174396D01*
X193218Y-174386D01*
Y-174377D01*
X192250Y-174489D01*
X192288Y-174602D01*
X192316Y-174706D01*
X192334Y-174790D01*
X192344Y-174865D01*
X192353Y-174922D01*
X192363Y-174959D01*
Y-174997D01*
X192353Y-175082D01*
X192334Y-175147D01*
X192316Y-175185D01*
X192306Y-175204D01*
X192250Y-175260D01*
X192203Y-175288D01*
X192165Y-175307D01*
X192147Y-175317D01*
X192128D01*
X192090Y-175326D01*
X192006D01*
X191893D01*
X191780Y-175335D01*
X191667D01*
X191573D01*
X191536D01*
X191507D01*
X191489D01*
X191479D01*
X189571D01*
Y-174480D01*
X188575D01*
Y-175335D01*
X186903D01*
X187635Y-176585D01*
X188575D01*
Y-177159D01*
X186903D01*
X193396D01*
Y-174377D01*
D02*
G37*
G36*
X193293Y-177610D02*
X188472D01*
D01*
X193293D01*
D02*
G37*
G36*
D02*
X193171Y-177666D01*
X193058Y-177713D01*
X192955Y-177751D01*
X192861Y-177788D01*
X192786Y-177807D01*
X192720Y-177826D01*
X192682Y-177835D01*
X192673D01*
X192551Y-177854D01*
X192400Y-177863D01*
X192250Y-177882D01*
X192100D01*
X191968Y-177892D01*
X191855D01*
X191808D01*
X191780D01*
X191761D01*
X191752D01*
X190295Y-177873D01*
X190145D01*
X190013Y-177882D01*
X189891Y-177892D01*
X189778Y-177901D01*
X189675Y-177910D01*
X189581Y-177929D01*
X189496Y-177939D01*
X189431Y-177957D01*
X189365Y-177976D01*
X189318Y-177985D01*
X189233Y-178014D01*
X189196Y-178032D01*
X189177Y-178042D01*
X189073Y-178117D01*
X188970Y-178202D01*
X188885Y-178296D01*
X188810Y-178399D01*
X188754Y-178484D01*
X188716Y-178559D01*
X188688Y-178606D01*
X188679Y-178615D01*
Y-178625D01*
X188641Y-178709D01*
X188613Y-178794D01*
X188556Y-178991D01*
X188519Y-179198D01*
X188500Y-179395D01*
X188481Y-179583D01*
Y-179658D01*
X188472Y-179724D01*
Y-180034D01*
X188491Y-180185D01*
X188500Y-180335D01*
X188528Y-180467D01*
X188547Y-180598D01*
X188575Y-180711D01*
X188613Y-180814D01*
X188641Y-180908D01*
X188669Y-180984D01*
X188707Y-181059D01*
X188735Y-181115D01*
X188754Y-181171D01*
X188782Y-181209D01*
X188792Y-181237D01*
X188810Y-181247D01*
Y-181256D01*
X188951Y-181416D01*
X189111Y-181547D01*
X189280Y-181660D01*
X189440Y-181754D01*
X189590Y-181820D01*
X189656Y-181848D01*
X189713Y-181867D01*
X189760Y-181886D01*
X189797Y-181895D01*
X189816Y-181905D01*
X189825D01*
X190032Y-180786D01*
X189919Y-180739D01*
X189825Y-180692D01*
X189741Y-180645D01*
X189675Y-180589D01*
X189628Y-180551D01*
X189600Y-180514D01*
X189581Y-180495D01*
X189571Y-180485D01*
X189524Y-180410D01*
X189487Y-180326D01*
X189468Y-180232D01*
X189449Y-180147D01*
X189440Y-180072D01*
X189431Y-180016D01*
Y-179959D01*
X189440Y-179790D01*
X189459Y-179649D01*
X189478Y-179536D01*
X189506Y-179442D01*
X189543Y-179377D01*
X189562Y-179329D01*
X189581Y-179301D01*
X189590Y-179292D01*
X189656Y-179226D01*
X189731Y-179179D01*
X189816Y-179151D01*
X189900Y-179123D01*
X189985Y-179113D01*
X190051Y-179104D01*
X190088D01*
X190107D01*
X190229D01*
X190258Y-179170D01*
X190286Y-179254D01*
X190342Y-179433D01*
X190389Y-179640D01*
X190436Y-179837D01*
X190483Y-180025D01*
X190502Y-180110D01*
X190511Y-180185D01*
X190521Y-180241D01*
X190530Y-180288D01*
X190539Y-180316D01*
Y-180326D01*
X190586Y-180551D01*
X190634Y-180758D01*
X190681Y-180927D01*
X190728Y-181068D01*
X190774Y-181181D01*
X190803Y-181256D01*
X190821Y-181303D01*
X190831Y-181322D01*
X190897Y-181444D01*
X190972Y-181547D01*
X191056Y-181641D01*
X191132Y-181707D01*
X191197Y-181773D01*
X191254Y-181810D01*
X191291Y-181839D01*
X191310Y-181848D01*
X191432Y-181914D01*
X191555Y-181961D01*
X191667Y-181989D01*
X191780Y-182008D01*
X191874Y-182027D01*
X191949Y-182036D01*
X192015D01*
X192128Y-182027D01*
X192231Y-182017D01*
X192428Y-181970D01*
X192598Y-181905D01*
X192739Y-181829D01*
X192851Y-181754D01*
X192936Y-181688D01*
X192992Y-181641D01*
X193002Y-181623D01*
X193011D01*
X193143Y-181453D01*
X193237Y-181265D01*
X193302Y-181077D01*
X193349Y-180889D01*
X193378Y-180730D01*
X193387Y-180655D01*
Y-180598D01*
X193396Y-180542D01*
Y-181905D01*
Y-180476D01*
X193387Y-180326D01*
X193368Y-180175D01*
X193349Y-180044D01*
X193321Y-179931D01*
X193293Y-179837D01*
X193265Y-179762D01*
X193256Y-179715D01*
X193246Y-179696D01*
X193180Y-179564D01*
X193114Y-179433D01*
X193030Y-179320D01*
X192955Y-179217D01*
X192889Y-179132D01*
X192833Y-179066D01*
X192795Y-179029D01*
X192786Y-179010D01*
X192823Y-179000D01*
X192870Y-178982D01*
X192908Y-178972D01*
X192917Y-178963D01*
X192927D01*
X193011Y-178935D01*
X193086Y-178916D01*
X193152Y-178897D01*
X193199Y-178878D01*
X193237Y-178860D01*
X193274Y-178850D01*
X193284Y-178841D01*
X193293D01*
Y-177610D01*
D02*
G37*
G36*
X190510Y-182807D02*
X186790D01*
D01*
X190510D01*
D02*
G37*
G36*
X193293D02*
X191413D01*
X191207Y-182816D01*
X191019Y-182854D01*
X190859Y-182910D01*
X190709Y-182966D01*
X190596Y-183023D01*
X190511Y-183079D01*
X190455Y-183117D01*
X190436Y-183126D01*
X190286Y-183258D01*
X190164Y-183399D01*
X190060Y-183559D01*
X189985Y-183699D01*
X189919Y-183831D01*
X189872Y-183944D01*
X189863Y-183981D01*
X189853Y-184010D01*
X189844Y-184028D01*
Y-184038D01*
X189760Y-183888D01*
X189675Y-183756D01*
X189571Y-183643D01*
X189487Y-183549D01*
X189402Y-183483D01*
X189337Y-183427D01*
X189290Y-183389D01*
X189271Y-183380D01*
X189120Y-183295D01*
X188979Y-183230D01*
X188839Y-183192D01*
X188707Y-183154D01*
X188594Y-183136D01*
X188510Y-183126D01*
X188453D01*
X188444D01*
X188434D01*
X188284Y-183136D01*
X188134Y-183154D01*
X188011Y-183192D01*
X187899Y-183230D01*
X187805Y-183267D01*
X187729Y-183305D01*
X187692Y-183324D01*
X187673Y-183333D01*
X187551Y-183408D01*
X187448Y-183493D01*
X187354Y-183577D01*
X187269Y-183652D01*
X187213Y-183728D01*
X187166Y-183784D01*
X187137Y-183822D01*
X187128Y-183831D01*
X187053Y-183944D01*
X186996Y-184066D01*
X186950Y-184179D01*
X186912Y-184282D01*
X186884Y-184376D01*
X186865Y-184442D01*
X186856Y-184489D01*
Y-184508D01*
X186837Y-184667D01*
X186818Y-184846D01*
X186808Y-185034D01*
X186799Y-185222D01*
X186790Y-185391D01*
Y-188248D01*
X193293D01*
Y-185429D01*
X193284Y-185269D01*
Y-184987D01*
X193274Y-184874D01*
Y-184696D01*
X193265Y-184630D01*
Y-184536D01*
X193256Y-184498D01*
Y-184461D01*
X193227Y-184273D01*
X193180Y-184104D01*
X193133Y-183953D01*
X193077Y-183822D01*
X193030Y-183718D01*
X192983Y-183643D01*
X192955Y-183596D01*
X192945Y-183577D01*
X192842Y-183446D01*
X192729Y-183342D01*
X192626Y-183239D01*
X192513Y-183164D01*
X192419Y-183098D01*
X192344Y-183051D01*
X192297Y-183023D01*
X192278Y-183013D01*
X192118Y-182948D01*
X191968Y-182891D01*
X191818Y-182854D01*
X191686Y-182835D01*
X191573Y-182816D01*
X191489Y-182807D01*
X193293D01*
D02*
G37*
%LPD*%
G36*
X190803Y-166576D02*
X190577Y-166605D01*
X190370Y-166642D01*
X190173Y-166689D01*
X190004Y-166736D01*
X189844Y-166793D01*
X189703Y-166849D01*
X189581Y-166905D01*
X189468Y-166962D01*
X189384Y-167009D01*
X189308Y-167056D01*
X189252Y-167093D01*
X189205Y-167122D01*
X189186Y-167140D01*
X189177Y-167150D01*
X189055Y-167262D01*
X188942Y-167394D01*
X188848Y-167526D01*
X188773Y-167657D01*
X188697Y-167798D01*
X188641Y-167939D01*
X188594Y-168071D01*
X188556Y-168202D01*
X188528Y-168324D01*
X188510Y-168437D01*
X188491Y-168541D01*
X188481Y-168625D01*
X188472Y-168700D01*
Y-166558D01*
X191038D01*
X190803Y-166576D01*
D02*
G37*
G36*
X190539Y-169659D02*
X190361Y-169650D01*
X190201Y-169621D01*
X190060Y-169584D01*
X189947Y-169527D01*
X189853Y-169480D01*
X189788Y-169433D01*
X189741Y-169405D01*
X189731Y-169396D01*
X189628Y-169292D01*
X189553Y-169180D01*
X189506Y-169067D01*
X189468Y-168964D01*
X189449Y-168869D01*
X189431Y-168794D01*
Y-168729D01*
X189440Y-168587D01*
X189478Y-168465D01*
X189524Y-168353D01*
X189571Y-168259D01*
X189628Y-168183D01*
X189675Y-168127D01*
X189713Y-168090D01*
X189722Y-168080D01*
X189835Y-167995D01*
X189966Y-167920D01*
X190107Y-167873D01*
X190239Y-167836D01*
X190352Y-167817D01*
X190455Y-167808D01*
X190492Y-167798D01*
X190511D01*
X190530D01*
X190539D01*
Y-169659D01*
D02*
G37*
G36*
X193396Y-174132D02*
X189571D01*
Y-173559D01*
X191630D01*
X191752D01*
X191855D01*
X191959D01*
X192043Y-173550D01*
X192194D01*
X192316Y-173540D01*
X192410Y-173531D01*
X192466D01*
X192504Y-173521D01*
X192513D01*
X192617Y-173503D01*
X192710Y-173475D01*
X192795Y-173446D01*
X192861Y-173418D01*
X192917Y-173390D01*
X192955Y-173371D01*
X192983Y-173362D01*
X192992Y-173352D01*
X193058Y-173296D01*
X193114Y-173230D01*
X193209Y-173099D01*
X193237Y-173042D01*
X193265Y-172995D01*
X193274Y-172958D01*
X193284Y-172948D01*
X193321Y-172845D01*
X193349Y-172742D01*
X193368Y-172638D01*
X193378Y-172544D01*
X193387Y-172460D01*
X193396Y-172394D01*
Y-174132D01*
D02*
G37*
G36*
Y-177159D02*
X189571D01*
Y-176585D01*
X191630D01*
X191752D01*
X191855D01*
X191959D01*
X192043Y-176576D01*
X192194D01*
X192316Y-176566D01*
X192410Y-176557D01*
X192466D01*
X192504Y-176548D01*
X192513D01*
X192617Y-176529D01*
X192710Y-176501D01*
X192795Y-176472D01*
X192861Y-176444D01*
X192917Y-176416D01*
X192955Y-176397D01*
X192983Y-176388D01*
X192992Y-176378D01*
X193058Y-176322D01*
X193114Y-176256D01*
X193209Y-176125D01*
X193237Y-176068D01*
X193265Y-176021D01*
X193274Y-175984D01*
X193284Y-175974D01*
X193321Y-175871D01*
X193349Y-175768D01*
X193368Y-175664D01*
X193378Y-175570D01*
X193387Y-175486D01*
X193396Y-175420D01*
Y-177159D01*
D02*
G37*
G36*
X191573Y-179113D02*
X191677Y-179123D01*
X191761Y-179132D01*
X191818Y-179142D01*
X191865Y-179151D01*
X191883Y-179160D01*
X191893D01*
X191977Y-179188D01*
X192062Y-179235D01*
X192128Y-179282D01*
X192194Y-179329D01*
X192241Y-179377D01*
X192278Y-179414D01*
X192297Y-179442D01*
X192306Y-179452D01*
X192381Y-179564D01*
X192428Y-179687D01*
X192466Y-179790D01*
X192494Y-179893D01*
X192513Y-179978D01*
X192523Y-180044D01*
Y-180100D01*
X192513Y-180203D01*
X192494Y-180307D01*
X192466Y-180391D01*
X192428Y-180457D01*
X192391Y-180523D01*
X192363Y-180561D01*
X192344Y-180589D01*
X192334Y-180598D01*
X192259Y-180664D01*
X192184Y-180711D01*
X192109Y-180739D01*
X192034Y-180758D01*
X191977Y-180777D01*
X191930Y-180786D01*
X191893D01*
X191883D01*
X191789Y-180777D01*
X191705Y-180749D01*
X191630Y-180711D01*
X191564Y-180664D01*
X191517Y-180626D01*
X191479Y-180589D01*
X191460Y-180561D01*
X191451Y-180551D01*
X191413Y-180476D01*
X191367Y-180382D01*
X191329Y-180269D01*
X191301Y-180156D01*
X191273Y-180044D01*
X191254Y-179959D01*
X191244Y-179921D01*
X191235Y-179893D01*
Y-179874D01*
X191197Y-179687D01*
X191160Y-179536D01*
X191122Y-179395D01*
X191094Y-179292D01*
X191066Y-179207D01*
X191056Y-179151D01*
X191038Y-179113D01*
Y-179104D01*
X191291D01*
X191442D01*
X191573Y-179113D01*
D02*
G37*
G36*
X191470Y-184169D02*
X191583Y-184188D01*
X191677Y-184216D01*
X191752Y-184254D01*
X191818Y-184292D01*
X191865Y-184320D01*
X191893Y-184339D01*
X191902Y-184348D01*
X191968Y-184423D01*
X192024Y-184498D01*
X192071Y-184583D01*
X192109Y-184658D01*
X192128Y-184724D01*
X192147Y-184780D01*
X192156Y-184818D01*
Y-184827D01*
X192165Y-184865D01*
Y-184921D01*
X192175Y-185043D01*
X192184Y-185194D01*
Y-185344D01*
X192194Y-185485D01*
Y-186932D01*
X190455D01*
Y-185570D01*
X190464Y-185438D01*
X190474Y-185325D01*
Y-185213D01*
X190483Y-185119D01*
X190492Y-185034D01*
X190502Y-184968D01*
X190511Y-184902D01*
X190521Y-184855D01*
X190530Y-184780D01*
X190549Y-184733D01*
Y-184724D01*
X190586Y-184630D01*
X190634Y-184545D01*
X190681Y-184470D01*
X190737Y-184414D01*
X190774Y-184367D01*
X190812Y-184339D01*
X190840Y-184320D01*
X190850Y-184310D01*
X190934Y-184263D01*
X191019Y-184226D01*
X191094Y-184198D01*
X191179Y-184179D01*
X191244Y-184169D01*
X191301Y-184160D01*
X191338D01*
X191348D01*
X191470Y-184169D01*
D02*
G37*
G36*
X188726Y-184414D02*
X188829Y-184433D01*
X188914Y-184470D01*
X188989Y-184498D01*
X189055Y-184536D01*
X189092Y-184573D01*
X189120Y-184592D01*
X189130Y-184602D01*
X189196Y-184677D01*
X189243Y-184762D01*
X189280Y-184846D01*
X189308Y-184931D01*
X189337Y-185015D01*
X189346Y-185072D01*
X189355Y-185109D01*
Y-185166D01*
X189365Y-185222D01*
Y-185513D01*
X189374Y-185673D01*
Y-186932D01*
X187871D01*
Y-185626D01*
X187880Y-185523D01*
Y-185278D01*
X187889Y-185222D01*
Y-185119D01*
X187899Y-185081D01*
Y-185072D01*
X187917Y-184959D01*
X187946Y-184855D01*
X187983Y-184771D01*
X188021Y-184696D01*
X188058Y-184649D01*
X188096Y-184602D01*
X188115Y-184583D01*
X188124Y-184573D01*
X188199Y-184517D01*
X188284Y-184480D01*
X188359Y-184442D01*
X188434Y-184423D01*
X188510Y-184414D01*
X188566Y-184404D01*
X188603D01*
X188613D01*
X188726Y-184414D01*
D02*
G37*
%LPC*%
G36*
X-217122Y158045D02*
D01*
Y155169D01*
X-225228D01*
Y158045D01*
X-226878D01*
Y150306D01*
X-217122D01*
Y158045D01*
D02*
G37*
G36*
X-216939Y149446D02*
D01*
Y144723D01*
X-216953Y145118D01*
X-216996Y145485D01*
X-217066Y145837D01*
X-217151Y146161D01*
X-217249Y146472D01*
X-217362Y146753D01*
X-217475Y147007D01*
X-217602Y147247D01*
X-217729Y147444D01*
X-217841Y147627D01*
X-217954Y147782D01*
X-218053Y147909D01*
X-218137Y148022D01*
X-218208Y148093D01*
X-218250Y148135D01*
X-218264Y148149D01*
X-218532Y148375D01*
X-218814Y148572D01*
X-219110Y148755D01*
X-219406Y148896D01*
X-219716Y149023D01*
X-220026Y149136D01*
X-220337Y149220D01*
X-220633Y149291D01*
X-220900Y149333D01*
X-221168Y149375D01*
X-221394Y149404D01*
X-221591Y149432D01*
X-221760D01*
X-221887Y149446D01*
X-216939D01*
X-227061D01*
X-221986D01*
X-222423Y149432D01*
X-222832Y149389D01*
X-223212Y149333D01*
X-223579Y149249D01*
X-223903Y149150D01*
X-224213Y149037D01*
X-224495Y148924D01*
X-224735Y148798D01*
X-224960Y148671D01*
X-225158Y148558D01*
X-225327Y148445D01*
X-225468Y148346D01*
X-225567Y148276D01*
X-225651Y148205D01*
X-225693Y148163D01*
X-225707Y148149D01*
X-225947Y147895D01*
X-226159Y147627D01*
X-226342Y147346D01*
X-226497Y147064D01*
X-226624Y146768D01*
X-226737Y146486D01*
X-226821Y146204D01*
X-226892Y145936D01*
X-226948Y145682D01*
X-226990Y145442D01*
X-227019Y145231D01*
X-227047Y145048D01*
Y144907D01*
X-227061Y144794D01*
Y144695D01*
X-227047Y144272D01*
X-227005Y143863D01*
X-226934Y143511D01*
X-226863Y143201D01*
X-226821Y143074D01*
X-226793Y142947D01*
X-226765Y142849D01*
X-226723Y142764D01*
X-226708Y142694D01*
X-226680Y142637D01*
X-226666Y142609D01*
Y142595D01*
X-226553Y142341D01*
X-226412Y142101D01*
X-226257Y141890D01*
X-226116Y141707D01*
X-225989Y141552D01*
X-225877Y141425D01*
X-225806Y141354D01*
X-225792Y141340D01*
X-225778Y141326D01*
X-225553Y141129D01*
X-225313Y140945D01*
X-225101Y140790D01*
X-224890Y140663D01*
X-224707Y140565D01*
X-224566Y140480D01*
X-224509Y140466D01*
X-224467Y140438D01*
X-224453Y140424D01*
X-224439D01*
X-224044Y140283D01*
X-223621Y140170D01*
X-223198Y140100D01*
X-222804Y140043D01*
X-222620Y140029D01*
X-222451Y140015D01*
X-222310Y140001D01*
X-222183D01*
X-222071Y139987D01*
X-227061D01*
X-221930D01*
X-221507Y140001D01*
X-221098Y140043D01*
X-220717Y140100D01*
X-220365Y140184D01*
X-220041Y140283D01*
X-219744Y140396D01*
X-219463Y140508D01*
X-219223Y140635D01*
X-218997Y140748D01*
X-218814Y140861D01*
X-218645Y140974D01*
X-218504Y141072D01*
X-218405Y141157D01*
X-218321Y141213D01*
X-218278Y141256D01*
X-218264Y141270D01*
X-218025Y141523D01*
X-217827Y141791D01*
X-217644Y142059D01*
X-217503Y142355D01*
X-217376Y142637D01*
X-217263Y142933D01*
X-217179Y143201D01*
X-217108Y143483D01*
X-217052Y143737D01*
X-217010Y143976D01*
X-216982Y144188D01*
X-216967Y144371D01*
X-216953Y144512D01*
X-216939Y144625D01*
Y139987D01*
D01*
Y149446D01*
D02*
G37*
G36*
Y138845D02*
D01*
Y134122D01*
X-216953Y134517D01*
X-216996Y134884D01*
X-217066Y135236D01*
X-217151Y135560D01*
X-217249Y135871D01*
X-217362Y136152D01*
X-217475Y136406D01*
X-217602Y136646D01*
X-217729Y136843D01*
X-217841Y137027D01*
X-217954Y137182D01*
X-218053Y137308D01*
X-218137Y137421D01*
X-218208Y137492D01*
X-218250Y137534D01*
X-218264Y137548D01*
X-218532Y137774D01*
X-218814Y137971D01*
X-219110Y138154D01*
X-219406Y138295D01*
X-219716Y138422D01*
X-220026Y138535D01*
X-220337Y138619D01*
X-220633Y138690D01*
X-220900Y138732D01*
X-221168Y138774D01*
X-221394Y138803D01*
X-221591Y138831D01*
X-221760D01*
X-221887Y138845D01*
X-216939D01*
X-227061D01*
X-221986D01*
X-222423Y138831D01*
X-222832Y138789D01*
X-223212Y138732D01*
X-223579Y138648D01*
X-223903Y138549D01*
X-224213Y138436D01*
X-224495Y138323D01*
X-224735Y138196D01*
X-224960Y138070D01*
X-225158Y137957D01*
X-225327Y137844D01*
X-225468Y137745D01*
X-225567Y137675D01*
X-225651Y137604D01*
X-225693Y137562D01*
X-225707Y137548D01*
X-225947Y137294D01*
X-226159Y137027D01*
X-226342Y136744D01*
X-226497Y136463D01*
X-226624Y136167D01*
X-226737Y135885D01*
X-226821Y135603D01*
X-226892Y135335D01*
X-226948Y135081D01*
X-226990Y134841D01*
X-227019Y134630D01*
X-227047Y134447D01*
Y134306D01*
X-227061Y134193D01*
Y134094D01*
X-227047Y133671D01*
X-227005Y133263D01*
X-226934Y132910D01*
X-226863Y132600D01*
X-226821Y132473D01*
X-226793Y132346D01*
X-226765Y132248D01*
X-226723Y132163D01*
X-226708Y132093D01*
X-226680Y132036D01*
X-226666Y132008D01*
Y131994D01*
X-226553Y131740D01*
X-226412Y131500D01*
X-226257Y131289D01*
X-226116Y131106D01*
X-225989Y130951D01*
X-225877Y130824D01*
X-225806Y130753D01*
X-225792Y130739D01*
X-225778Y130725D01*
X-225553Y130528D01*
X-225313Y130344D01*
X-225101Y130189D01*
X-224890Y130063D01*
X-224707Y129964D01*
X-224566Y129879D01*
X-224509Y129865D01*
X-224467Y129837D01*
X-224453Y129823D01*
X-224439D01*
X-224044Y129682D01*
X-223621Y129569D01*
X-223198Y129499D01*
X-222804Y129442D01*
X-222620Y129428D01*
X-222451Y129414D01*
X-222310Y129400D01*
X-222183D01*
X-222071Y129386D01*
X-227061D01*
X-221930D01*
X-221507Y129400D01*
X-221098Y129442D01*
X-220717Y129499D01*
X-220365Y129583D01*
X-220041Y129682D01*
X-219744Y129795D01*
X-219463Y129908D01*
X-219223Y130034D01*
X-218997Y130147D01*
X-218814Y130260D01*
X-218645Y130373D01*
X-218504Y130471D01*
X-218405Y130556D01*
X-218321Y130612D01*
X-218278Y130655D01*
X-218264Y130669D01*
X-218025Y130922D01*
X-217827Y131190D01*
X-217644Y131458D01*
X-217503Y131754D01*
X-217376Y132036D01*
X-217263Y132332D01*
X-217179Y132600D01*
X-217108Y132882D01*
X-217052Y133136D01*
X-217010Y133375D01*
X-216982Y133587D01*
X-216967Y133770D01*
X-216953Y133911D01*
X-216939Y134024D01*
Y129823D01*
Y138845D01*
D02*
G37*
G36*
X-217122Y128117D02*
D01*
Y124184D01*
X-217137Y124424D01*
Y124847D01*
X-217151Y125016D01*
Y125284D01*
X-217165Y125382D01*
Y125523D01*
X-217179Y125580D01*
Y125636D01*
X-217221Y125918D01*
X-217292Y126172D01*
X-217362Y126397D01*
X-217447Y126595D01*
X-217517Y126750D01*
X-217588Y126862D01*
X-217630Y126933D01*
X-217644Y126961D01*
X-217799Y127159D01*
X-217968Y127314D01*
X-218123Y127469D01*
X-218293Y127582D01*
X-218433Y127680D01*
X-218546Y127751D01*
X-218617Y127793D01*
X-218645Y127807D01*
X-218885Y127906D01*
X-219110Y127990D01*
X-219336Y128047D01*
X-219533Y128075D01*
X-219702Y128103D01*
X-219829Y128117D01*
X-226878D01*
X-219942D01*
X-220252Y128103D01*
X-220534Y128047D01*
X-220774Y127962D01*
X-220999Y127878D01*
X-221168Y127793D01*
X-221295Y127708D01*
X-221380Y127652D01*
X-221408Y127638D01*
X-221633Y127441D01*
X-221817Y127229D01*
X-221972Y126989D01*
X-222085Y126778D01*
X-222183Y126581D01*
X-222254Y126411D01*
X-222268Y126355D01*
X-222282Y126313D01*
X-222296Y126285D01*
Y126271D01*
X-222423Y126496D01*
X-222550Y126693D01*
X-222705Y126862D01*
X-222832Y127003D01*
X-222959Y127102D01*
X-223057Y127187D01*
X-223128Y127243D01*
X-223156Y127257D01*
X-223382Y127384D01*
X-223593Y127483D01*
X-223804Y127539D01*
X-224002Y127596D01*
X-224171Y127624D01*
X-224298Y127638D01*
X-224382D01*
X-224396D01*
X-224411D01*
X-224636Y127624D01*
X-224862Y127596D01*
X-225045Y127539D01*
X-225214Y127483D01*
X-225355Y127426D01*
X-225468Y127370D01*
X-225524Y127342D01*
X-225553Y127328D01*
X-225736Y127215D01*
X-225891Y127088D01*
X-226032Y126961D01*
X-226159Y126848D01*
X-226243Y126736D01*
X-226314Y126651D01*
X-226356Y126595D01*
X-226370Y126581D01*
X-226483Y126411D01*
X-226567Y126228D01*
X-226638Y126059D01*
X-226694Y125904D01*
X-226737Y125763D01*
X-226765Y125664D01*
X-226779Y125594D01*
Y125566D01*
X-226807Y125326D01*
X-226835Y125058D01*
X-226849Y124776D01*
X-226863Y124494D01*
X-226878Y124241D01*
Y119955D01*
X-217122D01*
Y128117D01*
D02*
G37*
%LPD*%
G36*
Y150306D02*
X-225228D01*
Y153196D01*
X-217122D01*
Y150306D01*
D02*
G37*
G36*
X-221718Y147402D02*
X-221422Y147388D01*
X-221154Y147346D01*
X-220915Y147303D01*
X-220675Y147247D01*
X-220464Y147176D01*
X-220280Y147106D01*
X-220111Y147035D01*
X-219956Y146965D01*
X-219829Y146894D01*
X-219716Y146838D01*
X-219618Y146768D01*
X-219547Y146725D01*
X-219505Y146683D01*
X-219477Y146669D01*
X-219463Y146655D01*
X-219307Y146514D01*
X-219181Y146359D01*
X-219068Y146189D01*
X-218969Y146034D01*
X-218899Y145865D01*
X-218828Y145710D01*
X-218729Y145400D01*
X-218659Y145132D01*
X-218645Y145020D01*
X-218631Y144921D01*
X-218617Y144836D01*
Y144723D01*
X-218631Y144512D01*
X-218659Y144300D01*
X-218701Y144103D01*
X-218758Y143920D01*
X-218885Y143582D01*
X-219054Y143314D01*
X-219124Y143187D01*
X-219209Y143088D01*
X-219279Y142990D01*
X-219350Y142919D01*
X-219392Y142863D01*
X-219434Y142820D01*
X-219463Y142792D01*
X-219477Y142778D01*
X-219646Y142651D01*
X-219829Y142524D01*
X-220026Y142426D01*
X-220238Y142341D01*
X-220647Y142200D01*
X-221056Y142115D01*
X-221253Y142087D01*
X-221422Y142059D01*
X-221591Y142045D01*
X-221732Y142031D01*
X-221845Y142017D01*
X-221930D01*
X-221986D01*
X-222000D01*
X-222310Y142031D01*
X-222592Y142045D01*
X-222860Y142087D01*
X-223114Y142130D01*
X-223339Y142186D01*
X-223551Y142242D01*
X-223734Y142313D01*
X-223903Y142383D01*
X-224058Y142454D01*
X-224185Y142524D01*
X-224284Y142581D01*
X-224382Y142637D01*
X-224453Y142679D01*
X-224495Y142722D01*
X-224523Y142736D01*
X-224538Y142750D01*
X-224693Y142891D01*
X-224819Y143046D01*
X-224932Y143215D01*
X-225031Y143370D01*
X-225116Y143539D01*
X-225172Y143708D01*
X-225285Y144019D01*
X-225341Y144300D01*
X-225355Y144413D01*
X-225369Y144526D01*
X-225383Y144611D01*
Y144723D01*
X-225369Y144949D01*
X-225341Y145160D01*
X-225313Y145358D01*
X-225256Y145541D01*
X-225116Y145865D01*
X-225045Y146020D01*
X-224974Y146147D01*
X-224890Y146274D01*
X-224819Y146373D01*
X-224749Y146457D01*
X-224678Y146542D01*
X-224622Y146598D01*
X-224594Y146641D01*
X-224566Y146655D01*
X-224552Y146669D01*
X-224382Y146796D01*
X-224199Y146923D01*
X-224016Y147021D01*
X-223804Y147106D01*
X-223382Y147233D01*
X-222973Y147317D01*
X-222789Y147360D01*
X-222606Y147374D01*
X-222451Y147388D01*
X-222310Y147402D01*
X-222183Y147416D01*
X-222099D01*
X-222042D01*
X-222028D01*
X-221718Y147402D01*
D02*
G37*
G36*
Y136801D02*
X-221422Y136787D01*
X-221154Y136744D01*
X-220915Y136702D01*
X-220675Y136646D01*
X-220464Y136575D01*
X-220280Y136505D01*
X-220111Y136434D01*
X-219956Y136364D01*
X-219829Y136293D01*
X-219716Y136237D01*
X-219618Y136167D01*
X-219547Y136124D01*
X-219505Y136082D01*
X-219477Y136068D01*
X-219463Y136054D01*
X-219307Y135913D01*
X-219181Y135758D01*
X-219068Y135589D01*
X-218969Y135434D01*
X-218899Y135264D01*
X-218828Y135109D01*
X-218729Y134799D01*
X-218659Y134531D01*
X-218645Y134418D01*
X-218631Y134320D01*
X-218617Y134235D01*
Y134122D01*
X-218631Y133911D01*
X-218659Y133700D01*
X-218701Y133502D01*
X-218758Y133319D01*
X-218885Y132981D01*
X-219054Y132713D01*
X-219124Y132586D01*
X-219209Y132487D01*
X-219279Y132389D01*
X-219350Y132318D01*
X-219392Y132262D01*
X-219434Y132219D01*
X-219463Y132191D01*
X-219477Y132177D01*
X-219646Y132050D01*
X-219829Y131923D01*
X-220026Y131825D01*
X-220238Y131740D01*
X-220647Y131599D01*
X-221056Y131515D01*
X-221253Y131486D01*
X-221422Y131458D01*
X-221591Y131444D01*
X-221732Y131430D01*
X-221845Y131416D01*
X-221930D01*
X-221986D01*
X-222000D01*
X-222310Y131430D01*
X-222592Y131444D01*
X-222860Y131486D01*
X-223114Y131529D01*
X-223339Y131585D01*
X-223551Y131641D01*
X-223734Y131712D01*
X-223903Y131782D01*
X-224058Y131853D01*
X-224185Y131923D01*
X-224284Y131980D01*
X-224382Y132036D01*
X-224453Y132078D01*
X-224495Y132121D01*
X-224523Y132135D01*
X-224538Y132149D01*
X-224693Y132290D01*
X-224819Y132445D01*
X-224932Y132614D01*
X-225031Y132769D01*
X-225116Y132938D01*
X-225172Y133108D01*
X-225285Y133418D01*
X-225341Y133700D01*
X-225355Y133812D01*
X-225369Y133925D01*
X-225383Y134010D01*
Y134122D01*
X-225369Y134348D01*
X-225341Y134559D01*
X-225313Y134757D01*
X-225256Y134940D01*
X-225116Y135264D01*
X-225045Y135419D01*
X-224974Y135546D01*
X-224890Y135673D01*
X-224819Y135772D01*
X-224749Y135856D01*
X-224678Y135941D01*
X-224622Y135997D01*
X-224594Y136040D01*
X-224566Y136054D01*
X-224552Y136068D01*
X-224382Y136195D01*
X-224199Y136322D01*
X-224016Y136420D01*
X-223804Y136505D01*
X-223382Y136632D01*
X-222973Y136716D01*
X-222789Y136759D01*
X-222606Y136773D01*
X-222451Y136787D01*
X-222310Y136801D01*
X-222183Y136815D01*
X-222099D01*
X-222042D01*
X-222028D01*
X-221718Y136801D01*
D02*
G37*
G36*
X-219857Y126073D02*
X-219688Y126045D01*
X-219547Y126003D01*
X-219434Y125946D01*
X-219336Y125890D01*
X-219265Y125848D01*
X-219223Y125819D01*
X-219209Y125805D01*
X-219110Y125693D01*
X-219026Y125580D01*
X-218955Y125453D01*
X-218899Y125340D01*
X-218871Y125241D01*
X-218842Y125157D01*
X-218828Y125100D01*
Y125086D01*
X-218814Y125030D01*
Y124945D01*
X-218800Y124762D01*
X-218786Y124537D01*
Y124311D01*
X-218772Y124100D01*
Y121929D01*
X-221380D01*
Y123973D01*
X-221366Y124170D01*
X-221352Y124339D01*
Y124508D01*
X-221338Y124649D01*
X-221323Y124776D01*
X-221309Y124875D01*
X-221295Y124973D01*
X-221281Y125044D01*
X-221267Y125157D01*
X-221239Y125227D01*
Y125241D01*
X-221182Y125382D01*
X-221112Y125509D01*
X-221041Y125622D01*
X-220957Y125707D01*
X-220900Y125777D01*
X-220844Y125819D01*
X-220802Y125848D01*
X-220788Y125862D01*
X-220661Y125932D01*
X-220534Y125989D01*
X-220421Y126031D01*
X-220294Y126059D01*
X-220196Y126073D01*
X-220111Y126087D01*
X-220055D01*
X-220041D01*
X-219857Y126073D01*
D02*
G37*
G36*
X-223974Y125707D02*
X-223819Y125678D01*
X-223692Y125622D01*
X-223579Y125580D01*
X-223480Y125523D01*
X-223424Y125467D01*
X-223382Y125439D01*
X-223367Y125425D01*
X-223269Y125312D01*
X-223198Y125185D01*
X-223142Y125058D01*
X-223100Y124931D01*
X-223057Y124804D01*
X-223043Y124720D01*
X-223029Y124663D01*
Y124579D01*
X-223015Y124494D01*
Y124057D01*
X-223001Y123818D01*
Y121929D01*
X-225256D01*
Y123888D01*
X-225242Y124043D01*
Y124410D01*
X-225228Y124494D01*
Y124649D01*
X-225214Y124706D01*
Y124720D01*
X-225186Y124889D01*
X-225144Y125044D01*
X-225087Y125171D01*
X-225031Y125284D01*
X-224974Y125354D01*
X-224918Y125425D01*
X-224890Y125453D01*
X-224876Y125467D01*
X-224763Y125552D01*
X-224636Y125608D01*
X-224523Y125664D01*
X-224411Y125693D01*
X-224298Y125707D01*
X-224213Y125721D01*
X-224157D01*
X-224143D01*
X-223974Y125707D01*
D02*
G37*
%LPC*%
G36*
X-217224Y354374D02*
D01*
Y349637D01*
X-217233Y349863D01*
X-217262Y350060D01*
X-217309Y350239D01*
X-217355Y350389D01*
X-217402Y350511D01*
X-217449Y350596D01*
X-217478Y350652D01*
X-217487Y350671D01*
X-217590Y350821D01*
X-217713Y350953D01*
X-217835Y351066D01*
X-217948Y351160D01*
X-218051Y351235D01*
X-218136Y351291D01*
X-218192Y351329D01*
X-218201Y351338D01*
X-218211D01*
X-218305Y351385D01*
X-218399Y351432D01*
X-218624Y351517D01*
X-218859Y351592D01*
X-219085Y351667D01*
X-219188Y351696D01*
X-219291Y351724D01*
X-219385Y351752D01*
X-219461Y351771D01*
X-219526Y351789D01*
X-219573Y351799D01*
X-219611Y351808D01*
X-219620D01*
X-219790Y351855D01*
X-219940Y351893D01*
X-220081Y351930D01*
X-220212Y351968D01*
X-220316Y352006D01*
X-220419Y352043D01*
X-220504Y352081D01*
X-220579Y352109D01*
X-220645Y352137D01*
X-220692Y352165D01*
X-220739Y352184D01*
X-220767Y352203D01*
X-220814Y352231D01*
X-220823Y352240D01*
X-220889Y352306D01*
X-220936Y352372D01*
X-220964Y352438D01*
X-220983Y352504D01*
X-221002Y352551D01*
X-221011Y352598D01*
Y352626D01*
Y352635D01*
X-221002Y352729D01*
X-220983Y352804D01*
X-220945Y352880D01*
X-220908Y352936D01*
X-220870Y352983D01*
X-220833Y353011D01*
X-220814Y353030D01*
X-220805Y353039D01*
X-220673Y353124D01*
X-220532Y353180D01*
X-220382Y353227D01*
X-220241Y353256D01*
X-220119Y353274D01*
X-220015Y353284D01*
X-219921D01*
X-219724Y353274D01*
X-219555Y353246D01*
X-219414Y353209D01*
X-219301Y353171D01*
X-219207Y353133D01*
X-219141Y353096D01*
X-219104Y353068D01*
X-219094Y353058D01*
X-219000Y352964D01*
X-218916Y352851D01*
X-218850Y352739D01*
X-218803Y352617D01*
X-218765Y352513D01*
X-218746Y352429D01*
X-218728Y352363D01*
Y352353D01*
Y352344D01*
X-217412Y352391D01*
X-217421Y352560D01*
X-217449Y352710D01*
X-217487Y352861D01*
X-217534Y352992D01*
X-217581Y353124D01*
X-217637Y353246D01*
X-217694Y353349D01*
X-217750Y353453D01*
X-217816Y353537D01*
X-217872Y353613D01*
X-217929Y353678D01*
X-217976Y353735D01*
X-218013Y353772D01*
X-218041Y353801D01*
X-218060Y353819D01*
X-218070Y353829D01*
X-218192Y353923D01*
X-218323Y354007D01*
X-218464Y354083D01*
X-218615Y354148D01*
X-218765Y354195D01*
X-218916Y354242D01*
X-219216Y354308D01*
X-219357Y354327D01*
X-219479Y354346D01*
X-219602Y354355D01*
X-219705Y354365D01*
X-219790Y354374D01*
X-217224D01*
X-219902D01*
X-220175Y354365D01*
X-220419Y354336D01*
X-220635Y354299D01*
X-220823Y354261D01*
X-220908Y354233D01*
X-220983Y354214D01*
X-221040Y354195D01*
X-221096Y354176D01*
X-221133Y354158D01*
X-221162Y354148D01*
X-221180Y354139D01*
X-221190D01*
X-221378Y354045D01*
X-221538Y353942D01*
X-221679Y353829D01*
X-221791Y353725D01*
X-221885Y353631D01*
X-221942Y353556D01*
X-221989Y353500D01*
X-221998Y353490D01*
Y353481D01*
X-222092Y353321D01*
X-222158Y353152D01*
X-222205Y352992D01*
X-222233Y352851D01*
X-222252Y352729D01*
X-222271Y352635D01*
Y352598D01*
Y352570D01*
Y352560D01*
Y352551D01*
X-222261Y352410D01*
X-222242Y352269D01*
X-222214Y352147D01*
X-222177Y352024D01*
X-222083Y351799D01*
X-221970Y351601D01*
X-221923Y351517D01*
X-221866Y351451D01*
X-221819Y351385D01*
X-221772Y351329D01*
X-221735Y351291D01*
X-221707Y351263D01*
X-221688Y351244D01*
X-221679Y351235D01*
X-221594Y351169D01*
X-221491Y351103D01*
X-221387Y351038D01*
X-221265Y350981D01*
X-221030Y350868D01*
X-220786Y350774D01*
X-220664Y350737D01*
X-220560Y350699D01*
X-220457Y350671D01*
X-220372Y350643D01*
X-220306Y350624D01*
X-220250Y350605D01*
X-220212Y350596D01*
X-220203D01*
X-220053Y350558D01*
X-219921Y350521D01*
X-219799Y350493D01*
X-219686Y350464D01*
X-219592Y350436D01*
X-219508Y350417D01*
X-219432Y350389D01*
X-219367Y350370D01*
X-219310Y350361D01*
X-219263Y350342D01*
X-219198Y350323D01*
X-219160Y350305D01*
X-219151D01*
X-219028Y350258D01*
X-218934Y350211D01*
X-218850Y350164D01*
X-218784Y350117D01*
X-218737Y350079D01*
X-218709Y350051D01*
X-218690Y350032D01*
X-218681Y350023D01*
X-218634Y349957D01*
X-218596Y349891D01*
X-218577Y349825D01*
X-218558Y349769D01*
X-218549Y349712D01*
X-218540Y349665D01*
Y349637D01*
Y349628D01*
X-218549Y349496D01*
X-218587Y349384D01*
X-218643Y349271D01*
X-218699Y349177D01*
X-218765Y349102D01*
X-218812Y349045D01*
X-218850Y349008D01*
X-218869Y348998D01*
X-219000Y348914D01*
X-219151Y348848D01*
X-219310Y348801D01*
X-219461Y348773D01*
X-219602Y348754D01*
X-219714Y348735D01*
X-219818D01*
X-220034Y348745D01*
X-220222Y348782D01*
X-220382Y348829D01*
X-220523Y348885D01*
X-220635Y348942D01*
X-220711Y348989D01*
X-220758Y349026D01*
X-220776Y349036D01*
X-220898Y349167D01*
X-220993Y349308D01*
X-221077Y349468D01*
X-221133Y349628D01*
X-221180Y349769D01*
X-221218Y349882D01*
X-221227Y349919D01*
Y349957D01*
X-221237Y349976D01*
Y349985D01*
X-222515Y349863D01*
D01*
X-222487Y349665D01*
X-222449Y349478D01*
X-222393Y349299D01*
X-222346Y349139D01*
X-222280Y348989D01*
X-222214Y348848D01*
X-222148Y348726D01*
X-222083Y348613D01*
X-222017Y348519D01*
X-221951Y348434D01*
X-221895Y348359D01*
X-221838Y348293D01*
X-221801Y348246D01*
X-221763Y348218D01*
X-221744Y348199D01*
X-221735Y348190D01*
X-221603Y348087D01*
X-221462Y348002D01*
X-221312Y347927D01*
X-221152Y347861D01*
X-221002Y347814D01*
X-220842Y347767D01*
X-220532Y347701D01*
X-220391Y347673D01*
X-220259Y347654D01*
X-220147Y347645D01*
X-220043Y347635D01*
X-219959Y347626D01*
X-219837D01*
X-219536Y347635D01*
X-219263Y347664D01*
X-219019Y347701D01*
X-218916Y347720D01*
X-218812Y347748D01*
X-218728Y347767D01*
X-218652Y347786D01*
X-218587Y347805D01*
X-218530Y347823D01*
X-218483Y347842D01*
X-218455Y347852D01*
X-218436Y347861D01*
X-218427D01*
X-218220Y347965D01*
X-218051Y348077D01*
X-217891Y348190D01*
X-217769Y348312D01*
X-217675Y348416D01*
X-217600Y348509D01*
X-217562Y348566D01*
X-217543Y348575D01*
Y348585D01*
X-217440Y348773D01*
X-217355Y348951D01*
X-217299Y349130D01*
X-217262Y349299D01*
X-217243Y349431D01*
X-217233Y349496D01*
X-217224Y349543D01*
Y347626D01*
D01*
D01*
Y354374D01*
D02*
G37*
G36*
X-190674Y354252D02*
X-192648D01*
X-193804Y349807D01*
X-194969Y354252D01*
X-196934D01*
Y347748D01*
X-190674D01*
Y354252D01*
D02*
G37*
G36*
X-198249D02*
X-200223D01*
X-201379Y349807D01*
X-202544Y354252D01*
X-204508D01*
Y347748D01*
X-198249D01*
Y354252D01*
D02*
G37*
G36*
X-205608D02*
D01*
Y348848D01*
X-209236D01*
Y350615D01*
X-205975D01*
Y351714D01*
X-209236D01*
Y353152D01*
X-205730D01*
Y354252D01*
X-210551D01*
Y347748D01*
X-205608D01*
Y354252D01*
D02*
G37*
G36*
X-183485D02*
D01*
Y347748D01*
X-186098Y354252D01*
X-187489D01*
X-190007Y347748D01*
D01*
X-183485D01*
Y354252D01*
D02*
G37*
G36*
X-211406D02*
X-216566D01*
Y353152D01*
X-214639D01*
Y347748D01*
X-213324D01*
Y353152D01*
X-211406D01*
Y347748D01*
D01*
D01*
Y354252D01*
D02*
G37*
%LPD*%
G36*
X-191887Y347748D02*
X-193174D01*
X-191896Y352861D01*
X-191887Y347748D01*
D02*
G37*
G36*
X-194443D02*
X-195721D01*
Y352861D01*
X-194443Y347748D01*
D02*
G37*
G36*
X-199462D02*
X-200749D01*
X-199471Y352861D01*
X-199462Y347748D01*
D02*
G37*
G36*
X-202018D02*
X-203296D01*
Y352861D01*
X-202018Y347748D01*
D02*
G37*
G36*
X-185891Y350323D02*
X-187686D01*
X-186803Y352739D01*
X-185891Y350323D01*
D02*
G37*
G36*
X-184904Y347748D02*
X-188616D01*
X-188081Y349224D01*
X-185468D01*
X-184904Y347748D01*
D02*
G37*
G54D10*
X-175214Y259750D02*
X-177214D01*
X-175214D01*
X-103140Y-292100D02*
X-105140D01*
X-103140D01*
X-263000Y-393000D02*
X-265000D01*
X-263000D01*
X7880Y70753D02*
X6692Y72810D01*
X4317D01*
X3130Y70753D01*
X167875Y-243250D02*
X166688Y-241193D01*
X164312D01*
X163125Y-243250D01*
X-180849Y223500D02*
X-182652D01*
X-180849D01*
X133900Y159000D02*
X131900D01*
X133900D01*
X-146659Y193000D02*
X-144952Y193707D01*
Y192293D02*
X-146659Y193000D01*
X-127500Y92500D02*
X-124500Y100000D01*
X-130500D02*
X-127500Y92500D01*
X-130500Y100000D02*
X-124500D01*
X31250Y188500D02*
X41750D01*
X31250Y203500D02*
X41750D01*
X201800Y274600D02*
Y295000D01*
Y274600D02*
X206800Y272100D01*
X227200Y274600D02*
Y295000D01*
X201800D02*
X206800Y297500D01*
X222200Y272100D02*
X227200Y274600D01*
X222200Y297500D02*
X227200Y295000D01*
X222200Y272100D02*
X227200Y269600D01*
X201800Y244200D02*
X206800Y246700D01*
X227200Y223800D02*
Y244200D01*
X222200Y246700D02*
X227200Y249200D01*
X201800Y223800D02*
X206800Y221300D01*
X201800Y269600D02*
X206800Y272100D01*
X227200Y249200D02*
Y269600D01*
X201800Y249200D02*
X206800Y246700D01*
X222200D02*
X227200Y244200D01*
X201800Y223800D02*
Y244200D01*
X222200Y221300D02*
X227200Y223800D01*
X206800Y221300D02*
X222200D01*
X201800Y249200D02*
Y269600D01*
X222200Y322900D02*
X227200Y320400D01*
X222200Y297500D02*
X227200Y300000D01*
X201800Y320400D02*
X206800Y322900D01*
X227200Y300000D02*
Y320400D01*
X201800Y300000D02*
X206800Y297500D01*
X201800Y300000D02*
Y320400D01*
Y325400D02*
Y345800D01*
Y325400D02*
X206800Y322900D01*
X227200Y325400D02*
Y345800D01*
X201800D02*
X206800Y348300D01*
X222200Y322900D02*
X227200Y325400D01*
X222200Y348300D02*
X227200Y345800D01*
X201800Y350800D02*
Y371200D01*
Y350800D02*
X206800Y348300D01*
X227200Y350800D02*
Y371200D01*
X201800D02*
X206800Y373700D01*
X222200Y348300D02*
X227200Y350800D01*
X206800Y373700D02*
X222200D01*
X227200Y371200D01*
X278400Y-12350D02*
X292400D01*
X238100D02*
X252900D01*
X292400Y-109650D02*
Y-12350D01*
X278400Y-109650D02*
X292400D01*
X238100D02*
X252900D01*
X-174000Y50000D02*
Y92000D01*
X-208000Y50000D02*
Y92000D01*
X5655Y70753D02*
Y99253D01*
X5354D02*
X5655D01*
X5354Y70753D02*
Y99253D01*
X3130Y70753D02*
X5354D01*
X5655D02*
X7880D01*
X165650Y-243250D02*
X167875D01*
X163125D02*
X165350D01*
Y-214750D01*
X165650D01*
Y-243250D02*
Y-214750D01*
X142500Y24000D02*
Y32000D01*
X151500D01*
X142500Y2000D02*
Y10000D01*
Y2000D02*
X151500D01*
X182500Y21000D02*
X192500D01*
X183500Y14000D02*
X187500Y21000D01*
X192500Y14000D01*
X183500D02*
X192500D01*
X187500Y21000D02*
Y23000D01*
Y11000D02*
Y14000D01*
X167790Y-134710D02*
Y-102210D01*
X185290D01*
Y-134710D02*
Y-102210D01*
X167790Y-134710D02*
X185290D01*
X81000Y-161500D02*
Y-157750D01*
X77250Y-161500D02*
X81000D01*
X38000D02*
X41750D01*
X38000D02*
Y-157750D01*
Y-122250D02*
Y-118500D01*
X41750D01*
X81000Y-122250D02*
Y-118500D01*
X77250D02*
X81000D01*
X-206500Y216500D02*
Y220000D01*
Y192000D02*
Y195500D01*
Y220000D02*
X-199400D01*
X-206500Y192000D02*
X-199400D01*
X-177000Y216500D02*
Y220000D01*
X-184100D02*
X-177000D01*
Y192000D02*
Y195500D01*
X-184100Y192000D02*
X-177000D01*
X173250Y137750D02*
Y170250D01*
X197750D01*
Y137750D02*
Y170250D01*
X173250Y137750D02*
X197750D01*
X88500Y-101750D02*
Y-84250D01*
X56250D02*
X88500D01*
X56250Y-101750D02*
Y-84250D01*
Y-101750D02*
X88500D01*
X-74000Y361000D02*
Y400000D01*
X-83000Y361000D02*
X-74000D01*
X-83000D02*
Y376000D01*
X-94000D02*
X-83000D01*
X-194000Y361000D02*
Y400000D01*
Y361000D02*
X-185000D01*
Y376000D01*
X-174000D01*
X-176000Y436000D02*
X-92000D01*
X76750Y-195000D02*
X77500D01*
X51000D02*
X51750D01*
X51000Y-180500D02*
Y-176500D01*
Y-195000D02*
Y-191000D01*
X76750Y-176500D02*
X77500D01*
X51000D02*
X51750D01*
X77500Y-180500D02*
Y-176500D01*
Y-195000D02*
Y-191000D01*
X246000Y-139000D02*
Y-115000D01*
X202000Y-139000D02*
X246000D01*
X202000D02*
Y-115000D01*
X246000D01*
X89500Y232500D02*
X144500D01*
Y433500D01*
X-9500D02*
X144500D01*
X-9500Y232500D02*
Y433500D01*
Y232500D02*
X89500D01*
X202500Y-153000D02*
X217500D01*
Y-193000D02*
Y-153000D01*
X202500Y-193000D02*
X217500D01*
X202500Y-203000D02*
X281000D01*
Y-143000D01*
X202500D02*
X281000D01*
X202500Y-203000D02*
Y-143000D01*
X156750Y200625D02*
Y218625D01*
X190750D01*
Y200625D02*
Y218625D01*
X156750Y200625D02*
X190750D01*
X129500Y34000D02*
Y52000D01*
X163500D01*
Y34000D02*
Y52000D01*
X129500Y34000D02*
X163500D01*
X129500Y52000D02*
Y70000D01*
X163500D01*
Y52000D02*
Y70000D01*
X129500Y52000D02*
X163500D01*
X129500Y70000D02*
Y88000D01*
X163500D01*
Y70000D02*
Y88000D01*
X129500Y70000D02*
X163500D01*
X206500Y190000D02*
X224500D01*
Y156000D02*
Y190000D01*
X206500Y156000D02*
X224500D01*
X206500D02*
Y190000D01*
X194500Y66000D02*
X212500D01*
X194500D02*
Y100000D01*
X212500D01*
Y66000D02*
Y100000D01*
X-44500Y348000D02*
X-26500D01*
X-44500D02*
Y382000D01*
X-26500D01*
Y348000D02*
Y382000D01*
X-62500Y348000D02*
X-44500D01*
X-62500D02*
Y382000D01*
X-44500D01*
Y348000D02*
Y382000D01*
X-167500Y16000D02*
X-149500D01*
Y-18000D02*
Y16000D01*
X-167500Y-18000D02*
X-149500D01*
X-167500D02*
Y16000D01*
X-139000Y312000D02*
Y330000D01*
X-173000Y312000D02*
X-139000D01*
X-173000D02*
Y330000D01*
X-139000D01*
X191500Y265000D02*
X199500D01*
Y256000D02*
Y265000D01*
X169500D02*
X177500D01*
X169500Y256000D02*
Y265000D01*
X191500Y319000D02*
X199500D01*
Y310000D02*
Y319000D01*
X169500D02*
X177500D01*
X169500Y310000D02*
Y319000D01*
X-174000Y117000D02*
Y159000D01*
X-208000Y117000D02*
Y159000D01*
X-130687Y-99001D02*
X-112687D01*
X-130687D02*
Y-65001D01*
X-112687D01*
Y-99001D02*
Y-65001D01*
X-101187Y-147501D02*
Y-143751D01*
X-104937Y-147501D02*
X-101187D01*
X-144187D02*
X-140437D01*
X-144187D02*
Y-143751D01*
Y-108251D02*
Y-104501D01*
X-140437D01*
X-101187Y-108251D02*
Y-104501D01*
X-104937D02*
X-101187D01*
X-171437Y-89001D02*
X-153937D01*
X-171437Y-121251D02*
Y-89001D01*
Y-121251D02*
X-153937D01*
Y-89001D01*
X56500Y-94000D02*
Y-76000D01*
X22500Y-94000D02*
X56500D01*
X22500D02*
Y-76000D01*
X56500D01*
X-213500Y-214000D02*
X-195500D01*
Y-248000D02*
Y-214000D01*
X-213500Y-248000D02*
X-195500D01*
X-213500D02*
Y-214000D01*
X156750Y107735D02*
X190750D01*
X156750Y89735D02*
Y107735D01*
Y89735D02*
X190750D01*
Y107735D01*
Y107735D02*
Y125735D01*
X156750Y107735D02*
X190750D01*
X156750D02*
Y125735D01*
X190750D01*
X156750Y182625D02*
Y200625D01*
X190750D01*
Y182625D02*
Y200625D01*
X156750Y182625D02*
X190750D01*
X-144952Y193707D02*
X-143259Y195400D01*
X-144952Y192293D02*
X-142759Y190100D01*
X-146659Y193000D02*
X-86914D01*
X-171012Y18D02*
X-178510D01*
Y3767D01*
X-177260Y5017D01*
X-174761D01*
X-173512Y3767D01*
Y18D01*
Y2517D02*
X-171012Y5017D01*
X-177260Y7516D02*
X-178510Y8765D01*
Y11264D01*
X-177260Y12514D01*
X-176011D01*
X-174761Y11264D01*
Y10015D01*
Y11264D01*
X-173512Y12514D01*
X-172262D01*
X-171012Y11264D01*
Y8765D01*
X-172262Y7516D01*
Y15013D02*
X-171012Y16263D01*
Y18762D01*
X-172262Y20012D01*
X-177260D01*
X-178510Y18762D01*
Y16263D01*
X-177260Y15013D01*
X-176011D01*
X-174761Y16263D01*
Y20012D01*
X-243333Y165999D02*
X-245999D01*
X-244666D01*
Y159334D01*
X-245999Y158001D01*
X-247332D01*
X-248664Y159334D01*
X-240667Y164666D02*
X-239334Y165999D01*
X-236668D01*
X-235336Y164666D01*
Y163333D01*
X-236668Y162000D01*
X-235336Y160667D01*
Y159334D01*
X-236668Y158001D01*
X-239334D01*
X-240667Y159334D01*
Y160667D01*
X-239334Y162000D01*
X-240667Y163333D01*
Y164666D01*
X-239334Y162000D02*
X-236668D01*
X-243333Y384999D02*
X-245999D01*
X-244666D01*
Y378334D01*
X-245999Y377001D01*
X-247332D01*
X-248664Y378334D01*
X-235336Y384999D02*
X-238001Y383666D01*
X-240667Y381000D01*
Y378334D01*
X-239334Y377001D01*
X-236668D01*
X-235336Y378334D01*
Y379667D01*
X-236668Y381000D01*
X-240667D01*
X238667Y386999D02*
X236001D01*
X237334D01*
Y380334D01*
X236001Y379001D01*
X234668D01*
X233335Y380334D01*
X241333Y386999D02*
X246665D01*
Y385666D01*
X241333Y380334D01*
Y379001D01*
X239667Y208999D02*
X237001D01*
X238334D01*
Y202334D01*
X237001Y201001D01*
X235668D01*
X234335Y202334D01*
X242333D02*
X243666Y201001D01*
X246332D01*
X247665Y202334D01*
Y207666D01*
X246332Y208999D01*
X243666D01*
X242333Y207666D01*
Y206333D01*
X243666Y205000D01*
X247665D01*
X125999Y165670D02*
X118001D01*
Y169668D01*
X119334Y171001D01*
X122000D01*
X123333Y169668D01*
Y165670D01*
Y168335D02*
X125999Y171001D01*
X119334Y173667D02*
X118001Y175000D01*
Y177666D01*
X119334Y178999D01*
X120667D01*
X122000Y177666D01*
Y176333D01*
Y177666D01*
X123333Y178999D01*
X124666D01*
X125999Y177666D01*
Y175000D01*
X124666Y173667D01*
X125999Y181665D02*
Y184330D01*
Y182997D01*
X118001D01*
X119334Y181665D01*
X125999Y135337D02*
X118001D01*
Y139335D01*
X119334Y140668D01*
X122000D01*
X123333Y139335D01*
Y135337D01*
Y138003D02*
X125999Y140668D01*
X119334Y143334D02*
X118001Y144667D01*
Y147333D01*
X119334Y148666D01*
X120667D01*
X122000Y147333D01*
Y146000D01*
Y147333D01*
X123333Y148666D01*
X124666D01*
X125999Y147333D01*
Y144667D01*
X124666Y143334D01*
X119334Y151332D02*
X118001Y152664D01*
Y155330D01*
X119334Y156663D01*
X124666D01*
X125999Y155330D01*
Y152664D01*
X124666Y151332D01*
X119334D01*
X112336Y216999D02*
Y209001D01*
X117667D01*
X125665Y216999D02*
X122999Y215666D01*
X120333Y213000D01*
Y210334D01*
X121666Y209001D01*
X124332D01*
X125665Y210334D01*
Y211667D01*
X124332Y213000D01*
X120333D01*
X129335Y112999D02*
Y105001D01*
X134667D01*
X142664Y112999D02*
X137333D01*
Y109000D01*
X139999Y110333D01*
X141332D01*
X142664Y109000D01*
Y106334D01*
X141332Y105001D01*
X138666D01*
X137333Y106334D01*
X201001Y140336D02*
X208999D01*
Y145667D01*
Y152332D02*
X201001D01*
X205000Y148333D01*
Y153665D01*
X140003Y179999D02*
X142669D01*
X141336D01*
Y172001D01*
X140003D01*
X142669D01*
X151999Y178666D02*
X150667Y179999D01*
X148001D01*
X146668Y178666D01*
Y173334D01*
X148001Y172001D01*
X150667D01*
X151999Y173334D01*
X159997Y172001D02*
X154665D01*
X159997Y177333D01*
Y178666D01*
X158664Y179999D01*
X155998D01*
X154665Y178666D01*
X134668Y123666D02*
X133336Y124999D01*
X130670D01*
X129337Y123666D01*
Y118334D01*
X130670Y117001D01*
X133336D01*
X134668Y118334D01*
X142666Y117001D02*
X137334D01*
X142666Y122333D01*
Y123666D01*
X141333Y124999D01*
X138667D01*
X137334Y123666D01*
X150663Y117001D02*
X145332D01*
X150663Y122333D01*
Y123666D01*
X149330Y124999D01*
X146664D01*
X145332Y123666D01*
X199001Y215666D02*
X197668Y216999D01*
X195003D01*
X193670Y215666D01*
Y210334D01*
X195003Y209001D01*
X197668D01*
X199001Y210334D01*
X206999Y209001D02*
X201667D01*
X206999Y214333D01*
Y215666D01*
X205666Y216999D01*
X203000D01*
X201667Y215666D01*
X209664Y209001D02*
X212330D01*
X210997D01*
Y216999D01*
X209664Y215666D01*
X137668Y194666D02*
X136335Y195999D01*
X133670D01*
X132337Y194666D01*
Y189334D01*
X133670Y188001D01*
X136335D01*
X137668Y189334D01*
X145666Y188001D02*
X140334D01*
X145666Y193333D01*
Y194666D01*
X144333Y195999D01*
X141667D01*
X140334Y194666D01*
X148332D02*
X149664Y195999D01*
X152330D01*
X153663Y194666D01*
Y189334D01*
X152330Y188001D01*
X149664D01*
X148332Y189334D01*
Y194666D01*
X189280Y178971D02*
X187948Y180304D01*
X185282D01*
X183949Y178971D01*
Y173640D01*
X185282Y172307D01*
X187948D01*
X189280Y173640D01*
X191946Y172307D02*
X194612D01*
X193279D01*
Y180304D01*
X191946Y178971D01*
X198611Y173640D02*
X199944Y172307D01*
X202610D01*
X203942Y173640D01*
Y178971D01*
X202610Y180304D01*
X199944D01*
X198611Y178971D01*
Y177638D01*
X199944Y176306D01*
X203942D01*
X192335Y134666D02*
X191002Y135999D01*
X188336D01*
X187003Y134666D01*
Y129334D01*
X188336Y128001D01*
X191002D01*
X192335Y129334D01*
X195001Y128001D02*
X197666D01*
X196334D01*
Y135999D01*
X195001Y134666D01*
X201665D02*
X202998Y135999D01*
X205664D01*
X206997Y134666D01*
Y133333D01*
X205664Y132000D01*
X206997Y130667D01*
Y129334D01*
X205664Y128001D01*
X202998D01*
X201665Y129334D01*
Y130667D01*
X202998Y132000D01*
X201665Y133333D01*
Y134666D01*
X202998Y132000D02*
X205664D01*
X198335Y118666D02*
X197002Y119999D01*
X194336D01*
X193003Y118666D01*
Y113334D01*
X194336Y112001D01*
X197002D01*
X198335Y113334D01*
X201001Y112001D02*
X203666D01*
X202334D01*
Y119999D01*
X201001Y118666D01*
X207665Y119999D02*
X212997D01*
Y118666D01*
X207665Y113334D01*
Y112001D01*
X198335Y108666D02*
X197002Y109999D01*
X194336D01*
X193003Y108666D01*
Y103334D01*
X194336Y102001D01*
X197002D01*
X198335Y103334D01*
X201001Y102001D02*
X203666D01*
X202334D01*
Y109999D01*
X201001Y108666D01*
X212997Y109999D02*
X210331Y108666D01*
X207665Y106000D01*
Y103334D01*
X208998Y102001D01*
X211664D01*
X212997Y103334D01*
Y104667D01*
X211664Y106000D01*
X207665D01*
G54D11*
X208100Y-93650D02*
X206225Y-92568D01*
Y-94733D01*
X208100Y-93650D01*
X88750Y-160000D02*
X86875Y-158918D01*
Y-161083D01*
X88750Y-160000D01*
X82250Y-178000D02*
X80375Y-176917D01*
Y-179083D01*
X82250Y-178000D01*
X-93437Y-146001D02*
X-95312Y-144918D01*
Y-147084D01*
X-93437Y-146001D01*
G54D12*
X-210000Y51000D02*
X-212000D01*
X-210000D01*
X109914Y-155000D02*
X107793Y-153775D01*
Y-156225D01*
X109914Y-155000D01*
X10328Y-193000D02*
X8336Y-191850D01*
Y-194150D01*
X10328Y-193000D01*
X-124583Y-184501D02*
X-126583D01*
X-124583D01*
X-124583Y-153251D02*
X-126583D01*
X-124583D01*
X148916Y-127000D02*
X147085D01*
X148916D01*
X-210000Y118000D02*
X-212000D01*
X-210000D01*
X-74273Y-124001D02*
X-76394Y-122776D01*
Y-125226D01*
X-74273Y-124001D01*
X-179184Y258220D02*
Y293780D01*
X-214744Y258220D02*
X-179184D01*
X-214744Y293780D02*
X-179184D01*
X-214744Y258220D02*
Y293780D01*
X-35500Y-234500D02*
X121500D01*
X-35500Y-41500D02*
X121500D01*
Y-234500D02*
Y-41500D01*
X-35500Y-234500D02*
Y-41500D01*
X-194000Y-234500D02*
X-37000D01*
X-194000Y-41500D02*
X-37000D01*
Y-234500D02*
Y-41500D01*
X-194000Y-234500D02*
Y-41500D01*
G54D13*
X13004Y67503D02*
X11005D01*
X13004D01*
X173000Y-246500D02*
X171000D01*
X173000D01*
X181500Y66000D02*
Y68000D01*
Y64000D02*
Y66000D01*
X187500Y64000D02*
Y68000D01*
X196500Y-241500D02*
X198500D01*
X200500D01*
X196500Y-235500D02*
X200500D01*
X-163000Y32000D02*
X-161000D01*
X-165000D02*
X-163000D01*
X-165000Y26000D02*
X-161000D01*
X-233000Y-125000D02*
Y-123000D01*
Y-121000D01*
X-239000Y-125000D02*
Y-121000D01*
X-53500Y-272000D02*
X-51500Y-272000D01*
Y-265000D01*
X-82500Y-272000D02*
X-80500Y-272000D01*
X-82500Y-272000D02*
Y-242000D01*
X-80500Y-242000D01*
X68250Y22000D02*
X70250D01*
X68250Y15000D02*
Y22000D01*
Y-8000D02*
Y-1000D01*
Y-8000D02*
X70250D01*
X97250Y22000D02*
X99250D01*
Y-8000D02*
Y22000D01*
X97250Y-8000D02*
X99250D01*
X182500Y289000D02*
X186500D01*
X184500Y283000D02*
X186500D01*
X182500D02*
X184500D01*
X182900Y234600D02*
X186900D01*
X184900Y228600D02*
X186900D01*
X182900D02*
X184900D01*
X141000Y-223500D02*
Y-219500D01*
X135000Y-223500D02*
Y-221500D01*
Y-219500D01*
X196500Y-222500D02*
X200500D01*
X198500Y-228500D02*
X200500D01*
X196500D02*
X198500D01*
X42500Y80000D02*
Y84000D01*
X48500Y82000D02*
Y84000D01*
Y80000D02*
Y82000D01*
X-216000Y-83000D02*
X-212000D01*
X-214000Y-89000D02*
X-212000D01*
X-216000D02*
X-214000D01*
X-216000Y-58000D02*
X-212000D01*
X-214000Y-64000D02*
X-212000D01*
X-216000D02*
X-214000D01*
X194000Y-92000D02*
Y-88000D01*
X200000Y-90000D02*
Y-88000D01*
Y-92000D02*
Y-90000D01*
X194000Y-28000D02*
Y-24000D01*
X188000Y-28000D02*
Y-26000D01*
Y-24000D01*
X-88128Y-242000D02*
X-86128D01*
Y-272000D02*
Y-242000D01*
X-88128Y-272000D02*
X-86128D01*
X191040Y-195290D02*
Y-203754D01*
X191022Y-141790D02*
Y-150254D01*
X195254Y-146022D02*
X186790D01*
G54D14*
X-110794Y302580D02*
D03*
X198000Y-52000D02*
D03*
X207000Y-60000D02*
D03*
X-218500Y-138500D02*
D03*
X-213500Y-185500D02*
D03*
X-117771Y293554D02*
D03*
G54D15*
X-24500Y173000D02*
X-26500D01*
X-24500D01*
X190750Y54250D02*
Y77750D01*
X178250Y54250D02*
X190750D01*
X178250D02*
Y77750D01*
X190750D01*
X186750Y-232250D02*
X210250D01*
Y-244750D02*
Y-232250D01*
X186750Y-244750D02*
X210250D01*
X186750D02*
Y-232250D01*
X-174750Y22750D02*
X-151250D01*
X-174750D02*
Y35250D01*
X-151250D01*
Y22750D02*
Y35250D01*
X177340Y39860D02*
X184960D01*
Y41130D01*
X177340D02*
X184960D01*
X177340Y39860D02*
Y41130D01*
X197660Y39860D02*
Y41130D01*
X190040D02*
X197660D01*
X190040Y39860D02*
Y41130D01*
Y39860D02*
X197660D01*
X177340Y-7130D02*
Y39860D01*
X197660Y-7130D02*
Y39860D01*
X177340Y-7130D02*
X180750D01*
X194250D02*
X197660D01*
X-242250Y-134750D02*
Y-111250D01*
X-229750D01*
Y-134750D02*
Y-111250D01*
X-242250Y-134750D02*
X-229750D01*
X9548Y-203934D02*
X11316Y-205702D01*
X7780D02*
X9548Y-203934D01*
X7780Y-205702D02*
X9548Y-207470D01*
X11316Y-205702D01*
X0Y152500D02*
Y156250D01*
X-4000Y152500D02*
X0D01*
X-23000D02*
Y156250D01*
Y152500D02*
X-19000D01*
X-23000Y171750D02*
Y175500D01*
X-19000D01*
X-4000D02*
X0D01*
Y171750D02*
Y175500D01*
X-266000Y-132000D02*
Y-129800D01*
X-268200D02*
X-266000D01*
X-268200Y-116433D02*
X-266000D01*
Y-114000D01*
Y-135000D02*
Y-132000D01*
Y-114000D02*
Y-111000D01*
X-254000D01*
X-268200Y-129800D02*
Y-116433D01*
X-266000Y-135000D02*
X-254000D01*
Y-111000D01*
X-260000Y-125000D02*
X-256000Y-121000D01*
X-264000D02*
X-260000Y-125000D01*
X206500Y43000D02*
X210500Y39000D01*
X202500D02*
X206500Y43000D01*
X200500Y29000D02*
Y53000D01*
X212500D01*
Y29000D02*
Y53000D01*
X200500Y29000D02*
X212500D01*
X129500Y205500D02*
X154500D01*
X129500D02*
Y218500D01*
X154500D01*
Y205500D02*
Y218500D01*
X148858Y-124279D02*
Y-106663D01*
X166086D01*
Y-124279D02*
Y-106663D01*
X148858Y-124279D02*
X166086D01*
X275005Y-235950D02*
Y-233750D01*
Y-235950D02*
X277204D01*
X275005Y-249317D02*
X277204D01*
X275005Y-251750D02*
Y-249317D01*
Y-233750D02*
Y-230750D01*
Y-254750D02*
Y-251750D01*
X263004Y-254750D02*
X275005D01*
X277204Y-249317D02*
Y-235950D01*
X263004Y-230750D02*
X275005D01*
X263004Y-254750D02*
Y-230750D01*
X265005Y-244750D02*
X269004Y-240750D01*
X273004Y-244750D01*
X275005Y-210788D02*
Y-208588D01*
Y-210788D02*
X277204D01*
X275005Y-224155D02*
X277204D01*
X275005Y-226588D02*
Y-224155D01*
Y-208588D02*
Y-205588D01*
Y-229588D02*
Y-226588D01*
X263004Y-229588D02*
X275005D01*
X277204Y-224155D02*
Y-210788D01*
X263004Y-205588D02*
X275005D01*
X263004Y-229588D02*
Y-205588D01*
X265005Y-219588D02*
X269004Y-215588D01*
X273004Y-219588D01*
X198000Y-7500D02*
X223000D01*
X198000D02*
Y5500D01*
X223000D01*
Y-7500D02*
Y5500D01*
X-60500Y322500D02*
Y347500D01*
X-47500D01*
Y322500D02*
Y347500D01*
X-60500Y322500D02*
X-47500D01*
X172750Y279750D02*
Y292250D01*
Y279750D02*
X196250D01*
Y292250D01*
X172750D02*
X196250D01*
X173150Y225350D02*
Y237850D01*
Y225350D02*
X196650D01*
Y237850D01*
X173150D02*
X196650D01*
X131750Y-209750D02*
X144250D01*
X131750Y-233250D02*
Y-209750D01*
Y-233250D02*
X144250D01*
Y-209750D01*
X186750Y-231750D02*
Y-219250D01*
Y-231750D02*
X210250D01*
Y-219250D01*
X186750D02*
X210250D01*
X39250Y70250D02*
X51750D01*
Y93750D01*
X39250D02*
X51750D01*
X39250Y70250D02*
Y93750D01*
X-225750Y-92250D02*
Y-79750D01*
Y-92250D02*
X-202250D01*
Y-79750D01*
X-225750D02*
X-202250D01*
X-225750Y-67250D02*
Y-54750D01*
Y-67250D02*
X-202250D01*
Y-54750D01*
X-225750D02*
X-202250D01*
X190750Y-101750D02*
X203250D01*
Y-78250D01*
X190750D02*
X203250D01*
X190750Y-101750D02*
Y-78250D01*
X184750Y-14250D02*
X197250D01*
X184750Y-37750D02*
Y-14250D01*
Y-37750D02*
X197250D01*
Y-14250D01*
X-99187Y-95501D02*
Y-70501D01*
X-112187Y-95501D02*
X-99187D01*
X-112187D02*
Y-70501D01*
X-99187D01*
X46000Y-75500D02*
X71000D01*
X46000D02*
Y-62500D01*
X71000D01*
Y-75500D02*
Y-62500D01*
X129502Y103390D02*
X154502D01*
Y90390D02*
Y103390D01*
X129502Y90390D02*
X154502D01*
X129502D02*
Y103390D01*
X11188Y-183227D02*
X10022Y-182060D01*
X7689D01*
X6523Y-183227D01*
Y-187892D01*
X7689Y-189058D01*
X10022D01*
X11188Y-187892D01*
X13520D02*
X14687Y-189058D01*
X17019D01*
X18186Y-187892D01*
Y-183227D01*
X17019Y-182060D01*
X14687D01*
X13520Y-183227D01*
Y-184393D01*
X14687Y-185559D01*
X18186D01*
X20518Y-183227D02*
X21684Y-182060D01*
X24017D01*
X25183Y-183227D01*
Y-187892D01*
X24017Y-189058D01*
X21684D01*
X20518Y-187892D01*
Y-183227D01*
X20836Y-169499D02*
Y-162501D01*
X24335D01*
X25501Y-163667D01*
Y-166000D01*
X24335Y-167166D01*
X20836D01*
X23168D02*
X25501Y-169499D01*
X27834Y-162501D02*
X32499D01*
Y-163667D01*
X27834Y-168333D01*
Y-169499D01*
X34832D02*
X37164D01*
X35998D01*
Y-162501D01*
X34832Y-163667D01*
G54D16*
X196888Y-199576D02*
X196310Y-197041D01*
X194688Y-195009D01*
X192346Y-193881D01*
X189746D01*
X187404Y-195009D01*
X185783Y-197041D01*
X185204Y-199576D01*
X185783Y-202111D01*
X187404Y-204143D01*
X189746Y-205271D01*
X192346D01*
X194688Y-204143D01*
X196310Y-202111D01*
X196888Y-199576D01*
X196842Y-146000D02*
X196264Y-143465D01*
X194642Y-141433D01*
X192300Y-140304D01*
X189700D01*
X187358Y-141433D01*
X185737Y-143465D01*
X185158Y-146000D01*
X185737Y-148535D01*
X187358Y-150567D01*
X189700Y-151695D01*
X192300D01*
X194642Y-150567D01*
X196264Y-148535D01*
X196842Y-146000D01*
X-97000Y-396650D02*
X-63135D01*
X-20865D02*
X172365D01*
X214635D02*
X243000D01*
X45635Y-281350D02*
X171365D01*
X-32865D02*
X4365D01*
X-84865D02*
X-51135D01*
X213635D02*
X243000D01*
X-97000Y-396650D02*
Y-302885D01*
X243000Y-396650D02*
Y-281350D01*
X-207700Y-411500D02*
Y-394135D01*
X-260000Y-411500D02*
Y-394135D01*
Y-353865D02*
Y-274000D01*
X-225835D01*
X-260000Y-411500D02*
X-207700D01*
X-207000Y-375000D02*
Y-322707D01*
X-208000Y-302559D02*
Y-287000D01*
X-261500Y-165000D02*
Y-151000D01*
X-261500Y-251000D02*
X-215500D01*
X-261500Y-151000D02*
X-215500D01*
Y-251000D02*
Y-151000D01*
X-256500Y-165000D02*
Y-151000D01*
X-261500Y-165000D02*
X-256500D01*
Y-201000D02*
Y-165000D01*
Y-237000D02*
Y-201000D01*
X-261500Y-237000D02*
X-256500D01*
Y-251000D02*
Y-237000D01*
X-261500Y-251000D02*
Y-237000D01*
X139500Y139000D02*
Y141800D01*
Y139000D02*
X142300D01*
X169500Y166200D02*
Y169000D01*
X166700D02*
X169500D01*
Y139000D02*
Y141800D01*
X166700Y139000D02*
X169500D01*
X139500Y166200D02*
Y169000D01*
X142300D01*
G54D17*
X-113500Y91000D02*
X-43590D01*
X-113410Y-11000D02*
X-43500D01*
X98500Y407500D02*
X118500D01*
X98500D02*
Y427500D01*
X73500D02*
X98500D01*
X73500Y407500D02*
Y427500D01*
X48500Y407500D02*
X73500D01*
X48500D02*
Y427500D01*
X23500D02*
X48500D01*
X23500Y390500D02*
Y427500D01*
X3500D02*
X23500D01*
X3500Y390500D02*
Y427500D01*
X118500Y407500D02*
Y427500D01*
X138500D01*
G54D18*
X-96000Y343000D02*
X-93000Y346000D01*
X-223930Y343000D02*
X-96000D01*
X-215000Y-252000D02*
X-209000D01*
X-202500Y-258500D01*
Y-299000D02*
Y-258500D01*
Y-299000D02*
X-200000Y-301500D01*
X-226930Y340000D02*
X-223930Y343000D01*
G54D19*
X-121848Y103809D02*
Y97461D01*
X-120578Y96191D01*
X-118039D01*
X-116770Y97461D01*
Y103809D01*
X-109152Y96191D02*
X-114230D01*
X-109152Y101270D01*
Y102539D01*
X-110422Y103809D01*
X-112961D01*
X-114230Y102539D01*
X175809Y59652D02*
X168191D01*
Y63461D01*
X169461Y64730D01*
X172000D01*
X173270Y63461D01*
Y59652D01*
Y62191D02*
X175809Y64730D01*
Y71078D02*
X168191D01*
X172000Y67270D01*
Y72348D01*
X213652Y-243809D02*
Y-236191D01*
X217461D01*
X218730Y-237461D01*
Y-240000D01*
X217461Y-241270D01*
X213652D01*
X216191D02*
X218730Y-243809D01*
X226348Y-236191D02*
X221270D01*
Y-240000D01*
X223809Y-238730D01*
X225078D01*
X226348Y-240000D01*
Y-242539D01*
X225078Y-243809D01*
X222539D01*
X221270Y-242539D01*
X-194390Y-269620D02*
X-195659Y-268351D01*
X-198198D01*
X-199468Y-269620D01*
Y-274698D01*
X-198198Y-275968D01*
X-195659D01*
X-194390Y-274698D01*
Y-272159D01*
X-196929D01*
X-191850Y-268351D02*
Y-275968D01*
X-188042D01*
X-186772Y-274698D01*
Y-269620D01*
X-188042Y-268351D01*
X-191850D01*
X-184233Y-275968D02*
X-181694D01*
X-182963D01*
Y-268351D01*
X-184233Y-269620D01*
X-194390Y-258620D02*
X-195659Y-257351D01*
X-198198D01*
X-199468Y-258620D01*
Y-263698D01*
X-198198Y-264968D01*
X-195659D01*
X-194390Y-263698D01*
Y-261159D01*
X-196929D01*
X-191850Y-257351D02*
Y-264968D01*
X-188042D01*
X-186772Y-263698D01*
Y-258620D01*
X-188042Y-257351D01*
X-191850D01*
X-184233Y-258620D02*
X-182963Y-257351D01*
X-180424D01*
X-179155Y-258620D01*
Y-263698D01*
X-180424Y-264968D01*
X-182963D01*
X-184233Y-263698D01*
Y-258620D01*
X-194390Y-291620D02*
X-195659Y-290350D01*
X-198198D01*
X-199468Y-291620D01*
Y-296698D01*
X-198198Y-297968D01*
X-195659D01*
X-194390Y-296698D01*
Y-294159D01*
X-196929D01*
X-191850Y-297968D02*
Y-290350D01*
X-186772Y-297968D01*
Y-290350D01*
X-184233D02*
Y-297968D01*
X-180424D01*
X-179155Y-296698D01*
Y-291620D01*
X-180424Y-290350D01*
X-184233D01*
X-199468Y-280620D02*
X-198198Y-279350D01*
X-195659D01*
X-194390Y-280620D01*
Y-281890D01*
X-195659Y-283159D01*
X-196929D01*
X-195659D01*
X-194390Y-284429D01*
Y-285698D01*
X-195659Y-286968D01*
X-198198D01*
X-199468Y-285698D01*
X-191850Y-279350D02*
Y-284429D01*
X-189311Y-286968D01*
X-186772Y-284429D01*
Y-279350D01*
X-184233Y-280620D02*
X-182963Y-279350D01*
X-180424D01*
X-179155Y-280620D01*
Y-281890D01*
X-180424Y-283159D01*
X-181694D01*
X-180424D01*
X-179155Y-284429D01*
Y-285698D01*
X-180424Y-286968D01*
X-182963D01*
X-184233Y-285698D01*
X-199380Y325110D02*
X-200650Y323841D01*
Y321302D01*
X-199380Y320032D01*
X-198110D01*
X-196841Y321302D01*
Y323841D01*
X-195571Y325110D01*
X-194302D01*
X-193032Y323841D01*
Y321302D01*
X-194302Y320032D01*
X-200650Y327649D02*
X-193032D01*
Y331458D01*
X-194302Y332728D01*
X-199380D01*
X-200650Y331458D01*
Y327649D01*
X-193032Y335267D02*
X-198110D01*
X-200650Y337806D01*
X-198110Y340345D01*
X-193032D01*
X-196841D01*
Y335267D01*
X-222380Y325110D02*
X-223650Y323841D01*
Y321302D01*
X-222380Y320032D01*
X-217302D01*
X-216032Y321302D01*
Y323841D01*
X-217302Y325110D01*
X-219841D01*
Y322571D01*
X-216032Y327649D02*
X-223650D01*
X-216032Y332728D01*
X-223650D01*
Y335267D02*
X-216032D01*
Y339076D01*
X-217302Y340345D01*
X-222380D01*
X-223650Y339076D01*
Y335267D01*
X-187380Y325110D02*
X-188650Y323841D01*
Y321302D01*
X-187380Y320032D01*
X-182302D01*
X-181032Y321302D01*
Y323841D01*
X-182302Y325110D01*
X-188650Y327649D02*
X-181032D01*
Y332728D01*
X-188650Y335267D02*
X-181032D01*
X-183571D01*
X-188650Y340345D01*
X-184841Y336537D01*
X-181032Y340345D01*
X-210711Y320032D02*
X-211981Y321302D01*
Y323841D01*
X-210711Y325110D01*
X-209442D01*
X-208172Y323841D01*
Y322571D01*
Y323841D01*
X-206903Y325110D01*
X-205633D01*
X-204363Y323841D01*
Y321302D01*
X-205633Y320032D01*
X-211981Y327649D02*
X-206903D01*
X-204363Y330189D01*
X-206903Y332728D01*
X-211981D01*
X-210711Y335267D02*
X-211981Y336537D01*
Y339076D01*
X-210711Y340345D01*
X-209442D01*
X-208172Y339076D01*
Y337806D01*
Y339076D01*
X-206903Y340345D01*
X-205633D01*
X-204363Y339076D01*
Y336537D01*
X-205633Y335267D01*
X-22157Y-178809D02*
Y-171191D01*
X-18348D01*
X-17078Y-172461D01*
Y-175000D01*
X-18348Y-176270D01*
X-22157D01*
X-19618D02*
X-17078Y-178809D01*
X-9461D02*
X-14539D01*
X-9461Y-173730D01*
Y-172461D01*
X-10730Y-171191D01*
X-13270D01*
X-14539Y-172461D01*
X-1843Y-171191D02*
X-4382Y-172461D01*
X-6922Y-175000D01*
Y-177539D01*
X-5652Y-178809D01*
X-3113D01*
X-1843Y-177539D01*
Y-176270D01*
X-3113Y-175000D01*
X-6922D01*
X175809Y32843D02*
X168191D01*
Y36652D01*
X169461Y37922D01*
X172000D01*
X173270Y36652D01*
Y32843D01*
Y35382D02*
X175809Y37922D01*
Y45539D02*
Y40461D01*
X170730Y45539D01*
X169461D01*
X168191Y44270D01*
Y41730D01*
X169461Y40461D01*
X168191Y53157D02*
Y48078D01*
X172000D01*
X170730Y50618D01*
Y51887D01*
X172000Y53157D01*
X174539D01*
X175809Y51887D01*
Y49348D01*
X174539Y48078D01*
X51343Y38191D02*
Y45809D01*
X55152D01*
X56422Y44539D01*
Y42000D01*
X55152Y40730D01*
X51343D01*
X53882D02*
X56422Y38191D01*
X64039D02*
X58961D01*
X64039Y43270D01*
Y44539D01*
X62770Y45809D01*
X60230D01*
X58961Y44539D01*
X70387Y38191D02*
Y45809D01*
X66578Y42000D01*
X71657D01*
X-220191Y-134157D02*
X-227809D01*
Y-130348D01*
X-226539Y-129078D01*
X-224000D01*
X-222730Y-130348D01*
Y-134157D01*
Y-131617D02*
X-220191Y-129078D01*
Y-121461D02*
Y-126539D01*
X-225270Y-121461D01*
X-226539D01*
X-227809Y-122730D01*
Y-125270D01*
X-226539Y-126539D01*
Y-118922D02*
X-227809Y-117652D01*
Y-115113D01*
X-226539Y-113843D01*
X-225270D01*
X-224000Y-115113D01*
Y-116382D01*
Y-115113D01*
X-222730Y-113843D01*
X-221461D01*
X-220191Y-115113D01*
Y-117652D01*
X-221461Y-118922D01*
X-251924Y-132272D02*
X-244306D01*
Y-128463D01*
X-245576Y-127193D01*
X-250654D01*
X-251924Y-128463D01*
Y-132272D01*
X-244306Y-124654D02*
Y-122115D01*
Y-123385D01*
X-251924D01*
X-250654Y-124654D01*
Y-118306D02*
X-251924Y-117037D01*
Y-114498D01*
X-250654Y-113228D01*
X-249385D01*
X-248115Y-114498D01*
Y-115767D01*
Y-114498D01*
X-246846Y-113228D01*
X-245576D01*
X-244306Y-114498D01*
Y-117037D01*
X-245576Y-118306D01*
X-129191Y-249078D02*
X-136809D01*
Y-245270D01*
X-135539Y-244000D01*
X-133000D01*
X-131730Y-245270D01*
Y-249078D01*
X-129191Y-241461D02*
Y-238922D01*
Y-240191D01*
X-136809D01*
X-135539Y-241461D01*
X-140191Y-249348D02*
X-147809D01*
Y-245539D01*
X-146539Y-244270D01*
X-144000D01*
X-142730Y-245539D01*
Y-249348D01*
X-146539Y-241730D02*
X-147809Y-240461D01*
Y-237922D01*
X-146539Y-236652D01*
X-145270D01*
X-144000Y-237922D01*
Y-239191D01*
Y-237922D01*
X-142730Y-236652D01*
X-141461D01*
X-140191Y-237922D01*
Y-240461D01*
X-141461Y-241730D01*
X218500Y385809D02*
X215961D01*
X217230D01*
Y379461D01*
X215961Y378191D01*
X214691D01*
X213422Y379461D01*
X221039Y378191D02*
X223578D01*
X222309D01*
Y385809D01*
X221039Y384539D01*
X-116788Y251531D02*
X-124406D01*
Y255340D01*
X-123136Y256609D01*
X-120597D01*
X-119328Y255340D01*
Y251531D01*
Y254070D02*
X-116788Y256609D01*
X-124406Y264227D02*
Y259149D01*
X-120597D01*
X-121867Y261688D01*
Y262957D01*
X-120597Y264227D01*
X-118058D01*
X-116788Y262957D01*
Y260418D01*
X-118058Y259149D01*
X-116788Y271845D02*
Y266766D01*
X-121867Y271845D01*
X-123136D01*
X-124406Y270575D01*
Y268036D01*
X-123136Y266766D01*
X-104191Y252113D02*
X-111809D01*
Y255922D01*
X-110539Y257191D01*
X-108000D01*
X-106730Y255922D01*
Y252113D01*
Y254652D02*
X-104191Y257191D01*
X-111809Y264809D02*
Y259730D01*
X-108000D01*
X-109270Y262270D01*
Y263539D01*
X-108000Y264809D01*
X-105461D01*
X-104191Y263539D01*
Y261000D01*
X-105461Y259730D01*
X-104191Y267348D02*
Y269887D01*
Y268618D01*
X-111809D01*
X-110539Y267348D01*
X-107522Y310809D02*
Y303191D01*
X-103713D01*
X-102444Y304461D01*
Y309539D01*
X-103713Y310809D01*
X-107522D01*
X-99904Y303191D02*
X-97365D01*
X-98635D01*
Y310809D01*
X-99904Y309539D01*
X-88478Y303191D02*
X-93556D01*
X-88478Y308270D01*
Y309539D01*
X-89748Y310809D01*
X-92287D01*
X-93556Y309539D01*
X-133252Y310809D02*
Y303191D01*
X-129444D01*
X-128174Y304461D01*
Y309539D01*
X-129444Y310809D01*
X-133252D01*
X-125635Y303191D02*
X-123096D01*
X-124365D01*
Y310809D01*
X-125635Y309539D01*
X-119287Y303191D02*
X-116748D01*
X-118017D01*
Y310809D01*
X-119287Y309539D01*
X-202039Y-206078D02*
X-203309Y-207348D01*
Y-209887D01*
X-202039Y-211157D01*
X-196961D01*
X-195691Y-209887D01*
Y-207348D01*
X-196961Y-206078D01*
X-195691Y-199730D02*
X-203309D01*
X-199500Y-203539D01*
Y-198461D01*
X-195691Y-192113D02*
X-203309D01*
X-199500Y-195922D01*
Y-190843D01*
X-187578Y-239461D02*
X-188848Y-238191D01*
X-191387D01*
X-192657Y-239461D01*
Y-244539D01*
X-191387Y-245809D01*
X-188848D01*
X-187578Y-244539D01*
X-181230Y-245809D02*
Y-238191D01*
X-185039Y-242000D01*
X-179961D01*
X-177422Y-239461D02*
X-176152Y-238191D01*
X-173613D01*
X-172343Y-239461D01*
Y-240730D01*
X-173613Y-242000D01*
X-174883D01*
X-173613D01*
X-172343Y-243270D01*
Y-244539D01*
X-173613Y-245809D01*
X-176152D01*
X-177422Y-244539D01*
X-53191Y176843D02*
X-60809D01*
Y180652D01*
X-59539Y181922D01*
X-57000D01*
X-55730Y180652D01*
Y176843D01*
Y179382D02*
X-53191Y181922D01*
X-60809Y189539D02*
Y184461D01*
X-57000D01*
X-58270Y187000D01*
Y188270D01*
X-57000Y189539D01*
X-54461D01*
X-53191Y188270D01*
Y185730D01*
X-54461Y184461D01*
X-59539Y192078D02*
X-60809Y193348D01*
Y195887D01*
X-59539Y197157D01*
X-54461D01*
X-53191Y195887D01*
Y193348D01*
X-54461Y192078D01*
X-59539D01*
X-41191Y176843D02*
X-48809D01*
Y180652D01*
X-47539Y181922D01*
X-45000D01*
X-43730Y180652D01*
Y176843D01*
Y179382D02*
X-41191Y181922D01*
Y188270D02*
X-48809D01*
X-45000Y184461D01*
Y189539D01*
X-42461Y192078D02*
X-41191Y193348D01*
Y195887D01*
X-42461Y197157D01*
X-47539D01*
X-48809Y195887D01*
Y193348D01*
X-47539Y192078D01*
X-46270D01*
X-45000Y193348D01*
Y197157D01*
X137852Y-125905D02*
Y-123366D01*
Y-124636D01*
X145470D01*
Y-125905D01*
Y-123366D01*
X139122Y-114479D02*
X137852Y-115749D01*
Y-118288D01*
X139122Y-119557D01*
X144200D01*
X145470Y-118288D01*
Y-115749D01*
X144200Y-114479D01*
Y-111940D02*
X145470Y-110670D01*
Y-108131D01*
X144200Y-106861D01*
X139122D01*
X137852Y-108131D01*
Y-110670D01*
X139122Y-111940D01*
X140391D01*
X141661Y-110670D01*
Y-106861D01*
X145843Y-144809D02*
Y-137191D01*
X149652D01*
X150922Y-138461D01*
Y-141000D01*
X149652Y-142270D01*
X145843D01*
X148383D02*
X150922Y-144809D01*
X157270D02*
Y-137191D01*
X153461Y-141000D01*
X158539D01*
X161078Y-138461D02*
X162348Y-137191D01*
X164887D01*
X166157Y-138461D01*
Y-139730D01*
X164887Y-141000D01*
X166157Y-142270D01*
Y-143539D01*
X164887Y-144809D01*
X162348D01*
X161078Y-143539D01*
Y-142270D01*
X162348Y-141000D01*
X161078Y-139730D01*
Y-138461D01*
X162348Y-141000D02*
X164887D01*
X196809Y-127157D02*
X189191D01*
Y-123348D01*
X190461Y-122078D01*
X193000D01*
X194270Y-123348D01*
Y-127157D01*
Y-124618D02*
X196809Y-122078D01*
Y-115730D02*
X189191D01*
X193000Y-119539D01*
Y-114461D01*
X189191Y-111922D02*
Y-106843D01*
X190461D01*
X195539Y-111922D01*
X196809D01*
X51343Y49191D02*
Y56809D01*
X55152D01*
X56422Y55539D01*
Y53000D01*
X55152Y51730D01*
X51343D01*
X53882D02*
X56422Y49191D01*
X62770D02*
Y56809D01*
X58961Y53000D01*
X64039D01*
X71657Y56809D02*
X69118Y55539D01*
X66578Y53000D01*
Y50461D01*
X67848Y49191D01*
X70387D01*
X71657Y50461D01*
Y51730D01*
X70387Y53000D01*
X66578D01*
X42691Y-10825D02*
X50309D01*
Y-5747D01*
X42691Y-3207D02*
Y1871D01*
X43961D01*
X49039Y-3207D01*
X50309D01*
X144922Y-76461D02*
X143652Y-75191D01*
X141113D01*
X139843Y-76461D01*
Y-81539D01*
X141113Y-82809D01*
X143652D01*
X144922Y-81539D01*
X151270Y-82809D02*
Y-75191D01*
X147461Y-79000D01*
X152539D01*
X160157Y-82809D02*
X155078D01*
X160157Y-77730D01*
Y-76461D01*
X158887Y-75191D01*
X156348D01*
X155078Y-76461D01*
X145191Y-65461D02*
X143922Y-64191D01*
X141383D01*
X140113Y-65461D01*
Y-70539D01*
X141383Y-71809D01*
X143922D01*
X145191Y-70539D01*
X151539Y-71809D02*
Y-64191D01*
X147730Y-68000D01*
X152809D01*
X155348Y-71809D02*
X157887D01*
X156617D01*
Y-64191D01*
X155348Y-65461D01*
X22922Y-2461D02*
X21652Y-1191D01*
X19113D01*
X17843Y-2461D01*
Y-7539D01*
X19113Y-8809D01*
X21652D01*
X22922Y-7539D01*
X29270Y-8809D02*
Y-1191D01*
X25461Y-5000D01*
X30539D01*
X33078Y-2461D02*
X34348Y-1191D01*
X36887D01*
X38157Y-2461D01*
Y-7539D01*
X36887Y-8809D01*
X34348D01*
X33078Y-7539D01*
Y-2461D01*
X56422Y33539D02*
X55152Y34809D01*
X52613D01*
X51343Y33539D01*
Y28461D01*
X52613Y27191D01*
X55152D01*
X56422Y28461D01*
X58961Y33539D02*
X60230Y34809D01*
X62770D01*
X64039Y33539D01*
Y32270D01*
X62770Y31000D01*
X61500D01*
X62770D01*
X64039Y29730D01*
Y28461D01*
X62770Y27191D01*
X60230D01*
X58961Y28461D01*
X66578D02*
X67848Y27191D01*
X70387D01*
X71657Y28461D01*
Y33539D01*
X70387Y34809D01*
X67848D01*
X66578Y33539D01*
Y32270D01*
X67848Y31000D01*
X71657D01*
X-32907Y-255059D02*
Y-247441D01*
X-29098D01*
X-27828Y-248711D01*
Y-251250D01*
X-29098Y-252520D01*
X-32907D01*
X-30368D02*
X-27828Y-255059D01*
X-25289Y-248711D02*
X-24020Y-247441D01*
X-21480D01*
X-20211Y-248711D01*
Y-249980D01*
X-21480Y-251250D01*
X-20211Y-252520D01*
Y-253789D01*
X-21480Y-255059D01*
X-24020D01*
X-25289Y-253789D01*
Y-252520D01*
X-24020Y-251250D01*
X-25289Y-249980D01*
Y-248711D01*
X-24020Y-251250D02*
X-21480D01*
X-17672Y-248711D02*
X-16402Y-247441D01*
X-13863D01*
X-12593Y-248711D01*
Y-249980D01*
X-13863Y-251250D01*
X-15132D01*
X-13863D01*
X-12593Y-252520D01*
Y-253789D01*
X-13863Y-255059D01*
X-16402D01*
X-17672Y-253789D01*
X-222691Y-363157D02*
X-230309D01*
Y-359348D01*
X-229039Y-358078D01*
X-226500D01*
X-225230Y-359348D01*
Y-363157D01*
Y-360617D02*
X-222691Y-358078D01*
X-230309Y-350461D02*
X-229039Y-353000D01*
X-226500Y-355539D01*
X-223961D01*
X-222691Y-354270D01*
Y-351730D01*
X-223961Y-350461D01*
X-225230D01*
X-226500Y-351730D01*
Y-355539D01*
X-223961Y-347922D02*
X-222691Y-346652D01*
Y-344113D01*
X-223961Y-342843D01*
X-229039D01*
X-230309Y-344113D01*
Y-346652D01*
X-229039Y-347922D01*
X-227770D01*
X-226500Y-346652D01*
Y-342843D01*
X-240039Y-401078D02*
X-241309Y-402348D01*
Y-404887D01*
X-240039Y-406157D01*
X-234961D01*
X-233691Y-404887D01*
Y-402348D01*
X-234961Y-401078D01*
X-240039Y-398539D02*
X-241309Y-397270D01*
Y-394730D01*
X-240039Y-393461D01*
X-238770D01*
X-237500Y-394730D01*
X-236230Y-393461D01*
X-234961D01*
X-233691Y-394730D01*
Y-397270D01*
X-234961Y-398539D01*
X-236230D01*
X-237500Y-397270D01*
X-238770Y-398539D01*
X-240039D01*
X-237500Y-397270D02*
Y-394730D01*
X-240039Y-390922D02*
X-241309Y-389652D01*
Y-387113D01*
X-240039Y-385843D01*
X-238770D01*
X-237500Y-387113D01*
X-236230Y-385843D01*
X-234961D01*
X-233691Y-387113D01*
Y-389652D01*
X-234961Y-390922D01*
X-236230D01*
X-237500Y-389652D01*
X-238770Y-390922D01*
X-240039D01*
X-237500Y-389652D02*
Y-387113D01*
X-224078Y-333461D02*
X-225348Y-332191D01*
X-227887D01*
X-229157Y-333461D01*
Y-338539D01*
X-227887Y-339809D01*
X-225348D01*
X-224078Y-338539D01*
X-221539Y-333461D02*
X-220270Y-332191D01*
X-217730D01*
X-216461Y-333461D01*
Y-334730D01*
X-217730Y-336000D01*
X-216461Y-337270D01*
Y-338539D01*
X-217730Y-339809D01*
X-220270D01*
X-221539Y-338539D01*
Y-337270D01*
X-220270Y-336000D01*
X-221539Y-334730D01*
Y-333461D01*
X-220270Y-336000D02*
X-217730D01*
X-213922Y-332191D02*
X-208843D01*
Y-333461D01*
X-213922Y-338539D01*
Y-339809D01*
X-22000Y-133000D02*
Y-125382D01*
X-18191D01*
X-16922Y-126652D01*
Y-129191D01*
X-18191Y-130461D01*
X-22000D01*
X-19461D02*
X-16922Y-133000D01*
X-14382Y-125382D02*
X-9304D01*
Y-126652D01*
X-14382Y-131730D01*
Y-133000D01*
X-2956D02*
Y-125382D01*
X-6765Y-129191D01*
X-1687D01*
X84667Y-224665D02*
X83501Y-225832D01*
Y-228164D01*
X84667Y-229330D01*
X89333D01*
X90499Y-228164D01*
Y-225832D01*
X89333Y-224665D01*
X84667Y-222333D02*
X83501Y-221166D01*
Y-218834D01*
X84667Y-217667D01*
X85834D01*
X87000Y-218834D01*
X88166Y-217667D01*
X89333D01*
X90499Y-218834D01*
Y-221166D01*
X89333Y-222333D01*
X88166D01*
X87000Y-221166D01*
X85834Y-222333D01*
X84667D01*
X87000Y-221166D02*
Y-218834D01*
X90499Y-210670D02*
Y-215335D01*
X85834Y-210670D01*
X84667D01*
X83501Y-211836D01*
Y-214169D01*
X84667Y-215335D01*
X52067Y-215359D02*
X54606D01*
X53336D01*
Y-222976D01*
X52067D01*
X54606D01*
X63493Y-216628D02*
X62223Y-215359D01*
X59684D01*
X58415Y-216628D01*
Y-221707D01*
X59684Y-222976D01*
X62223D01*
X63493Y-221707D01*
X66032Y-215359D02*
X71111D01*
Y-216628D01*
X66032Y-221707D01*
Y-222976D01*
X26501Y-152747D02*
Y-150415D01*
Y-151581D01*
X33499D01*
Y-152747D01*
Y-150415D01*
X27667Y-142251D02*
X26501Y-143417D01*
Y-145749D01*
X27667Y-146916D01*
X32332D01*
X33499Y-145749D01*
Y-143417D01*
X32332Y-142251D01*
X26501Y-135253D02*
X27667Y-137585D01*
X30000Y-139918D01*
X32332D01*
X33499Y-138752D01*
Y-136419D01*
X32332Y-135253D01*
X31166D01*
X30000Y-136419D01*
Y-139918D01*
X97335Y-200667D02*
X96168Y-199501D01*
X93836D01*
X92670Y-200667D01*
Y-205333D01*
X93836Y-206499D01*
X96168D01*
X97335Y-205333D01*
X99667Y-200667D02*
X100834Y-199501D01*
X103166D01*
X104333Y-200667D01*
Y-201834D01*
X103166Y-203000D01*
X104333Y-204166D01*
Y-205333D01*
X103166Y-206499D01*
X100834D01*
X99667Y-205333D01*
Y-204166D01*
X100834Y-203000D01*
X99667Y-201834D01*
Y-200667D01*
X100834Y-203000D02*
X103166D01*
X106665Y-200667D02*
X107831Y-199501D01*
X110164D01*
X111330Y-200667D01*
Y-205333D01*
X110164Y-206499D01*
X107831D01*
X106665Y-205333D01*
Y-200667D01*
X97335Y-189667D02*
X96168Y-188501D01*
X93836D01*
X92670Y-189667D01*
Y-194333D01*
X93836Y-195499D01*
X96168D01*
X97335Y-194333D01*
X99667Y-188501D02*
X104333D01*
Y-189667D01*
X99667Y-194333D01*
Y-195499D01*
X106665Y-194333D02*
X107831Y-195499D01*
X110164D01*
X111330Y-194333D01*
Y-189667D01*
X110164Y-188501D01*
X107831D01*
X106665Y-189667D01*
Y-190834D01*
X107831Y-192000D01*
X111330D01*
X82501Y-195499D02*
Y-200164D01*
X86000D01*
Y-197831D01*
Y-200164D01*
X89499D01*
X82501Y-193166D02*
X89499D01*
Y-188501D01*
Y-186168D02*
Y-183836D01*
Y-185002D01*
X82501D01*
X83667Y-186168D01*
X19191Y-98461D02*
X17922Y-97191D01*
X15382D01*
X14113Y-98461D01*
Y-103539D01*
X15382Y-104809D01*
X17922D01*
X19191Y-103539D01*
X21730Y-98461D02*
X23000Y-97191D01*
X25539D01*
X26809Y-98461D01*
Y-99730D01*
X25539Y-101000D01*
X26809Y-102270D01*
Y-103539D01*
X25539Y-104809D01*
X23000D01*
X21730Y-103539D01*
Y-102270D01*
X23000Y-101000D01*
X21730Y-99730D01*
Y-98461D01*
X23000Y-101000D02*
X25539D01*
X29348Y-104809D02*
X31887D01*
X30617D01*
Y-97191D01*
X29348Y-98461D01*
X18922Y-109461D02*
X17652Y-108191D01*
X15113D01*
X13843Y-109461D01*
Y-114539D01*
X15113Y-115809D01*
X17652D01*
X18922Y-114539D01*
X21461Y-109461D02*
X22730Y-108191D01*
X25270D01*
X26539Y-109461D01*
Y-110730D01*
X25270Y-112000D01*
X26539Y-113270D01*
Y-114539D01*
X25270Y-115809D01*
X22730D01*
X21461Y-114539D01*
Y-113270D01*
X22730Y-112000D01*
X21461Y-110730D01*
Y-109461D01*
X22730Y-112000D02*
X25270D01*
X29078Y-109461D02*
X30348Y-108191D01*
X32887D01*
X34157Y-109461D01*
Y-110730D01*
X32887Y-112000D01*
X31618D01*
X32887D01*
X34157Y-113270D01*
Y-114539D01*
X32887Y-115809D01*
X30348D01*
X29078Y-114539D01*
X89797Y-114563D02*
X88527Y-113293D01*
X85988D01*
X84718Y-114563D01*
Y-119641D01*
X85988Y-120911D01*
X88527D01*
X89797Y-119641D01*
X92336Y-114563D02*
X93605Y-113293D01*
X96145D01*
X97414Y-114563D01*
Y-115833D01*
X96145Y-117102D01*
X97414Y-118372D01*
Y-119641D01*
X96145Y-120911D01*
X93605D01*
X92336Y-119641D01*
Y-118372D01*
X93605Y-117102D01*
X92336Y-115833D01*
Y-114563D01*
X93605Y-117102D02*
X96145D01*
X105032Y-113293D02*
X102493Y-114563D01*
X99953Y-117102D01*
Y-119641D01*
X101223Y-120911D01*
X103762D01*
X105032Y-119641D01*
Y-118372D01*
X103762Y-117102D01*
X99953D01*
X106667Y-180665D02*
X105501Y-181831D01*
Y-184164D01*
X106667Y-185330D01*
X111333D01*
X112499Y-184164D01*
Y-181831D01*
X111333Y-180665D01*
X106667Y-178333D02*
X105501Y-177166D01*
Y-174834D01*
X106667Y-173667D01*
X107834D01*
X109000Y-174834D01*
X110166Y-173667D01*
X111333D01*
X112499Y-174834D01*
Y-177166D01*
X111333Y-178333D01*
X110166D01*
X109000Y-177166D01*
X107834Y-178333D01*
X106667D01*
X109000Y-177166D02*
Y-174834D01*
X111333Y-171335D02*
X112499Y-170168D01*
Y-167836D01*
X111333Y-166670D01*
X106667D01*
X105501Y-167836D01*
Y-170168D01*
X106667Y-171335D01*
X107834D01*
X109000Y-170168D01*
Y-166670D01*
X48253Y-166501D02*
Y-173499D01*
X52918D01*
X55251D02*
X57583D01*
X56417D01*
Y-166501D01*
X55251Y-167667D01*
X65747Y-173499D02*
X61082D01*
X65747Y-168834D01*
Y-167667D01*
X64581Y-166501D01*
X62248D01*
X61082Y-167667D01*
X93478Y-81191D02*
Y-88809D01*
X98556D01*
X101096D02*
X103635D01*
X102365D01*
Y-81191D01*
X101096Y-82461D01*
X107444D02*
X108713Y-81191D01*
X111252D01*
X112522Y-82461D01*
Y-83730D01*
X111252Y-85000D01*
X109983D01*
X111252D01*
X112522Y-86270D01*
Y-87539D01*
X111252Y-88809D01*
X108713D01*
X107444Y-87539D01*
X93478Y-93191D02*
Y-100809D01*
X98556D01*
X101096D02*
X103635D01*
X102365D01*
Y-93191D01*
X101096Y-94461D01*
X111252Y-100809D02*
Y-93191D01*
X107444Y-97000D01*
X112522D01*
X111191Y-144348D02*
X112461D01*
X115000Y-141809D01*
X112461Y-139270D01*
X111191D01*
X115000Y-141809D02*
X118809D01*
Y-131652D02*
Y-136730D01*
X113730Y-131652D01*
X112461D01*
X111191Y-132922D01*
Y-135461D01*
X112461Y-136730D01*
X-22157Y-166809D02*
Y-159191D01*
X-18348D01*
X-17078Y-160461D01*
Y-163000D01*
X-18348Y-164270D01*
X-22157D01*
X-19618D02*
X-17078Y-166809D01*
X-14539Y-159191D02*
X-9461D01*
Y-160461D01*
X-14539Y-165539D01*
Y-166809D01*
X-6922Y-160461D02*
X-5652Y-159191D01*
X-3113D01*
X-1843Y-160461D01*
Y-165539D01*
X-3113Y-166809D01*
X-5652D01*
X-6922Y-165539D01*
Y-160461D01*
X-22157Y-154809D02*
Y-147191D01*
X-18348D01*
X-17078Y-148461D01*
Y-151000D01*
X-18348Y-152269D01*
X-22157D01*
X-19618D02*
X-17078Y-154809D01*
X-14539Y-147191D02*
X-9461D01*
Y-148461D01*
X-14539Y-153539D01*
Y-154809D01*
X-1843D02*
X-6922D01*
X-1843Y-149730D01*
Y-148461D01*
X-3113Y-147191D01*
X-5652D01*
X-6922Y-148461D01*
X-22157Y-143809D02*
Y-136191D01*
X-18348D01*
X-17078Y-137461D01*
Y-140000D01*
X-18348Y-141270D01*
X-22157D01*
X-19618D02*
X-17078Y-143809D01*
X-14539Y-136191D02*
X-9461D01*
Y-137461D01*
X-14539Y-142539D01*
Y-143809D01*
X-6922Y-137461D02*
X-5652Y-136191D01*
X-3113D01*
X-1843Y-137461D01*
Y-138730D01*
X-3113Y-140000D01*
X-4382D01*
X-3113D01*
X-1843Y-141270D01*
Y-142539D01*
X-3113Y-143809D01*
X-5652D01*
X-6922Y-142539D01*
X85461Y-74252D02*
X84191Y-75522D01*
Y-78061D01*
X85461Y-79331D01*
X90539D01*
X91809Y-78061D01*
Y-75522D01*
X90539Y-74252D01*
X91809Y-71713D02*
Y-69174D01*
Y-70444D01*
X84191D01*
X85461Y-71713D01*
Y-65365D02*
X84191Y-64096D01*
Y-61556D01*
X85461Y-60287D01*
X90539D01*
X91809Y-61556D01*
Y-64096D01*
X90539Y-65365D01*
X85461D01*
X91809Y-52669D02*
Y-57748D01*
X86730Y-52669D01*
X85461D01*
X84191Y-53939D01*
Y-56478D01*
X85461Y-57748D01*
X18748Y-65461D02*
X17478Y-64191D01*
X14939D01*
X13669Y-65461D01*
Y-70539D01*
X14939Y-71809D01*
X17478D01*
X18748Y-70539D01*
X21287Y-71809D02*
X23826D01*
X22556D01*
Y-64191D01*
X21287Y-65461D01*
X27635D02*
X28904Y-64191D01*
X31444D01*
X32713Y-65461D01*
Y-70539D01*
X31444Y-71809D01*
X28904D01*
X27635Y-70539D01*
Y-65461D01*
X35252D02*
X36522Y-64191D01*
X39061D01*
X40331Y-65461D01*
Y-66730D01*
X39061Y-68000D01*
X37792D01*
X39061D01*
X40331Y-69270D01*
Y-70539D01*
X39061Y-71809D01*
X36522D01*
X35252Y-70539D01*
X45478Y-51191D02*
Y-58809D01*
X50556D01*
X53096D02*
X55635D01*
X54365D01*
Y-51191D01*
X53096Y-52461D01*
X59444Y-51191D02*
X64522D01*
Y-52461D01*
X59444Y-57539D01*
Y-58809D01*
X-24157Y-122809D02*
Y-115191D01*
X-20348D01*
X-19078Y-116461D01*
Y-119000D01*
X-20348Y-120270D01*
X-24157D01*
X-21618D02*
X-19078Y-122809D01*
X-16539Y-116461D02*
X-15270Y-115191D01*
X-12730D01*
X-11461Y-116461D01*
Y-117730D01*
X-12730Y-119000D01*
X-14000D01*
X-12730D01*
X-11461Y-120270D01*
Y-121539D01*
X-12730Y-122809D01*
X-15270D01*
X-16539Y-121539D01*
X-3843Y-115191D02*
X-8922D01*
Y-119000D01*
X-6382Y-117730D01*
X-5113D01*
X-3843Y-119000D01*
Y-121539D01*
X-5113Y-122809D01*
X-7652D01*
X-8922Y-121539D01*
X-28809Y-31461D02*
X-30078Y-30191D01*
X-32617D01*
X-33887Y-31461D01*
Y-32730D01*
X-32617Y-34000D01*
X-30078D01*
X-28809Y-35270D01*
Y-36539D01*
X-30078Y-37809D01*
X-32617D01*
X-33887Y-36539D01*
X-26270Y-30191D02*
Y-37809D01*
Y-34000D01*
X-21191D01*
Y-30191D01*
Y-37809D01*
X-18652D02*
X-16113D01*
X-17383D01*
Y-30191D01*
X-18652Y-31461D01*
X-21284Y-199898D02*
X-24875Y-203489D01*
X-22182Y-206182D01*
X-20386Y-204386D01*
X-22182Y-206182D01*
X-19489Y-208875D01*
Y-198102D02*
X-14102Y-203489D01*
X-10511Y-199898D01*
X-5125Y-194511D02*
X-8716Y-198102D01*
Y-190920D01*
X-9614Y-190023D01*
X-11409D01*
X-13204Y-191818D01*
Y-193614D01*
X31205Y-204614D02*
X31205Y-202818D01*
X29409Y-201023D01*
X27614D01*
X24023Y-204614D01*
Y-206409D01*
X25818Y-208205D01*
X27614Y-208204D01*
X33000Y-206409D02*
X34795D01*
X36591Y-208205D01*
X36591Y-210000D01*
X35693Y-210898D01*
X33898D01*
X33898Y-212693D01*
X33000Y-213591D01*
X31205Y-213591D01*
X29409Y-211796D01*
Y-210000D01*
X30307Y-209102D01*
X32102D01*
X32102Y-207307D01*
X33000Y-206409D01*
X32102Y-209102D02*
X33898Y-210898D01*
X36591Y-218977D02*
X41977Y-213591D01*
X36591Y-213591D01*
X40182Y-217182D01*
X-128441Y-274907D02*
X-136059D01*
Y-271098D01*
X-134789Y-269828D01*
X-132250D01*
X-130980Y-271098D01*
Y-274907D01*
Y-272367D02*
X-128441Y-269828D01*
X-134789Y-267289D02*
X-136059Y-266020D01*
Y-263480D01*
X-134789Y-262211D01*
X-133520D01*
X-132250Y-263480D01*
X-130980Y-262211D01*
X-129711D01*
X-128441Y-263480D01*
Y-266020D01*
X-129711Y-267289D01*
X-130980D01*
X-132250Y-266020D01*
X-133520Y-267289D01*
X-134789D01*
X-132250Y-266020D02*
Y-263480D01*
X-128441Y-255863D02*
X-136059D01*
X-132250Y-259672D01*
Y-254593D01*
X-8441Y-277907D02*
X-16059D01*
Y-274098D01*
X-14789Y-272828D01*
X-12250D01*
X-10980Y-274098D01*
Y-277907D01*
Y-275368D02*
X-8441Y-272828D01*
X-16059Y-270289D02*
Y-265211D01*
X-14789D01*
X-9711Y-270289D01*
X-8441D01*
X-16059Y-257593D02*
Y-262672D01*
X-12250D01*
X-13520Y-260132D01*
Y-258863D01*
X-12250Y-257593D01*
X-9711D01*
X-8441Y-258863D01*
Y-261402D01*
X-9711Y-262672D01*
X-252Y-271461D02*
X-1522Y-270191D01*
X-4061D01*
X-5331Y-271461D01*
Y-276539D01*
X-4061Y-277809D01*
X-1522D01*
X-252Y-276539D01*
X2287Y-277809D02*
X4826D01*
X3557D01*
Y-270191D01*
X2287Y-271461D01*
X8635D02*
X9904Y-270191D01*
X12444D01*
X13713Y-271461D01*
Y-276539D01*
X12444Y-277809D01*
X9904D01*
X8635Y-276539D01*
Y-271461D01*
X16252D02*
X17522Y-270191D01*
X20061D01*
X21331Y-271461D01*
Y-276539D01*
X20061Y-277809D01*
X17522D01*
X16252Y-276539D01*
Y-271461D01*
X-78Y-258211D02*
X-1348Y-256941D01*
X-3887D01*
X-5157Y-258211D01*
Y-263289D01*
X-3887Y-264559D01*
X-1348D01*
X-78Y-263289D01*
X2461D02*
X3730Y-264559D01*
X6270D01*
X7539Y-263289D01*
Y-258211D01*
X6270Y-256941D01*
X3730D01*
X2461Y-258211D01*
Y-259480D01*
X3730Y-260750D01*
X7539D01*
X10078Y-263289D02*
X11348Y-264559D01*
X13887D01*
X15157Y-263289D01*
Y-258211D01*
X13887Y-256941D01*
X11348D01*
X10078Y-258211D01*
Y-259480D01*
X11348Y-260750D01*
X15157D01*
X-72348Y-97191D02*
Y-98461D01*
X-69809Y-101000D01*
X-67270Y-98461D01*
Y-97191D01*
X-69809Y-101000D02*
Y-104809D01*
X-64730Y-98461D02*
X-63461Y-97191D01*
X-60922D01*
X-59652Y-98461D01*
Y-99730D01*
X-60922Y-101000D01*
X-62191D01*
X-60922D01*
X-59652Y-102270D01*
Y-103539D01*
X-60922Y-104809D01*
X-63461D01*
X-64730Y-103539D01*
X-137809Y-174078D02*
Y-179157D01*
X-134000D01*
Y-176618D01*
Y-179157D01*
X-130191D01*
X-137809Y-171539D02*
X-130191D01*
Y-166461D01*
X-136539Y-163922D02*
X-137809Y-162652D01*
Y-160113D01*
X-136539Y-158843D01*
X-135270D01*
X-134000Y-160113D01*
Y-161382D01*
Y-160113D01*
X-132730Y-158843D01*
X-131461D01*
X-130191Y-160113D01*
Y-162652D01*
X-131461Y-163922D01*
X-182809Y-100522D02*
X-175191D01*
Y-95443D01*
Y-92904D02*
Y-90365D01*
Y-91635D01*
X-182809D01*
X-181539Y-92904D01*
X-182809Y-81478D02*
X-181539Y-84017D01*
X-179000Y-86556D01*
X-176461D01*
X-175191Y-85287D01*
Y-82748D01*
X-176461Y-81478D01*
X-177730D01*
X-179000Y-82748D01*
Y-86556D01*
X-94809Y-91522D02*
X-87191D01*
Y-86444D01*
Y-83904D02*
Y-81365D01*
Y-82635D01*
X-94809D01*
X-93539Y-83904D01*
X-94809Y-72478D02*
Y-77556D01*
X-91000D01*
X-92270Y-75017D01*
Y-73748D01*
X-91000Y-72478D01*
X-88461D01*
X-87191Y-73748D01*
Y-76287D01*
X-88461Y-77556D01*
X-107522Y-152191D02*
X-104983D01*
X-106252D01*
Y-159809D01*
X-107522D01*
X-104983D01*
X-96096Y-153461D02*
X-97365Y-152191D01*
X-99904D01*
X-101174Y-153461D01*
Y-158539D01*
X-99904Y-159809D01*
X-97365D01*
X-96096Y-158539D01*
X-93556Y-153461D02*
X-92287Y-152191D01*
X-89748D01*
X-88478Y-153461D01*
Y-154730D01*
X-89748Y-156000D01*
X-88478Y-157270D01*
Y-158539D01*
X-89748Y-159809D01*
X-92287D01*
X-93556Y-158539D01*
Y-157270D01*
X-92287Y-156000D01*
X-93556Y-154730D01*
Y-153461D01*
X-92287Y-156000D02*
X-89748D01*
X-161539Y-73983D02*
X-162809Y-75252D01*
Y-77792D01*
X-161539Y-79061D01*
X-156461D01*
X-155191Y-77792D01*
Y-75252D01*
X-156461Y-73983D01*
X-155191Y-71444D02*
Y-68904D01*
Y-70174D01*
X-162809D01*
X-161539Y-71444D01*
Y-65096D02*
X-162809Y-63826D01*
Y-61287D01*
X-161539Y-60017D01*
X-156461D01*
X-155191Y-61287D01*
Y-63826D01*
X-156461Y-65096D01*
X-161539D01*
X-155191Y-57478D02*
Y-54939D01*
Y-56209D01*
X-162809D01*
X-161539Y-57478D01*
X-64078Y-136461D02*
X-65348Y-135191D01*
X-67887D01*
X-69157Y-136461D01*
Y-141539D01*
X-67887Y-142809D01*
X-65348D01*
X-64078Y-141539D01*
X-61539D02*
X-60270Y-142809D01*
X-57730D01*
X-56461Y-141539D01*
Y-136461D01*
X-57730Y-135191D01*
X-60270D01*
X-61539Y-136461D01*
Y-137730D01*
X-60270Y-139000D01*
X-56461D01*
X-53922Y-136461D02*
X-52652Y-135191D01*
X-50113D01*
X-48843Y-136461D01*
Y-137730D01*
X-50113Y-139000D01*
X-48843Y-140270D01*
Y-141539D01*
X-50113Y-142809D01*
X-52652D01*
X-53922Y-141539D01*
Y-140270D01*
X-52652Y-139000D01*
X-53922Y-137730D01*
Y-136461D01*
X-52652Y-139000D02*
X-50113D01*
X-64078Y-148461D02*
X-65348Y-147191D01*
X-67887D01*
X-69157Y-148461D01*
Y-153539D01*
X-67887Y-154809D01*
X-65348D01*
X-64078Y-153539D01*
X-61539D02*
X-60270Y-154809D01*
X-57730D01*
X-56461Y-153539D01*
Y-148461D01*
X-57730Y-147191D01*
X-60270D01*
X-61539Y-148461D01*
Y-149730D01*
X-60270Y-151000D01*
X-56461D01*
X-53922Y-147191D02*
X-48843D01*
Y-148461D01*
X-53922Y-153539D01*
Y-154809D01*
X-150539Y-74078D02*
X-151809Y-75348D01*
Y-77887D01*
X-150539Y-79157D01*
X-145461D01*
X-144191Y-77887D01*
Y-75348D01*
X-145461Y-74078D01*
Y-71539D02*
X-144191Y-70270D01*
Y-67730D01*
X-145461Y-66461D01*
X-150539D01*
X-151809Y-67730D01*
Y-70270D01*
X-150539Y-71539D01*
X-149270D01*
X-148000Y-70270D01*
Y-66461D01*
X-151809Y-58843D02*
X-150539Y-61382D01*
X-148000Y-63922D01*
X-145461D01*
X-144191Y-62652D01*
Y-60113D01*
X-145461Y-58843D01*
X-146730D01*
X-148000Y-60113D01*
Y-63922D01*
X-170282Y-174453D02*
X-171552Y-173183D01*
X-174091D01*
X-175361Y-174453D01*
Y-179531D01*
X-174091Y-180801D01*
X-171552D01*
X-170282Y-179531D01*
X-167743D02*
X-166474Y-180801D01*
X-163934D01*
X-162665Y-179531D01*
Y-174453D01*
X-163934Y-173183D01*
X-166474D01*
X-167743Y-174453D01*
Y-175723D01*
X-166474Y-176992D01*
X-162665D01*
X-155047Y-173183D02*
X-160126D01*
Y-176992D01*
X-157586Y-175723D01*
X-156317D01*
X-155047Y-176992D01*
Y-179531D01*
X-156317Y-180801D01*
X-158856D01*
X-160126Y-179531D01*
X-139539Y-68078D02*
X-140809Y-69348D01*
Y-71887D01*
X-139539Y-73157D01*
X-134461D01*
X-133191Y-71887D01*
Y-69348D01*
X-134461Y-68078D01*
Y-65539D02*
X-133191Y-64270D01*
Y-61730D01*
X-134461Y-60461D01*
X-139539D01*
X-140809Y-61730D01*
Y-64270D01*
X-139539Y-65539D01*
X-138270D01*
X-137000Y-64270D01*
Y-60461D01*
X-133191Y-54113D02*
X-140809D01*
X-137000Y-57922D01*
Y-52843D01*
X-96078Y-55461D02*
X-97348Y-54191D01*
X-99887D01*
X-101157Y-55461D01*
Y-60539D01*
X-99887Y-61809D01*
X-97348D01*
X-96078Y-60539D01*
X-93539D02*
X-92270Y-61809D01*
X-89730D01*
X-88461Y-60539D01*
Y-55461D01*
X-89730Y-54191D01*
X-92270D01*
X-93539Y-55461D01*
Y-56730D01*
X-92270Y-58000D01*
X-88461D01*
X-85922Y-55461D02*
X-84652Y-54191D01*
X-82113D01*
X-80843Y-55461D01*
Y-56730D01*
X-82113Y-58000D01*
X-83382D01*
X-82113D01*
X-80843Y-59270D01*
Y-60539D01*
X-82113Y-61809D01*
X-84652D01*
X-85922Y-60539D01*
X-175361Y-220933D02*
Y-213316D01*
X-171552D01*
X-170282Y-214585D01*
Y-217124D01*
X-171552Y-218394D01*
X-175361D01*
X-172822D02*
X-170282Y-220933D01*
X-167743Y-213316D02*
X-162665D01*
Y-214585D01*
X-167743Y-219663D01*
Y-220933D01*
X-160126Y-219663D02*
X-158856Y-220933D01*
X-156317D01*
X-155047Y-219663D01*
Y-214585D01*
X-156317Y-213316D01*
X-158856D01*
X-160126Y-214585D01*
Y-215855D01*
X-158856Y-217124D01*
X-155047D01*
X-175361Y-190961D02*
Y-183344D01*
X-171552D01*
X-170282Y-184613D01*
Y-187152D01*
X-171552Y-188422D01*
X-175361D01*
X-172822D02*
X-170282Y-190961D01*
X-167743Y-183344D02*
X-162665D01*
Y-184613D01*
X-167743Y-189691D01*
Y-190961D01*
X-155047Y-183344D02*
X-157586Y-184613D01*
X-160126Y-187152D01*
Y-189691D01*
X-158856Y-190961D01*
X-156317D01*
X-155047Y-189691D01*
Y-188422D01*
X-156317Y-187152D01*
X-160126D01*
X-175361Y-200867D02*
Y-193249D01*
X-171552D01*
X-170282Y-194519D01*
Y-197058D01*
X-171552Y-198328D01*
X-175361D01*
X-172822D02*
X-170282Y-200867D01*
X-167743Y-193249D02*
X-162665D01*
Y-194519D01*
X-167743Y-199597D01*
Y-200867D01*
X-160126Y-193249D02*
X-155047D01*
Y-194519D01*
X-160126Y-199597D01*
Y-200867D01*
X-175157Y-210809D02*
Y-203191D01*
X-171348D01*
X-170078Y-204461D01*
Y-207000D01*
X-171348Y-208270D01*
X-175157D01*
X-172617D02*
X-170078Y-210809D01*
X-167539Y-203191D02*
X-162461D01*
Y-204461D01*
X-167539Y-209539D01*
Y-210809D01*
X-159922Y-204461D02*
X-158652Y-203191D01*
X-156113D01*
X-154843Y-204461D01*
Y-205730D01*
X-156113Y-207000D01*
X-154843Y-208270D01*
Y-209539D01*
X-156113Y-210809D01*
X-158652D01*
X-159922Y-209539D01*
Y-208270D01*
X-158652Y-207000D01*
X-159922Y-205730D01*
Y-204461D01*
X-158652Y-207000D02*
X-156113D01*
X-47191Y-131157D02*
X-54809D01*
Y-127348D01*
X-53539Y-126078D01*
X-51000D01*
X-49730Y-127348D01*
Y-131157D01*
Y-128617D02*
X-47191Y-126078D01*
X-53539Y-123539D02*
X-54809Y-122270D01*
Y-119730D01*
X-53539Y-118461D01*
X-52270D01*
X-51000Y-119730D01*
Y-121000D01*
Y-119730D01*
X-49730Y-118461D01*
X-48461D01*
X-47191Y-119730D01*
Y-122270D01*
X-48461Y-123539D01*
X-54809Y-110843D02*
X-53539Y-113383D01*
X-51000Y-115922D01*
X-48461D01*
X-47191Y-114652D01*
Y-112113D01*
X-48461Y-110843D01*
X-49730D01*
X-51000Y-112113D01*
Y-115922D01*
X-187078Y-31461D02*
X-188348Y-30191D01*
X-190887D01*
X-192157Y-31461D01*
Y-32730D01*
X-190887Y-34000D01*
X-188348D01*
X-187078Y-35270D01*
Y-36539D01*
X-188348Y-37809D01*
X-190887D01*
X-192157Y-36539D01*
X-184539Y-30191D02*
Y-37809D01*
Y-34000D01*
X-179461D01*
Y-30191D01*
Y-37809D01*
X-171843D02*
X-176922D01*
X-171843Y-32730D01*
Y-31461D01*
X-173113Y-30191D01*
X-175652D01*
X-176922Y-31461D01*
X-137809Y-203078D02*
Y-208157D01*
X-134000D01*
Y-205618D01*
Y-208157D01*
X-130191D01*
X-137809Y-200539D02*
X-130191D01*
Y-195461D01*
Y-189113D02*
X-137809D01*
X-134000Y-192922D01*
Y-187843D01*
X214863Y-407809D02*
Y-402730D01*
X217402Y-400191D01*
X219941Y-402730D01*
Y-407809D01*
Y-404000D01*
X214863D01*
X222480Y-407809D02*
Y-400191D01*
X227559Y-407809D01*
Y-400191D01*
X230098Y-407809D02*
X232637D01*
X231367D01*
Y-400191D01*
X230098Y-401461D01*
X-259077Y-270509D02*
Y-265430D01*
X-256537Y-262891D01*
X-253998Y-265430D01*
Y-270509D01*
Y-266700D01*
X-259077D01*
X-251459Y-270509D02*
Y-262891D01*
X-246381Y-270509D01*
Y-262891D01*
X-238763Y-270509D02*
X-243842D01*
X-238763Y-265430D01*
Y-264161D01*
X-240033Y-262891D01*
X-242572D01*
X-243842Y-264161D01*
X26922Y184809D02*
Y183539D01*
X29461Y181000D01*
X32000Y183539D01*
Y184809D01*
X29461Y181000D02*
Y177191D01*
X34539D02*
X37078D01*
X35809D01*
Y184809D01*
X34539Y183539D01*
X174191Y-173270D02*
Y-175809D01*
Y-174539D01*
X180539D01*
X181809Y-175809D01*
Y-177078D01*
X180539Y-178348D01*
X174191Y-165652D02*
Y-170730D01*
X178000D01*
X176730Y-168191D01*
Y-166922D01*
X178000Y-165652D01*
X180539D01*
X181809Y-166922D01*
Y-169461D01*
X180539Y-170730D01*
X135922Y229809D02*
Y223461D01*
X137191Y222191D01*
X139730D01*
X141000Y223461D01*
Y229809D01*
X143539Y222191D02*
X146078D01*
X144809D01*
Y229809D01*
X143539Y228539D01*
X-167539Y58730D02*
X-168809Y57461D01*
Y54922D01*
X-167539Y53652D01*
X-166270D01*
X-165000Y54922D01*
Y57461D01*
X-163731Y58730D01*
X-162461D01*
X-161191Y57461D01*
Y54922D01*
X-162461Y53652D01*
X-167539Y61270D02*
X-168809Y62539D01*
Y65078D01*
X-167539Y66348D01*
X-166270D01*
X-165000Y65078D01*
Y63809D01*
Y65078D01*
X-163731Y66348D01*
X-162461D01*
X-161191Y65078D01*
Y62539D01*
X-162461Y61270D01*
X-168539Y123000D02*
X-169809Y121730D01*
Y119191D01*
X-168539Y117922D01*
X-167270D01*
X-166000Y119191D01*
Y121730D01*
X-164730Y123000D01*
X-163461D01*
X-162191Y121730D01*
Y119191D01*
X-163461Y117922D01*
X-162191Y125539D02*
Y128078D01*
Y126809D01*
X-169809D01*
X-168539Y125539D01*
X-77191Y120843D02*
X-84809D01*
Y124652D01*
X-83539Y125922D01*
X-81000D01*
X-79730Y124652D01*
Y120843D01*
Y123383D02*
X-77191Y125922D01*
Y132270D02*
X-84809D01*
X-81000Y128461D01*
Y133539D01*
X-77191Y139887D02*
X-84809D01*
X-81000Y136078D01*
Y141157D01*
X-100691Y120843D02*
X-108309D01*
Y124652D01*
X-107039Y125922D01*
X-104500D01*
X-103230Y124652D01*
Y120843D01*
Y123383D02*
X-100691Y125922D01*
Y132270D02*
X-108309D01*
X-104500Y128461D01*
Y133539D01*
X-107039Y136078D02*
X-108309Y137348D01*
Y139887D01*
X-107039Y141157D01*
X-105770D01*
X-104500Y139887D01*
Y138618D01*
Y139887D01*
X-103230Y141157D01*
X-101961D01*
X-100691Y139887D01*
Y137348D01*
X-101961Y136078D01*
X-17157Y195191D02*
Y202809D01*
X-13348D01*
X-12078Y201539D01*
Y199000D01*
X-13348Y197730D01*
X-17157D01*
X-14618D02*
X-12078Y195191D01*
X-5730D02*
Y202809D01*
X-9539Y199000D01*
X-4461D01*
X3157Y195191D02*
X-1922D01*
X3157Y200270D01*
Y201539D01*
X1887Y202809D01*
X-652D01*
X-1922Y201539D01*
X-103387Y-21809D02*
Y-14191D01*
X-99578D01*
X-98309Y-15461D01*
Y-18000D01*
X-99578Y-19270D01*
X-103387D01*
X-100848D02*
X-98309Y-21809D01*
X-91961D02*
Y-14191D01*
X-95770Y-18000D01*
X-90691D01*
X-88152Y-21809D02*
X-85613D01*
X-86882D01*
Y-14191D01*
X-88152Y-15461D01*
X-9157Y-8809D02*
Y-1191D01*
X-5348D01*
X-4078Y-2461D01*
Y-5000D01*
X-5348Y-6270D01*
X-9157D01*
X-6618D02*
X-4078Y-8809D01*
X2270D02*
Y-1191D01*
X-1539Y-5000D01*
X3539D01*
X6078Y-2461D02*
X7348Y-1191D01*
X9887D01*
X11157Y-2461D01*
Y-7539D01*
X9887Y-8809D01*
X7348D01*
X6078Y-7539D01*
Y-2461D01*
X-89691Y120843D02*
X-97309D01*
Y124652D01*
X-96039Y125922D01*
X-93500D01*
X-92230Y124652D01*
Y120843D01*
Y123383D02*
X-89691Y125922D01*
X-96039Y128461D02*
X-97309Y129730D01*
Y132270D01*
X-96039Y133539D01*
X-94770D01*
X-93500Y132270D01*
Y131000D01*
Y132270D01*
X-92230Y133539D01*
X-90961D01*
X-89691Y132270D01*
Y129730D01*
X-90961Y128461D01*
X-96039Y136078D02*
X-97309Y137348D01*
Y139887D01*
X-96039Y141157D01*
X-94770D01*
X-93500Y139887D01*
X-92230Y141157D01*
X-90961D01*
X-89691Y139887D01*
Y137348D01*
X-90961Y136078D01*
X-92230D01*
X-93500Y137348D01*
X-94770Y136078D01*
X-96039D01*
X-93500Y137348D02*
Y139887D01*
X-213691Y9843D02*
X-221309D01*
Y13652D01*
X-220039Y14922D01*
X-217500D01*
X-216231Y13652D01*
Y9843D01*
Y12382D02*
X-213691Y14922D01*
X-220039Y17461D02*
X-221309Y18730D01*
Y21270D01*
X-220039Y22539D01*
X-218770D01*
X-217500Y21270D01*
Y20000D01*
Y21270D01*
X-216231Y22539D01*
X-214961D01*
X-213691Y21270D01*
Y18730D01*
X-214961Y17461D01*
X-221309Y25078D02*
Y30157D01*
X-220039D01*
X-214961Y25078D01*
X-213691D01*
X-193691Y9843D02*
X-201309D01*
Y13652D01*
X-200039Y14922D01*
X-197500D01*
X-196230Y13652D01*
Y9843D01*
Y12382D02*
X-193691Y14922D01*
X-200039Y17461D02*
X-201309Y18730D01*
Y21270D01*
X-200039Y22539D01*
X-198770D01*
X-197500Y21270D01*
Y20000D01*
Y21270D01*
X-196230Y22539D01*
X-194961D01*
X-193691Y21270D01*
Y18730D01*
X-194961Y17461D01*
X-193691Y28887D02*
X-201309D01*
X-197500Y25078D01*
Y30157D01*
X-203691Y9843D02*
X-211309D01*
Y13652D01*
X-210039Y14922D01*
X-207500D01*
X-206230Y13652D01*
Y9843D01*
Y12382D02*
X-203691Y14922D01*
X-210039Y17461D02*
X-211309Y18730D01*
Y21270D01*
X-210039Y22539D01*
X-208770D01*
X-207500Y21270D01*
Y20000D01*
Y21270D01*
X-206230Y22539D01*
X-204961D01*
X-203691Y21270D01*
Y18730D01*
X-204961Y17461D01*
X-210039Y25078D02*
X-211309Y26348D01*
Y28887D01*
X-210039Y30157D01*
X-208770D01*
X-207500Y28887D01*
Y27617D01*
Y28887D01*
X-206230Y30157D01*
X-204961D01*
X-203691Y28887D01*
Y26348D01*
X-204961Y25078D01*
X48343Y219191D02*
Y226809D01*
X52152D01*
X53422Y225539D01*
Y223000D01*
X52152Y221730D01*
X48343D01*
X50883D02*
X53422Y219191D01*
X55961Y225539D02*
X57230Y226809D01*
X59770D01*
X61039Y225539D01*
Y224270D01*
X59770Y223000D01*
X58500D01*
X59770D01*
X61039Y221730D01*
Y220461D01*
X59770Y219191D01*
X57230D01*
X55961Y220461D01*
X68657Y219191D02*
X63578D01*
X68657Y224270D01*
Y225539D01*
X67387Y226809D01*
X64848D01*
X63578Y225539D01*
X188309Y364652D02*
X180691D01*
Y368461D01*
X181961Y369730D01*
X184500D01*
X185770Y368461D01*
Y364652D01*
Y367191D02*
X188309Y369730D01*
X187039Y372270D02*
X188309Y373539D01*
Y376078D01*
X187039Y377348D01*
X181961D01*
X180691Y376078D01*
Y373539D01*
X181961Y372270D01*
X183230D01*
X184500Y373539D01*
Y377348D01*
X-151348Y277191D02*
Y284809D01*
X-147539D01*
X-146270Y283539D01*
Y281000D01*
X-147539Y279730D01*
X-151348D01*
X-148809D02*
X-146270Y277191D01*
X-143730Y283539D02*
X-142461Y284809D01*
X-139922D01*
X-138652Y283539D01*
Y282270D01*
X-139922Y281000D01*
X-138652Y279730D01*
Y278461D01*
X-139922Y277191D01*
X-142461D01*
X-143730Y278461D01*
Y279730D01*
X-142461Y281000D01*
X-143730Y282270D01*
Y283539D01*
X-142461Y281000D02*
X-139922D01*
X130343Y-9809D02*
Y-2191D01*
X134152D01*
X135422Y-3461D01*
Y-6000D01*
X134152Y-7270D01*
X130343D01*
X132882D02*
X135422Y-9809D01*
X143039D02*
X137961D01*
X143039Y-4730D01*
Y-3461D01*
X141770Y-2191D01*
X139230D01*
X137961Y-3461D01*
X145578Y-8539D02*
X146848Y-9809D01*
X149387D01*
X150657Y-8539D01*
Y-3461D01*
X149387Y-2191D01*
X146848D01*
X145578Y-3461D01*
Y-4730D01*
X146848Y-6000D01*
X150657D01*
X181809Y-36157D02*
X174191D01*
Y-32348D01*
X175461Y-31078D01*
X178000D01*
X179270Y-32348D01*
Y-36157D01*
Y-33617D02*
X181809Y-31078D01*
Y-23461D02*
Y-28539D01*
X176730Y-23461D01*
X175461D01*
X174191Y-24730D01*
Y-27270D01*
X175461Y-28539D01*
Y-20922D02*
X174191Y-19652D01*
Y-17113D01*
X175461Y-15843D01*
X176730D01*
X178000Y-17113D01*
X179270Y-15843D01*
X180539D01*
X181809Y-17113D01*
Y-19652D01*
X180539Y-20922D01*
X179270D01*
X178000Y-19652D01*
X176730Y-20922D01*
X175461D01*
X178000Y-19652D02*
Y-17113D01*
X187809Y-96157D02*
X180191D01*
Y-92348D01*
X181461Y-91078D01*
X184000D01*
X185270Y-92348D01*
Y-96157D01*
Y-93617D02*
X187809Y-91078D01*
Y-83461D02*
Y-88539D01*
X182730Y-83461D01*
X181461D01*
X180191Y-84730D01*
Y-87270D01*
X181461Y-88539D01*
X180191Y-80922D02*
Y-75843D01*
X181461D01*
X186539Y-80922D01*
X187809D01*
X-151887Y266191D02*
Y273809D01*
X-148078D01*
X-146809Y272539D01*
Y270000D01*
X-148078Y268730D01*
X-151887D01*
X-149348D02*
X-146809Y266191D01*
X-139191D02*
X-144270D01*
X-139191Y271270D01*
Y272539D01*
X-140461Y273809D01*
X-143000D01*
X-144270Y272539D01*
X-136652Y266191D02*
X-134113D01*
X-135382D01*
Y273809D01*
X-136652Y272539D01*
X-223657Y-52809D02*
Y-45191D01*
X-219848D01*
X-218578Y-46461D01*
Y-49000D01*
X-219848Y-50270D01*
X-223657D01*
X-221117D02*
X-218578Y-52809D01*
X-210961D02*
X-216039D01*
X-210961Y-47730D01*
Y-46461D01*
X-212230Y-45191D01*
X-214770D01*
X-216039Y-46461D01*
X-208422D02*
X-207152Y-45191D01*
X-204613D01*
X-203343Y-46461D01*
Y-51539D01*
X-204613Y-52809D01*
X-207152D01*
X-208422Y-51539D01*
Y-46461D01*
X-223022Y-77809D02*
Y-70191D01*
X-219213D01*
X-217944Y-71461D01*
Y-74000D01*
X-219213Y-75270D01*
X-223022D01*
X-220483D02*
X-217944Y-77809D01*
X-215404D02*
X-212865D01*
X-214135D01*
Y-70191D01*
X-215404Y-71461D01*
X-209056Y-76539D02*
X-207787Y-77809D01*
X-205248D01*
X-203978Y-76539D01*
Y-71461D01*
X-205248Y-70191D01*
X-207787D01*
X-209056Y-71461D01*
Y-72730D01*
X-207787Y-74000D01*
X-203978D01*
X-158522Y245191D02*
Y252809D01*
X-154713D01*
X-153444Y251539D01*
Y249000D01*
X-154713Y247730D01*
X-158522D01*
X-155983D02*
X-153444Y245191D01*
X-150904D02*
X-148365D01*
X-149635D01*
Y252809D01*
X-150904Y251539D01*
X-144556D02*
X-143287Y252809D01*
X-140748D01*
X-139478Y251539D01*
Y250270D01*
X-140748Y249000D01*
X-139478Y247730D01*
Y246461D01*
X-140748Y245191D01*
X-143287D01*
X-144556Y246461D01*
Y247730D01*
X-143287Y249000D01*
X-144556Y250270D01*
Y251539D01*
X-143287Y249000D02*
X-140748D01*
X39983Y60194D02*
Y67812D01*
X43791D01*
X45061Y66542D01*
Y64003D01*
X43791Y62734D01*
X39983D01*
X42522D02*
X45061Y60194D01*
X47600D02*
X50139D01*
X48870D01*
Y67812D01*
X47600Y66542D01*
X53948Y67812D02*
X59026D01*
Y66542D01*
X53948Y61464D01*
Y60194D01*
X62313Y72481D02*
X54696D01*
Y76290D01*
X55965Y77560D01*
X58505D01*
X59774Y76290D01*
Y72481D01*
Y75020D02*
X62313Y77560D01*
Y80099D02*
Y82638D01*
Y81368D01*
X54696D01*
X55965Y80099D01*
X54696Y91525D02*
X55965Y88986D01*
X58505Y86447D01*
X61044D01*
X62313Y87716D01*
Y90255D01*
X61044Y91525D01*
X59774D01*
X58505Y90255D01*
Y86447D01*
X-106110Y208632D02*
Y216250D01*
X-102301D01*
X-101032Y214980D01*
Y212441D01*
X-102301Y211171D01*
X-106110D01*
X-103571D02*
X-101032Y208632D01*
X-98492D02*
X-95953D01*
X-97223D01*
Y216250D01*
X-98492Y214980D01*
X-87066Y216250D02*
X-92144D01*
Y212441D01*
X-89605Y213711D01*
X-88336D01*
X-87066Y212441D01*
Y209902D01*
X-88336Y208632D01*
X-90875D01*
X-92144Y209902D01*
X149978Y342191D02*
Y349809D01*
X153787D01*
X155056Y348539D01*
Y346000D01*
X153787Y344730D01*
X149978D01*
X152517D02*
X155056Y342191D01*
X157596D02*
X160135D01*
X158865D01*
Y349809D01*
X157596Y348539D01*
X167752Y342191D02*
Y349809D01*
X163944Y346000D01*
X169022D01*
X39983Y96194D02*
Y103812D01*
X43791D01*
X45061Y102542D01*
Y100003D01*
X43791Y98734D01*
X39983D01*
X42522D02*
X45061Y96194D01*
X47600D02*
X50139D01*
X48870D01*
Y103812D01*
X47600Y102542D01*
X53948D02*
X55218Y103812D01*
X57757D01*
X59026Y102542D01*
Y101273D01*
X57757Y100003D01*
X56487D01*
X57757D01*
X59026Y98734D01*
Y97464D01*
X57757Y96194D01*
X55218D01*
X53948Y97464D01*
X-106022Y198191D02*
Y205809D01*
X-102213D01*
X-100944Y204539D01*
Y202000D01*
X-102213Y200730D01*
X-106022D01*
X-103483D02*
X-100944Y198191D01*
X-98404D02*
X-95865D01*
X-97135D01*
Y205809D01*
X-98404Y204539D01*
X-86978Y198191D02*
X-92056D01*
X-86978Y203270D01*
Y204539D01*
X-88248Y205809D01*
X-90787D01*
X-92056Y204539D01*
X-195691Y-168252D02*
X-203309D01*
Y-164443D01*
X-202039Y-163174D01*
X-199500D01*
X-198230Y-164443D01*
Y-168252D01*
Y-165713D02*
X-195691Y-163174D01*
Y-160635D02*
Y-158096D01*
Y-159365D01*
X-203309D01*
X-202039Y-160635D01*
X-195691Y-154287D02*
Y-151748D01*
Y-153017D01*
X-203309D01*
X-202039Y-154287D01*
X-198191Y-121522D02*
X-205809D01*
Y-117713D01*
X-204539Y-116444D01*
X-202000D01*
X-200730Y-117713D01*
Y-121522D01*
Y-118983D02*
X-198191Y-116444D01*
Y-113904D02*
Y-111365D01*
Y-112635D01*
X-205809D01*
X-204539Y-113904D01*
Y-107556D02*
X-205809Y-106287D01*
Y-103748D01*
X-204539Y-102478D01*
X-199461D01*
X-198191Y-103748D01*
Y-106287D01*
X-199461Y-107556D01*
X-204539D01*
X213652Y-229809D02*
Y-222191D01*
X217461D01*
X218730Y-223461D01*
Y-226000D01*
X217461Y-227270D01*
X213652D01*
X216191D02*
X218730Y-229809D01*
X221270Y-222191D02*
X226348D01*
Y-223461D01*
X221270Y-228539D01*
Y-229809D01*
X140809Y-249348D02*
X133191D01*
Y-245539D01*
X134461Y-244270D01*
X137000D01*
X138270Y-245539D01*
Y-249348D01*
Y-246809D02*
X140809Y-244270D01*
X133191Y-236652D02*
X134461Y-239191D01*
X137000Y-241730D01*
X139539D01*
X140809Y-240461D01*
Y-237922D01*
X139539Y-236652D01*
X138270D01*
X137000Y-237922D01*
Y-241730D01*
X158152Y228191D02*
Y235809D01*
X161961D01*
X163230Y234539D01*
Y232000D01*
X161961Y230730D01*
X158152D01*
X160691D02*
X163230Y228191D01*
X165770Y234539D02*
X167039Y235809D01*
X169578D01*
X170848Y234539D01*
Y233270D01*
X169578Y232000D01*
X168309D01*
X169578D01*
X170848Y230730D01*
Y229461D01*
X169578Y228191D01*
X167039D01*
X165770Y229461D01*
X-36348Y312191D02*
Y319809D01*
X-32539D01*
X-31270Y318539D01*
Y316000D01*
X-32539Y314730D01*
X-36348D01*
X-33809D02*
X-31270Y312191D01*
X-23652D02*
X-28730D01*
X-23652Y317270D01*
Y318539D01*
X-24922Y319809D01*
X-27461D01*
X-28730Y318539D01*
X160422Y282191D02*
Y289809D01*
X164230D01*
X165500Y288539D01*
Y286000D01*
X164230Y284730D01*
X160422D01*
X162961D02*
X165500Y282191D01*
X168039D02*
X170578D01*
X169309D01*
Y289809D01*
X168039Y288539D01*
X128730Y24461D02*
Y29539D01*
X127461Y30809D01*
X124922D01*
X123652Y29539D01*
Y24461D01*
X124922Y23191D01*
X127461D01*
X126191Y25730D02*
X128730Y23191D01*
X127461D02*
X128730Y24461D01*
X136348Y30809D02*
X131270D01*
Y27000D01*
X133809Y28270D01*
X135078D01*
X136348Y27000D01*
Y24461D01*
X135078Y23191D01*
X132539D01*
X131270Y24461D01*
X-7770Y60461D02*
Y65539D01*
X-9039Y66809D01*
X-11578D01*
X-12848Y65539D01*
Y60461D01*
X-11578Y59191D01*
X-9039D01*
X-10309Y61730D02*
X-7770Y59191D01*
X-9039D02*
X-7770Y60461D01*
X-5230Y65539D02*
X-3961Y66809D01*
X-1422D01*
X-152Y65539D01*
Y64270D01*
X-1422Y63000D01*
X-2691D01*
X-1422D01*
X-152Y61730D01*
Y60461D01*
X-1422Y59191D01*
X-3961D01*
X-5230Y60461D01*
X171230Y323461D02*
Y328539D01*
X169961Y329809D01*
X167422D01*
X166152Y328539D01*
Y323461D01*
X167422Y322191D01*
X169961D01*
X168691Y324730D02*
X171230Y322191D01*
X169961D02*
X171230Y323461D01*
X178848Y322191D02*
X173770D01*
X178848Y327270D01*
Y328539D01*
X177578Y329809D01*
X175039D01*
X173770Y328539D01*
X173500Y269461D02*
Y274539D01*
X172230Y275809D01*
X169691D01*
X168422Y274539D01*
Y269461D01*
X169691Y268191D01*
X172230D01*
X170961Y270730D02*
X173500Y268191D01*
X172230D02*
X173500Y269461D01*
X176039Y268191D02*
X178578D01*
X177309D01*
Y275809D01*
X176039Y274539D01*
X77402Y29191D02*
Y36809D01*
X81211D01*
X82480Y35539D01*
Y33000D01*
X81211Y31730D01*
X77402D01*
X90098Y29191D02*
X85020D01*
X90098Y34270D01*
Y35539D01*
X88828Y36809D01*
X86289D01*
X85020Y35539D01*
X-44809Y323922D02*
X-37191D01*
Y329000D01*
Y331539D02*
Y334078D01*
Y332809D01*
X-44809D01*
X-43539Y331539D01*
X177652Y-40191D02*
Y-47809D01*
X182730D01*
X185270Y-41461D02*
X186539Y-40191D01*
X189078D01*
X190348Y-41461D01*
Y-42730D01*
X189078Y-44000D01*
X187809D01*
X189078D01*
X190348Y-45270D01*
Y-46539D01*
X189078Y-47809D01*
X186539D01*
X185270Y-46539D01*
X220691Y8652D02*
X228309D01*
Y13730D01*
Y21348D02*
Y16270D01*
X223230Y21348D01*
X221961D01*
X220691Y20078D01*
Y17539D01*
X221961Y16270D01*
X-209809Y419730D02*
Y417191D01*
Y418461D01*
X-203461D01*
X-202191Y417191D01*
Y415922D01*
X-203461Y414652D01*
X-202191Y426078D02*
X-209809D01*
X-206000Y422270D01*
Y427348D01*
X-229870Y-252731D02*
X-232409D01*
X-231139D01*
Y-259079D01*
X-232409Y-260349D01*
X-233678D01*
X-234948Y-259079D01*
X-227330Y-254001D02*
X-226061Y-252731D01*
X-223522D01*
X-222252Y-254001D01*
Y-255270D01*
X-223522Y-256540D01*
X-224791D01*
X-223522D01*
X-222252Y-257810D01*
Y-259079D01*
X-223522Y-260349D01*
X-226061D01*
X-227330Y-259079D01*
X261191Y-2270D02*
Y-4809D01*
Y-3539D01*
X267539D01*
X268809Y-4809D01*
Y-6078D01*
X267539Y-7348D01*
X268809Y5348D02*
Y270D01*
X263730Y5348D01*
X262461D01*
X261191Y4078D01*
Y1539D01*
X262461Y270D01*
X-225809Y259478D02*
Y262017D01*
Y260748D01*
X-218191D01*
Y259478D01*
Y262017D01*
X-224539Y270904D02*
X-225809Y269635D01*
Y267096D01*
X-224539Y265826D01*
X-219461D01*
X-218191Y267096D01*
Y269635D01*
X-219461Y270904D01*
X-225809Y278522D02*
Y273444D01*
X-222000D01*
X-223270Y275983D01*
Y277252D01*
X-222000Y278522D01*
X-219461D01*
X-218191Y277252D01*
Y274713D01*
X-219461Y273444D01*
X-131022Y203809D02*
X-128483D01*
X-129752D01*
Y196191D01*
X-131022D01*
X-128483D01*
X-119596Y202539D02*
X-120865Y203809D01*
X-123404D01*
X-124674Y202539D01*
Y197461D01*
X-123404Y196191D01*
X-120865D01*
X-119596Y197461D01*
X-113248Y196191D02*
Y203809D01*
X-117056Y200000D01*
X-111978D01*
X-34312Y150475D02*
Y153014D01*
Y151744D01*
X-26694D01*
Y150475D01*
Y153014D01*
X-33042Y161901D02*
X-34312Y160632D01*
Y158092D01*
X-33042Y156823D01*
X-27964D01*
X-26694Y158092D01*
Y160632D01*
X-27964Y161901D01*
X-33042Y164440D02*
X-34312Y165710D01*
Y168249D01*
X-33042Y169519D01*
X-31773D01*
X-30503Y168249D01*
Y166980D01*
Y168249D01*
X-29233Y169519D01*
X-27964D01*
X-26694Y168249D01*
Y165710D01*
X-27964Y164440D01*
X147748Y-248191D02*
X150287D01*
X149017D01*
Y-255809D01*
X147748D01*
X150287D01*
X159174Y-249461D02*
X157904Y-248191D01*
X155365D01*
X154096Y-249461D01*
Y-254539D01*
X155365Y-255809D01*
X157904D01*
X159174Y-254539D01*
X161713Y-255809D02*
X164252D01*
X162983D01*
Y-248191D01*
X161713Y-249461D01*
X255000Y-122191D02*
X249922D01*
Y-126000D01*
X252461D01*
X249922D01*
Y-129809D01*
X257539D02*
X260078D01*
X258809D01*
Y-122191D01*
X257539Y-123461D01*
X52691Y-19522D02*
X60309D01*
Y-15713D01*
X59039Y-14444D01*
X53961D01*
X52691Y-15713D01*
Y-19522D01*
X60309Y-11904D02*
Y-9365D01*
Y-10635D01*
X52691D01*
X53961Y-11904D01*
Y-5556D02*
X52691Y-4287D01*
Y-1748D01*
X53961Y-478D01*
X59039D01*
X60309Y-1748D01*
Y-4287D01*
X59039Y-5556D01*
X53961D01*
X-173157Y37191D02*
Y44809D01*
X-169348D01*
X-168078Y43539D01*
Y41000D01*
X-169348Y39730D01*
X-173157D01*
X-170618D02*
X-168078Y37191D01*
X-160461D02*
X-165539D01*
X-160461Y42270D01*
Y43539D01*
X-161730Y44809D01*
X-164270D01*
X-165539Y43539D01*
X-152843Y37191D02*
X-157922D01*
X-152843Y42270D01*
Y43539D01*
X-154113Y44809D01*
X-156652D01*
X-157922Y43539D01*
X-213309Y-169348D02*
X-205691D01*
Y-165539D01*
X-206961Y-164270D01*
X-212039D01*
X-213309Y-165539D01*
Y-169348D01*
X-212039Y-161730D02*
X-213309Y-160461D01*
Y-157922D01*
X-212039Y-156652D01*
X-210770D01*
X-209500Y-157922D01*
X-208230Y-156652D01*
X-206961D01*
X-205691Y-157922D01*
Y-160461D01*
X-206961Y-161730D01*
X-208230D01*
X-209500Y-160461D01*
X-210770Y-161730D01*
X-212039D01*
X-209500Y-160461D02*
Y-157922D01*
X-216809Y-121348D02*
X-209191D01*
Y-117539D01*
X-210461Y-116270D01*
X-215539D01*
X-216809Y-117539D01*
Y-121348D01*
Y-113730D02*
Y-108652D01*
X-215539D01*
X-210461Y-113730D01*
X-209191D01*
X251191Y-223348D02*
X258809D01*
Y-219539D01*
X257539Y-218270D01*
X252461D01*
X251191Y-219539D01*
Y-223348D01*
Y-210652D02*
X252461Y-213191D01*
X255000Y-215730D01*
X257539D01*
X258809Y-214461D01*
Y-211922D01*
X257539Y-210652D01*
X256270D01*
X255000Y-211922D01*
Y-215730D01*
X252191Y-248348D02*
X259809D01*
Y-244539D01*
X258539Y-243270D01*
X253461D01*
X252191Y-244539D01*
Y-248348D01*
Y-235652D02*
Y-240730D01*
X256000D01*
X254730Y-238191D01*
Y-236922D01*
X256000Y-235652D01*
X258539D01*
X259809Y-236922D01*
Y-239461D01*
X258539Y-240730D01*
X182152Y50809D02*
Y43191D01*
X185961D01*
X187230Y44461D01*
Y49539D01*
X185961Y50809D01*
X182152D01*
X193578Y43191D02*
Y50809D01*
X189770Y47000D01*
X194848D01*
X188191Y-75348D02*
X195809D01*
Y-71539D01*
X194539Y-70270D01*
X189461D01*
X188191Y-71539D01*
Y-75348D01*
X189461Y-67730D02*
X188191Y-66461D01*
Y-63922D01*
X189461Y-62652D01*
X190730D01*
X192000Y-63922D01*
Y-65191D01*
Y-63922D01*
X193270Y-62652D01*
X194539D01*
X195809Y-63922D01*
Y-66461D01*
X194539Y-67730D01*
X200191Y-36348D02*
X207809D01*
Y-32539D01*
X206539Y-31270D01*
X201461D01*
X200191Y-32539D01*
Y-36348D01*
X207809Y-23652D02*
Y-28730D01*
X202730Y-23652D01*
X201461D01*
X200191Y-24922D01*
Y-27461D01*
X201461Y-28730D01*
X215422Y36809D02*
Y29191D01*
X219230D01*
X220500Y30461D01*
Y35539D01*
X219230Y36809D01*
X215422D01*
X223039Y29191D02*
X225578D01*
X224309D01*
Y36809D01*
X223039Y35539D01*
X-131078Y336539D02*
X-132348Y337809D01*
X-134887D01*
X-136157Y336539D01*
Y331461D01*
X-134887Y330191D01*
X-132348D01*
X-131078Y331461D01*
X-128539Y336539D02*
X-127270Y337809D01*
X-124730D01*
X-123461Y336539D01*
Y335270D01*
X-124730Y334000D01*
X-126000D01*
X-124730D01*
X-123461Y332730D01*
Y331461D01*
X-124730Y330191D01*
X-127270D01*
X-128539Y331461D01*
X-120922Y336539D02*
X-119652Y337809D01*
X-117113D01*
X-115843Y336539D01*
Y335270D01*
X-117113Y334000D01*
X-115843Y332730D01*
Y331461D01*
X-117113Y330191D01*
X-119652D01*
X-120922Y331461D01*
Y332730D01*
X-119652Y334000D01*
X-120922Y335270D01*
Y336539D01*
X-119652Y334000D02*
X-117113D01*
X-130078Y324539D02*
X-131348Y325809D01*
X-133887D01*
X-135157Y324539D01*
Y319461D01*
X-133887Y318191D01*
X-131348D01*
X-130078Y319461D01*
X-127539Y324539D02*
X-126270Y325809D01*
X-123730D01*
X-122461Y324539D01*
Y323270D01*
X-123730Y322000D01*
X-125000D01*
X-123730D01*
X-122461Y320730D01*
Y319461D01*
X-123730Y318191D01*
X-126270D01*
X-127539Y319461D01*
X-119922Y325809D02*
X-114843D01*
Y324539D01*
X-119922Y319461D01*
Y318191D01*
X-177177Y-19029D02*
X-178447Y-20299D01*
Y-22838D01*
X-177177Y-24108D01*
X-172099D01*
X-170829Y-22838D01*
Y-20299D01*
X-172099Y-19029D01*
X-177177Y-16490D02*
X-178447Y-15221D01*
Y-12681D01*
X-177177Y-11412D01*
X-175907D01*
X-174638Y-12681D01*
Y-13951D01*
Y-12681D01*
X-173368Y-11412D01*
X-172099D01*
X-170829Y-12681D01*
Y-15221D01*
X-172099Y-16490D01*
X-178447Y-3794D02*
X-177177Y-6333D01*
X-174638Y-8873D01*
X-172099D01*
X-170829Y-7603D01*
Y-5064D01*
X-172099Y-3794D01*
X-173368D01*
X-174638Y-5064D01*
Y-8873D01*
X-187539Y-7078D02*
X-188809Y-8348D01*
Y-10887D01*
X-187539Y-12157D01*
X-182461D01*
X-181191Y-10887D01*
Y-8348D01*
X-182461Y-7078D01*
X-187539Y-4539D02*
X-188809Y-3270D01*
Y-730D01*
X-187539Y539D01*
X-186270D01*
X-185000Y-730D01*
Y-2000D01*
Y-730D01*
X-183730Y539D01*
X-182461D01*
X-181191Y-730D01*
Y-3270D01*
X-182461Y-4539D01*
X-188809Y8157D02*
Y3078D01*
X-185000D01*
X-186270Y5618D01*
Y6887D01*
X-185000Y8157D01*
X-182461D01*
X-181191Y6887D01*
Y4348D01*
X-182461Y3078D01*
X13961Y27922D02*
X12691Y26652D01*
Y24113D01*
X13961Y22843D01*
X19039D01*
X20309Y24113D01*
Y26652D01*
X19039Y27922D01*
X13961Y30461D02*
X12691Y31730D01*
Y34270D01*
X13961Y35539D01*
X15230D01*
X16500Y34270D01*
Y33000D01*
Y34270D01*
X17770Y35539D01*
X19039D01*
X20309Y34270D01*
Y31730D01*
X19039Y30461D01*
X20309Y41887D02*
X12691D01*
X16500Y38078D01*
Y43157D01*
X63422Y214539D02*
X62152Y215809D01*
X59613D01*
X58343Y214539D01*
Y209461D01*
X59613Y208191D01*
X62152D01*
X63422Y209461D01*
X65961Y214539D02*
X67230Y215809D01*
X69770D01*
X71039Y214539D01*
Y213270D01*
X69770Y212000D01*
X68500D01*
X69770D01*
X71039Y210730D01*
Y209461D01*
X69770Y208191D01*
X67230D01*
X65961Y209461D01*
X73578Y214539D02*
X74848Y215809D01*
X77387D01*
X78657Y214539D01*
Y213270D01*
X77387Y212000D01*
X76118D01*
X77387D01*
X78657Y210730D01*
Y209461D01*
X77387Y208191D01*
X74848D01*
X73578Y209461D01*
X-578Y214539D02*
X-1848Y215809D01*
X-4387D01*
X-5657Y214539D01*
Y209461D01*
X-4387Y208191D01*
X-1848D01*
X-578Y209461D01*
X1961Y214539D02*
X3230Y215809D01*
X5770D01*
X7039Y214539D01*
Y213270D01*
X5770Y212000D01*
X4500D01*
X5770D01*
X7039Y210730D01*
Y209461D01*
X5770Y208191D01*
X3230D01*
X1961Y209461D01*
X14657Y208191D02*
X9578D01*
X14657Y213270D01*
Y214539D01*
X13387Y215809D01*
X10848D01*
X9578Y214539D01*
X170961Y369191D02*
X169691Y367922D01*
Y365382D01*
X170961Y364113D01*
X176039D01*
X177309Y365382D01*
Y367922D01*
X176039Y369191D01*
X170961Y371730D02*
X169691Y373000D01*
Y375539D01*
X170961Y376809D01*
X172230D01*
X173500Y375539D01*
Y374270D01*
Y375539D01*
X174770Y376809D01*
X176039D01*
X177309Y375539D01*
Y373000D01*
X176039Y371730D01*
X177309Y379348D02*
Y381887D01*
Y380617D01*
X169691D01*
X170961Y379348D01*
X-79539Y329922D02*
X-80809Y328652D01*
Y326113D01*
X-79539Y324843D01*
X-74461D01*
X-73191Y326113D01*
Y328652D01*
X-74461Y329922D01*
X-79539Y332461D02*
X-80809Y333730D01*
Y336270D01*
X-79539Y337539D01*
X-78270D01*
X-77000Y336270D01*
Y335000D01*
Y336270D01*
X-75730Y337539D01*
X-74461D01*
X-73191Y336270D01*
Y333730D01*
X-74461Y332461D01*
X-79539Y340078D02*
X-80809Y341348D01*
Y343887D01*
X-79539Y345157D01*
X-74461D01*
X-73191Y343887D01*
Y341348D01*
X-74461Y340078D01*
X-79539D01*
X-21539Y332922D02*
X-22809Y331652D01*
Y329113D01*
X-21539Y327843D01*
X-16461D01*
X-15191Y329113D01*
Y331652D01*
X-16461Y332922D01*
X-15191Y340539D02*
Y335461D01*
X-20270Y340539D01*
X-21539D01*
X-22809Y339270D01*
Y336730D01*
X-21539Y335461D01*
X-16461Y343078D02*
X-15191Y344348D01*
Y346887D01*
X-16461Y348157D01*
X-21539D01*
X-22809Y346887D01*
Y344348D01*
X-21539Y343078D01*
X-20270D01*
X-19000Y344348D01*
Y348157D01*
X-59539Y389922D02*
X-60809Y388652D01*
Y386113D01*
X-59539Y384843D01*
X-54461D01*
X-53191Y386113D01*
Y388652D01*
X-54461Y389922D01*
X-53191Y397539D02*
Y392461D01*
X-58270Y397539D01*
X-59539D01*
X-60809Y396270D01*
Y393730D01*
X-59539Y392461D01*
Y400078D02*
X-60809Y401348D01*
Y403887D01*
X-59539Y405157D01*
X-58270D01*
X-57000Y403887D01*
X-55730Y405157D01*
X-54461D01*
X-53191Y403887D01*
Y401348D01*
X-54461Y400078D01*
X-55730D01*
X-57000Y401348D01*
X-58270Y400078D01*
X-59539D01*
X-57000Y401348D02*
Y403887D01*
X-41539Y390922D02*
X-42809Y389652D01*
Y387113D01*
X-41539Y385843D01*
X-36461D01*
X-35191Y387113D01*
Y389652D01*
X-36461Y390922D01*
X-35191Y398539D02*
Y393461D01*
X-40270Y398539D01*
X-41539D01*
X-42809Y397270D01*
Y394730D01*
X-41539Y393461D01*
X-42809Y401078D02*
Y406157D01*
X-41539D01*
X-36461Y401078D01*
X-35191D01*
X-186078Y302539D02*
X-187348Y303809D01*
X-189887D01*
X-191157Y302539D01*
Y297461D01*
X-189887Y296191D01*
X-187348D01*
X-186078Y297461D01*
X-178461Y296191D02*
X-183539D01*
X-178461Y301270D01*
Y302539D01*
X-179730Y303809D01*
X-182270D01*
X-183539Y302539D01*
X-170843Y303809D02*
X-173382Y302539D01*
X-175922Y300000D01*
Y297461D01*
X-174652Y296191D01*
X-172113D01*
X-170843Y297461D01*
Y298730D01*
X-172113Y300000D01*
X-175922D01*
X-179078Y252539D02*
X-180348Y253809D01*
X-182887D01*
X-184157Y252539D01*
Y247461D01*
X-182887Y246191D01*
X-180348D01*
X-179078Y247461D01*
X-171461Y246191D02*
X-176539D01*
X-171461Y251270D01*
Y252539D01*
X-172730Y253809D01*
X-175270D01*
X-176539Y252539D01*
X-163843Y253809D02*
X-168922D01*
Y250000D01*
X-166382Y251270D01*
X-165113D01*
X-163843Y250000D01*
Y247461D01*
X-165113Y246191D01*
X-167652D01*
X-168922Y247461D01*
X16461Y158922D02*
X15191Y157652D01*
Y155113D01*
X16461Y153843D01*
X21539D01*
X22809Y155113D01*
Y157652D01*
X21539Y158922D01*
X22809Y166539D02*
Y161461D01*
X17730Y166539D01*
X16461D01*
X15191Y165270D01*
Y162730D01*
X16461Y161461D01*
X22809Y172887D02*
X15191D01*
X19000Y169078D01*
Y174157D01*
X216961Y48922D02*
X215691Y47652D01*
Y45113D01*
X216961Y43843D01*
X222039D01*
X223309Y45113D01*
Y47652D01*
X222039Y48922D01*
X223309Y56539D02*
Y51461D01*
X218230Y56539D01*
X216961D01*
X215691Y55270D01*
Y52730D01*
X216961Y51461D01*
Y59078D02*
X215691Y60348D01*
Y62887D01*
X216961Y64157D01*
X218230D01*
X219500Y62887D01*
Y61618D01*
Y62887D01*
X220770Y64157D01*
X222039D01*
X223309Y62887D01*
Y60348D01*
X222039Y59078D01*
X216461Y96730D02*
X215191Y95461D01*
Y92922D01*
X216461Y91652D01*
X221539D01*
X222809Y92922D01*
Y95461D01*
X221539Y96730D01*
X222809Y103078D02*
X215191D01*
X219000Y99270D01*
Y104348D01*
X215961Y134730D02*
X214691Y133461D01*
Y130922D01*
X215961Y129652D01*
X221039D01*
X222309Y130922D01*
Y133461D01*
X221039Y134730D01*
X214691Y142348D02*
X215961Y139809D01*
X218500Y137270D01*
X221039D01*
X222309Y138539D01*
Y141078D01*
X221039Y142348D01*
X219770D01*
X218500Y141078D01*
Y137270D01*
X212961Y197730D02*
X211691Y196461D01*
Y193922D01*
X212961Y192652D01*
X218039D01*
X219309Y193922D01*
Y196461D01*
X218039Y197730D01*
X211691Y205348D02*
Y200270D01*
X215500D01*
X214230Y202809D01*
Y204078D01*
X215500Y205348D01*
X218039D01*
X219309Y204078D01*
Y201539D01*
X218039Y200270D01*
X-16039Y27730D02*
X-17309Y26461D01*
Y23922D01*
X-16039Y22652D01*
X-10961D01*
X-9691Y23922D01*
Y26461D01*
X-10961Y27730D01*
Y30270D02*
X-9691Y31539D01*
Y34078D01*
X-10961Y35348D01*
X-16039D01*
X-17309Y34078D01*
Y31539D01*
X-16039Y30270D01*
X-14770D01*
X-13500Y31539D01*
Y35348D01*
X-148093Y53751D02*
X-149362Y52482D01*
Y49942D01*
X-148093Y48673D01*
X-143014D01*
X-141745Y49942D01*
Y52482D01*
X-143014Y53751D01*
X-149362Y56290D02*
Y61369D01*
X-148093D01*
X-143014Y56290D01*
X-141745D01*
X-143539Y204730D02*
X-144809Y203461D01*
Y200922D01*
X-143539Y199652D01*
X-138461D01*
X-137191Y200922D01*
Y203461D01*
X-138461Y204730D01*
X-143539Y207270D02*
X-144809Y208539D01*
Y211078D01*
X-143539Y212348D01*
X-142270D01*
X-141000Y211078D01*
Y209809D01*
Y211078D01*
X-139731Y212348D01*
X-138461D01*
X-137191Y211078D01*
Y208539D01*
X-138461Y207270D01*
X112056Y81539D02*
X110787Y82809D01*
X108248D01*
X106978Y81539D01*
Y76461D01*
X108248Y75191D01*
X110787D01*
X112056Y76461D01*
X114596Y75191D02*
X117135D01*
X115865D01*
Y82809D01*
X114596Y81539D01*
X126022Y82809D02*
X120944D01*
Y79000D01*
X123483Y80270D01*
X124752D01*
X126022Y79000D01*
Y76461D01*
X124752Y75191D01*
X122213D01*
X120944Y76461D01*
X112056Y63539D02*
X110787Y64809D01*
X108248D01*
X106978Y63539D01*
Y58461D01*
X108248Y57191D01*
X110787D01*
X112056Y58461D01*
X114596Y57191D02*
X117135D01*
X115865D01*
Y64809D01*
X114596Y63539D01*
X124752Y57191D02*
Y64809D01*
X120944Y61000D01*
X126022D01*
X112056Y45539D02*
X110787Y46809D01*
X108248D01*
X106978Y45539D01*
Y40461D01*
X108248Y39191D01*
X110787D01*
X112056Y40461D01*
X114596Y39191D02*
X117135D01*
X115865D01*
Y46809D01*
X114596Y45539D01*
X120944D02*
X122213Y46809D01*
X124752D01*
X126022Y45539D01*
Y44270D01*
X124752Y43000D01*
X123483D01*
X124752D01*
X126022Y41730D01*
Y40461D01*
X124752Y39191D01*
X122213D01*
X120944Y40461D01*
X205326Y25539D02*
X204056Y26809D01*
X201517D01*
X200248Y25539D01*
Y20461D01*
X201517Y19191D01*
X204056D01*
X205326Y20461D01*
X207865Y19191D02*
X210404D01*
X209135D01*
Y26809D01*
X207865Y25539D01*
X214213Y19191D02*
X216752D01*
X215483D01*
Y26809D01*
X214213Y25539D01*
X-126444Y215539D02*
X-127713Y216809D01*
X-130252D01*
X-131522Y215539D01*
Y210461D01*
X-130252Y209191D01*
X-127713D01*
X-126444Y210461D01*
X-123904Y209191D02*
X-121365D01*
X-122635D01*
Y216809D01*
X-123904Y215539D01*
X-117556D02*
X-116287Y216809D01*
X-113748D01*
X-112478Y215539D01*
Y210461D01*
X-113748Y209191D01*
X-116287D01*
X-117556Y210461D01*
Y215539D01*
X210730Y-211461D02*
X209461Y-210191D01*
X206922D01*
X205652Y-211461D01*
Y-216539D01*
X206922Y-217809D01*
X209461D01*
X210730Y-216539D01*
X218348Y-217809D02*
X213270D01*
X218348Y-212730D01*
Y-211461D01*
X217078Y-210191D01*
X214539D01*
X213270Y-211461D01*
X-31000Y307539D02*
X-32270Y308809D01*
X-34809D01*
X-36078Y307539D01*
Y302461D01*
X-34809Y301191D01*
X-32270D01*
X-31000Y302461D01*
X-28461Y301191D02*
X-25922D01*
X-27191D01*
Y308809D01*
X-28461Y307539D01*
G54D20*
X200151Y231200D02*
D03*
M02*
