G04*
G04 #@! TF.GenerationSoftware,Altium Limited,Altium Designer,21.9.2 (33)*
G04*
G04 Layer_Color=16711935*
%FSLAX44Y44*%
%MOMM*%
G71*
G04*
G04 #@! TF.SameCoordinates,61AA5504-0FCC-4927-8ACB-8CDE8AB09ADF*
G04*
G04*
G04 #@! TF.FilePolarity,Negative*
G04*
G01*
G75*
%ADD149C,1.7516*%
%ADD150R,1.7516X1.7516*%
%ADD151C,0.6500*%
G04:AMPARAMS|DCode=152|XSize=2.1mm|YSize=1mm|CornerRadius=0.5mm|HoleSize=0mm|Usage=FLASHONLY|Rotation=180.000|XOffset=0mm|YOffset=0mm|HoleType=Round|Shape=RoundedRectangle|*
%AMROUNDEDRECTD152*
21,1,2.1000,0.0000,0,0,180.0*
21,1,1.1000,1.0000,0,0,180.0*
1,1,1.0000,-0.5500,0.0000*
1,1,1.0000,0.5500,0.0000*
1,1,1.0000,0.5500,0.0000*
1,1,1.0000,-0.5500,0.0000*
%
%ADD152ROUNDEDRECTD152*%
G04:AMPARAMS|DCode=153|XSize=1.8mm|YSize=1mm|CornerRadius=0.5mm|HoleSize=0mm|Usage=FLASHONLY|Rotation=180.000|XOffset=0mm|YOffset=0mm|HoleType=Round|Shape=RoundedRectangle|*
%AMROUNDEDRECTD153*
21,1,1.8000,0.0000,0,0,180.0*
21,1,0.8000,1.0000,0,0,180.0*
1,1,1.0000,-0.4000,0.0000*
1,1,1.0000,0.4000,0.0000*
1,1,1.0000,0.4000,0.0000*
1,1,1.0000,-0.4000,0.0000*
%
%ADD153ROUNDEDRECTD153*%
%ADD154C,1.4016*%
%ADD155P,1.5171X8X292.5*%
%ADD156C,1.7780*%
%ADD157R,1.7780X1.7780*%
%ADD158C,3.4016*%
%ADD188C,1.6016*%
G54D149*
X214500Y361000D02*
D03*
Y335600D02*
D03*
Y310200D02*
D03*
Y259400D02*
D03*
Y284800D02*
D03*
G54D150*
Y234000D02*
D03*
G54D151*
X204350Y-32100D02*
D03*
Y-89900D02*
D03*
G54D152*
X199350Y-17800D02*
D03*
Y-104200D02*
D03*
G54D153*
X241150Y-17800D02*
D03*
Y-104200D02*
D03*
G54D154*
X-236500Y-171000D02*
D03*
Y-191000D02*
D03*
Y-211000D02*
D03*
G54D155*
Y-231000D02*
D03*
G54D156*
X-241500Y-35240D02*
D03*
Y117160D02*
D03*
Y91760D02*
D03*
Y66360D02*
D03*
Y40960D02*
D03*
Y15560D02*
D03*
Y-9840D02*
D03*
Y-60640D02*
D03*
Y-86040D02*
D03*
Y335600D02*
D03*
Y310200D02*
D03*
Y284800D02*
D03*
Y259400D02*
D03*
Y234000D02*
D03*
Y208600D02*
D03*
Y183200D02*
D03*
X241100Y361000D02*
D03*
Y335600D02*
D03*
Y310200D02*
D03*
Y284800D02*
D03*
Y259400D02*
D03*
Y81600D02*
D03*
Y107000D02*
D03*
Y132400D02*
D03*
Y157800D02*
D03*
Y56200D02*
D03*
Y183200D02*
D03*
Y30800D02*
D03*
G54D157*
X-241500Y142560D02*
D03*
Y361000D02*
D03*
X241100Y234000D02*
D03*
Y5400D02*
D03*
G54D158*
Y-134300D02*
D03*
X-241500Y-121600D02*
D03*
X-89100Y386400D02*
D03*
X190300D02*
D03*
G54D188*
X-110500Y237000D02*
D03*
X-17500Y186000D02*
D03*
M02*
