G04*
G04 #@! TF.GenerationSoftware,Altium Limited,Altium Designer,23.4.1 (23)*
G04*
G04 Layer_Color=8388736*
%FSLAX44Y44*%
%MOMM*%
G71*
G04*
G04 #@! TF.SameCoordinates,B80EE6FD-DE0C-41A8-97C9-53CED130240B*
G04*
G04*
G04 #@! TF.FilePolarity,Negative*
G04*
G01*
G75*
%ADD10C,0.2000*%
%ADD18C,0.2560*%
%ADD19C,0.2032*%
%ADD26R,1.1500X0.6000*%
%ADD27R,1.1500X0.3000*%
%ADD67R,0.6000X0.3000*%
%ADD68R,0.2500X0.5000*%
%ADD87C,0.1725*%
%ADD88C,0.1270*%
%ADD89R,0.3516X0.6016*%
%ADD90R,0.6016X0.3516*%
%ADD91R,1.1016X1.9016*%
%ADD92R,1.1016X2.0516*%
%ADD93R,1.6016X1.3016*%
%ADD94R,0.7516X1.1516*%
%ADD95R,0.7016X0.6016*%
%ADD96R,1.1016X0.7016*%
%ADD97R,0.7016X1.1016*%
%ADD98R,1.2516X0.7016*%
%ADD99R,0.5016X0.4016*%
%ADD100R,0.7016X0.9016*%
%ADD101R,1.3016X1.3016*%
%ADD102R,1.3016X1.3016*%
%ADD103R,2.1016X0.8016*%
%ADD104R,3.1000X0.6000*%
%ADD105R,0.6000X3.1000*%
%ADD106R,3.9000X0.6000*%
%ADD107R,2.1000X0.6000*%
%ADD108R,3.0718X0.6000*%
%ADD109R,2.0558X0.6000*%
%ADD110R,0.8016X2.1016*%
%ADD111R,1.4016X1.0016*%
%ADD112R,1.0016X0.6016*%
%ADD113O,0.9016X0.3516*%
%ADD114O,0.3516X0.9016*%
%ADD115R,2.5000X2.5000*%
%ADD116R,0.3016X0.7016*%
%ADD117R,0.5016X0.3016*%
%ADD118R,0.8500X0.9500*%
G04:AMPARAMS|DCode=119|XSize=0.45mm|YSize=1.1mm|CornerRadius=0mm|HoleSize=0mm|Usage=FLASHONLY|Rotation=315.000|XOffset=0mm|YOffset=0mm|HoleType=Round|Shape=Rectangle|*
%AMROTATEDRECTD119*
4,1,4,-0.5480,-0.2298,0.2298,0.5480,0.5480,0.2298,-0.2298,-0.5480,-0.5480,-0.2298,0.0*
%
%ADD119ROTATEDRECTD119*%

G04:AMPARAMS|DCode=120|XSize=0.45mm|YSize=1.1mm|CornerRadius=0mm|HoleSize=0mm|Usage=FLASHONLY|Rotation=225.000|XOffset=0mm|YOffset=0mm|HoleType=Round|Shape=Rectangle|*
%AMROTATEDRECTD120*
4,1,4,-0.2298,0.5480,0.5480,-0.2298,0.2298,-0.5480,-0.5480,0.2298,-0.2298,0.5480,0.0*
%
%ADD120ROTATEDRECTD120*%

%ADD121R,0.6016X0.4516*%
%ADD122R,0.3766X0.3516*%
%ADD123R,0.3516X0.3766*%
%ADD124R,2.1016X0.9016*%
%ADD125R,0.9016X1.3016*%
%ADD126R,0.7016X1.0016*%
%ADD127R,0.5500X0.4000*%
%ADD128R,0.4000X0.5500*%
%ADD129R,0.6500X0.6500*%
%ADD130R,0.6000X0.4000*%
%ADD131R,1.6016X3.5016*%
%ADD132R,1.1016X3.6016*%
%ADD133R,3.5016X1.6016*%
%ADD134R,3.6016X1.1016*%
%ADD135R,1.9016X1.1016*%
%ADD136R,0.6016X0.6016*%
%ADD137R,0.9016X0.9016*%
%ADD138R,0.9016X0.5016*%
%ADD139R,0.5016X0.9016*%
%ADD140R,0.8016X0.4016*%
%ADD141R,1.1516X1.1016*%
%ADD142R,2.3016X1.1516*%
%ADD143R,0.8016X0.7016*%
%ADD144R,2.2352X1.1516*%
%ADD145R,1.0016X1.4016*%
%ADD146R,0.6016X0.7016*%
%ADD147R,0.4016X0.5016*%
%ADD148R,0.6016X1.0016*%
%ADD149R,1.0016X0.7016*%
%ADD150R,0.7016X1.2516*%
%ADD151R,1.3016X0.9016*%
G04:AMPARAMS|DCode=152|XSize=0.6016mm|YSize=0.7016mm|CornerRadius=0mm|HoleSize=0mm|Usage=FLASHONLY|Rotation=135.000|XOffset=0mm|YOffset=0mm|HoleType=Round|Shape=Rectangle|*
%AMROTATEDRECTD152*
4,1,4,0.4608,0.0354,-0.0354,-0.4608,-0.4608,-0.0354,0.0354,0.4608,0.4608,0.0354,0.0*
%
%ADD152ROTATEDRECTD152*%

%ADD153C,1.7516*%
%ADD154R,1.7516X1.7516*%
%ADD155C,0.6500*%
G04:AMPARAMS|DCode=156|XSize=2.1mm|YSize=1mm|CornerRadius=0.5mm|HoleSize=0mm|Usage=FLASHONLY|Rotation=180.000|XOffset=0mm|YOffset=0mm|HoleType=Round|Shape=RoundedRectangle|*
%AMROUNDEDRECTD156*
21,1,2.1000,0.0000,0,0,180.0*
21,1,1.1000,1.0000,0,0,180.0*
1,1,1.0000,-0.5500,0.0000*
1,1,1.0000,0.5500,0.0000*
1,1,1.0000,0.5500,0.0000*
1,1,1.0000,-0.5500,0.0000*
%
%ADD156ROUNDEDRECTD156*%
G04:AMPARAMS|DCode=157|XSize=1.8mm|YSize=1mm|CornerRadius=0.5mm|HoleSize=0mm|Usage=FLASHONLY|Rotation=180.000|XOffset=0mm|YOffset=0mm|HoleType=Round|Shape=RoundedRectangle|*
%AMROUNDEDRECTD157*
21,1,1.8000,0.0000,0,0,180.0*
21,1,0.8000,1.0000,0,0,180.0*
1,1,1.0000,-0.4000,0.0000*
1,1,1.0000,0.4000,0.0000*
1,1,1.0000,0.4000,0.0000*
1,1,1.0000,-0.4000,0.0000*
%
%ADD157ROUNDEDRECTD157*%
G04:AMPARAMS|DCode=158|XSize=1.4016mm|YSize=1.4016mm|CornerRadius=0mm|HoleSize=0mm|Usage=FLASHONLY|Rotation=270.000|XOffset=0mm|YOffset=0mm|HoleType=Round|Shape=Octagon|*
%AMOCTAGOND158*
4,1,8,-0.3504,-0.7008,0.3504,-0.7008,0.7008,-0.3504,0.7008,0.3504,0.3504,0.7008,-0.3504,0.7008,-0.7008,0.3504,-0.7008,-0.3504,-0.3504,-0.7008,0.0*
%
%ADD158OCTAGOND158*%

%ADD159C,1.4016*%
%ADD160C,1.7780*%
%ADD161R,1.7780X1.7780*%
%ADD162C,3.4016*%
G36*
X80600Y312501D02*
X80695Y312472D01*
X80784Y312424D01*
X80861Y312361D01*
X80924Y312284D01*
X80972Y312195D01*
X81001Y312100D01*
X81011Y312000D01*
Y300000D01*
X81001Y299900D01*
X80972Y299805D01*
X80924Y299716D01*
X80861Y299639D01*
X80784Y299576D01*
X80695Y299528D01*
X80600Y299499D01*
X80500Y299489D01*
X68500D01*
X68400Y299499D01*
X68305Y299528D01*
X68216Y299576D01*
X68139Y299639D01*
X68076Y299716D01*
X68028Y299805D01*
X67999Y299900D01*
X67990Y300000D01*
X67990Y306000D01*
X67999Y306099D01*
X68028Y306195D01*
X68075Y306283D01*
X68139Y306361D01*
X74139Y312361D01*
X74139Y312361D01*
X74181Y312396D01*
X74216Y312424D01*
X74305Y312472D01*
X74400Y312501D01*
X74500Y312511D01*
X80500D01*
X80600Y312501D01*
D02*
G37*
G36*
X187100Y149001D02*
X187102Y149000D01*
X187500D01*
Y148602D01*
X187501Y148600D01*
X187511Y148500D01*
Y142830D01*
X187509Y142813D01*
X187509Y142795D01*
X187504Y142763D01*
X187501Y142730D01*
X187500Y142728D01*
Y142330D01*
X186490Y141750D01*
X186092D01*
X186090Y141749D01*
X186072Y141748D01*
X186056Y141744D01*
X186023Y141743D01*
X185990Y141740D01*
X179000D01*
X178900Y141749D01*
X178898Y141750D01*
X178500D01*
Y142148D01*
X178499Y142150D01*
X178490Y142250D01*
Y148500D01*
X178499Y148600D01*
X178500Y148602D01*
Y149000D01*
X178898D01*
X178900Y149001D01*
X179000Y149010D01*
X187000D01*
X187100Y149001D01*
D02*
G37*
G36*
X177100D02*
X177102Y149000D01*
X177500D01*
Y148602D01*
X177501Y148600D01*
X177511Y148500D01*
Y142250D01*
X177501Y142150D01*
X177500Y142148D01*
Y141750D01*
X177102D01*
X177100Y141749D01*
X177000Y141740D01*
X174000D01*
X173900Y141749D01*
X173898Y141750D01*
X173500D01*
Y142148D01*
X173499Y142150D01*
X173490Y142250D01*
Y148500D01*
X173499Y148600D01*
X173500Y148602D01*
Y149000D01*
X173898D01*
X173900Y149001D01*
X174000Y149010D01*
X177000D01*
X177100Y149001D01*
D02*
G37*
G36*
X172100D02*
X172102Y149000D01*
X172500D01*
Y148602D01*
X172501Y148600D01*
X172511Y148500D01*
Y142250D01*
X172501Y142150D01*
X172500Y142148D01*
Y141750D01*
X172102D01*
X172100Y141749D01*
X172000Y141740D01*
X169000D01*
X168900Y141749D01*
X168898Y141750D01*
X168500D01*
Y142148D01*
X168499Y142150D01*
X168490Y142250D01*
Y148500D01*
X168499Y148600D01*
X168500Y148602D01*
Y149000D01*
X168898D01*
X168900Y149001D01*
X169000Y149010D01*
X172000D01*
X172100Y149001D01*
D02*
G37*
G36*
X193600Y141751D02*
X193602Y141750D01*
X194000D01*
Y141352D01*
X194001Y141350D01*
X194011Y141250D01*
Y137750D01*
X194001Y137650D01*
X194000Y137648D01*
Y137250D01*
X193602D01*
X193600Y137249D01*
X193500Y137240D01*
X187250D01*
X187150Y137249D01*
X187148Y137250D01*
X186750D01*
Y137648D01*
X186749Y137650D01*
X186740Y137750D01*
Y140670D01*
X186741Y140687D01*
X186741Y140705D01*
X186746Y140737D01*
X186749Y140770D01*
X186750Y140772D01*
Y141170D01*
X187760Y141750D01*
X188158D01*
X188160Y141751D01*
X188178Y141752D01*
X188195Y141756D01*
X188227Y141757D01*
X188260Y141760D01*
X193500D01*
X193600Y141751D01*
D02*
G37*
G36*
X167500Y140001D02*
X167502Y140000D01*
X167900D01*
X169250Y138650D01*
Y138252D01*
X169251Y138250D01*
X169261Y138150D01*
Y136500D01*
X169251Y136400D01*
X169250Y136398D01*
Y136000D01*
X168852D01*
X168850Y135999D01*
X168750Y135990D01*
X162500D01*
X162400Y135999D01*
X162398Y136000D01*
X162000D01*
Y136398D01*
X161999Y136400D01*
X161990Y136500D01*
Y139500D01*
X161999Y139600D01*
X162000Y139602D01*
Y140000D01*
X162398D01*
X162400Y140001D01*
X162500Y140010D01*
X167400D01*
X167500Y140001D01*
D02*
G37*
G36*
X168850Y135001D02*
X168852Y135000D01*
X169250D01*
Y134602D01*
X169251Y134600D01*
X169261Y134500D01*
Y131500D01*
X169251Y131400D01*
X169250Y131398D01*
Y131000D01*
X168852D01*
X168850Y130999D01*
X168750Y130990D01*
X162500D01*
X162400Y130999D01*
X162398Y131000D01*
X162000D01*
Y131398D01*
X161999Y131400D01*
X161990Y131500D01*
Y134500D01*
X161999Y134600D01*
X162000Y134602D01*
Y135000D01*
X162398D01*
X162400Y135001D01*
X162500Y135010D01*
X168750D01*
X168850Y135001D01*
D02*
G37*
G36*
X193600Y135251D02*
X193602Y135250D01*
X194000D01*
Y134852D01*
X194001Y134850D01*
X194011Y134750D01*
Y131250D01*
X194001Y131150D01*
X194000Y131148D01*
Y130750D01*
X193602D01*
X193600Y130749D01*
X193500Y130739D01*
X187250D01*
X187150Y130749D01*
X187148Y130750D01*
X186750D01*
Y131148D01*
X186749Y131150D01*
X186740Y131250D01*
Y134750D01*
X186749Y134850D01*
X186750Y134852D01*
Y135250D01*
X187148D01*
X187150Y135251D01*
X187250Y135260D01*
X193500D01*
X193600Y135251D01*
D02*
G37*
G36*
X168850Y130001D02*
X168852Y130000D01*
X169250D01*
Y129602D01*
X169251Y129600D01*
X169261Y129500D01*
Y126500D01*
X169251Y126400D01*
X169250Y126398D01*
Y126000D01*
X168852D01*
X168850Y125999D01*
X168750Y125990D01*
X162500D01*
X162400Y125999D01*
X162398Y126000D01*
X162000D01*
Y126398D01*
X161999Y126400D01*
X161990Y126500D01*
Y129500D01*
X161999Y129600D01*
X162000Y129602D01*
Y130000D01*
X162398D01*
X162400Y130001D01*
X162500Y130010D01*
X168750D01*
X168850Y130001D01*
D02*
G37*
G36*
X193600Y128751D02*
X193602Y128750D01*
X194000D01*
Y128352D01*
X194001Y128350D01*
X194011Y128250D01*
Y124750D01*
X194001Y124650D01*
X194000Y124648D01*
Y124250D01*
X193602D01*
X193600Y124249D01*
X193500Y124240D01*
X188260D01*
X188227Y124243D01*
X188195Y124244D01*
X188178Y124248D01*
X188160Y124249D01*
X188158Y124250D01*
X187760D01*
X186750Y124830D01*
Y125228D01*
X186749Y125230D01*
X186746Y125263D01*
X186741Y125295D01*
X186741Y125313D01*
X186740Y125330D01*
Y128250D01*
X186749Y128350D01*
X186750Y128352D01*
Y128750D01*
X187148D01*
X187150Y128751D01*
X187250Y128760D01*
X193500D01*
X193600Y128751D01*
D02*
G37*
G36*
X186023Y124257D02*
X186056Y124256D01*
X186072Y124252D01*
X186090Y124251D01*
X186092Y124250D01*
X186490D01*
X187500Y123670D01*
Y123272D01*
X187501Y123270D01*
X187504Y123237D01*
X187509Y123205D01*
X187509Y123187D01*
X187511Y123170D01*
Y117500D01*
X187501Y117400D01*
X187500Y117398D01*
Y117000D01*
X187102D01*
X187100Y116999D01*
X187000Y116989D01*
X179000D01*
X178900Y116999D01*
X178898Y117000D01*
X178500D01*
Y117398D01*
X178499Y117400D01*
X178490Y117500D01*
Y123750D01*
X178499Y123850D01*
X178500Y123852D01*
Y124250D01*
X178898D01*
X178900Y124251D01*
X179000Y124261D01*
X185990D01*
X186023Y124257D01*
D02*
G37*
G36*
X177100Y124251D02*
X177102Y124250D01*
X177500D01*
Y123852D01*
X177501Y123850D01*
X177511Y123750D01*
Y117500D01*
X177501Y117400D01*
X177500Y117398D01*
Y117000D01*
X177102D01*
X177100Y116999D01*
X177000Y116989D01*
X174000D01*
X173900Y116999D01*
X173898Y117000D01*
X173500D01*
Y117398D01*
X173499Y117400D01*
X173490Y117500D01*
Y123750D01*
X173499Y123850D01*
X173500Y123852D01*
Y124250D01*
X173898D01*
X173900Y124251D01*
X174000Y124261D01*
X177000D01*
X177100Y124251D01*
D02*
G37*
G36*
X172100D02*
X172102Y124250D01*
X172500D01*
Y123852D01*
X172501Y123850D01*
X172511Y123750D01*
Y117500D01*
X172501Y117400D01*
X172500Y117398D01*
Y117000D01*
X172102D01*
X172100Y116999D01*
X172000Y116989D01*
X169000D01*
X168900Y116999D01*
X168898Y117000D01*
X168500D01*
Y117398D01*
X168499Y117400D01*
X168490Y117500D01*
Y123750D01*
X168499Y123850D01*
X168500Y123852D01*
Y124250D01*
X168898D01*
X168900Y124251D01*
X169000Y124261D01*
X172000D01*
X172100Y124251D01*
D02*
G37*
G36*
X-108340Y-356114D02*
X-108155Y-356280D01*
X-108081Y-356373D01*
X-108026Y-356484D01*
X-108007Y-356558D01*
Y-356577D01*
Y-356595D01*
Y-356688D01*
X-107989Y-356836D01*
Y-357002D01*
Y-357169D01*
Y-357336D01*
Y-357484D01*
Y-357576D01*
Y-357595D01*
Y-357613D01*
Y-358725D01*
X-108396Y-359095D01*
X-118432D01*
X-118932Y-358613D01*
Y-357391D01*
Y-357206D01*
Y-357039D01*
Y-356891D01*
X-118913Y-356762D01*
Y-356651D01*
Y-356577D01*
Y-356540D01*
Y-356521D01*
Y-356391D01*
X-118895Y-356299D01*
Y-356225D01*
Y-356169D01*
Y-356132D01*
Y-356114D01*
X-118376D01*
X-118080Y-356095D01*
X-116691D01*
X-116062Y-356077D01*
X-113581D01*
X-108340Y-356114D01*
D02*
G37*
G36*
X-127079Y-356095D02*
X-125357D01*
X-125154Y-356114D01*
X-124598D01*
X-124450Y-356132D01*
X-124209Y-356169D01*
X-124024Y-356225D01*
X-123876Y-356280D01*
X-123802Y-356336D01*
X-123746Y-356391D01*
X-123709Y-356410D01*
Y-356428D01*
Y-356447D01*
Y-356502D01*
X-123691Y-356651D01*
Y-356780D01*
Y-356817D01*
Y-356836D01*
X-123672Y-357114D01*
Y-357373D01*
Y-357484D01*
Y-357576D01*
Y-357632D01*
Y-357651D01*
Y-357928D01*
Y-358132D01*
X-123691Y-358299D01*
Y-358428D01*
Y-358521D01*
X-123709Y-358576D01*
Y-358595D01*
Y-358613D01*
X-123746Y-358725D01*
X-123802Y-358817D01*
X-123839Y-358873D01*
X-123857Y-358891D01*
X-124061Y-359095D01*
X-129616D01*
X-130171Y-358484D01*
X-132671D01*
X-133264Y-359095D01*
X-137393D01*
X-137689Y-359076D01*
X-138208D01*
X-138430Y-359058D01*
X-138597Y-359039D01*
X-138708D01*
X-138800Y-359021D01*
X-138837D01*
X-138874Y-359002D01*
X-138893D01*
X-139023Y-358873D01*
X-139096Y-358725D01*
X-139134Y-358613D01*
X-139152Y-358595D01*
Y-358576D01*
X-139171Y-358447D01*
X-139189Y-358299D01*
X-139208Y-357947D01*
Y-357799D01*
Y-357669D01*
Y-357576D01*
Y-357539D01*
Y-356502D01*
X-138985Y-356280D01*
X-138745Y-356077D01*
X-127357D01*
X-127079Y-356095D01*
D02*
G37*
G36*
X-91213Y-356095D02*
X-91120D01*
X-90990Y-356132D01*
X-90879Y-356188D01*
X-90805Y-356262D01*
X-90768Y-356280D01*
X-90527Y-356465D01*
Y-370001D01*
X-90731Y-370205D01*
X-90842Y-370297D01*
X-90935Y-370334D01*
X-91009Y-370371D01*
X-91138D01*
X-91268Y-370390D01*
X-93157D01*
X-93546Y-369927D01*
Y-365150D01*
X-92953Y-364557D01*
Y-361983D01*
X-93546Y-361391D01*
Y-358928D01*
X-93509Y-356428D01*
X-93305Y-356262D01*
X-93194Y-356169D01*
X-93083Y-356114D01*
X-93009Y-356095D01*
X-92879D01*
X-92750Y-356077D01*
X-91305D01*
X-91213Y-356095D01*
D02*
G37*
G36*
X-103063Y-356502D02*
Y-361743D01*
X-94064D01*
X-93546Y-362187D01*
Y-364243D01*
X-94027Y-364724D01*
X-103063D01*
Y-367298D01*
Y-367649D01*
Y-367983D01*
Y-368279D01*
Y-368538D01*
Y-368760D01*
X-103082Y-368964D01*
Y-369149D01*
Y-369297D01*
Y-369427D01*
Y-369520D01*
X-103100Y-369612D01*
Y-369668D01*
Y-369760D01*
Y-369779D01*
X-103119Y-369927D01*
X-103156Y-370057D01*
X-103193Y-370168D01*
X-103248Y-370242D01*
X-103285Y-370297D01*
X-103341Y-370334D01*
X-103359Y-370353D01*
X-103600D01*
X-103730Y-370371D01*
X-103785D01*
X-104063Y-370390D01*
X-105248Y-370390D01*
X-105378Y-370372D01*
X-105563D01*
X-105674Y-370334D01*
X-105785Y-370279D01*
X-105859Y-370223D01*
X-105878Y-370205D01*
X-106044Y-370001D01*
Y-356502D01*
X-105841Y-356280D01*
X-105618Y-356077D01*
X-103471Y-356077D01*
X-103063Y-356502D01*
D02*
G37*
G36*
X-119543Y-358891D02*
X-118858Y-359595D01*
Y-367372D01*
X-108340Y-367390D01*
X-108155Y-367575D01*
X-108081Y-367687D01*
X-108026Y-367798D01*
X-108007Y-367872D01*
Y-367890D01*
Y-367909D01*
Y-368001D01*
X-107989Y-368131D01*
Y-368279D01*
Y-368446D01*
Y-368594D01*
Y-368723D01*
Y-368816D01*
Y-368853D01*
Y-369131D01*
Y-369372D01*
Y-369538D01*
Y-369668D01*
X-108007Y-369760D01*
Y-369835D01*
Y-369853D01*
Y-369871D01*
X-108044Y-369983D01*
X-108081Y-370075D01*
X-108137Y-370149D01*
X-108155Y-370168D01*
X-108340Y-370390D01*
X-116988D01*
X-117284Y-370372D01*
X-118691D01*
X-119024Y-370353D01*
X-119710D01*
X-119839Y-370334D01*
X-120043D01*
X-120302Y-370297D01*
X-120543Y-370242D01*
X-120747Y-370168D01*
X-120913Y-370075D01*
X-121043Y-370001D01*
X-121135Y-369927D01*
X-121191Y-369890D01*
X-121209Y-369871D01*
X-121321Y-369779D01*
X-121395Y-369686D01*
X-121469Y-369612D01*
X-121487Y-369594D01*
X-121561Y-369464D01*
X-121617Y-369372D01*
X-121654Y-369297D01*
X-121672Y-369279D01*
X-121709Y-369149D01*
X-121747Y-368983D01*
X-121784Y-368798D01*
X-121802Y-368612D01*
Y-368446D01*
X-121820Y-368298D01*
Y-368205D01*
Y-368168D01*
Y-368075D01*
Y-367964D01*
Y-367835D01*
Y-367705D01*
Y-367353D01*
X-121839Y-366983D01*
Y-366557D01*
Y-366094D01*
Y-365168D01*
Y-364705D01*
Y-364261D01*
Y-363854D01*
Y-363502D01*
Y-363205D01*
Y-363076D01*
Y-362983D01*
Y-362891D01*
Y-362835D01*
Y-362798D01*
Y-362780D01*
Y-362335D01*
Y-361909D01*
Y-361502D01*
Y-361113D01*
X-121858Y-360761D01*
Y-360428D01*
Y-360113D01*
Y-359817D01*
Y-359539D01*
Y-359280D01*
Y-358817D01*
X-121839Y-358428D01*
Y-358095D01*
Y-357817D01*
Y-357595D01*
Y-357428D01*
X-121820Y-357299D01*
Y-357206D01*
Y-357132D01*
Y-357095D01*
X-121784Y-356836D01*
X-121747Y-356632D01*
X-121691Y-356465D01*
X-121635Y-356354D01*
X-121580Y-356262D01*
X-121524Y-356225D01*
X-121506Y-356188D01*
X-121487D01*
X-121395Y-356132D01*
X-121265Y-356114D01*
X-121154Y-356095D01*
X-121117D01*
X-120895Y-356077D01*
X-119543D01*
Y-358891D01*
D02*
G37*
G36*
X-129931Y-359595D02*
Y-370001D01*
X-130098Y-370205D01*
X-130209Y-370297D01*
X-130320Y-370334D01*
X-130394Y-370372D01*
X-130523D01*
X-130653Y-370390D01*
X-132560D01*
X-132949Y-369927D01*
Y-359650D01*
X-132708Y-359410D01*
X-132468Y-359169D01*
X-130338D01*
X-129931Y-359595D01*
D02*
G37*
G36*
X-145337Y-356095D02*
X-143837D01*
X-143540Y-356114D01*
X-142985D01*
X-142892Y-356132D01*
X-142781D01*
X-142485Y-356169D01*
X-142226Y-356225D01*
X-142022Y-356299D01*
X-141837Y-356373D01*
X-141707Y-356428D01*
X-141596Y-356502D01*
X-141541Y-356540D01*
X-141522Y-356558D01*
X-141430Y-356669D01*
X-141337Y-356780D01*
X-141281Y-356854D01*
X-141263Y-356891D01*
X-141170Y-357002D01*
X-141115Y-357077D01*
X-141078Y-357132D01*
Y-357151D01*
X-140893Y-357465D01*
X-140874Y-363761D01*
Y-370001D01*
X-141041Y-370205D01*
X-141152Y-370297D01*
X-141244Y-370334D01*
X-141319Y-370372D01*
X-141448D01*
X-141578Y-370390D01*
X-142559D01*
X-142744Y-370372D01*
X-142911D01*
X-143059Y-370353D01*
X-143189Y-370334D01*
X-143300Y-370316D01*
X-143466Y-370279D01*
X-143577Y-370242D01*
X-143652Y-370223D01*
X-143670Y-370186D01*
X-143689D01*
X-143707Y-370131D01*
X-143726Y-370038D01*
X-143744Y-369909D01*
X-143763Y-369779D01*
X-143800Y-369446D01*
X-143818Y-369094D01*
X-143837Y-368742D01*
Y-368594D01*
X-143855Y-368446D01*
Y-368335D01*
Y-368242D01*
Y-368186D01*
Y-368168D01*
X-143892Y-366261D01*
X-152836D01*
X-153373Y-365761D01*
Y-363724D01*
X-152873Y-363224D01*
X-143855D01*
Y-359095D01*
X-153373D01*
Y-362817D01*
X-153947Y-363409D01*
Y-365983D01*
X-153373Y-366557D01*
Y-369927D01*
X-153743Y-370390D01*
X-155539D01*
X-155669Y-370372D01*
X-155873D01*
X-155984Y-370334D01*
X-156076Y-370279D01*
X-156150Y-370223D01*
X-156169Y-370205D01*
X-156391Y-370001D01*
X-156354Y-363724D01*
X-156317Y-357391D01*
X-156113Y-357021D01*
X-155984Y-356836D01*
X-155836Y-356669D01*
X-155724Y-356577D01*
X-155687Y-356540D01*
X-155669D01*
X-155447Y-356391D01*
X-155243Y-356280D01*
X-155169Y-356243D01*
X-155095Y-356206D01*
X-155058Y-356188D01*
X-155039D01*
X-154984Y-356169D01*
X-154928D01*
X-154743Y-356132D01*
X-154502D01*
X-154262Y-356114D01*
X-154021Y-356095D01*
X-152688D01*
X-152317Y-356077D01*
X-145614D01*
X-145337Y-356095D01*
D02*
G37*
G36*
X-164149D02*
X-162205D01*
X-162020Y-356114D01*
X-161150D01*
X-161020Y-356132D01*
X-160891D01*
X-160539Y-356169D01*
X-160243Y-356225D01*
X-160002Y-356299D01*
X-159798Y-356373D01*
X-159631Y-356428D01*
X-159539Y-356502D01*
X-159465Y-356540D01*
X-159446Y-356558D01*
X-159354Y-356669D01*
X-159280Y-356780D01*
X-159224Y-356854D01*
X-159206Y-356891D01*
X-159113Y-357002D01*
X-159039Y-357077D01*
X-159002Y-357132D01*
X-158983Y-357151D01*
X-158817Y-357465D01*
X-158780Y-363613D01*
Y-364076D01*
Y-364539D01*
Y-364965D01*
Y-365372D01*
Y-365761D01*
Y-366113D01*
Y-366465D01*
Y-366761D01*
X-158798Y-367038D01*
Y-367298D01*
Y-367501D01*
Y-367687D01*
Y-367835D01*
Y-367927D01*
Y-368001D01*
Y-368020D01*
Y-368353D01*
Y-368631D01*
Y-368890D01*
X-158817Y-369094D01*
Y-369279D01*
Y-369446D01*
Y-369557D01*
Y-369668D01*
Y-369742D01*
Y-369816D01*
Y-369890D01*
Y-369927D01*
X-158872Y-370038D01*
X-158891Y-370075D01*
X-158909Y-370094D01*
X-158965Y-370186D01*
X-158983Y-370223D01*
Y-370242D01*
X-159076Y-370316D01*
X-159187Y-370353D01*
X-159261Y-370372D01*
X-159391D01*
X-159539Y-370390D01*
X-160965D01*
X-161094Y-370372D01*
X-161298D01*
X-161427Y-370334D01*
X-161520Y-370279D01*
X-161576Y-370223D01*
X-161594Y-370205D01*
X-161798Y-370001D01*
Y-359095D01*
X-166390D01*
Y-364280D01*
X-166760Y-364724D01*
X-168575D01*
X-168705Y-364705D01*
X-168908D01*
X-169038Y-364668D01*
X-169130Y-364631D01*
X-169186Y-364576D01*
X-169205Y-364557D01*
X-169408Y-364372D01*
Y-359095D01*
X-173612D01*
X-174259Y-358410D01*
X-177000D01*
Y-357428D01*
Y-357188D01*
Y-356984D01*
X-176982Y-356817D01*
Y-356688D01*
Y-356614D01*
X-176963Y-356540D01*
Y-356521D01*
Y-356502D01*
X-176889Y-356354D01*
X-176796Y-356262D01*
X-176704Y-356206D01*
X-176685Y-356188D01*
X-176667D01*
Y-356151D01*
X-176630D01*
X-176556Y-356132D01*
X-176333D01*
X-176167Y-356114D01*
X-175648D01*
X-175296Y-356095D01*
X-173408D01*
X-172926Y-356077D01*
X-164538D01*
X-164149Y-356095D01*
D02*
G37*
G36*
X-173982Y-359595D02*
X-174019Y-364798D01*
Y-370001D01*
X-174223Y-370168D01*
X-174315Y-370279D01*
X-174408Y-370334D01*
X-174482Y-370372D01*
X-174611D01*
X-174741Y-370390D01*
X-176130D01*
X-176259Y-370372D01*
X-176463D01*
X-176593Y-370334D01*
X-176704Y-370297D01*
X-176778Y-370260D01*
X-176796Y-370242D01*
X-177000Y-370075D01*
Y-364557D01*
Y-359039D01*
X-174537D01*
X-173982Y-359595D01*
D02*
G37*
G36*
X-85750Y-345467D02*
X-85695Y-345485D01*
X-85676D01*
X-85583Y-345504D01*
X-85510Y-345541D01*
X-85472Y-345559D01*
X-85454D01*
X-85417Y-345578D01*
X-85343Y-345633D01*
X-85250Y-345707D01*
X-85121Y-345800D01*
X-84972Y-345929D01*
X-84824Y-346041D01*
X-84473Y-346318D01*
X-84139Y-346596D01*
X-83973Y-346726D01*
X-83825Y-346837D01*
X-83713Y-346929D01*
X-83621Y-347004D01*
X-83565Y-347040D01*
X-83547Y-347059D01*
X-82825Y-347615D01*
X-82084Y-348207D01*
X-81362Y-348781D01*
X-81010Y-349059D01*
X-80677Y-349337D01*
X-80362Y-349577D01*
X-80084Y-349799D01*
X-79825Y-350003D01*
X-79603Y-350188D01*
X-79418Y-350318D01*
X-79288Y-350429D01*
X-79214Y-350503D01*
X-79177Y-350522D01*
X-73066Y-355429D01*
Y-357650D01*
Y-358076D01*
Y-358428D01*
Y-358743D01*
Y-358984D01*
X-73085Y-359169D01*
Y-359299D01*
Y-359391D01*
Y-359410D01*
Y-359595D01*
X-73103Y-359743D01*
X-73122Y-359854D01*
Y-359928D01*
X-73140Y-359984D01*
Y-360021D01*
X-73159Y-360039D01*
X-73196Y-360076D01*
X-73270Y-360169D01*
X-73400Y-360317D01*
X-73566Y-360484D01*
X-73751Y-360687D01*
X-73955Y-360928D01*
X-74399Y-361409D01*
X-74844Y-361891D01*
X-75066Y-362113D01*
X-75233Y-362317D01*
X-75399Y-362483D01*
X-75511Y-362613D01*
X-75585Y-362687D01*
X-75622Y-362724D01*
X-76547Y-363724D01*
X-77473Y-364724D01*
X-77936Y-365205D01*
X-78381Y-365687D01*
X-78807Y-366150D01*
X-79195Y-366576D01*
X-79566Y-366983D01*
X-79917Y-367353D01*
X-80214Y-367687D01*
X-80473Y-367964D01*
X-80677Y-368186D01*
X-80843Y-368353D01*
X-80936Y-368464D01*
X-80973Y-368483D01*
Y-368501D01*
X-82047Y-369668D01*
X-82565Y-370223D01*
X-83065Y-370760D01*
X-83547Y-371279D01*
X-83991Y-371760D01*
X-84417Y-372223D01*
X-84806Y-372649D01*
X-85176Y-373019D01*
X-85491Y-373371D01*
X-85769Y-373667D01*
X-86009Y-373927D01*
X-86195Y-374130D01*
X-86343Y-374278D01*
X-86417Y-374371D01*
X-86454Y-374408D01*
X-86898Y-374889D01*
X-87306Y-375334D01*
X-87657Y-375704D01*
X-87972Y-376037D01*
X-88231Y-376334D01*
X-88472Y-376575D01*
X-88676Y-376797D01*
X-88824Y-376963D01*
X-88972Y-377112D01*
X-89065Y-377223D01*
X-89157Y-377315D01*
X-89213Y-377371D01*
X-89250Y-377408D01*
X-89287Y-377445D01*
X-89305Y-377463D01*
X-89657Y-377815D01*
X-89861Y-377537D01*
X-89972Y-377426D01*
X-90065Y-377315D01*
X-90194Y-377149D01*
X-90268Y-377037D01*
X-90287Y-377019D01*
Y-377000D01*
X-90342Y-376834D01*
X-90361Y-376667D01*
X-90379Y-376538D01*
Y-376519D01*
Y-376500D01*
X-90342Y-376389D01*
X-90268Y-376241D01*
X-90176Y-376056D01*
X-90046Y-375871D01*
X-89935Y-375704D01*
X-89824Y-375556D01*
X-89750Y-375463D01*
X-89731Y-375426D01*
X-89657Y-375334D01*
X-89583Y-375223D01*
X-89361Y-374945D01*
X-89102Y-374612D01*
X-88805Y-374241D01*
X-88472Y-373815D01*
X-88120Y-373371D01*
X-87398Y-372464D01*
X-87046Y-372019D01*
X-86713Y-371594D01*
X-86398Y-371205D01*
X-86121Y-370871D01*
X-85898Y-370575D01*
X-85806Y-370464D01*
X-85713Y-370353D01*
X-85658Y-370279D01*
X-85602Y-370223D01*
X-85583Y-370186D01*
X-85565Y-370168D01*
X-85195Y-369705D01*
X-84843Y-369260D01*
X-84510Y-368835D01*
X-84195Y-368427D01*
X-83880Y-368057D01*
X-83602Y-367687D01*
X-83324Y-367353D01*
X-83084Y-367057D01*
X-82862Y-366779D01*
X-82676Y-366539D01*
X-82510Y-366316D01*
X-82362Y-366150D01*
X-82251Y-366002D01*
X-82177Y-365909D01*
X-82121Y-365835D01*
X-82102Y-365816D01*
X-81843Y-365483D01*
X-81602Y-365205D01*
X-81399Y-364946D01*
X-81232Y-364724D01*
X-81084Y-364539D01*
X-80954Y-364372D01*
X-80843Y-364243D01*
X-80751Y-364113D01*
X-80695Y-364039D01*
X-80640Y-363965D01*
X-80566Y-363872D01*
X-80528Y-363835D01*
Y-363817D01*
X-80399Y-363613D01*
X-80343Y-363446D01*
X-80306Y-363335D01*
Y-363317D01*
Y-363298D01*
X-80325Y-363113D01*
X-80380Y-362965D01*
X-80436Y-362854D01*
X-80454Y-362835D01*
Y-362817D01*
X-80473Y-362780D01*
X-80528Y-362706D01*
X-80603Y-362594D01*
X-80695Y-362465D01*
X-80825Y-362317D01*
X-80936Y-362150D01*
X-81214Y-361798D01*
X-81491Y-361465D01*
X-81621Y-361298D01*
X-81732Y-361169D01*
X-81825Y-361039D01*
X-81899Y-360947D01*
X-81936Y-360891D01*
X-81954Y-360872D01*
X-82510Y-360150D01*
X-83102Y-359428D01*
X-83676Y-358688D01*
X-83954Y-358354D01*
X-84213Y-358021D01*
X-84454Y-357706D01*
X-84676Y-357428D01*
X-84880Y-357169D01*
X-85047Y-356965D01*
X-85195Y-356780D01*
X-85287Y-356651D01*
X-85361Y-356577D01*
X-85380Y-356539D01*
X-85750Y-356077D01*
X-86102Y-355651D01*
X-86454Y-355225D01*
X-86769Y-354818D01*
X-87083Y-354447D01*
X-87361Y-354095D01*
X-87620Y-353762D01*
X-87861Y-353466D01*
X-88083Y-353188D01*
X-88287Y-352947D01*
X-88454Y-352744D01*
X-88583Y-352559D01*
X-88694Y-352429D01*
X-88768Y-352318D01*
X-88824Y-352262D01*
X-88842Y-352244D01*
X-89102Y-351929D01*
X-89324Y-351633D01*
X-89509Y-351392D01*
X-89676Y-351188D01*
X-89824Y-351003D01*
X-89953Y-350855D01*
X-90046Y-350725D01*
X-90120Y-350614D01*
X-90194Y-350540D01*
X-90231Y-350466D01*
X-90287Y-350392D01*
X-90324Y-350355D01*
X-90342Y-350318D01*
Y-350262D01*
X-90361Y-350207D01*
Y-350188D01*
X-90379Y-350077D01*
Y-349985D01*
Y-349911D01*
Y-349892D01*
X-90361Y-349762D01*
X-90342Y-349670D01*
X-90324Y-349596D01*
X-90305Y-349559D01*
X-90213Y-349392D01*
X-90083Y-349226D01*
X-90028Y-349151D01*
X-89972Y-349096D01*
X-89953Y-349059D01*
X-89935Y-349040D01*
X-89750Y-348800D01*
X-89509Y-348540D01*
X-89268Y-348263D01*
X-89028Y-348003D01*
X-88805Y-347763D01*
X-88620Y-347578D01*
X-88546Y-347503D01*
X-88491Y-347448D01*
X-88472Y-347429D01*
X-88454Y-347411D01*
X-88083Y-347040D01*
X-87750Y-346726D01*
X-87472Y-346466D01*
X-87232Y-346263D01*
X-87046Y-346115D01*
X-86917Y-346004D01*
X-86824Y-345929D01*
X-86806Y-345911D01*
X-86676Y-345818D01*
X-86565Y-345744D01*
X-86472Y-345670D01*
X-86398Y-345615D01*
X-86324Y-345559D01*
X-86287Y-345541D01*
X-86158Y-345485D01*
X-86028Y-345467D01*
X-85935Y-345448D01*
X-85898D01*
X-85750Y-345467D01*
D02*
G37*
G36*
X-59160D02*
X-59012Y-345485D01*
X-58938Y-345522D01*
X-58901Y-345541D01*
X-58827Y-345578D01*
X-58734Y-345652D01*
X-58549Y-345781D01*
X-58475Y-345837D01*
X-58401Y-345892D01*
X-58364Y-345929D01*
X-58346Y-345948D01*
X-58049Y-346207D01*
X-57735Y-346466D01*
X-57438Y-346744D01*
X-57161Y-347004D01*
X-56938Y-347226D01*
X-56753Y-347392D01*
X-56679Y-347466D01*
X-56624Y-347522D01*
X-56605Y-347541D01*
X-56587Y-347559D01*
X-56253Y-347892D01*
X-55957Y-348207D01*
X-55698Y-348503D01*
X-55494Y-348744D01*
X-55346Y-348929D01*
X-55235Y-349077D01*
X-55161Y-349170D01*
X-55142Y-349207D01*
X-55013Y-349374D01*
X-54939Y-349485D01*
X-54901Y-349577D01*
X-54883Y-349596D01*
X-54846Y-349707D01*
X-54827Y-349837D01*
Y-349929D01*
Y-349948D01*
Y-349966D01*
Y-350355D01*
X-59790Y-356558D01*
X-64771Y-362780D01*
X-67419D01*
X-67696Y-362798D01*
X-68159D01*
X-68363Y-362817D01*
X-68919D01*
X-68993Y-362835D01*
X-69215D01*
X-69456Y-362872D01*
X-69641Y-362909D01*
X-69752Y-362965D01*
X-69770Y-362983D01*
X-69789D01*
X-69844Y-363020D01*
X-69956Y-363113D01*
X-70085Y-363224D01*
X-70233Y-363354D01*
X-70381Y-363483D01*
X-70493Y-363594D01*
X-70585Y-363668D01*
X-70622Y-363705D01*
X-70918Y-363983D01*
X-71252Y-364261D01*
X-71585Y-364576D01*
X-71900Y-364854D01*
X-72178Y-365113D01*
X-72307Y-365224D01*
X-72418Y-365335D01*
X-72492Y-365409D01*
X-72566Y-365465D01*
X-72603Y-365502D01*
X-72622Y-365520D01*
X-73103Y-365965D01*
X-73585Y-366427D01*
X-74066Y-366872D01*
X-74529Y-367279D01*
X-74733Y-367464D01*
X-74918Y-367649D01*
X-75085Y-367798D01*
X-75214Y-367927D01*
X-75325Y-368038D01*
X-75418Y-368112D01*
X-75473Y-368168D01*
X-75492Y-368186D01*
X-76103Y-368760D01*
X-76714Y-369316D01*
X-77307Y-369853D01*
X-77584Y-370112D01*
X-77825Y-370353D01*
X-78066Y-370575D01*
X-78288Y-370779D01*
X-78473Y-370946D01*
X-78640Y-371094D01*
X-78769Y-371223D01*
X-78881Y-371316D01*
X-78936Y-371371D01*
X-78955Y-371390D01*
X-87843Y-379630D01*
X-88435Y-379056D01*
X-89028Y-378500D01*
X-87917Y-377334D01*
X-87620Y-377019D01*
X-87306Y-376667D01*
X-86639Y-375945D01*
X-85935Y-375204D01*
X-85602Y-374852D01*
X-85287Y-374501D01*
X-84972Y-374167D01*
X-84695Y-373871D01*
X-84436Y-373593D01*
X-84213Y-373353D01*
X-84047Y-373167D01*
X-83898Y-373019D01*
X-83825Y-372927D01*
X-83787Y-372890D01*
X-82806Y-371834D01*
X-81880Y-370834D01*
X-81436Y-370353D01*
X-81010Y-369908D01*
X-80603Y-369464D01*
X-80232Y-369057D01*
X-79880Y-368686D01*
X-79566Y-368353D01*
X-79306Y-368075D01*
X-79066Y-367816D01*
X-78881Y-367631D01*
X-78751Y-367483D01*
X-78677Y-367390D01*
X-78640Y-367353D01*
X-78177Y-366853D01*
X-77733Y-366353D01*
X-77307Y-365890D01*
X-76899Y-365465D01*
X-76510Y-365039D01*
X-76159Y-364650D01*
X-75807Y-364280D01*
X-75511Y-363946D01*
X-75233Y-363650D01*
X-74992Y-363391D01*
X-74770Y-363168D01*
X-74603Y-362965D01*
X-74455Y-362817D01*
X-74363Y-362706D01*
X-74288Y-362631D01*
X-74270Y-362613D01*
X-73937Y-362261D01*
X-73659Y-361946D01*
X-73400Y-361669D01*
X-73177Y-361428D01*
X-72992Y-361224D01*
X-72844Y-361058D01*
X-72715Y-360910D01*
X-72622Y-360798D01*
X-72529Y-360706D01*
X-72474Y-360632D01*
X-72400Y-360539D01*
X-72363Y-360484D01*
X-72326Y-360410D01*
X-72289Y-360335D01*
X-72233Y-360150D01*
Y-360076D01*
X-72215Y-360002D01*
Y-359965D01*
Y-359947D01*
Y-359854D01*
Y-359743D01*
X-72196Y-359613D01*
Y-359447D01*
Y-359113D01*
X-72178Y-358761D01*
Y-358410D01*
X-72159Y-358262D01*
Y-358132D01*
Y-358021D01*
Y-357928D01*
Y-357873D01*
Y-357854D01*
X-72122Y-355429D01*
X-65882Y-350448D01*
X-65475Y-350114D01*
X-65086Y-349818D01*
X-64715Y-349522D01*
X-64382Y-349244D01*
X-64049Y-348966D01*
X-63734Y-348726D01*
X-63160Y-348263D01*
X-62660Y-347874D01*
X-62216Y-347522D01*
X-61845Y-347226D01*
X-61512Y-346967D01*
X-61253Y-346763D01*
X-61031Y-346578D01*
X-60845Y-346448D01*
X-60716Y-346337D01*
X-60605Y-346263D01*
X-60549Y-346207D01*
X-60512Y-346170D01*
X-60494D01*
X-60179Y-345929D01*
X-59920Y-345744D01*
X-59716Y-345615D01*
X-59568Y-345541D01*
X-59457Y-345485D01*
X-59383Y-345467D01*
X-59364Y-345448D01*
X-59345D01*
X-59160Y-345467D01*
D02*
G37*
G36*
X-54827Y-376149D02*
Y-376538D01*
X-54846Y-376741D01*
X-54883Y-376908D01*
X-54939Y-377019D01*
X-54957Y-377037D01*
Y-377056D01*
X-55013Y-377149D01*
X-55124Y-377278D01*
X-55235Y-377445D01*
X-55364Y-377593D01*
X-55494Y-377741D01*
X-55605Y-377871D01*
X-55661Y-377945D01*
X-55698Y-377982D01*
X-55920Y-378241D01*
X-56142Y-378482D01*
X-56364Y-378722D01*
X-56568Y-378926D01*
X-56735Y-379111D01*
X-56883Y-379241D01*
X-56975Y-379333D01*
X-57012Y-379370D01*
X-57290Y-379630D01*
X-57531Y-379852D01*
X-57753Y-380056D01*
X-57957Y-380222D01*
X-58123Y-380352D01*
X-58235Y-380463D01*
X-58327Y-380518D01*
X-58346Y-380537D01*
X-58494Y-380648D01*
X-58605Y-380722D01*
X-58697Y-380796D01*
X-58772Y-380852D01*
X-58827Y-380889D01*
X-58864Y-380907D01*
X-58901Y-380926D01*
X-59012Y-380963D01*
X-59160Y-380981D01*
X-59271Y-381000D01*
X-59697D01*
X-65882Y-376075D01*
X-66789Y-375334D01*
X-67234Y-374982D01*
X-67641Y-374667D01*
X-68030Y-374352D01*
X-68382Y-374056D01*
X-68733Y-373797D01*
X-69030Y-373538D01*
X-69326Y-373316D01*
X-69567Y-373112D01*
X-69789Y-372945D01*
X-69974Y-372797D01*
X-70122Y-372686D01*
X-70215Y-372612D01*
X-70289Y-372556D01*
X-70307Y-372538D01*
X-70641Y-372279D01*
X-70937Y-372038D01*
X-71196Y-371834D01*
X-71418Y-371668D01*
X-71603Y-371520D01*
X-71770Y-371390D01*
X-71900Y-371297D01*
X-72011Y-371205D01*
X-72085Y-371149D01*
X-72159Y-371094D01*
X-72252Y-371038D01*
X-72289Y-371001D01*
X-72381Y-370983D01*
X-72455D01*
X-72511Y-370964D01*
X-72677D01*
X-72733Y-370983D01*
X-72751D01*
X-72789Y-371001D01*
X-72863Y-371038D01*
X-72955Y-371094D01*
X-73085Y-371186D01*
X-73363Y-371371D01*
X-73677Y-371612D01*
X-73992Y-371834D01*
X-74122Y-371945D01*
X-74251Y-372038D01*
X-74363Y-372131D01*
X-74437Y-372186D01*
X-74492Y-372223D01*
X-74511Y-372242D01*
X-74825Y-372482D01*
X-75177Y-372760D01*
X-75548Y-373056D01*
X-75936Y-373353D01*
X-76714Y-373982D01*
X-77103Y-374297D01*
X-77473Y-374593D01*
X-77825Y-374871D01*
X-78158Y-375149D01*
X-78455Y-375389D01*
X-78714Y-375593D01*
X-78936Y-375760D01*
X-79103Y-375889D01*
X-79195Y-375964D01*
X-79232Y-376001D01*
X-85491Y-381000D01*
X-85880D01*
X-86065Y-380981D01*
X-86195Y-380963D01*
X-86269Y-380944D01*
X-86287D01*
X-86398Y-380889D01*
X-86528Y-380796D01*
X-86639Y-380722D01*
X-86657Y-380685D01*
X-86676D01*
X-86787Y-380574D01*
X-86880Y-380500D01*
X-86954Y-380444D01*
X-86972Y-380426D01*
X-87046Y-380370D01*
X-87083Y-380333D01*
X-87120Y-380296D01*
X-87083Y-380259D01*
X-87009Y-380185D01*
X-86861Y-380056D01*
X-86694Y-379889D01*
X-86491Y-379704D01*
X-86250Y-379482D01*
X-85750Y-379019D01*
X-85250Y-378556D01*
X-85028Y-378334D01*
X-84824Y-378148D01*
X-84658Y-377982D01*
X-84510Y-377852D01*
X-84436Y-377778D01*
X-84398Y-377741D01*
X-83362Y-376760D01*
X-82306Y-375778D01*
X-81788Y-375297D01*
X-81306Y-374834D01*
X-80825Y-374389D01*
X-80362Y-373964D01*
X-79955Y-373575D01*
X-79566Y-373223D01*
X-79232Y-372890D01*
X-78936Y-372631D01*
X-78695Y-372408D01*
X-78529Y-372242D01*
X-78418Y-372149D01*
X-78381Y-372112D01*
X-77769Y-371538D01*
X-77158Y-370983D01*
X-76585Y-370446D01*
X-76029Y-369927D01*
X-75492Y-369446D01*
X-74992Y-368983D01*
X-74511Y-368538D01*
X-74085Y-368131D01*
X-73677Y-367761D01*
X-73326Y-367446D01*
X-73011Y-367150D01*
X-72751Y-366909D01*
X-72548Y-366724D01*
X-72400Y-366576D01*
X-72307Y-366502D01*
X-72270Y-366464D01*
X-71770Y-366002D01*
X-71344Y-365613D01*
X-70955Y-365261D01*
X-70622Y-364965D01*
X-70344Y-364705D01*
X-70104Y-364502D01*
X-69918Y-364316D01*
X-69752Y-364168D01*
X-69622Y-364057D01*
X-69530Y-363983D01*
X-69456Y-363909D01*
X-69400Y-363872D01*
X-69363Y-363817D01*
X-69345D01*
X-69289Y-363779D01*
X-69196Y-363761D01*
X-69030Y-363724D01*
X-68937D01*
X-68882Y-363705D01*
X-68604D01*
X-68345Y-363687D01*
X-64789D01*
X-54827Y-376149D01*
D02*
G37*
G54D10*
X-176000Y-401000D02*
Y-393003D01*
X-172001D01*
X-170668Y-394336D01*
Y-397001D01*
X-172001Y-398334D01*
X-176000D01*
X-162671Y-394336D02*
X-164004Y-393003D01*
X-166670D01*
X-168003Y-394336D01*
Y-399667D01*
X-166670Y-401000D01*
X-164004D01*
X-162671Y-399667D01*
X-160005Y-393003D02*
Y-401000D01*
X-156006D01*
X-154674Y-399667D01*
Y-398334D01*
X-156006Y-397001D01*
X-160005D01*
X-156006D01*
X-154674Y-395668D01*
Y-394336D01*
X-156006Y-393003D01*
X-160005D01*
X-144010D02*
Y-398334D01*
X-141344Y-401000D01*
X-138679Y-398334D01*
Y-393003D01*
X-136013Y-401000D02*
X-133347D01*
X-134680D01*
Y-393003D01*
X-136013Y-394336D01*
X-129348Y-401000D02*
Y-399667D01*
X-128015D01*
Y-401000D01*
X-129348D01*
X-122684Y-394336D02*
X-121351Y-393003D01*
X-118685D01*
X-117352Y-394336D01*
Y-399667D01*
X-118685Y-401000D01*
X-121351D01*
X-122684Y-399667D01*
Y-394336D01*
X-176000Y-377003D02*
X-170668Y-385000D01*
Y-377003D02*
X-176000Y-385000D01*
X-162671D02*
X-168003D01*
X-162671Y-379668D01*
Y-378335D01*
X-164004Y-377003D01*
X-166670D01*
X-168003Y-378335D01*
X-154674Y-377003D02*
X-160005D01*
Y-385000D01*
X-154674D01*
X-160005Y-381001D02*
X-157339D01*
X-138679Y-378335D02*
X-140012Y-377003D01*
X-142677D01*
X-144010Y-378335D01*
Y-379668D01*
X-142677Y-381001D01*
X-140012D01*
X-138679Y-382334D01*
Y-383667D01*
X-140012Y-385000D01*
X-142677D01*
X-144010Y-383667D01*
X-132014Y-385000D02*
X-134680D01*
X-136013Y-383667D01*
Y-381001D01*
X-134680Y-379668D01*
X-132014D01*
X-130681Y-381001D01*
Y-382334D01*
X-136013D01*
X-128015Y-385000D02*
Y-379668D01*
X-124017D01*
X-122684Y-381001D01*
Y-385000D01*
X-120018D02*
X-116019D01*
X-114686Y-383667D01*
X-116019Y-382334D01*
X-118685D01*
X-120018Y-381001D01*
X-118685Y-379668D01*
X-114686D01*
X-110688Y-385000D02*
X-108022D01*
X-106689Y-383667D01*
Y-381001D01*
X-108022Y-379668D01*
X-110688D01*
X-112021Y-381001D01*
Y-383667D01*
X-110688Y-385000D01*
X-104023Y-379668D02*
Y-385000D01*
Y-382334D01*
X-102690Y-381001D01*
X-101357Y-379668D01*
X-100024D01*
G54D18*
X-1750Y98750D02*
X22000D01*
X19000Y100750D02*
X22000Y98750D01*
X19000Y96750D02*
Y100750D01*
Y96750D02*
X22000Y98750D01*
X-7000Y104000D02*
Y127750D01*
X-5000Y124750D01*
X-9000D02*
X-7000Y127750D01*
X-9000Y124750D02*
X-5000D01*
G54D19*
X-2528Y98750D02*
X-3238Y101168D01*
X-5142Y102818D01*
X-7637Y103177D01*
X-9929Y102130D01*
X-11291Y100010D01*
Y97490D01*
X-9929Y95370D01*
X-7637Y94323D01*
X-5142Y94682D01*
X-3238Y96332D01*
X-2528Y98750D01*
X-18968Y94399D02*
X-13890D01*
Y93130D01*
X-18968Y88052D01*
Y86782D01*
X-13890D01*
X24032Y108399D02*
X29110Y100782D01*
Y108399D02*
X24032Y100782D01*
X-4968Y137400D02*
Y136130D01*
X-2429Y133591D01*
X110Y136130D01*
Y137400D01*
X-2429Y133591D02*
Y129782D01*
G54D26*
X217100Y-50000D02*
D03*
Y-114000D02*
D03*
Y-58000D02*
D03*
Y-106000D02*
D03*
G54D27*
Y-64500D02*
D03*
Y-69500D02*
D03*
Y-74500D02*
D03*
Y-79500D02*
D03*
Y-84500D02*
D03*
Y-89500D02*
D03*
Y-94500D02*
D03*
Y-99500D02*
D03*
G54D67*
X-81000Y-206750D02*
D03*
X-59500D02*
D03*
G54D68*
X-72750Y-213250D02*
D03*
X-67750Y-200250D02*
D03*
X-62750Y-213250D02*
D03*
Y-200250D02*
D03*
X-67750Y-213250D02*
D03*
X-77750D02*
D03*
X-72750Y-200250D02*
D03*
X-77750D02*
D03*
G54D87*
X219862Y-164000D02*
X218137D01*
X219862D01*
Y-169000D02*
X218137D01*
X219862D01*
Y-174000D02*
X218137D01*
X219862D01*
X209862D02*
X208137D01*
X209862D01*
Y-169000D02*
X208137D01*
X209862D01*
Y-164000D02*
X208137D01*
X209862D01*
X214862D02*
X213137D01*
X214862D01*
Y-174000D02*
X213137D01*
X214862D01*
Y-169000D02*
X213137D01*
X214862D01*
G54D88*
X-6406Y98750D02*
D03*
G54D89*
X-89964Y198000D02*
D03*
X-109964D02*
D03*
X-99964Y172000D02*
D03*
X-89964D02*
D03*
X-109964D02*
D03*
X-99964Y198000D02*
D03*
G54D90*
X-112964Y180000D02*
D03*
Y190000D02*
D03*
X-86964Y180000D02*
D03*
Y190000D02*
D03*
Y185000D02*
D03*
X-112964D02*
D03*
G54D91*
X47500Y175000D02*
D03*
X72500D02*
D03*
G54D92*
X167000Y-408000D02*
D03*
X-1000D02*
D03*
Y-310000D02*
D03*
X234000D02*
D03*
Y-408000D02*
D03*
X285000D02*
D03*
G54D93*
X-191700Y-299000D02*
D03*
Y-406000D02*
D03*
X-229000Y-384000D02*
D03*
Y-406000D02*
D03*
G54D94*
X-33750Y240750D02*
D03*
X-12250D02*
D03*
Y199250D02*
D03*
X-33750D02*
D03*
X-12250Y266250D02*
D03*
X-33750D02*
D03*
Y307750D02*
D03*
X-12250D02*
D03*
G54D95*
X80000Y-4000D02*
D03*
Y-14000D02*
D03*
X196000Y-8000D02*
D03*
Y2000D02*
D03*
X70000Y-1477D02*
D03*
Y-11477D02*
D03*
X-49000Y295000D02*
D03*
Y305000D02*
D03*
X188000Y-155000D02*
D03*
Y-165000D02*
D03*
X-188250Y192250D02*
D03*
Y182250D02*
D03*
X10000Y-4000D02*
D03*
Y-14000D02*
D03*
X242000Y89000D02*
D03*
Y99000D02*
D03*
X243000Y53000D02*
D03*
Y63000D02*
D03*
X-20000Y151000D02*
D03*
Y161000D02*
D03*
X4000Y344000D02*
D03*
Y334000D02*
D03*
X-58000Y319000D02*
D03*
Y329000D02*
D03*
X176000Y357000D02*
D03*
Y347000D02*
D03*
X40000Y-14000D02*
D03*
Y-4000D02*
D03*
X-119000Y-24000D02*
D03*
Y-14000D02*
D03*
X-59000Y295000D02*
D03*
Y305000D02*
D03*
X-181000Y-159000D02*
D03*
Y-149000D02*
D03*
X-176000Y-206000D02*
D03*
Y-196000D02*
D03*
X57000Y64000D02*
D03*
Y74000D02*
D03*
Y54000D02*
D03*
Y44000D02*
D03*
X-71967Y171004D02*
D03*
Y181004D02*
D03*
X-72000Y201000D02*
D03*
Y191000D02*
D03*
X186000Y357000D02*
D03*
Y347000D02*
D03*
X-184000Y-28000D02*
D03*
Y-18000D02*
D03*
X-174000Y-28000D02*
D03*
Y-18000D02*
D03*
X-194000D02*
D03*
Y-28000D02*
D03*
X-70000Y83000D02*
D03*
Y93000D02*
D03*
X-142000Y27125D02*
D03*
Y37125D02*
D03*
X7000Y299000D02*
D03*
Y309000D02*
D03*
X-80000Y83000D02*
D03*
Y93000D02*
D03*
X-60000Y83000D02*
D03*
Y93000D02*
D03*
X120313Y-150001D02*
D03*
Y-160001D02*
D03*
X46438Y-115251D02*
D03*
Y-105251D02*
D03*
X38438Y-115251D02*
D03*
Y-105251D02*
D03*
X234000Y-376000D02*
D03*
Y-366000D02*
D03*
X63000Y-278000D02*
D03*
Y-288000D02*
D03*
X-57000Y-99000D02*
D03*
Y-89000D02*
D03*
X-57000Y-222000D02*
D03*
Y-232000D02*
D03*
X-214000Y-399000D02*
D03*
Y-389000D02*
D03*
Y-379000D02*
D03*
Y-369000D02*
D03*
X-141000Y-290000D02*
D03*
Y-280000D02*
D03*
X-186000Y-217000D02*
D03*
Y-227000D02*
D03*
X-115000Y227000D02*
D03*
Y237000D02*
D03*
X-125000Y227000D02*
D03*
Y237000D02*
D03*
X155000Y118000D02*
D03*
Y128000D02*
D03*
Y145000D02*
D03*
Y155000D02*
D03*
X191000Y-188000D02*
D03*
Y-178000D02*
D03*
G54D96*
X16505Y64003D02*
D03*
Y54503D02*
D03*
X41505Y73503D02*
D03*
Y64003D02*
D03*
Y54503D02*
D03*
X16505Y73503D02*
D03*
G54D97*
X157000Y-163000D02*
D03*
X166500D02*
D03*
X176000D02*
D03*
X157000Y-138000D02*
D03*
X176000D02*
D03*
G54D98*
X161750Y-4000D02*
D03*
X184250Y5500D02*
D03*
Y-13500D02*
D03*
G54D99*
X-106524Y247026D02*
D03*
X-115524D02*
D03*
X-133500Y247000D02*
D03*
X-124500D02*
D03*
G54D100*
X-142000Y3125D02*
D03*
X-159000D02*
D03*
G54D101*
X211000Y-18300D02*
D03*
X74500Y289500D02*
D03*
X107500D02*
D03*
X91000D02*
D03*
G54D102*
X211000Y10300D02*
D03*
X107500Y306000D02*
D03*
X91000D02*
D03*
X74500Y273000D02*
D03*
X107500D02*
D03*
X91000D02*
D03*
G54D103*
X-103500Y-25000D02*
D03*
Y-14000D02*
D03*
Y-3000D02*
D03*
Y8000D02*
D03*
Y19000D02*
D03*
Y30000D02*
D03*
Y41000D02*
D03*
Y52000D02*
D03*
Y63000D02*
D03*
X-6500D02*
D03*
Y52000D02*
D03*
Y41000D02*
D03*
Y30000D02*
D03*
Y19000D02*
D03*
Y8000D02*
D03*
Y-3000D02*
D03*
Y-14000D02*
D03*
Y-25000D02*
D03*
G54D104*
X38500Y-251500D02*
D03*
X88500D02*
D03*
X-69500Y-251500D02*
D03*
G54D105*
X-8000Y-84000D02*
D03*
Y-134000D02*
D03*
Y-184000D02*
D03*
Y-234000D02*
D03*
X141000D02*
D03*
Y-184000D02*
D03*
Y-134000D02*
D03*
Y-84000D02*
D03*
X-166000Y-84000D02*
D03*
Y-134000D02*
D03*
Y-184000D02*
D03*
Y-234000D02*
D03*
X-17000D02*
D03*
Y-184000D02*
D03*
Y-134000D02*
D03*
Y-84000D02*
D03*
G54D106*
X124500Y-66500D02*
D03*
X66500D02*
D03*
X8500D02*
D03*
X-33500Y-66500D02*
D03*
X-91500D02*
D03*
X-149500D02*
D03*
G54D107*
X133500Y-251500D02*
D03*
X-500D02*
D03*
X-24500Y-251500D02*
D03*
G54D108*
X-119500D02*
D03*
G54D109*
X-158500D02*
D03*
G54D110*
X-167500Y36625D02*
D03*
X-152500D02*
D03*
G54D111*
X233000Y-181500D02*
D03*
Y-162500D02*
D03*
X239000Y161500D02*
D03*
Y142500D02*
D03*
X227000Y52500D02*
D03*
Y71500D02*
D03*
X-12000Y334500D02*
D03*
Y353500D02*
D03*
X-30000Y334500D02*
D03*
Y353500D02*
D03*
X-135000Y-31500D02*
D03*
Y-12500D02*
D03*
X60313Y-112501D02*
D03*
Y-93501D02*
D03*
X-181000Y-261500D02*
D03*
Y-242500D02*
D03*
G54D112*
X57000Y131000D02*
D03*
Y116000D02*
D03*
Y92000D02*
D03*
Y107000D02*
D03*
X230000Y12500D02*
D03*
Y27500D02*
D03*
X208000Y37500D02*
D03*
Y52500D02*
D03*
X157000Y-191000D02*
D03*
Y-176000D02*
D03*
X170000Y-191000D02*
D03*
Y-176000D02*
D03*
X69000Y68500D02*
D03*
Y53500D02*
D03*
X196000Y-103500D02*
D03*
Y-118500D02*
D03*
X190000Y-54500D02*
D03*
Y-39500D02*
D03*
G54D113*
X-55750Y-148500D02*
D03*
Y-153500D02*
D03*
Y-168500D02*
D03*
Y-173500D02*
D03*
Y-163500D02*
D03*
Y-158500D02*
D03*
X-94250Y-163500D02*
D03*
Y-168500D02*
D03*
Y-173500D02*
D03*
Y-153500D02*
D03*
Y-148500D02*
D03*
Y-158500D02*
D03*
X78563Y-134501D02*
D03*
Y-144501D02*
D03*
Y-159501D02*
D03*
X40063Y-144501D02*
D03*
X78563Y-154501D02*
D03*
Y-149501D02*
D03*
X40063Y-159501D02*
D03*
Y-154501D02*
D03*
Y-149501D02*
D03*
Y-139501D02*
D03*
X78563D02*
D03*
X40063Y-134501D02*
D03*
G54D114*
X-67500Y-141750D02*
D03*
X-82500Y-180250D02*
D03*
X-62500D02*
D03*
Y-141750D02*
D03*
X-72500D02*
D03*
X-67500Y-180250D02*
D03*
X-72500D02*
D03*
X-77500D02*
D03*
X-87500Y-141750D02*
D03*
Y-180250D02*
D03*
X-77500Y-141750D02*
D03*
X-82500D02*
D03*
X51813Y-127751D02*
D03*
X46813D02*
D03*
X66813D02*
D03*
X46813Y-166251D02*
D03*
X71813Y-127751D02*
D03*
X61813Y-166251D02*
D03*
X71813D02*
D03*
X66813D02*
D03*
X56813D02*
D03*
X51813D02*
D03*
X61813Y-127751D02*
D03*
X56813D02*
D03*
G54D115*
X-75000Y-161000D02*
D03*
X59313Y-147001D02*
D03*
G54D116*
X-72750Y-221350D02*
D03*
Y-230150D02*
D03*
G54D117*
X-77950Y-228250D02*
D03*
X-67550Y-223250D02*
D03*
X-77950D02*
D03*
X-67550Y-228250D02*
D03*
G54D118*
X-40250Y-167750D02*
D03*
X-29750Y-154250D02*
D03*
Y-167750D02*
D03*
X-40250Y-154250D02*
D03*
X92063Y-123251D02*
D03*
X102563Y-136751D02*
D03*
Y-123251D02*
D03*
X92063Y-136751D02*
D03*
G54D119*
X-135559Y-237309D02*
D03*
X-118941Y-220692D02*
D03*
G54D120*
X-138210Y-227232D02*
D03*
X-133614Y-222636D02*
D03*
X-129018Y-218040D02*
D03*
X-116290Y-230768D02*
D03*
X-120886Y-235364D02*
D03*
X-125482Y-239960D02*
D03*
G54D121*
X-178250Y175250D02*
D03*
X-158250D02*
D03*
Y181750D02*
D03*
X-178250Y188250D02*
D03*
X-158250Y194750D02*
D03*
X-178250D02*
D03*
Y181750D02*
D03*
X-158250Y188250D02*
D03*
G54D122*
X-46630Y163500D02*
D03*
Y153500D02*
D03*
X-31370D02*
D03*
X-46630Y148500D02*
D03*
X-31370D02*
D03*
Y163500D02*
D03*
Y158500D02*
D03*
X-46630D02*
D03*
G54D123*
X-41500Y163500D02*
D03*
X-36500D02*
D03*
X-41500Y148500D02*
D03*
X-36500D02*
D03*
G54D124*
X209000Y143000D02*
D03*
Y123000D02*
D03*
G54D125*
X-53000Y-114000D02*
D03*
X-71000D02*
D03*
G54D126*
X158000Y191000D02*
D03*
X173000D02*
D03*
X241500Y-22000D02*
D03*
X226500D02*
D03*
X-83500Y-90000D02*
D03*
X-68500D02*
D03*
X158002Y75890D02*
D03*
X173002D02*
D03*
G54D127*
X65000Y-212250D02*
D03*
X58500D02*
D03*
G54D128*
X61750Y-206500D02*
D03*
Y-218000D02*
D03*
G54D129*
Y-174500D02*
D03*
Y-186500D02*
D03*
G54D130*
X65250Y-180500D02*
D03*
X58250D02*
D03*
G54D131*
X-86500Y331500D02*
D03*
X-193500D02*
D03*
G54D132*
X-150000Y274000D02*
D03*
X-170000D02*
D03*
X-110000D02*
D03*
X-130000D02*
D03*
G54D133*
X271000Y-208500D02*
D03*
Y-275500D02*
D03*
G54D134*
X213500Y-232000D02*
D03*
Y-252000D02*
D03*
G54D135*
X178000Y-249500D02*
D03*
Y-220500D02*
D03*
G54D136*
X74500Y306000D02*
D03*
G54D137*
X161000Y359500D02*
D03*
X21000D02*
D03*
Y219500D02*
D03*
X161000D02*
D03*
G54D138*
X21000Y349000D02*
D03*
Y340500D02*
D03*
Y332000D02*
D03*
Y323500D02*
D03*
Y315000D02*
D03*
Y306500D02*
D03*
Y298000D02*
D03*
Y289500D02*
D03*
Y281000D02*
D03*
Y272500D02*
D03*
Y264000D02*
D03*
Y255500D02*
D03*
Y247000D02*
D03*
Y238500D02*
D03*
Y230000D02*
D03*
X161000D02*
D03*
Y238500D02*
D03*
Y247000D02*
D03*
Y255500D02*
D03*
Y264000D02*
D03*
Y272500D02*
D03*
Y281000D02*
D03*
Y289500D02*
D03*
Y298000D02*
D03*
Y306500D02*
D03*
Y315000D02*
D03*
Y323500D02*
D03*
Y332000D02*
D03*
Y340500D02*
D03*
Y349000D02*
D03*
G54D139*
X31500Y219500D02*
D03*
X150500Y359500D02*
D03*
X40000Y219500D02*
D03*
X48500D02*
D03*
X57000D02*
D03*
X65500D02*
D03*
X74000D02*
D03*
X82500D02*
D03*
X91000D02*
D03*
X99500D02*
D03*
X108000D02*
D03*
X116500D02*
D03*
X125000D02*
D03*
X133500D02*
D03*
X142000D02*
D03*
X150500D02*
D03*
X142000Y359500D02*
D03*
X133500D02*
D03*
X125000D02*
D03*
X116500D02*
D03*
X108000D02*
D03*
X99500D02*
D03*
X91000D02*
D03*
X82500D02*
D03*
X74000D02*
D03*
X65500D02*
D03*
X57000D02*
D03*
X48500D02*
D03*
X40000D02*
D03*
X31500D02*
D03*
G54D140*
X176750Y-79750D02*
D03*
Y-74250D02*
D03*
X189250D02*
D03*
Y-79750D02*
D03*
G54D141*
X92000Y-14000D02*
D03*
G54D142*
X107250Y750D02*
D03*
Y-28750D02*
D03*
G54D143*
X-141000Y-280000D02*
D03*
X63000Y-278000D02*
D03*
G54D144*
X-123628Y-265250D02*
D03*
Y-294750D02*
D03*
X80372Y-263250D02*
D03*
Y-292750D02*
D03*
G54D145*
X187750Y188625D02*
D03*
X206750D02*
D03*
X179500Y22000D02*
D03*
X160500D02*
D03*
X179500Y40000D02*
D03*
X160500D02*
D03*
X179500Y58000D02*
D03*
X160500D02*
D03*
X-170500Y231000D02*
D03*
X-151500D02*
D03*
X-104500Y-106000D02*
D03*
X-85500D02*
D03*
X187750Y77735D02*
D03*
X206750D02*
D03*
X187750Y95735D02*
D03*
X206750D02*
D03*
X187750Y170625D02*
D03*
X206750D02*
D03*
G54D146*
X174000Y110000D02*
D03*
X164000D02*
D03*
X-167250Y205250D02*
D03*
X-177250D02*
D03*
X237000Y-9000D02*
D03*
X227000D02*
D03*
X-142000Y17125D02*
D03*
X-152000D02*
D03*
X-122967Y161004D02*
D03*
X-112967D02*
D03*
X-109967Y209004D02*
D03*
X-99967D02*
D03*
X45000Y191000D02*
D03*
X55000D02*
D03*
X75000D02*
D03*
X65000D02*
D03*
X-164000Y246000D02*
D03*
X-154000D02*
D03*
X-138250Y172250D02*
D03*
X-148250D02*
D03*
X186000Y336000D02*
D03*
X176000D02*
D03*
X-138250Y182250D02*
D03*
X-148250D02*
D03*
X-101967Y151004D02*
D03*
X-111967D02*
D03*
X182000Y-27000D02*
D03*
X192000D02*
D03*
X55000Y201000D02*
D03*
X65000D02*
D03*
X30000Y-14000D02*
D03*
X20000D02*
D03*
X-97000Y-39000D02*
D03*
X-87000D02*
D03*
X13313Y-178001D02*
D03*
X23313D02*
D03*
X13313Y-168001D02*
D03*
X23313D02*
D03*
X13313Y-158001D02*
D03*
X23313D02*
D03*
X13313Y-188001D02*
D03*
X23313D02*
D03*
X64313Y-79001D02*
D03*
X74313D02*
D03*
X23313Y-148001D02*
D03*
X13313D02*
D03*
X93438Y-163251D02*
D03*
X103438D02*
D03*
X93438Y-155251D02*
D03*
X103438D02*
D03*
X244000Y-356000D02*
D03*
X234000D02*
D03*
X244000Y-386000D02*
D03*
X234000D02*
D03*
X-83000Y-76000D02*
D03*
X-93000D02*
D03*
X-113000Y-167000D02*
D03*
X-123000D02*
D03*
X-113000Y-177000D02*
D03*
X-123000D02*
D03*
X-113000Y-187000D02*
D03*
X-123000D02*
D03*
X-94250Y-195205D02*
D03*
X-104250D02*
D03*
X-104250Y-203205D02*
D03*
X-94250D02*
D03*
X-48000Y-128000D02*
D03*
X-38000D02*
D03*
X-52750Y-190750D02*
D03*
X-62750D02*
D03*
X-31000Y-182000D02*
D03*
X-41000D02*
D03*
X-65000Y-128000D02*
D03*
X-55000D02*
D03*
X-93000Y-129000D02*
D03*
X-83000D02*
D03*
X-93000Y-121000D02*
D03*
X-83000D02*
D03*
X-35500Y-191000D02*
D03*
X-45500D02*
D03*
X-35500Y-199000D02*
D03*
X-45500D02*
D03*
X-113000Y-157000D02*
D03*
X-123000D02*
D03*
X-224000Y-359000D02*
D03*
X-214000D02*
D03*
X60000Y6000D02*
D03*
X70000D02*
D03*
X60000Y-14000D02*
D03*
X50000D02*
D03*
X208000Y-142000D02*
D03*
X218000D02*
D03*
X211000Y-154000D02*
D03*
X201000D02*
D03*
X70000Y26000D02*
D03*
X60000D02*
D03*
X214000Y-187000D02*
D03*
X204000D02*
D03*
X-46999Y174000D02*
D03*
X-36999D02*
D03*
X-46999Y138000D02*
D03*
X-36999D02*
D03*
X192000Y110000D02*
D03*
X202000D02*
D03*
X192000Y156000D02*
D03*
X202000D02*
D03*
X60000Y16000D02*
D03*
X70000D02*
D03*
G54D147*
X201000Y-63000D02*
D03*
Y-72000D02*
D03*
Y-91000D02*
D03*
Y-82000D02*
D03*
X-191000Y-158500D02*
D03*
Y-149500D02*
D03*
X-186000Y-205500D02*
D03*
Y-196500D02*
D03*
G54D148*
X172500Y-97000D02*
D03*
X157500D02*
D03*
X171500Y-203000D02*
D03*
X186500D02*
D03*
X215500Y265000D02*
D03*
X200500D02*
D03*
X215900Y210600D02*
D03*
X200900D02*
D03*
X166500Y-123000D02*
D03*
X181500D02*
D03*
X-198000Y-107000D02*
D03*
X-183000D02*
D03*
X-198000Y-82000D02*
D03*
X-183000D02*
D03*
G54D149*
X-46000Y318500D02*
D03*
Y333500D02*
D03*
X76313Y-111501D02*
D03*
Y-96501D02*
D03*
G54D150*
X198500Y225750D02*
D03*
X217500D02*
D03*
X208000Y248250D02*
D03*
X198500Y279750D02*
D03*
X217500D02*
D03*
X208000Y302250D02*
D03*
G54D151*
X19313Y-117001D02*
D03*
Y-135001D02*
D03*
G54D152*
X-94465Y-223535D02*
D03*
X-101536Y-216465D02*
D03*
G54D153*
X238000Y263800D02*
D03*
Y238400D02*
D03*
Y289200D02*
D03*
Y314600D02*
D03*
Y340000D02*
D03*
G54D154*
Y213000D02*
D03*
G54D155*
X227850Y-53100D02*
D03*
Y-110900D02*
D03*
G54D156*
X222850Y-38800D02*
D03*
Y-125200D02*
D03*
G54D157*
X264650Y-38800D02*
D03*
Y-125200D02*
D03*
G54D158*
X-213000Y-252000D02*
D03*
G54D159*
Y-212000D02*
D03*
Y-192000D02*
D03*
Y-232000D02*
D03*
G54D160*
X264600Y60600D02*
D03*
Y86000D02*
D03*
Y238400D02*
D03*
Y263800D02*
D03*
Y289200D02*
D03*
Y314600D02*
D03*
Y340000D02*
D03*
X-218000Y-56240D02*
D03*
Y314600D02*
D03*
Y289200D02*
D03*
Y263800D02*
D03*
Y238400D02*
D03*
Y213000D02*
D03*
Y187600D02*
D03*
Y162200D02*
D03*
Y96160D02*
D03*
Y70760D02*
D03*
Y45360D02*
D03*
Y19960D02*
D03*
Y-5440D02*
D03*
X264600Y111400D02*
D03*
Y136800D02*
D03*
X-218000Y-30840D02*
D03*
X264600Y35200D02*
D03*
Y162200D02*
D03*
X-218000Y-81640D02*
D03*
Y-107040D02*
D03*
X264600Y9800D02*
D03*
G54D161*
Y213000D02*
D03*
X-218000Y340000D02*
D03*
Y121560D02*
D03*
X264600Y-15600D02*
D03*
G54D162*
X-65600Y365400D02*
D03*
X213800D02*
D03*
X-218000Y-142600D02*
D03*
X264600Y-155300D02*
D03*
M02*
