G04*
G04 #@! TF.GenerationSoftware,Altium Limited,Altium Designer,23.4.1 (23)*
G04*
G04 Layer_Color=8421504*
%FSLAX44Y44*%
%MOMM*%
G71*
G04*
G04 #@! TF.SameCoordinates,161A424F-3C6F-4C89-954A-30EFE7D06E68*
G04*
G04*
G04 #@! TF.FilePolarity,Positive*
G04*
G01*
G75*
%ADD21R,0.2500X0.5000*%
%ADD22R,0.5000X0.2500*%
%ADD23R,1.0000X1.8000*%
%ADD24R,1.0000X1.9500*%
%ADD25R,1.5000X1.2000*%
%ADD26R,1.1500X0.6000*%
%ADD27R,1.1500X0.3000*%
%ADD28R,0.6500X1.0500*%
%ADD29R,0.6000X0.5000*%
%ADD30R,1.0000X0.6000*%
%ADD31R,0.6000X1.0000*%
%ADD32R,0.4000X0.3000*%
%ADD33R,0.6000X0.8000*%
%ADD34R,1.2000X1.2000*%
%ADD35R,1.2000X1.2000*%
%ADD36R,2.0000X0.7000*%
%ADD37R,2.9000X0.4000*%
%ADD38R,0.4000X2.9000*%
%ADD39R,3.7000X0.4000*%
%ADD40R,1.9000X0.4000*%
%ADD41R,2.8718X0.4000*%
%ADD42R,1.8558X0.4000*%
%ADD43R,0.7000X2.0000*%
%ADD44R,1.3000X0.9000*%
%ADD45R,0.9000X0.5000*%
%ADD46O,0.8000X0.2500*%
%ADD47O,0.2500X0.8000*%
%ADD48R,0.2000X0.6000*%
%ADD49R,0.4000X0.2000*%
%ADD50R,0.7500X0.8500*%
G04:AMPARAMS|DCode=51|XSize=0.35mm|YSize=1mm|CornerRadius=0mm|HoleSize=0mm|Usage=FLASHONLY|Rotation=315.000|XOffset=0mm|YOffset=0mm|HoleType=Round|Shape=Rectangle|*
%AMROTATEDRECTD51*
4,1,4,-0.4773,-0.2298,0.2298,0.4773,0.4773,0.2298,-0.2298,-0.4773,-0.4773,-0.2298,0.0*
%
%ADD51ROTATEDRECTD51*%

G04:AMPARAMS|DCode=52|XSize=0.35mm|YSize=1mm|CornerRadius=0mm|HoleSize=0mm|Usage=FLASHONLY|Rotation=225.000|XOffset=0mm|YOffset=0mm|HoleType=Round|Shape=Rectangle|*
%AMROTATEDRECTD52*
4,1,4,-0.2298,0.4773,0.4773,-0.2298,0.2298,-0.4773,-0.4773,0.2298,-0.2298,0.4773,0.0*
%
%ADD52ROTATEDRECTD52*%

%ADD53R,0.5000X0.3500*%
%ADD54R,0.2750X0.2500*%
%ADD55R,0.2500X0.2750*%
%ADD56R,2.0000X0.8000*%
%ADD57R,0.8000X1.2000*%
%ADD58R,0.6000X0.9000*%
%ADD59R,0.4500X0.3000*%
%ADD60R,0.3000X0.4500*%
%ADD61R,0.5500X0.5500*%
%ADD62R,0.5000X0.3000*%
%ADD63R,1.5000X3.4000*%
%ADD64R,1.0000X3.5000*%
%ADD65R,3.4000X1.5000*%
%ADD66R,3.5000X1.0000*%
%ADD67R,0.6000X0.3000*%
%ADD68R,0.2500X0.5000*%
%ADD69R,1.8000X1.0000*%
%ADD70R,0.5000X0.5000*%
%ADD71R,0.8000X0.8000*%
%ADD72R,0.8000X0.4000*%
%ADD73R,0.4000X0.8000*%
%ADD74R,0.7000X0.3000*%
%ADD75R,1.0500X1.0000*%
%ADD76R,2.2000X1.0500*%
%ADD77R,0.7000X0.6000*%
%ADD78R,2.1336X1.0500*%
%ADD79R,0.9000X1.3000*%
%ADD80R,0.5000X0.6000*%
%ADD81R,0.3000X0.4000*%
%ADD82R,0.5000X0.9000*%
%ADD83R,0.9000X0.6000*%
%ADD84R,0.6000X1.1500*%
%ADD85R,1.2000X0.8000*%
G04:AMPARAMS|DCode=86|XSize=0.5mm|YSize=0.6mm|CornerRadius=0mm|HoleSize=0mm|Usage=FLASHONLY|Rotation=135.000|XOffset=0mm|YOffset=0mm|HoleType=Round|Shape=Rectangle|*
%AMROTATEDRECTD86*
4,1,4,0.3889,0.0354,-0.0354,-0.3889,-0.3889,-0.0354,0.0354,0.3889,0.3889,0.0354,0.0*
%
%ADD86ROTATEDRECTD86*%

G36*
X80500Y300000D02*
X68500D01*
X68500Y306000D01*
X74500Y312000D01*
X80500D01*
Y300000D01*
D02*
G37*
G36*
X187000Y142830D02*
X185990Y142250D01*
X179000D01*
Y148500D01*
X187000D01*
Y142830D01*
D02*
G37*
G36*
X177000Y142250D02*
X174000D01*
Y148500D01*
X177000D01*
Y142250D01*
D02*
G37*
G36*
X172000D02*
X169000D01*
Y148500D01*
X172000D01*
Y142250D01*
D02*
G37*
G36*
X193500Y137750D02*
X187250D01*
Y140670D01*
X188260Y141250D01*
X193500D01*
Y137750D01*
D02*
G37*
G36*
X168750Y138150D02*
Y136500D01*
X162500D01*
Y139500D01*
X167400D01*
X168750Y138150D01*
D02*
G37*
G36*
Y131500D02*
X162500D01*
Y134500D01*
X168750D01*
Y131500D01*
D02*
G37*
G36*
X193500Y131250D02*
X187250D01*
Y134750D01*
X193500D01*
Y131250D01*
D02*
G37*
G36*
X168750Y126500D02*
X162500D01*
Y129500D01*
X168750D01*
Y126500D01*
D02*
G37*
G36*
X193500Y124750D02*
X188260D01*
X187250Y125330D01*
Y128250D01*
X193500D01*
Y124750D01*
D02*
G37*
G36*
X187000Y123170D02*
Y117500D01*
X179000D01*
Y123750D01*
X185990D01*
X187000Y123170D01*
D02*
G37*
G36*
X177000Y117500D02*
X174000D01*
Y123750D01*
X177000D01*
Y117500D01*
D02*
G37*
G36*
X172000D02*
X169000D01*
Y123750D01*
X172000D01*
Y117500D01*
D02*
G37*
G36*
X70813Y-146251D02*
X60063D01*
Y-135501D01*
X70813D01*
X70813Y-146251D01*
D02*
G37*
G36*
X58563D02*
X47813D01*
X47813Y-135501D01*
X58563D01*
Y-146251D01*
D02*
G37*
G36*
X70813Y-158501D02*
X60063D01*
Y-147751D01*
X70813D01*
X70813Y-158501D01*
D02*
G37*
G36*
X58563D02*
X47813D01*
X47813Y-147751D01*
X58563D01*
Y-158501D01*
D02*
G37*
G36*
X-63500Y-160250D02*
X-74250D01*
Y-149500D01*
X-63500D01*
X-63500Y-160250D01*
D02*
G37*
G36*
X-75750D02*
X-86500D01*
X-86500Y-149500D01*
X-75750D01*
Y-160250D01*
D02*
G37*
G36*
X219776Y-162751D02*
X219802Y-162753D01*
X219828Y-162756D01*
X219854Y-162761D01*
X219879Y-162767D01*
X219904Y-162775D01*
X219929Y-162783D01*
X219953Y-162793D01*
X219977Y-162805D01*
X220000Y-162817D01*
X220022Y-162831D01*
X220044Y-162845D01*
X220065Y-162861D01*
X220084Y-162878D01*
X220103Y-162896D01*
X220122Y-162915D01*
X220138Y-162935D01*
X220154Y-162956D01*
X220169Y-162978D01*
X220183Y-163000D01*
X220196Y-163023D01*
X220207Y-163047D01*
X220217Y-163071D01*
X220226Y-163095D01*
X220233Y-163121D01*
X220239Y-163146D01*
X220244Y-163172D01*
X220247Y-163198D01*
X220249Y-163224D01*
X220250Y-163250D01*
Y-164750D01*
X220249Y-164776D01*
X220247Y-164802D01*
X220244Y-164828D01*
X220239Y-164854D01*
X220233Y-164879D01*
X220226Y-164904D01*
X220217Y-164929D01*
X220207Y-164953D01*
X220196Y-164977D01*
X220183Y-165000D01*
X220169Y-165022D01*
X220154Y-165044D01*
X220138Y-165065D01*
X220122Y-165085D01*
X220103Y-165104D01*
X220084Y-165122D01*
X220065Y-165139D01*
X220044Y-165154D01*
X220022Y-165169D01*
X220000Y-165183D01*
X219977Y-165196D01*
X219953Y-165207D01*
X219929Y-165217D01*
X219904Y-165226D01*
X219879Y-165233D01*
X219854Y-165239D01*
X219828Y-165244D01*
X219802Y-165247D01*
X219776Y-165249D01*
X219750Y-165250D01*
X218250D01*
X218224Y-165249D01*
X218198Y-165247D01*
X218172Y-165244D01*
X218146Y-165239D01*
X218121Y-165233D01*
X218095Y-165226D01*
X218071Y-165217D01*
X218047Y-165207D01*
X218023Y-165196D01*
X218000Y-165183D01*
X217978Y-165169D01*
X217956Y-165154D01*
X217935Y-165139D01*
X217915Y-165122D01*
X217896Y-165104D01*
X217878Y-165085D01*
X217861Y-165065D01*
X217845Y-165044D01*
X217831Y-165022D01*
X217817Y-165000D01*
X217805Y-164977D01*
X217793Y-164953D01*
X217783Y-164929D01*
X217774Y-164904D01*
X217767Y-164879D01*
X217761Y-164854D01*
X217756Y-164828D01*
X217753Y-164802D01*
X217751Y-164776D01*
X217750Y-164750D01*
Y-163250D01*
X217751Y-163224D01*
X217753Y-163198D01*
X217756Y-163172D01*
X217761Y-163146D01*
X217767Y-163121D01*
X217774Y-163095D01*
X217783Y-163071D01*
X217793Y-163047D01*
X217805Y-163023D01*
X217817Y-163000D01*
X217831Y-162978D01*
X217845Y-162956D01*
X217861Y-162935D01*
X217878Y-162915D01*
X217896Y-162896D01*
X217915Y-162878D01*
X217935Y-162861D01*
X217956Y-162845D01*
X217978Y-162831D01*
X218000Y-162817D01*
X218023Y-162805D01*
X218047Y-162793D01*
X218071Y-162783D01*
X218095Y-162775D01*
X218121Y-162767D01*
X218146Y-162761D01*
X218172Y-162756D01*
X218198Y-162753D01*
X218224Y-162751D01*
X218250Y-162750D01*
X219750D01*
X219776Y-162751D01*
D02*
G37*
G36*
X214776D02*
X214802Y-162753D01*
X214828Y-162756D01*
X214854Y-162761D01*
X214879Y-162767D01*
X214904Y-162775D01*
X214929Y-162783D01*
X214953Y-162793D01*
X214977Y-162805D01*
X215000Y-162817D01*
X215022Y-162831D01*
X215044Y-162845D01*
X215065Y-162861D01*
X215084Y-162878D01*
X215103Y-162896D01*
X215121Y-162915D01*
X215139Y-162935D01*
X215154Y-162956D01*
X215169Y-162978D01*
X215183Y-163000D01*
X215196Y-163023D01*
X215207Y-163047D01*
X215217Y-163071D01*
X215226Y-163095D01*
X215233Y-163121D01*
X215239Y-163146D01*
X215244Y-163172D01*
X215247Y-163198D01*
X215249Y-163224D01*
X215250Y-163250D01*
Y-164750D01*
X215249Y-164776D01*
X215247Y-164802D01*
X215244Y-164828D01*
X215239Y-164854D01*
X215233Y-164879D01*
X215226Y-164904D01*
X215217Y-164929D01*
X215207Y-164953D01*
X215196Y-164977D01*
X215183Y-165000D01*
X215169Y-165022D01*
X215154Y-165044D01*
X215139Y-165065D01*
X215121Y-165085D01*
X215103Y-165104D01*
X215084Y-165122D01*
X215065Y-165139D01*
X215044Y-165154D01*
X215022Y-165169D01*
X215000Y-165183D01*
X214977Y-165196D01*
X214953Y-165207D01*
X214929Y-165217D01*
X214904Y-165226D01*
X214879Y-165233D01*
X214854Y-165239D01*
X214828Y-165244D01*
X214802Y-165247D01*
X214776Y-165249D01*
X214750Y-165250D01*
X213250D01*
X213224Y-165249D01*
X213198Y-165247D01*
X213172Y-165244D01*
X213146Y-165239D01*
X213121Y-165233D01*
X213095Y-165226D01*
X213071Y-165217D01*
X213047Y-165207D01*
X213023Y-165196D01*
X213000Y-165183D01*
X212978Y-165169D01*
X212956Y-165154D01*
X212935Y-165139D01*
X212915Y-165122D01*
X212896Y-165104D01*
X212878Y-165085D01*
X212861Y-165065D01*
X212845Y-165044D01*
X212831Y-165022D01*
X212817Y-165000D01*
X212805Y-164977D01*
X212793Y-164953D01*
X212783Y-164929D01*
X212775Y-164904D01*
X212767Y-164879D01*
X212761Y-164854D01*
X212756Y-164828D01*
X212753Y-164802D01*
X212751Y-164776D01*
X212750Y-164750D01*
Y-163250D01*
X212751Y-163224D01*
X212753Y-163198D01*
X212756Y-163172D01*
X212761Y-163146D01*
X212767Y-163121D01*
X212775Y-163095D01*
X212783Y-163071D01*
X212793Y-163047D01*
X212805Y-163023D01*
X212817Y-163000D01*
X212831Y-162978D01*
X212845Y-162956D01*
X212861Y-162935D01*
X212878Y-162915D01*
X212896Y-162896D01*
X212915Y-162878D01*
X212935Y-162861D01*
X212956Y-162845D01*
X212978Y-162831D01*
X213000Y-162817D01*
X213023Y-162805D01*
X213047Y-162793D01*
X213071Y-162783D01*
X213095Y-162775D01*
X213121Y-162767D01*
X213146Y-162761D01*
X213172Y-162756D01*
X213198Y-162753D01*
X213224Y-162751D01*
X213250Y-162750D01*
X214750D01*
X214776Y-162751D01*
D02*
G37*
G36*
X209776D02*
X209802Y-162753D01*
X209828Y-162756D01*
X209854Y-162761D01*
X209879Y-162767D01*
X209904Y-162775D01*
X209929Y-162783D01*
X209953Y-162793D01*
X209977Y-162805D01*
X210000Y-162817D01*
X210022Y-162831D01*
X210044Y-162845D01*
X210065Y-162861D01*
X210084Y-162878D01*
X210103Y-162896D01*
X210122Y-162915D01*
X210138Y-162935D01*
X210154Y-162956D01*
X210169Y-162978D01*
X210183Y-163000D01*
X210196Y-163023D01*
X210207Y-163047D01*
X210217Y-163071D01*
X210226Y-163095D01*
X210233Y-163121D01*
X210239Y-163146D01*
X210244Y-163172D01*
X210247Y-163198D01*
X210249Y-163224D01*
X210250Y-163250D01*
Y-164750D01*
X210249Y-164776D01*
X210247Y-164802D01*
X210244Y-164828D01*
X210239Y-164854D01*
X210233Y-164879D01*
X210226Y-164904D01*
X210217Y-164929D01*
X210207Y-164953D01*
X210196Y-164977D01*
X210183Y-165000D01*
X210169Y-165022D01*
X210154Y-165044D01*
X210138Y-165065D01*
X210122Y-165085D01*
X210103Y-165104D01*
X210084Y-165122D01*
X210065Y-165139D01*
X210044Y-165154D01*
X210022Y-165169D01*
X210000Y-165183D01*
X209977Y-165196D01*
X209953Y-165207D01*
X209929Y-165217D01*
X209904Y-165226D01*
X209879Y-165233D01*
X209854Y-165239D01*
X209828Y-165244D01*
X209802Y-165247D01*
X209776Y-165249D01*
X209750Y-165250D01*
X208250D01*
X208224Y-165249D01*
X208198Y-165247D01*
X208172Y-165244D01*
X208146Y-165239D01*
X208121Y-165233D01*
X208095Y-165226D01*
X208071Y-165217D01*
X208047Y-165207D01*
X208023Y-165196D01*
X208000Y-165183D01*
X207978Y-165169D01*
X207956Y-165154D01*
X207935Y-165139D01*
X207915Y-165122D01*
X207896Y-165104D01*
X207878Y-165085D01*
X207861Y-165065D01*
X207845Y-165044D01*
X207831Y-165022D01*
X207817Y-165000D01*
X207805Y-164977D01*
X207793Y-164953D01*
X207783Y-164929D01*
X207774Y-164904D01*
X207767Y-164879D01*
X207761Y-164854D01*
X207756Y-164828D01*
X207753Y-164802D01*
X207751Y-164776D01*
X207750Y-164750D01*
Y-163250D01*
X207751Y-163224D01*
X207753Y-163198D01*
X207756Y-163172D01*
X207761Y-163146D01*
X207767Y-163121D01*
X207774Y-163095D01*
X207783Y-163071D01*
X207793Y-163047D01*
X207805Y-163023D01*
X207817Y-163000D01*
X207831Y-162978D01*
X207845Y-162956D01*
X207861Y-162935D01*
X207878Y-162915D01*
X207896Y-162896D01*
X207915Y-162878D01*
X207935Y-162861D01*
X207956Y-162845D01*
X207978Y-162831D01*
X208000Y-162817D01*
X208023Y-162805D01*
X208047Y-162793D01*
X208071Y-162783D01*
X208095Y-162775D01*
X208121Y-162767D01*
X208146Y-162761D01*
X208172Y-162756D01*
X208198Y-162753D01*
X208224Y-162751D01*
X208250Y-162750D01*
X209750D01*
X209776Y-162751D01*
D02*
G37*
G36*
X219776Y-167751D02*
X219802Y-167753D01*
X219828Y-167756D01*
X219854Y-167761D01*
X219879Y-167767D01*
X219904Y-167775D01*
X219929Y-167783D01*
X219953Y-167793D01*
X219977Y-167805D01*
X220000Y-167817D01*
X220022Y-167831D01*
X220044Y-167845D01*
X220065Y-167861D01*
X220084Y-167878D01*
X220103Y-167896D01*
X220122Y-167915D01*
X220138Y-167935D01*
X220154Y-167956D01*
X220169Y-167978D01*
X220183Y-168000D01*
X220196Y-168023D01*
X220207Y-168047D01*
X220217Y-168071D01*
X220226Y-168095D01*
X220233Y-168121D01*
X220239Y-168146D01*
X220244Y-168172D01*
X220247Y-168198D01*
X220249Y-168224D01*
X220250Y-168250D01*
Y-169750D01*
X220249Y-169776D01*
X220247Y-169802D01*
X220244Y-169828D01*
X220239Y-169854D01*
X220233Y-169879D01*
X220226Y-169904D01*
X220217Y-169929D01*
X220207Y-169953D01*
X220196Y-169977D01*
X220183Y-170000D01*
X220169Y-170022D01*
X220154Y-170044D01*
X220138Y-170065D01*
X220122Y-170084D01*
X220103Y-170103D01*
X220084Y-170122D01*
X220065Y-170139D01*
X220044Y-170154D01*
X220022Y-170169D01*
X220000Y-170183D01*
X219977Y-170196D01*
X219953Y-170207D01*
X219929Y-170217D01*
X219904Y-170226D01*
X219879Y-170233D01*
X219854Y-170239D01*
X219828Y-170244D01*
X219802Y-170247D01*
X219776Y-170249D01*
X219750Y-170250D01*
X218250D01*
X218224Y-170249D01*
X218198Y-170247D01*
X218172Y-170244D01*
X218146Y-170239D01*
X218121Y-170233D01*
X218095Y-170226D01*
X218071Y-170217D01*
X218047Y-170207D01*
X218023Y-170196D01*
X218000Y-170183D01*
X217978Y-170169D01*
X217956Y-170154D01*
X217935Y-170139D01*
X217915Y-170122D01*
X217896Y-170103D01*
X217878Y-170084D01*
X217861Y-170065D01*
X217845Y-170044D01*
X217831Y-170022D01*
X217817Y-170000D01*
X217805Y-169977D01*
X217793Y-169953D01*
X217783Y-169929D01*
X217774Y-169904D01*
X217767Y-169879D01*
X217761Y-169854D01*
X217756Y-169828D01*
X217753Y-169802D01*
X217751Y-169776D01*
X217750Y-169750D01*
Y-168250D01*
X217751Y-168224D01*
X217753Y-168198D01*
X217756Y-168172D01*
X217761Y-168146D01*
X217767Y-168121D01*
X217774Y-168095D01*
X217783Y-168071D01*
X217793Y-168047D01*
X217805Y-168023D01*
X217817Y-168000D01*
X217831Y-167978D01*
X217845Y-167956D01*
X217861Y-167935D01*
X217878Y-167915D01*
X217896Y-167896D01*
X217915Y-167878D01*
X217935Y-167861D01*
X217956Y-167845D01*
X217978Y-167831D01*
X218000Y-167817D01*
X218023Y-167805D01*
X218047Y-167793D01*
X218071Y-167783D01*
X218095Y-167775D01*
X218121Y-167767D01*
X218146Y-167761D01*
X218172Y-167756D01*
X218198Y-167753D01*
X218224Y-167751D01*
X218250Y-167750D01*
X219750D01*
X219776Y-167751D01*
D02*
G37*
G36*
X214776D02*
X214802Y-167753D01*
X214828Y-167756D01*
X214854Y-167761D01*
X214879Y-167767D01*
X214904Y-167775D01*
X214929Y-167783D01*
X214953Y-167793D01*
X214977Y-167805D01*
X215000Y-167817D01*
X215022Y-167831D01*
X215044Y-167845D01*
X215065Y-167861D01*
X215084Y-167878D01*
X215103Y-167896D01*
X215121Y-167915D01*
X215139Y-167935D01*
X215154Y-167956D01*
X215169Y-167978D01*
X215183Y-168000D01*
X215196Y-168023D01*
X215207Y-168047D01*
X215217Y-168071D01*
X215226Y-168095D01*
X215233Y-168121D01*
X215239Y-168146D01*
X215244Y-168172D01*
X215247Y-168198D01*
X215249Y-168224D01*
X215250Y-168250D01*
Y-169750D01*
X215249Y-169776D01*
X215247Y-169802D01*
X215244Y-169828D01*
X215239Y-169854D01*
X215233Y-169879D01*
X215226Y-169904D01*
X215217Y-169929D01*
X215207Y-169953D01*
X215196Y-169977D01*
X215183Y-170000D01*
X215169Y-170022D01*
X215154Y-170044D01*
X215139Y-170065D01*
X215121Y-170084D01*
X215103Y-170103D01*
X215084Y-170122D01*
X215065Y-170139D01*
X215044Y-170154D01*
X215022Y-170169D01*
X215000Y-170183D01*
X214977Y-170196D01*
X214953Y-170207D01*
X214929Y-170217D01*
X214904Y-170226D01*
X214879Y-170233D01*
X214854Y-170239D01*
X214828Y-170244D01*
X214802Y-170247D01*
X214776Y-170249D01*
X214750Y-170250D01*
X213250D01*
X213224Y-170249D01*
X213198Y-170247D01*
X213172Y-170244D01*
X213146Y-170239D01*
X213121Y-170233D01*
X213095Y-170226D01*
X213071Y-170217D01*
X213047Y-170207D01*
X213023Y-170196D01*
X213000Y-170183D01*
X212978Y-170169D01*
X212956Y-170154D01*
X212935Y-170139D01*
X212915Y-170122D01*
X212896Y-170103D01*
X212878Y-170084D01*
X212861Y-170065D01*
X212845Y-170044D01*
X212831Y-170022D01*
X212817Y-170000D01*
X212805Y-169977D01*
X212793Y-169953D01*
X212783Y-169929D01*
X212775Y-169904D01*
X212767Y-169879D01*
X212761Y-169854D01*
X212756Y-169828D01*
X212753Y-169802D01*
X212751Y-169776D01*
X212750Y-169750D01*
Y-168250D01*
X212751Y-168224D01*
X212753Y-168198D01*
X212756Y-168172D01*
X212761Y-168146D01*
X212767Y-168121D01*
X212775Y-168095D01*
X212783Y-168071D01*
X212793Y-168047D01*
X212805Y-168023D01*
X212817Y-168000D01*
X212831Y-167978D01*
X212845Y-167956D01*
X212861Y-167935D01*
X212878Y-167915D01*
X212896Y-167896D01*
X212915Y-167878D01*
X212935Y-167861D01*
X212956Y-167845D01*
X212978Y-167831D01*
X213000Y-167817D01*
X213023Y-167805D01*
X213047Y-167793D01*
X213071Y-167783D01*
X213095Y-167775D01*
X213121Y-167767D01*
X213146Y-167761D01*
X213172Y-167756D01*
X213198Y-167753D01*
X213224Y-167751D01*
X213250Y-167750D01*
X214750D01*
X214776Y-167751D01*
D02*
G37*
G36*
X209776D02*
X209802Y-167753D01*
X209828Y-167756D01*
X209854Y-167761D01*
X209879Y-167767D01*
X209904Y-167775D01*
X209929Y-167783D01*
X209953Y-167793D01*
X209977Y-167805D01*
X210000Y-167817D01*
X210022Y-167831D01*
X210044Y-167845D01*
X210065Y-167861D01*
X210084Y-167878D01*
X210103Y-167896D01*
X210122Y-167915D01*
X210138Y-167935D01*
X210154Y-167956D01*
X210169Y-167978D01*
X210183Y-168000D01*
X210196Y-168023D01*
X210207Y-168047D01*
X210217Y-168071D01*
X210226Y-168095D01*
X210233Y-168121D01*
X210239Y-168146D01*
X210244Y-168172D01*
X210247Y-168198D01*
X210249Y-168224D01*
X210250Y-168250D01*
Y-169750D01*
X210249Y-169776D01*
X210247Y-169802D01*
X210244Y-169828D01*
X210239Y-169854D01*
X210233Y-169879D01*
X210226Y-169904D01*
X210217Y-169929D01*
X210207Y-169953D01*
X210196Y-169977D01*
X210183Y-170000D01*
X210169Y-170022D01*
X210154Y-170044D01*
X210138Y-170065D01*
X210122Y-170084D01*
X210103Y-170103D01*
X210084Y-170122D01*
X210065Y-170139D01*
X210044Y-170154D01*
X210022Y-170169D01*
X210000Y-170183D01*
X209977Y-170196D01*
X209953Y-170207D01*
X209929Y-170217D01*
X209904Y-170226D01*
X209879Y-170233D01*
X209854Y-170239D01*
X209828Y-170244D01*
X209802Y-170247D01*
X209776Y-170249D01*
X209750Y-170250D01*
X208250D01*
X208224Y-170249D01*
X208198Y-170247D01*
X208172Y-170244D01*
X208146Y-170239D01*
X208121Y-170233D01*
X208095Y-170226D01*
X208071Y-170217D01*
X208047Y-170207D01*
X208023Y-170196D01*
X208000Y-170183D01*
X207978Y-170169D01*
X207956Y-170154D01*
X207935Y-170139D01*
X207915Y-170122D01*
X207896Y-170103D01*
X207878Y-170084D01*
X207861Y-170065D01*
X207845Y-170044D01*
X207831Y-170022D01*
X207817Y-170000D01*
X207805Y-169977D01*
X207793Y-169953D01*
X207783Y-169929D01*
X207774Y-169904D01*
X207767Y-169879D01*
X207761Y-169854D01*
X207756Y-169828D01*
X207753Y-169802D01*
X207751Y-169776D01*
X207750Y-169750D01*
Y-168250D01*
X207751Y-168224D01*
X207753Y-168198D01*
X207756Y-168172D01*
X207761Y-168146D01*
X207767Y-168121D01*
X207774Y-168095D01*
X207783Y-168071D01*
X207793Y-168047D01*
X207805Y-168023D01*
X207817Y-168000D01*
X207831Y-167978D01*
X207845Y-167956D01*
X207861Y-167935D01*
X207878Y-167915D01*
X207896Y-167896D01*
X207915Y-167878D01*
X207935Y-167861D01*
X207956Y-167845D01*
X207978Y-167831D01*
X208000Y-167817D01*
X208023Y-167805D01*
X208047Y-167793D01*
X208071Y-167783D01*
X208095Y-167775D01*
X208121Y-167767D01*
X208146Y-167761D01*
X208172Y-167756D01*
X208198Y-167753D01*
X208224Y-167751D01*
X208250Y-167750D01*
X209750D01*
X209776Y-167751D01*
D02*
G37*
G36*
X-63500Y-172500D02*
X-74250D01*
Y-161750D01*
X-63500D01*
X-63500Y-172500D01*
D02*
G37*
G36*
X-75750D02*
X-86500D01*
X-86500Y-161750D01*
X-75750D01*
Y-172500D01*
D02*
G37*
G36*
X219776Y-172751D02*
X219802Y-172753D01*
X219828Y-172756D01*
X219854Y-172761D01*
X219879Y-172767D01*
X219904Y-172775D01*
X219929Y-172783D01*
X219953Y-172793D01*
X219977Y-172805D01*
X220000Y-172817D01*
X220022Y-172831D01*
X220044Y-172845D01*
X220065Y-172861D01*
X220084Y-172878D01*
X220103Y-172896D01*
X220122Y-172915D01*
X220138Y-172935D01*
X220154Y-172956D01*
X220169Y-172978D01*
X220183Y-173000D01*
X220196Y-173023D01*
X220207Y-173047D01*
X220217Y-173071D01*
X220226Y-173095D01*
X220233Y-173121D01*
X220239Y-173146D01*
X220244Y-173172D01*
X220247Y-173198D01*
X220249Y-173224D01*
X220250Y-173250D01*
Y-174750D01*
X220249Y-174776D01*
X220247Y-174802D01*
X220244Y-174828D01*
X220239Y-174854D01*
X220233Y-174879D01*
X220226Y-174904D01*
X220217Y-174929D01*
X220207Y-174953D01*
X220196Y-174977D01*
X220183Y-175000D01*
X220169Y-175022D01*
X220154Y-175044D01*
X220138Y-175065D01*
X220122Y-175085D01*
X220103Y-175103D01*
X220084Y-175122D01*
X220065Y-175139D01*
X220044Y-175154D01*
X220022Y-175169D01*
X220000Y-175183D01*
X219977Y-175196D01*
X219953Y-175207D01*
X219929Y-175217D01*
X219904Y-175226D01*
X219879Y-175233D01*
X219854Y-175239D01*
X219828Y-175244D01*
X219802Y-175247D01*
X219776Y-175249D01*
X219750Y-175250D01*
X218250D01*
X218224Y-175249D01*
X218198Y-175247D01*
X218172Y-175244D01*
X218146Y-175239D01*
X218121Y-175233D01*
X218095Y-175226D01*
X218071Y-175217D01*
X218047Y-175207D01*
X218023Y-175196D01*
X218000Y-175183D01*
X217978Y-175169D01*
X217956Y-175154D01*
X217935Y-175139D01*
X217915Y-175122D01*
X217896Y-175103D01*
X217878Y-175085D01*
X217861Y-175065D01*
X217845Y-175044D01*
X217831Y-175022D01*
X217817Y-175000D01*
X217805Y-174977D01*
X217793Y-174953D01*
X217783Y-174929D01*
X217774Y-174904D01*
X217767Y-174879D01*
X217761Y-174854D01*
X217756Y-174828D01*
X217753Y-174802D01*
X217751Y-174776D01*
X217750Y-174750D01*
Y-173250D01*
X217751Y-173224D01*
X217753Y-173198D01*
X217756Y-173172D01*
X217761Y-173146D01*
X217767Y-173121D01*
X217774Y-173095D01*
X217783Y-173071D01*
X217793Y-173047D01*
X217805Y-173023D01*
X217817Y-173000D01*
X217831Y-172978D01*
X217845Y-172956D01*
X217861Y-172935D01*
X217878Y-172915D01*
X217896Y-172896D01*
X217915Y-172878D01*
X217935Y-172861D01*
X217956Y-172845D01*
X217978Y-172831D01*
X218000Y-172817D01*
X218023Y-172805D01*
X218047Y-172793D01*
X218071Y-172783D01*
X218095Y-172775D01*
X218121Y-172767D01*
X218146Y-172761D01*
X218172Y-172756D01*
X218198Y-172753D01*
X218224Y-172751D01*
X218250Y-172750D01*
X219750D01*
X219776Y-172751D01*
D02*
G37*
G36*
X214776D02*
X214802Y-172753D01*
X214828Y-172756D01*
X214854Y-172761D01*
X214879Y-172767D01*
X214904Y-172775D01*
X214929Y-172783D01*
X214953Y-172793D01*
X214977Y-172805D01*
X215000Y-172817D01*
X215022Y-172831D01*
X215044Y-172845D01*
X215065Y-172861D01*
X215084Y-172878D01*
X215103Y-172896D01*
X215121Y-172915D01*
X215139Y-172935D01*
X215154Y-172956D01*
X215169Y-172978D01*
X215183Y-173000D01*
X215196Y-173023D01*
X215207Y-173047D01*
X215217Y-173071D01*
X215226Y-173095D01*
X215233Y-173121D01*
X215239Y-173146D01*
X215244Y-173172D01*
X215247Y-173198D01*
X215249Y-173224D01*
X215250Y-173250D01*
Y-174750D01*
X215249Y-174776D01*
X215247Y-174802D01*
X215244Y-174828D01*
X215239Y-174854D01*
X215233Y-174879D01*
X215226Y-174904D01*
X215217Y-174929D01*
X215207Y-174953D01*
X215196Y-174977D01*
X215183Y-175000D01*
X215169Y-175022D01*
X215154Y-175044D01*
X215139Y-175065D01*
X215121Y-175085D01*
X215103Y-175103D01*
X215084Y-175122D01*
X215065Y-175139D01*
X215044Y-175154D01*
X215022Y-175169D01*
X215000Y-175183D01*
X214977Y-175196D01*
X214953Y-175207D01*
X214929Y-175217D01*
X214904Y-175226D01*
X214879Y-175233D01*
X214854Y-175239D01*
X214828Y-175244D01*
X214802Y-175247D01*
X214776Y-175249D01*
X214750Y-175250D01*
X213250D01*
X213224Y-175249D01*
X213198Y-175247D01*
X213172Y-175244D01*
X213146Y-175239D01*
X213121Y-175233D01*
X213095Y-175226D01*
X213071Y-175217D01*
X213047Y-175207D01*
X213023Y-175196D01*
X213000Y-175183D01*
X212978Y-175169D01*
X212956Y-175154D01*
X212935Y-175139D01*
X212915Y-175122D01*
X212896Y-175103D01*
X212878Y-175085D01*
X212861Y-175065D01*
X212845Y-175044D01*
X212831Y-175022D01*
X212817Y-175000D01*
X212805Y-174977D01*
X212793Y-174953D01*
X212783Y-174929D01*
X212775Y-174904D01*
X212767Y-174879D01*
X212761Y-174854D01*
X212756Y-174828D01*
X212753Y-174802D01*
X212751Y-174776D01*
X212750Y-174750D01*
Y-173250D01*
X212751Y-173224D01*
X212753Y-173198D01*
X212756Y-173172D01*
X212761Y-173146D01*
X212767Y-173121D01*
X212775Y-173095D01*
X212783Y-173071D01*
X212793Y-173047D01*
X212805Y-173023D01*
X212817Y-173000D01*
X212831Y-172978D01*
X212845Y-172956D01*
X212861Y-172935D01*
X212878Y-172915D01*
X212896Y-172896D01*
X212915Y-172878D01*
X212935Y-172861D01*
X212956Y-172845D01*
X212978Y-172831D01*
X213000Y-172817D01*
X213023Y-172805D01*
X213047Y-172793D01*
X213071Y-172783D01*
X213095Y-172775D01*
X213121Y-172767D01*
X213146Y-172761D01*
X213172Y-172756D01*
X213198Y-172753D01*
X213224Y-172751D01*
X213250Y-172750D01*
X214750D01*
X214776Y-172751D01*
D02*
G37*
G36*
X209776D02*
X209802Y-172753D01*
X209828Y-172756D01*
X209854Y-172761D01*
X209879Y-172767D01*
X209904Y-172775D01*
X209929Y-172783D01*
X209953Y-172793D01*
X209977Y-172805D01*
X210000Y-172817D01*
X210022Y-172831D01*
X210044Y-172845D01*
X210065Y-172861D01*
X210084Y-172878D01*
X210103Y-172896D01*
X210122Y-172915D01*
X210138Y-172935D01*
X210154Y-172956D01*
X210169Y-172978D01*
X210183Y-173000D01*
X210196Y-173023D01*
X210207Y-173047D01*
X210217Y-173071D01*
X210226Y-173095D01*
X210233Y-173121D01*
X210239Y-173146D01*
X210244Y-173172D01*
X210247Y-173198D01*
X210249Y-173224D01*
X210250Y-173250D01*
Y-174750D01*
X210249Y-174776D01*
X210247Y-174802D01*
X210244Y-174828D01*
X210239Y-174854D01*
X210233Y-174879D01*
X210226Y-174904D01*
X210217Y-174929D01*
X210207Y-174953D01*
X210196Y-174977D01*
X210183Y-175000D01*
X210169Y-175022D01*
X210154Y-175044D01*
X210138Y-175065D01*
X210122Y-175085D01*
X210103Y-175103D01*
X210084Y-175122D01*
X210065Y-175139D01*
X210044Y-175154D01*
X210022Y-175169D01*
X210000Y-175183D01*
X209977Y-175196D01*
X209953Y-175207D01*
X209929Y-175217D01*
X209904Y-175226D01*
X209879Y-175233D01*
X209854Y-175239D01*
X209828Y-175244D01*
X209802Y-175247D01*
X209776Y-175249D01*
X209750Y-175250D01*
X208250D01*
X208224Y-175249D01*
X208198Y-175247D01*
X208172Y-175244D01*
X208146Y-175239D01*
X208121Y-175233D01*
X208095Y-175226D01*
X208071Y-175217D01*
X208047Y-175207D01*
X208023Y-175196D01*
X208000Y-175183D01*
X207978Y-175169D01*
X207956Y-175154D01*
X207935Y-175139D01*
X207915Y-175122D01*
X207896Y-175103D01*
X207878Y-175085D01*
X207861Y-175065D01*
X207845Y-175044D01*
X207831Y-175022D01*
X207817Y-175000D01*
X207805Y-174977D01*
X207793Y-174953D01*
X207783Y-174929D01*
X207774Y-174904D01*
X207767Y-174879D01*
X207761Y-174854D01*
X207756Y-174828D01*
X207753Y-174802D01*
X207751Y-174776D01*
X207750Y-174750D01*
Y-173250D01*
X207751Y-173224D01*
X207753Y-173198D01*
X207756Y-173172D01*
X207761Y-173146D01*
X207767Y-173121D01*
X207774Y-173095D01*
X207783Y-173071D01*
X207793Y-173047D01*
X207805Y-173023D01*
X207817Y-173000D01*
X207831Y-172978D01*
X207845Y-172956D01*
X207861Y-172935D01*
X207878Y-172915D01*
X207896Y-172896D01*
X207915Y-172878D01*
X207935Y-172861D01*
X207956Y-172845D01*
X207978Y-172831D01*
X208000Y-172817D01*
X208023Y-172805D01*
X208047Y-172793D01*
X208071Y-172783D01*
X208095Y-172775D01*
X208121Y-172767D01*
X208146Y-172761D01*
X208172Y-172756D01*
X208198Y-172753D01*
X208224Y-172751D01*
X208250Y-172750D01*
X209750D01*
X209776Y-172751D01*
D02*
G37*
G54D21*
X-89964Y198000D02*
D03*
X-109964D02*
D03*
X-99964Y172000D02*
D03*
X-89964D02*
D03*
X-109964D02*
D03*
X-99964Y198000D02*
D03*
G54D22*
X-112964Y180000D02*
D03*
Y190000D02*
D03*
X-86964Y180000D02*
D03*
Y190000D02*
D03*
Y185000D02*
D03*
X-112964D02*
D03*
G54D23*
X47500Y175000D02*
D03*
X72500D02*
D03*
G54D24*
X167000Y-408000D02*
D03*
X-1000D02*
D03*
Y-310000D02*
D03*
X234000D02*
D03*
Y-408000D02*
D03*
X285000D02*
D03*
G54D25*
X-191700Y-299000D02*
D03*
Y-406000D02*
D03*
X-229000Y-384000D02*
D03*
Y-406000D02*
D03*
G54D26*
X217100Y-50000D02*
D03*
Y-114000D02*
D03*
Y-58000D02*
D03*
Y-106000D02*
D03*
X161750Y-4000D02*
D03*
X184250Y5500D02*
D03*
Y-13500D02*
D03*
G54D27*
X217100Y-64500D02*
D03*
Y-69500D02*
D03*
Y-74500D02*
D03*
Y-79500D02*
D03*
Y-84500D02*
D03*
Y-89500D02*
D03*
Y-94500D02*
D03*
Y-99500D02*
D03*
G54D28*
X-33750Y240750D02*
D03*
X-12250D02*
D03*
Y199250D02*
D03*
X-33750D02*
D03*
X-12250Y266250D02*
D03*
X-33750D02*
D03*
Y307750D02*
D03*
X-12250D02*
D03*
G54D29*
X80000Y-4000D02*
D03*
Y-14000D02*
D03*
X196000Y-8000D02*
D03*
Y2000D02*
D03*
X70000Y-1477D02*
D03*
Y-11477D02*
D03*
X-49000Y295000D02*
D03*
Y305000D02*
D03*
X188000Y-155000D02*
D03*
Y-165000D02*
D03*
X-188250Y192250D02*
D03*
Y182250D02*
D03*
X10000Y-4000D02*
D03*
Y-14000D02*
D03*
X242000Y89000D02*
D03*
Y99000D02*
D03*
X243000Y53000D02*
D03*
Y63000D02*
D03*
X-20000Y151000D02*
D03*
Y161000D02*
D03*
X4000Y344000D02*
D03*
Y334000D02*
D03*
X-58000Y319000D02*
D03*
Y329000D02*
D03*
X176000Y357000D02*
D03*
Y347000D02*
D03*
X40000Y-14000D02*
D03*
Y-4000D02*
D03*
X-119000Y-24000D02*
D03*
Y-14000D02*
D03*
X-59000Y295000D02*
D03*
Y305000D02*
D03*
X-181000Y-159000D02*
D03*
Y-149000D02*
D03*
X-176000Y-206000D02*
D03*
Y-196000D02*
D03*
X57000Y64000D02*
D03*
Y74000D02*
D03*
Y54000D02*
D03*
Y44000D02*
D03*
X-71967Y171004D02*
D03*
Y181004D02*
D03*
X-72000Y201000D02*
D03*
Y191000D02*
D03*
X186000Y357000D02*
D03*
Y347000D02*
D03*
X-184000Y-28000D02*
D03*
Y-18000D02*
D03*
X-174000Y-28000D02*
D03*
Y-18000D02*
D03*
X-194000D02*
D03*
Y-28000D02*
D03*
X-70000Y83000D02*
D03*
Y93000D02*
D03*
X-142000Y27125D02*
D03*
Y37125D02*
D03*
X7000Y299000D02*
D03*
Y309000D02*
D03*
X-80000Y83000D02*
D03*
Y93000D02*
D03*
X-60000Y83000D02*
D03*
Y93000D02*
D03*
X120313Y-150001D02*
D03*
Y-160001D02*
D03*
X46438Y-115251D02*
D03*
Y-105251D02*
D03*
X38438Y-115251D02*
D03*
Y-105251D02*
D03*
X234000Y-376000D02*
D03*
Y-366000D02*
D03*
X63000Y-278000D02*
D03*
Y-288000D02*
D03*
X-57000Y-99000D02*
D03*
Y-89000D02*
D03*
X-57000Y-222000D02*
D03*
Y-232000D02*
D03*
X-214000Y-399000D02*
D03*
Y-389000D02*
D03*
Y-379000D02*
D03*
Y-369000D02*
D03*
X-141000Y-290000D02*
D03*
Y-280000D02*
D03*
X-186000Y-217000D02*
D03*
Y-227000D02*
D03*
X-115000Y227000D02*
D03*
Y237000D02*
D03*
X-125000Y227000D02*
D03*
Y237000D02*
D03*
X155000Y118000D02*
D03*
Y128000D02*
D03*
Y145000D02*
D03*
Y155000D02*
D03*
X191000Y-188000D02*
D03*
Y-178000D02*
D03*
G54D30*
X16505Y64003D02*
D03*
Y54503D02*
D03*
X41505Y73503D02*
D03*
Y64003D02*
D03*
Y54503D02*
D03*
X16505Y73503D02*
D03*
G54D31*
X157000Y-163000D02*
D03*
X166500D02*
D03*
X176000D02*
D03*
X157000Y-138000D02*
D03*
X176000D02*
D03*
G54D32*
X-106524Y247026D02*
D03*
X-115524D02*
D03*
X-133500Y247000D02*
D03*
X-124500D02*
D03*
G54D33*
X-142000Y3125D02*
D03*
X-159000D02*
D03*
G54D34*
X211000Y-18300D02*
D03*
X74500Y289500D02*
D03*
X107500D02*
D03*
X91000D02*
D03*
G54D35*
X211000Y10300D02*
D03*
X107500Y306000D02*
D03*
X91000D02*
D03*
X74500Y273000D02*
D03*
X107500D02*
D03*
X91000D02*
D03*
G54D36*
X-103500Y-25000D02*
D03*
Y-14000D02*
D03*
Y-3000D02*
D03*
Y8000D02*
D03*
Y19000D02*
D03*
Y30000D02*
D03*
Y41000D02*
D03*
Y52000D02*
D03*
Y63000D02*
D03*
X-6500D02*
D03*
Y52000D02*
D03*
Y41000D02*
D03*
Y30000D02*
D03*
Y19000D02*
D03*
Y8000D02*
D03*
Y-3000D02*
D03*
Y-14000D02*
D03*
Y-25000D02*
D03*
G54D37*
X38500Y-251500D02*
D03*
X88500D02*
D03*
X-69500Y-251500D02*
D03*
G54D38*
X-8000Y-84000D02*
D03*
Y-134000D02*
D03*
Y-184000D02*
D03*
Y-234000D02*
D03*
X141000D02*
D03*
Y-184000D02*
D03*
Y-134000D02*
D03*
Y-84000D02*
D03*
X-166000Y-84000D02*
D03*
Y-134000D02*
D03*
Y-184000D02*
D03*
Y-234000D02*
D03*
X-17000D02*
D03*
Y-184000D02*
D03*
Y-134000D02*
D03*
Y-84000D02*
D03*
G54D39*
X124500Y-66500D02*
D03*
X66500D02*
D03*
X8500D02*
D03*
X-33500Y-66500D02*
D03*
X-91500D02*
D03*
X-149500D02*
D03*
G54D40*
X133500Y-251500D02*
D03*
X-500D02*
D03*
X-24500Y-251500D02*
D03*
G54D41*
X-119500D02*
D03*
G54D42*
X-158500D02*
D03*
G54D43*
X-167500Y36625D02*
D03*
X-152500D02*
D03*
G54D44*
X233000Y-181500D02*
D03*
Y-162500D02*
D03*
X239000Y161500D02*
D03*
Y142500D02*
D03*
X227000Y52500D02*
D03*
Y71500D02*
D03*
X-12000Y334500D02*
D03*
Y353500D02*
D03*
X-30000Y334500D02*
D03*
Y353500D02*
D03*
X-135000Y-31500D02*
D03*
Y-12500D02*
D03*
X60313Y-112501D02*
D03*
Y-93501D02*
D03*
X-181000Y-261500D02*
D03*
Y-242500D02*
D03*
G54D45*
X57000Y131000D02*
D03*
Y116000D02*
D03*
Y92000D02*
D03*
Y107000D02*
D03*
X230000Y12500D02*
D03*
Y27500D02*
D03*
X208000Y37500D02*
D03*
Y52500D02*
D03*
X157000Y-191000D02*
D03*
Y-176000D02*
D03*
X170000Y-191000D02*
D03*
Y-176000D02*
D03*
X69000Y68500D02*
D03*
Y53500D02*
D03*
X196000Y-103500D02*
D03*
Y-118500D02*
D03*
X190000Y-54500D02*
D03*
Y-39500D02*
D03*
G54D46*
X-55750Y-148500D02*
D03*
Y-153500D02*
D03*
Y-168500D02*
D03*
Y-173500D02*
D03*
Y-163500D02*
D03*
Y-158500D02*
D03*
X-94250Y-163500D02*
D03*
Y-168500D02*
D03*
Y-173500D02*
D03*
Y-153500D02*
D03*
Y-148500D02*
D03*
Y-158500D02*
D03*
X78563Y-134501D02*
D03*
Y-144501D02*
D03*
Y-159501D02*
D03*
X40063Y-144501D02*
D03*
X78563Y-154501D02*
D03*
Y-149501D02*
D03*
X40063Y-159501D02*
D03*
Y-154501D02*
D03*
Y-149501D02*
D03*
Y-139501D02*
D03*
X78563D02*
D03*
X40063Y-134501D02*
D03*
G54D47*
X-67500Y-141750D02*
D03*
X-82500Y-180250D02*
D03*
X-62500D02*
D03*
Y-141750D02*
D03*
X-72500D02*
D03*
X-67500Y-180250D02*
D03*
X-72500D02*
D03*
X-77500D02*
D03*
X-87500Y-141750D02*
D03*
Y-180250D02*
D03*
X-77500Y-141750D02*
D03*
X-82500D02*
D03*
X51813Y-127751D02*
D03*
X46813D02*
D03*
X66813D02*
D03*
X46813Y-166251D02*
D03*
X71813Y-127751D02*
D03*
X61813Y-166251D02*
D03*
X71813D02*
D03*
X66813D02*
D03*
X56813D02*
D03*
X51813D02*
D03*
X61813Y-127751D02*
D03*
X56813D02*
D03*
G54D48*
X-72750Y-221350D02*
D03*
Y-230150D02*
D03*
G54D49*
X-77950Y-228250D02*
D03*
X-67550Y-223250D02*
D03*
X-77950D02*
D03*
X-67550Y-228250D02*
D03*
G54D50*
X-40250Y-167750D02*
D03*
X-29750Y-154250D02*
D03*
Y-167750D02*
D03*
X-40250Y-154250D02*
D03*
X92063Y-123251D02*
D03*
X102563Y-136751D02*
D03*
Y-123251D02*
D03*
X92063Y-136751D02*
D03*
G54D51*
X-135559Y-237309D02*
D03*
X-118941Y-220692D02*
D03*
G54D52*
X-138210Y-227232D02*
D03*
X-133614Y-222636D02*
D03*
X-129018Y-218040D02*
D03*
X-116290Y-230768D02*
D03*
X-120886Y-235364D02*
D03*
X-125482Y-239960D02*
D03*
G54D53*
X-178250Y175250D02*
D03*
X-158250D02*
D03*
Y181750D02*
D03*
X-178250Y188250D02*
D03*
X-158250Y194750D02*
D03*
X-178250D02*
D03*
Y181750D02*
D03*
X-158250Y188250D02*
D03*
G54D54*
X-46630Y163500D02*
D03*
Y153500D02*
D03*
X-31370D02*
D03*
X-46630Y148500D02*
D03*
X-31370D02*
D03*
Y163500D02*
D03*
Y158500D02*
D03*
X-46630D02*
D03*
G54D55*
X-41500Y163500D02*
D03*
X-36500D02*
D03*
X-41500Y148500D02*
D03*
X-36500D02*
D03*
G54D56*
X209000Y143000D02*
D03*
Y123000D02*
D03*
G54D57*
X-53000Y-114000D02*
D03*
X-71000D02*
D03*
G54D58*
X158000Y191000D02*
D03*
X173000D02*
D03*
X241500Y-22000D02*
D03*
X226500D02*
D03*
X-83500Y-90000D02*
D03*
X-68500D02*
D03*
X158002Y75890D02*
D03*
X173002D02*
D03*
G54D59*
X65000Y-212250D02*
D03*
X58500D02*
D03*
G54D60*
X61750Y-206500D02*
D03*
Y-218000D02*
D03*
G54D61*
Y-174500D02*
D03*
Y-186500D02*
D03*
G54D62*
X65250Y-180500D02*
D03*
X58250D02*
D03*
G54D63*
X-86500Y331500D02*
D03*
X-193500D02*
D03*
G54D64*
X-150000Y274000D02*
D03*
X-170000D02*
D03*
X-110000D02*
D03*
X-130000D02*
D03*
G54D65*
X271000Y-208500D02*
D03*
Y-275500D02*
D03*
G54D66*
X213500Y-232000D02*
D03*
Y-252000D02*
D03*
G54D67*
X-81000Y-206750D02*
D03*
X-59500D02*
D03*
G54D68*
X-72750Y-213250D02*
D03*
X-67750Y-200250D02*
D03*
X-62750Y-213250D02*
D03*
Y-200250D02*
D03*
X-67750Y-213250D02*
D03*
X-77750D02*
D03*
X-72750Y-200250D02*
D03*
X-77750D02*
D03*
G54D69*
X178000Y-249500D02*
D03*
Y-220500D02*
D03*
G54D70*
X74500Y306000D02*
D03*
G54D71*
X161000Y359500D02*
D03*
X21000D02*
D03*
Y219500D02*
D03*
X161000D02*
D03*
G54D72*
X21000Y349000D02*
D03*
Y340500D02*
D03*
Y332000D02*
D03*
Y323500D02*
D03*
Y315000D02*
D03*
Y306500D02*
D03*
Y298000D02*
D03*
Y289500D02*
D03*
Y281000D02*
D03*
Y272500D02*
D03*
Y264000D02*
D03*
Y255500D02*
D03*
Y247000D02*
D03*
Y238500D02*
D03*
Y230000D02*
D03*
X161000D02*
D03*
Y238500D02*
D03*
Y247000D02*
D03*
Y255500D02*
D03*
Y264000D02*
D03*
Y272500D02*
D03*
Y281000D02*
D03*
Y289500D02*
D03*
Y298000D02*
D03*
Y306500D02*
D03*
Y315000D02*
D03*
Y323500D02*
D03*
Y332000D02*
D03*
Y340500D02*
D03*
Y349000D02*
D03*
G54D73*
X31500Y219500D02*
D03*
X150500Y359500D02*
D03*
X40000Y219500D02*
D03*
X48500D02*
D03*
X57000D02*
D03*
X65500D02*
D03*
X74000D02*
D03*
X82500D02*
D03*
X91000D02*
D03*
X99500D02*
D03*
X108000D02*
D03*
X116500D02*
D03*
X125000D02*
D03*
X133500D02*
D03*
X142000D02*
D03*
X150500D02*
D03*
X142000Y359500D02*
D03*
X133500D02*
D03*
X125000D02*
D03*
X116500D02*
D03*
X108000D02*
D03*
X99500D02*
D03*
X91000D02*
D03*
X82500D02*
D03*
X74000D02*
D03*
X65500D02*
D03*
X57000D02*
D03*
X48500D02*
D03*
X40000D02*
D03*
X31500D02*
D03*
G54D74*
X176750Y-79750D02*
D03*
Y-74250D02*
D03*
X189250D02*
D03*
Y-79750D02*
D03*
G54D75*
X92000Y-14000D02*
D03*
G54D76*
X107250Y750D02*
D03*
Y-28750D02*
D03*
G54D77*
X-141000Y-280000D02*
D03*
X63000Y-278000D02*
D03*
G54D78*
X-123628Y-265250D02*
D03*
Y-294750D02*
D03*
X80372Y-263250D02*
D03*
Y-292750D02*
D03*
G54D79*
X187750Y188625D02*
D03*
X206750D02*
D03*
X179500Y22000D02*
D03*
X160500D02*
D03*
X179500Y40000D02*
D03*
X160500D02*
D03*
X179500Y58000D02*
D03*
X160500D02*
D03*
X-170500Y231000D02*
D03*
X-151500D02*
D03*
X-104500Y-106000D02*
D03*
X-85500D02*
D03*
X187750Y77735D02*
D03*
X206750D02*
D03*
X187750Y95735D02*
D03*
X206750D02*
D03*
X187750Y170625D02*
D03*
X206750D02*
D03*
G54D80*
X174000Y110000D02*
D03*
X164000D02*
D03*
X-167250Y205250D02*
D03*
X-177250D02*
D03*
X237000Y-9000D02*
D03*
X227000D02*
D03*
X-142000Y17125D02*
D03*
X-152000D02*
D03*
X-122967Y161004D02*
D03*
X-112967D02*
D03*
X-109967Y209004D02*
D03*
X-99967D02*
D03*
X45000Y191000D02*
D03*
X55000D02*
D03*
X75000D02*
D03*
X65000D02*
D03*
X-164000Y246000D02*
D03*
X-154000D02*
D03*
X-138250Y172250D02*
D03*
X-148250D02*
D03*
X186000Y336000D02*
D03*
X176000D02*
D03*
X-138250Y182250D02*
D03*
X-148250D02*
D03*
X-101967Y151004D02*
D03*
X-111967D02*
D03*
X182000Y-27000D02*
D03*
X192000D02*
D03*
X55000Y201000D02*
D03*
X65000D02*
D03*
X30000Y-14000D02*
D03*
X20000D02*
D03*
X-97000Y-39000D02*
D03*
X-87000D02*
D03*
X13313Y-178001D02*
D03*
X23313D02*
D03*
X13313Y-168001D02*
D03*
X23313D02*
D03*
X13313Y-158001D02*
D03*
X23313D02*
D03*
X13313Y-188001D02*
D03*
X23313D02*
D03*
X64313Y-79001D02*
D03*
X74313D02*
D03*
X23313Y-148001D02*
D03*
X13313D02*
D03*
X93438Y-163251D02*
D03*
X103438D02*
D03*
X93438Y-155251D02*
D03*
X103438D02*
D03*
X244000Y-356000D02*
D03*
X234000D02*
D03*
X244000Y-386000D02*
D03*
X234000D02*
D03*
X-83000Y-76000D02*
D03*
X-93000D02*
D03*
X-113000Y-167000D02*
D03*
X-123000D02*
D03*
X-113000Y-177000D02*
D03*
X-123000D02*
D03*
X-113000Y-187000D02*
D03*
X-123000D02*
D03*
X-94250Y-195205D02*
D03*
X-104250D02*
D03*
X-104250Y-203205D02*
D03*
X-94250D02*
D03*
X-48000Y-128000D02*
D03*
X-38000D02*
D03*
X-52750Y-190750D02*
D03*
X-62750D02*
D03*
X-31000Y-182000D02*
D03*
X-41000D02*
D03*
X-65000Y-128000D02*
D03*
X-55000D02*
D03*
X-93000Y-129000D02*
D03*
X-83000D02*
D03*
X-93000Y-121000D02*
D03*
X-83000D02*
D03*
X-35500Y-191000D02*
D03*
X-45500D02*
D03*
X-35500Y-199000D02*
D03*
X-45500D02*
D03*
X-113000Y-157000D02*
D03*
X-123000D02*
D03*
X-224000Y-359000D02*
D03*
X-214000D02*
D03*
X60000Y6000D02*
D03*
X70000D02*
D03*
X60000Y-14000D02*
D03*
X50000D02*
D03*
X208000Y-142000D02*
D03*
X218000D02*
D03*
X211000Y-154000D02*
D03*
X201000D02*
D03*
X70000Y26000D02*
D03*
X60000D02*
D03*
X214000Y-187000D02*
D03*
X204000D02*
D03*
X-46999Y174000D02*
D03*
X-36999D02*
D03*
X-46999Y138000D02*
D03*
X-36999D02*
D03*
X192000Y110000D02*
D03*
X202000D02*
D03*
X192000Y156000D02*
D03*
X202000D02*
D03*
X60000Y16000D02*
D03*
X70000D02*
D03*
G54D81*
X201000Y-63000D02*
D03*
Y-72000D02*
D03*
Y-91000D02*
D03*
Y-82000D02*
D03*
X-191000Y-158500D02*
D03*
Y-149500D02*
D03*
X-186000Y-205500D02*
D03*
Y-196500D02*
D03*
G54D82*
X172500Y-97000D02*
D03*
X157500D02*
D03*
X171500Y-203000D02*
D03*
X186500D02*
D03*
X215500Y265000D02*
D03*
X200500D02*
D03*
X215900Y210600D02*
D03*
X200900D02*
D03*
X166500Y-123000D02*
D03*
X181500D02*
D03*
X-198000Y-107000D02*
D03*
X-183000D02*
D03*
X-198000Y-82000D02*
D03*
X-183000D02*
D03*
G54D83*
X-46000Y318500D02*
D03*
Y333500D02*
D03*
X76313Y-111501D02*
D03*
Y-96501D02*
D03*
G54D84*
X198500Y225750D02*
D03*
X217500D02*
D03*
X208000Y248250D02*
D03*
X198500Y279750D02*
D03*
X217500D02*
D03*
X208000Y302250D02*
D03*
G54D85*
X19313Y-117001D02*
D03*
Y-135001D02*
D03*
G54D86*
X-94465Y-223535D02*
D03*
X-101536Y-216465D02*
D03*
M02*
