G04*
G04 #@! TF.GenerationSoftware,Altium Limited,Altium Designer,21.9.2 (33)*
G04*
G04 Layer_Color=65535*
%FSLAX44Y44*%
%MOMM*%
G71*
G04*
G04 #@! TF.SameCoordinates,A3E4C529-2CAB-4E9D-BAB0-B6F7E9640C35*
G04*
G04*
G04 #@! TF.FilePolarity,Positive*
G04*
G01*
G75*
%ADD10C,0.2000*%
%ADD11C,0.2500*%
%ADD12C,0.1000*%
%ADD13C,0.2540*%
%ADD14C,0.1000*%
%ADD15C,0.1500*%
%ADD16C,0.1270*%
%ADD17C,0.3000*%
%ADD18C,0.2560*%
%ADD19C,0.2032*%
%ADD20R,0.3300X0.7000*%
G36*
X-68349Y247648D02*
Y238352D01*
X-108651D01*
Y247648D01*
X-68349D01*
D02*
G37*
G36*
X187877Y-262000D02*
X152500D01*
Y-250844D01*
X187877D01*
Y-262000D01*
D02*
G37*
G36*
X-14505Y215623D02*
X-26494D01*
Y266377D01*
X-14505D01*
Y215623D01*
D02*
G37*
G36*
X-166852Y-298151D02*
X-176148D01*
Y-257849D01*
X-166852D01*
Y-298151D01*
D02*
G37*
G36*
X-14505Y274623D02*
X-26494D01*
Y316000D01*
X-14505D01*
Y274623D01*
D02*
G37*
G36*
X38494Y157377D02*
Y106623D01*
X26505D01*
Y157377D01*
X38494D01*
D02*
G37*
G36*
X-250332Y-242092D02*
X-250322Y-242157D01*
Y-242240D01*
X-250313Y-242333D01*
X-250295Y-242536D01*
Y-242546D01*
X-250285Y-242582D01*
X-250276Y-242638D01*
X-250258Y-242703D01*
X-250221Y-242851D01*
X-250202Y-242915D01*
X-250175Y-242980D01*
X-250165Y-242989D01*
X-250156Y-243008D01*
X-250138Y-243045D01*
X-250101Y-243082D01*
X-250027Y-243183D01*
X-249925Y-243267D01*
X-249916Y-243276D01*
X-249897Y-243285D01*
X-249860Y-243304D01*
X-249814Y-243322D01*
X-249749Y-243350D01*
X-249675Y-243368D01*
X-249592Y-243387D01*
X-249500Y-243396D01*
Y-244016D01*
X-254890D01*
Y-245236D01*
X-255500D01*
Y-242000D01*
X-254890D01*
Y-243248D01*
X-250877D01*
Y-242000D01*
X-250332D01*
Y-242092D01*
D02*
G37*
%LPC*%
G36*
X-102724Y246374D02*
X-105402D01*
X-105675Y246364D01*
X-105919Y246336D01*
X-106135Y246299D01*
X-106323Y246261D01*
X-106408Y246233D01*
X-106483Y246214D01*
X-106539Y246195D01*
X-106596Y246176D01*
X-106633Y246158D01*
X-106662Y246148D01*
X-106680Y246139D01*
X-106690D01*
X-106878Y246045D01*
X-107038Y245942D01*
X-107178Y245829D01*
X-107291Y245725D01*
X-107385Y245631D01*
X-107442Y245556D01*
X-107489Y245500D01*
X-107498Y245490D01*
Y245481D01*
X-107592Y245321D01*
X-107658Y245152D01*
X-107705Y244992D01*
X-107733Y244851D01*
X-107752Y244729D01*
X-107771Y244635D01*
Y244598D01*
Y244569D01*
Y244560D01*
Y244551D01*
X-107761Y244410D01*
X-107742Y244269D01*
X-107714Y244146D01*
X-107677Y244024D01*
X-107583Y243799D01*
X-107470Y243601D01*
X-107423Y243517D01*
X-107367Y243451D01*
X-107319Y243385D01*
X-107273Y243329D01*
X-107235Y243291D01*
X-107207Y243263D01*
X-107188Y243244D01*
X-107178Y243235D01*
X-107094Y243169D01*
X-106991Y243103D01*
X-106887Y243038D01*
X-106765Y242981D01*
X-106530Y242868D01*
X-106286Y242774D01*
X-106164Y242737D01*
X-106060Y242699D01*
X-105957Y242671D01*
X-105872Y242643D01*
X-105806Y242624D01*
X-105750Y242605D01*
X-105712Y242596D01*
X-105703D01*
X-105553Y242558D01*
X-105421Y242521D01*
X-105299Y242493D01*
X-105186Y242464D01*
X-105092Y242436D01*
X-105008Y242417D01*
X-104932Y242389D01*
X-104867Y242370D01*
X-104810Y242361D01*
X-104763Y242342D01*
X-104698Y242323D01*
X-104660Y242304D01*
X-104650D01*
X-104528Y242257D01*
X-104434Y242211D01*
X-104350Y242164D01*
X-104284Y242117D01*
X-104237Y242079D01*
X-104209Y242051D01*
X-104190Y242032D01*
X-104181Y242023D01*
X-104134Y241957D01*
X-104096Y241891D01*
X-104077Y241825D01*
X-104058Y241769D01*
X-104049Y241712D01*
X-104040Y241665D01*
Y241637D01*
Y241628D01*
X-104049Y241496D01*
X-104087Y241383D01*
X-104143Y241271D01*
X-104199Y241177D01*
X-104265Y241102D01*
X-104312Y241045D01*
X-104350Y241008D01*
X-104368Y240998D01*
X-104500Y240914D01*
X-104650Y240848D01*
X-104810Y240801D01*
X-104961Y240773D01*
X-105102Y240754D01*
X-105214Y240735D01*
X-105318D01*
X-105534Y240744D01*
X-105722Y240782D01*
X-105882Y240829D01*
X-106023Y240885D01*
X-106135Y240942D01*
X-106210Y240989D01*
X-106257Y241026D01*
X-106276Y241036D01*
X-106398Y241167D01*
X-106493Y241308D01*
X-106577Y241468D01*
X-106633Y241628D01*
X-106680Y241769D01*
X-106718Y241882D01*
X-106727Y241919D01*
Y241957D01*
X-106737Y241976D01*
Y241985D01*
X-108015Y241863D01*
X-107987Y241665D01*
X-107949Y241478D01*
X-107893Y241299D01*
X-107846Y241139D01*
X-107780Y240989D01*
X-107714Y240848D01*
X-107648Y240726D01*
X-107583Y240613D01*
X-107517Y240519D01*
X-107451Y240434D01*
X-107395Y240359D01*
X-107338Y240293D01*
X-107301Y240246D01*
X-107263Y240218D01*
X-107244Y240199D01*
X-107235Y240190D01*
X-107103Y240087D01*
X-106962Y240002D01*
X-106812Y239927D01*
X-106652Y239861D01*
X-106502Y239814D01*
X-106342Y239767D01*
X-106032Y239701D01*
X-105891Y239673D01*
X-105759Y239654D01*
X-105647Y239645D01*
X-105543Y239636D01*
X-105459Y239626D01*
X-105337D01*
X-105036Y239636D01*
X-104763Y239664D01*
X-104519Y239701D01*
X-104416Y239720D01*
X-104312Y239748D01*
X-104228Y239767D01*
X-104152Y239786D01*
X-104087Y239805D01*
X-104030Y239823D01*
X-103983Y239842D01*
X-103955Y239852D01*
X-103936Y239861D01*
X-103927D01*
X-103720Y239964D01*
X-103551Y240077D01*
X-103391Y240190D01*
X-103269Y240312D01*
X-103175Y240415D01*
X-103100Y240509D01*
X-103062Y240566D01*
X-103043Y240575D01*
Y240585D01*
X-102940Y240773D01*
X-102855Y240951D01*
X-102799Y241130D01*
X-102761Y241299D01*
X-102743Y241430D01*
X-102733Y241496D01*
X-102724Y241543D01*
Y239748D01*
Y241665D01*
Y241637D01*
X-102733Y241863D01*
X-102761Y242060D01*
X-102809Y242239D01*
X-102855Y242389D01*
X-102902Y242511D01*
X-102949Y242596D01*
X-102978Y242652D01*
X-102987Y242671D01*
X-103090Y242821D01*
X-103213Y242953D01*
X-103335Y243066D01*
X-103448Y243160D01*
X-103551Y243235D01*
X-103636Y243291D01*
X-103692Y243329D01*
X-103701Y243338D01*
X-103711D01*
X-103805Y243385D01*
X-103899Y243432D01*
X-104124Y243517D01*
X-104359Y243592D01*
X-104585Y243667D01*
X-104688Y243695D01*
X-104791Y243724D01*
X-104885Y243752D01*
X-104961Y243771D01*
X-105026Y243789D01*
X-105073Y243799D01*
X-105111Y243808D01*
X-105120D01*
X-105289Y243855D01*
X-105440Y243893D01*
X-105581Y243930D01*
X-105712Y243968D01*
X-105816Y244006D01*
X-105919Y244043D01*
X-106004Y244081D01*
X-106079Y244109D01*
X-106145Y244137D01*
X-106192Y244165D01*
X-106239Y244184D01*
X-106267Y244203D01*
X-106314Y244231D01*
X-106323Y244240D01*
X-106389Y244306D01*
X-106436Y244372D01*
X-106464Y244438D01*
X-106483Y244504D01*
X-106502Y244551D01*
X-106511Y244598D01*
Y244626D01*
Y244635D01*
X-106502Y244729D01*
X-106483Y244804D01*
X-106446Y244880D01*
X-106408Y244936D01*
X-106370Y244983D01*
X-106333Y245011D01*
X-106314Y245030D01*
X-106305Y245039D01*
X-106173Y245124D01*
X-106032Y245180D01*
X-105882Y245227D01*
X-105741Y245256D01*
X-105618Y245274D01*
X-105515Y245284D01*
X-105421D01*
X-105224Y245274D01*
X-105055Y245246D01*
X-104914Y245208D01*
X-104801Y245171D01*
X-104707Y245133D01*
X-104641Y245096D01*
X-104604Y245068D01*
X-104594Y245058D01*
X-104500Y244964D01*
X-104416Y244851D01*
X-104350Y244739D01*
X-104303Y244616D01*
X-104265Y244513D01*
X-104246Y244429D01*
X-104228Y244363D01*
Y244353D01*
Y244344D01*
X-102912Y244391D01*
X-102921Y244560D01*
X-102949Y244710D01*
X-102987Y244861D01*
X-103034Y244992D01*
X-103081Y245124D01*
X-103137Y245246D01*
X-103194Y245350D01*
X-103250Y245453D01*
X-103316Y245537D01*
X-103372Y245613D01*
X-103429Y245678D01*
X-103476Y245735D01*
X-103513Y245772D01*
X-103541Y245801D01*
X-103560Y245819D01*
X-103570Y245829D01*
X-103692Y245923D01*
X-103823Y246007D01*
X-103964Y246082D01*
X-104115Y246148D01*
X-104265Y246195D01*
X-104416Y246242D01*
X-104716Y246308D01*
X-104857Y246327D01*
X-104979Y246346D01*
X-105102Y246355D01*
X-105205Y246364D01*
X-105289Y246374D01*
X-102724D01*
D02*
G37*
G36*
X-76175Y246252D02*
X-78148D01*
X-79304Y241806D01*
X-80469Y246252D01*
X-82434D01*
Y239748D01*
X-76175D01*
Y246252D01*
D02*
G37*
G36*
X-83749D02*
X-85723D01*
X-86879Y241806D01*
X-88044Y246252D01*
X-90008D01*
Y239748D01*
X-83749D01*
Y246252D01*
D02*
G37*
G36*
X-96906D02*
X-102066D01*
Y245152D01*
X-100139D01*
Y239748D01*
X-98824D01*
Y245152D01*
X-96906D01*
Y240735D01*
Y246252D01*
D02*
G37*
G36*
X-71598D02*
X-72989D01*
X-75507Y239748D01*
D01*
X-68985D01*
D01*
X-71598Y246252D01*
D02*
G37*
G36*
X-91230D02*
X-96051D01*
Y239748D01*
X-91108D01*
Y240914D01*
Y240848D01*
X-94736D01*
Y242615D01*
X-91475D01*
Y243714D01*
X-94736D01*
Y245152D01*
X-91230D01*
Y246252D01*
D02*
G37*
%LPD*%
G36*
X-77387Y239748D02*
X-78674D01*
X-77396Y244861D01*
X-77387Y239748D01*
D02*
G37*
G36*
X-79943D02*
X-81221D01*
Y244861D01*
X-79943Y239748D01*
D02*
G37*
G36*
X-84962D02*
X-86249D01*
X-84971Y244861D01*
X-84962Y239748D01*
D02*
G37*
G36*
X-87518D02*
X-88796D01*
Y244861D01*
X-87518Y239748D01*
D02*
G37*
G36*
X-71391Y242323D02*
X-73186D01*
X-72302Y244739D01*
X-71391Y242323D01*
D02*
G37*
G36*
X-70404Y239748D02*
X-74116D01*
X-73581Y241224D01*
X-70968D01*
X-70404Y239748D01*
D02*
G37*
%LPC*%
G36*
X167853Y-252325D02*
D01*
X166603Y-253057D01*
Y-253997D01*
X166030D01*
Y-252325D01*
Y-258818D01*
X168812D01*
D01*
X167825D01*
X168022Y-258809D01*
X168210Y-258790D01*
X168379Y-258762D01*
X168521Y-258724D01*
X168643Y-258696D01*
X168737Y-258668D01*
X168793Y-258649D01*
X168802Y-258640D01*
X168812D01*
D01*
X168699Y-257672D01*
X168586Y-257710D01*
X168483Y-257738D01*
X168398Y-257757D01*
X168323Y-257766D01*
X168267Y-257775D01*
X168229Y-257785D01*
X168192D01*
X168107Y-257775D01*
X168041Y-257757D01*
X168004Y-257738D01*
X167985Y-257728D01*
X167928Y-257672D01*
X167900Y-257625D01*
X167881Y-257587D01*
X167872Y-257568D01*
Y-257550D01*
X167863Y-257512D01*
Y-257428D01*
Y-257315D01*
X167853Y-257202D01*
Y-257089D01*
Y-256995D01*
Y-256958D01*
Y-256929D01*
Y-256911D01*
Y-256901D01*
Y-254993D01*
X168708D01*
Y-253997D01*
X167853D01*
Y-252325D01*
D02*
G37*
G36*
X179892Y-253894D02*
X177599D01*
Y-258715D01*
X178849D01*
Y-257268D01*
Y-257052D01*
Y-256854D01*
X178858Y-256676D01*
X178868Y-256516D01*
Y-256366D01*
X178877Y-256243D01*
X178887Y-256121D01*
X178896Y-256027D01*
X178905Y-255943D01*
X178915Y-255868D01*
X178924Y-255811D01*
Y-255764D01*
X178934Y-255736D01*
X178943Y-255708D01*
Y-255689D01*
X178981Y-255557D01*
X179028Y-255445D01*
X179074Y-255351D01*
X179121Y-255285D01*
X179159Y-255228D01*
X179197Y-255191D01*
X179215Y-255172D01*
X179225Y-255163D01*
X179300Y-255116D01*
X179375Y-255078D01*
X179450Y-255050D01*
X179516Y-255031D01*
X179573Y-255022D01*
X179629Y-255012D01*
X179667D01*
X179770Y-255022D01*
X179873Y-255040D01*
X179967Y-255078D01*
X180061Y-255116D01*
X180136Y-255153D01*
X180193Y-255191D01*
X180240Y-255210D01*
X180249Y-255219D01*
X180644Y-254138D01*
X180494Y-254054D01*
X180353Y-253997D01*
X180212Y-253950D01*
X180080Y-253922D01*
X179977Y-253903D01*
X179892Y-253894D01*
D02*
G37*
G36*
X165579D02*
X161152D01*
Y-258818D01*
D01*
Y-257437D01*
X161162Y-257550D01*
X161171Y-257653D01*
X161218Y-257850D01*
X161284Y-258020D01*
X161359Y-258161D01*
X161434Y-258273D01*
X161500Y-258358D01*
X161547Y-258414D01*
X161566Y-258424D01*
Y-258433D01*
X161735Y-258565D01*
X161923Y-258659D01*
X162111Y-258724D01*
X162299Y-258771D01*
X162459Y-258800D01*
X162534Y-258809D01*
X162590D01*
X162647Y-258818D01*
X162712D01*
X162863Y-258809D01*
X163013Y-258790D01*
X163145Y-258771D01*
X163258Y-258743D01*
X163352Y-258715D01*
X163427Y-258687D01*
X163474Y-258678D01*
X163493Y-258668D01*
X163624Y-258602D01*
X163756Y-258536D01*
X163869Y-258452D01*
X163972Y-258377D01*
X164056Y-258311D01*
X164122Y-258255D01*
X164160Y-258217D01*
X164179Y-258208D01*
X164188Y-258245D01*
X164207Y-258292D01*
X164216Y-258330D01*
X164226Y-258339D01*
Y-258349D01*
X164254Y-258433D01*
X164273Y-258508D01*
X164291Y-258574D01*
X164310Y-258621D01*
X164329Y-258659D01*
X164338Y-258696D01*
X164348Y-258706D01*
Y-258715D01*
X165579D01*
D01*
X165522Y-258593D01*
X165476Y-258480D01*
X165438Y-258377D01*
X165400Y-258283D01*
X165382Y-258208D01*
X165363Y-258142D01*
X165353Y-258104D01*
Y-258095D01*
X165335Y-257973D01*
X165325Y-257822D01*
X165306Y-257672D01*
Y-257522D01*
X165297Y-257390D01*
Y-257277D01*
Y-257230D01*
Y-257202D01*
Y-257183D01*
Y-257174D01*
X165316Y-255717D01*
Y-255567D01*
X165306Y-255435D01*
X165297Y-255313D01*
X165288Y-255200D01*
X165278Y-255097D01*
X165259Y-255003D01*
X165250Y-254918D01*
X165231Y-254853D01*
X165212Y-254787D01*
X165203Y-254740D01*
X165175Y-254655D01*
X165156Y-254618D01*
X165147Y-254599D01*
X165071Y-254495D01*
X164987Y-254392D01*
X164893Y-254307D01*
X164790Y-254232D01*
X164705Y-254176D01*
X164630Y-254138D01*
X164583Y-254110D01*
X164573Y-254101D01*
X164564D01*
X164479Y-254063D01*
X164395Y-254035D01*
X164197Y-253979D01*
X163991Y-253941D01*
X163793Y-253922D01*
X163605Y-253903D01*
X163530D01*
X163464Y-253894D01*
X165579D01*
D02*
G37*
G36*
X157797Y-252212D02*
X154940D01*
Y-258715D01*
X157760D01*
X157920Y-258706D01*
X158202D01*
X158314Y-258696D01*
X158493D01*
X158559Y-258687D01*
X158653D01*
X158690Y-258678D01*
X158728D01*
X158916Y-258649D01*
X159085Y-258602D01*
X159235Y-258555D01*
X159367Y-258499D01*
X159470Y-258452D01*
X159545Y-258405D01*
X159592Y-258377D01*
X159611Y-258367D01*
X159743Y-258264D01*
X159846Y-258151D01*
X159950Y-258048D01*
X160025Y-257935D01*
X160091Y-257841D01*
X160138Y-257766D01*
X160166Y-257719D01*
X160175Y-257700D01*
X160241Y-257540D01*
X160297Y-257390D01*
X160335Y-257240D01*
X160354Y-257108D01*
X160372Y-256995D01*
X160382Y-256911D01*
Y-256835D01*
X160372Y-256629D01*
X160335Y-256441D01*
X160278Y-256281D01*
X160222Y-256131D01*
X160166Y-256018D01*
X160109Y-255933D01*
X160072Y-255877D01*
X160062Y-255858D01*
X159931Y-255708D01*
X159790Y-255586D01*
X159630Y-255482D01*
X159489Y-255407D01*
X159357Y-255341D01*
X159245Y-255294D01*
X159207Y-255285D01*
X159179Y-255275D01*
X159160Y-255266D01*
X159151D01*
X159301Y-255182D01*
X159433Y-255097D01*
X159545Y-254993D01*
X159639Y-254909D01*
X159705Y-254824D01*
X159762Y-254758D01*
X159799Y-254712D01*
X159809Y-254693D01*
X159893Y-254542D01*
X159959Y-254401D01*
X159997Y-254261D01*
X160034Y-254129D01*
X160053Y-254016D01*
X160062Y-253932D01*
Y-253875D01*
Y-253866D01*
Y-253856D01*
X160053Y-253706D01*
X160034Y-253556D01*
X159997Y-253433D01*
X159959Y-253321D01*
X159921Y-253227D01*
X159884Y-253151D01*
X159865Y-253114D01*
X159855Y-253095D01*
X159780Y-252973D01*
X159696Y-252869D01*
X159611Y-252776D01*
X159536Y-252691D01*
X159461Y-252635D01*
X159404Y-252588D01*
X159367Y-252559D01*
X159357Y-252550D01*
X159245Y-252475D01*
X159122Y-252418D01*
X159010Y-252372D01*
X158906Y-252334D01*
X158812Y-252306D01*
X158747Y-252287D01*
X158700Y-252278D01*
X158681D01*
X158521Y-252259D01*
X158343Y-252240D01*
X158154Y-252230D01*
X157966Y-252221D01*
X157797Y-252212D01*
D02*
G37*
G36*
X176631Y-253894D02*
X172233D01*
Y-258818D01*
D01*
Y-256394D01*
X172242Y-256572D01*
X172251Y-256751D01*
X172280Y-256911D01*
X172308Y-257061D01*
X172336Y-257211D01*
X172383Y-257343D01*
X172421Y-257465D01*
X172468Y-257578D01*
X172505Y-257681D01*
X172552Y-257766D01*
X172590Y-257841D01*
X172618Y-257907D01*
X172656Y-257954D01*
X172674Y-257992D01*
X172684Y-258010D01*
X172693Y-258020D01*
X172815Y-258161D01*
X172938Y-258283D01*
X173078Y-258386D01*
X173229Y-258480D01*
X173379Y-258555D01*
X173530Y-258621D01*
X173680Y-258678D01*
X173830Y-258715D01*
X173962Y-258753D01*
X174093Y-258771D01*
X174216Y-258790D01*
X174319Y-258809D01*
X174404D01*
X174460Y-258818D01*
X172233D01*
X174516D01*
X174789Y-258800D01*
X175043Y-258762D01*
X175259Y-258706D01*
X175447Y-258640D01*
X175531Y-258602D01*
X175597Y-258574D01*
X175663Y-258546D01*
X175710Y-258518D01*
X175748Y-258490D01*
X175785Y-258480D01*
X175795Y-258461D01*
X175804D01*
X175982Y-258311D01*
X176142Y-258151D01*
X176274Y-257973D01*
X176377Y-257803D01*
X176462Y-257653D01*
X176490Y-257587D01*
X176518Y-257531D01*
X176537Y-257484D01*
X176556Y-257446D01*
X176565Y-257428D01*
Y-257418D01*
X175325Y-257211D01*
X175278Y-257334D01*
X175231Y-257446D01*
X175184Y-257531D01*
X175127Y-257606D01*
X175090Y-257663D01*
X175052Y-257700D01*
X175024Y-257719D01*
X175014Y-257728D01*
X174939Y-257785D01*
X174855Y-257822D01*
X174770Y-257850D01*
X174695Y-257869D01*
X174629Y-257879D01*
X174573Y-257888D01*
X174526D01*
X174375Y-257879D01*
X174235Y-257841D01*
X174103Y-257794D01*
X174000Y-257738D01*
X173915Y-257681D01*
X173859Y-257634D01*
X173812Y-257597D01*
X173802Y-257587D01*
X173708Y-257465D01*
X173642Y-257324D01*
X173586Y-257174D01*
X173548Y-257042D01*
X173530Y-256911D01*
X173520Y-256817D01*
X173511Y-256779D01*
Y-256751D01*
Y-256732D01*
Y-256723D01*
X176631D01*
Y-256460D01*
X176612Y-256225D01*
X176584Y-255999D01*
X176546Y-255792D01*
X176499Y-255595D01*
X176452Y-255426D01*
X176396Y-255266D01*
X176340Y-255125D01*
X176283Y-255003D01*
X176227Y-254890D01*
X176180Y-254806D01*
X176133Y-254730D01*
X176095Y-254674D01*
X176067Y-254627D01*
X176048Y-254608D01*
X176039Y-254599D01*
X175926Y-254477D01*
X175795Y-254364D01*
X175663Y-254270D01*
X175531Y-254195D01*
X175390Y-254119D01*
X175250Y-254063D01*
X175118Y-254016D01*
X174986Y-253979D01*
X174864Y-253950D01*
X174751Y-253932D01*
X174648Y-253913D01*
X174563Y-253903D01*
X174488Y-253894D01*
X176631D01*
D02*
G37*
G36*
X171838Y-252325D02*
X169056D01*
Y-258818D01*
D01*
Y-254993D01*
X169629D01*
Y-257052D01*
Y-257174D01*
Y-257277D01*
Y-257381D01*
X169639Y-257465D01*
Y-257616D01*
X169648Y-257738D01*
X169658Y-257832D01*
Y-257888D01*
X169667Y-257926D01*
Y-257935D01*
X169686Y-258038D01*
X169714Y-258132D01*
X169742Y-258217D01*
X169770Y-258283D01*
X169799Y-258339D01*
X169817Y-258377D01*
X169827Y-258405D01*
X169836Y-258414D01*
X169893Y-258480D01*
X169958Y-258536D01*
X170090Y-258631D01*
X170146Y-258659D01*
X170193Y-258687D01*
X170231Y-258696D01*
X170240Y-258706D01*
X170344Y-258743D01*
X170447Y-258771D01*
X170550Y-258790D01*
X170644Y-258800D01*
X170729Y-258809D01*
X170795Y-258818D01*
X169056D01*
X170851D01*
X171049Y-258809D01*
X171236Y-258790D01*
X171406Y-258762D01*
X171547Y-258724D01*
X171669Y-258696D01*
X171763Y-258668D01*
X171819Y-258649D01*
X171829Y-258640D01*
X171838D01*
D01*
X171725Y-257672D01*
X171612Y-257710D01*
X171509Y-257738D01*
X171425Y-257757D01*
X171349Y-257766D01*
X171293Y-257775D01*
X171255Y-257785D01*
X171218D01*
X171133Y-257775D01*
X171067Y-257757D01*
X171030Y-257738D01*
X171011Y-257728D01*
X170955Y-257672D01*
X170926Y-257625D01*
X170908Y-257587D01*
X170898Y-257568D01*
Y-257550D01*
X170889Y-257512D01*
Y-257428D01*
Y-257315D01*
X170879Y-257202D01*
Y-257089D01*
Y-256995D01*
Y-256958D01*
Y-256929D01*
Y-256911D01*
Y-256901D01*
Y-254993D01*
X171735D01*
Y-253997D01*
X170879D01*
Y-252325D01*
X171838D01*
D02*
G37*
G36*
X185437Y-253997D02*
X180644D01*
X180597D01*
X182383Y-258724D01*
X182336Y-258866D01*
X182289Y-258988D01*
X182232Y-259100D01*
X182185Y-259194D01*
X182138Y-259270D01*
X182101Y-259326D01*
X182072Y-259364D01*
X182063Y-259373D01*
X181978Y-259457D01*
X181875Y-259523D01*
X181772Y-259570D01*
X181668Y-259599D01*
X181574Y-259617D01*
X181499Y-259636D01*
X181424D01*
X181245Y-259627D01*
X181151Y-259617D01*
X181076Y-259599D01*
X181001Y-259589D01*
X180945Y-259580D01*
X180907Y-259570D01*
X180898D01*
X181010Y-260548D01*
X181264Y-260595D01*
X181377Y-260613D01*
X181490Y-260623D01*
X181574D01*
X181649Y-260632D01*
X181838D01*
X181960Y-260623D01*
X182063Y-260604D01*
X182157Y-260585D01*
X182242Y-260576D01*
X182298Y-260557D01*
X182336Y-260548D01*
X182345D01*
X182448Y-260520D01*
X182542Y-260482D01*
X182617Y-260444D01*
X182683Y-260416D01*
X182740Y-260388D01*
X182777Y-260360D01*
X182806Y-260350D01*
X182815Y-260341D01*
X182956Y-260228D01*
X183059Y-260115D01*
X183097Y-260059D01*
X183125Y-260021D01*
X183144Y-259993D01*
X183153Y-259984D01*
X183210Y-259890D01*
X183266Y-259796D01*
X183322Y-259692D01*
X183369Y-259589D01*
X183407Y-259495D01*
X183444Y-259420D01*
X183463Y-259373D01*
X183473Y-259354D01*
X183773Y-258546D01*
X185437Y-253997D01*
D01*
D02*
G37*
G36*
X180597Y-258715D02*
D01*
Y-260632D01*
D01*
Y-258715D01*
D02*
G37*
%LPD*%
G36*
X166603Y-257052D02*
Y-257174D01*
Y-257277D01*
Y-257381D01*
X166613Y-257465D01*
Y-257616D01*
X166622Y-257738D01*
X166632Y-257832D01*
Y-257888D01*
X166641Y-257926D01*
Y-257935D01*
X166660Y-258038D01*
X166688Y-258132D01*
X166716Y-258217D01*
X166744Y-258283D01*
X166772Y-258339D01*
X166791Y-258377D01*
X166801Y-258405D01*
X166810Y-258414D01*
X166866Y-258480D01*
X166932Y-258536D01*
X167064Y-258631D01*
X167120Y-258659D01*
X167167Y-258687D01*
X167205Y-258696D01*
X167214Y-258706D01*
X167318Y-258743D01*
X167421Y-258771D01*
X167524Y-258790D01*
X167618Y-258800D01*
X167703Y-258809D01*
X167769Y-258818D01*
X166030D01*
Y-254993D01*
X166603D01*
Y-257052D01*
D02*
G37*
G36*
X179704Y-253903D02*
X179610Y-253913D01*
X179516Y-253941D01*
X179441Y-253969D01*
X179375Y-253997D01*
X179319Y-254016D01*
X179291Y-254035D01*
X179281Y-254044D01*
X179187Y-254110D01*
X179103Y-254204D01*
X179009Y-254307D01*
X178934Y-254411D01*
X178858Y-254514D01*
X178802Y-254599D01*
X178764Y-254655D01*
X178755Y-254665D01*
Y-253997D01*
X177599D01*
Y-253894D01*
X179817D01*
X179704Y-253903D01*
D02*
G37*
G36*
X163004Y-253913D02*
X162854Y-253922D01*
X162722Y-253950D01*
X162590Y-253969D01*
X162478Y-253997D01*
X162374Y-254035D01*
X162280Y-254063D01*
X162205Y-254091D01*
X162130Y-254129D01*
X162073Y-254157D01*
X162017Y-254176D01*
X161980Y-254204D01*
X161951Y-254214D01*
X161942Y-254232D01*
X161933D01*
X161773Y-254373D01*
X161641Y-254533D01*
X161528Y-254702D01*
X161434Y-254862D01*
X161369Y-255012D01*
X161340Y-255078D01*
X161322Y-255135D01*
X161303Y-255182D01*
X161293Y-255219D01*
X161284Y-255238D01*
Y-255247D01*
X162402Y-255454D01*
X162449Y-255341D01*
X162496Y-255247D01*
X162543Y-255163D01*
X162600Y-255097D01*
X162637Y-255050D01*
X162675Y-255022D01*
X162694Y-255003D01*
X162703Y-254993D01*
X162778Y-254946D01*
X162863Y-254909D01*
X162957Y-254890D01*
X163041Y-254871D01*
X163117Y-254862D01*
X163173Y-254853D01*
X163229D01*
X163399Y-254862D01*
X163540Y-254881D01*
X163652Y-254900D01*
X163746Y-254928D01*
X163812Y-254965D01*
X163859Y-254984D01*
X163887Y-255003D01*
X163897Y-255012D01*
X163962Y-255078D01*
X164009Y-255153D01*
X164038Y-255238D01*
X164066Y-255322D01*
X164075Y-255407D01*
X164085Y-255473D01*
Y-255510D01*
Y-255529D01*
Y-255651D01*
X164019Y-255679D01*
X163934Y-255708D01*
X163756Y-255764D01*
X163549Y-255811D01*
X163352Y-255858D01*
X163164Y-255905D01*
X163079Y-255924D01*
X163004Y-255933D01*
X162948Y-255943D01*
X162901Y-255952D01*
X162872Y-255961D01*
X162863D01*
X162637Y-256008D01*
X162431Y-256056D01*
X162261Y-256103D01*
X162120Y-256149D01*
X162008Y-256196D01*
X161933Y-256225D01*
X161886Y-256243D01*
X161867Y-256253D01*
X161744Y-256319D01*
X161641Y-256394D01*
X161547Y-256478D01*
X161481Y-256554D01*
X161416Y-256619D01*
X161378Y-256676D01*
X161350Y-256713D01*
X161340Y-256732D01*
X161275Y-256854D01*
X161228Y-256977D01*
X161199Y-257089D01*
X161181Y-257202D01*
X161162Y-257296D01*
X161152Y-257371D01*
Y-253894D01*
X163154D01*
X163004Y-253913D01*
D02*
G37*
G36*
X164085Y-256713D02*
Y-256864D01*
X164075Y-256995D01*
X164066Y-257099D01*
X164056Y-257183D01*
X164047Y-257240D01*
X164038Y-257287D01*
X164028Y-257305D01*
Y-257315D01*
X164000Y-257399D01*
X163953Y-257484D01*
X163906Y-257550D01*
X163859Y-257616D01*
X163812Y-257663D01*
X163775Y-257700D01*
X163746Y-257719D01*
X163737Y-257728D01*
X163624Y-257803D01*
X163502Y-257850D01*
X163399Y-257888D01*
X163295Y-257916D01*
X163211Y-257935D01*
X163145Y-257945D01*
X163088D01*
X162985Y-257935D01*
X162882Y-257916D01*
X162797Y-257888D01*
X162731Y-257850D01*
X162666Y-257813D01*
X162628Y-257785D01*
X162600Y-257766D01*
X162590Y-257757D01*
X162525Y-257681D01*
X162478Y-257606D01*
X162449Y-257531D01*
X162431Y-257456D01*
X162412Y-257399D01*
X162402Y-257352D01*
Y-257315D01*
Y-257305D01*
X162412Y-257211D01*
X162440Y-257127D01*
X162478Y-257052D01*
X162525Y-256986D01*
X162562Y-256939D01*
X162600Y-256901D01*
X162628Y-256882D01*
X162637Y-256873D01*
X162712Y-256835D01*
X162806Y-256789D01*
X162919Y-256751D01*
X163032Y-256723D01*
X163145Y-256695D01*
X163229Y-256676D01*
X163267Y-256666D01*
X163295Y-256657D01*
X163314D01*
X163502Y-256619D01*
X163652Y-256582D01*
X163793Y-256544D01*
X163897Y-256516D01*
X163981Y-256488D01*
X164038Y-256478D01*
X164075Y-256460D01*
X164085D01*
Y-256713D01*
D02*
G37*
G36*
X157666Y-253302D02*
X157910D01*
X157966Y-253311D01*
X158070D01*
X158108Y-253321D01*
X158117D01*
X158230Y-253339D01*
X158333Y-253368D01*
X158418Y-253405D01*
X158493Y-253443D01*
X158540Y-253480D01*
X158587Y-253518D01*
X158606Y-253537D01*
X158615Y-253546D01*
X158671Y-253621D01*
X158709Y-253706D01*
X158747Y-253781D01*
X158765Y-253856D01*
X158775Y-253932D01*
X158784Y-253988D01*
Y-254025D01*
Y-254035D01*
X158775Y-254148D01*
X158756Y-254251D01*
X158718Y-254336D01*
X158690Y-254411D01*
X158653Y-254477D01*
X158615Y-254514D01*
X158596Y-254542D01*
X158587Y-254552D01*
X158512Y-254618D01*
X158427Y-254665D01*
X158343Y-254702D01*
X158258Y-254730D01*
X158173Y-254758D01*
X158117Y-254768D01*
X158079Y-254777D01*
X158023D01*
X157966Y-254787D01*
X157675D01*
X157515Y-254796D01*
X156256D01*
Y-253293D01*
X157562D01*
X157666Y-253302D01*
D02*
G37*
G36*
X157750Y-255886D02*
X157863Y-255896D01*
X157976D01*
X158070Y-255905D01*
X158154Y-255914D01*
X158220Y-255924D01*
X158286Y-255933D01*
X158333Y-255943D01*
X158408Y-255952D01*
X158455Y-255971D01*
X158465D01*
X158559Y-256008D01*
X158643Y-256056D01*
X158718Y-256103D01*
X158775Y-256159D01*
X158822Y-256196D01*
X158850Y-256234D01*
X158869Y-256262D01*
X158878Y-256272D01*
X158925Y-256356D01*
X158963Y-256441D01*
X158991Y-256516D01*
X159010Y-256601D01*
X159019Y-256666D01*
X159029Y-256723D01*
Y-256760D01*
Y-256770D01*
X159019Y-256892D01*
X159000Y-257005D01*
X158972Y-257099D01*
X158934Y-257174D01*
X158897Y-257240D01*
X158869Y-257287D01*
X158850Y-257315D01*
X158841Y-257324D01*
X158765Y-257390D01*
X158690Y-257446D01*
X158606Y-257493D01*
X158530Y-257531D01*
X158465Y-257550D01*
X158408Y-257568D01*
X158371Y-257578D01*
X158361D01*
X158324Y-257587D01*
X158267D01*
X158145Y-257597D01*
X157995Y-257606D01*
X157844D01*
X157703Y-257616D01*
X156256D01*
Y-255877D01*
X157619D01*
X157750Y-255886D01*
D02*
G37*
G36*
X174601Y-254862D02*
X174723Y-254900D01*
X174836Y-254946D01*
X174930Y-254993D01*
X175005Y-255050D01*
X175061Y-255097D01*
X175099Y-255135D01*
X175109Y-255144D01*
X175193Y-255257D01*
X175268Y-255388D01*
X175315Y-255529D01*
X175353Y-255661D01*
X175372Y-255774D01*
X175381Y-255877D01*
X175390Y-255914D01*
Y-255933D01*
Y-255952D01*
Y-255961D01*
X173530D01*
X173539Y-255783D01*
X173567Y-255623D01*
X173605Y-255482D01*
X173661Y-255369D01*
X173708Y-255275D01*
X173755Y-255210D01*
X173783Y-255163D01*
X173793Y-255153D01*
X173896Y-255050D01*
X174009Y-254975D01*
X174122Y-254928D01*
X174225Y-254890D01*
X174319Y-254871D01*
X174394Y-254853D01*
X174460D01*
X174601Y-254862D01*
D02*
G37*
G36*
X174216Y-253903D02*
X174056Y-253922D01*
X173896Y-253960D01*
X173755Y-253997D01*
X173614Y-254044D01*
X173492Y-254101D01*
X173370Y-254167D01*
X173267Y-254223D01*
X173172Y-254289D01*
X173088Y-254354D01*
X173013Y-254411D01*
X172956Y-254458D01*
X172909Y-254495D01*
X172872Y-254533D01*
X172853Y-254552D01*
X172844Y-254561D01*
X172740Y-254693D01*
X172646Y-254834D01*
X172562Y-254975D01*
X172486Y-255125D01*
X172430Y-255285D01*
X172383Y-255435D01*
X172308Y-255727D01*
X172280Y-255868D01*
X172261Y-255990D01*
X172251Y-256103D01*
X172242Y-256196D01*
X172233Y-256281D01*
Y-253894D01*
X174385D01*
X174216Y-253903D01*
D02*
G37*
G36*
X169629Y-253057D02*
Y-253997D01*
X169056D01*
Y-252325D01*
X170879D01*
X169629Y-253057D01*
D02*
G37*
G36*
X183040Y-257352D02*
X181922Y-253997D01*
X184149D01*
X183040Y-257352D01*
D02*
G37*
%LPC*%
G36*
X-15622Y263083D02*
Y260207D01*
X-23728D01*
Y263083D01*
X-25377D01*
Y255344D01*
X-15622D01*
Y263083D01*
D02*
G37*
G36*
Y254357D02*
X-25377D01*
X-17272D01*
Y248916D01*
X-19922D01*
Y253807D01*
X-21571D01*
Y248916D01*
X-23728D01*
Y254174D01*
X-25377D01*
Y246942D01*
X-15622D01*
Y254357D01*
D02*
G37*
G36*
X-18315Y245264D02*
X-25561D01*
X-18456D01*
X-18794Y245250D01*
X-19090Y245208D01*
X-19358Y245138D01*
X-19584Y245067D01*
X-19767Y244996D01*
X-19894Y244926D01*
X-19978Y244884D01*
X-20006Y244870D01*
X-20232Y244715D01*
X-20429Y244531D01*
X-20598Y244348D01*
X-20740Y244179D01*
X-20852Y244024D01*
X-20937Y243897D01*
X-20993Y243812D01*
X-21007Y243798D01*
Y243784D01*
X-21078Y243643D01*
X-21148Y243502D01*
X-21275Y243164D01*
X-21388Y242812D01*
X-21501Y242473D01*
X-21543Y242318D01*
X-21585Y242163D01*
X-21628Y242022D01*
X-21656Y241909D01*
X-21684Y241811D01*
X-21698Y241740D01*
X-21712Y241684D01*
Y241670D01*
X-21783Y241416D01*
X-21839Y241190D01*
X-21895Y240979D01*
X-21952Y240781D01*
X-22008Y240626D01*
X-22065Y240471D01*
X-22121Y240345D01*
X-22163Y240232D01*
X-22206Y240133D01*
X-22248Y240063D01*
X-22276Y239992D01*
X-22304Y239950D01*
X-22347Y239879D01*
X-22361Y239865D01*
X-22459Y239767D01*
X-22558Y239696D01*
X-22657Y239654D01*
X-22755Y239625D01*
X-22826Y239597D01*
X-22896Y239583D01*
X-22939D01*
X-22953D01*
X-23094Y239597D01*
X-23207Y239625D01*
X-23319Y239682D01*
X-23404Y239738D01*
X-23474Y239795D01*
X-23517Y239851D01*
X-23545Y239879D01*
X-23559Y239893D01*
X-23686Y240091D01*
X-23770Y240302D01*
X-23841Y240528D01*
X-23883Y240739D01*
X-23911Y240923D01*
X-23925Y241077D01*
Y241218D01*
X-23911Y241514D01*
X-23869Y241768D01*
X-23813Y241980D01*
X-23756Y242149D01*
X-23700Y242290D01*
X-23644Y242388D01*
X-23601Y242445D01*
X-23587Y242459D01*
X-23446Y242600D01*
X-23277Y242727D01*
X-23108Y242826D01*
X-22924Y242896D01*
X-22769Y242952D01*
X-22643Y242981D01*
X-22544Y243009D01*
X-22530D01*
X-22516D01*
X-22586Y244982D01*
X-22840Y244968D01*
X-23066Y244926D01*
X-23291Y244870D01*
X-23488Y244799D01*
X-23686Y244729D01*
X-23869Y244644D01*
X-24024Y244559D01*
X-24179Y244475D01*
X-24306Y244376D01*
X-24419Y244292D01*
X-24518Y244207D01*
X-24602Y244137D01*
X-24659Y244080D01*
X-24701Y244038D01*
X-24729Y244010D01*
X-24743Y243996D01*
X-24884Y243812D01*
X-25011Y243615D01*
X-25124Y243403D01*
X-25222Y243178D01*
X-25293Y242952D01*
X-25363Y242727D01*
X-25462Y242276D01*
X-25490Y242064D01*
X-25518Y241881D01*
X-25533Y241698D01*
X-25547Y241543D01*
X-25561Y241416D01*
Y241543D01*
Y237328D01*
Y241247D01*
X-25547Y240838D01*
X-25504Y240471D01*
X-25448Y240147D01*
X-25391Y239865D01*
X-25349Y239738D01*
X-25321Y239625D01*
X-25293Y239541D01*
X-25265Y239456D01*
X-25236Y239400D01*
X-25222Y239358D01*
X-25208Y239329D01*
Y239315D01*
X-25067Y239034D01*
X-24912Y238794D01*
X-24743Y238582D01*
X-24588Y238413D01*
X-24447Y238272D01*
X-24334Y238188D01*
X-24250Y238117D01*
X-24236Y238103D01*
X-24221D01*
X-23982Y237962D01*
X-23728Y237863D01*
X-23488Y237793D01*
X-23277Y237751D01*
X-23094Y237722D01*
X-22953Y237694D01*
X-22896D01*
X-22854D01*
X-22840D01*
X-22826D01*
X-22614Y237708D01*
X-22403Y237736D01*
X-22220Y237779D01*
X-22036Y237835D01*
X-21698Y237976D01*
X-21402Y238145D01*
X-21275Y238216D01*
X-21177Y238300D01*
X-21078Y238371D01*
X-20993Y238441D01*
X-20937Y238498D01*
X-20895Y238540D01*
X-20866Y238568D01*
X-20852Y238582D01*
X-20754Y238709D01*
X-20655Y238864D01*
X-20556Y239019D01*
X-20472Y239203D01*
X-20303Y239555D01*
X-20161Y239922D01*
X-20105Y240105D01*
X-20049Y240260D01*
X-20006Y240415D01*
X-19964Y240542D01*
X-19936Y240641D01*
X-19908Y240725D01*
X-19894Y240781D01*
Y240796D01*
X-19837Y241021D01*
X-19781Y241218D01*
X-19739Y241402D01*
X-19696Y241571D01*
X-19654Y241712D01*
X-19626Y241839D01*
X-19584Y241952D01*
X-19555Y242050D01*
X-19541Y242135D01*
X-19513Y242205D01*
X-19485Y242304D01*
X-19457Y242360D01*
Y242374D01*
X-19386Y242558D01*
X-19316Y242699D01*
X-19245Y242826D01*
X-19175Y242924D01*
X-19118Y242995D01*
X-19076Y243037D01*
X-19048Y243065D01*
X-19034Y243079D01*
X-18935Y243150D01*
X-18836Y243206D01*
X-18738Y243234D01*
X-18653Y243263D01*
X-18569Y243277D01*
X-18498Y243291D01*
X-18456D01*
X-18442D01*
X-18244Y243277D01*
X-18075Y243220D01*
X-17906Y243136D01*
X-17765Y243051D01*
X-17652Y242952D01*
X-17568Y242882D01*
X-17511Y242826D01*
X-17497Y242797D01*
X-17370Y242600D01*
X-17272Y242374D01*
X-17201Y242135D01*
X-17159Y241909D01*
X-17131Y241698D01*
X-17103Y241529D01*
Y241374D01*
X-17117Y241049D01*
X-17173Y240767D01*
X-17243Y240528D01*
X-17328Y240316D01*
X-17413Y240147D01*
X-17483Y240034D01*
X-17539Y239964D01*
X-17554Y239936D01*
X-17751Y239752D01*
X-17962Y239611D01*
X-18202Y239485D01*
X-18442Y239400D01*
X-18653Y239329D01*
X-18822Y239273D01*
X-18879Y239259D01*
X-18935D01*
X-18963Y239245D01*
X-18977D01*
X-18794Y237328D01*
X-18498Y237370D01*
X-18216Y237426D01*
X-17948Y237511D01*
X-17709Y237582D01*
X-17483Y237680D01*
X-17272Y237779D01*
X-17088Y237878D01*
X-16919Y237976D01*
X-16778Y238075D01*
X-16651Y238174D01*
X-16539Y238258D01*
X-16440Y238343D01*
X-16369Y238399D01*
X-16327Y238456D01*
X-16299Y238484D01*
X-16285Y238498D01*
X-16130Y238695D01*
X-16003Y238907D01*
X-15890Y239132D01*
X-15791Y239372D01*
X-15721Y239597D01*
X-15651Y239837D01*
X-15552Y240302D01*
X-15510Y240514D01*
X-15481Y240711D01*
X-15467Y240880D01*
X-15453Y241035D01*
X-15439Y241162D01*
Y241345D01*
X-15453Y241796D01*
X-15495Y242205D01*
X-15552Y242572D01*
X-15580Y242727D01*
X-15622Y242882D01*
X-15651Y243009D01*
X-15679Y243122D01*
X-15707Y243220D01*
X-15735Y243305D01*
X-15763Y243375D01*
X-15777Y243418D01*
X-15791Y243446D01*
Y243460D01*
X-15947Y243770D01*
X-16116Y244024D01*
X-16285Y244263D01*
X-16468Y244447D01*
X-16623Y244588D01*
X-16764Y244701D01*
X-16849Y244757D01*
X-16863Y244785D01*
X-16877D01*
X-17159Y244940D01*
X-17427Y245067D01*
X-17695Y245152D01*
X-17948Y245208D01*
X-18146Y245236D01*
X-18244Y245250D01*
X-18315Y245264D01*
D02*
G37*
G36*
X-15622Y236172D02*
X-25377D01*
Y228757D01*
X-15622D01*
Y236172D01*
D02*
G37*
G36*
Y227685D02*
X-17525Y226487D01*
X-17723Y226360D01*
X-17920Y226233D01*
X-18089Y226121D01*
X-18244Y226008D01*
X-18385Y225909D01*
X-18526Y225825D01*
X-18738Y225655D01*
X-18907Y225529D01*
X-19020Y225444D01*
X-19090Y225373D01*
X-19104Y225359D01*
X-19273Y225204D01*
X-19428Y225021D01*
X-19555Y224852D01*
X-19682Y224683D01*
X-19781Y224542D01*
X-19851Y224429D01*
X-19908Y224344D01*
X-19922Y224330D01*
Y224316D01*
X-19964Y224556D01*
X-20021Y224767D01*
X-20077Y224965D01*
X-20147Y225162D01*
X-20218Y225331D01*
X-20288Y225486D01*
X-20359Y225641D01*
X-20443Y225768D01*
X-20514Y225881D01*
X-20584Y225980D01*
X-20655Y226064D01*
X-20711Y226121D01*
X-20754Y226177D01*
X-20796Y226219D01*
X-20810Y226233D01*
X-20824Y226248D01*
X-20965Y226360D01*
X-21106Y226459D01*
X-21416Y226628D01*
X-21712Y226741D01*
X-22008Y226811D01*
X-22262Y226868D01*
X-22361Y226882D01*
X-22459D01*
X-22530Y226896D01*
X-22600D01*
X-22629D01*
X-22643D01*
X-22953Y226882D01*
X-23249Y226826D01*
X-23503Y226755D01*
X-23728Y226684D01*
X-23911Y226600D01*
X-24052Y226529D01*
X-24095Y226501D01*
X-24137Y226473D01*
X-24151Y226459D01*
X-24165D01*
X-24405Y226290D01*
X-24602Y226106D01*
X-24757Y225923D01*
X-24898Y225740D01*
X-24983Y225571D01*
X-25053Y225444D01*
X-25096Y225359D01*
X-25110Y225345D01*
Y225331D01*
X-25152Y225190D01*
X-25194Y225035D01*
X-25265Y224683D01*
X-25307Y224302D01*
X-25349Y223936D01*
Y223752D01*
X-25363Y223597D01*
Y223442D01*
X-25377Y223315D01*
Y218917D01*
X-15622D01*
Y220891D01*
X-19696D01*
Y221525D01*
X-19682Y221722D01*
X-19668Y221891D01*
X-19640Y222033D01*
X-19626Y222145D01*
X-19598Y222216D01*
X-19584Y222258D01*
Y222272D01*
X-19527Y222385D01*
X-19471Y222498D01*
X-19400Y222596D01*
X-19344Y222695D01*
X-19273Y222766D01*
X-19217Y222822D01*
X-19189Y222850D01*
X-19175Y222864D01*
X-19104Y222921D01*
X-19034Y222991D01*
X-18822Y223146D01*
X-18597Y223315D01*
X-18343Y223499D01*
X-18118Y223654D01*
X-18005Y223724D01*
X-17920Y223780D01*
X-17850Y223837D01*
X-17793Y223879D01*
X-17751Y223893D01*
X-17737Y223907D01*
X-15622Y225317D01*
Y225190D01*
Y227685D01*
D02*
G37*
%LPD*%
G36*
Y255344D02*
X-23728D01*
Y258234D01*
X-15622D01*
Y255344D01*
D02*
G37*
G36*
X-17272Y230730D02*
X-19922D01*
Y235622D01*
X-21571D01*
Y230730D01*
X-23728D01*
Y235989D01*
X-25377D01*
Y236172D01*
X-17272D01*
Y230730D01*
D02*
G37*
G36*
X-22347Y224852D02*
X-22206Y224838D01*
X-22079Y224795D01*
X-21966Y224767D01*
X-21881Y224725D01*
X-21825Y224683D01*
X-21783Y224669D01*
X-21769Y224655D01*
X-21670Y224570D01*
X-21585Y224485D01*
X-21458Y224302D01*
X-21416Y224232D01*
X-21388Y224161D01*
X-21360Y224119D01*
Y224105D01*
X-21346Y224034D01*
X-21318Y223922D01*
X-21303Y223809D01*
X-21289Y223682D01*
X-21275Y223386D01*
X-21261Y223090D01*
X-21247Y222808D01*
Y220891D01*
X-23728D01*
Y223146D01*
X-23714Y223273D01*
Y223583D01*
X-23700Y223710D01*
Y223795D01*
X-23686Y223837D01*
Y223851D01*
X-23644Y224020D01*
X-23587Y224175D01*
X-23531Y224302D01*
X-23460Y224401D01*
X-23390Y224485D01*
X-23347Y224556D01*
X-23305Y224584D01*
X-23291Y224598D01*
X-23178Y224683D01*
X-23037Y224753D01*
X-22910Y224795D01*
X-22784Y224838D01*
X-22671Y224852D01*
X-22586Y224866D01*
X-22530D01*
X-22502D01*
X-22347Y224852D01*
D02*
G37*
%LPC*%
G36*
X-168248Y-262033D02*
X-174752D01*
D01*
X-169348D01*
Y-265660D01*
X-171115D01*
Y-262399D01*
X-172214D01*
Y-265660D01*
X-173652D01*
Y-262155D01*
X-174752D01*
Y-266976D01*
X-168248D01*
Y-262033D01*
D02*
G37*
G36*
Y-267643D02*
X-174752D01*
Y-269044D01*
X-169940Y-270632D01*
X-174752Y-272286D01*
Y-273705D01*
D01*
X-168248Y-271374D01*
Y-269955D01*
X-174752Y-267643D01*
X-168248D01*
D02*
G37*
G36*
X-168126Y-274072D02*
D01*
Y-277220D01*
X-168136Y-276957D01*
X-168164Y-276712D01*
X-168211Y-276477D01*
X-168267Y-276261D01*
X-168333Y-276054D01*
X-168408Y-275867D01*
X-168483Y-275697D01*
X-168568Y-275538D01*
X-168652Y-275406D01*
X-168728Y-275284D01*
X-168803Y-275180D01*
X-168869Y-275096D01*
X-168925Y-275021D01*
X-168972Y-274974D01*
X-169000Y-274946D01*
X-169010Y-274936D01*
X-169188Y-274786D01*
X-169376Y-274654D01*
X-169573Y-274532D01*
X-169771Y-274438D01*
X-169978Y-274354D01*
X-170184Y-274278D01*
X-170391Y-274222D01*
X-170588Y-274175D01*
X-170767Y-274147D01*
X-170946Y-274118D01*
X-171096Y-274100D01*
X-171227Y-274081D01*
X-171340D01*
X-171425Y-274072D01*
X-174874D01*
X-171491D01*
X-171782Y-274081D01*
X-172055Y-274109D01*
X-172308Y-274147D01*
X-172553Y-274203D01*
X-172769Y-274269D01*
X-172976Y-274344D01*
X-173164Y-274419D01*
X-173323Y-274504D01*
X-173474Y-274588D01*
X-173605Y-274664D01*
X-173718Y-274739D01*
X-173812Y-274805D01*
X-173878Y-274852D01*
X-173934Y-274899D01*
X-173962Y-274927D01*
X-173972Y-274936D01*
X-174132Y-275105D01*
X-174272Y-275284D01*
X-174395Y-275472D01*
X-174498Y-275660D01*
X-174583Y-275857D01*
X-174658Y-276045D01*
X-174714Y-276233D01*
X-174761Y-276412D01*
X-174799Y-276581D01*
X-174827Y-276741D01*
X-174846Y-276882D01*
X-174865Y-277004D01*
Y-277098D01*
X-174874Y-277173D01*
Y-277239D01*
X-174865Y-277521D01*
X-174836Y-277793D01*
X-174789Y-278028D01*
X-174742Y-278235D01*
X-174714Y-278319D01*
X-174695Y-278404D01*
X-174677Y-278470D01*
X-174648Y-278526D01*
X-174639Y-278573D01*
X-174620Y-278611D01*
X-174611Y-278630D01*
Y-278639D01*
X-174536Y-278808D01*
X-174442Y-278968D01*
X-174338Y-279109D01*
X-174244Y-279231D01*
X-174160Y-279334D01*
X-174084Y-279419D01*
X-174037Y-279466D01*
X-174028Y-279475D01*
X-174019Y-279485D01*
X-173868Y-279616D01*
X-173709Y-279739D01*
X-173568Y-279842D01*
X-173427Y-279926D01*
X-173305Y-279992D01*
X-173211Y-280049D01*
X-173173Y-280058D01*
X-173145Y-280077D01*
X-173135Y-280086D01*
X-173126D01*
X-172863Y-280180D01*
X-172581Y-280255D01*
X-172299Y-280302D01*
X-172036Y-280340D01*
X-171914Y-280349D01*
X-171801Y-280359D01*
X-171707Y-280368D01*
X-171622D01*
X-171547Y-280378D01*
X-171453D01*
X-171171Y-280368D01*
X-170899Y-280340D01*
X-170645Y-280302D01*
X-170410Y-280246D01*
X-170194Y-280180D01*
X-169996Y-280105D01*
X-169808Y-280030D01*
X-169649Y-279945D01*
X-169498Y-279870D01*
X-169376Y-279795D01*
X-169263Y-279720D01*
X-169169Y-279654D01*
X-169104Y-279598D01*
X-169047Y-279560D01*
X-169019Y-279532D01*
X-169010Y-279522D01*
X-168850Y-279353D01*
X-168718Y-279175D01*
X-168596Y-278996D01*
X-168502Y-278799D01*
X-168417Y-278611D01*
X-168342Y-278413D01*
X-168286Y-278235D01*
X-168239Y-278047D01*
X-168201Y-277878D01*
X-168173Y-277718D01*
X-168154Y-277577D01*
X-168145Y-277455D01*
X-168136Y-277361D01*
X-168126Y-277286D01*
Y-279945D01*
Y-274072D01*
D02*
G37*
G36*
X-168248Y-280819D02*
X-174752D01*
D01*
X-168248D01*
D02*
G37*
G36*
D02*
D01*
X-169517Y-281618D01*
X-169649Y-281703D01*
X-169780Y-281787D01*
X-169893Y-281863D01*
X-169996Y-281938D01*
X-170090Y-282003D01*
X-170184Y-282060D01*
X-170325Y-282173D01*
X-170438Y-282257D01*
X-170513Y-282314D01*
X-170560Y-282361D01*
X-170570Y-282370D01*
X-170682Y-282473D01*
X-170786Y-282596D01*
X-170870Y-282708D01*
X-170955Y-282821D01*
X-171021Y-282915D01*
X-171068Y-282990D01*
X-171105Y-283047D01*
X-171115Y-283056D01*
Y-283065D01*
X-171143Y-282906D01*
X-171180Y-282765D01*
X-171218Y-282633D01*
X-171265Y-282502D01*
X-171312Y-282389D01*
X-171359Y-282285D01*
X-171406Y-282182D01*
X-171462Y-282097D01*
X-171509Y-282022D01*
X-171556Y-281957D01*
X-171603Y-281900D01*
X-171641Y-281863D01*
X-171669Y-281825D01*
X-171697Y-281797D01*
X-171707Y-281787D01*
X-171716Y-281778D01*
X-171810Y-281703D01*
X-171904Y-281637D01*
X-172111Y-281524D01*
X-172308Y-281449D01*
X-172506Y-281402D01*
X-172675Y-281364D01*
X-172741Y-281355D01*
X-172806D01*
X-172853Y-281346D01*
X-172900D01*
X-172919D01*
X-172929D01*
X-173135Y-281355D01*
X-173333Y-281393D01*
X-173502Y-281440D01*
X-173652Y-281487D01*
X-173774Y-281543D01*
X-173868Y-281590D01*
X-173897Y-281609D01*
X-173925Y-281628D01*
X-173934Y-281637D01*
X-173944D01*
X-174103Y-281750D01*
X-174235Y-281872D01*
X-174338Y-281994D01*
X-174432Y-282116D01*
X-174489Y-282229D01*
X-174536Y-282314D01*
X-174564Y-282370D01*
X-174573Y-282379D01*
Y-282389D01*
X-174601Y-282483D01*
X-174630Y-282586D01*
X-174677Y-282821D01*
X-174705Y-283075D01*
X-174733Y-283319D01*
Y-283441D01*
X-174742Y-283545D01*
Y-283648D01*
X-174752Y-283733D01*
Y-286665D01*
X-168248D01*
Y-280819D01*
D02*
G37*
G36*
X-168126Y-287887D02*
D01*
Y-290668D01*
X-168136Y-290368D01*
X-168173Y-290086D01*
X-168220Y-289813D01*
X-168277Y-289578D01*
X-168305Y-289475D01*
X-168333Y-289381D01*
X-168361Y-289296D01*
X-168380Y-289221D01*
X-168399Y-289165D01*
X-168417Y-289127D01*
X-168427Y-289099D01*
Y-289090D01*
X-168540Y-288808D01*
X-168662Y-288573D01*
X-168784Y-288366D01*
X-168887Y-288187D01*
X-168981Y-288056D01*
X-169019Y-288009D01*
X-169057Y-287962D01*
X-169085Y-287934D01*
X-169104Y-287905D01*
X-169122Y-287887D01*
X-168126D01*
X-174874D01*
X-171735D01*
Y-290715D01*
X-170635D01*
Y-289212D01*
X-169799D01*
X-169714Y-289324D01*
X-169639Y-289447D01*
X-169573Y-289569D01*
X-169517Y-289682D01*
X-169470Y-289776D01*
X-169433Y-289860D01*
X-169414Y-289907D01*
X-169404Y-289917D01*
Y-289926D01*
X-169348Y-290076D01*
X-169310Y-290227D01*
X-169282Y-290368D01*
X-169263Y-290490D01*
X-169254Y-290603D01*
X-169244Y-290678D01*
Y-290753D01*
X-169254Y-290903D01*
X-169273Y-291054D01*
X-169301Y-291185D01*
X-169338Y-291317D01*
X-169433Y-291552D01*
X-169480Y-291646D01*
X-169536Y-291740D01*
X-169592Y-291824D01*
X-169639Y-291900D01*
X-169696Y-291956D01*
X-169733Y-292012D01*
X-169771Y-292050D01*
X-169799Y-292078D01*
X-169818Y-292097D01*
X-169827Y-292106D01*
X-169940Y-292191D01*
X-170072Y-292276D01*
X-170203Y-292341D01*
X-170344Y-292398D01*
X-170635Y-292492D01*
X-170917Y-292548D01*
X-171049Y-292567D01*
X-171180Y-292586D01*
X-171284Y-292595D01*
X-171387Y-292604D01*
X-171462Y-292614D01*
X-171528D01*
X-171566D01*
X-171575D01*
X-171773Y-292604D01*
X-171951Y-292595D01*
X-172130Y-292567D01*
X-172290Y-292539D01*
X-172430Y-292501D01*
X-172562Y-292454D01*
X-172684Y-292407D01*
X-172797Y-292360D01*
X-172891Y-292323D01*
X-172976Y-292276D01*
X-173041Y-292229D01*
X-173098Y-292191D01*
X-173145Y-292163D01*
X-173173Y-292134D01*
X-173192Y-292125D01*
X-173201Y-292116D01*
X-173295Y-292012D01*
X-173389Y-291909D01*
X-173455Y-291796D01*
X-173521Y-291683D01*
X-173577Y-291571D01*
X-173624Y-291458D01*
X-173690Y-291242D01*
X-173709Y-291138D01*
X-173727Y-291044D01*
X-173737Y-290960D01*
X-173746Y-290885D01*
X-173756Y-290828D01*
Y-290744D01*
X-173746Y-290537D01*
X-173709Y-290358D01*
X-173671Y-290198D01*
X-173615Y-290058D01*
X-173568Y-289954D01*
X-173521Y-289870D01*
X-173483Y-289823D01*
X-173474Y-289804D01*
X-173361Y-289672D01*
X-173239Y-289559D01*
X-173116Y-289466D01*
X-172994Y-289400D01*
X-172882Y-289343D01*
X-172797Y-289306D01*
X-172741Y-289287D01*
X-172731Y-289277D01*
X-172722D01*
X-172966Y-287971D01*
X-173126Y-288009D01*
X-173286Y-288065D01*
X-173427Y-288121D01*
X-173558Y-288197D01*
X-173690Y-288263D01*
X-173803Y-288338D01*
X-173906Y-288413D01*
X-174000Y-288488D01*
X-174084Y-288563D01*
X-174160Y-288629D01*
X-174226Y-288685D01*
X-174272Y-288742D01*
X-174310Y-288789D01*
X-174348Y-288826D01*
X-174357Y-288845D01*
X-174366Y-288855D01*
X-174460Y-288986D01*
X-174536Y-289127D01*
X-174601Y-289277D01*
X-174658Y-289437D01*
X-174752Y-289747D01*
X-174808Y-290048D01*
X-174836Y-290189D01*
X-174846Y-290321D01*
X-174855Y-290443D01*
X-174865Y-290546D01*
X-174874Y-290631D01*
Y-290744D01*
X-174865Y-291082D01*
X-174827Y-291383D01*
X-174799Y-291514D01*
X-174771Y-291646D01*
X-174742Y-291768D01*
X-174714Y-291871D01*
X-174677Y-291965D01*
X-174648Y-292059D01*
X-174620Y-292125D01*
X-174601Y-292191D01*
X-174573Y-292238D01*
X-174564Y-292276D01*
X-174545Y-292294D01*
Y-292304D01*
X-174376Y-292595D01*
X-174272Y-292717D01*
X-174179Y-292839D01*
X-174075Y-292952D01*
X-173972Y-293055D01*
X-173868Y-293150D01*
X-173774Y-293234D01*
X-173680Y-293300D01*
X-173596Y-293366D01*
X-173521Y-293422D01*
X-173455Y-293469D01*
X-173398Y-293497D01*
X-173361Y-293525D01*
X-173333Y-293535D01*
X-173323Y-293544D01*
X-173173Y-293619D01*
X-173022Y-293685D01*
X-172712Y-293789D01*
X-172402Y-293864D01*
X-172130Y-293911D01*
X-171998Y-293930D01*
X-171885Y-293948D01*
X-171782Y-293958D01*
X-171688D01*
X-171622Y-293967D01*
X-171519D01*
X-171171Y-293948D01*
X-170852Y-293911D01*
X-170560Y-293845D01*
X-170419Y-293817D01*
X-170297Y-293779D01*
X-170184Y-293742D01*
X-170081Y-293713D01*
X-169996Y-293676D01*
X-169921Y-293648D01*
X-169865Y-293629D01*
X-169818Y-293610D01*
X-169790Y-293591D01*
X-169780D01*
X-169498Y-293431D01*
X-169254Y-293253D01*
X-169038Y-293065D01*
X-168869Y-292877D01*
X-168793Y-292792D01*
X-168728Y-292708D01*
X-168671Y-292642D01*
X-168634Y-292576D01*
X-168596Y-292529D01*
X-168568Y-292482D01*
X-168559Y-292463D01*
X-168549Y-292454D01*
X-168474Y-292304D01*
X-168408Y-292163D01*
X-168305Y-291853D01*
X-168230Y-291552D01*
X-168183Y-291279D01*
X-168164Y-291148D01*
X-168145Y-291035D01*
X-168136Y-290931D01*
Y-290838D01*
X-168126Y-290772D01*
Y-287887D01*
D02*
G37*
%LPD*%
G36*
X-171312Y-275434D02*
X-171115Y-275444D01*
X-170936Y-275472D01*
X-170776Y-275500D01*
X-170617Y-275538D01*
X-170476Y-275585D01*
X-170354Y-275632D01*
X-170241Y-275679D01*
X-170137Y-275726D01*
X-170053Y-275773D01*
X-169978Y-275810D01*
X-169912Y-275857D01*
X-169865Y-275885D01*
X-169837Y-275914D01*
X-169818Y-275923D01*
X-169808Y-275932D01*
X-169705Y-276026D01*
X-169620Y-276130D01*
X-169545Y-276243D01*
X-169480Y-276346D01*
X-169433Y-276459D01*
X-169386Y-276562D01*
X-169320Y-276769D01*
X-169273Y-276947D01*
X-169263Y-277022D01*
X-169254Y-277088D01*
X-169244Y-277145D01*
Y-277220D01*
X-169254Y-277361D01*
X-169273Y-277502D01*
X-169301Y-277633D01*
X-169338Y-277756D01*
X-169423Y-277981D01*
X-169536Y-278160D01*
X-169583Y-278244D01*
X-169639Y-278310D01*
X-169686Y-278376D01*
X-169733Y-278423D01*
X-169761Y-278460D01*
X-169790Y-278489D01*
X-169808Y-278507D01*
X-169818Y-278517D01*
X-169931Y-278601D01*
X-170053Y-278686D01*
X-170184Y-278752D01*
X-170325Y-278808D01*
X-170598Y-278902D01*
X-170870Y-278958D01*
X-171002Y-278977D01*
X-171115Y-278996D01*
X-171227Y-279006D01*
X-171322Y-279015D01*
X-171397Y-279024D01*
X-171453D01*
X-171491D01*
X-171500D01*
X-171707Y-279015D01*
X-171895Y-279006D01*
X-172073Y-278977D01*
X-172243Y-278949D01*
X-172393Y-278911D01*
X-172534Y-278874D01*
X-172656Y-278827D01*
X-172769Y-278780D01*
X-172872Y-278733D01*
X-172957Y-278686D01*
X-173022Y-278648D01*
X-173088Y-278611D01*
X-173135Y-278583D01*
X-173164Y-278554D01*
X-173182Y-278545D01*
X-173192Y-278536D01*
X-173295Y-278442D01*
X-173380Y-278338D01*
X-173455Y-278225D01*
X-173521Y-278122D01*
X-173577Y-278009D01*
X-173615Y-277896D01*
X-173690Y-277690D01*
X-173727Y-277502D01*
X-173737Y-277427D01*
X-173746Y-277351D01*
X-173756Y-277295D01*
Y-277220D01*
X-173746Y-277069D01*
X-173727Y-276929D01*
X-173709Y-276797D01*
X-173671Y-276675D01*
X-173577Y-276459D01*
X-173530Y-276355D01*
X-173483Y-276271D01*
X-173427Y-276186D01*
X-173380Y-276120D01*
X-173333Y-276064D01*
X-173286Y-276007D01*
X-173248Y-275970D01*
X-173229Y-275942D01*
X-173211Y-275932D01*
X-173201Y-275923D01*
X-173088Y-275838D01*
X-172966Y-275754D01*
X-172844Y-275688D01*
X-172703Y-275632D01*
X-172421Y-275547D01*
X-172148Y-275491D01*
X-172026Y-275462D01*
X-171904Y-275453D01*
X-171801Y-275444D01*
X-171707Y-275434D01*
X-171622Y-275425D01*
X-171566D01*
X-171528D01*
X-171519D01*
X-171312Y-275434D01*
D02*
G37*
G36*
X-168248Y-285349D02*
X-170964D01*
Y-284926D01*
X-170955Y-284795D01*
X-170946Y-284682D01*
X-170927Y-284588D01*
X-170917Y-284513D01*
X-170899Y-284466D01*
X-170889Y-284438D01*
Y-284428D01*
X-170852Y-284353D01*
X-170814Y-284278D01*
X-170767Y-284212D01*
X-170729Y-284146D01*
X-170682Y-284099D01*
X-170645Y-284062D01*
X-170626Y-284043D01*
X-170617Y-284033D01*
X-170570Y-283996D01*
X-170523Y-283949D01*
X-170382Y-283846D01*
X-170231Y-283733D01*
X-170062Y-283610D01*
X-169912Y-283507D01*
X-169837Y-283460D01*
X-169780Y-283423D01*
X-169733Y-283385D01*
X-169696Y-283357D01*
X-169667Y-283347D01*
X-169658Y-283338D01*
X-168248Y-282398D01*
Y-285349D01*
D02*
G37*
G36*
X-172731Y-282708D02*
X-172637Y-282718D01*
X-172553Y-282746D01*
X-172477Y-282765D01*
X-172421Y-282793D01*
X-172383Y-282821D01*
X-172355Y-282831D01*
X-172346Y-282840D01*
X-172280Y-282896D01*
X-172224Y-282953D01*
X-172139Y-283075D01*
X-172111Y-283122D01*
X-172092Y-283169D01*
X-172073Y-283197D01*
Y-283206D01*
X-172064Y-283253D01*
X-172045Y-283329D01*
X-172036Y-283404D01*
X-172026Y-283488D01*
X-172017Y-283686D01*
X-172008Y-283883D01*
X-171998Y-284071D01*
Y-285349D01*
X-173652D01*
Y-283846D01*
X-173643Y-283761D01*
Y-283554D01*
X-173633Y-283470D01*
Y-283413D01*
X-173624Y-283385D01*
Y-283376D01*
X-173596Y-283263D01*
X-173558Y-283159D01*
X-173521Y-283075D01*
X-173474Y-283009D01*
X-173427Y-282953D01*
X-173398Y-282906D01*
X-173370Y-282887D01*
X-173361Y-282878D01*
X-173286Y-282821D01*
X-173192Y-282774D01*
X-173107Y-282746D01*
X-173022Y-282718D01*
X-172947Y-282708D01*
X-172891Y-282699D01*
X-172853D01*
X-172835D01*
X-172731Y-282708D01*
D02*
G37*
%LPC*%
G36*
X-15622Y314356D02*
Y311481D01*
X-23728D01*
Y314356D01*
X-25377D01*
Y306617D01*
X-15622D01*
Y314356D01*
D02*
G37*
G36*
X-15439Y305757D02*
X-25561D01*
X-20486D01*
X-20923Y305743D01*
X-21332Y305701D01*
X-21712Y305644D01*
X-22079Y305560D01*
X-22403Y305461D01*
X-22713Y305348D01*
X-22995Y305236D01*
X-23235Y305109D01*
X-23460Y304982D01*
X-23658Y304869D01*
X-23827Y304756D01*
X-23968Y304658D01*
X-24066Y304587D01*
X-24151Y304517D01*
X-24193Y304474D01*
X-24207Y304460D01*
X-24447Y304207D01*
X-24659Y303939D01*
X-24842Y303657D01*
X-24997Y303375D01*
X-25124Y303079D01*
X-25236Y302797D01*
X-25321Y302515D01*
X-25391Y302247D01*
X-25448Y301993D01*
X-25490Y301754D01*
X-25518Y301542D01*
X-25547Y301359D01*
Y301218D01*
X-25561Y301105D01*
Y301232D01*
Y296298D01*
Y301007D01*
X-25547Y300584D01*
X-25504Y300175D01*
X-25434Y299822D01*
X-25363Y299512D01*
X-25321Y299385D01*
X-25293Y299258D01*
X-25265Y299160D01*
X-25222Y299075D01*
X-25208Y299005D01*
X-25180Y298948D01*
X-25166Y298920D01*
Y298906D01*
X-25053Y298652D01*
X-24912Y298413D01*
X-24757Y298201D01*
X-24616Y298018D01*
X-24489Y297863D01*
X-24376Y297736D01*
X-24306Y297666D01*
X-24292Y297651D01*
X-24278Y297637D01*
X-24052Y297440D01*
X-23813Y297257D01*
X-23601Y297102D01*
X-23390Y296975D01*
X-23207Y296876D01*
X-23066Y296791D01*
X-23009Y296777D01*
X-22967Y296749D01*
X-22953Y296735D01*
X-22939D01*
X-22544Y296594D01*
X-22121Y296481D01*
X-21698Y296411D01*
X-21303Y296355D01*
X-21120Y296340D01*
X-20951Y296326D01*
X-20810Y296312D01*
X-20683D01*
X-20570Y296298D01*
X-25561D01*
X-20429D01*
X-20006Y296312D01*
X-19598Y296355D01*
X-19217Y296411D01*
X-18865Y296495D01*
X-18540Y296594D01*
X-18244Y296707D01*
X-17962Y296820D01*
X-17723Y296947D01*
X-17497Y297059D01*
X-17314Y297172D01*
X-17145Y297285D01*
X-17004Y297384D01*
X-16905Y297468D01*
X-16820Y297525D01*
X-16778Y297567D01*
X-16764Y297581D01*
X-16524Y297835D01*
X-16327Y298103D01*
X-16144Y298370D01*
X-16003Y298666D01*
X-15876Y298948D01*
X-15763Y299244D01*
X-15679Y299512D01*
X-15608Y299794D01*
X-15552Y300048D01*
X-15510Y300288D01*
X-15481Y300499D01*
X-15467Y300682D01*
X-15453Y300823D01*
X-15439Y300936D01*
Y301035D01*
X-15453Y301429D01*
X-15495Y301796D01*
X-15566Y302148D01*
X-15651Y302473D01*
X-15749Y302783D01*
X-15862Y303065D01*
X-15975Y303318D01*
X-16102Y303558D01*
X-16228Y303755D01*
X-16341Y303939D01*
X-16454Y304094D01*
X-16553Y304221D01*
X-16637Y304333D01*
X-16708Y304404D01*
X-16750Y304446D01*
X-16764Y304460D01*
X-17032Y304686D01*
X-17314Y304883D01*
X-17610Y305067D01*
X-17906Y305207D01*
X-18216Y305334D01*
X-18526Y305447D01*
X-18836Y305532D01*
X-19132Y305602D01*
X-19400Y305644D01*
X-19668Y305687D01*
X-19894Y305715D01*
X-20091Y305743D01*
X-20260D01*
X-20387Y305757D01*
X-15439D01*
D02*
G37*
G36*
Y295156D02*
X-25561D01*
X-20486D01*
X-20923Y295142D01*
X-21332Y295100D01*
X-21712Y295044D01*
X-22079Y294959D01*
X-22403Y294860D01*
X-22713Y294748D01*
X-22995Y294635D01*
X-23235Y294508D01*
X-23460Y294381D01*
X-23658Y294268D01*
X-23827Y294155D01*
X-23968Y294057D01*
X-24066Y293986D01*
X-24151Y293916D01*
X-24193Y293874D01*
X-24207Y293859D01*
X-24447Y293606D01*
X-24659Y293338D01*
X-24842Y293056D01*
X-24997Y292774D01*
X-25124Y292478D01*
X-25236Y292196D01*
X-25321Y291914D01*
X-25391Y291646D01*
X-25448Y291392D01*
X-25490Y291153D01*
X-25518Y290941D01*
X-25547Y290758D01*
Y290617D01*
X-25561Y290504D01*
Y285697D01*
D01*
Y290406D01*
X-25547Y289983D01*
X-25504Y289574D01*
X-25434Y289221D01*
X-25363Y288911D01*
X-25321Y288784D01*
X-25293Y288658D01*
X-25265Y288559D01*
X-25222Y288474D01*
X-25208Y288404D01*
X-25180Y288347D01*
X-25166Y288319D01*
Y288305D01*
X-25053Y288051D01*
X-24912Y287812D01*
X-24757Y287600D01*
X-24616Y287417D01*
X-24489Y287262D01*
X-24376Y287135D01*
X-24306Y287065D01*
X-24292Y287050D01*
X-24278Y287036D01*
X-24052Y286839D01*
X-23813Y286656D01*
X-23601Y286501D01*
X-23390Y286374D01*
X-23207Y286275D01*
X-23066Y286191D01*
X-23009Y286176D01*
X-22967Y286148D01*
X-22953Y286134D01*
X-22939D01*
X-22544Y285993D01*
X-22121Y285881D01*
X-21698Y285810D01*
X-21303Y285754D01*
X-21120Y285739D01*
X-20951Y285725D01*
X-20810Y285711D01*
X-20683D01*
X-20570Y285697D01*
X-25561D01*
X-20429D01*
X-20006Y285711D01*
X-19598Y285754D01*
X-19217Y285810D01*
X-18865Y285895D01*
X-18540Y285993D01*
X-18244Y286106D01*
X-17962Y286219D01*
X-17723Y286346D01*
X-17497Y286458D01*
X-17314Y286571D01*
X-17145Y286684D01*
X-17004Y286783D01*
X-16905Y286867D01*
X-16820Y286924D01*
X-16778Y286966D01*
X-16764Y286980D01*
X-16524Y287234D01*
X-16327Y287502D01*
X-16144Y287770D01*
X-16003Y288065D01*
X-15876Y288347D01*
X-15763Y288643D01*
X-15679Y288911D01*
X-15608Y289193D01*
X-15552Y289447D01*
X-15510Y289687D01*
X-15481Y289898D01*
X-15467Y290081D01*
X-15453Y290222D01*
X-15439Y290335D01*
Y290434D01*
X-15453Y290828D01*
X-15495Y291195D01*
X-15566Y291547D01*
X-15651Y291872D01*
X-15749Y292182D01*
X-15862Y292464D01*
X-15975Y292717D01*
X-16102Y292957D01*
X-16228Y293155D01*
X-16341Y293338D01*
X-16454Y293493D01*
X-16553Y293620D01*
X-16637Y293732D01*
X-16708Y293803D01*
X-16750Y293845D01*
X-16764Y293859D01*
X-17032Y294085D01*
X-17314Y294282D01*
X-17610Y294466D01*
X-17906Y294606D01*
X-18216Y294733D01*
X-18526Y294846D01*
X-18836Y294931D01*
X-19132Y295001D01*
X-19400Y295044D01*
X-19668Y295086D01*
X-19894Y295114D01*
X-20091Y295142D01*
X-20260D01*
X-20387Y295156D01*
X-15439D01*
D02*
G37*
G36*
X-18329Y284429D02*
X-25377D01*
Y276266D01*
X-15622D01*
Y280495D01*
X-15636Y280735D01*
Y281158D01*
X-15651Y281327D01*
Y281595D01*
X-15665Y281694D01*
Y281835D01*
X-15679Y281891D01*
Y281947D01*
X-15721Y282229D01*
X-15791Y282483D01*
X-15862Y282709D01*
X-15947Y282906D01*
X-16017Y283061D01*
X-16087Y283174D01*
X-16130Y283244D01*
X-16144Y283272D01*
X-16299Y283470D01*
X-16468Y283625D01*
X-16623Y283780D01*
X-16792Y283893D01*
X-16933Y283992D01*
X-17046Y284062D01*
X-17117Y284104D01*
X-17145Y284118D01*
X-17384Y284217D01*
X-17610Y284302D01*
X-17836Y284358D01*
X-18033Y284386D01*
X-18202Y284414D01*
X-18329Y284429D01*
D02*
G37*
%LPD*%
G36*
X-15622Y306617D02*
X-23728D01*
Y309507D01*
X-15622D01*
Y306617D01*
D02*
G37*
G36*
X-20218Y303713D02*
X-19922Y303699D01*
X-19654Y303657D01*
X-19414Y303615D01*
X-19175Y303558D01*
X-18963Y303488D01*
X-18780Y303417D01*
X-18611Y303347D01*
X-18456Y303276D01*
X-18329Y303206D01*
X-18216Y303149D01*
X-18118Y303079D01*
X-18047Y303036D01*
X-18005Y302994D01*
X-17976Y302980D01*
X-17962Y302966D01*
X-17807Y302825D01*
X-17680Y302670D01*
X-17568Y302501D01*
X-17469Y302346D01*
X-17399Y302177D01*
X-17328Y302022D01*
X-17229Y301711D01*
X-17159Y301444D01*
X-17145Y301331D01*
X-17131Y301232D01*
X-17117Y301147D01*
Y301035D01*
X-17131Y300823D01*
X-17159Y300612D01*
X-17201Y300415D01*
X-17257Y300231D01*
X-17384Y299893D01*
X-17554Y299625D01*
X-17624Y299498D01*
X-17709Y299400D01*
X-17779Y299301D01*
X-17850Y299230D01*
X-17892Y299174D01*
X-17934Y299132D01*
X-17962Y299103D01*
X-17976Y299089D01*
X-18146Y298962D01*
X-18329Y298836D01*
X-18526Y298737D01*
X-18738Y298652D01*
X-19146Y298511D01*
X-19555Y298427D01*
X-19753Y298399D01*
X-19922Y298370D01*
X-20091Y298356D01*
X-20232Y298342D01*
X-20345Y298328D01*
X-20429D01*
X-20486D01*
X-20500D01*
X-20810Y298342D01*
X-21092Y298356D01*
X-21360Y298399D01*
X-21614Y298441D01*
X-21839Y298497D01*
X-22050Y298554D01*
X-22234Y298624D01*
X-22403Y298695D01*
X-22558Y298765D01*
X-22685Y298836D01*
X-22784Y298892D01*
X-22882Y298948D01*
X-22953Y298991D01*
X-22995Y299033D01*
X-23023Y299047D01*
X-23037Y299061D01*
X-23192Y299202D01*
X-23319Y299357D01*
X-23432Y299526D01*
X-23531Y299681D01*
X-23615Y299851D01*
X-23672Y300020D01*
X-23784Y300330D01*
X-23841Y300612D01*
X-23855Y300725D01*
X-23869Y300837D01*
X-23883Y300922D01*
Y301035D01*
X-23869Y301260D01*
X-23841Y301472D01*
X-23813Y301669D01*
X-23756Y301852D01*
X-23615Y302177D01*
X-23545Y302332D01*
X-23474Y302458D01*
X-23390Y302585D01*
X-23319Y302684D01*
X-23249Y302769D01*
X-23178Y302853D01*
X-23122Y302910D01*
X-23094Y302952D01*
X-23066Y302966D01*
X-23051Y302980D01*
X-22882Y303107D01*
X-22699Y303234D01*
X-22516Y303333D01*
X-22304Y303417D01*
X-21881Y303544D01*
X-21473Y303629D01*
X-21289Y303671D01*
X-21106Y303685D01*
X-20951Y303699D01*
X-20810Y303713D01*
X-20683Y303727D01*
X-20598D01*
X-20542D01*
X-20528D01*
X-20218Y303713D01*
D02*
G37*
G36*
Y293112D02*
X-19922Y293098D01*
X-19654Y293056D01*
X-19414Y293013D01*
X-19175Y292957D01*
X-18963Y292887D01*
X-18780Y292816D01*
X-18611Y292746D01*
X-18456Y292675D01*
X-18329Y292605D01*
X-18216Y292548D01*
X-18118Y292478D01*
X-18047Y292436D01*
X-18005Y292393D01*
X-17976Y292379D01*
X-17962Y292365D01*
X-17807Y292224D01*
X-17680Y292069D01*
X-17568Y291900D01*
X-17469Y291745D01*
X-17399Y291576D01*
X-17328Y291421D01*
X-17229Y291110D01*
X-17159Y290843D01*
X-17145Y290730D01*
X-17131Y290631D01*
X-17117Y290547D01*
Y290434D01*
X-17131Y290222D01*
X-17159Y290011D01*
X-17201Y289813D01*
X-17257Y289630D01*
X-17384Y289292D01*
X-17554Y289024D01*
X-17624Y288897D01*
X-17709Y288799D01*
X-17779Y288700D01*
X-17850Y288629D01*
X-17892Y288573D01*
X-17934Y288531D01*
X-17962Y288503D01*
X-17976Y288488D01*
X-18146Y288361D01*
X-18329Y288235D01*
X-18526Y288136D01*
X-18738Y288051D01*
X-19146Y287910D01*
X-19555Y287826D01*
X-19753Y287798D01*
X-19922Y287770D01*
X-20091Y287755D01*
X-20232Y287741D01*
X-20345Y287727D01*
X-20429D01*
X-20486D01*
X-20500D01*
X-20810Y287741D01*
X-21092Y287755D01*
X-21360Y287798D01*
X-21614Y287840D01*
X-21839Y287896D01*
X-22050Y287953D01*
X-22234Y288023D01*
X-22403Y288094D01*
X-22558Y288164D01*
X-22685Y288235D01*
X-22784Y288291D01*
X-22882Y288347D01*
X-22953Y288390D01*
X-22995Y288432D01*
X-23023Y288446D01*
X-23037Y288460D01*
X-23192Y288601D01*
X-23319Y288756D01*
X-23432Y288925D01*
X-23531Y289081D01*
X-23615Y289250D01*
X-23672Y289419D01*
X-23784Y289729D01*
X-23841Y290011D01*
X-23855Y290124D01*
X-23869Y290236D01*
X-23883Y290321D01*
Y290434D01*
X-23869Y290659D01*
X-23841Y290871D01*
X-23813Y291068D01*
X-23756Y291251D01*
X-23615Y291576D01*
X-23545Y291731D01*
X-23474Y291858D01*
X-23390Y291985D01*
X-23319Y292083D01*
X-23249Y292168D01*
X-23178Y292252D01*
X-23122Y292309D01*
X-23094Y292351D01*
X-23066Y292365D01*
X-23051Y292379D01*
X-22882Y292506D01*
X-22699Y292633D01*
X-22516Y292732D01*
X-22304Y292816D01*
X-21881Y292943D01*
X-21473Y293028D01*
X-21289Y293070D01*
X-21106Y293084D01*
X-20951Y293098D01*
X-20810Y293112D01*
X-20683Y293126D01*
X-20598D01*
X-20542D01*
X-20528D01*
X-20218Y293112D01*
D02*
G37*
G36*
X-18752Y284414D02*
X-19034Y284358D01*
X-19273Y284273D01*
X-19499Y284189D01*
X-19668Y284104D01*
X-19795Y284020D01*
X-19880Y283963D01*
X-19908Y283949D01*
X-20133Y283752D01*
X-20317Y283540D01*
X-20472Y283301D01*
X-20584Y283089D01*
X-20683Y282892D01*
X-20754Y282723D01*
X-20768Y282666D01*
X-20782Y282624D01*
X-20796Y282596D01*
Y282582D01*
X-20923Y282807D01*
X-21050Y283005D01*
X-21205Y283174D01*
X-21332Y283315D01*
X-21458Y283414D01*
X-21557Y283498D01*
X-21628Y283554D01*
X-21656Y283568D01*
X-21881Y283695D01*
X-22093Y283794D01*
X-22304Y283850D01*
X-22502Y283907D01*
X-22671Y283935D01*
X-22798Y283949D01*
X-22882D01*
X-22896D01*
X-22910D01*
X-23136Y283935D01*
X-23361Y283907D01*
X-23545Y283850D01*
X-23714Y283794D01*
X-23855Y283738D01*
X-23968Y283681D01*
X-24024Y283653D01*
X-24052Y283639D01*
X-24236Y283526D01*
X-24391Y283399D01*
X-24532Y283272D01*
X-24659Y283160D01*
X-24743Y283047D01*
X-24813Y282962D01*
X-24856Y282906D01*
X-24870Y282892D01*
X-24983Y282723D01*
X-25067Y282540D01*
X-25138Y282370D01*
X-25194Y282215D01*
X-25236Y282074D01*
X-25265Y281976D01*
X-25279Y281905D01*
Y281877D01*
X-25307Y281637D01*
X-25335Y281369D01*
X-25349Y281087D01*
X-25363Y280805D01*
X-25377Y280552D01*
Y284429D01*
X-18442D01*
X-18752Y284414D01*
D02*
G37*
G36*
X-18357Y282384D02*
X-18188Y282356D01*
X-18047Y282314D01*
X-17934Y282257D01*
X-17836Y282201D01*
X-17765Y282159D01*
X-17723Y282131D01*
X-17709Y282117D01*
X-17610Y282004D01*
X-17525Y281891D01*
X-17455Y281764D01*
X-17399Y281651D01*
X-17370Y281553D01*
X-17342Y281468D01*
X-17328Y281412D01*
Y281398D01*
X-17314Y281341D01*
Y281257D01*
X-17300Y281073D01*
X-17286Y280848D01*
Y280622D01*
X-17272Y280411D01*
Y278240D01*
X-19880D01*
Y280284D01*
X-19865Y280481D01*
X-19851Y280651D01*
Y280820D01*
X-19837Y280961D01*
X-19823Y281087D01*
X-19809Y281186D01*
X-19795Y281285D01*
X-19781Y281355D01*
X-19767Y281468D01*
X-19739Y281539D01*
Y281553D01*
X-19682Y281694D01*
X-19612Y281821D01*
X-19541Y281933D01*
X-19457Y282018D01*
X-19400Y282088D01*
X-19344Y282131D01*
X-19302Y282159D01*
X-19288Y282173D01*
X-19161Y282243D01*
X-19034Y282300D01*
X-18921Y282342D01*
X-18794Y282370D01*
X-18695Y282384D01*
X-18611Y282398D01*
X-18555D01*
X-18540D01*
X-18357Y282384D01*
D02*
G37*
G36*
X-22473Y282018D02*
X-22318Y281990D01*
X-22192Y281933D01*
X-22079Y281891D01*
X-21980Y281835D01*
X-21924Y281778D01*
X-21881Y281750D01*
X-21867Y281736D01*
X-21769Y281623D01*
X-21698Y281496D01*
X-21642Y281369D01*
X-21599Y281243D01*
X-21557Y281116D01*
X-21543Y281031D01*
X-21529Y280975D01*
Y280890D01*
X-21515Y280805D01*
Y280368D01*
X-21501Y280129D01*
Y278240D01*
X-23756D01*
Y280199D01*
X-23742Y280354D01*
Y280721D01*
X-23728Y280805D01*
Y280961D01*
X-23714Y281017D01*
Y281031D01*
X-23686Y281200D01*
X-23644Y281355D01*
X-23587Y281482D01*
X-23531Y281595D01*
X-23474Y281665D01*
X-23418Y281736D01*
X-23390Y281764D01*
X-23376Y281778D01*
X-23263Y281863D01*
X-23136Y281919D01*
X-23023Y281976D01*
X-22910Y282004D01*
X-22798Y282018D01*
X-22713Y282032D01*
X-22657D01*
X-22643D01*
X-22473Y282018D01*
D02*
G37*
%LPC*%
G36*
X37497Y155775D02*
X27503D01*
X32450D01*
X31971Y155760D01*
X31534Y155732D01*
X31125Y155690D01*
X30745Y155619D01*
X30406Y155549D01*
X30096Y155478D01*
X29814Y155380D01*
X29561Y155295D01*
X29349Y155211D01*
X29166Y155126D01*
X29011Y155042D01*
X28884Y154971D01*
X28785Y154901D01*
X28715Y154858D01*
X28672Y154830D01*
X28658Y154816D01*
X28461Y154633D01*
X28278Y154435D01*
X28123Y154238D01*
X27996Y154041D01*
X27883Y153829D01*
X27784Y153632D01*
X27714Y153434D01*
X27643Y153237D01*
X27601Y153068D01*
X27559Y152899D01*
X27531Y152758D01*
X27517Y152631D01*
Y152518D01*
X27503Y152448D01*
Y152575D01*
Y149262D01*
Y152377D01*
X27517Y152123D01*
X27545Y151898D01*
X27587Y151672D01*
X27643Y151461D01*
X27714Y151264D01*
X27799Y151080D01*
X27869Y150897D01*
X27954Y150756D01*
X28052Y150615D01*
X28123Y150488D01*
X28207Y150389D01*
X28278Y150291D01*
X28334Y150220D01*
X28377Y150178D01*
X28405Y150150D01*
X28419Y150136D01*
X28602Y149981D01*
X28785Y149854D01*
X28983Y149727D01*
X29180Y149628D01*
X29377Y149544D01*
X29589Y149473D01*
X29969Y149375D01*
X30139Y149332D01*
X30308Y149304D01*
X30449Y149290D01*
X30576Y149276D01*
X30688Y149262D01*
X30829D01*
X31083Y149276D01*
X31337Y149304D01*
X31576Y149332D01*
X31788Y149389D01*
X31999Y149459D01*
X32183Y149530D01*
X32366Y149600D01*
X32521Y149685D01*
X32662Y149755D01*
X32789Y149826D01*
X32887Y149896D01*
X32986Y149967D01*
X33043Y150023D01*
X33099Y150051D01*
X33127Y150079D01*
X33141Y150093D01*
X33296Y150248D01*
X33437Y150418D01*
X33550Y150587D01*
X33649Y150756D01*
X33733Y150925D01*
X33818Y151080D01*
X33917Y151390D01*
X33987Y151658D01*
X34001Y151771D01*
X34015Y151870D01*
X34029Y151954D01*
Y152067D01*
X34015Y152264D01*
X33987Y152448D01*
X33959Y152617D01*
X33902Y152786D01*
X33776Y153096D01*
X33621Y153350D01*
X33465Y153547D01*
X33395Y153632D01*
X33339Y153702D01*
X33282Y153759D01*
X33240Y153801D01*
X33226Y153815D01*
X33212Y153829D01*
X33508Y153801D01*
X33790Y153773D01*
X34044Y153745D01*
X34269Y153702D01*
X34466Y153660D01*
X34650Y153618D01*
X34805Y153575D01*
X34946Y153533D01*
X35073Y153477D01*
X35171Y153449D01*
X35256Y153406D01*
X35312Y153378D01*
X35369Y153350D01*
X35397Y153322D01*
X35425Y153308D01*
X35594Y153153D01*
X35721Y152983D01*
X35820Y152828D01*
X35876Y152673D01*
X35918Y152532D01*
X35933Y152434D01*
X35947Y152363D01*
Y152335D01*
X35933Y152180D01*
X35904Y152025D01*
X35862Y151912D01*
X35820Y151799D01*
X35777Y151715D01*
X35735Y151658D01*
X35707Y151616D01*
X35693Y151602D01*
X35580Y151503D01*
X35453Y151433D01*
X35312Y151376D01*
X35171Y151334D01*
X35059Y151292D01*
X34960Y151278D01*
X34889Y151264D01*
X34861D01*
X35073Y149459D01*
X35298Y149501D01*
X35496Y149558D01*
X35693Y149614D01*
X35862Y149685D01*
X36031Y149755D01*
X36186Y149826D01*
X36313Y149910D01*
X36440Y149981D01*
X36539Y150065D01*
X36637Y150122D01*
X36708Y150192D01*
X36778Y150248D01*
X36821Y150291D01*
X36863Y150333D01*
X36877Y150347D01*
X36891Y150361D01*
X37004Y150502D01*
X37088Y150643D01*
X37243Y150953D01*
X37342Y151249D01*
X37427Y151545D01*
X37469Y151813D01*
X37483Y151926D01*
Y152025D01*
X37497Y152095D01*
Y152208D01*
X37483Y152504D01*
X37441Y152772D01*
X37385Y153026D01*
X37314Y153279D01*
X37215Y153505D01*
X37117Y153716D01*
X37018Y153914D01*
X36905Y154083D01*
X36792Y154238D01*
X36694Y154379D01*
X36581Y154492D01*
X36496Y154590D01*
X36426Y154675D01*
X36370Y154731D01*
X36327Y154760D01*
X36313Y154774D01*
X36073Y154957D01*
X35806Y155098D01*
X35510Y155239D01*
X35213Y155352D01*
X34889Y155450D01*
X34565Y155535D01*
X34255Y155591D01*
X33931Y155648D01*
X33635Y155690D01*
X33367Y155718D01*
X33113Y155746D01*
X32887Y155760D01*
X32704Y155775D01*
X37497D01*
D02*
G37*
G36*
X37314Y148148D02*
X27559D01*
X32535D01*
X32042Y148134D01*
X31605Y148092D01*
X31393Y148078D01*
X31210Y148049D01*
X31027Y148021D01*
X30872Y147993D01*
X30731Y147951D01*
X30604Y147922D01*
X30491Y147894D01*
X30406Y147880D01*
X30336Y147852D01*
X30280Y147838D01*
X30251Y147824D01*
X30237D01*
X29899Y147697D01*
X29589Y147542D01*
X29321Y147387D01*
X29095Y147232D01*
X28912Y147105D01*
X28771Y146992D01*
X28687Y146922D01*
X28658Y146908D01*
Y146894D01*
X28433Y146654D01*
X28250Y146414D01*
X28094Y146160D01*
X27968Y145935D01*
X27869Y145737D01*
X27799Y145568D01*
X27784Y145512D01*
X27770Y145470D01*
X27756Y145442D01*
Y145427D01*
X27686Y145160D01*
X27643Y144864D01*
X27601Y144553D01*
X27587Y144257D01*
X27573Y143989D01*
X27559Y143877D01*
Y143989D01*
Y139986D01*
X37314D01*
Y143679D01*
X37300Y144060D01*
X37286Y144412D01*
X37258Y144708D01*
X37215Y144948D01*
X37173Y145145D01*
X37145Y145301D01*
X37131Y145343D01*
Y145385D01*
X37117Y145399D01*
Y145413D01*
X37004Y145723D01*
X36877Y146005D01*
X36750Y146231D01*
X36623Y146428D01*
X36510Y146583D01*
X36426Y146696D01*
X36370Y146767D01*
X36341Y146795D01*
X36073Y147034D01*
X35791Y147246D01*
X35496Y147429D01*
X35228Y147570D01*
X34974Y147683D01*
X34875Y147739D01*
X34791Y147767D01*
X34706Y147796D01*
X34650Y147824D01*
X34621Y147838D01*
X34607D01*
X34269Y147937D01*
X33917Y148021D01*
X33578Y148078D01*
X33254Y148106D01*
X33099Y148120D01*
X32958Y148134D01*
X32845D01*
X32732Y148148D01*
X37314D01*
D02*
G37*
G36*
X34706Y138886D02*
X32831D01*
Y135207D01*
X34706D01*
Y138886D01*
D02*
G37*
G36*
X37314Y133769D02*
X27559D01*
X32535D01*
X32042Y133755D01*
X31605Y133713D01*
X31393Y133699D01*
X31210Y133671D01*
X31027Y133642D01*
X30872Y133614D01*
X30731Y133572D01*
X30604Y133544D01*
X30491Y133515D01*
X30406Y133501D01*
X30336Y133473D01*
X30280Y133459D01*
X30251Y133445D01*
X30237D01*
X29899Y133318D01*
X29589Y133163D01*
X29321Y133008D01*
X29095Y132853D01*
X28912Y132726D01*
X28771Y132613D01*
X28687Y132543D01*
X28658Y132529D01*
Y132514D01*
X28433Y132275D01*
X28250Y132035D01*
X28094Y131782D01*
X27968Y131556D01*
X27869Y131359D01*
X27799Y131189D01*
X27784Y131133D01*
X27770Y131091D01*
X27756Y131062D01*
Y131048D01*
X27686Y130781D01*
X27643Y130485D01*
X27601Y130174D01*
X27587Y129878D01*
X27573Y129611D01*
X27559Y129498D01*
Y129611D01*
Y125607D01*
X37314D01*
Y129300D01*
X37300Y129681D01*
X37286Y130033D01*
X37258Y130330D01*
X37215Y130569D01*
X37173Y130766D01*
X37145Y130922D01*
X37131Y130964D01*
Y131006D01*
X37117Y131020D01*
Y131034D01*
X37004Y131344D01*
X36877Y131626D01*
X36750Y131852D01*
X36623Y132049D01*
X36510Y132204D01*
X36426Y132317D01*
X36370Y132388D01*
X36341Y132416D01*
X36073Y132655D01*
X35791Y132867D01*
X35496Y133050D01*
X35228Y133191D01*
X34974Y133304D01*
X34875Y133360D01*
X34791Y133389D01*
X34706Y133417D01*
X34650Y133445D01*
X34621Y133459D01*
X34607D01*
X34269Y133558D01*
X33917Y133642D01*
X33578Y133699D01*
X33254Y133727D01*
X33099Y133741D01*
X32958Y133755D01*
X32845D01*
X32732Y133769D01*
X37314D01*
D02*
G37*
G36*
Y123929D02*
X27559D01*
Y116514D01*
X37314D01*
Y123929D01*
D02*
G37*
G36*
Y115105D02*
X27629D01*
Y108225D01*
X37314D01*
Y115105D01*
D02*
G37*
%LPD*%
G36*
X31281Y153660D02*
X31534Y153618D01*
X31746Y153547D01*
X31929Y153491D01*
X32056Y153420D01*
X32155Y153350D01*
X32225Y153308D01*
X32239Y153294D01*
X32380Y153153D01*
X32479Y152998D01*
X32563Y152842D01*
X32606Y152701D01*
X32634Y152575D01*
X32648Y152476D01*
X32662Y152420D01*
Y152391D01*
X32648Y152194D01*
X32592Y152011D01*
X32521Y151856D01*
X32436Y151715D01*
X32366Y151602D01*
X32295Y151531D01*
X32239Y151475D01*
X32225Y151461D01*
X32042Y151334D01*
X31816Y151249D01*
X31591Y151179D01*
X31351Y151137D01*
X31154Y151109D01*
X30984Y151094D01*
X30914D01*
X30872D01*
X30843D01*
X30829D01*
X30505Y151109D01*
X30223Y151151D01*
X29983Y151207D01*
X29800Y151264D01*
X29659Y151320D01*
X29561Y151376D01*
X29490Y151419D01*
X29476Y151433D01*
X29335Y151574D01*
X29236Y151715D01*
X29152Y151856D01*
X29109Y151997D01*
X29081Y152109D01*
X29053Y152208D01*
Y152293D01*
X29081Y152490D01*
X29138Y152673D01*
X29208Y152842D01*
X29307Y152983D01*
X29406Y153096D01*
X29476Y153181D01*
X29532Y153237D01*
X29561Y153251D01*
X29772Y153392D01*
X29998Y153491D01*
X30237Y153575D01*
X30463Y153618D01*
X30674Y153646D01*
X30829Y153674D01*
X30900D01*
X30942D01*
X30970D01*
X30984D01*
X31281Y153660D01*
D02*
G37*
G36*
X32845Y146104D02*
X33212Y146090D01*
X33508Y146048D01*
X33761Y146019D01*
X33973Y145977D01*
X34058Y145963D01*
X34114Y145935D01*
X34170Y145921D01*
X34213D01*
X34227Y145907D01*
X34241D01*
X34466Y145822D01*
X34664Y145752D01*
X34819Y145653D01*
X34946Y145582D01*
X35044Y145512D01*
X35115Y145456D01*
X35157Y145413D01*
X35171Y145399D01*
X35270Y145272D01*
X35354Y145145D01*
X35425Y145019D01*
X35481Y144892D01*
X35524Y144779D01*
X35552Y144694D01*
X35580Y144638D01*
Y144610D01*
X35608Y144455D01*
X35622Y144271D01*
X35650Y144074D01*
Y143877D01*
X35665Y143693D01*
Y141959D01*
X29208D01*
Y143242D01*
X29222Y143426D01*
Y143595D01*
X29236Y143736D01*
Y143863D01*
X29251Y143989D01*
Y144088D01*
X29279Y144243D01*
X29293Y144356D01*
X29307Y144426D01*
Y144441D01*
X29363Y144638D01*
X29434Y144807D01*
X29504Y144962D01*
X29589Y145103D01*
X29659Y145202D01*
X29716Y145286D01*
X29758Y145329D01*
X29772Y145343D01*
X29913Y145470D01*
X30068Y145582D01*
X30223Y145681D01*
X30364Y145766D01*
X30505Y145822D01*
X30618Y145864D01*
X30688Y145893D01*
X30703Y145907D01*
X30717D01*
X30970Y145977D01*
X31238Y146033D01*
X31534Y146062D01*
X31816Y146090D01*
X32056Y146104D01*
X32169Y146118D01*
X32267D01*
X32338D01*
X32394D01*
X32436D01*
X32450D01*
X32845Y146104D01*
D02*
G37*
G36*
Y131725D02*
X33212Y131711D01*
X33508Y131669D01*
X33761Y131641D01*
X33973Y131598D01*
X34058Y131584D01*
X34114Y131556D01*
X34170Y131542D01*
X34213D01*
X34227Y131528D01*
X34241D01*
X34466Y131443D01*
X34664Y131373D01*
X34819Y131274D01*
X34946Y131203D01*
X35044Y131133D01*
X35115Y131077D01*
X35157Y131034D01*
X35171Y131020D01*
X35270Y130893D01*
X35354Y130766D01*
X35425Y130640D01*
X35481Y130513D01*
X35524Y130400D01*
X35552Y130315D01*
X35580Y130259D01*
Y130231D01*
X35608Y130076D01*
X35622Y129893D01*
X35650Y129695D01*
Y129498D01*
X35665Y129314D01*
Y127581D01*
X29208D01*
Y128863D01*
X29222Y129047D01*
Y129216D01*
X29236Y129357D01*
Y129484D01*
X29251Y129611D01*
Y129709D01*
X29279Y129864D01*
X29293Y129977D01*
X29307Y130048D01*
Y130062D01*
X29363Y130259D01*
X29434Y130428D01*
X29504Y130583D01*
X29589Y130724D01*
X29659Y130823D01*
X29716Y130907D01*
X29758Y130950D01*
X29772Y130964D01*
X29913Y131091D01*
X30068Y131203D01*
X30223Y131302D01*
X30364Y131387D01*
X30505Y131443D01*
X30618Y131485D01*
X30688Y131514D01*
X30703Y131528D01*
X30717D01*
X30970Y131598D01*
X31238Y131655D01*
X31534Y131683D01*
X31816Y131711D01*
X32056Y131725D01*
X32169Y131739D01*
X32267D01*
X32338D01*
X32394D01*
X32436D01*
X32450D01*
X32845Y131725D01*
D02*
G37*
G36*
X35665Y118488D02*
X33014D01*
Y123380D01*
X31365D01*
Y118488D01*
X29208D01*
Y123746D01*
X27559D01*
Y123929D01*
X35665D01*
Y118488D01*
D02*
G37*
G36*
Y110199D02*
X27629D01*
Y115105D01*
X35665D01*
Y110199D01*
D02*
G37*
G54D10*
X-101714Y189750D02*
X-103714D01*
X-101714D01*
X-103140Y-292100D02*
X-105140D01*
X-103140D01*
X-263000Y-393000D02*
X-265000D01*
X-263000D01*
X7880Y70753D02*
X6692Y72810D01*
X4317D01*
X3130Y70753D01*
X128750Y-131875D02*
X130807Y-130688D01*
Y-128313D01*
X128750Y-127125D01*
X-180849Y223500D02*
X-182652D01*
X-180849D01*
X133900Y159000D02*
X131900D01*
X133900D01*
X-177000Y169800D02*
X-176293Y168093D01*
X-177707D02*
X-177000Y169800D01*
X31250Y203500D02*
X41750D01*
X31250Y188500D02*
X41750D01*
X222200Y373700D02*
X227200Y371200D01*
X206800Y373700D02*
X222200D01*
Y348300D02*
X227200Y350800D01*
X201800Y371200D02*
X206800Y373700D01*
X227200Y350800D02*
Y371200D01*
X201800Y350800D02*
X206800Y348300D01*
X201800Y350800D02*
Y371200D01*
X222200Y348300D02*
X227200Y345800D01*
X222200Y322900D02*
X227200Y325400D01*
X201800Y345800D02*
X206800Y348300D01*
X227200Y325400D02*
Y345800D01*
X201800Y325400D02*
X206800Y322900D01*
X201800Y325400D02*
Y345800D01*
Y300000D02*
Y320400D01*
Y300000D02*
X206800Y297500D01*
X227200Y300000D02*
Y320400D01*
X201800D02*
X206800Y322900D01*
X222200Y297500D02*
X227200Y300000D01*
X222200Y322900D02*
X227200Y320400D01*
X201800Y249200D02*
Y269600D01*
X206800Y221300D02*
X222200D01*
X227200Y223800D01*
X201800D02*
Y244200D01*
X222200Y246700D02*
X227200Y244200D01*
X201800Y249200D02*
X206800Y246700D01*
X227200Y249200D02*
Y269600D01*
X201800D02*
X206800Y272100D01*
X201800Y223800D02*
X206800Y221300D01*
X222200Y246700D02*
X227200Y249200D01*
Y223800D02*
Y244200D01*
X201800D02*
X206800Y246700D01*
X222200Y272100D02*
X227200Y269600D01*
X222200Y297500D02*
X227200Y295000D01*
X222200Y272100D02*
X227200Y274600D01*
X201800Y295000D02*
X206800Y297500D01*
X227200Y274600D02*
Y295000D01*
X201800Y274600D02*
X206800Y272100D01*
X201800Y274600D02*
Y295000D01*
X213600Y-109650D02*
X228400D01*
X253900D02*
X267900D01*
Y-12350D01*
X213600D02*
X228400D01*
X253900D02*
X267900D01*
X-63500Y220000D02*
Y262000D01*
X-29500Y220000D02*
Y262000D01*
X5655Y70753D02*
X7880D01*
X3130D02*
X5354D01*
Y99253D01*
X5655D01*
Y70753D02*
Y99253D01*
X128750Y-129650D02*
X157250D01*
Y-129350D01*
X128750D02*
X157250D01*
X128750D02*
Y-127125D01*
Y-131875D02*
Y-129650D01*
X142500Y2000D02*
X151500D01*
X142500D02*
Y10000D01*
Y32000D02*
X151500D01*
X142500Y24000D02*
Y32000D01*
X187500Y11000D02*
Y14000D01*
Y21000D02*
Y23000D01*
X183500Y14000D02*
X192500D01*
X187500Y21000D02*
X192500Y14000D01*
X183500D02*
X187500Y21000D01*
X182500D02*
X192500D01*
X-130500Y100000D02*
X-124500D01*
X-130500D02*
X-127500Y92500D01*
X-124500Y100000D01*
X-193500Y70375D02*
Y123625D01*
X-173500D01*
Y70375D02*
Y123625D01*
X-193500Y70375D02*
X-173500D01*
X200750Y-167250D02*
X218250D01*
Y-134750D01*
X200750D02*
X218250D01*
X200750Y-167250D02*
Y-134750D01*
X77250Y-118500D02*
X81000D01*
Y-122250D02*
Y-118500D01*
X38000D02*
X41750D01*
X38000Y-122250D02*
Y-118500D01*
Y-161500D02*
Y-157750D01*
Y-161500D02*
X41750D01*
X77250D02*
X81000D01*
Y-157750D01*
X-184100Y192000D02*
X-177000D01*
Y195500D01*
X-184100Y220000D02*
X-177000D01*
Y216500D02*
Y220000D01*
X-206500Y192000D02*
X-199400D01*
X-206500Y220000D02*
X-199400D01*
X-206500Y192000D02*
Y195500D01*
Y216500D02*
Y220000D01*
X173250Y137750D02*
X197750D01*
Y170250D01*
X173250D02*
X197750D01*
X173250Y137750D02*
Y170250D01*
X56250Y-101750D02*
X88500D01*
X56250D02*
Y-84250D01*
X88500D01*
Y-101750D02*
Y-84250D01*
X-205500Y367500D02*
X-121500D01*
X-214500Y307500D02*
X-203500D01*
X-214500Y292500D02*
Y307500D01*
X-223500Y292500D02*
X-214500D01*
X-223500D02*
Y331500D01*
X-123500Y307500D02*
X-112500D01*
Y292500D02*
Y307500D01*
Y292500D02*
X-103500D01*
Y331500D01*
X187500Y-261000D02*
X226500D01*
X187500D02*
Y-252000D01*
X202500D01*
Y-241000D01*
X187500Y-181000D02*
X226500D01*
X187500Y-190000D02*
Y-181000D01*
Y-190000D02*
X202500D01*
Y-201000D02*
Y-190000D01*
X262500Y-243000D02*
Y-199000D01*
X77500Y-195000D02*
Y-191000D01*
Y-180500D02*
Y-176500D01*
X51000D02*
X51750D01*
X76750D02*
X77500D01*
X51000Y-195000D02*
Y-191000D01*
Y-180500D02*
Y-176500D01*
Y-195000D02*
X51750D01*
X76750D02*
X77500D01*
X167500Y-219000D02*
Y-175000D01*
X143500D02*
X167500D01*
X143500Y-219000D02*
Y-175000D01*
Y-219000D02*
X167500D01*
X-9500Y232500D02*
X89500D01*
X-9500D02*
Y433500D01*
X144500D01*
Y232500D02*
Y433500D01*
X89500Y232500D02*
X144500D01*
X156750Y200625D02*
X190750D01*
Y218625D01*
X156750D02*
X190750D01*
X156750Y200625D02*
Y218625D01*
X129500Y34000D02*
X163500D01*
Y52000D01*
X129500D02*
X163500D01*
X129500Y34000D02*
Y52000D01*
Y52000D02*
X163500D01*
Y70000D01*
X129500D02*
X163500D01*
X129500Y52000D02*
Y70000D01*
X163500D01*
Y88000D01*
X129500D02*
X163500D01*
X129500Y70000D02*
Y88000D01*
X206500Y156000D02*
Y190000D01*
Y156000D02*
X224500D01*
Y190000D01*
X206500D02*
X224500D01*
X212500Y66000D02*
Y100000D01*
X194500D02*
X212500D01*
X194500Y66000D02*
Y100000D01*
Y66000D02*
X212500D01*
X-26500Y348000D02*
Y382000D01*
X-44500D02*
X-26500D01*
X-44500Y348000D02*
Y382000D01*
Y348000D02*
X-26500D01*
X-44500D02*
Y382000D01*
X-62500D02*
X-44500D01*
X-62500Y348000D02*
Y382000D01*
Y348000D02*
X-44500D01*
X-167500Y-18000D02*
Y16000D01*
Y-18000D02*
X-149500D01*
Y16000D01*
X-167500D02*
X-149500D01*
X-201500Y261000D02*
X-167500D01*
X-201500Y243000D02*
Y261000D01*
Y243000D02*
X-167500D01*
Y261000D01*
X169500Y256000D02*
Y265000D01*
X177500D01*
X199500Y256000D02*
Y265000D01*
X191500D02*
X199500D01*
X169500Y310000D02*
Y319000D01*
X177500D01*
X199500Y310000D02*
Y319000D01*
X191500D02*
X199500D01*
X-29500Y287000D02*
Y329000D01*
X-63500Y287000D02*
Y329000D01*
X-112687Y-99001D02*
Y-65001D01*
X-130687D02*
X-112687D01*
X-130687Y-99001D02*
Y-65001D01*
Y-99001D02*
X-112687D01*
X-104937Y-104501D02*
X-101187D01*
Y-108251D02*
Y-104501D01*
X-144187D02*
X-140437D01*
X-144187Y-108251D02*
Y-104501D01*
Y-147501D02*
Y-143751D01*
Y-147501D02*
X-140437D01*
X-104937D02*
X-101187D01*
Y-143751D01*
X-153937Y-121251D02*
Y-89001D01*
X-171437Y-121251D02*
X-153937D01*
X-171437D02*
Y-89001D01*
X-153937D01*
X22500Y-76000D02*
X56500D01*
X22500Y-94000D02*
Y-76000D01*
Y-94000D02*
X56500D01*
Y-76000D01*
X-213500Y-248000D02*
Y-214000D01*
Y-248000D02*
X-195500D01*
Y-214000D01*
X-213500D02*
X-195500D01*
X190750Y89735D02*
Y107735D01*
X156750Y89735D02*
X190750D01*
X156750D02*
Y107735D01*
X190750D01*
X156750Y125735D02*
X190750D01*
X156750Y107735D02*
Y125735D01*
Y107735D02*
X190750D01*
Y125735D01*
X156750Y182625D02*
X190750D01*
Y200625D01*
X156750D02*
X190750D01*
X156750Y182625D02*
Y200625D01*
X-176293Y168093D02*
X-174600Y166400D01*
X-179900Y165900D02*
X-177707Y168093D01*
X-177000Y149800D02*
Y169800D01*
X201001Y140336D02*
X208999D01*
Y145667D01*
Y152332D02*
X201001D01*
X205000Y148333D01*
Y153665D01*
X112336Y216999D02*
Y209001D01*
X117667D01*
X125665Y216999D02*
X122999Y215666D01*
X120333Y213000D01*
Y210334D01*
X121666Y209001D01*
X124332D01*
X125665Y210334D01*
Y211667D01*
X124332Y213000D01*
X120333D01*
X199001Y215666D02*
X197668Y216999D01*
X195003D01*
X193670Y215666D01*
Y210334D01*
X195003Y209001D01*
X197668D01*
X199001Y210334D01*
X206999Y209001D02*
X201667D01*
X206999Y214333D01*
Y215666D01*
X205666Y216999D01*
X203000D01*
X201667Y215666D01*
X209664Y209001D02*
X212330D01*
X210997D01*
Y216999D01*
X209664Y215666D01*
X134668Y123666D02*
X133336Y124999D01*
X130670D01*
X129337Y123666D01*
Y118334D01*
X130670Y117001D01*
X133336D01*
X134668Y118334D01*
X142666Y117001D02*
X137334D01*
X142666Y122333D01*
Y123666D01*
X141333Y124999D01*
X138667D01*
X137334Y123666D01*
X150663Y117001D02*
X145332D01*
X150663Y122333D01*
Y123666D01*
X149330Y124999D01*
X146664D01*
X145332Y123666D01*
X-243333Y165999D02*
X-245999D01*
X-244666D01*
Y159334D01*
X-245999Y158001D01*
X-247332D01*
X-248664Y159334D01*
X-240667Y164666D02*
X-239334Y165999D01*
X-236668D01*
X-235336Y164666D01*
Y163333D01*
X-236668Y162000D01*
X-235336Y160667D01*
Y159334D01*
X-236668Y158001D01*
X-239334D01*
X-240667Y159334D01*
Y160667D01*
X-239334Y162000D01*
X-240667Y163333D01*
Y164666D01*
X-239334Y162000D02*
X-236668D01*
X-243333Y384999D02*
X-245999D01*
X-244666D01*
Y378334D01*
X-245999Y377001D01*
X-247332D01*
X-248664Y378334D01*
X-235336Y384999D02*
X-238001Y383666D01*
X-240667Y381000D01*
Y378334D01*
X-239334Y377001D01*
X-236668D01*
X-235336Y378334D01*
Y379667D01*
X-236668Y381000D01*
X-240667D01*
X238667Y383999D02*
X236001D01*
X237334D01*
Y377334D01*
X236001Y376001D01*
X234668D01*
X233335Y377334D01*
X241333Y383999D02*
X246665D01*
Y382666D01*
X241333Y377334D01*
Y376001D01*
X239667Y208999D02*
X237001D01*
X238334D01*
Y202334D01*
X237001Y201001D01*
X235668D01*
X234335Y202334D01*
X242333D02*
X243666Y201001D01*
X246332D01*
X247665Y202334D01*
Y207666D01*
X246332Y208999D01*
X243666D01*
X242333Y207666D01*
Y206333D01*
X243666Y205000D01*
X247665D01*
X140003Y179999D02*
X142669D01*
X141336D01*
Y172001D01*
X140003D01*
X142669D01*
X151999Y178666D02*
X150667Y179999D01*
X148001D01*
X146668Y178666D01*
Y173334D01*
X148001Y172001D01*
X150667D01*
X151999Y173334D01*
X159997Y172001D02*
X154665D01*
X159997Y177333D01*
Y178666D01*
X158664Y179999D01*
X155998D01*
X154665Y178666D01*
X198335Y108666D02*
X197002Y109999D01*
X194336D01*
X193003Y108666D01*
Y103334D01*
X194336Y102001D01*
X197002D01*
X198335Y103334D01*
X201001Y102001D02*
X203666D01*
X202334D01*
Y109999D01*
X201001Y108666D01*
X212997Y109999D02*
X210331Y108666D01*
X207665Y106000D01*
Y103334D01*
X208998Y102001D01*
X211664D01*
X212997Y103334D01*
Y104667D01*
X211664Y106000D01*
X207665D01*
X198335Y118666D02*
X197002Y119999D01*
X194336D01*
X193003Y118666D01*
Y113334D01*
X194336Y112001D01*
X197002D01*
X198335Y113334D01*
X201001Y112001D02*
X203666D01*
X202334D01*
Y119999D01*
X201001Y118666D01*
X207665Y119999D02*
X212997D01*
Y118666D01*
X207665Y113334D01*
Y112001D01*
X192335Y134666D02*
X191002Y135999D01*
X188336D01*
X187003Y134666D01*
Y129334D01*
X188336Y128001D01*
X191002D01*
X192335Y129334D01*
X195001Y128001D02*
X197666D01*
X196334D01*
Y135999D01*
X195001Y134666D01*
X201665D02*
X202998Y135999D01*
X205664D01*
X206997Y134666D01*
Y133333D01*
X205664Y132000D01*
X206997Y130667D01*
Y129334D01*
X205664Y128001D01*
X202998D01*
X201665Y129334D01*
Y130667D01*
X202998Y132000D01*
X201665Y133333D01*
Y134666D01*
X202998Y132000D02*
X205664D01*
X189280Y178971D02*
X187948Y180304D01*
X185282D01*
X183949Y178971D01*
Y173640D01*
X185282Y172307D01*
X187948D01*
X189280Y173640D01*
X191946Y172307D02*
X194612D01*
X193279D01*
Y180304D01*
X191946Y178971D01*
X198611Y173640D02*
X199944Y172307D01*
X202610D01*
X203942Y173640D01*
Y178971D01*
X202610Y180304D01*
X199944D01*
X198611Y178971D01*
Y177638D01*
X199944Y176306D01*
X203942D01*
X137668Y194666D02*
X136335Y195999D01*
X133670D01*
X132337Y194666D01*
Y189334D01*
X133670Y188001D01*
X136335D01*
X137668Y189334D01*
X145666Y188001D02*
X140334D01*
X145666Y193333D01*
Y194666D01*
X144333Y195999D01*
X141667D01*
X140334Y194666D01*
X148332D02*
X149664Y195999D01*
X152330D01*
X153663Y194666D01*
Y189334D01*
X152330Y188001D01*
X149664D01*
X148332Y189334D01*
Y194666D01*
X129335Y112999D02*
Y105001D01*
X134667D01*
X142664Y112999D02*
X137333D01*
Y109000D01*
X139999Y110333D01*
X141332D01*
X142664Y109000D01*
Y106334D01*
X141332Y105001D01*
X138666D01*
X137333Y106334D01*
X125999Y135337D02*
X118001D01*
Y139335D01*
X119334Y140668D01*
X122000D01*
X123333Y139335D01*
Y135337D01*
Y138003D02*
X125999Y140668D01*
X119334Y143334D02*
X118001Y144667D01*
Y147333D01*
X119334Y148666D01*
X120667D01*
X122000Y147333D01*
Y146000D01*
Y147333D01*
X123333Y148666D01*
X124666D01*
X125999Y147333D01*
Y144667D01*
X124666Y143334D01*
X119334Y151332D02*
X118001Y152664D01*
Y155330D01*
X119334Y156663D01*
X124666D01*
X125999Y155330D01*
Y152664D01*
X124666Y151332D01*
X119334D01*
X125999Y165670D02*
X118001D01*
Y169668D01*
X119334Y171001D01*
X122000D01*
X123333Y169668D01*
Y165670D01*
Y168335D02*
X125999Y171001D01*
X119334Y173667D02*
X118001Y175000D01*
Y177666D01*
X119334Y178999D01*
X120667D01*
X122000Y177666D01*
Y176333D01*
Y177666D01*
X123333Y178999D01*
X124666D01*
X125999Y177666D01*
Y175000D01*
X124666Y173667D01*
X125999Y181665D02*
Y184330D01*
Y182997D01*
X118001D01*
X119334Y181665D01*
G54D11*
X183600Y-93650D02*
X181725Y-92568D01*
Y-94733D01*
X183600Y-93650D01*
X88750Y-160000D02*
X86875Y-158918D01*
Y-161083D01*
X88750Y-160000D01*
X82250Y-178000D02*
X80375Y-176917D01*
Y-179083D01*
X82250Y-178000D01*
X-93437Y-146001D02*
X-95312Y-144918D01*
Y-147084D01*
X-93437Y-146001D01*
G54D12*
X-65500Y221000D02*
X-67500D01*
X-65500D01*
X109914Y-155000D02*
X107793Y-153775D01*
Y-156225D01*
X109914Y-155000D01*
X10328Y-193000D02*
X8336Y-191850D01*
Y-194150D01*
X10328Y-193000D01*
X-124583Y-184501D02*
X-126583D01*
X-124583D01*
X-124583Y-153251D02*
X-126583D01*
X-124583D01*
X183111Y-159283D02*
X181280D01*
X183111D01*
X-25500Y328000D02*
X-27500D01*
X-25500D01*
X-74273Y-124001D02*
X-76394Y-122776D01*
Y-125226D01*
X-74273Y-124001D01*
X-141244Y188220D02*
Y223780D01*
X-105684D01*
X-141244Y188220D02*
X-105684D01*
Y223780D01*
X-35500Y-234500D02*
Y-41500D01*
X121500Y-234500D02*
Y-41500D01*
X-35500D02*
X121500D01*
X-35500Y-234500D02*
X121500D01*
X-194000D02*
Y-41500D01*
X-37000Y-234500D02*
Y-41500D01*
X-194000D02*
X-37000D01*
X-194000Y-234500D02*
X-37000D01*
G54D13*
X13004Y67503D02*
X11005D01*
X13004D01*
X126500Y-136000D02*
X124500D01*
X126500D01*
X-149500Y108125D02*
X-149595Y110666D01*
X-149880Y113192D01*
X-150352Y115691D01*
X-151011Y118147D01*
X-151850Y120547D01*
X-152867Y122877D01*
X-154055Y125125D01*
X-155408Y127278D01*
X-156918Y129324D01*
X-158576Y131251D01*
X-160374Y133049D01*
X-162301Y134707D01*
X-164347Y136217D01*
X-166500Y137570D01*
X-168748Y138758D01*
X-171078Y139775D01*
X-173478Y140615D01*
X-175934Y141272D01*
X-178433Y141745D01*
X-180959Y142030D01*
X-183500Y142125D01*
X-186041Y142030D01*
X-188568Y141745D01*
X-191066Y141272D01*
X-193522Y140615D01*
X-195922Y139775D01*
X-198252Y138758D01*
X-200500Y137570D01*
X-202653Y136217D01*
X-204699Y134707D01*
X-206626Y133049D01*
X-208424Y131251D01*
X-210082Y129324D01*
X-211592Y127278D01*
X-212945Y125125D01*
X-214133Y122877D01*
X-215150Y120547D01*
X-215989Y118147D01*
X-216648Y115691D01*
X-217120Y113192D01*
X-217405Y110666D01*
X-217500Y108125D01*
X-217405Y105584D01*
X-217120Y103057D01*
X-216648Y100559D01*
X-215989Y98103D01*
X-215150Y95703D01*
X-214133Y93373D01*
X-212945Y91125D01*
X-211592Y88972D01*
X-210082Y86926D01*
X-208424Y84999D01*
X-206626Y83201D01*
X-204699Y81543D01*
X-202653Y80033D01*
X-200500Y78680D01*
X-198252Y77492D01*
X-195922Y76475D01*
X-193522Y75635D01*
X-191066Y74977D01*
X-188567Y74505D01*
X-186041Y74220D01*
X-183500Y74125D01*
X-180959Y74220D01*
X-178433Y74505D01*
X-175934Y74977D01*
X-173478Y75635D01*
X-171078Y76475D01*
X-168748Y77492D01*
X-166500Y78680D01*
X-164347Y80033D01*
X-162301Y81543D01*
X-160374Y83201D01*
X-158576Y84999D01*
X-156918Y86926D01*
X-155408Y88972D01*
X-154055Y91125D01*
X-152867Y93373D01*
X-151850Y95703D01*
X-151011Y98103D01*
X-150352Y100559D01*
X-149880Y103057D01*
X-149595Y105584D01*
X-149500Y108125D01*
X-169679Y95875D02*
X-159519D01*
X-164599Y90795D02*
Y100955D01*
X50500Y142500D02*
Y144500D01*
Y146500D01*
X44500Y142500D02*
Y146500D01*
X-82500Y-242000D02*
X-80500Y-242000D01*
X-82500Y-272000D02*
Y-242000D01*
Y-272000D02*
X-80500Y-272000D01*
X-51500Y-272000D02*
Y-265000D01*
X-53500Y-272000D02*
X-51500Y-272000D01*
X97250Y-8000D02*
X99250D01*
Y22000D01*
X97250D02*
X99250D01*
X68250Y-8000D02*
X70250D01*
X68250D02*
Y-1000D01*
Y15000D02*
Y22000D01*
X70250D01*
X182500Y283000D02*
X184500D01*
X186500D01*
X182500Y289000D02*
X186500D01*
X182900Y228600D02*
X184900D01*
X186900D01*
X182900Y234600D02*
X186900D01*
X181500Y66000D02*
Y68000D01*
Y64000D02*
Y66000D01*
X187500Y64000D02*
Y68000D01*
X130500Y-162500D02*
Y-160500D01*
Y-164500D02*
Y-162500D01*
X136500Y-164500D02*
Y-160500D01*
X150500Y-99000D02*
X152500D01*
X148500D02*
X150500D01*
X148500Y-105000D02*
X152500D01*
X143500Y-162500D02*
Y-160500D01*
Y-164500D02*
Y-162500D01*
X149500Y-164500D02*
Y-160500D01*
X48500Y80000D02*
Y82000D01*
Y84000D01*
X42500Y80000D02*
Y84000D01*
X-216000Y-89000D02*
X-214000D01*
X-212000D01*
X-216000Y-83000D02*
X-212000D01*
X-216000Y-64000D02*
X-214000D01*
X-212000D01*
X-216000Y-58000D02*
X-212000D01*
X175500Y-92000D02*
Y-90000D01*
Y-88000D01*
X169500Y-92000D02*
Y-88000D01*
X163500Y-26000D02*
Y-24000D01*
Y-28000D02*
Y-26000D01*
X169500Y-28000D02*
Y-24000D01*
X-88128Y-272000D02*
X-86128D01*
Y-242000D01*
X-88128D02*
X-86128D01*
X179960Y-200710D02*
Y-192246D01*
X179978Y-248210D02*
Y-239746D01*
X175746Y-243978D02*
X184210D01*
G54D14*
X-139524Y272526D02*
D03*
X-160500Y31125D02*
D03*
X173500Y-52000D02*
D03*
X182500Y-60000D02*
D03*
X-218500Y-138500D02*
D03*
X-213500Y-185500D02*
D03*
X-146500Y263500D02*
D03*
G54D15*
X-24500Y173000D02*
X-26500D01*
X-24500D01*
X-175500Y19625D02*
X-171000Y24125D01*
X-175500Y28625D02*
X-171000Y24125D01*
X194250Y-7130D02*
X197660D01*
X177340D02*
X180750D01*
X197660D02*
Y39860D01*
X177340Y-7130D02*
Y39860D01*
X190040D02*
X197660D01*
X190040D02*
Y41130D01*
X197660D01*
Y39860D02*
Y41130D01*
X177340Y39860D02*
Y41130D01*
X184960D01*
Y39860D02*
Y41130D01*
X177340Y39860D02*
X184960D01*
X41250Y132750D02*
Y156250D01*
X53750D01*
Y132750D02*
Y156250D01*
X41250Y132750D02*
X53750D01*
X9548Y-207470D02*
X11316Y-205702D01*
X7780D02*
X9548Y-207470D01*
X7780Y-205702D02*
X9548Y-203934D01*
X11316Y-205702D01*
X0Y171750D02*
Y175500D01*
X-4000D02*
X0D01*
X-23000D02*
X-19000D01*
X-23000Y171750D02*
Y175500D01*
Y152500D02*
X-19000D01*
X-23000D02*
Y156250D01*
X-4000Y152500D02*
X0D01*
Y156250D01*
X41500Y108500D02*
X53500D01*
Y132500D01*
X41500D02*
X53500D01*
X41500Y108500D02*
Y132500D01*
X43500Y118500D02*
X47500Y122500D01*
X51500Y118500D01*
X154500Y205500D02*
Y218500D01*
X129500D02*
X154500D01*
X129500Y205500D02*
Y218500D01*
Y205500D02*
X154500D01*
X181818Y-156819D02*
X199046D01*
Y-139203D01*
X181818D02*
X199046D01*
X181818Y-156819D02*
Y-139203D01*
X200500Y29000D02*
X212500D01*
Y53000D01*
X200500D02*
X212500D01*
X200500Y29000D02*
Y53000D01*
X202500Y39000D02*
X206500Y43000D01*
X210500Y39000D01*
X125500Y-245000D02*
X137500D01*
Y-221000D01*
X125500D02*
X137500D01*
X125500Y-245000D02*
Y-221000D01*
X127500Y-235000D02*
X131500Y-231000D01*
X135500Y-235000D01*
X137500Y-221000D02*
X149500D01*
X137500Y-245000D02*
Y-221000D01*
Y-245000D02*
X149500D01*
Y-221000D01*
X143500Y-235000D02*
X147500Y-231000D01*
X139500D02*
X143500Y-235000D01*
X223000Y-7500D02*
Y5500D01*
X198000D02*
X223000D01*
X198000Y-7500D02*
Y5500D01*
Y-7500D02*
X223000D01*
X-76000Y334500D02*
X-63000D01*
Y359500D01*
X-76000D02*
X-63000D01*
X-76000Y334500D02*
Y359500D01*
X172750Y292250D02*
X196250D01*
Y279750D02*
Y292250D01*
X172750Y279750D02*
X196250D01*
X172750D02*
Y292250D01*
X173150Y237850D02*
X196650D01*
Y225350D02*
Y237850D01*
X173150Y225350D02*
X196650D01*
X173150D02*
Y237850D01*
X190750Y54250D02*
Y77750D01*
X178250Y54250D02*
X190750D01*
X178250D02*
Y77750D01*
X190750D01*
X139750Y-174250D02*
Y-150750D01*
X127250Y-174250D02*
X139750D01*
X127250D02*
Y-150750D01*
X139750D01*
X138750Y-108250D02*
X162250D01*
X138750D02*
Y-95750D01*
X162250D01*
Y-108250D02*
Y-95750D01*
X152750Y-174250D02*
Y-150750D01*
X140250Y-174250D02*
X152750D01*
X140250D02*
Y-150750D01*
X152750D01*
X39250Y70250D02*
Y93750D01*
X51750D01*
Y70250D02*
Y93750D01*
X39250Y70250D02*
X51750D01*
X-225750Y-79750D02*
X-202250D01*
Y-92250D02*
Y-79750D01*
X-225750Y-92250D02*
X-202250D01*
X-225750D02*
Y-79750D01*
Y-54750D02*
X-202250D01*
Y-67250D02*
Y-54750D01*
X-225750Y-67250D02*
X-202250D01*
X-225750D02*
Y-54750D01*
X166250Y-101750D02*
Y-78250D01*
X178750D01*
Y-101750D02*
Y-78250D01*
X166250Y-101750D02*
X178750D01*
X172750Y-37750D02*
Y-14250D01*
X160250Y-37750D02*
X172750D01*
X160250D02*
Y-14250D01*
X172750D01*
X-112187Y-70501D02*
X-99187D01*
X-112187Y-95501D02*
Y-70501D01*
Y-95501D02*
X-99187D01*
Y-70501D01*
X71000Y-75500D02*
Y-62500D01*
X46000D02*
X71000D01*
X46000Y-75500D02*
Y-62500D01*
Y-75500D02*
X71000D01*
X129502Y90390D02*
Y103390D01*
Y90390D02*
X154502D01*
Y103390D01*
X129502D02*
X154502D01*
X20836Y-169499D02*
Y-162501D01*
X24335D01*
X25501Y-163667D01*
Y-166000D01*
X24335Y-167166D01*
X20836D01*
X23168D02*
X25501Y-169499D01*
X27834Y-162501D02*
X32499D01*
Y-163667D01*
X27834Y-168333D01*
Y-169499D01*
X34832D02*
X37164D01*
X35998D01*
Y-162501D01*
X34832Y-163667D01*
X11188Y-183227D02*
X10022Y-182060D01*
X7689D01*
X6523Y-183227D01*
Y-187892D01*
X7689Y-189058D01*
X10022D01*
X11188Y-187892D01*
X13520D02*
X14687Y-189058D01*
X17019D01*
X18186Y-187892D01*
Y-183227D01*
X17019Y-182060D01*
X14687D01*
X13520Y-183227D01*
Y-184393D01*
X14687Y-185559D01*
X18186D01*
X20518Y-183227D02*
X21684Y-182060D01*
X24017D01*
X25183Y-183227D01*
Y-187892D01*
X24017Y-189058D01*
X21684D01*
X20518Y-187892D01*
Y-183227D01*
G54D16*
X185796Y-196424D02*
X185217Y-193889D01*
X183596Y-191857D01*
X181254Y-190728D01*
X178654D01*
X176312Y-191857D01*
X174690Y-193889D01*
X174112Y-196424D01*
X174690Y-198959D01*
X176312Y-200991D01*
X178654Y-202120D01*
X181254D01*
X183596Y-200991D01*
X185217Y-198959D01*
X185796Y-196424D01*
X185842Y-244000D02*
X185264Y-241465D01*
X183642Y-239433D01*
X181300Y-238305D01*
X178700D01*
X176358Y-239433D01*
X174736Y-241465D01*
X174158Y-244000D01*
X174736Y-246535D01*
X176358Y-248567D01*
X178700Y-249695D01*
X181300D01*
X183642Y-248567D01*
X185264Y-246535D01*
X185842Y-244000D01*
X243000Y-396650D02*
Y-281350D01*
X-97000Y-396650D02*
Y-302885D01*
X213635Y-281350D02*
X243000D01*
X-84865D02*
X-51135D01*
X-32865D02*
X4365D01*
X45635D02*
X171365D01*
X214635Y-396650D02*
X243000D01*
X-20865D02*
X172365D01*
X-97000D02*
X-63135D01*
X-208000Y-302559D02*
Y-287000D01*
X-207000Y-375000D02*
Y-322707D01*
X-260000Y-411500D02*
X-207700D01*
X-260000Y-274000D02*
X-225835D01*
X-260000Y-353865D02*
Y-274000D01*
Y-411500D02*
Y-394135D01*
X-207700Y-411500D02*
Y-394135D01*
X-261500Y-251000D02*
Y-237000D01*
X-256500Y-251000D02*
Y-237000D01*
X-261500D02*
X-256500D01*
Y-201000D01*
Y-165000D01*
X-261500D02*
X-256500D01*
Y-151000D01*
X-215500Y-251000D02*
Y-151000D01*
X-261500D02*
X-215500D01*
X-261500Y-251000D02*
X-215500D01*
X-261500Y-165000D02*
Y-151000D01*
X139500Y169000D02*
X142300D01*
X139500Y166200D02*
Y169000D01*
X166700Y139000D02*
X169500D01*
Y141800D01*
X166700Y169000D02*
X169500D01*
Y166200D02*
Y169000D01*
X139500Y139000D02*
X142300D01*
X139500D02*
Y141800D01*
G54D17*
X-113410Y-11000D02*
X-43500D01*
X-113500Y91000D02*
X-43590D01*
X118500Y427500D02*
X138500D01*
X118500Y407500D02*
Y427500D01*
X3500Y390500D02*
Y427500D01*
X23500D01*
Y390500D02*
Y427500D01*
X48500D01*
Y407500D02*
Y427500D01*
Y407500D02*
X73500D01*
Y427500D01*
X98500D01*
Y407500D02*
Y427500D01*
Y407500D02*
X118500D01*
G54D18*
X-215000Y-252000D02*
X-209000D01*
X-202500Y-258500D01*
X-68500Y276000D02*
X-68500D01*
X-64500Y272000D01*
X-119500Y276000D02*
X-68500D01*
X-202500Y-299000D02*
Y-258500D01*
Y-299000D02*
X-200000Y-301500D01*
X-123500Y280000D02*
X-119500Y276000D01*
X-68500D02*
X-68500D01*
G54D19*
X-150809Y190478D02*
Y193017D01*
Y191748D01*
X-143191D01*
Y190478D01*
Y193017D01*
X-149539Y201904D02*
X-150809Y200635D01*
Y198096D01*
X-149539Y196826D01*
X-144461D01*
X-143191Y198096D01*
Y200635D01*
X-144461Y201904D01*
X-150809Y209522D02*
Y204444D01*
X-147000D01*
X-148270Y206983D01*
Y208252D01*
X-147000Y209522D01*
X-144461D01*
X-143191Y208252D01*
Y205713D01*
X-144461Y204444D01*
X26922Y184809D02*
Y183539D01*
X29461Y181000D01*
X32000Y183539D01*
Y184809D01*
X29461Y181000D02*
Y177191D01*
X34539D02*
X37078D01*
X35809D01*
Y184809D01*
X34539Y183539D01*
X214863Y-407809D02*
Y-402730D01*
X217402Y-400191D01*
X219941Y-402730D01*
Y-407809D01*
Y-404000D01*
X214863D01*
X222480Y-407809D02*
Y-400191D01*
X227559Y-407809D01*
Y-400191D01*
X230098Y-407809D02*
X232637D01*
X231367D01*
Y-400191D01*
X230098Y-401461D01*
X-259077Y-270509D02*
Y-265430D01*
X-256537Y-262891D01*
X-253998Y-265430D01*
Y-270509D01*
Y-266700D01*
X-259077D01*
X-251459Y-270509D02*
Y-262891D01*
X-246381Y-270509D01*
Y-262891D01*
X-238763Y-270509D02*
X-243842D01*
X-238763Y-265430D01*
Y-264161D01*
X-240033Y-262891D01*
X-242572D01*
X-243842Y-264161D01*
X218500Y385809D02*
X215961D01*
X217230D01*
Y379461D01*
X215961Y378191D01*
X214691D01*
X213422Y379461D01*
X221039Y378191D02*
X223578D01*
X222309D01*
Y385809D01*
X221039Y384539D01*
X255691Y-3270D02*
Y-5809D01*
Y-4539D01*
X262039D01*
X263309Y-5809D01*
Y-7078D01*
X262039Y-8348D01*
X263309Y4348D02*
Y-730D01*
X258230Y4348D01*
X256961D01*
X255691Y3078D01*
Y539D01*
X256961Y-730D01*
X-73039Y209730D02*
X-74309Y208461D01*
Y205922D01*
X-73039Y204652D01*
X-71770D01*
X-70500Y205922D01*
Y208461D01*
X-69230Y209730D01*
X-67961D01*
X-66691Y208461D01*
Y205922D01*
X-67961Y204652D01*
X-73039Y212270D02*
X-74309Y213539D01*
Y216078D01*
X-73039Y217348D01*
X-71770D01*
X-70500Y216078D01*
Y214809D01*
Y216078D01*
X-69230Y217348D01*
X-67961D01*
X-66691Y216078D01*
Y213539D01*
X-67961Y212270D01*
X52691Y-19522D02*
X60309D01*
Y-15713D01*
X59039Y-14444D01*
X53961D01*
X52691Y-15713D01*
Y-19522D01*
X60309Y-11904D02*
Y-9365D01*
Y-10635D01*
X52691D01*
X53961Y-11904D01*
Y-5556D02*
X52691Y-4287D01*
Y-1748D01*
X53961Y-478D01*
X59039D01*
X60309Y-1748D01*
Y-4287D01*
X59039Y-5556D01*
X53961D01*
X-7770Y60461D02*
Y65539D01*
X-9039Y66809D01*
X-11578D01*
X-12848Y65539D01*
Y60461D01*
X-11578Y59191D01*
X-9039D01*
X-10309Y61730D02*
X-7770Y59191D01*
X-9039D02*
X-7770Y60461D01*
X-5230Y65539D02*
X-3961Y66809D01*
X-1422D01*
X-152Y65539D01*
Y64270D01*
X-1422Y63000D01*
X-2691D01*
X-1422D01*
X-152Y61730D01*
Y60461D01*
X-1422Y59191D01*
X-3961D01*
X-5230Y60461D01*
X125191Y-110252D02*
Y-107713D01*
Y-108983D01*
X132809D01*
Y-110252D01*
Y-107713D01*
X126461Y-98826D02*
X125191Y-100096D01*
Y-102635D01*
X126461Y-103904D01*
X131539D01*
X132809Y-102635D01*
Y-100096D01*
X131539Y-98826D01*
X132809Y-96287D02*
Y-93748D01*
Y-95017D01*
X125191D01*
X126461Y-96287D01*
X128730Y24461D02*
Y29539D01*
X127461Y30809D01*
X124922D01*
X123652Y29539D01*
Y24461D01*
X124922Y23191D01*
X127461D01*
X126191Y25730D02*
X128730Y23191D01*
X127461D02*
X128730Y24461D01*
X136348Y30809D02*
X131270D01*
Y27000D01*
X133809Y28270D01*
X135078D01*
X136348Y27000D01*
Y24461D01*
X135078Y23191D01*
X132539D01*
X131270Y24461D01*
X-123309Y253478D02*
X-115691D01*
Y257287D01*
X-116961Y258556D01*
X-122039D01*
X-123309Y257287D01*
Y253478D01*
X-115691Y261096D02*
Y263635D01*
Y262365D01*
X-123309D01*
X-122039Y261096D01*
X-115691Y272522D02*
Y267444D01*
X-120770Y272522D01*
X-122039D01*
X-123309Y271252D01*
Y268713D01*
X-122039Y267444D01*
X-158848Y27809D02*
Y20191D01*
X-155039D01*
X-153770Y21461D01*
Y26539D01*
X-155039Y27809D01*
X-158848D01*
X-151230Y21461D02*
X-149961Y20191D01*
X-147422D01*
X-146152Y21461D01*
Y26539D01*
X-147422Y27809D01*
X-149961D01*
X-151230Y26539D01*
Y25270D01*
X-149961Y24000D01*
X-146152D01*
X182152Y50809D02*
Y43191D01*
X185961D01*
X187230Y44461D01*
Y49539D01*
X185961Y50809D01*
X182152D01*
X193578Y43191D02*
Y50809D01*
X189770Y47000D01*
X194848D01*
X-121848Y103809D02*
Y97461D01*
X-120578Y96191D01*
X-118039D01*
X-116770Y97461D01*
Y103809D01*
X-109152Y96191D02*
X-114230D01*
X-109152Y101270D01*
Y102539D01*
X-110422Y103809D01*
X-112961D01*
X-114230Y102539D01*
X-28809Y-31461D02*
X-30078Y-30191D01*
X-32617D01*
X-33887Y-31461D01*
Y-32730D01*
X-32617Y-34000D01*
X-30078D01*
X-28809Y-35270D01*
Y-36539D01*
X-30078Y-37809D01*
X-32617D01*
X-33887Y-36539D01*
X-26270Y-30191D02*
Y-37809D01*
Y-34000D01*
X-21191D01*
Y-30191D01*
Y-37809D01*
X-18652D02*
X-16113D01*
X-17383D01*
Y-30191D01*
X-18652Y-31461D01*
X-207770Y72539D02*
X-209039Y73809D01*
X-211578D01*
X-212848Y72539D01*
Y67461D01*
X-211578Y66191D01*
X-209039D01*
X-207770Y67461D01*
X-205230Y72539D02*
X-203961Y73809D01*
X-201422D01*
X-200152Y72539D01*
Y71270D01*
X-201422Y70000D01*
X-200152Y68730D01*
Y67461D01*
X-201422Y66191D01*
X-203961D01*
X-205230Y67461D01*
Y68730D01*
X-203961Y70000D01*
X-205230Y71270D01*
Y72539D01*
X-203961Y70000D02*
X-201422D01*
X230309Y-169157D02*
X222691D01*
Y-165348D01*
X223961Y-164078D01*
X226500D01*
X227770Y-165348D01*
Y-169157D01*
Y-166618D02*
X230309Y-164078D01*
Y-157730D02*
X222691D01*
X226500Y-161539D01*
Y-156461D01*
X222691Y-153922D02*
Y-148843D01*
X223961D01*
X229039Y-153922D01*
X230309D01*
X64309Y134843D02*
X56691D01*
Y138652D01*
X57961Y139922D01*
X60500D01*
X61770Y138652D01*
Y134843D01*
Y137382D02*
X64309Y139922D01*
Y147539D02*
Y142461D01*
X59230Y147539D01*
X57961D01*
X56691Y146270D01*
Y143730D01*
X57961Y142461D01*
Y150078D02*
X56691Y151348D01*
Y153887D01*
X57961Y155157D01*
X59230D01*
X60500Y153887D01*
Y152618D01*
Y153887D01*
X61770Y155157D01*
X63039D01*
X64309Y153887D01*
Y151348D01*
X63039Y150078D01*
X26501Y-152747D02*
Y-150415D01*
Y-151581D01*
X33499D01*
Y-152747D01*
Y-150415D01*
X27667Y-142251D02*
X26501Y-143417D01*
Y-145749D01*
X27667Y-146916D01*
X32332D01*
X33499Y-145749D01*
Y-143417D01*
X32332Y-142251D01*
X26501Y-135253D02*
X27667Y-137585D01*
X30000Y-139918D01*
X32332D01*
X33499Y-138752D01*
Y-136419D01*
X32332Y-135253D01*
X31166D01*
X30000Y-136419D01*
Y-139918D01*
X52067Y-215359D02*
X54606D01*
X53336D01*
Y-222976D01*
X52067D01*
X54606D01*
X63493Y-216628D02*
X62223Y-215359D01*
X59684D01*
X58415Y-216628D01*
Y-221707D01*
X59684Y-222976D01*
X62223D01*
X63493Y-221707D01*
X66032Y-215359D02*
X71111D01*
Y-216628D01*
X66032Y-221707D01*
Y-222976D01*
X111191Y-144348D02*
X112461D01*
X115000Y-141809D01*
X112461Y-139270D01*
X111191D01*
X115000Y-141809D02*
X118809D01*
Y-131652D02*
Y-136730D01*
X113730Y-131652D01*
X112461D01*
X111191Y-132922D01*
Y-135461D01*
X112461Y-136730D01*
X-21284Y-199898D02*
X-24875Y-203489D01*
X-22182Y-206182D01*
X-20386Y-204386D01*
X-22182Y-206182D01*
X-19489Y-208875D01*
Y-198102D02*
X-14102Y-203489D01*
X-10511Y-199898D01*
X-5125Y-194511D02*
X-8716Y-198102D01*
Y-190920D01*
X-9614Y-190023D01*
X-11409D01*
X-13204Y-191818D01*
Y-193614D01*
X-202022Y156809D02*
X-199483D01*
X-200752D01*
Y149191D01*
X-202022D01*
X-199483D01*
X-190596Y155539D02*
X-191865Y156809D01*
X-194404D01*
X-195674Y155539D01*
Y150461D01*
X-194404Y149191D01*
X-191865D01*
X-190596Y150461D01*
X-184248Y149191D02*
Y156809D01*
X-188056Y153000D01*
X-182978D01*
X-34312Y150475D02*
Y153014D01*
Y151744D01*
X-26694D01*
Y150475D01*
Y153014D01*
X-33042Y161901D02*
X-34312Y160632D01*
Y158092D01*
X-33042Y156823D01*
X-27964D01*
X-26694Y158092D01*
Y160632D01*
X-27964Y161901D01*
X-33042Y164440D02*
X-34312Y165710D01*
Y168249D01*
X-33042Y169519D01*
X-31773D01*
X-30503Y168249D01*
Y166980D01*
Y168249D01*
X-29233Y169519D01*
X-27964D01*
X-26694Y168249D01*
Y165710D01*
X-27964Y164440D01*
X56691Y110478D02*
X64309D01*
Y114287D01*
X63039Y115556D01*
X57961D01*
X56691Y114287D01*
Y110478D01*
X64309Y118096D02*
Y120635D01*
Y119365D01*
X56691D01*
X57961Y118096D01*
Y124444D02*
X56691Y125713D01*
Y128252D01*
X57961Y129522D01*
X59230D01*
X60500Y128252D01*
Y126983D01*
Y128252D01*
X61770Y129522D01*
X63039D01*
X64309Y128252D01*
Y125713D01*
X63039Y124444D01*
X93478Y-81191D02*
Y-88809D01*
X98556D01*
X101096D02*
X103635D01*
X102365D01*
Y-81191D01*
X101096Y-82461D01*
X107444D02*
X108713Y-81191D01*
X111252D01*
X112522Y-82461D01*
Y-83730D01*
X111252Y-85000D01*
X109983D01*
X111252D01*
X112522Y-86270D01*
Y-87539D01*
X111252Y-88809D01*
X108713D01*
X107444Y-87539D01*
X42691Y-10825D02*
X50309D01*
Y-5747D01*
X42691Y-3207D02*
Y1871D01*
X43961D01*
X49039Y-3207D01*
X50309D01*
X-137809Y-203078D02*
Y-208157D01*
X-134000D01*
Y-205618D01*
Y-208157D01*
X-130191D01*
X-137809Y-200539D02*
X-130191D01*
Y-195461D01*
Y-189113D02*
X-137809D01*
X-134000Y-192922D01*
Y-187843D01*
X-137809Y-174078D02*
Y-179157D01*
X-134000D01*
Y-176618D01*
Y-179157D01*
X-130191D01*
X-137809Y-171539D02*
X-130191D01*
Y-166461D01*
X-136539Y-163922D02*
X-137809Y-162652D01*
Y-160113D01*
X-136539Y-158843D01*
X-135270D01*
X-134000Y-160113D01*
Y-161382D01*
Y-160113D01*
X-132730Y-158843D01*
X-131461D01*
X-130191Y-160113D01*
Y-162652D01*
X-131461Y-163922D01*
X-123770Y383809D02*
X-126309D01*
X-125039D01*
Y377461D01*
X-126309Y376191D01*
X-127578D01*
X-128848Y377461D01*
X-117422Y376191D02*
Y383809D01*
X-121230Y380000D01*
X-116152D01*
X252191Y-169270D02*
Y-171809D01*
Y-170539D01*
X258539D01*
X259809Y-171809D01*
Y-173078D01*
X258539Y-174348D01*
X252191Y-161652D02*
Y-166730D01*
X256000D01*
X254730Y-164191D01*
Y-162922D01*
X256000Y-161652D01*
X258539D01*
X259809Y-162922D01*
Y-165461D01*
X258539Y-166730D01*
X170812Y-158446D02*
Y-155906D01*
Y-157176D01*
X178430D01*
Y-158446D01*
Y-155906D01*
X172082Y-147019D02*
X170812Y-148289D01*
Y-150828D01*
X172082Y-152098D01*
X177160D01*
X178430Y-150828D01*
Y-148289D01*
X177160Y-147019D01*
Y-144480D02*
X178430Y-143210D01*
Y-140671D01*
X177160Y-139402D01*
X172082D01*
X170812Y-140671D01*
Y-143210D01*
X172082Y-144480D01*
X173351D01*
X174621Y-143210D01*
Y-139402D01*
X82501Y-195499D02*
Y-200164D01*
X86000D01*
Y-197831D01*
Y-200164D01*
X89499D01*
X82501Y-193166D02*
X89499D01*
Y-188501D01*
Y-186168D02*
Y-183836D01*
Y-185002D01*
X82501D01*
X83667Y-186168D01*
X132691Y-210750D02*
Y-215828D01*
X136500D01*
Y-213289D01*
Y-215828D01*
X140309D01*
Y-208211D02*
Y-205672D01*
Y-206941D01*
X132691D01*
X133961Y-208211D01*
X135922Y229809D02*
Y223461D01*
X137191Y222191D01*
X139730D01*
X141000Y223461D01*
Y229809D01*
X143539Y222191D02*
X146078D01*
X144809D01*
Y229809D01*
X143539Y228539D01*
X153152Y-40191D02*
Y-47809D01*
X158230D01*
X160770Y-41461D02*
X162039Y-40191D01*
X164578D01*
X165848Y-41461D01*
Y-42730D01*
X164578Y-44000D01*
X163309D01*
X164578D01*
X165848Y-45270D01*
Y-46539D01*
X164578Y-47809D01*
X162039D01*
X160770Y-46539D01*
X-229870Y-252731D02*
X-232409D01*
X-231139D01*
Y-259079D01*
X-232409Y-260349D01*
X-233678D01*
X-234948Y-259079D01*
X-227330Y-254001D02*
X-226061Y-252731D01*
X-223522D01*
X-222252Y-254001D01*
Y-255270D01*
X-223522Y-256540D01*
X-224791D01*
X-223522D01*
X-222252Y-257810D01*
Y-259079D01*
X-223522Y-260349D01*
X-226061D01*
X-227330Y-259079D01*
X-129191Y-249078D02*
X-136809D01*
Y-245270D01*
X-135539Y-244000D01*
X-133000D01*
X-131730Y-245270D01*
Y-249078D01*
X-129191Y-241461D02*
Y-238922D01*
Y-240191D01*
X-136809D01*
X-135539Y-241461D01*
X-82539Y303000D02*
X-83809Y301730D01*
Y299191D01*
X-82539Y297922D01*
X-77461D01*
X-76191Y299191D01*
Y301730D01*
X-77461Y303000D01*
X-76191Y305539D02*
Y308078D01*
Y306809D01*
X-83809D01*
X-82539Y305539D01*
X161961Y-123270D02*
X160691Y-124539D01*
Y-127078D01*
X161961Y-128348D01*
X167039D01*
X168309Y-127078D01*
Y-124539D01*
X167039Y-123270D01*
X168309Y-115652D02*
Y-120730D01*
X163230Y-115652D01*
X161961D01*
X160691Y-116922D01*
Y-119461D01*
X161961Y-120730D01*
X-197444Y168539D02*
X-198713Y169809D01*
X-201252D01*
X-202522Y168539D01*
Y163461D01*
X-201252Y162191D01*
X-198713D01*
X-197444Y163461D01*
X-194904Y162191D02*
X-192365D01*
X-193635D01*
Y169809D01*
X-194904Y168539D01*
X-188556D02*
X-187287Y169809D01*
X-184748D01*
X-183478Y168539D01*
Y163461D01*
X-184748Y162191D01*
X-187287D01*
X-188556Y163461D01*
Y168539D01*
X205326Y25539D02*
X204056Y26809D01*
X201517D01*
X200248Y25539D01*
Y20461D01*
X201517Y19191D01*
X204056D01*
X205326Y20461D01*
X207865Y19191D02*
X210404D01*
X209135D01*
Y26809D01*
X207865Y25539D01*
X214213Y19191D02*
X216752D01*
X215483D01*
Y26809D01*
X214213Y25539D01*
X112056Y45539D02*
X110787Y46809D01*
X108248D01*
X106978Y45539D01*
Y40461D01*
X108248Y39191D01*
X110787D01*
X112056Y40461D01*
X114596Y39191D02*
X117135D01*
X115865D01*
Y46809D01*
X114596Y45539D01*
X120944D02*
X122213Y46809D01*
X124752D01*
X126022Y45539D01*
Y44270D01*
X124752Y43000D01*
X123483D01*
X124752D01*
X126022Y41730D01*
Y40461D01*
X124752Y39191D01*
X122213D01*
X120944Y40461D01*
X112056Y63539D02*
X110787Y64809D01*
X108248D01*
X106978Y63539D01*
Y58461D01*
X108248Y57191D01*
X110787D01*
X112056Y58461D01*
X114596Y57191D02*
X117135D01*
X115865D01*
Y64809D01*
X114596Y63539D01*
X124752Y57191D02*
Y64809D01*
X120944Y61000D01*
X126022D01*
X112056Y81539D02*
X110787Y82809D01*
X108248D01*
X106978Y81539D01*
Y76461D01*
X108248Y75191D01*
X110787D01*
X112056Y76461D01*
X114596Y75191D02*
X117135D01*
X115865D01*
Y82809D01*
X114596Y81539D01*
X126022Y82809D02*
X120944D01*
Y79000D01*
X123483Y80270D01*
X124752D01*
X126022Y79000D01*
Y76461D01*
X124752Y75191D01*
X122213D01*
X120944Y76461D01*
X-214539Y157730D02*
X-215809Y156461D01*
Y153922D01*
X-214539Y152652D01*
X-209461D01*
X-208191Y153922D01*
Y156461D01*
X-209461Y157730D01*
X-214539Y160270D02*
X-215809Y161539D01*
Y164078D01*
X-214539Y165348D01*
X-213270D01*
X-212000Y164078D01*
Y162809D01*
Y164078D01*
X-210730Y165348D01*
X-209461D01*
X-208191Y164078D01*
Y161539D01*
X-209461Y160270D01*
X-190770Y40539D02*
X-192039Y41809D01*
X-194578D01*
X-195848Y40539D01*
Y35461D01*
X-194578Y34191D01*
X-192039D01*
X-190770Y35461D01*
X-188230Y41809D02*
X-183152D01*
Y40539D01*
X-188230Y35461D01*
Y34191D01*
X-16039Y27730D02*
X-17309Y26461D01*
Y23922D01*
X-16039Y22652D01*
X-10961D01*
X-9691Y23922D01*
Y26461D01*
X-10961Y27730D01*
Y30270D02*
X-9691Y31539D01*
Y34078D01*
X-10961Y35348D01*
X-16039D01*
X-17309Y34078D01*
Y31539D01*
X-16039Y30270D01*
X-14770D01*
X-13500Y31539D01*
Y35348D01*
X212961Y197730D02*
X211691Y196461D01*
Y193922D01*
X212961Y192652D01*
X218039D01*
X219309Y193922D01*
Y196461D01*
X218039Y197730D01*
X211691Y205348D02*
Y200270D01*
X215500D01*
X214230Y202809D01*
Y204078D01*
X215500Y205348D01*
X218039D01*
X219309Y204078D01*
Y201539D01*
X218039Y200270D01*
X215961Y134730D02*
X214691Y133461D01*
Y130922D01*
X215961Y129652D01*
X221039D01*
X222309Y130922D01*
Y133461D01*
X221039Y134730D01*
X214691Y142348D02*
X215961Y139809D01*
X218500Y137270D01*
X221039D01*
X222309Y138539D01*
Y141078D01*
X221039Y142348D01*
X219770D01*
X218500Y141078D01*
Y137270D01*
X216461Y96730D02*
X215191Y95461D01*
Y92922D01*
X216461Y91652D01*
X221539D01*
X222809Y92922D01*
Y95461D01*
X221539Y96730D01*
X222809Y103078D02*
X215191D01*
X219000Y99270D01*
Y104348D01*
X216961Y48922D02*
X215691Y47652D01*
Y45113D01*
X216961Y43843D01*
X222039D01*
X223309Y45113D01*
Y47652D01*
X222039Y48922D01*
X223309Y56539D02*
Y51461D01*
X218230Y56539D01*
X216961D01*
X215691Y55270D01*
Y52730D01*
X216961Y51461D01*
Y59078D02*
X215691Y60348D01*
Y62887D01*
X216961Y64157D01*
X218230D01*
X219500Y62887D01*
Y61618D01*
Y62887D01*
X220770Y64157D01*
X222039D01*
X223309Y62887D01*
Y60348D01*
X222039Y59078D01*
X16461Y158922D02*
X15191Y157652D01*
Y155113D01*
X16461Y153843D01*
X21539D01*
X22809Y155113D01*
Y157652D01*
X21539Y158922D01*
X22809Y166539D02*
Y161461D01*
X17730Y166539D01*
X16461D01*
X15191Y165270D01*
Y162730D01*
X16461Y161461D01*
X22809Y172887D02*
X15191D01*
X19000Y169078D01*
Y174157D01*
X-139078Y172539D02*
X-140348Y173809D01*
X-142887D01*
X-144157Y172539D01*
Y167461D01*
X-142887Y166191D01*
X-140348D01*
X-139078Y167461D01*
X-131461Y166191D02*
X-136539D01*
X-131461Y171270D01*
Y172539D01*
X-132730Y173809D01*
X-135270D01*
X-136539Y172539D01*
X-123843Y173809D02*
X-128922D01*
Y170000D01*
X-126382Y171270D01*
X-125113D01*
X-123843Y170000D01*
Y167461D01*
X-125113Y166191D01*
X-127652D01*
X-128922Y167461D01*
X-112578Y233539D02*
X-113848Y234809D01*
X-116387D01*
X-117657Y233539D01*
Y228461D01*
X-116387Y227191D01*
X-113848D01*
X-112578Y228461D01*
X-104961Y227191D02*
X-110039D01*
X-104961Y232270D01*
Y233539D01*
X-106230Y234809D01*
X-108770D01*
X-110039Y233539D01*
X-97343Y234809D02*
X-99882Y233539D01*
X-102422Y231000D01*
Y228461D01*
X-101152Y227191D01*
X-98613D01*
X-97343Y228461D01*
Y229730D01*
X-98613Y231000D01*
X-102422D01*
X-36539Y389922D02*
X-37809Y388652D01*
Y386113D01*
X-36539Y384843D01*
X-31461D01*
X-30191Y386113D01*
Y388652D01*
X-31461Y389922D01*
X-30191Y397539D02*
Y392461D01*
X-35270Y397539D01*
X-36539D01*
X-37809Y396270D01*
Y393730D01*
X-36539Y392461D01*
X-37809Y400078D02*
Y405157D01*
X-36539D01*
X-31461Y400078D01*
X-30191D01*
X-55539Y389922D02*
X-56809Y388652D01*
Y386113D01*
X-55539Y384843D01*
X-50461D01*
X-49191Y386113D01*
Y388652D01*
X-50461Y389922D01*
X-49191Y397539D02*
Y392461D01*
X-54270Y397539D01*
X-55539D01*
X-56809Y396270D01*
Y393730D01*
X-55539Y392461D01*
Y400078D02*
X-56809Y401348D01*
Y403887D01*
X-55539Y405157D01*
X-54270D01*
X-53000Y403887D01*
X-51730Y405157D01*
X-50461D01*
X-49191Y403887D01*
Y401348D01*
X-50461Y400078D01*
X-51730D01*
X-53000Y401348D01*
X-54270Y400078D01*
X-55539D01*
X-53000Y401348D02*
Y403887D01*
X-21539Y375922D02*
X-22809Y374652D01*
Y372113D01*
X-21539Y370843D01*
X-16461D01*
X-15191Y372113D01*
Y374652D01*
X-16461Y375922D01*
X-15191Y383539D02*
Y378461D01*
X-20270Y383539D01*
X-21539D01*
X-22809Y382270D01*
Y379730D01*
X-21539Y378461D01*
X-16461Y386078D02*
X-15191Y387348D01*
Y389887D01*
X-16461Y391157D01*
X-21539D01*
X-22809Y389887D01*
Y387348D01*
X-21539Y386078D01*
X-20270D01*
X-19000Y387348D01*
Y391157D01*
X-97039Y339922D02*
X-98309Y338652D01*
Y336113D01*
X-97039Y334843D01*
X-91961D01*
X-90691Y336113D01*
Y338652D01*
X-91961Y339922D01*
X-97039Y342461D02*
X-98309Y343730D01*
Y346270D01*
X-97039Y347539D01*
X-95770D01*
X-94500Y346270D01*
Y345000D01*
Y346270D01*
X-93230Y347539D01*
X-91961D01*
X-90691Y346270D01*
Y343730D01*
X-91961Y342461D01*
X-97039Y350078D02*
X-98309Y351348D01*
Y353887D01*
X-97039Y355157D01*
X-91961D01*
X-90691Y353887D01*
Y351348D01*
X-91961Y350078D01*
X-97039D01*
X170961Y358191D02*
X169691Y356922D01*
Y354383D01*
X170961Y353113D01*
X176039D01*
X177309Y354383D01*
Y356922D01*
X176039Y358191D01*
X170961Y360730D02*
X169691Y362000D01*
Y364539D01*
X170961Y365809D01*
X172230D01*
X173500Y364539D01*
Y363270D01*
Y364539D01*
X174770Y365809D01*
X176039D01*
X177309Y364539D01*
Y362000D01*
X176039Y360730D01*
X177309Y368348D02*
Y370887D01*
Y369618D01*
X169691D01*
X170961Y368348D01*
X-578Y214539D02*
X-1848Y215809D01*
X-4387D01*
X-5657Y214539D01*
Y209461D01*
X-4387Y208191D01*
X-1848D01*
X-578Y209461D01*
X1961Y214539D02*
X3230Y215809D01*
X5770D01*
X7039Y214539D01*
Y213270D01*
X5770Y212000D01*
X4500D01*
X5770D01*
X7039Y210730D01*
Y209461D01*
X5770Y208191D01*
X3230D01*
X1961Y209461D01*
X14657Y208191D02*
X9578D01*
X14657Y213270D01*
Y214539D01*
X13387Y215809D01*
X10848D01*
X9578Y214539D01*
X63422D02*
X62152Y215809D01*
X59613D01*
X58343Y214539D01*
Y209461D01*
X59613Y208191D01*
X62152D01*
X63422Y209461D01*
X65961Y214539D02*
X67230Y215809D01*
X69770D01*
X71039Y214539D01*
Y213270D01*
X69770Y212000D01*
X68500D01*
X69770D01*
X71039Y210730D01*
Y209461D01*
X69770Y208191D01*
X67230D01*
X65961Y209461D01*
X73578Y214539D02*
X74848Y215809D01*
X77387D01*
X78657Y214539D01*
Y213270D01*
X77387Y212000D01*
X76118D01*
X77387D01*
X78657Y210730D01*
Y209461D01*
X77387Y208191D01*
X74848D01*
X73578Y209461D01*
X13961Y27922D02*
X12691Y26652D01*
Y24113D01*
X13961Y22843D01*
X19039D01*
X20309Y24113D01*
Y26652D01*
X19039Y27922D01*
X13961Y30461D02*
X12691Y31730D01*
Y34270D01*
X13961Y35539D01*
X15230D01*
X16500Y34270D01*
Y33000D01*
Y34270D01*
X17770Y35539D01*
X19039D01*
X20309Y34270D01*
Y31730D01*
X19039Y30461D01*
X20309Y41887D02*
X12691D01*
X16500Y38078D01*
Y43157D01*
X-177039Y-6078D02*
X-178309Y-7348D01*
Y-9887D01*
X-177039Y-11157D01*
X-171961D01*
X-170691Y-9887D01*
Y-7348D01*
X-171961Y-6078D01*
X-177039Y-3539D02*
X-178309Y-2270D01*
Y270D01*
X-177039Y1539D01*
X-175770D01*
X-174500Y270D01*
Y-1000D01*
Y270D01*
X-173230Y1539D01*
X-171961D01*
X-170691Y270D01*
Y-2270D01*
X-171961Y-3539D01*
X-178309Y9157D02*
Y4078D01*
X-174500D01*
X-175770Y6618D01*
Y7887D01*
X-174500Y9157D01*
X-171961D01*
X-170691Y7887D01*
Y5348D01*
X-171961Y4078D01*
X-145039Y-25078D02*
X-146309Y-26348D01*
Y-28887D01*
X-145039Y-30157D01*
X-139961D01*
X-138691Y-28887D01*
Y-26348D01*
X-139961Y-25078D01*
X-145039Y-22539D02*
X-146309Y-21270D01*
Y-18730D01*
X-145039Y-17461D01*
X-143770D01*
X-142500Y-18730D01*
Y-20000D01*
Y-18730D01*
X-141230Y-17461D01*
X-139961D01*
X-138691Y-18730D01*
Y-21270D01*
X-139961Y-22539D01*
X-146309Y-9843D02*
X-145039Y-12382D01*
X-142500Y-14922D01*
X-139961D01*
X-138691Y-13652D01*
Y-11113D01*
X-139961Y-9843D01*
X-141230D01*
X-142500Y-11113D01*
Y-14922D01*
X-219578Y254539D02*
X-220848Y255809D01*
X-223387D01*
X-224657Y254539D01*
Y249461D01*
X-223387Y248191D01*
X-220848D01*
X-219578Y249461D01*
X-217039Y254539D02*
X-215770Y255809D01*
X-213230D01*
X-211961Y254539D01*
Y253270D01*
X-213230Y252000D01*
X-214500D01*
X-213230D01*
X-211961Y250730D01*
Y249461D01*
X-213230Y248191D01*
X-215770D01*
X-217039Y249461D01*
X-209422Y255809D02*
X-204343D01*
Y254539D01*
X-209422Y249461D01*
Y248191D01*
X-208578Y270539D02*
X-209848Y271809D01*
X-212387D01*
X-213657Y270539D01*
Y265461D01*
X-212387Y264191D01*
X-209848D01*
X-208578Y265461D01*
X-206039Y270539D02*
X-204770Y271809D01*
X-202230D01*
X-200961Y270539D01*
Y269270D01*
X-202230Y268000D01*
X-203500D01*
X-202230D01*
X-200961Y266730D01*
Y265461D01*
X-202230Y264191D01*
X-204770D01*
X-206039Y265461D01*
X-198422Y270539D02*
X-197152Y271809D01*
X-194613D01*
X-193343Y270539D01*
Y269270D01*
X-194613Y268000D01*
X-193343Y266730D01*
Y265461D01*
X-194613Y264191D01*
X-197152D01*
X-198422Y265461D01*
Y266730D01*
X-197152Y268000D01*
X-198422Y269270D01*
Y270539D01*
X-197152Y268000D02*
X-194613D01*
X215422Y36809D02*
Y29191D01*
X219230D01*
X220500Y30461D01*
Y35539D01*
X219230Y36809D01*
X215422D01*
X223039Y29191D02*
X225578D01*
X224309D01*
Y36809D01*
X223039Y35539D01*
X175691Y-36348D02*
X183309D01*
Y-32539D01*
X182039Y-31270D01*
X176961D01*
X175691Y-32539D01*
Y-36348D01*
X183309Y-23652D02*
Y-28730D01*
X178230Y-23652D01*
X176961D01*
X175691Y-24922D01*
Y-27461D01*
X176961Y-28730D01*
X163691Y-75348D02*
X171309D01*
Y-71539D01*
X170039Y-70270D01*
X164961D01*
X163691Y-71539D01*
Y-75348D01*
X164961Y-67730D02*
X163691Y-66461D01*
Y-63922D01*
X164961Y-62652D01*
X166230D01*
X167500Y-63922D01*
Y-65191D01*
Y-63922D01*
X168770Y-62652D01*
X170039D01*
X171309Y-63922D01*
Y-66461D01*
X170039Y-67730D01*
X125691Y-260348D02*
X133309D01*
Y-256539D01*
X132039Y-255270D01*
X126961D01*
X125691Y-256539D01*
Y-260348D01*
Y-247652D02*
Y-252730D01*
X129500D01*
X128230Y-250191D01*
Y-248922D01*
X129500Y-247652D01*
X132039D01*
X133309Y-248922D01*
Y-251461D01*
X132039Y-252730D01*
X138691Y-260348D02*
X146309D01*
Y-256539D01*
X145039Y-255270D01*
X139961D01*
X138691Y-256539D01*
Y-260348D01*
Y-247652D02*
X139961Y-250191D01*
X142500Y-252730D01*
X145039D01*
X146309Y-251461D01*
Y-248922D01*
X145039Y-247652D01*
X143770D01*
X142500Y-248922D01*
Y-252730D01*
X-218309Y-122348D02*
X-210691D01*
Y-118539D01*
X-211961Y-117270D01*
X-217039D01*
X-218309Y-118539D01*
Y-122348D01*
Y-114730D02*
Y-109652D01*
X-217039D01*
X-211961Y-114730D01*
X-210691D01*
X-213309Y-169348D02*
X-205691D01*
Y-165539D01*
X-206961Y-164270D01*
X-212039D01*
X-213309Y-165539D01*
Y-169348D01*
X-212039Y-161730D02*
X-213309Y-160461D01*
Y-157922D01*
X-212039Y-156652D01*
X-210770D01*
X-209500Y-157922D01*
X-208230Y-156652D01*
X-206961D01*
X-205691Y-157922D01*
Y-160461D01*
X-206961Y-161730D01*
X-208230D01*
X-209500Y-160461D01*
X-210770Y-161730D01*
X-212039D01*
X-209500Y-160461D02*
Y-157922D01*
X220691Y8652D02*
X228309D01*
Y13730D01*
Y21348D02*
Y16270D01*
X223230Y21348D01*
X221961D01*
X220691Y20078D01*
Y17539D01*
X221961Y16270D01*
X-73309Y361922D02*
X-65691D01*
Y367000D01*
Y369539D02*
Y372078D01*
Y370809D01*
X-73309D01*
X-72039Y369539D01*
X77402Y29191D02*
Y36809D01*
X81211D01*
X82480Y35539D01*
Y33000D01*
X81211Y31730D01*
X77402D01*
X90098Y29191D02*
X85020D01*
X90098Y34270D01*
Y35539D01*
X88828Y36809D01*
X86289D01*
X85020Y35539D01*
X173500Y269461D02*
Y274539D01*
X172230Y275809D01*
X169691D01*
X168422Y274539D01*
Y269461D01*
X169691Y268191D01*
X172230D01*
X170961Y270730D02*
X173500Y268191D01*
X172230D02*
X173500Y269461D01*
X176039Y268191D02*
X178578D01*
X177309D01*
Y275809D01*
X176039Y274539D01*
X171230Y323461D02*
Y328539D01*
X169961Y329809D01*
X167422D01*
X166152Y328539D01*
Y323461D01*
X167422Y322191D01*
X169961D01*
X168691Y324730D02*
X171230Y322191D01*
X169961D02*
X171230Y323461D01*
X178848Y322191D02*
X173770D01*
X178848Y327270D01*
Y328539D01*
X177578Y329809D01*
X175039D01*
X173770Y328539D01*
X160422Y282191D02*
Y289809D01*
X164230D01*
X165500Y288539D01*
Y286000D01*
X164230Y284730D01*
X160422D01*
X162961D02*
X165500Y282191D01*
X168039D02*
X170578D01*
X169309D01*
Y289809D01*
X168039Y288539D01*
X-89191Y297652D02*
X-96809D01*
Y301461D01*
X-95539Y302730D01*
X-93000D01*
X-91730Y301461D01*
Y297652D01*
Y300191D02*
X-89191Y302730D01*
Y310348D02*
Y305270D01*
X-94270Y310348D01*
X-95539D01*
X-96809Y309078D01*
Y306539D01*
X-95539Y305270D01*
X158152Y228191D02*
Y235809D01*
X161961D01*
X163230Y234539D01*
Y232000D01*
X161961Y230730D01*
X158152D01*
X160691D02*
X163230Y228191D01*
X165770Y234539D02*
X167039Y235809D01*
X169578D01*
X170848Y234539D01*
Y233270D01*
X169578Y232000D01*
X168309D01*
X169578D01*
X170848Y230730D01*
Y229461D01*
X169578Y228191D01*
X167039D01*
X165770Y229461D01*
X175809Y59652D02*
X168191D01*
Y63461D01*
X169461Y64730D01*
X172000D01*
X173270Y63461D01*
Y59652D01*
Y62191D02*
X175809Y64730D01*
Y71078D02*
X168191D01*
X172000Y67270D01*
Y72348D01*
X136809Y-189348D02*
X129191D01*
Y-185539D01*
X130461Y-184270D01*
X133000D01*
X134270Y-185539D01*
Y-189348D01*
Y-186809D02*
X136809Y-184270D01*
X129191Y-176652D02*
Y-181730D01*
X133000D01*
X131730Y-179191D01*
Y-177922D01*
X133000Y-176652D01*
X135539D01*
X136809Y-177922D01*
Y-180461D01*
X135539Y-181730D01*
X134652Y-89809D02*
Y-82191D01*
X138461D01*
X139730Y-83461D01*
Y-86000D01*
X138461Y-87270D01*
X134652D01*
X137191D02*
X139730Y-89809D01*
X147348Y-82191D02*
X144809Y-83461D01*
X142270Y-86000D01*
Y-88539D01*
X143539Y-89809D01*
X146078D01*
X147348Y-88539D01*
Y-87270D01*
X146078Y-86000D01*
X142270D01*
X162309Y-172848D02*
X154691D01*
Y-169039D01*
X155961Y-167770D01*
X158500D01*
X159769Y-169039D01*
Y-172848D01*
Y-170309D02*
X162309Y-167770D01*
X154691Y-165230D02*
Y-160152D01*
X155961D01*
X161039Y-165230D01*
X162309D01*
X-200691Y-121522D02*
X-208309D01*
Y-117713D01*
X-207039Y-116444D01*
X-204500D01*
X-203230Y-117713D01*
Y-121522D01*
Y-118983D02*
X-200691Y-116444D01*
Y-113904D02*
Y-111365D01*
Y-112635D01*
X-208309D01*
X-207039Y-113904D01*
Y-107556D02*
X-208309Y-106287D01*
Y-103748D01*
X-207039Y-102478D01*
X-201961D01*
X-200691Y-103748D01*
Y-106287D01*
X-201961Y-107556D01*
X-207039D01*
X-195691Y-168252D02*
X-203309D01*
Y-164443D01*
X-202039Y-163174D01*
X-199500D01*
X-198230Y-164443D01*
Y-168252D01*
Y-165713D02*
X-195691Y-163174D01*
Y-160635D02*
Y-158096D01*
Y-159365D01*
X-203309D01*
X-202039Y-160635D01*
X-195691Y-154287D02*
Y-151748D01*
Y-153017D01*
X-203309D01*
X-202039Y-154287D01*
X-170022Y151191D02*
Y158809D01*
X-166213D01*
X-164944Y157539D01*
Y155000D01*
X-166213Y153730D01*
X-170022D01*
X-167483D02*
X-164944Y151191D01*
X-162404D02*
X-159865D01*
X-161135D01*
Y158809D01*
X-162404Y157539D01*
X-150978Y151191D02*
X-156056D01*
X-150978Y156270D01*
Y157539D01*
X-152248Y158809D01*
X-154787D01*
X-156056Y157539D01*
X39983Y96194D02*
Y103812D01*
X43791D01*
X45061Y102542D01*
Y100003D01*
X43791Y98734D01*
X39983D01*
X42522D02*
X45061Y96194D01*
X47600D02*
X50139D01*
X48870D01*
Y103812D01*
X47600Y102542D01*
X53948D02*
X55218Y103812D01*
X57757D01*
X59026Y102542D01*
Y101273D01*
X57757Y100003D01*
X56487D01*
X57757D01*
X59026Y98734D01*
Y97464D01*
X57757Y96194D01*
X55218D01*
X53948Y97464D01*
X149978Y342191D02*
Y349809D01*
X153787D01*
X155056Y348539D01*
Y346000D01*
X153787Y344730D01*
X149978D01*
X152517D02*
X155056Y342191D01*
X157596D02*
X160135D01*
X158865D01*
Y349809D01*
X157596Y348539D01*
X167752Y342191D02*
Y349809D01*
X163944Y346000D01*
X169022D01*
X-170110Y161632D02*
Y169250D01*
X-166301D01*
X-165032Y167980D01*
Y165441D01*
X-166301Y164171D01*
X-170110D01*
X-167571D02*
X-165032Y161632D01*
X-162492D02*
X-159953D01*
X-161223D01*
Y169250D01*
X-162492Y167980D01*
X-151066Y169250D02*
X-156145D01*
Y165441D01*
X-153605Y166711D01*
X-152336D01*
X-151066Y165441D01*
Y162902D01*
X-152336Y161632D01*
X-154875D01*
X-156145Y162902D01*
X62313Y72481D02*
X54696D01*
Y76290D01*
X55965Y77560D01*
X58505D01*
X59774Y76290D01*
Y72481D01*
Y75020D02*
X62313Y77560D01*
Y80099D02*
Y82638D01*
Y81368D01*
X54696D01*
X55965Y80099D01*
X54696Y91525D02*
X55965Y88986D01*
X58505Y86447D01*
X61044D01*
X62313Y87716D01*
Y90255D01*
X61044Y91525D01*
X59774D01*
X58505Y90255D01*
Y86447D01*
X39983Y60194D02*
Y67812D01*
X43791D01*
X45061Y66542D01*
Y64003D01*
X43791Y62734D01*
X39983D01*
X42522D02*
X45061Y60194D01*
X47600D02*
X50139D01*
X48870D01*
Y67812D01*
X47600Y66542D01*
X53948Y67812D02*
X59026D01*
Y66542D01*
X53948Y61464D01*
Y60194D01*
X-114522Y166191D02*
Y173809D01*
X-110713D01*
X-109444Y172539D01*
Y170000D01*
X-110713Y168730D01*
X-114522D01*
X-111983D02*
X-109444Y166191D01*
X-106904D02*
X-104365D01*
X-105635D01*
Y173809D01*
X-106904Y172539D01*
X-100556D02*
X-99287Y173809D01*
X-96748D01*
X-95478Y172539D01*
Y171270D01*
X-96748Y170000D01*
X-95478Y168730D01*
Y167461D01*
X-96748Y166191D01*
X-99287D01*
X-100556Y167461D01*
Y168730D01*
X-99287Y170000D01*
X-100556Y171270D01*
Y172539D01*
X-99287Y170000D02*
X-96748D01*
X-223022Y-77809D02*
Y-70191D01*
X-219213D01*
X-217944Y-71461D01*
Y-74000D01*
X-219213Y-75270D01*
X-223022D01*
X-220483D02*
X-217944Y-77809D01*
X-215404D02*
X-212865D01*
X-214135D01*
Y-70191D01*
X-215404Y-71461D01*
X-209056Y-76539D02*
X-207787Y-77809D01*
X-205248D01*
X-203978Y-76539D01*
Y-71461D01*
X-205248Y-70191D01*
X-207787D01*
X-209056Y-71461D01*
Y-72730D01*
X-207787Y-74000D01*
X-203978D01*
X-223657Y-52809D02*
Y-45191D01*
X-219848D01*
X-218578Y-46461D01*
Y-49000D01*
X-219848Y-50270D01*
X-223657D01*
X-221117D02*
X-218578Y-52809D01*
X-210961D02*
X-216039D01*
X-210961Y-47730D01*
Y-46461D01*
X-212230Y-45191D01*
X-214770D01*
X-216039Y-46461D01*
X-208422D02*
X-207152Y-45191D01*
X-204613D01*
X-203343Y-46461D01*
Y-51539D01*
X-204613Y-52809D01*
X-207152D01*
X-208422Y-51539D01*
Y-46461D01*
X-98887Y217191D02*
Y224809D01*
X-95078D01*
X-93809Y223539D01*
Y221000D01*
X-95078Y219730D01*
X-98887D01*
X-96348D02*
X-93809Y217191D01*
X-86191D02*
X-91270D01*
X-86191Y222270D01*
Y223539D01*
X-87461Y224809D01*
X-90000D01*
X-91270Y223539D01*
X-83652Y217191D02*
X-81113D01*
X-82382D01*
Y224809D01*
X-83652Y223539D01*
X160809Y-93157D02*
X153191D01*
Y-89348D01*
X154461Y-88078D01*
X157000D01*
X158270Y-89348D01*
Y-93157D01*
Y-90618D02*
X160809Y-88078D01*
Y-80461D02*
Y-85539D01*
X155730Y-80461D01*
X154461D01*
X153191Y-81730D01*
Y-84270D01*
X154461Y-85539D01*
X153191Y-77922D02*
Y-72843D01*
X154461D01*
X159539Y-77922D01*
X160809D01*
X157309Y-36157D02*
X149691D01*
Y-32348D01*
X150961Y-31078D01*
X153500D01*
X154770Y-32348D01*
Y-36157D01*
Y-33617D02*
X157309Y-31078D01*
Y-23461D02*
Y-28539D01*
X152230Y-23461D01*
X150961D01*
X149691Y-24730D01*
Y-27270D01*
X150961Y-28539D01*
Y-20922D02*
X149691Y-19652D01*
Y-17113D01*
X150961Y-15843D01*
X152230D01*
X153500Y-17113D01*
X154770Y-15843D01*
X156039D01*
X157309Y-17113D01*
Y-19652D01*
X156039Y-20922D01*
X154770D01*
X153500Y-19652D01*
X152230Y-20922D01*
X150961D01*
X153500Y-19652D02*
Y-17113D01*
X130343Y-9809D02*
Y-2191D01*
X134152D01*
X135422Y-3461D01*
Y-6000D01*
X134152Y-7270D01*
X130343D01*
X132882D02*
X135422Y-9809D01*
X143039D02*
X137961D01*
X143039Y-4730D01*
Y-3461D01*
X141770Y-2191D01*
X139230D01*
X137961Y-3461D01*
X145578Y-8539D02*
X146848Y-9809D01*
X149387D01*
X150657Y-8539D01*
Y-3461D01*
X149387Y-2191D01*
X146848D01*
X145578Y-3461D01*
Y-4730D01*
X146848Y-6000D01*
X150657D01*
X-96348Y186191D02*
Y193809D01*
X-92539D01*
X-91270Y192539D01*
Y190000D01*
X-92539Y188730D01*
X-96348D01*
X-93809D02*
X-91270Y186191D01*
X-88730Y192539D02*
X-87461Y193809D01*
X-84922D01*
X-83652Y192539D01*
Y191270D01*
X-84922Y190000D01*
X-83652Y188730D01*
Y187461D01*
X-84922Y186191D01*
X-87461D01*
X-88730Y187461D01*
Y188730D01*
X-87461Y190000D01*
X-88730Y191270D01*
Y192539D01*
X-87461Y190000D02*
X-84922D01*
X188309Y353652D02*
X180691D01*
Y357461D01*
X181961Y358730D01*
X184500D01*
X185770Y357461D01*
Y353652D01*
Y356191D02*
X188309Y358730D01*
X187039Y361270D02*
X188309Y362539D01*
Y365078D01*
X187039Y366348D01*
X181961D01*
X180691Y365078D01*
Y362539D01*
X181961Y361270D01*
X183230D01*
X184500Y362539D01*
Y366348D01*
X48343Y219191D02*
Y226809D01*
X52152D01*
X53422Y225539D01*
Y223000D01*
X52152Y221730D01*
X48343D01*
X50883D02*
X53422Y219191D01*
X55961Y225539D02*
X57230Y226809D01*
X59770D01*
X61039Y225539D01*
Y224270D01*
X59770Y223000D01*
X58500D01*
X59770D01*
X61039Y221730D01*
Y220461D01*
X59770Y219191D01*
X57230D01*
X55961Y220461D01*
X68657Y219191D02*
X63578D01*
X68657Y224270D01*
Y225539D01*
X67387Y226809D01*
X64848D01*
X63578Y225539D01*
X-203691Y9843D02*
X-211309D01*
Y13652D01*
X-210039Y14922D01*
X-207500D01*
X-206230Y13652D01*
Y9843D01*
Y12382D02*
X-203691Y14922D01*
X-210039Y17461D02*
X-211309Y18730D01*
Y21270D01*
X-210039Y22539D01*
X-208770D01*
X-207500Y21270D01*
Y20000D01*
Y21270D01*
X-206230Y22539D01*
X-204961D01*
X-203691Y21270D01*
Y18730D01*
X-204961Y17461D01*
X-210039Y25078D02*
X-211309Y26348D01*
Y28887D01*
X-210039Y30157D01*
X-208770D01*
X-207500Y28887D01*
Y27617D01*
Y28887D01*
X-206230Y30157D01*
X-204961D01*
X-203691Y28887D01*
Y26348D01*
X-204961Y25078D01*
X-193691Y9843D02*
X-201309D01*
Y13652D01*
X-200039Y14922D01*
X-197500D01*
X-196230Y13652D01*
Y9843D01*
Y12382D02*
X-193691Y14922D01*
X-200039Y17461D02*
X-201309Y18730D01*
Y21270D01*
X-200039Y22539D01*
X-198770D01*
X-197500Y21270D01*
Y20000D01*
Y21270D01*
X-196230Y22539D01*
X-194961D01*
X-193691Y21270D01*
Y18730D01*
X-194961Y17461D01*
X-193691Y28887D02*
X-201309D01*
X-197500Y25078D01*
Y30157D01*
X-213691Y9843D02*
X-221309D01*
Y13652D01*
X-220039Y14922D01*
X-217500D01*
X-216231Y13652D01*
Y9843D01*
Y12382D02*
X-213691Y14922D01*
X-220039Y17461D02*
X-221309Y18730D01*
Y21270D01*
X-220039Y22539D01*
X-218770D01*
X-217500Y21270D01*
Y20000D01*
Y21270D01*
X-216231Y22539D01*
X-214961D01*
X-213691Y21270D01*
Y18730D01*
X-214961Y17461D01*
X-221309Y25078D02*
Y30157D01*
X-220039D01*
X-214961Y25078D01*
X-213691D01*
X-89691Y120843D02*
X-97309D01*
Y124652D01*
X-96039Y125922D01*
X-93500D01*
X-92230Y124652D01*
Y120843D01*
Y123383D02*
X-89691Y125922D01*
X-96039Y128461D02*
X-97309Y129730D01*
Y132270D01*
X-96039Y133539D01*
X-94770D01*
X-93500Y132270D01*
Y131000D01*
Y132270D01*
X-92230Y133539D01*
X-90961D01*
X-89691Y132270D01*
Y129730D01*
X-90961Y128461D01*
X-96039Y136078D02*
X-97309Y137348D01*
Y139887D01*
X-96039Y141157D01*
X-94770D01*
X-93500Y139887D01*
X-92230Y141157D01*
X-90961D01*
X-89691Y139887D01*
Y137348D01*
X-90961Y136078D01*
X-92230D01*
X-93500Y137348D01*
X-94770Y136078D01*
X-96039D01*
X-93500Y137348D02*
Y139887D01*
X-150691Y42843D02*
X-158309D01*
Y46652D01*
X-157039Y47922D01*
X-154500D01*
X-153230Y46652D01*
Y42843D01*
Y45382D02*
X-150691Y47922D01*
X-157039Y50461D02*
X-158309Y51730D01*
Y54270D01*
X-157039Y55539D01*
X-155770D01*
X-154500Y54270D01*
Y53000D01*
Y54270D01*
X-153230Y55539D01*
X-151961D01*
X-150691Y54270D01*
Y51730D01*
X-151961Y50461D01*
Y58078D02*
X-150691Y59348D01*
Y61887D01*
X-151961Y63157D01*
X-157039D01*
X-158309Y61887D01*
Y59348D01*
X-157039Y58078D01*
X-155770D01*
X-154500Y59348D01*
Y63157D01*
X-9157Y-8809D02*
Y-1191D01*
X-5348D01*
X-4078Y-2461D01*
Y-5000D01*
X-5348Y-6270D01*
X-9157D01*
X-6618D02*
X-4078Y-8809D01*
X2270D02*
Y-1191D01*
X-1539Y-5000D01*
X3539D01*
X6078Y-2461D02*
X7348Y-1191D01*
X9887D01*
X11157Y-2461D01*
Y-7539D01*
X9887Y-8809D01*
X7348D01*
X6078Y-7539D01*
Y-2461D01*
X-103387Y-21809D02*
Y-14191D01*
X-99578D01*
X-98309Y-15461D01*
Y-18000D01*
X-99578Y-19270D01*
X-103387D01*
X-100848D02*
X-98309Y-21809D01*
X-91961D02*
Y-14191D01*
X-95770Y-18000D01*
X-90691D01*
X-88152Y-21809D02*
X-85613D01*
X-86882D01*
Y-14191D01*
X-88152Y-15461D01*
X-17157Y195191D02*
Y202809D01*
X-13348D01*
X-12078Y201539D01*
Y199000D01*
X-13348Y197730D01*
X-17157D01*
X-14618D02*
X-12078Y195191D01*
X-5730D02*
Y202809D01*
X-9539Y199000D01*
X-4461D01*
X3157Y195191D02*
X-1922D01*
X3157Y200270D01*
Y201539D01*
X1887Y202809D01*
X-652D01*
X-1922Y201539D01*
X-100691Y120843D02*
X-108309D01*
Y124652D01*
X-107039Y125922D01*
X-104500D01*
X-103230Y124652D01*
Y120843D01*
Y123383D02*
X-100691Y125922D01*
Y132270D02*
X-108309D01*
X-104500Y128461D01*
Y133539D01*
X-107039Y136078D02*
X-108309Y137348D01*
Y139887D01*
X-107039Y141157D01*
X-105770D01*
X-104500Y139887D01*
Y138618D01*
Y139887D01*
X-103230Y141157D01*
X-101961D01*
X-100691Y139887D01*
Y137348D01*
X-101961Y136078D01*
X-78691Y120843D02*
X-86309D01*
Y124652D01*
X-85039Y125922D01*
X-82500D01*
X-81230Y124652D01*
Y120843D01*
Y123383D02*
X-78691Y125922D01*
Y132270D02*
X-86309D01*
X-82500Y128461D01*
Y133539D01*
X-78691Y139887D02*
X-86309D01*
X-82500Y136078D01*
Y141157D01*
X-73039Y286000D02*
X-74309Y284730D01*
Y282191D01*
X-73039Y280922D01*
X-71770D01*
X-70500Y282191D01*
Y284730D01*
X-69230Y286000D01*
X-67961D01*
X-66691Y284730D01*
Y282191D01*
X-67961Y280922D01*
X-66691Y288539D02*
Y291078D01*
Y289809D01*
X-74309D01*
X-73039Y288539D01*
X-187078Y-31461D02*
X-188348Y-30191D01*
X-190887D01*
X-192157Y-31461D01*
Y-32730D01*
X-190887Y-34000D01*
X-188348D01*
X-187078Y-35270D01*
Y-36539D01*
X-188348Y-37809D01*
X-190887D01*
X-192157Y-36539D01*
X-184539Y-30191D02*
Y-37809D01*
Y-34000D01*
X-179461D01*
Y-30191D01*
Y-37809D01*
X-171843D02*
X-176922D01*
X-171843Y-32730D01*
Y-31461D01*
X-173113Y-30191D01*
X-175652D01*
X-176922Y-31461D01*
X-47191Y-131157D02*
X-54809D01*
Y-127348D01*
X-53539Y-126078D01*
X-51000D01*
X-49730Y-127348D01*
Y-131157D01*
Y-128617D02*
X-47191Y-126078D01*
X-53539Y-123539D02*
X-54809Y-122270D01*
Y-119730D01*
X-53539Y-118461D01*
X-52270D01*
X-51000Y-119730D01*
Y-121000D01*
Y-119730D01*
X-49730Y-118461D01*
X-48461D01*
X-47191Y-119730D01*
Y-122270D01*
X-48461Y-123539D01*
X-54809Y-110843D02*
X-53539Y-113383D01*
X-51000Y-115922D01*
X-48461D01*
X-47191Y-114652D01*
Y-112113D01*
X-48461Y-110843D01*
X-49730D01*
X-51000Y-112113D01*
Y-115922D01*
X-175157Y-210809D02*
Y-203191D01*
X-171348D01*
X-170078Y-204461D01*
Y-207000D01*
X-171348Y-208270D01*
X-175157D01*
X-172617D02*
X-170078Y-210809D01*
X-167539Y-203191D02*
X-162461D01*
Y-204461D01*
X-167539Y-209539D01*
Y-210809D01*
X-159922Y-204461D02*
X-158652Y-203191D01*
X-156113D01*
X-154843Y-204461D01*
Y-205730D01*
X-156113Y-207000D01*
X-154843Y-208270D01*
Y-209539D01*
X-156113Y-210809D01*
X-158652D01*
X-159922Y-209539D01*
Y-208270D01*
X-158652Y-207000D01*
X-159922Y-205730D01*
Y-204461D01*
X-158652Y-207000D02*
X-156113D01*
X-175361Y-200867D02*
Y-193249D01*
X-171552D01*
X-170282Y-194519D01*
Y-197058D01*
X-171552Y-198328D01*
X-175361D01*
X-172822D02*
X-170282Y-200867D01*
X-167743Y-193249D02*
X-162665D01*
Y-194519D01*
X-167743Y-199597D01*
Y-200867D01*
X-160126Y-193249D02*
X-155047D01*
Y-194519D01*
X-160126Y-199597D01*
Y-200867D01*
X-175361Y-190961D02*
Y-183344D01*
X-171552D01*
X-170282Y-184613D01*
Y-187152D01*
X-171552Y-188422D01*
X-175361D01*
X-172822D02*
X-170282Y-190961D01*
X-167743Y-183344D02*
X-162665D01*
Y-184613D01*
X-167743Y-189691D01*
Y-190961D01*
X-155047Y-183344D02*
X-157586Y-184613D01*
X-160126Y-187152D01*
Y-189691D01*
X-158856Y-190961D01*
X-156317D01*
X-155047Y-189691D01*
Y-188422D01*
X-156317Y-187152D01*
X-160126D01*
X-175361Y-220933D02*
Y-213316D01*
X-171552D01*
X-170282Y-214585D01*
Y-217124D01*
X-171552Y-218394D01*
X-175361D01*
X-172822D02*
X-170282Y-220933D01*
X-167743Y-213316D02*
X-162665D01*
Y-214585D01*
X-167743Y-219663D01*
Y-220933D01*
X-160126Y-219663D02*
X-158856Y-220933D01*
X-156317D01*
X-155047Y-219663D01*
Y-214585D01*
X-156317Y-213316D01*
X-158856D01*
X-160126Y-214585D01*
Y-215855D01*
X-158856Y-217124D01*
X-155047D01*
X-96078Y-55461D02*
X-97348Y-54191D01*
X-99887D01*
X-101157Y-55461D01*
Y-60539D01*
X-99887Y-61809D01*
X-97348D01*
X-96078Y-60539D01*
X-93539D02*
X-92270Y-61809D01*
X-89730D01*
X-88461Y-60539D01*
Y-55461D01*
X-89730Y-54191D01*
X-92270D01*
X-93539Y-55461D01*
Y-56730D01*
X-92270Y-58000D01*
X-88461D01*
X-85922Y-55461D02*
X-84652Y-54191D01*
X-82113D01*
X-80843Y-55461D01*
Y-56730D01*
X-82113Y-58000D01*
X-83382D01*
X-82113D01*
X-80843Y-59270D01*
Y-60539D01*
X-82113Y-61809D01*
X-84652D01*
X-85922Y-60539D01*
X-139539Y-68078D02*
X-140809Y-69348D01*
Y-71887D01*
X-139539Y-73157D01*
X-134461D01*
X-133191Y-71887D01*
Y-69348D01*
X-134461Y-68078D01*
Y-65539D02*
X-133191Y-64270D01*
Y-61730D01*
X-134461Y-60461D01*
X-139539D01*
X-140809Y-61730D01*
Y-64270D01*
X-139539Y-65539D01*
X-138270D01*
X-137000Y-64270D01*
Y-60461D01*
X-133191Y-54113D02*
X-140809D01*
X-137000Y-57922D01*
Y-52843D01*
X-170282Y-174453D02*
X-171552Y-173183D01*
X-174091D01*
X-175361Y-174453D01*
Y-179531D01*
X-174091Y-180801D01*
X-171552D01*
X-170282Y-179531D01*
X-167743D02*
X-166474Y-180801D01*
X-163934D01*
X-162665Y-179531D01*
Y-174453D01*
X-163934Y-173183D01*
X-166474D01*
X-167743Y-174453D01*
Y-175723D01*
X-166474Y-176992D01*
X-162665D01*
X-155047Y-173183D02*
X-160126D01*
Y-176992D01*
X-157586Y-175723D01*
X-156317D01*
X-155047Y-176992D01*
Y-179531D01*
X-156317Y-180801D01*
X-158856D01*
X-160126Y-179531D01*
X-150539Y-74078D02*
X-151809Y-75348D01*
Y-77887D01*
X-150539Y-79157D01*
X-145461D01*
X-144191Y-77887D01*
Y-75348D01*
X-145461Y-74078D01*
Y-71539D02*
X-144191Y-70270D01*
Y-67730D01*
X-145461Y-66461D01*
X-150539D01*
X-151809Y-67730D01*
Y-70270D01*
X-150539Y-71539D01*
X-149270D01*
X-148000Y-70270D01*
Y-66461D01*
X-151809Y-58843D02*
X-150539Y-61382D01*
X-148000Y-63922D01*
X-145461D01*
X-144191Y-62652D01*
Y-60113D01*
X-145461Y-58843D01*
X-146730D01*
X-148000Y-60113D01*
Y-63922D01*
X-64078Y-148461D02*
X-65348Y-147191D01*
X-67887D01*
X-69157Y-148461D01*
Y-153539D01*
X-67887Y-154809D01*
X-65348D01*
X-64078Y-153539D01*
X-61539D02*
X-60270Y-154809D01*
X-57730D01*
X-56461Y-153539D01*
Y-148461D01*
X-57730Y-147191D01*
X-60270D01*
X-61539Y-148461D01*
Y-149730D01*
X-60270Y-151000D01*
X-56461D01*
X-53922Y-147191D02*
X-48843D01*
Y-148461D01*
X-53922Y-153539D01*
Y-154809D01*
X-64078Y-136461D02*
X-65348Y-135191D01*
X-67887D01*
X-69157Y-136461D01*
Y-141539D01*
X-67887Y-142809D01*
X-65348D01*
X-64078Y-141539D01*
X-61539D02*
X-60270Y-142809D01*
X-57730D01*
X-56461Y-141539D01*
Y-136461D01*
X-57730Y-135191D01*
X-60270D01*
X-61539Y-136461D01*
Y-137730D01*
X-60270Y-139000D01*
X-56461D01*
X-53922Y-136461D02*
X-52652Y-135191D01*
X-50113D01*
X-48843Y-136461D01*
Y-137730D01*
X-50113Y-139000D01*
X-48843Y-140270D01*
Y-141539D01*
X-50113Y-142809D01*
X-52652D01*
X-53922Y-141539D01*
Y-140270D01*
X-52652Y-139000D01*
X-53922Y-137730D01*
Y-136461D01*
X-52652Y-139000D02*
X-50113D01*
X-161539Y-73983D02*
X-162809Y-75252D01*
Y-77792D01*
X-161539Y-79061D01*
X-156461D01*
X-155191Y-77792D01*
Y-75252D01*
X-156461Y-73983D01*
X-155191Y-71444D02*
Y-68904D01*
Y-70174D01*
X-162809D01*
X-161539Y-71444D01*
Y-65096D02*
X-162809Y-63826D01*
Y-61287D01*
X-161539Y-60017D01*
X-156461D01*
X-155191Y-61287D01*
Y-63826D01*
X-156461Y-65096D01*
X-161539D01*
X-155191Y-57478D02*
Y-54939D01*
Y-56209D01*
X-162809D01*
X-161539Y-57478D01*
X-107522Y-152191D02*
X-104983D01*
X-106252D01*
Y-159809D01*
X-107522D01*
X-104983D01*
X-96096Y-153461D02*
X-97365Y-152191D01*
X-99904D01*
X-101174Y-153461D01*
Y-158539D01*
X-99904Y-159809D01*
X-97365D01*
X-96096Y-158539D01*
X-93556Y-153461D02*
X-92287Y-152191D01*
X-89748D01*
X-88478Y-153461D01*
Y-154730D01*
X-89748Y-156000D01*
X-88478Y-157270D01*
Y-158539D01*
X-89748Y-159809D01*
X-92287D01*
X-93556Y-158539D01*
Y-157270D01*
X-92287Y-156000D01*
X-93556Y-154730D01*
Y-153461D01*
X-92287Y-156000D02*
X-89748D01*
X-94809Y-91522D02*
X-87191D01*
Y-86444D01*
Y-83904D02*
Y-81365D01*
Y-82635D01*
X-94809D01*
X-93539Y-83904D01*
X-94809Y-72478D02*
Y-77556D01*
X-91000D01*
X-92270Y-75017D01*
Y-73748D01*
X-91000Y-72478D01*
X-88461D01*
X-87191Y-73748D01*
Y-76287D01*
X-88461Y-77556D01*
X-182809Y-100522D02*
X-175191D01*
Y-95443D01*
Y-92904D02*
Y-90365D01*
Y-91635D01*
X-182809D01*
X-181539Y-92904D01*
X-182809Y-81478D02*
X-181539Y-84017D01*
X-179000Y-86556D01*
X-176461D01*
X-175191Y-85287D01*
Y-82748D01*
X-176461Y-81478D01*
X-177730D01*
X-179000Y-82748D01*
Y-86556D01*
X-72348Y-97191D02*
Y-98461D01*
X-69809Y-101000D01*
X-67270Y-98461D01*
Y-97191D01*
X-69809Y-101000D02*
Y-104809D01*
X-64730Y-98461D02*
X-63461Y-97191D01*
X-60922D01*
X-59652Y-98461D01*
Y-99730D01*
X-60922Y-101000D01*
X-62191D01*
X-60922D01*
X-59652Y-102270D01*
Y-103539D01*
X-60922Y-104809D01*
X-63461D01*
X-64730Y-103539D01*
X-78Y-258211D02*
X-1348Y-256941D01*
X-3887D01*
X-5157Y-258211D01*
Y-263289D01*
X-3887Y-264559D01*
X-1348D01*
X-78Y-263289D01*
X2461D02*
X3730Y-264559D01*
X6270D01*
X7539Y-263289D01*
Y-258211D01*
X6270Y-256941D01*
X3730D01*
X2461Y-258211D01*
Y-259480D01*
X3730Y-260750D01*
X7539D01*
X10078Y-263289D02*
X11348Y-264559D01*
X13887D01*
X15157Y-263289D01*
Y-258211D01*
X13887Y-256941D01*
X11348D01*
X10078Y-258211D01*
Y-259480D01*
X11348Y-260750D01*
X15157D01*
X-252Y-271461D02*
X-1522Y-270191D01*
X-4061D01*
X-5331Y-271461D01*
Y-276539D01*
X-4061Y-277809D01*
X-1522D01*
X-252Y-276539D01*
X2287Y-277809D02*
X4826D01*
X3557D01*
Y-270191D01*
X2287Y-271461D01*
X8635D02*
X9904Y-270191D01*
X12444D01*
X13713Y-271461D01*
Y-276539D01*
X12444Y-277809D01*
X9904D01*
X8635Y-276539D01*
Y-271461D01*
X16252D02*
X17522Y-270191D01*
X20061D01*
X21331Y-271461D01*
Y-276539D01*
X20061Y-277809D01*
X17522D01*
X16252Y-276539D01*
Y-271461D01*
X-8441Y-277907D02*
X-16059D01*
Y-274098D01*
X-14789Y-272828D01*
X-12250D01*
X-10980Y-274098D01*
Y-277907D01*
Y-275368D02*
X-8441Y-272828D01*
X-16059Y-270289D02*
Y-265211D01*
X-14789D01*
X-9711Y-270289D01*
X-8441D01*
X-16059Y-257593D02*
Y-262672D01*
X-12250D01*
X-13520Y-260132D01*
Y-258863D01*
X-12250Y-257593D01*
X-9711D01*
X-8441Y-258863D01*
Y-261402D01*
X-9711Y-262672D01*
X-128441Y-274907D02*
X-136059D01*
Y-271098D01*
X-134789Y-269828D01*
X-132250D01*
X-130980Y-271098D01*
Y-274907D01*
Y-272367D02*
X-128441Y-269828D01*
X-134789Y-267289D02*
X-136059Y-266020D01*
Y-263480D01*
X-134789Y-262211D01*
X-133520D01*
X-132250Y-263480D01*
X-130980Y-262211D01*
X-129711D01*
X-128441Y-263480D01*
Y-266020D01*
X-129711Y-267289D01*
X-130980D01*
X-132250Y-266020D01*
X-133520Y-267289D01*
X-134789D01*
X-132250Y-266020D02*
Y-263480D01*
X-128441Y-255863D02*
X-136059D01*
X-132250Y-259672D01*
Y-254593D01*
X31205Y-204614D02*
X31205Y-202818D01*
X29409Y-201023D01*
X27614D01*
X24023Y-204614D01*
Y-206409D01*
X25818Y-208205D01*
X27614Y-208204D01*
X33000Y-206409D02*
X34795D01*
X36591Y-208205D01*
X36591Y-210000D01*
X35693Y-210898D01*
X33898D01*
X33898Y-212693D01*
X33000Y-213591D01*
X31205Y-213591D01*
X29409Y-211796D01*
Y-210000D01*
X30307Y-209102D01*
X32102D01*
X32102Y-207307D01*
X33000Y-206409D01*
X32102Y-209102D02*
X33898Y-210898D01*
X36591Y-218977D02*
X41977Y-213591D01*
X36591Y-213591D01*
X40182Y-217182D01*
X-24157Y-122809D02*
Y-115191D01*
X-20348D01*
X-19078Y-116461D01*
Y-119000D01*
X-20348Y-120270D01*
X-24157D01*
X-21618D02*
X-19078Y-122809D01*
X-16539Y-116461D02*
X-15270Y-115191D01*
X-12730D01*
X-11461Y-116461D01*
Y-117730D01*
X-12730Y-119000D01*
X-14000D01*
X-12730D01*
X-11461Y-120270D01*
Y-121539D01*
X-12730Y-122809D01*
X-15270D01*
X-16539Y-121539D01*
X-3843Y-115191D02*
X-8922D01*
Y-119000D01*
X-6382Y-117730D01*
X-5113D01*
X-3843Y-119000D01*
Y-121539D01*
X-5113Y-122809D01*
X-7652D01*
X-8922Y-121539D01*
X45478Y-51191D02*
Y-58809D01*
X50556D01*
X53096D02*
X55635D01*
X54365D01*
Y-51191D01*
X53096Y-52461D01*
X59444Y-51191D02*
X64522D01*
Y-52461D01*
X59444Y-57539D01*
Y-58809D01*
X18748Y-65461D02*
X17478Y-64191D01*
X14939D01*
X13669Y-65461D01*
Y-70539D01*
X14939Y-71809D01*
X17478D01*
X18748Y-70539D01*
X21287Y-71809D02*
X23826D01*
X22556D01*
Y-64191D01*
X21287Y-65461D01*
X27635D02*
X28904Y-64191D01*
X31444D01*
X32713Y-65461D01*
Y-70539D01*
X31444Y-71809D01*
X28904D01*
X27635Y-70539D01*
Y-65461D01*
X35252D02*
X36522Y-64191D01*
X39061D01*
X40331Y-65461D01*
Y-66730D01*
X39061Y-68000D01*
X37792D01*
X39061D01*
X40331Y-69270D01*
Y-70539D01*
X39061Y-71809D01*
X36522D01*
X35252Y-70539D01*
X85461Y-74252D02*
X84191Y-75522D01*
Y-78061D01*
X85461Y-79331D01*
X90539D01*
X91809Y-78061D01*
Y-75522D01*
X90539Y-74252D01*
X91809Y-71713D02*
Y-69174D01*
Y-70444D01*
X84191D01*
X85461Y-71713D01*
Y-65365D02*
X84191Y-64096D01*
Y-61556D01*
X85461Y-60287D01*
X90539D01*
X91809Y-61556D01*
Y-64096D01*
X90539Y-65365D01*
X85461D01*
X91809Y-52669D02*
Y-57748D01*
X86730Y-52669D01*
X85461D01*
X84191Y-53939D01*
Y-56478D01*
X85461Y-57748D01*
X-22157Y-143809D02*
Y-136191D01*
X-18348D01*
X-17078Y-137461D01*
Y-140000D01*
X-18348Y-141270D01*
X-22157D01*
X-19618D02*
X-17078Y-143809D01*
X-14539Y-136191D02*
X-9461D01*
Y-137461D01*
X-14539Y-142539D01*
Y-143809D01*
X-6922Y-137461D02*
X-5652Y-136191D01*
X-3113D01*
X-1843Y-137461D01*
Y-138730D01*
X-3113Y-140000D01*
X-4382D01*
X-3113D01*
X-1843Y-141270D01*
Y-142539D01*
X-3113Y-143809D01*
X-5652D01*
X-6922Y-142539D01*
X-22157Y-154809D02*
Y-147191D01*
X-18348D01*
X-17078Y-148461D01*
Y-151000D01*
X-18348Y-152269D01*
X-22157D01*
X-19618D02*
X-17078Y-154809D01*
X-14539Y-147191D02*
X-9461D01*
Y-148461D01*
X-14539Y-153539D01*
Y-154809D01*
X-1843D02*
X-6922D01*
X-1843Y-149730D01*
Y-148461D01*
X-3113Y-147191D01*
X-5652D01*
X-6922Y-148461D01*
X-22157Y-166809D02*
Y-159191D01*
X-18348D01*
X-17078Y-160461D01*
Y-163000D01*
X-18348Y-164270D01*
X-22157D01*
X-19618D02*
X-17078Y-166809D01*
X-14539Y-159191D02*
X-9461D01*
Y-160461D01*
X-14539Y-165539D01*
Y-166809D01*
X-6922Y-160461D02*
X-5652Y-159191D01*
X-3113D01*
X-1843Y-160461D01*
Y-165539D01*
X-3113Y-166809D01*
X-5652D01*
X-6922Y-165539D01*
Y-160461D01*
X93478Y-93191D02*
Y-100809D01*
X98556D01*
X101096D02*
X103635D01*
X102365D01*
Y-93191D01*
X101096Y-94461D01*
X111252Y-100809D02*
Y-93191D01*
X107444Y-97000D01*
X112522D01*
X48253Y-166501D02*
Y-173499D01*
X52918D01*
X55251D02*
X57583D01*
X56417D01*
Y-166501D01*
X55251Y-167667D01*
X65747Y-173499D02*
X61082D01*
X65747Y-168834D01*
Y-167667D01*
X64581Y-166501D01*
X62248D01*
X61082Y-167667D01*
X106667Y-180665D02*
X105501Y-181831D01*
Y-184164D01*
X106667Y-185330D01*
X111333D01*
X112499Y-184164D01*
Y-181831D01*
X111333Y-180665D01*
X106667Y-178333D02*
X105501Y-177166D01*
Y-174834D01*
X106667Y-173667D01*
X107834D01*
X109000Y-174834D01*
X110166Y-173667D01*
X111333D01*
X112499Y-174834D01*
Y-177166D01*
X111333Y-178333D01*
X110166D01*
X109000Y-177166D01*
X107834Y-178333D01*
X106667D01*
X109000Y-177166D02*
Y-174834D01*
X111333Y-171335D02*
X112499Y-170168D01*
Y-167836D01*
X111333Y-166670D01*
X106667D01*
X105501Y-167836D01*
Y-170168D01*
X106667Y-171335D01*
X107834D01*
X109000Y-170168D01*
Y-166670D01*
X89797Y-114563D02*
X88527Y-113293D01*
X85988D01*
X84718Y-114563D01*
Y-119641D01*
X85988Y-120911D01*
X88527D01*
X89797Y-119641D01*
X92336Y-114563D02*
X93605Y-113293D01*
X96145D01*
X97414Y-114563D01*
Y-115833D01*
X96145Y-117102D01*
X97414Y-118372D01*
Y-119641D01*
X96145Y-120911D01*
X93605D01*
X92336Y-119641D01*
Y-118372D01*
X93605Y-117102D01*
X92336Y-115833D01*
Y-114563D01*
X93605Y-117102D02*
X96145D01*
X105032Y-113293D02*
X102493Y-114563D01*
X99953Y-117102D01*
Y-119641D01*
X101223Y-120911D01*
X103762D01*
X105032Y-119641D01*
Y-118372D01*
X103762Y-117102D01*
X99953D01*
X18922Y-109461D02*
X17652Y-108191D01*
X15113D01*
X13843Y-109461D01*
Y-114539D01*
X15113Y-115809D01*
X17652D01*
X18922Y-114539D01*
X21461Y-109461D02*
X22730Y-108191D01*
X25270D01*
X26539Y-109461D01*
Y-110730D01*
X25270Y-112000D01*
X26539Y-113270D01*
Y-114539D01*
X25270Y-115809D01*
X22730D01*
X21461Y-114539D01*
Y-113270D01*
X22730Y-112000D01*
X21461Y-110730D01*
Y-109461D01*
X22730Y-112000D02*
X25270D01*
X29078Y-109461D02*
X30348Y-108191D01*
X32887D01*
X34157Y-109461D01*
Y-110730D01*
X32887Y-112000D01*
X31618D01*
X32887D01*
X34157Y-113270D01*
Y-114539D01*
X32887Y-115809D01*
X30348D01*
X29078Y-114539D01*
X19191Y-98461D02*
X17922Y-97191D01*
X15382D01*
X14113Y-98461D01*
Y-103539D01*
X15382Y-104809D01*
X17922D01*
X19191Y-103539D01*
X21730Y-98461D02*
X23000Y-97191D01*
X25539D01*
X26809Y-98461D01*
Y-99730D01*
X25539Y-101000D01*
X26809Y-102270D01*
Y-103539D01*
X25539Y-104809D01*
X23000D01*
X21730Y-103539D01*
Y-102270D01*
X23000Y-101000D01*
X21730Y-99730D01*
Y-98461D01*
X23000Y-101000D02*
X25539D01*
X29348Y-104809D02*
X31887D01*
X30617D01*
Y-97191D01*
X29348Y-98461D01*
X97335Y-189667D02*
X96168Y-188501D01*
X93836D01*
X92670Y-189667D01*
Y-194333D01*
X93836Y-195499D01*
X96168D01*
X97335Y-194333D01*
X99667Y-188501D02*
X104333D01*
Y-189667D01*
X99667Y-194333D01*
Y-195499D01*
X106665Y-194333D02*
X107831Y-195499D01*
X110164D01*
X111330Y-194333D01*
Y-189667D01*
X110164Y-188501D01*
X107831D01*
X106665Y-189667D01*
Y-190834D01*
X107831Y-192000D01*
X111330D01*
X97335Y-200667D02*
X96168Y-199501D01*
X93836D01*
X92670Y-200667D01*
Y-205333D01*
X93836Y-206499D01*
X96168D01*
X97335Y-205333D01*
X99667Y-200667D02*
X100834Y-199501D01*
X103166D01*
X104333Y-200667D01*
Y-201834D01*
X103166Y-203000D01*
X104333Y-204166D01*
Y-205333D01*
X103166Y-206499D01*
X100834D01*
X99667Y-205333D01*
Y-204166D01*
X100834Y-203000D01*
X99667Y-201834D01*
Y-200667D01*
X100834Y-203000D02*
X103166D01*
X106665Y-200667D02*
X107831Y-199501D01*
X110164D01*
X111330Y-200667D01*
Y-205333D01*
X110164Y-206499D01*
X107831D01*
X106665Y-205333D01*
Y-200667D01*
X84667Y-224665D02*
X83501Y-225832D01*
Y-228164D01*
X84667Y-229330D01*
X89333D01*
X90499Y-228164D01*
Y-225832D01*
X89333Y-224665D01*
X84667Y-222333D02*
X83501Y-221166D01*
Y-218834D01*
X84667Y-217667D01*
X85834D01*
X87000Y-218834D01*
X88166Y-217667D01*
X89333D01*
X90499Y-218834D01*
Y-221166D01*
X89333Y-222333D01*
X88166D01*
X87000Y-221166D01*
X85834Y-222333D01*
X84667D01*
X87000Y-221166D02*
Y-218834D01*
X90499Y-210670D02*
Y-215335D01*
X85834Y-210670D01*
X84667D01*
X83501Y-211836D01*
Y-214169D01*
X84667Y-215335D01*
X-22000Y-133000D02*
Y-125382D01*
X-18191D01*
X-16922Y-126652D01*
Y-129191D01*
X-18191Y-130461D01*
X-22000D01*
X-19461D02*
X-16922Y-133000D01*
X-14382Y-125382D02*
X-9304D01*
Y-126652D01*
X-14382Y-131730D01*
Y-133000D01*
X-2956D02*
Y-125382D01*
X-6765Y-129191D01*
X-1687D01*
X-224078Y-333461D02*
X-225348Y-332191D01*
X-227887D01*
X-229157Y-333461D01*
Y-338539D01*
X-227887Y-339809D01*
X-225348D01*
X-224078Y-338539D01*
X-221539Y-333461D02*
X-220270Y-332191D01*
X-217730D01*
X-216461Y-333461D01*
Y-334730D01*
X-217730Y-336000D01*
X-216461Y-337270D01*
Y-338539D01*
X-217730Y-339809D01*
X-220270D01*
X-221539Y-338539D01*
Y-337270D01*
X-220270Y-336000D01*
X-221539Y-334730D01*
Y-333461D01*
X-220270Y-336000D02*
X-217730D01*
X-213922Y-332191D02*
X-208843D01*
Y-333461D01*
X-213922Y-338539D01*
Y-339809D01*
X-240039Y-401078D02*
X-241309Y-402348D01*
Y-404887D01*
X-240039Y-406157D01*
X-234961D01*
X-233691Y-404887D01*
Y-402348D01*
X-234961Y-401078D01*
X-240039Y-398539D02*
X-241309Y-397270D01*
Y-394730D01*
X-240039Y-393461D01*
X-238770D01*
X-237500Y-394730D01*
X-236230Y-393461D01*
X-234961D01*
X-233691Y-394730D01*
Y-397270D01*
X-234961Y-398539D01*
X-236230D01*
X-237500Y-397270D01*
X-238770Y-398539D01*
X-240039D01*
X-237500Y-397270D02*
Y-394730D01*
X-240039Y-390922D02*
X-241309Y-389652D01*
Y-387113D01*
X-240039Y-385843D01*
X-238770D01*
X-237500Y-387113D01*
X-236230Y-385843D01*
X-234961D01*
X-233691Y-387113D01*
Y-389652D01*
X-234961Y-390922D01*
X-236230D01*
X-237500Y-389652D01*
X-238770Y-390922D01*
X-240039D01*
X-237500Y-389652D02*
Y-387113D01*
X-222691Y-363157D02*
X-230309D01*
Y-359348D01*
X-229039Y-358078D01*
X-226500D01*
X-225230Y-359348D01*
Y-363157D01*
Y-360617D02*
X-222691Y-358078D01*
X-230309Y-350461D02*
X-229039Y-353000D01*
X-226500Y-355539D01*
X-223961D01*
X-222691Y-354270D01*
Y-351730D01*
X-223961Y-350461D01*
X-225230D01*
X-226500Y-351730D01*
Y-355539D01*
X-223961Y-347922D02*
X-222691Y-346652D01*
Y-344113D01*
X-223961Y-342843D01*
X-229039D01*
X-230309Y-344113D01*
Y-346652D01*
X-229039Y-347922D01*
X-227770D01*
X-226500Y-346652D01*
Y-342843D01*
X-32907Y-255059D02*
Y-247441D01*
X-29098D01*
X-27828Y-248711D01*
Y-251250D01*
X-29098Y-252520D01*
X-32907D01*
X-30368D02*
X-27828Y-255059D01*
X-25289Y-248711D02*
X-24020Y-247441D01*
X-21480D01*
X-20211Y-248711D01*
Y-249980D01*
X-21480Y-251250D01*
X-20211Y-252520D01*
Y-253789D01*
X-21480Y-255059D01*
X-24020D01*
X-25289Y-253789D01*
Y-252520D01*
X-24020Y-251250D01*
X-25289Y-249980D01*
Y-248711D01*
X-24020Y-251250D02*
X-21480D01*
X-17672Y-248711D02*
X-16402Y-247441D01*
X-13863D01*
X-12593Y-248711D01*
Y-249980D01*
X-13863Y-251250D01*
X-15132D01*
X-13863D01*
X-12593Y-252520D01*
Y-253789D01*
X-13863Y-255059D01*
X-16402D01*
X-17672Y-253789D01*
X56422Y33539D02*
X55152Y34809D01*
X52613D01*
X51343Y33539D01*
Y28461D01*
X52613Y27191D01*
X55152D01*
X56422Y28461D01*
X58961Y33539D02*
X60230Y34809D01*
X62770D01*
X64039Y33539D01*
Y32270D01*
X62770Y31000D01*
X61500D01*
X62770D01*
X64039Y29730D01*
Y28461D01*
X62770Y27191D01*
X60230D01*
X58961Y28461D01*
X66578D02*
X67848Y27191D01*
X70387D01*
X71657Y28461D01*
Y33539D01*
X70387Y34809D01*
X67848D01*
X66578Y33539D01*
Y32270D01*
X67848Y31000D01*
X71657D01*
X22922Y-2461D02*
X21652Y-1191D01*
X19113D01*
X17843Y-2461D01*
Y-7539D01*
X19113Y-8809D01*
X21652D01*
X22922Y-7539D01*
X29270Y-8809D02*
Y-1191D01*
X25461Y-5000D01*
X30539D01*
X33078Y-2461D02*
X34348Y-1191D01*
X36887D01*
X38157Y-2461D01*
Y-7539D01*
X36887Y-8809D01*
X34348D01*
X33078Y-7539D01*
Y-2461D01*
X198191Y-115461D02*
X196922Y-114191D01*
X194382D01*
X193113Y-115461D01*
Y-120539D01*
X194382Y-121809D01*
X196922D01*
X198191Y-120539D01*
X204539Y-121809D02*
Y-114191D01*
X200730Y-118000D01*
X205809D01*
X208348Y-121809D02*
X210887D01*
X209618D01*
Y-114191D01*
X208348Y-115461D01*
X197922Y-125461D02*
X196652Y-124191D01*
X194113D01*
X192843Y-125461D01*
Y-130539D01*
X194113Y-131809D01*
X196652D01*
X197922Y-130539D01*
X204270Y-131809D02*
Y-124191D01*
X200461Y-128000D01*
X205539D01*
X213157Y-131809D02*
X208078D01*
X213157Y-126730D01*
Y-125461D01*
X211887Y-124191D01*
X209348D01*
X208078Y-125461D01*
X51343Y49191D02*
Y56809D01*
X55152D01*
X56422Y55539D01*
Y53000D01*
X55152Y51730D01*
X51343D01*
X53882D02*
X56422Y49191D01*
X62770D02*
Y56809D01*
X58961Y53000D01*
X64039D01*
X71657Y56809D02*
X69118Y55539D01*
X66578Y53000D01*
Y50461D01*
X67848Y49191D01*
X70387D01*
X71657Y50461D01*
Y51730D01*
X70387Y53000D01*
X66578D01*
X182809Y-183157D02*
X175191D01*
Y-179348D01*
X176461Y-178078D01*
X179000D01*
X180270Y-179348D01*
Y-183157D01*
Y-180618D02*
X182809Y-178078D01*
Y-171730D02*
X175191D01*
X179000Y-175539D01*
Y-170461D01*
X176461Y-167922D02*
X175191Y-166652D01*
Y-164113D01*
X176461Y-162843D01*
X177730D01*
X179000Y-164113D01*
X180270Y-162843D01*
X181539D01*
X182809Y-164113D01*
Y-166652D01*
X181539Y-167922D01*
X180270D01*
X179000Y-166652D01*
X177730Y-167922D01*
X176461D01*
X179000Y-166652D02*
Y-164113D01*
X-41191Y176843D02*
X-48809D01*
Y180652D01*
X-47539Y181922D01*
X-45000D01*
X-43730Y180652D01*
Y176843D01*
Y179382D02*
X-41191Y181922D01*
Y188270D02*
X-48809D01*
X-45000Y184461D01*
Y189539D01*
X-42461Y192078D02*
X-41191Y193348D01*
Y195887D01*
X-42461Y197157D01*
X-47539D01*
X-48809Y195887D01*
Y193348D01*
X-47539Y192078D01*
X-46270D01*
X-45000Y193348D01*
Y197157D01*
X-53191Y176843D02*
X-60809D01*
Y180652D01*
X-59539Y181922D01*
X-57000D01*
X-55730Y180652D01*
Y176843D01*
Y179382D02*
X-53191Y181922D01*
X-60809Y189539D02*
Y184461D01*
X-57000D01*
X-58270Y187000D01*
Y188270D01*
X-57000Y189539D01*
X-54461D01*
X-53191Y188270D01*
Y185730D01*
X-54461Y184461D01*
X-59539Y192078D02*
X-60809Y193348D01*
Y195887D01*
X-59539Y197157D01*
X-54461D01*
X-53191Y195887D01*
Y193348D01*
X-54461Y192078D01*
X-59539D01*
X-187578Y-239461D02*
X-188848Y-238191D01*
X-191387D01*
X-192657Y-239461D01*
Y-244539D01*
X-191387Y-245809D01*
X-188848D01*
X-187578Y-244539D01*
X-181230Y-245809D02*
Y-238191D01*
X-185039Y-242000D01*
X-179961D01*
X-177422Y-239461D02*
X-176152Y-238191D01*
X-173613D01*
X-172343Y-239461D01*
Y-240730D01*
X-173613Y-242000D01*
X-174883D01*
X-173613D01*
X-172343Y-243270D01*
Y-244539D01*
X-173613Y-245809D01*
X-176152D01*
X-177422Y-244539D01*
X-202039Y-206078D02*
X-203309Y-207348D01*
Y-209887D01*
X-202039Y-211157D01*
X-196961D01*
X-195691Y-209887D01*
Y-207348D01*
X-196961Y-206078D01*
X-195691Y-199730D02*
X-203309D01*
X-199500Y-203539D01*
Y-198461D01*
X-195691Y-192113D02*
X-203309D01*
X-199500Y-195922D01*
Y-190843D01*
X-163309Y246748D02*
X-155691D01*
Y250556D01*
X-156961Y251826D01*
X-162039D01*
X-163309Y250556D01*
Y246748D01*
X-155691Y254365D02*
Y256904D01*
Y255635D01*
X-163309D01*
X-162039Y254365D01*
X-155691Y260713D02*
Y263252D01*
Y261983D01*
X-163309D01*
X-162039Y260713D01*
X-125691Y237113D02*
X-133309D01*
Y240922D01*
X-132039Y242191D01*
X-129500D01*
X-128230Y240922D01*
Y237113D01*
Y239652D02*
X-125691Y242191D01*
X-133309Y249809D02*
Y244730D01*
X-129500D01*
X-130770Y247270D01*
Y248539D01*
X-129500Y249809D01*
X-126961D01*
X-125691Y248539D01*
Y246000D01*
X-126961Y244730D01*
X-125691Y252348D02*
Y254887D01*
Y253618D01*
X-133309D01*
X-132039Y252348D01*
X-145518Y221477D02*
X-153135D01*
Y225286D01*
X-151866Y226556D01*
X-149327D01*
X-148057Y225286D01*
Y221477D01*
Y224016D02*
X-145518Y226556D01*
X-153135Y234173D02*
Y229095D01*
X-149327D01*
X-150596Y231634D01*
Y232903D01*
X-149327Y234173D01*
X-146788D01*
X-145518Y232903D01*
Y230364D01*
X-146788Y229095D01*
X-145518Y241791D02*
Y236712D01*
X-150596Y241791D01*
X-151866D01*
X-153135Y240521D01*
Y237982D01*
X-151866Y236712D01*
X-140191Y-249348D02*
X-147809D01*
Y-245539D01*
X-146539Y-244270D01*
X-144000D01*
X-142730Y-245539D01*
Y-249348D01*
X-146539Y-241730D02*
X-147809Y-240461D01*
Y-237922D01*
X-146539Y-236652D01*
X-145270D01*
X-144000Y-237922D01*
Y-239191D01*
Y-237922D01*
X-142730Y-236652D01*
X-141461D01*
X-140191Y-237922D01*
Y-240461D01*
X-141461Y-241730D01*
X51343Y38191D02*
Y45809D01*
X55152D01*
X56422Y44539D01*
Y42000D01*
X55152Y40730D01*
X51343D01*
X53882D02*
X56422Y38191D01*
X64039D02*
X58961D01*
X64039Y43270D01*
Y44539D01*
X62770Y45809D01*
X60230D01*
X58961Y44539D01*
X70387Y38191D02*
Y45809D01*
X66578Y42000D01*
X71657D01*
X175809Y32843D02*
X168191D01*
Y36652D01*
X169461Y37922D01*
X172000D01*
X173270Y36652D01*
Y32843D01*
Y35382D02*
X175809Y37922D01*
Y45539D02*
Y40461D01*
X170730Y45539D01*
X169461D01*
X168191Y44270D01*
Y41730D01*
X169461Y40461D01*
X168191Y53157D02*
Y48078D01*
X172000D01*
X170730Y50618D01*
Y51887D01*
X172000Y53157D01*
X174539D01*
X175809Y51887D01*
Y49348D01*
X174539Y48078D01*
X-22157Y-178809D02*
Y-171191D01*
X-18348D01*
X-17078Y-172461D01*
Y-175000D01*
X-18348Y-176270D01*
X-22157D01*
X-19618D02*
X-17078Y-178809D01*
X-9461D02*
X-14539D01*
X-9461Y-173730D01*
Y-172461D01*
X-10730Y-171191D01*
X-13270D01*
X-14539Y-172461D01*
X-1843Y-171191D02*
X-4382Y-172461D01*
X-6922Y-175000D01*
Y-177539D01*
X-5652Y-178809D01*
X-3113D01*
X-1843Y-177539D01*
Y-176270D01*
X-3113Y-175000D01*
X-6922D01*
X-194390Y-269620D02*
X-195659Y-268351D01*
X-198198D01*
X-199468Y-269620D01*
Y-274698D01*
X-198198Y-275968D01*
X-195659D01*
X-194390Y-274698D01*
Y-272159D01*
X-196929D01*
X-191850Y-268351D02*
Y-275968D01*
X-188042D01*
X-186772Y-274698D01*
Y-269620D01*
X-188042Y-268351D01*
X-191850D01*
X-184233Y-275968D02*
X-181694D01*
X-182963D01*
Y-268351D01*
X-184233Y-269620D01*
X-194390Y-258620D02*
X-195659Y-257351D01*
X-198198D01*
X-199468Y-258620D01*
Y-263698D01*
X-198198Y-264968D01*
X-195659D01*
X-194390Y-263698D01*
Y-261159D01*
X-196929D01*
X-191850Y-257351D02*
Y-264968D01*
X-188042D01*
X-186772Y-263698D01*
Y-258620D01*
X-188042Y-257351D01*
X-191850D01*
X-184233Y-258620D02*
X-182963Y-257351D01*
X-180424D01*
X-179155Y-258620D01*
Y-263698D01*
X-180424Y-264968D01*
X-182963D01*
X-184233Y-263698D01*
Y-258620D01*
X-194390Y-291620D02*
X-195659Y-290350D01*
X-198198D01*
X-199468Y-291620D01*
Y-296698D01*
X-198198Y-297968D01*
X-195659D01*
X-194390Y-296698D01*
Y-294159D01*
X-196929D01*
X-191850Y-297968D02*
Y-290350D01*
X-186772Y-297968D01*
Y-290350D01*
X-184233D02*
Y-297968D01*
X-180424D01*
X-179155Y-296698D01*
Y-291620D01*
X-180424Y-290350D01*
X-184233D01*
X-199468Y-280620D02*
X-198198Y-279350D01*
X-195659D01*
X-194390Y-280620D01*
Y-281890D01*
X-195659Y-283159D01*
X-196929D01*
X-195659D01*
X-194390Y-284429D01*
Y-285698D01*
X-195659Y-286968D01*
X-198198D01*
X-199468Y-285698D01*
X-191850Y-279350D02*
Y-284429D01*
X-189311Y-286968D01*
X-186772Y-284429D01*
Y-279350D01*
X-184233Y-280620D02*
X-182963Y-279350D01*
X-180424D01*
X-179155Y-280620D01*
Y-281890D01*
X-180424Y-283159D01*
X-181694D01*
X-180424D01*
X-179155Y-284429D01*
Y-285698D01*
X-180424Y-286968D01*
X-182963D01*
X-184233Y-285698D01*
X-85880Y256110D02*
X-87149Y254841D01*
Y252302D01*
X-85880Y251032D01*
X-84610D01*
X-83341Y252302D01*
Y254841D01*
X-82071Y256110D01*
X-80802D01*
X-79532Y254841D01*
Y252302D01*
X-80802Y251032D01*
X-87149Y258650D02*
X-79532D01*
Y262458D01*
X-80802Y263728D01*
X-85880D01*
X-87149Y262458D01*
Y258650D01*
X-79532Y266267D02*
X-84610D01*
X-87149Y268806D01*
X-84610Y271345D01*
X-79532D01*
X-83341D01*
Y266267D01*
X-105880Y256110D02*
X-107149Y254841D01*
Y252302D01*
X-105880Y251032D01*
X-100802D01*
X-99532Y252302D01*
Y254841D01*
X-100802Y256110D01*
X-103341D01*
Y253571D01*
X-99532Y258650D02*
X-107149D01*
X-99532Y263728D01*
X-107149D01*
Y266267D02*
X-99532D01*
Y270076D01*
X-100802Y271345D01*
X-105880D01*
X-107149Y270076D01*
Y266267D01*
X-75880Y256110D02*
X-77150Y254841D01*
Y252302D01*
X-75880Y251032D01*
X-70802D01*
X-69532Y252302D01*
Y254841D01*
X-70802Y256110D01*
X-77150Y258650D02*
X-69532D01*
Y263728D01*
X-77150Y266267D02*
X-69532D01*
X-72071D01*
X-77150Y271345D01*
X-73341Y267537D01*
X-69532Y271345D01*
X-95880Y251032D02*
X-97149Y252302D01*
Y254841D01*
X-95880Y256110D01*
X-94610D01*
X-93341Y254841D01*
Y253571D01*
Y254841D01*
X-92071Y256110D01*
X-90802D01*
X-89532Y254841D01*
Y252302D01*
X-90802Y251032D01*
X-97149Y258650D02*
X-92071D01*
X-89532Y261189D01*
X-92071Y263728D01*
X-97149D01*
X-95880Y266267D02*
X-97149Y267537D01*
Y270076D01*
X-95880Y271345D01*
X-94610D01*
X-93341Y270076D01*
Y268806D01*
Y270076D01*
X-92071Y271345D01*
X-90802D01*
X-89532Y270076D01*
Y267537D01*
X-90802Y266267D01*
G54D20*
X200151Y231200D02*
D03*
M02*
