G04*
G04 #@! TF.GenerationSoftware,Altium Limited,Altium Designer,21.9.2 (33)*
G04*
G04 Layer_Color=8388736*
%FSLAX44Y44*%
%MOMM*%
G71*
G04*
G04 #@! TF.SameCoordinates,2677EA57-048B-4CE0-8197-23F7109DD1FC*
G04*
G04*
G04 #@! TF.FilePolarity,Negative*
G04*
G01*
G75*
%ADD10C,0.2000*%
%ADD18C,0.2560*%
%ADD19C,0.2032*%
%ADD30R,1.1500X0.3000*%
%ADD31R,1.1500X0.6000*%
%ADD63R,0.2500X0.5000*%
%ADD64R,0.6000X0.3000*%
%ADD79C,0.1725*%
%ADD80C,1.6000*%
%ADD81C,0.1270*%
%ADD82C,1.1000*%
%ADD83R,1.1000X0.6250*%
%ADD84R,2.1016X0.8016*%
%ADD85R,1.0016X0.6016*%
%ADD86R,0.6016X1.0016*%
%ADD87R,0.7016X0.6016*%
%ADD88R,0.3516X0.6016*%
%ADD89R,0.6016X0.3516*%
%ADD90R,1.1016X1.9016*%
%ADD91R,1.1016X2.0516*%
%ADD92R,1.6016X1.3016*%
%ADD93R,0.7516X1.1516*%
%ADD94R,1.1016X0.7016*%
%ADD95R,1.2516X0.7016*%
%ADD96R,0.5016X0.4016*%
%ADD97R,1.3016X1.3016*%
%ADD98R,1.3016X1.3016*%
%ADD99R,2.1000X0.6000*%
%ADD100R,3.1000X0.6000*%
%ADD101R,3.9000X0.6000*%
%ADD102R,0.6000X3.1000*%
%ADD103R,1.4016X1.0016*%
%ADD104R,0.6016X0.7016*%
%ADD105O,0.9016X0.3516*%
%ADD106O,0.3516X0.9016*%
%ADD107R,2.5000X2.5000*%
%ADD108R,0.5016X0.3016*%
%ADD109R,0.3016X0.7016*%
%ADD110R,0.8500X0.9500*%
G04:AMPARAMS|DCode=111|XSize=0.45mm|YSize=1.1mm|CornerRadius=0mm|HoleSize=0mm|Usage=FLASHONLY|Rotation=225.000|XOffset=0mm|YOffset=0mm|HoleType=Round|Shape=Rectangle|*
%AMROTATEDRECTD111*
4,1,4,-0.2298,0.5480,0.5480,-0.2298,0.2298,-0.5480,-0.5480,0.2298,-0.2298,0.5480,0.0*
%
%ADD111ROTATEDRECTD111*%

G04:AMPARAMS|DCode=112|XSize=0.45mm|YSize=1.1mm|CornerRadius=0mm|HoleSize=0mm|Usage=FLASHONLY|Rotation=315.000|XOffset=0mm|YOffset=0mm|HoleType=Round|Shape=Rectangle|*
%AMROTATEDRECTD112*
4,1,4,-0.5480,-0.2298,0.2298,0.5480,0.5480,0.2298,-0.2298,-0.5480,-0.5480,-0.2298,0.0*
%
%ADD112ROTATEDRECTD112*%

%ADD113R,0.6016X0.4516*%
%ADD114R,0.3766X0.3516*%
%ADD115R,0.3516X0.3766*%
%ADD116R,0.9016X0.6016*%
%ADD117R,2.1016X0.9016*%
%ADD118R,0.9016X1.3016*%
%ADD119R,0.7016X1.0016*%
%ADD120R,0.4000X0.5500*%
%ADD121R,0.5500X0.4000*%
%ADD122R,0.6500X0.6500*%
%ADD123R,0.6000X0.4000*%
%ADD124R,1.1016X3.6016*%
%ADD125R,1.6016X3.5016*%
%ADD126R,0.6016X0.6016*%
%ADD127R,0.9016X0.9016*%
%ADD128R,0.9016X0.5016*%
%ADD129R,0.5016X0.9016*%
%ADD130R,0.8016X0.4016*%
%ADD131R,2.3016X1.1516*%
%ADD132R,1.1516X1.1016*%
%ADD133R,1.0016X1.4016*%
%ADD134R,0.4016X0.5016*%
%ADD135R,1.0016X0.7016*%
%ADD136R,0.7016X1.2516*%
%ADD137R,1.3016X0.9016*%
G04:AMPARAMS|DCode=138|XSize=0.6016mm|YSize=0.7016mm|CornerRadius=0mm|HoleSize=0mm|Usage=FLASHONLY|Rotation=135.000|XOffset=0mm|YOffset=0mm|HoleType=Round|Shape=Rectangle|*
%AMROTATEDRECTD138*
4,1,4,0.4608,0.0354,-0.0354,-0.4608,-0.4608,-0.0354,0.0354,0.4608,0.4608,0.0354,0.0*
%
%ADD138ROTATEDRECTD138*%

%ADD139O,1.7016X1.5016*%
%ADD140C,1.7516*%
%ADD141R,1.7516X1.7516*%
G04:AMPARAMS|DCode=142|XSize=2.1mm|YSize=1mm|CornerRadius=0.5mm|HoleSize=0mm|Usage=FLASHONLY|Rotation=180.000|XOffset=0mm|YOffset=0mm|HoleType=Round|Shape=RoundedRectangle|*
%AMROUNDEDRECTD142*
21,1,2.1000,0.0000,0,0,180.0*
21,1,1.1000,1.0000,0,0,180.0*
1,1,1.0000,-0.5500,0.0000*
1,1,1.0000,0.5500,0.0000*
1,1,1.0000,0.5500,0.0000*
1,1,1.0000,-0.5500,0.0000*
%
%ADD142ROUNDEDRECTD142*%
G04:AMPARAMS|DCode=143|XSize=1.8mm|YSize=1mm|CornerRadius=0.5mm|HoleSize=0mm|Usage=FLASHONLY|Rotation=180.000|XOffset=0mm|YOffset=0mm|HoleType=Round|Shape=RoundedRectangle|*
%AMROUNDEDRECTD143*
21,1,1.8000,0.0000,0,0,180.0*
21,1,0.8000,1.0000,0,0,180.0*
1,1,1.0000,-0.4000,0.0000*
1,1,1.0000,0.4000,0.0000*
1,1,1.0000,0.4000,0.0000*
1,1,1.0000,-0.4000,0.0000*
%
%ADD143ROUNDEDRECTD143*%
%ADD144C,0.6500*%
%ADD145P,1.5171X8X292.5*%
%ADD146C,1.4016*%
%ADD147C,1.7780*%
%ADD148R,1.7780X1.7780*%
G36*
X57100Y333501D02*
X57195Y333472D01*
X57284Y333424D01*
X57361Y333361D01*
X57424Y333284D01*
X57472Y333195D01*
X57501Y333100D01*
X57510Y333000D01*
Y321000D01*
X57501Y320900D01*
X57472Y320805D01*
X57424Y320716D01*
X57361Y320639D01*
X57284Y320576D01*
X57195Y320528D01*
X57100Y320499D01*
X57000Y320490D01*
X45000D01*
X44900Y320499D01*
X44805Y320528D01*
X44716Y320576D01*
X44639Y320639D01*
X44576Y320716D01*
X44528Y320805D01*
X44499Y320900D01*
X44489Y321000D01*
X44489Y327000D01*
X44499Y327099D01*
X44528Y327195D01*
X44576Y327283D01*
X44639Y327361D01*
X50639Y333361D01*
X50639Y333361D01*
X50682Y333396D01*
X50716Y333424D01*
X50805Y333472D01*
X50900Y333501D01*
X51000Y333511D01*
X57000D01*
X57100Y333501D01*
D02*
G37*
G36*
X164000Y163330D02*
X162990Y162750D01*
X155000D01*
Y170000D01*
X164000D01*
Y163330D01*
D02*
G37*
G36*
X154000Y162750D02*
X150000D01*
Y170000D01*
X154000D01*
Y162750D01*
D02*
G37*
G36*
X149000D02*
X145000D01*
Y170000D01*
X149000D01*
Y162750D01*
D02*
G37*
G36*
X170500Y158250D02*
X163250D01*
Y162170D01*
X164260Y162750D01*
X170500D01*
Y158250D01*
D02*
G37*
G36*
X145750Y159650D02*
Y157000D01*
X138500D01*
Y161000D01*
X144400D01*
X145750Y159650D01*
D02*
G37*
G36*
Y152000D02*
X138500D01*
Y156000D01*
X145750D01*
Y152000D01*
D02*
G37*
G36*
X170500Y151750D02*
X163250D01*
Y156250D01*
X170500D01*
Y151750D01*
D02*
G37*
G36*
X145750Y147000D02*
X138500D01*
Y151000D01*
X145750D01*
Y147000D01*
D02*
G37*
G36*
X170500Y145250D02*
X164260D01*
X163250Y145830D01*
Y149750D01*
X170500D01*
Y145250D01*
D02*
G37*
G36*
X164000Y144670D02*
Y138000D01*
X155000D01*
Y145250D01*
X162990D01*
X164000Y144670D01*
D02*
G37*
G36*
X154000Y138000D02*
X150000D01*
Y145250D01*
X154000D01*
Y138000D01*
D02*
G37*
G36*
X149000D02*
X145000D01*
Y145250D01*
X149000D01*
Y138000D01*
D02*
G37*
G36*
X-145288Y-332099D02*
X-145149Y-332238D01*
X-145094Y-332322D01*
X-145038Y-332405D01*
Y-332460D01*
Y-332488D01*
Y-332571D01*
X-145010Y-332682D01*
Y-332988D01*
Y-333127D01*
Y-333238D01*
Y-333321D01*
Y-333349D01*
Y-334293D01*
X-145344Y-334598D01*
X-153811D01*
X-154228Y-334210D01*
Y-333182D01*
Y-332877D01*
Y-332627D01*
Y-332488D01*
Y-332433D01*
X-154200Y-332238D01*
Y-332155D01*
Y-332099D01*
X-152340D01*
X-151812Y-332072D01*
X-149730D01*
X-145288Y-332099D01*
D02*
G37*
G36*
X-159891D02*
X-159169D01*
X-158891Y-332127D01*
X-158697Y-332155D01*
X-158531Y-332183D01*
X-158420Y-332238D01*
X-158336Y-332266D01*
X-158308Y-332322D01*
X-158281Y-332349D01*
Y-332405D01*
X-158253Y-332516D01*
Y-332627D01*
Y-332655D01*
Y-332682D01*
X-158225Y-332932D01*
Y-333154D01*
Y-333321D01*
Y-333349D01*
Y-333377D01*
Y-333599D01*
Y-333793D01*
X-158253Y-333932D01*
Y-334043D01*
Y-334126D01*
X-158281Y-334182D01*
Y-334210D01*
X-158336Y-334376D01*
X-158364Y-334404D01*
X-158392Y-334432D01*
X-158558Y-334598D01*
X-163250D01*
X-163722Y-334071D01*
X-165832D01*
X-166332Y-334598D01*
X-169802D01*
X-170052Y-334570D01*
X-170663D01*
X-170802Y-334543D01*
X-170968D01*
X-171051Y-334515D01*
X-171162Y-334404D01*
X-171246Y-334293D01*
X-171301Y-334210D01*
Y-334182D01*
Y-334071D01*
X-171329Y-333932D01*
Y-333654D01*
Y-333515D01*
Y-333404D01*
Y-333321D01*
Y-333293D01*
Y-332405D01*
X-171162Y-332238D01*
X-170940Y-332072D01*
X-160169D01*
X-159891Y-332099D01*
D02*
G37*
G36*
X-130852D02*
X-130768D01*
X-130657Y-332127D01*
X-130574Y-332155D01*
X-130519Y-332211D01*
X-130491Y-332238D01*
X-130269Y-332377D01*
Y-343815D01*
X-130463Y-343982D01*
X-130546Y-344037D01*
X-130630Y-344093D01*
X-130685Y-344121D01*
X-132490D01*
X-132823Y-343760D01*
Y-339706D01*
X-132323Y-339207D01*
Y-337041D01*
X-132823Y-336541D01*
Y-334459D01*
X-132795Y-332349D01*
X-132628Y-332211D01*
X-132517Y-332155D01*
X-132434Y-332099D01*
X-132268D01*
X-132156Y-332072D01*
X-130907D01*
X-130852Y-332099D01*
D02*
G37*
G36*
X-140846Y-332405D02*
Y-336847D01*
X-133267D01*
X-132823Y-337208D01*
Y-338957D01*
X-133239Y-339346D01*
X-140846D01*
Y-341511D01*
Y-341816D01*
Y-342094D01*
Y-342344D01*
Y-342566D01*
Y-342927D01*
Y-343204D01*
X-140874Y-343399D01*
Y-343538D01*
Y-343593D01*
Y-343621D01*
X-140902Y-343760D01*
X-140929Y-343871D01*
X-140985Y-344010D01*
X-141068Y-344065D01*
X-141096Y-344093D01*
X-141318D01*
X-141429Y-344121D01*
X-142956D01*
X-143039Y-344093D01*
X-143123Y-344037D01*
X-143178Y-344010D01*
X-143206Y-343982D01*
X-143372Y-343815D01*
Y-332405D01*
X-143178Y-332238D01*
X-143012Y-332072D01*
X-141207D01*
X-140846Y-332405D01*
D02*
G37*
G36*
X-154755Y-334432D02*
X-154172Y-335015D01*
Y-341566D01*
X-145288Y-341622D01*
X-145149Y-341761D01*
X-145094Y-341844D01*
X-145038Y-341927D01*
Y-342011D01*
Y-342038D01*
Y-342122D01*
X-145010Y-342233D01*
Y-342510D01*
Y-342621D01*
Y-342733D01*
Y-342816D01*
Y-342844D01*
Y-343066D01*
Y-343260D01*
Y-343427D01*
Y-343538D01*
X-145038Y-343621D01*
Y-343676D01*
Y-343704D01*
X-145066Y-343787D01*
X-145094Y-343871D01*
X-145121Y-343926D01*
X-145149Y-343954D01*
X-145288Y-344121D01*
X-154033D01*
X-154339Y-344093D01*
X-155171D01*
X-155393Y-344065D01*
X-155588Y-344010D01*
X-155754Y-343926D01*
X-155921Y-343871D01*
X-156032Y-343787D01*
X-156115Y-343732D01*
X-156143Y-343704D01*
X-156171Y-343676D01*
X-156310Y-343538D01*
X-156365Y-343482D01*
X-156393Y-343454D01*
X-156504Y-343288D01*
X-156532Y-343232D01*
Y-343204D01*
X-156587Y-343093D01*
X-156615Y-342955D01*
X-156671Y-342649D01*
Y-342483D01*
X-156698Y-342372D01*
Y-342288D01*
Y-342261D01*
Y-342094D01*
Y-341844D01*
Y-341566D01*
Y-341233D01*
Y-340872D01*
Y-340512D01*
Y-339706D01*
Y-339318D01*
Y-338957D01*
Y-338624D01*
Y-338318D01*
Y-338068D01*
Y-337874D01*
Y-337763D01*
Y-337707D01*
Y-336958D01*
Y-336319D01*
Y-335736D01*
Y-335209D01*
Y-334765D01*
Y-334376D01*
Y-334043D01*
Y-333765D01*
Y-333543D01*
Y-333349D01*
X-156671Y-333210D01*
Y-333099D01*
Y-333016D01*
Y-332960D01*
Y-332932D01*
X-156643Y-332710D01*
X-156615Y-332516D01*
X-156559Y-332405D01*
X-156504Y-332294D01*
X-156476Y-332211D01*
X-156421Y-332183D01*
X-156393Y-332155D01*
X-156310Y-332127D01*
X-156199Y-332099D01*
X-156088D01*
X-155893Y-332072D01*
X-154755D01*
Y-334432D01*
D02*
G37*
G36*
X-163500Y-335015D02*
Y-343815D01*
X-163667Y-343982D01*
X-163750Y-344037D01*
X-163833Y-344093D01*
X-163889Y-344121D01*
X-165721D01*
X-166054Y-343760D01*
Y-335070D01*
X-165860Y-334876D01*
X-165638Y-334681D01*
X-163861D01*
X-163500Y-335015D01*
D02*
G37*
G36*
X-175882Y-332099D02*
X-174799D01*
X-174633Y-332127D01*
X-174355D01*
X-174105Y-332155D01*
X-173883Y-332183D01*
X-173717Y-332238D01*
X-173550Y-332294D01*
X-173439Y-332349D01*
X-173356Y-332405D01*
X-173328Y-332433D01*
X-173300Y-332460D01*
X-173134Y-332655D01*
X-173078Y-332710D01*
X-173050Y-332738D01*
X-172967Y-332821D01*
X-172939Y-332905D01*
X-172911Y-332932D01*
Y-332960D01*
X-172773Y-333238D01*
X-172745Y-338540D01*
Y-343815D01*
X-172884Y-343982D01*
X-172967Y-344037D01*
X-173050Y-344093D01*
X-173134Y-344121D01*
X-174327D01*
X-174577Y-344093D01*
X-174771Y-344065D01*
X-174910Y-344037D01*
X-175021Y-344010D01*
X-175077Y-343982D01*
X-175105Y-343954D01*
X-175132Y-343899D01*
Y-343843D01*
X-175160Y-343621D01*
X-175188Y-343343D01*
X-175216Y-343038D01*
Y-342760D01*
X-175243Y-342510D01*
Y-342316D01*
Y-342288D01*
Y-342261D01*
X-175271Y-340650D01*
X-182822D01*
X-183267Y-340234D01*
Y-338513D01*
X-182850Y-338096D01*
X-175243D01*
Y-334598D01*
X-183267D01*
Y-337735D01*
X-183766Y-338235D01*
Y-340400D01*
X-183267Y-340900D01*
Y-343760D01*
X-183600Y-344121D01*
X-185377D01*
X-185488Y-344093D01*
X-185571Y-344037D01*
X-185627Y-344010D01*
X-185654Y-343982D01*
X-185821Y-343815D01*
X-185793Y-338513D01*
X-185765Y-333182D01*
X-185599Y-332849D01*
X-185488Y-332682D01*
X-185349Y-332571D01*
X-185238Y-332488D01*
X-185210Y-332460D01*
X-185016Y-332322D01*
X-184849Y-332238D01*
X-184738Y-332183D01*
X-184683Y-332155D01*
X-184599Y-332127D01*
X-184433D01*
X-184238Y-332099D01*
X-182712D01*
X-182378Y-332072D01*
X-176271D01*
X-175882Y-332099D01*
D02*
G37*
G36*
X-191568D02*
X-190180D01*
X-189985Y-332127D01*
X-189624D01*
X-189319Y-332155D01*
X-189069Y-332183D01*
X-188875Y-332238D01*
X-188708Y-332294D01*
X-188569Y-332349D01*
X-188486Y-332405D01*
X-188431Y-332433D01*
X-188403Y-332460D01*
X-188264Y-332655D01*
X-188236Y-332710D01*
X-188208Y-332738D01*
X-188125Y-332821D01*
X-188070Y-332905D01*
X-188014Y-332932D01*
Y-332960D01*
X-187875Y-333238D01*
X-187847Y-338429D01*
Y-339207D01*
Y-339901D01*
Y-340539D01*
Y-341067D01*
X-187875Y-341317D01*
Y-341511D01*
Y-341705D01*
Y-341844D01*
Y-341955D01*
Y-342038D01*
Y-342094D01*
Y-342122D01*
Y-342399D01*
Y-342649D01*
Y-342844D01*
Y-343038D01*
Y-343316D01*
Y-343510D01*
Y-343649D01*
Y-343732D01*
Y-343760D01*
X-187931Y-343843D01*
X-187959Y-343871D01*
Y-343899D01*
X-187986Y-343982D01*
X-188014Y-344010D01*
X-188097Y-344065D01*
X-188181Y-344093D01*
X-188264Y-344121D01*
X-189957D01*
X-190068Y-344093D01*
X-190152Y-344037D01*
X-190180Y-344010D01*
X-190207Y-343982D01*
X-190402Y-343815D01*
Y-334598D01*
X-194261D01*
Y-338985D01*
X-194566Y-339346D01*
X-196371D01*
X-196481Y-339318D01*
X-196565Y-339262D01*
X-196593Y-339234D01*
X-196620Y-339207D01*
X-196815Y-339068D01*
Y-334598D01*
X-200340D01*
X-200896Y-334015D01*
X-203200D01*
Y-333210D01*
Y-332988D01*
Y-332821D01*
Y-332682D01*
X-203172Y-332599D01*
Y-332516D01*
Y-332460D01*
Y-332433D01*
X-203117Y-332294D01*
X-203033Y-332211D01*
X-202950Y-332183D01*
X-202922Y-332155D01*
Y-332127D01*
X-202839D01*
X-202645Y-332099D01*
X-200174D01*
X-199757Y-332072D01*
X-192095D01*
X-191568Y-332099D01*
D02*
G37*
G36*
X-200674Y-335015D02*
X-200701Y-339401D01*
Y-343815D01*
X-200868Y-343954D01*
X-200951Y-344037D01*
X-201035Y-344093D01*
X-201090Y-344121D01*
X-202756D01*
X-202867Y-344093D01*
X-202950Y-344065D01*
X-203006Y-344010D01*
X-203033D01*
X-203200Y-343871D01*
Y-339207D01*
Y-334543D01*
X-201146D01*
X-200674Y-335015D01*
D02*
G37*
G36*
X-126215Y-323132D02*
X-126188D01*
X-126104Y-323160D01*
X-126049D01*
X-125993Y-323188D01*
X-125966Y-323216D01*
X-125910Y-323243D01*
X-125716Y-323410D01*
X-125466Y-323604D01*
X-125161Y-323826D01*
X-124883Y-324076D01*
X-124633Y-324271D01*
X-124439Y-324409D01*
X-124411Y-324437D01*
X-124383Y-324465D01*
X-123772Y-324937D01*
X-123162Y-325437D01*
X-122523Y-325936D01*
X-121940Y-326381D01*
X-121440Y-326769D01*
X-121246Y-326936D01*
X-121052Y-327102D01*
X-120885Y-327213D01*
X-120774Y-327297D01*
X-120718Y-327352D01*
X-120691Y-327380D01*
X-115555Y-331516D01*
Y-333377D01*
Y-333737D01*
Y-334043D01*
Y-334293D01*
Y-334515D01*
X-115583Y-334681D01*
Y-334792D01*
Y-334848D01*
Y-334876D01*
Y-335042D01*
Y-335153D01*
X-115610Y-335237D01*
Y-335320D01*
X-115638Y-335376D01*
Y-335403D01*
X-115666Y-335431D01*
X-115721Y-335514D01*
X-115832Y-335625D01*
X-115971Y-335764D01*
X-116304Y-336125D01*
X-116693Y-336541D01*
X-117082Y-336958D01*
X-117387Y-337319D01*
X-117526Y-337458D01*
X-117637Y-337569D01*
X-117692Y-337624D01*
X-117720Y-337652D01*
X-118497Y-338485D01*
X-119275Y-339345D01*
X-120024Y-340151D01*
X-120718Y-340928D01*
X-121052Y-341261D01*
X-121329Y-341566D01*
X-121579Y-341844D01*
X-121801Y-342094D01*
X-121968Y-342261D01*
X-122107Y-342427D01*
X-122190Y-342510D01*
X-122218Y-342538D01*
X-123134Y-343510D01*
X-123994Y-344454D01*
X-124772Y-345287D01*
X-125133Y-345675D01*
X-125466Y-346036D01*
X-125771Y-346369D01*
X-126049Y-346647D01*
X-126271Y-346925D01*
X-126465Y-347119D01*
X-126632Y-347313D01*
X-126743Y-347424D01*
X-126826Y-347508D01*
X-126854Y-347535D01*
X-127243Y-347952D01*
X-127576Y-348313D01*
X-127853Y-348618D01*
X-128131Y-348896D01*
X-128353Y-349146D01*
X-128547Y-349368D01*
X-128714Y-349534D01*
X-128853Y-349673D01*
X-129047Y-349895D01*
X-129158Y-350006D01*
X-129214Y-350062D01*
X-129242Y-350089D01*
X-129547Y-350395D01*
X-129713Y-350173D01*
X-129880Y-349978D01*
X-129991Y-349840D01*
X-130047Y-349729D01*
X-130074Y-349701D01*
X-130130Y-349562D01*
X-130158Y-349423D01*
Y-349312D01*
Y-349284D01*
X-130130Y-349201D01*
X-130074Y-349062D01*
X-129880Y-348785D01*
X-129769Y-348646D01*
X-129686Y-348507D01*
X-129630Y-348424D01*
X-129602Y-348396D01*
X-129464Y-348229D01*
X-129297Y-347980D01*
X-129075Y-347702D01*
X-128825Y-347397D01*
X-128547Y-347036D01*
X-128242Y-346647D01*
X-127631Y-345897D01*
X-127326Y-345509D01*
X-127048Y-345148D01*
X-126771Y-344842D01*
X-126549Y-344537D01*
X-126354Y-344287D01*
X-126215Y-344120D01*
X-126104Y-343982D01*
X-126077Y-343954D01*
X-125466Y-343177D01*
X-124911Y-342483D01*
X-124439Y-341872D01*
X-123994Y-341317D01*
X-123661Y-340900D01*
X-123523Y-340706D01*
X-123411Y-340567D01*
X-123300Y-340456D01*
X-123245Y-340373D01*
X-123189Y-340317D01*
Y-340289D01*
X-122967Y-340012D01*
X-122773Y-339762D01*
X-122606Y-339540D01*
X-122440Y-339345D01*
X-122218Y-339068D01*
X-122051Y-338846D01*
X-121940Y-338707D01*
X-121884Y-338624D01*
X-121857Y-338596D01*
X-121746Y-338429D01*
X-121690Y-338290D01*
X-121662Y-338179D01*
Y-338152D01*
Y-338013D01*
X-121718Y-337874D01*
X-121746Y-337763D01*
X-121774Y-337735D01*
X-121801Y-337707D01*
X-121829Y-337652D01*
X-121996Y-337430D01*
X-122190Y-337180D01*
X-122412Y-336875D01*
X-122662Y-336597D01*
X-122856Y-336347D01*
X-122995Y-336153D01*
X-123023Y-336125D01*
X-123050Y-336097D01*
X-123523Y-335486D01*
X-124022Y-334876D01*
X-124494Y-334265D01*
X-124938Y-333682D01*
X-125355Y-333182D01*
X-125521Y-332960D01*
X-125660Y-332794D01*
X-125771Y-332627D01*
X-125855Y-332516D01*
X-125910Y-332460D01*
X-125938Y-332433D01*
X-126549Y-331683D01*
X-127104Y-331017D01*
X-127604Y-330406D01*
X-128020Y-329879D01*
X-128381Y-329434D01*
X-128520Y-329268D01*
X-128631Y-329129D01*
X-128742Y-329018D01*
X-128797Y-328907D01*
X-128825Y-328879D01*
X-128853Y-328851D01*
X-129075Y-328574D01*
X-129269Y-328324D01*
X-129408Y-328130D01*
X-129575Y-327935D01*
X-129797Y-327658D01*
X-129936Y-327463D01*
X-130019Y-327352D01*
X-130074Y-327269D01*
X-130102Y-327241D01*
X-130130Y-327213D01*
Y-327158D01*
X-130158Y-327130D01*
Y-327102D01*
Y-326936D01*
Y-326880D01*
Y-326852D01*
X-130130Y-326658D01*
X-130102Y-326603D01*
Y-326575D01*
X-130019Y-326436D01*
X-129908Y-326297D01*
X-129797Y-326186D01*
X-129769Y-326131D01*
X-129602Y-325936D01*
X-129408Y-325714D01*
X-129019Y-325242D01*
X-128825Y-325048D01*
X-128659Y-324881D01*
X-128547Y-324770D01*
X-128520Y-324743D01*
X-128214Y-324437D01*
X-127937Y-324160D01*
X-127687Y-323965D01*
X-127493Y-323771D01*
X-127326Y-323660D01*
X-127215Y-323549D01*
X-127159Y-323521D01*
X-127132Y-323493D01*
X-126937Y-323327D01*
X-126798Y-323243D01*
X-126715Y-323188D01*
X-126687D01*
X-126576Y-323132D01*
X-126493Y-323105D01*
X-126243D01*
X-126215Y-323132D01*
D02*
G37*
G36*
X-103700D02*
X-103645Y-323160D01*
X-103617Y-323188D01*
X-103478Y-323271D01*
X-103312Y-323382D01*
X-103201Y-323465D01*
X-103145Y-323521D01*
X-102618Y-323965D01*
X-102368Y-324187D01*
X-102146Y-324409D01*
X-101924Y-324604D01*
X-101785Y-324743D01*
X-101674Y-324854D01*
X-101646Y-324881D01*
X-101368Y-325159D01*
X-101118Y-325437D01*
X-100924Y-325686D01*
X-100758Y-325881D01*
X-100619Y-326047D01*
X-100535Y-326158D01*
X-100480Y-326242D01*
X-100452Y-326269D01*
X-100341Y-326408D01*
X-100258Y-326519D01*
X-100230Y-326575D01*
Y-326603D01*
X-100202Y-326686D01*
X-100175Y-326797D01*
Y-326880D01*
Y-326908D01*
Y-327241D01*
X-104367Y-332460D01*
X-108559Y-337707D01*
X-111030D01*
X-111418Y-337735D01*
X-111946D01*
X-112112Y-337763D01*
X-112307D01*
X-112501Y-337791D01*
X-112668Y-337818D01*
X-112779Y-337874D01*
X-112806Y-337902D01*
X-112862Y-337930D01*
X-112945Y-338013D01*
X-113167Y-338207D01*
X-113306Y-338318D01*
X-113389Y-338429D01*
X-113473Y-338485D01*
X-113500Y-338513D01*
X-113750Y-338735D01*
X-114028Y-338984D01*
X-114305Y-339234D01*
X-114555Y-339484D01*
X-114805Y-339706D01*
X-115000Y-339873D01*
X-115111Y-339984D01*
X-115166Y-340039D01*
X-115583Y-340400D01*
X-115999Y-340789D01*
X-116415Y-341150D01*
X-116776Y-341511D01*
X-117109Y-341816D01*
X-117387Y-342038D01*
X-117554Y-342205D01*
X-117581Y-342233D01*
X-117609Y-342261D01*
X-118636Y-343232D01*
X-119136Y-343676D01*
X-119580Y-344093D01*
X-119969Y-344454D01*
X-120246Y-344731D01*
X-120358Y-344842D01*
X-120441Y-344926D01*
X-120496Y-344953D01*
X-120524Y-344981D01*
X-128020Y-351922D01*
X-128520Y-351422D01*
X-129019Y-350978D01*
X-128076Y-349978D01*
X-127548Y-349423D01*
X-126993Y-348812D01*
X-126410Y-348202D01*
X-125855Y-347619D01*
X-125355Y-347063D01*
X-125133Y-346841D01*
X-124938Y-346647D01*
X-124799Y-346480D01*
X-124661Y-346369D01*
X-124605Y-346286D01*
X-124577Y-346258D01*
X-123745Y-345370D01*
X-122967Y-344509D01*
X-122218Y-343732D01*
X-121884Y-343371D01*
X-121579Y-343010D01*
X-121301Y-342705D01*
X-121024Y-342427D01*
X-120802Y-342177D01*
X-120608Y-341955D01*
X-120469Y-341788D01*
X-120330Y-341678D01*
X-120274Y-341594D01*
X-120246Y-341566D01*
X-119469Y-340734D01*
X-118775Y-339956D01*
X-118164Y-339290D01*
X-117609Y-338707D01*
X-117387Y-338457D01*
X-117193Y-338235D01*
X-116998Y-338041D01*
X-116860Y-337874D01*
X-116749Y-337735D01*
X-116665Y-337652D01*
X-116610Y-337596D01*
X-116582Y-337569D01*
X-116304Y-337263D01*
X-116054Y-337013D01*
X-115832Y-336764D01*
X-115666Y-336569D01*
X-115499Y-336403D01*
X-115388Y-336264D01*
X-115194Y-336042D01*
X-115055Y-335903D01*
X-115000Y-335820D01*
X-114972Y-335792D01*
X-114888Y-335653D01*
X-114861Y-335486D01*
X-114833Y-335376D01*
Y-335320D01*
Y-335153D01*
X-114805Y-334903D01*
Y-334626D01*
Y-334320D01*
X-114777Y-334043D01*
Y-333793D01*
Y-333626D01*
Y-333599D01*
Y-333571D01*
X-114750Y-331516D01*
X-109475Y-327324D01*
X-108808Y-326797D01*
X-108198Y-326297D01*
X-107670Y-325853D01*
X-107198Y-325492D01*
X-106754Y-325159D01*
X-106393Y-324854D01*
X-106088Y-324604D01*
X-105810Y-324382D01*
X-105588Y-324215D01*
X-105394Y-324049D01*
X-105255Y-323937D01*
X-105116Y-323854D01*
X-105033Y-323799D01*
X-104977Y-323743D01*
X-104950Y-323715D01*
X-104672Y-323521D01*
X-104450Y-323354D01*
X-104283Y-323243D01*
X-104172Y-323188D01*
X-104061Y-323132D01*
X-104006Y-323105D01*
X-103839D01*
X-103700Y-323132D01*
D02*
G37*
G36*
X-100175Y-348979D02*
Y-349312D01*
X-100202Y-349479D01*
X-100230Y-349618D01*
X-100258Y-349729D01*
X-100286Y-349756D01*
X-100341Y-349840D01*
X-100424Y-349951D01*
X-100619Y-350201D01*
X-100730Y-350339D01*
X-100813Y-350423D01*
X-100869Y-350506D01*
X-100896Y-350534D01*
X-101257Y-350950D01*
X-101618Y-351311D01*
X-101785Y-351478D01*
X-101896Y-351589D01*
X-101979Y-351672D01*
X-102007Y-351700D01*
X-102451Y-352116D01*
X-102645Y-352283D01*
X-102812Y-352421D01*
X-102951Y-352533D01*
X-103062Y-352616D01*
X-103117Y-352644D01*
X-103145Y-352671D01*
X-103367Y-352838D01*
X-103506Y-352949D01*
X-103589Y-352977D01*
X-103617Y-353004D01*
X-103728Y-353032D01*
X-103811Y-353060D01*
X-104283D01*
X-109475Y-348923D01*
X-110252Y-348313D01*
X-110974Y-347730D01*
X-111613Y-347230D01*
X-112140Y-346786D01*
X-112390Y-346591D01*
X-112612Y-346425D01*
X-112779Y-346286D01*
X-112945Y-346175D01*
X-113056Y-346092D01*
X-113139Y-346008D01*
X-113195Y-345953D01*
X-113223D01*
X-113500Y-345731D01*
X-113750Y-345536D01*
X-113972Y-345370D01*
X-114167Y-345203D01*
X-114444Y-344981D01*
X-114666Y-344815D01*
X-114805Y-344731D01*
X-114861Y-344676D01*
X-114916Y-344648D01*
X-115055Y-344620D01*
X-115305D01*
X-115360Y-344676D01*
X-115555Y-344787D01*
X-115805Y-344953D01*
X-116054Y-345148D01*
X-116332Y-345370D01*
X-116554Y-345536D01*
X-116721Y-345648D01*
X-116749Y-345703D01*
X-116776D01*
X-117054Y-345925D01*
X-117331Y-346147D01*
X-117970Y-346647D01*
X-118636Y-347174D01*
X-119275Y-347674D01*
X-119858Y-348146D01*
X-120108Y-348340D01*
X-120330Y-348507D01*
X-120496Y-348674D01*
X-120635Y-348785D01*
X-120718Y-348840D01*
X-120746Y-348868D01*
X-126021Y-353060D01*
X-126493D01*
X-126604Y-353032D01*
X-126660Y-353004D01*
X-126687D01*
X-126798Y-352949D01*
X-126882Y-352893D01*
X-126993Y-352838D01*
X-127021Y-352810D01*
X-127187Y-352644D01*
X-127243Y-352616D01*
X-127270Y-352588D01*
X-127326Y-352533D01*
X-127381Y-352505D01*
X-127409Y-352477D01*
X-127381Y-352449D01*
X-127298Y-352394D01*
X-127187Y-352283D01*
X-127048Y-352144D01*
X-126687Y-351811D01*
X-126243Y-351394D01*
X-125827Y-351006D01*
X-125466Y-350672D01*
X-125327Y-350534D01*
X-125216Y-350423D01*
X-125133Y-350367D01*
X-125105Y-350339D01*
X-124216Y-349506D01*
X-123328Y-348674D01*
X-122495Y-347896D01*
X-121690Y-347147D01*
X-121357Y-346814D01*
X-121024Y-346536D01*
X-120746Y-346258D01*
X-120496Y-346036D01*
X-120302Y-345842D01*
X-120135Y-345703D01*
X-120052Y-345620D01*
X-120024Y-345592D01*
X-118997Y-344648D01*
X-118053Y-343732D01*
X-117165Y-342927D01*
X-116776Y-342566D01*
X-116415Y-342233D01*
X-116082Y-341927D01*
X-115777Y-341650D01*
X-115527Y-341400D01*
X-115305Y-341205D01*
X-115111Y-341039D01*
X-115000Y-340928D01*
X-114916Y-340845D01*
X-114888Y-340817D01*
X-114472Y-340428D01*
X-114083Y-340095D01*
X-113778Y-339817D01*
X-113500Y-339567D01*
X-113251Y-339345D01*
X-113056Y-339151D01*
X-112890Y-339012D01*
X-112751Y-338901D01*
X-112640Y-338790D01*
X-112556Y-338735D01*
X-112473Y-338624D01*
X-112418Y-338596D01*
X-112307Y-338540D01*
X-112140Y-338513D01*
X-111779D01*
X-111557Y-338485D01*
X-108586D01*
X-100175Y-348979D01*
D02*
G37*
G54D10*
X-199500Y-380000D02*
Y-372003D01*
X-195501D01*
X-194168Y-373335D01*
Y-376001D01*
X-195501Y-377334D01*
X-199500D01*
X-186171Y-373335D02*
X-187504Y-372003D01*
X-190170D01*
X-191503Y-373335D01*
Y-378667D01*
X-190170Y-380000D01*
X-187504D01*
X-186171Y-378667D01*
X-183505Y-372003D02*
Y-380000D01*
X-179506D01*
X-178174Y-378667D01*
Y-377334D01*
X-179506Y-376001D01*
X-183505D01*
X-179506D01*
X-178174Y-374668D01*
Y-373335D01*
X-179506Y-372003D01*
X-183505D01*
X-167510D02*
Y-377334D01*
X-164844Y-380000D01*
X-162179Y-377334D01*
Y-372003D01*
X-159513Y-380000D02*
X-156847D01*
X-158180D01*
Y-372003D01*
X-159513Y-373335D01*
X-152848Y-380000D02*
Y-378667D01*
X-151516D01*
Y-380000D01*
X-152848D01*
X-146184Y-373335D02*
X-144851Y-372003D01*
X-142185D01*
X-140852Y-373335D01*
Y-374668D01*
X-142185Y-376001D01*
X-143518D01*
X-142185D01*
X-140852Y-377334D01*
Y-378667D01*
X-142185Y-380000D01*
X-144851D01*
X-146184Y-378667D01*
X-199500Y-356003D02*
X-194168Y-364000D01*
Y-356003D02*
X-199500Y-364000D01*
X-186171D02*
X-191503D01*
X-186171Y-358668D01*
Y-357336D01*
X-187504Y-356003D01*
X-190170D01*
X-191503Y-357336D01*
X-178174Y-356003D02*
X-183505D01*
Y-364000D01*
X-178174D01*
X-183505Y-360001D02*
X-180839D01*
X-162179Y-357336D02*
X-163512Y-356003D01*
X-166177D01*
X-167510Y-357336D01*
Y-358668D01*
X-166177Y-360001D01*
X-163512D01*
X-162179Y-361334D01*
Y-362667D01*
X-163512Y-364000D01*
X-166177D01*
X-167510Y-362667D01*
X-155514Y-364000D02*
X-158180D01*
X-159513Y-362667D01*
Y-360001D01*
X-158180Y-358668D01*
X-155514D01*
X-154181Y-360001D01*
Y-361334D01*
X-159513D01*
X-151516Y-364000D02*
Y-358668D01*
X-147517D01*
X-146184Y-360001D01*
Y-364000D01*
X-143518D02*
X-139519D01*
X-138187Y-362667D01*
X-139519Y-361334D01*
X-142185D01*
X-143518Y-360001D01*
X-142185Y-358668D01*
X-138187D01*
X-134188Y-364000D02*
X-131522D01*
X-130189Y-362667D01*
Y-360001D01*
X-131522Y-358668D01*
X-134188D01*
X-135521Y-360001D01*
Y-362667D01*
X-134188Y-364000D01*
X-127523Y-358668D02*
Y-364000D01*
Y-361334D01*
X-126190Y-360001D01*
X-124857Y-358668D01*
X-123525D01*
G54D18*
X-25750Y136000D02*
X-2000D01*
X-5000Y138000D02*
X-2000Y136000D01*
X-5000Y134000D02*
Y138000D01*
Y134000D02*
X-2000Y136000D01*
X-30968Y107282D02*
Y131032D01*
X-32968Y110282D02*
X-30968Y107282D01*
X-28968Y110282D01*
X-32968D02*
X-28968D01*
G54D19*
X-26528Y136000D02*
X-27238Y138418D01*
X-29142Y140068D01*
X-31636Y140427D01*
X-33929Y139380D01*
X-35291Y137260D01*
Y134740D01*
X-33929Y132620D01*
X-31636Y131573D01*
X-29142Y131932D01*
X-27238Y133582D01*
X-26528Y136000D01*
X-42936Y145681D02*
X-37858D01*
Y144412D01*
X-42936Y139334D01*
Y138064D01*
X-37858D01*
X-28936Y104682D02*
X-23858Y97064D01*
Y104682D02*
X-28936Y97064D01*
X32Y145649D02*
Y144380D01*
X2571Y141841D01*
X5110Y144380D01*
Y145649D01*
X2571Y141841D02*
Y138032D01*
G54D30*
X218100Y-78500D02*
D03*
Y-73500D02*
D03*
Y-68500D02*
D03*
Y-63500D02*
D03*
Y-58500D02*
D03*
Y-53500D02*
D03*
Y-48500D02*
D03*
Y-43500D02*
D03*
G54D31*
Y-85000D02*
D03*
Y-37000D02*
D03*
Y-93000D02*
D03*
Y-29000D02*
D03*
G54D63*
X71750Y-179250D02*
D03*
X66750D02*
D03*
X61750D02*
D03*
X56750D02*
D03*
Y-192250D02*
D03*
X61750D02*
D03*
X66750D02*
D03*
X71750D02*
D03*
G54D64*
X53500Y-185750D02*
D03*
X75000D02*
D03*
G54D79*
X158403Y-115460D02*
X156678D01*
X158403D01*
Y-120460D02*
X156678D01*
X158403D01*
Y-110460D02*
X156678D01*
X158403D01*
X153403D02*
X151678D01*
X153403D01*
Y-115460D02*
X151678D01*
X153403D01*
Y-120460D02*
X151678D01*
X153403D01*
X163403D02*
X161678D01*
X163403D01*
Y-115460D02*
X161678D01*
X163403D01*
Y-110460D02*
X161678D01*
X163403D01*
G54D80*
X-144400Y-312000D02*
X-141847Y-311866D01*
X-139323Y-311466D01*
X-136854Y-310805D01*
X-134467Y-309889D01*
X-132190Y-308728D01*
X-130046Y-307336D01*
X-128060Y-305728D01*
X-126252Y-303920D01*
X-124643Y-301933D01*
X-123251Y-299790D01*
X-122091Y-297512D01*
X-121175Y-295126D01*
X-120513Y-292657D01*
X-120113Y-290132D01*
X-119979Y-287579D01*
X-212100Y-312000D02*
X-214755Y-312139D01*
X-217381Y-312555D01*
X-219949Y-313243D01*
X-222431Y-314196D01*
X-224800Y-315403D01*
X-227030Y-316851D01*
X-229096Y-318524D01*
X-230976Y-320404D01*
X-232649Y-322470D01*
X-234097Y-324700D01*
X-212100Y-312000D02*
X-144400D01*
X-119979Y-287579D02*
Y-283250D01*
G54D81*
X-30405Y136000D02*
D03*
X159500Y166375D02*
D03*
X152000D02*
D03*
X147000D02*
D03*
X142125Y159000D02*
D03*
Y154000D02*
D03*
Y149000D02*
D03*
X147000Y141625D02*
D03*
X152000D02*
D03*
X166875Y147500D02*
D03*
Y154000D02*
D03*
Y160500D02*
D03*
X159500Y141625D02*
D03*
G54D82*
X-120000Y-245000D02*
Y-240000D01*
Y-222000D02*
Y-206000D01*
G54D83*
X-120000Y-274625D02*
D03*
Y-247375D02*
D03*
Y-236875D02*
D03*
Y-224375D02*
D03*
G54D84*
X-127000Y-4000D02*
D03*
Y7000D02*
D03*
Y18000D02*
D03*
Y29000D02*
D03*
Y40000D02*
D03*
Y51000D02*
D03*
Y62000D02*
D03*
Y73000D02*
D03*
Y84000D02*
D03*
X-30000D02*
D03*
Y73000D02*
D03*
Y62000D02*
D03*
Y51000D02*
D03*
Y40000D02*
D03*
Y29000D02*
D03*
Y18000D02*
D03*
Y7000D02*
D03*
Y-4000D02*
D03*
G54D85*
X184500Y58500D02*
D03*
Y73500D02*
D03*
X-236000Y-115500D02*
D03*
Y-130500D02*
D03*
X206500Y48500D02*
D03*
Y33500D02*
D03*
X138000Y-214000D02*
D03*
Y-229000D02*
D03*
X45500Y74500D02*
D03*
Y89500D02*
D03*
X197000Y-97500D02*
D03*
Y-82500D02*
D03*
X191000Y-18500D02*
D03*
Y-33500D02*
D03*
G54D86*
X206000Y-238500D02*
D03*
X191000D02*
D03*
X-170500Y29000D02*
D03*
X-155500D02*
D03*
X177000Y286000D02*
D03*
X192000D02*
D03*
X177400Y231600D02*
D03*
X192400D02*
D03*
X191000Y-225500D02*
D03*
X206000D02*
D03*
X-221500Y-86000D02*
D03*
X-206500D02*
D03*
X-221500Y-61000D02*
D03*
X-206500D02*
D03*
G54D87*
X-143761Y10015D02*
D03*
Y20015D02*
D03*
X56500Y7000D02*
D03*
Y17000D02*
D03*
X46500Y9523D02*
D03*
Y19523D02*
D03*
X-211750Y203250D02*
D03*
Y213250D02*
D03*
X-145428Y31021D02*
D03*
Y41021D02*
D03*
X-13500Y17000D02*
D03*
Y7000D02*
D03*
X218500Y120000D02*
D03*
Y110000D02*
D03*
X219500Y84000D02*
D03*
Y74000D02*
D03*
X8000Y169000D02*
D03*
Y159000D02*
D03*
X-19500Y365000D02*
D03*
Y355000D02*
D03*
X-66000Y327000D02*
D03*
Y337000D02*
D03*
X152500Y378000D02*
D03*
Y368000D02*
D03*
X16500Y7000D02*
D03*
Y17000D02*
D03*
X-143638Y2049D02*
D03*
Y-7951D02*
D03*
X-204500Y-138000D02*
D03*
Y-128000D02*
D03*
X-199500Y-185000D02*
D03*
Y-175000D02*
D03*
X33500Y95000D02*
D03*
Y85000D02*
D03*
Y65000D02*
D03*
Y75000D02*
D03*
X162500Y378000D02*
D03*
Y368000D02*
D03*
X-207500Y3000D02*
D03*
Y-7000D02*
D03*
X-197500Y3000D02*
D03*
Y-7000D02*
D03*
X-217500Y3000D02*
D03*
Y-7000D02*
D03*
X-93500Y114000D02*
D03*
Y104000D02*
D03*
X-103500Y114000D02*
D03*
Y104000D02*
D03*
X-82000Y114000D02*
D03*
Y104000D02*
D03*
X-61687Y-117507D02*
D03*
Y-127507D02*
D03*
X-135562Y-94251D02*
D03*
Y-84251D02*
D03*
X-143562Y-84251D02*
D03*
Y-94251D02*
D03*
X-40000Y-272000D02*
D03*
Y-262000D02*
D03*
X-119000Y-257000D02*
D03*
Y-267000D02*
D03*
X77500Y-68000D02*
D03*
Y-78000D02*
D03*
X77500Y-211000D02*
D03*
Y-201000D02*
D03*
X-237500Y-368000D02*
D03*
Y-378000D02*
D03*
Y-348000D02*
D03*
Y-358000D02*
D03*
X-40000Y-243000D02*
D03*
Y-253000D02*
D03*
X-24000Y190000D02*
D03*
Y180000D02*
D03*
X-34000Y190000D02*
D03*
Y180000D02*
D03*
X-209500Y-206000D02*
D03*
Y-196000D02*
D03*
X-109770Y288054D02*
D03*
Y278054D02*
D03*
X-119770Y288054D02*
D03*
Y278054D02*
D03*
X131500Y149000D02*
D03*
Y139000D02*
D03*
Y176000D02*
D03*
Y166000D02*
D03*
X172500Y13000D02*
D03*
Y23000D02*
D03*
G54D88*
X-206964Y263000D02*
D03*
X-186964D02*
D03*
Y289000D02*
D03*
X-206964D02*
D03*
X-196964Y263000D02*
D03*
Y289000D02*
D03*
G54D89*
X-209964Y271000D02*
D03*
Y281000D02*
D03*
X-183964Y271000D02*
D03*
Y281000D02*
D03*
Y276000D02*
D03*
X-209964D02*
D03*
G54D90*
X49000Y196000D02*
D03*
X24000D02*
D03*
X209500Y-127000D02*
D03*
X238500D02*
D03*
G54D91*
X-93000Y-290000D02*
D03*
X-42000D02*
D03*
Y-388000D02*
D03*
X193000D02*
D03*
Y-290000D02*
D03*
X25000D02*
D03*
G54D92*
X-252500Y-385000D02*
D03*
Y-363000D02*
D03*
X-215200Y-385000D02*
D03*
Y-278000D02*
D03*
G54D93*
X-201750Y50250D02*
D03*
X-180250D02*
D03*
Y91750D02*
D03*
X-201750D02*
D03*
Y117250D02*
D03*
X-180250D02*
D03*
Y158750D02*
D03*
X-201750D02*
D03*
G54D94*
X-6995Y94503D02*
D03*
Y85003D02*
D03*
Y75503D02*
D03*
X18005Y94503D02*
D03*
Y85003D02*
D03*
Y75503D02*
D03*
X178000Y-238500D02*
D03*
Y-229000D02*
D03*
Y-219500D02*
D03*
X153000Y-238500D02*
D03*
Y-219500D02*
D03*
G54D95*
X138250Y17000D02*
D03*
X160750Y26500D02*
D03*
Y7500D02*
D03*
G54D96*
X-110294Y298080D02*
D03*
X-101294D02*
D03*
X-119270Y298054D02*
D03*
X-128271D02*
D03*
G54D97*
X187500Y2700D02*
D03*
X51000Y310500D02*
D03*
X84000D02*
D03*
X67500D02*
D03*
G54D98*
X187500Y31300D02*
D03*
X84000Y327000D02*
D03*
X67500D02*
D03*
X51000Y294000D02*
D03*
X84000D02*
D03*
X67500D02*
D03*
G54D99*
X-24000Y-230500D02*
D03*
X110000D02*
D03*
X-182500D02*
D03*
X-48500D02*
D03*
G54D100*
X65000D02*
D03*
X15000D02*
D03*
X-93500D02*
D03*
X-143500D02*
D03*
G54D101*
X-15000Y-45500D02*
D03*
X43000D02*
D03*
X101000D02*
D03*
X-173500D02*
D03*
X-115500D02*
D03*
X-57500D02*
D03*
G54D102*
X117500Y-63000D02*
D03*
Y-113000D02*
D03*
Y-163000D02*
D03*
Y-213000D02*
D03*
X-31500D02*
D03*
Y-163000D02*
D03*
Y-113000D02*
D03*
Y-63000D02*
D03*
X-41000D02*
D03*
Y-113000D02*
D03*
Y-163000D02*
D03*
Y-213000D02*
D03*
X-190000D02*
D03*
Y-163000D02*
D03*
Y-113000D02*
D03*
Y-63000D02*
D03*
G54D103*
X176540Y-108960D02*
D03*
Y-127960D02*
D03*
X215500Y163500D02*
D03*
Y182500D02*
D03*
X203500Y92500D02*
D03*
Y73500D02*
D03*
X-35500Y374500D02*
D03*
Y355500D02*
D03*
X-53500Y374500D02*
D03*
Y355500D02*
D03*
X-158500Y-10500D02*
D03*
Y8500D02*
D03*
X-121687Y-72501D02*
D03*
Y-91501D02*
D03*
X-204500Y-240500D02*
D03*
Y-221500D02*
D03*
G54D104*
X-40000Y-253000D02*
D03*
X-50000D02*
D03*
X140500Y131000D02*
D03*
X150500D02*
D03*
X-54000Y307000D02*
D03*
X-44000D02*
D03*
X190000Y-214000D02*
D03*
X200000D02*
D03*
X-200750Y226250D02*
D03*
X-190750D02*
D03*
X203500Y12000D02*
D03*
X213500D02*
D03*
X-219967Y252004D02*
D03*
X-209967D02*
D03*
X-206967Y300004D02*
D03*
X-196967D02*
D03*
X31500Y212000D02*
D03*
X21500D02*
D03*
X41500D02*
D03*
X51500D02*
D03*
X-147000Y335000D02*
D03*
X-157000D02*
D03*
X-54000Y316000D02*
D03*
X-44000D02*
D03*
X-156500Y201000D02*
D03*
X-166500D02*
D03*
X152500Y357000D02*
D03*
X162500D02*
D03*
X-156500Y211000D02*
D03*
X-166500D02*
D03*
X-191500Y252000D02*
D03*
X-201500D02*
D03*
X-158500Y271000D02*
D03*
X-168500D02*
D03*
X168500Y-6000D02*
D03*
X158500D02*
D03*
X-158500Y280000D02*
D03*
X-168500D02*
D03*
X41500Y222000D02*
D03*
X31500D02*
D03*
X-3500Y7000D02*
D03*
X6500D02*
D03*
X-110500Y-18000D02*
D03*
X-120500D02*
D03*
X-5000Y188000D02*
D03*
X-15000D02*
D03*
X-168687Y-157001D02*
D03*
X-158687D02*
D03*
X-168687Y-147001D02*
D03*
X-158687D02*
D03*
X-168687Y-137001D02*
D03*
X-158687D02*
D03*
X-158687Y-167001D02*
D03*
X-168687D02*
D03*
X-107687Y-58001D02*
D03*
X-117687D02*
D03*
X-158687Y-127001D02*
D03*
X-168687D02*
D03*
X-88562Y-142251D02*
D03*
X-78562D02*
D03*
X-88562Y-134251D02*
D03*
X-78562D02*
D03*
X-21122Y-261063D02*
D03*
X-31122D02*
D03*
X-21019Y-272623D02*
D03*
X-31019D02*
D03*
X5500Y-126000D02*
D03*
X15500D02*
D03*
X11500Y-146000D02*
D03*
X21500D02*
D03*
X11500Y-156000D02*
D03*
X21500D02*
D03*
X5500Y-166000D02*
D03*
X15500D02*
D03*
X30250Y-174205D02*
D03*
X40250D02*
D03*
X40250Y-182205D02*
D03*
X30250D02*
D03*
X86500Y-107000D02*
D03*
X96500D02*
D03*
X81750Y-169750D02*
D03*
X71750D02*
D03*
X103500Y-161000D02*
D03*
X93500D02*
D03*
X69500Y-107000D02*
D03*
X79500D02*
D03*
X51500Y-108000D02*
D03*
X41500D02*
D03*
X41500Y-100000D02*
D03*
X51500D02*
D03*
X99000Y-170000D02*
D03*
X89000D02*
D03*
X89000Y-178000D02*
D03*
X99000D02*
D03*
X11500Y-136000D02*
D03*
X21500D02*
D03*
X-237500Y-338000D02*
D03*
X-247500D02*
D03*
X46500Y27000D02*
D03*
X36500D02*
D03*
X26500Y7000D02*
D03*
X36500D02*
D03*
X144040Y-90460D02*
D03*
X154040D02*
D03*
X154540Y-100460D02*
D03*
X144540D02*
D03*
X36500Y47000D02*
D03*
X46500D02*
D03*
X163000Y-131000D02*
D03*
X153000D02*
D03*
X168500Y131000D02*
D03*
X178500D02*
D03*
X168500Y177000D02*
D03*
X178500D02*
D03*
X36500Y37000D02*
D03*
X46500D02*
D03*
X5500Y-176000D02*
D03*
X15500D02*
D03*
X-40000Y-243000D02*
D03*
X-50000D02*
D03*
G54D105*
X78750Y-152500D02*
D03*
Y-147500D02*
D03*
Y-142500D02*
D03*
Y-137500D02*
D03*
Y-132500D02*
D03*
Y-127500D02*
D03*
X40250D02*
D03*
Y-132500D02*
D03*
Y-137500D02*
D03*
Y-142500D02*
D03*
Y-147500D02*
D03*
Y-152500D02*
D03*
X-103437Y-138501D02*
D03*
Y-133501D02*
D03*
Y-128501D02*
D03*
Y-123501D02*
D03*
Y-118501D02*
D03*
Y-113501D02*
D03*
X-141937D02*
D03*
Y-118501D02*
D03*
Y-123501D02*
D03*
Y-128501D02*
D03*
Y-133501D02*
D03*
Y-138501D02*
D03*
G54D106*
X72000Y-120750D02*
D03*
X67000D02*
D03*
X62000D02*
D03*
X57000D02*
D03*
X52000D02*
D03*
X47000D02*
D03*
Y-159250D02*
D03*
X52000D02*
D03*
X57000D02*
D03*
X62000D02*
D03*
X67000D02*
D03*
X72000D02*
D03*
X-110187Y-106751D02*
D03*
X-115187D02*
D03*
X-120187D02*
D03*
X-125187D02*
D03*
X-130187D02*
D03*
X-135187D02*
D03*
Y-145251D02*
D03*
X-130187D02*
D03*
X-125187D02*
D03*
X-120187D02*
D03*
X-115187D02*
D03*
X-110187D02*
D03*
G54D107*
X59500Y-140000D02*
D03*
X-122687Y-126001D02*
D03*
G54D108*
X66950Y-207250D02*
D03*
X56550Y-202250D02*
D03*
X66950D02*
D03*
X56550Y-207250D02*
D03*
G54D109*
X61750Y-209150D02*
D03*
Y-200350D02*
D03*
G54D110*
X94250Y-146750D02*
D03*
X104750D02*
D03*
X94250Y-133250D02*
D03*
X104750D02*
D03*
X-89937Y-115751D02*
D03*
X-79437D02*
D03*
X-89937Y-102251D02*
D03*
X-79437D02*
D03*
G54D111*
X9018Y-218960D02*
D03*
X13614Y-214364D02*
D03*
X18210Y-209768D02*
D03*
X5482Y-197040D02*
D03*
X886Y-201636D02*
D03*
X-3710Y-206232D02*
D03*
G54D112*
X15559Y-199692D02*
D03*
X-1059Y-216308D02*
D03*
G54D113*
X-181750Y215750D02*
D03*
Y209250D02*
D03*
X-201750Y215750D02*
D03*
Y209250D02*
D03*
Y202750D02*
D03*
X-181750D02*
D03*
Y196250D02*
D03*
X-201750D02*
D03*
G54D114*
X-19130Y171500D02*
D03*
X-3870D02*
D03*
X-19130Y166500D02*
D03*
X-3870D02*
D03*
X-19130Y161500D02*
D03*
X-3870D02*
D03*
X-19130Y156500D02*
D03*
X-3870D02*
D03*
G54D115*
X-14000Y171500D02*
D03*
X-9000D02*
D03*
X-14000Y156500D02*
D03*
X-9000D02*
D03*
G54D116*
X-260000Y-115500D02*
D03*
Y-130500D02*
D03*
X269004Y-250250D02*
D03*
Y-235250D02*
D03*
Y-225088D02*
D03*
Y-210088D02*
D03*
G54D117*
X185500Y164000D02*
D03*
Y144000D02*
D03*
G54D118*
X81500Y-93000D02*
D03*
X63500D02*
D03*
G54D119*
X134500Y212000D02*
D03*
X149500D02*
D03*
X203000Y-1000D02*
D03*
X218000D02*
D03*
X51000Y-69000D02*
D03*
X66000D02*
D03*
X149502Y96890D02*
D03*
X134502D02*
D03*
G54D120*
X-120250Y-197000D02*
D03*
Y-185500D02*
D03*
G54D121*
X-123500Y-191250D02*
D03*
X-117000D02*
D03*
G54D122*
X-120250Y-166000D02*
D03*
Y-154000D02*
D03*
G54D123*
X-123750Y-160000D02*
D03*
X-116750D02*
D03*
G54D124*
X-104000Y363500D02*
D03*
X-124000D02*
D03*
X-164000D02*
D03*
X-144000D02*
D03*
G54D125*
X-187500Y421000D02*
D03*
X-80500D02*
D03*
G54D126*
X51000Y327000D02*
D03*
G54D127*
X137500Y380500D02*
D03*
X-2500D02*
D03*
Y240500D02*
D03*
X137500D02*
D03*
G54D128*
X-2500Y370000D02*
D03*
Y361500D02*
D03*
Y353000D02*
D03*
Y344500D02*
D03*
Y336000D02*
D03*
Y327500D02*
D03*
Y319000D02*
D03*
Y310500D02*
D03*
Y302000D02*
D03*
Y293500D02*
D03*
Y285000D02*
D03*
Y276500D02*
D03*
Y268000D02*
D03*
Y259500D02*
D03*
Y251000D02*
D03*
X137500D02*
D03*
Y259500D02*
D03*
Y268000D02*
D03*
Y276500D02*
D03*
Y285000D02*
D03*
Y293500D02*
D03*
Y302000D02*
D03*
Y310500D02*
D03*
Y319000D02*
D03*
Y327500D02*
D03*
Y336000D02*
D03*
Y344500D02*
D03*
Y353000D02*
D03*
Y361500D02*
D03*
Y370000D02*
D03*
G54D129*
X8000Y240500D02*
D03*
X127000Y380500D02*
D03*
X16500Y240500D02*
D03*
X25000D02*
D03*
X33500D02*
D03*
X42000D02*
D03*
X50500D02*
D03*
X59000D02*
D03*
X67500D02*
D03*
X76000D02*
D03*
X84500D02*
D03*
X93000D02*
D03*
X101500D02*
D03*
X110000D02*
D03*
X118500D02*
D03*
X127000D02*
D03*
X118500Y380500D02*
D03*
X110000D02*
D03*
X101500D02*
D03*
X93000D02*
D03*
X84500D02*
D03*
X76000D02*
D03*
X67500D02*
D03*
X59000D02*
D03*
X50500D02*
D03*
X42000D02*
D03*
X33500D02*
D03*
X25000D02*
D03*
X16500D02*
D03*
X8000D02*
D03*
G54D130*
X190250Y-58750D02*
D03*
Y-53250D02*
D03*
X177750D02*
D03*
Y-58750D02*
D03*
G54D131*
X-67000Y-242250D02*
D03*
Y-271750D02*
D03*
X83750Y-7750D02*
D03*
Y21750D02*
D03*
X-101628Y-271750D02*
D03*
Y-242250D02*
D03*
G54D132*
X-51750Y-257000D02*
D03*
X68500Y7000D02*
D03*
X-116878Y-257000D02*
D03*
G54D133*
X183250Y209625D02*
D03*
X164250D02*
D03*
X156000Y43000D02*
D03*
X137000D02*
D03*
X156000Y61000D02*
D03*
X137000D02*
D03*
X156000Y79000D02*
D03*
X137000D02*
D03*
X-165500Y321000D02*
D03*
X-146500D02*
D03*
X30000Y-85000D02*
D03*
X49000D02*
D03*
X183250Y98735D02*
D03*
X164250D02*
D03*
Y116735D02*
D03*
X183250D02*
D03*
Y191625D02*
D03*
X164250D02*
D03*
G54D134*
X202000Y-51000D02*
D03*
Y-42000D02*
D03*
Y-61000D02*
D03*
Y-70000D02*
D03*
X-214500Y-137500D02*
D03*
Y-128500D02*
D03*
X-209500Y-184500D02*
D03*
Y-175500D02*
D03*
G54D135*
X-54000Y342500D02*
D03*
Y327500D02*
D03*
X-105687Y-90501D02*
D03*
Y-75501D02*
D03*
G54D136*
X184500Y269250D02*
D03*
X194000Y246750D02*
D03*
X175000D02*
D03*
X184500Y323250D02*
D03*
X194000Y300750D02*
D03*
X175000D02*
D03*
G54D137*
X-162687Y-96001D02*
D03*
Y-114001D02*
D03*
G54D138*
X40036Y-202536D02*
D03*
X32964Y-195464D02*
D03*
G54D139*
X265000Y-163000D02*
D03*
Y-183000D02*
D03*
G54D140*
X214500Y284800D02*
D03*
Y259400D02*
D03*
Y310200D02*
D03*
Y335600D02*
D03*
Y361000D02*
D03*
G54D141*
Y234000D02*
D03*
G54D142*
X223850Y-104200D02*
D03*
Y-17800D02*
D03*
G54D143*
X265650Y-104200D02*
D03*
Y-17800D02*
D03*
G54D144*
X228850Y-89900D02*
D03*
Y-32100D02*
D03*
G54D145*
X-236500Y-231000D02*
D03*
G54D146*
Y-211000D02*
D03*
Y-191000D02*
D03*
Y-171000D02*
D03*
G54D147*
X-241500Y-86040D02*
D03*
Y-60640D02*
D03*
Y-9840D02*
D03*
Y15560D02*
D03*
Y40960D02*
D03*
Y66360D02*
D03*
Y91760D02*
D03*
Y117160D02*
D03*
Y-35240D02*
D03*
Y183200D02*
D03*
Y208600D02*
D03*
Y234000D02*
D03*
Y259400D02*
D03*
Y284800D02*
D03*
Y310200D02*
D03*
Y335600D02*
D03*
X241100Y259400D02*
D03*
Y284800D02*
D03*
Y310200D02*
D03*
Y335600D02*
D03*
Y361000D02*
D03*
Y30800D02*
D03*
Y183200D02*
D03*
Y56200D02*
D03*
Y157800D02*
D03*
Y132400D02*
D03*
Y107000D02*
D03*
Y81600D02*
D03*
G54D148*
X-241500Y142560D02*
D03*
Y361000D02*
D03*
X241100Y234000D02*
D03*
Y5400D02*
D03*
M02*
