G04*
G04 #@! TF.GenerationSoftware,Altium Limited,Altium Designer,23.4.1 (23)*
G04*
G04 Layer_Physical_Order=2*
G04 Layer_Color=32768*
%FSLAX44Y44*%
%MOMM*%
G71*
G04*
G04 #@! TF.SameCoordinates,161A424F-3C6F-4C89-954A-30EFE7D06E68*
G04*
G04*
G04 #@! TF.FilePolarity,Negative*
G04*
G01*
G75*
%ADD163C,1.0160*%
%ADD196C,1.4556*%
%ADD197C,1.0056*%
%ADD198C,1.1556*%
%ADD199C,1.3716*%
%ADD200C,3.6556*%
%ADD201C,0.6056*%
G36*
X32486Y-225000D02*
Y-180000D01*
X112486D01*
Y-286000D01*
X292505D01*
Y-435000D01*
X-245486D01*
Y-276000D01*
X-167514D01*
Y-205000D01*
X-88000D01*
Y-225000D01*
X32486D01*
D02*
G37*
G36*
X-30000Y5000D02*
Y-35000D01*
X104000D01*
Y5000D01*
X-30000D01*
D02*
G37*
G36*
X-159000Y214000D02*
X-148000D01*
Y165000D01*
X-194000D01*
Y214000D01*
X-164000D01*
Y203000D01*
X-159000D01*
Y214000D01*
D02*
G37*
G36*
X-123000Y208000D02*
Y162000D01*
X-78000D01*
Y208000D01*
X-112000D01*
Y196000D01*
X-117000D01*
Y208000D01*
X-123000D01*
D02*
G37*
G54D163*
X292505Y355104D02*
X292266Y357521D01*
X291561Y359846D01*
X290416Y361988D01*
X288875Y363866D01*
X286998Y365406D01*
X284856Y366551D01*
X282531Y367257D01*
X280114Y367495D01*
X288505Y-435000D02*
X291333Y-433828D01*
X292505Y-431000D01*
X-245486Y-430514D02*
X-244885Y-432757D01*
X-243243Y-434399D01*
X-241000Y-435000D01*
X-90601Y392846D02*
X-11846D01*
X14000Y367000D01*
X168000D01*
X193846Y392846D01*
X241732D01*
X292505Y-431000D02*
Y355104D01*
X-241000Y-435000D02*
X288505D01*
X267123Y367455D02*
X280114Y367495D01*
X241732Y392846D02*
X267123Y367455D01*
X-115992D02*
X-90601Y392846D01*
X-230251Y367455D02*
X-115992D01*
X-245486Y352220D02*
X-230251Y367455D01*
X-245486Y-430514D02*
Y352220D01*
G54D196*
X238000Y263800D02*
D03*
Y213000D02*
D03*
Y238400D02*
D03*
Y289200D02*
D03*
Y314600D02*
D03*
G54D197*
X227850Y-53100D02*
D03*
Y-110900D02*
D03*
G54D198*
X-213000Y-212000D02*
D03*
Y-192000D02*
D03*
Y-232000D02*
D03*
G54D199*
X264600Y60600D02*
D03*
Y86000D02*
D03*
Y213000D02*
D03*
Y238400D02*
D03*
Y263800D02*
D03*
Y289200D02*
D03*
Y314600D02*
D03*
Y340000D02*
D03*
X-218000Y-56240D02*
D03*
Y340000D02*
D03*
Y314600D02*
D03*
Y289200D02*
D03*
Y263800D02*
D03*
Y238400D02*
D03*
Y213000D02*
D03*
Y187600D02*
D03*
Y162200D02*
D03*
Y121560D02*
D03*
Y96160D02*
D03*
Y70760D02*
D03*
Y45360D02*
D03*
Y19960D02*
D03*
Y-5440D02*
D03*
X264600Y35200D02*
D03*
Y162200D02*
D03*
X-218000Y-81640D02*
D03*
Y-107040D02*
D03*
X264600Y9800D02*
D03*
Y-15600D02*
D03*
G54D200*
X-65600Y365400D02*
D03*
X213800D02*
D03*
X-218000Y-142600D02*
D03*
X264600Y-155300D02*
D03*
G54D201*
X7555Y-178001D02*
D03*
X274546Y-341915D02*
D03*
Y-402153D02*
D03*
X259486Y-311795D02*
D03*
Y-372034D02*
D03*
X214307Y-402153D02*
D03*
X199247Y-311795D02*
D03*
Y-372034D02*
D03*
X169128Y-311795D02*
D03*
Y-372034D02*
D03*
X139009Y-311795D02*
D03*
Y-372034D02*
D03*
X123949Y-402153D02*
D03*
X93830Y-221437D02*
D03*
Y-281676D02*
D03*
X108889Y-311795D02*
D03*
Y-372034D02*
D03*
X93830Y-402153D02*
D03*
X78770Y-372034D02*
D03*
X63710Y-402153D02*
D03*
X33591Y-281676D02*
D03*
Y-341915D02*
D03*
X48651Y-372034D02*
D03*
X33591Y-402153D02*
D03*
X18531Y-251557D02*
D03*
X3472Y-341915D02*
D03*
X18531Y-372034D02*
D03*
X-26648Y-281676D02*
D03*
Y-341915D02*
D03*
X-11588Y-372034D02*
D03*
X-26648Y-402153D02*
D03*
X-41707Y-251557D02*
D03*
X-56767Y-281676D02*
D03*
X-41707Y-311795D02*
D03*
X-56767Y-341915D02*
D03*
X-41707Y-372034D02*
D03*
X-56767Y-402153D02*
D03*
X-86886Y-281676D02*
D03*
X-71827Y-311795D02*
D03*
X-86886Y-341915D02*
D03*
Y-402153D02*
D03*
X-117006Y-281676D02*
D03*
X-101946Y-311795D02*
D03*
X-117006Y-341915D02*
D03*
X-162185Y-311795D02*
D03*
X-207363Y-281676D02*
D03*
X-192304Y-372034D02*
D03*
X-237483Y-281676D02*
D03*
X-222423Y-311795D02*
D03*
X-237483Y-341915D02*
D03*
X-151060Y193425D02*
D03*
X-146000Y250000D02*
D03*
X-179000Y170242D02*
D03*
X199000Y-13758D02*
D03*
X67208Y-104151D02*
D03*
X52992Y-213000D02*
D03*
X70508Y-212000D02*
D03*
X-77242Y-76000D02*
D03*
X120000Y-165759D02*
D03*
X-26441Y159145D02*
D03*
X100000Y-260000D02*
D03*
X-100000Y-300000D02*
D03*
Y-260000D02*
D03*
X-120000Y-310000D02*
D03*
X100000Y-300000D02*
D03*
X80000Y-310000D02*
D03*
X90000D02*
D03*
X50000Y61000D02*
D03*
X108000Y212242D02*
D03*
X-146000Y243000D02*
D03*
X-107197Y-146886D02*
D03*
X-88492Y-195205D02*
D03*
X-50742Y-232000D02*
D03*
X66704Y-24055D02*
D03*
X75214D02*
D03*
X83724D02*
D03*
X92234Y-24009D02*
D03*
X102126Y-14132D02*
D03*
X92471Y-4038D02*
D03*
X26264Y-4765D02*
D03*
X28867Y-23925D02*
D03*
X37376Y-24055D02*
D03*
X45886D02*
D03*
X54328Y-22989D02*
D03*
X50471Y-4038D02*
D03*
X-21376Y-12762D02*
D03*
X14071Y-24055D02*
D03*
X22410Y-22359D02*
D03*
X17471Y-4038D02*
D03*
X-151055Y-294052D02*
D03*
Y-302562D02*
D03*
X-151444Y-311063D02*
D03*
X-155555Y-318515D02*
D03*
X-163029Y-322584D02*
D03*
X-171531Y-322945D02*
D03*
X-180041D02*
D03*
X-188551D02*
D03*
X-196988Y-324054D02*
D03*
X-204978Y-326983D02*
D03*
X-211957Y-331853D02*
D03*
X-217666Y-338164D02*
D03*
X-221610Y-345705D02*
D03*
X-222428Y-370807D02*
D03*
X-206000Y-375000D02*
D03*
X-204184Y-367184D02*
D03*
X-203945Y-358677D02*
D03*
X-201725Y-350462D02*
D03*
X-195462Y-344700D02*
D03*
X-187113Y-343055D02*
D03*
X-178603D02*
D03*
X-170093D02*
D03*
X-161591Y-342687D02*
D03*
X-153374Y-340473D02*
D03*
X-145862Y-336474D02*
D03*
X-139622Y-330687D02*
D03*
X-134851Y-323641D02*
D03*
X-131968Y-315634D02*
D03*
X-130945Y-307185D02*
D03*
X223945Y-380556D02*
D03*
Y-389066D02*
D03*
X223000Y-398000D02*
D03*
Y-406000D02*
D03*
Y-415000D02*
D03*
X228000Y-424000D02*
D03*
X236000D02*
D03*
X245000Y-418000D02*
D03*
Y-410000D02*
D03*
Y-402000D02*
D03*
X244055Y-393186D02*
D03*
X51945Y-292265D02*
D03*
Y-300775D02*
D03*
Y-309285D02*
D03*
Y-317795D02*
D03*
X52643Y-326277D02*
D03*
X55252Y-334376D02*
D03*
X59714Y-341623D02*
D03*
X65759Y-347613D02*
D03*
X73087Y-351940D02*
D03*
X81210Y-354474D02*
D03*
X89701Y-355055D02*
D03*
X98211D02*
D03*
X106721D02*
D03*
X115231D02*
D03*
X123741D02*
D03*
X132251D02*
D03*
X140761D02*
D03*
X149271D02*
D03*
X157781D02*
D03*
X166290D02*
D03*
X174800D02*
D03*
X183311D02*
D03*
X191821D02*
D03*
X200331D02*
D03*
X208841D02*
D03*
X217351D02*
D03*
X223945Y-360434D02*
D03*
X226140Y-368656D02*
D03*
X241294Y-370681D02*
D03*
X244031Y-362623D02*
D03*
X241401Y-345971D02*
D03*
X235900Y-339478D02*
D03*
X228274Y-335701D02*
D03*
X219798Y-334945D02*
D03*
X211288D02*
D03*
X202778D02*
D03*
X194268D02*
D03*
X185758D02*
D03*
X177248D02*
D03*
X168738D02*
D03*
X160228D02*
D03*
X151718D02*
D03*
X143208D02*
D03*
X134698D02*
D03*
X126188D02*
D03*
X117678D02*
D03*
X109168D02*
D03*
X100658D02*
D03*
X92148D02*
D03*
X83652Y-334469D02*
D03*
X76288Y-330204D02*
D03*
X72326Y-322673D02*
D03*
X72055Y-314167D02*
D03*
Y-305657D02*
D03*
X52572Y-220730D02*
D03*
X51945Y-229216D02*
D03*
Y-237726D02*
D03*
Y-263256D02*
D03*
Y-271766D02*
D03*
X53756Y-280081D02*
D03*
X71547Y-277483D02*
D03*
X72055Y-243458D02*
D03*
Y-234949D02*
D03*
Y-226439D02*
D03*
X70073Y-218163D02*
D03*
X52133Y-189818D02*
D03*
X51695Y-198316D02*
D03*
X53974Y-206516D02*
D03*
X71082Y-203734D02*
D03*
X71805Y-195255D02*
D03*
X70007Y-186937D02*
D03*
X-231000Y-372000D02*
D03*
X-237000D02*
D03*
X-233000Y-396000D02*
D03*
X-225000D02*
D03*
X-204286Y-387695D02*
D03*
X-147781Y-235670D02*
D03*
X-151555Y-260363D02*
D03*
Y-268873D02*
D03*
X-151461Y-277382D02*
D03*
X-148640Y-285411D02*
D03*
X-132851Y-284137D02*
D03*
X-131445Y-275744D02*
D03*
X-120938Y-209647D02*
D03*
X-114355Y-225475D02*
D03*
X-104435Y-228645D02*
D03*
X-103089Y-237048D02*
D03*
X-98574Y-244261D02*
D03*
X-91678Y-249247D02*
D03*
X-63020Y-238801D02*
D03*
X-92245Y-215142D02*
D03*
X-171000Y194000D02*
D03*
X-101000Y185000D02*
D03*
X28258Y323000D02*
D03*
X153742Y306000D02*
D03*
Y298000D02*
D03*
X207750Y311258D02*
D03*
X-26000Y166000D02*
D03*
X-147000Y301000D02*
D03*
X-154000D02*
D03*
X-69000Y-76000D02*
D03*
X-62000D02*
D03*
X-55000D02*
D03*
X151000Y180264D02*
D03*
X151000Y173000D02*
D03*
Y188000D02*
D03*
X186000Y362758D02*
D03*
X50000Y67000D02*
D03*
X-188758Y-82000D02*
D03*
Y-107000D02*
D03*
X-196000Y-228000D02*
D03*
Y-235000D02*
D03*
Y-242000D02*
D03*
X57000Y86242D02*
D03*
X253000Y51000D02*
D03*
Y66000D02*
D03*
X184742Y-188000D02*
D03*
X191758Y336000D02*
D03*
X7555Y-188001D02*
D03*
X-130504Y-187000D02*
D03*
X158000Y180264D02*
D03*
X158000Y173000D02*
D03*
X78313Y-88001D02*
D03*
X72313D02*
D03*
X-69000Y321000D02*
D03*
Y313000D02*
D03*
Y305000D02*
D03*
X80000Y1758D02*
D03*
X113125Y-78091D02*
D03*
X-4726Y304591D02*
D03*
X-25196Y188000D02*
D03*
X-20000Y197000D02*
D03*
X-107242Y-187000D02*
D03*
X119439Y-81166D02*
D03*
X108515Y149612D02*
D03*
X120000Y159000D02*
D03*
X114000Y154000D02*
D03*
X135564Y173408D02*
D03*
X7555Y-158001D02*
D03*
X-115000Y-56000D02*
D03*
X-119388Y-50515D02*
D03*
X54242Y26000D02*
D03*
X-19758Y-25000D02*
D03*
Y-3000D02*
D03*
X-146000Y-11000D02*
D03*
Y-17000D02*
D03*
X-152000D02*
D03*
Y-11000D02*
D03*
X12000Y81000D02*
D03*
X20000D02*
D03*
X12000Y88000D02*
D03*
X20000D02*
D03*
X52000Y161000D02*
D03*
X199000Y-27000D02*
D03*
X220000D02*
D03*
Y-10000D02*
D03*
X252000Y81000D02*
D03*
Y91000D02*
D03*
Y157000D02*
D03*
Y167000D02*
D03*
X180000Y-97000D02*
D03*
X157000Y-11000D02*
D03*
X164000D02*
D03*
X171000D02*
D03*
X-214000Y-404758D02*
D03*
X-229758Y-359000D02*
D03*
X249758Y-386000D02*
D03*
Y-356000D02*
D03*
X180000Y-154000D02*
D03*
X174000D02*
D03*
X226000Y-152000D02*
D03*
X232000D02*
D03*
X238000D02*
D03*
X-188250Y198008D02*
D03*
X148000Y249000D02*
D03*
X83000Y161000D02*
D03*
X75944Y230944D02*
D03*
X150000Y232000D02*
D03*
X35000Y186000D02*
D03*
X152000Y345000D02*
D03*
X-83535Y-231577D02*
D03*
X60000Y-258D02*
D03*
X40000Y1758D02*
D03*
X10000D02*
D03*
X154196Y-81033D02*
D03*
X149000Y-86000D02*
D03*
X125867Y-84000D02*
D03*
X-119586Y-245742D02*
D03*
X-113000Y-244000D02*
D03*
X-144328Y-221672D02*
D03*
X-127250Y-229000D02*
D03*
X-82861Y-218605D02*
D03*
X-110422Y-236578D02*
D03*
X-134828Y-212172D02*
D03*
X-142000Y-215000D02*
D03*
X204000Y-161976D02*
D03*
X204000Y-169000D02*
D03*
X184957Y-142911D02*
D03*
X168258Y239000D02*
D03*
X29071Y-187921D02*
D03*
X7555Y-168001D02*
D03*
X-180000Y124000D02*
D03*
X-173508Y127111D02*
D03*
X-194000Y-12242D02*
D03*
X-37000Y131742D02*
D03*
X123556Y191444D02*
D03*
X125196Y163770D02*
D03*
X168258Y230000D02*
D03*
X-184000Y-12242D02*
D03*
X-174000D02*
D03*
X-129094Y-157000D02*
D03*
X-110008Y-195205D02*
D03*
X-128758Y-177000D02*
D03*
Y-167000D02*
D03*
X-106664Y-139221D02*
D03*
X-100000Y-137000D02*
D03*
X-32000D02*
D03*
X-39000D02*
D03*
X-47000Y-177000D02*
D03*
X-156000Y-244000D02*
D03*
X-77000Y-101000D02*
D03*
X-78153Y-134527D02*
D03*
X-102000Y-158000D02*
D03*
X130442Y168442D02*
D03*
X184000Y204000D02*
D03*
X188424Y209772D02*
D03*
X-36000Y180258D02*
D03*
X83000Y212242D02*
D03*
X74000D02*
D03*
X-118722Y180000D02*
D03*
X48000Y212242D02*
D03*
X40000D02*
D03*
X31000D02*
D03*
X28258Y230000D02*
D03*
Y238000D02*
D03*
Y247000D02*
D03*
Y256000D02*
D03*
Y264000D02*
D03*
Y273000D02*
D03*
Y281000D02*
D03*
Y290000D02*
D03*
X29313Y-150001D02*
D03*
X86313Y-155001D02*
D03*
X30349Y-117001D02*
D03*
X53768Y-104436D02*
D03*
X32313Y-145001D02*
D03*
X185000Y-135000D02*
D03*
M02*
