G04*
G04 #@! TF.GenerationSoftware,Altium Limited,Altium Designer,21.9.2 (33)*
G04*
G04 Layer_Color=16711935*
%FSLAX44Y44*%
%MOMM*%
G71*
G04*
G04 #@! TF.SameCoordinates,C1FE3FC6-A359-41CC-B4F4-00F3ECA3B637*
G04*
G04*
G04 #@! TF.FilePolarity,Negative*
G04*
G01*
G75*
%ADD139C,1.7516*%
%ADD140R,1.7516X1.7516*%
G04:AMPARAMS|DCode=141|XSize=2.1mm|YSize=1mm|CornerRadius=0.5mm|HoleSize=0mm|Usage=FLASHONLY|Rotation=180.000|XOffset=0mm|YOffset=0mm|HoleType=Round|Shape=RoundedRectangle|*
%AMROUNDEDRECTD141*
21,1,2.1000,0.0000,0,0,180.0*
21,1,1.1000,1.0000,0,0,180.0*
1,1,1.0000,-0.5500,0.0000*
1,1,1.0000,0.5500,0.0000*
1,1,1.0000,0.5500,0.0000*
1,1,1.0000,-0.5500,0.0000*
%
%ADD141ROUNDEDRECTD141*%
G04:AMPARAMS|DCode=142|XSize=1.8mm|YSize=1mm|CornerRadius=0.5mm|HoleSize=0mm|Usage=FLASHONLY|Rotation=180.000|XOffset=0mm|YOffset=0mm|HoleType=Round|Shape=RoundedRectangle|*
%AMROUNDEDRECTD142*
21,1,1.8000,0.0000,0,0,180.0*
21,1,0.8000,1.0000,0,0,180.0*
1,1,1.0000,-0.4000,0.0000*
1,1,1.0000,0.4000,0.0000*
1,1,1.0000,0.4000,0.0000*
1,1,1.0000,-0.4000,0.0000*
%
%ADD142ROUNDEDRECTD142*%
%ADD143C,0.6500*%
%ADD144P,1.5171X8X292.5*%
%ADD145C,1.4016*%
%ADD146O,1.7016X1.5016*%
%ADD147C,1.7780*%
%ADD148R,1.7780X1.7780*%
%ADD182C,1.6016*%
G54D139*
X214500Y284800D02*
D03*
Y259400D02*
D03*
Y310200D02*
D03*
Y335600D02*
D03*
Y361000D02*
D03*
G54D140*
Y234000D02*
D03*
G54D141*
X223850Y-104200D02*
D03*
Y-17800D02*
D03*
G54D142*
X265650Y-104200D02*
D03*
Y-17800D02*
D03*
G54D143*
X228850Y-89900D02*
D03*
Y-32100D02*
D03*
G54D144*
X-236500Y-231000D02*
D03*
G54D145*
Y-211000D02*
D03*
Y-191000D02*
D03*
Y-171000D02*
D03*
G54D146*
X265000Y-183000D02*
D03*
Y-163000D02*
D03*
G54D147*
X-241500Y-86040D02*
D03*
Y-60640D02*
D03*
Y-9840D02*
D03*
Y15560D02*
D03*
Y40960D02*
D03*
Y66360D02*
D03*
Y91760D02*
D03*
Y117160D02*
D03*
Y-35240D02*
D03*
Y183200D02*
D03*
Y208600D02*
D03*
Y234000D02*
D03*
Y259400D02*
D03*
Y284800D02*
D03*
Y310200D02*
D03*
Y335600D02*
D03*
X241100Y259400D02*
D03*
Y284800D02*
D03*
Y310200D02*
D03*
Y335600D02*
D03*
Y361000D02*
D03*
Y30800D02*
D03*
Y183200D02*
D03*
Y56200D02*
D03*
Y157800D02*
D03*
Y132400D02*
D03*
Y107000D02*
D03*
Y81600D02*
D03*
G54D148*
X-241500Y142560D02*
D03*
Y361000D02*
D03*
X241100Y234000D02*
D03*
Y5400D02*
D03*
G54D182*
X-168000Y298000D02*
D03*
X-17500Y186000D02*
D03*
M02*
