G04*
G04 #@! TF.GenerationSoftware,Altium Limited,Altium Designer,23.4.1 (23)*
G04*
G04 Layer_Color=65535*
%FSLAX44Y44*%
%MOMM*%
G71*
G04*
G04 #@! TF.SameCoordinates,161A424F-3C6F-4C89-954A-30EFE7D06E68*
G04*
G04*
G04 #@! TF.FilePolarity,Positive*
G04*
G01*
G75*
%ADD10C,0.2000*%
%ADD11C,0.2500*%
%ADD12C,0.1000*%
%ADD13C,0.2540*%
%ADD14C,0.1000*%
%ADD15C,0.1500*%
%ADD16C,0.1270*%
%ADD17C,0.3000*%
%ADD18C,0.2560*%
%ADD19C,0.2032*%
%ADD20R,0.3300X0.7000*%
G36*
X-43095Y227660D02*
Y218364D01*
X-83397D01*
Y227660D01*
X-43095D01*
D02*
G37*
G36*
X47994Y85623D02*
X36006D01*
Y136377D01*
X47994D01*
Y85623D01*
D02*
G37*
G36*
X8994Y245377D02*
Y194623D01*
X-2994D01*
Y245377D01*
X8994D01*
D02*
G37*
G36*
X-141352Y-341151D02*
X-150648D01*
Y-300849D01*
X-141352D01*
Y-341151D01*
D02*
G37*
G36*
X211377Y-283000D02*
X176000D01*
Y-271844D01*
X211377D01*
Y-283000D01*
D02*
G37*
G36*
X8994Y295000D02*
Y253623D01*
X-2994D01*
Y295000D01*
X8994D01*
D02*
G37*
G36*
X-226829Y-263094D02*
X-226824Y-263161D01*
X-226819Y-263239D01*
X-226814Y-263333D01*
X-226803Y-263432D01*
X-226788Y-263536D01*
Y-263547D01*
X-226783Y-263562D01*
X-226777Y-263583D01*
X-226772Y-263635D01*
X-226756Y-263703D01*
X-226741Y-263771D01*
X-226720Y-263849D01*
X-226694Y-263916D01*
X-226668Y-263979D01*
X-226663Y-263989D01*
X-226652Y-264010D01*
X-226626Y-264041D01*
X-226600Y-264083D01*
X-226564Y-264130D01*
X-226517Y-264177D01*
X-226470Y-264224D01*
X-226413Y-264265D01*
X-226408Y-264270D01*
X-226382Y-264281D01*
X-226350Y-264302D01*
X-226304Y-264323D01*
X-226241Y-264343D01*
X-226173Y-264364D01*
X-226090Y-264380D01*
X-225996Y-264390D01*
Y-265015D01*
X-231391D01*
Y-266239D01*
X-232000D01*
Y-263000D01*
X-231391D01*
Y-264244D01*
X-227376D01*
Y-263000D01*
X-226829D01*
Y-263094D01*
D02*
G37*
%LPC*%
G36*
X-77455Y226377D02*
X-80276D01*
X-80408Y226367D01*
X-80535Y226356D01*
X-80657Y226340D01*
X-80768Y226325D01*
X-80873Y226303D01*
X-80974Y226288D01*
X-81064Y226266D01*
X-81143Y226245D01*
X-81217Y226224D01*
X-81275Y226203D01*
X-81328Y226187D01*
X-81370Y226171D01*
X-81396Y226161D01*
X-81418Y226155D01*
X-81423Y226150D01*
X-81518Y226108D01*
X-81608Y226055D01*
X-81692Y226008D01*
X-81771Y225949D01*
X-81846Y225897D01*
X-81909Y225844D01*
X-81972Y225786D01*
X-82025Y225733D01*
X-82073Y225685D01*
X-82115Y225638D01*
X-82152Y225595D01*
X-82178Y225564D01*
X-82199Y225532D01*
X-82215Y225511D01*
X-82226Y225495D01*
X-82231Y225490D01*
X-82279Y225411D01*
X-82321Y225326D01*
X-82363Y225242D01*
X-82395Y225162D01*
X-82443Y225004D01*
X-82474Y224861D01*
X-82490Y224798D01*
X-82495Y224740D01*
X-82501Y224687D01*
X-82506Y224645D01*
X-82511Y224608D01*
Y224581D01*
Y224565D01*
Y224560D01*
X-82506Y224417D01*
X-82485Y224280D01*
X-82458Y224153D01*
X-82416Y224032D01*
X-82374Y223915D01*
X-82321Y223804D01*
X-82268Y223709D01*
X-82210Y223614D01*
X-82157Y223535D01*
X-82104Y223461D01*
X-82052Y223398D01*
X-82009Y223345D01*
X-81967Y223303D01*
X-81941Y223276D01*
X-81919Y223255D01*
X-81914Y223250D01*
X-81824Y223181D01*
X-81729Y223112D01*
X-81618Y223049D01*
X-81502Y222991D01*
X-81254Y222880D01*
X-81011Y222785D01*
X-80894Y222743D01*
X-80789Y222711D01*
X-80688Y222679D01*
X-80599Y222653D01*
X-80530Y222632D01*
X-80477Y222616D01*
X-80456Y222610D01*
X-80440D01*
X-80435Y222605D01*
X-80430D01*
X-80282Y222568D01*
X-80150Y222537D01*
X-80028Y222505D01*
X-79917Y222478D01*
X-79822Y222452D01*
X-79732Y222431D01*
X-79658Y222410D01*
X-79595Y222389D01*
X-79542Y222373D01*
X-79495Y222362D01*
X-79458Y222352D01*
X-79426Y222341D01*
X-79405Y222336D01*
X-79389Y222330D01*
X-79378Y222325D01*
X-79262Y222278D01*
X-79162Y222230D01*
X-79077Y222183D01*
X-79014Y222135D01*
X-78966Y222098D01*
X-78929Y222066D01*
X-78908Y222045D01*
X-78903Y222040D01*
X-78855Y221977D01*
X-78823Y221913D01*
X-78797Y221844D01*
X-78781Y221786D01*
X-78771Y221733D01*
X-78765Y221686D01*
Y221660D01*
Y221654D01*
Y221649D01*
X-78771Y221580D01*
X-78781Y221517D01*
X-78797Y221459D01*
X-78813Y221401D01*
X-78866Y221290D01*
X-78924Y221200D01*
X-78987Y221126D01*
X-79035Y221068D01*
X-79056Y221047D01*
X-79072Y221031D01*
X-79082Y221026D01*
X-79088Y221020D01*
X-79151Y220973D01*
X-79220Y220936D01*
X-79294Y220899D01*
X-79373Y220867D01*
X-79531Y220819D01*
X-79690Y220788D01*
X-79764Y220777D01*
X-79827Y220772D01*
X-79891Y220767D01*
X-79944Y220761D01*
X-79986Y220756D01*
X-80049D01*
X-80160Y220761D01*
X-80260Y220767D01*
X-80361Y220783D01*
X-80451Y220804D01*
X-80535Y220825D01*
X-80615Y220851D01*
X-80683Y220878D01*
X-80747Y220909D01*
X-80805Y220936D01*
X-80857Y220962D01*
X-80900Y220989D01*
X-80937Y221010D01*
X-80963Y221031D01*
X-80984Y221047D01*
X-80995Y221052D01*
X-81000Y221057D01*
X-81064Y221115D01*
X-81122Y221184D01*
X-81174Y221258D01*
X-81222Y221332D01*
X-81301Y221490D01*
X-81365Y221644D01*
X-81391Y221718D01*
X-81412Y221781D01*
X-81428Y221844D01*
X-81444Y221897D01*
X-81454Y221940D01*
X-81460Y221977D01*
X-81465Y221998D01*
Y222003D01*
X-82744Y221876D01*
X-82712Y221675D01*
X-82675Y221490D01*
X-82622Y221316D01*
X-82569Y221152D01*
X-82506Y221004D01*
X-82437Y220867D01*
X-82368Y220746D01*
X-82300Y220635D01*
X-82236Y220534D01*
X-82173Y220450D01*
X-82115Y220376D01*
X-82062Y220318D01*
X-82020Y220270D01*
X-81983Y220238D01*
X-81962Y220217D01*
X-81957Y220212D01*
X-81824Y220112D01*
X-81687Y220027D01*
X-81534Y219948D01*
X-81381Y219884D01*
X-81222Y219832D01*
X-81064Y219784D01*
X-80910Y219747D01*
X-80762Y219715D01*
X-80620Y219694D01*
X-80488Y219678D01*
X-80366Y219662D01*
X-80260Y219657D01*
X-80176Y219652D01*
X-80144Y219647D01*
X-82744D01*
D01*
X-77455D01*
Y221654D01*
X-77460Y221770D01*
X-77466Y221876D01*
X-77482Y221982D01*
X-77497Y222077D01*
X-77519Y222167D01*
X-77540Y222251D01*
X-77561Y222330D01*
X-77587Y222404D01*
X-77614Y222468D01*
X-77635Y222526D01*
X-77656Y222574D01*
X-77677Y222616D01*
X-77693Y222647D01*
X-77709Y222669D01*
X-77714Y222684D01*
X-77719Y222690D01*
X-77825Y222838D01*
X-77941Y222970D01*
X-78063Y223081D01*
X-78174Y223176D01*
X-78279Y223250D01*
X-78322Y223281D01*
X-78364Y223308D01*
X-78396Y223324D01*
X-78417Y223340D01*
X-78433Y223345D01*
X-78438Y223350D01*
X-78528Y223398D01*
X-78628Y223440D01*
X-78739Y223482D01*
X-78855Y223524D01*
X-79088Y223604D01*
X-79204Y223641D01*
X-79320Y223672D01*
X-79426Y223704D01*
X-79526Y223731D01*
X-79616Y223757D01*
X-79695Y223778D01*
X-79764Y223794D01*
X-79812Y223804D01*
X-79843Y223815D01*
X-79854D01*
X-80023Y223857D01*
X-80181Y223900D01*
X-80319Y223942D01*
X-80445Y223979D01*
X-80556Y224016D01*
X-80657Y224053D01*
X-80741Y224090D01*
X-80815Y224121D01*
X-80879Y224148D01*
X-80932Y224174D01*
X-80974Y224195D01*
X-81011Y224217D01*
X-81032Y224232D01*
X-81053Y224243D01*
X-81058Y224254D01*
X-81064D01*
X-81127Y224317D01*
X-81174Y224386D01*
X-81206Y224449D01*
X-81227Y224512D01*
X-81243Y224565D01*
X-81249Y224613D01*
X-81254Y224639D01*
Y224650D01*
X-81243Y224740D01*
X-81222Y224819D01*
X-81190Y224888D01*
X-81148Y224946D01*
X-81111Y224988D01*
X-81079Y225025D01*
X-81058Y225046D01*
X-81048Y225051D01*
X-80984Y225094D01*
X-80916Y225131D01*
X-80768Y225189D01*
X-80620Y225231D01*
X-80477Y225257D01*
X-80408Y225268D01*
X-80345Y225278D01*
X-80292Y225284D01*
X-80245D01*
X-80202Y225289D01*
X-80049D01*
X-79954Y225278D01*
X-79864Y225268D01*
X-79785Y225252D01*
X-79711Y225236D01*
X-79642Y225220D01*
X-79579Y225199D01*
X-79526Y225178D01*
X-79473Y225157D01*
X-79431Y225136D01*
X-79394Y225120D01*
X-79368Y225104D01*
X-79347Y225088D01*
X-79325Y225078D01*
X-79320Y225072D01*
X-79315Y225067D01*
X-79262Y225025D01*
X-79220Y224972D01*
X-79141Y224861D01*
X-79077Y224745D01*
X-79030Y224623D01*
X-78993Y224518D01*
X-78977Y224470D01*
X-78966Y224428D01*
X-78961Y224396D01*
X-78956Y224370D01*
X-78950Y224354D01*
Y224349D01*
X-77640Y224407D01*
X-77651Y224571D01*
X-77677Y224724D01*
X-77714Y224872D01*
X-77756Y225009D01*
X-77804Y225136D01*
X-77862Y225252D01*
X-77920Y225358D01*
X-77978Y225458D01*
X-78036Y225543D01*
X-78094Y225622D01*
X-78147Y225685D01*
X-78195Y225738D01*
X-78237Y225786D01*
X-78269Y225812D01*
X-78290Y225833D01*
X-78295Y225839D01*
X-78417Y225934D01*
X-78554Y226018D01*
X-78697Y226087D01*
X-78845Y226150D01*
X-78998Y226203D01*
X-79151Y226245D01*
X-79304Y226282D01*
X-79447Y226309D01*
X-79590Y226330D01*
X-79716Y226351D01*
X-79838Y226362D01*
X-79938Y226367D01*
X-80023Y226372D01*
X-80055Y226377D01*
X-77455D01*
D02*
G37*
G36*
X-50918Y226272D02*
X-52888D01*
X-54051Y221834D01*
X-55223Y226272D01*
X-57189D01*
Y219768D01*
X-50918D01*
Y226272D01*
D02*
G37*
G36*
X-58483D02*
X-60454D01*
X-61616Y221834D01*
X-62789Y226272D01*
X-64754D01*
Y219768D01*
X-58483D01*
Y226272D01*
D02*
G37*
G36*
X-46348D02*
X-47742D01*
X-50273Y219768D01*
D01*
X-43748D01*
X-46348Y226272D01*
D02*
G37*
G36*
X-65985D02*
X-70798D01*
Y219768D01*
X-65858D01*
Y220867D01*
X-69488D01*
Y222632D01*
X-66228D01*
Y223731D01*
X-69488D01*
Y225173D01*
X-65985D01*
Y226272D01*
D02*
G37*
G36*
X-71649D02*
X-76811D01*
Y225173D01*
X-74882D01*
Y219768D01*
X-76811D01*
X-71649D01*
Y226272D01*
D02*
G37*
%LPD*%
G36*
X-77455Y219647D02*
X-80060D01*
X-79907Y219652D01*
X-79759Y219657D01*
X-79616Y219668D01*
X-79484Y219684D01*
X-79357Y219699D01*
X-79241Y219721D01*
X-79135Y219742D01*
X-79035Y219763D01*
X-78950Y219784D01*
X-78871Y219805D01*
X-78808Y219826D01*
X-78750Y219842D01*
X-78707Y219858D01*
X-78676Y219869D01*
X-78654Y219879D01*
X-78649D01*
X-78544Y219927D01*
X-78448Y219979D01*
X-78353Y220032D01*
X-78269Y220090D01*
X-78190Y220154D01*
X-78121Y220212D01*
X-78052Y220270D01*
X-77994Y220328D01*
X-77941Y220386D01*
X-77894Y220439D01*
X-77857Y220481D01*
X-77825Y220524D01*
X-77799Y220555D01*
X-77783Y220582D01*
X-77772Y220598D01*
X-77767Y220603D01*
X-77714Y220698D01*
X-77661Y220788D01*
X-77624Y220883D01*
X-77587Y220973D01*
X-77555Y221063D01*
X-77529Y221152D01*
X-77508Y221237D01*
X-77492Y221311D01*
X-77482Y221385D01*
X-77471Y221453D01*
X-77466Y221512D01*
X-77460Y221559D01*
X-77455Y221601D01*
Y219647D01*
D02*
G37*
G36*
X-52133Y219768D02*
X-53427D01*
X-52138Y224888D01*
X-52133Y219768D01*
D02*
G37*
G36*
X-54690D02*
X-55974D01*
Y224888D01*
X-54690Y219768D01*
D02*
G37*
G36*
X-59698D02*
X-60993D01*
X-59704Y224888D01*
X-59698Y219768D01*
D02*
G37*
G36*
X-62255D02*
X-63539D01*
Y224888D01*
X-62255Y219768D01*
D02*
G37*
G36*
X-46163Y222346D02*
X-47943D01*
X-47061Y224755D01*
X-46163Y222346D01*
D02*
G37*
G36*
X-45180Y219768D02*
X-48884D01*
X-48345Y221247D01*
X-45740D01*
X-45180Y219768D01*
D02*
G37*
G36*
X-71649D02*
X-73572D01*
Y225173D01*
X-71649D01*
Y219768D01*
D02*
G37*
%LPC*%
G36*
X42123Y134755D02*
X37011D01*
Y128248D01*
Y131371D01*
X37019Y131125D01*
X37051Y130879D01*
X37099Y130658D01*
X37154Y130443D01*
X37225Y130245D01*
X37297Y130063D01*
X37384Y129889D01*
X37463Y129738D01*
X37550Y129604D01*
X37637Y129477D01*
X37709Y129374D01*
X37780Y129286D01*
X37836Y129215D01*
X37883Y129168D01*
X37915Y129136D01*
X37923Y129128D01*
X38097Y128969D01*
X38287Y128835D01*
X38485Y128724D01*
X38683Y128621D01*
X38882Y128534D01*
X39080Y128462D01*
X39278Y128407D01*
X39460Y128359D01*
X39634Y128320D01*
X39801Y128296D01*
X39943Y128272D01*
X40070Y128264D01*
X40173Y128256D01*
X40252Y128248D01*
X37011D01*
X46989D01*
X40316D01*
X40578Y128256D01*
X40823Y128288D01*
X41053Y128328D01*
X41275Y128375D01*
X41481Y128439D01*
X41671Y128510D01*
X41845Y128589D01*
X42004Y128668D01*
X42139Y128740D01*
X42265Y128819D01*
X42376Y128890D01*
X42464Y128954D01*
X42527Y129001D01*
X42582Y129049D01*
X42614Y129073D01*
X42622Y129080D01*
X42781Y129239D01*
X42915Y129405D01*
X43034Y129572D01*
X43137Y129738D01*
X43224Y129913D01*
X43296Y130071D01*
X43351Y130230D01*
X43399Y130380D01*
X43438Y130523D01*
X43462Y130658D01*
X43486Y130768D01*
X43494Y130871D01*
X43502Y130951D01*
X43510Y131014D01*
Y131062D01*
X43502Y131260D01*
X43478Y131442D01*
X43430Y131616D01*
X43383Y131783D01*
X43319Y131941D01*
X43248Y132084D01*
X43177Y132219D01*
X43098Y132338D01*
X43026Y132449D01*
X42955Y132544D01*
X42884Y132631D01*
X42820Y132694D01*
X42765Y132750D01*
X42725Y132789D01*
X42701Y132813D01*
X42693Y132821D01*
X42994Y132797D01*
X43272Y132766D01*
X43518Y132734D01*
X43747Y132694D01*
X43953Y132654D01*
X44128Y132607D01*
X44286Y132567D01*
X44429Y132520D01*
X44548Y132480D01*
X44651Y132441D01*
X44730Y132401D01*
X44794Y132369D01*
X44841Y132346D01*
X44881Y132322D01*
X44896Y132314D01*
X44904Y132306D01*
X44999Y132227D01*
X45079Y132147D01*
X45150Y132068D01*
X45213Y131981D01*
X45261Y131902D01*
X45309Y131814D01*
X45372Y131664D01*
X45404Y131529D01*
X45420Y131474D01*
X45427Y131418D01*
X45435Y131379D01*
Y131323D01*
X45427Y131157D01*
X45396Y131014D01*
X45356Y130887D01*
X45301Y130784D01*
X45253Y130697D01*
X45213Y130634D01*
X45182Y130602D01*
X45174Y130586D01*
X45063Y130491D01*
X44928Y130420D01*
X44794Y130356D01*
X44659Y130309D01*
X44540Y130277D01*
X44484Y130269D01*
X44437Y130261D01*
X44405Y130253D01*
X44373Y130245D01*
X44358D01*
X44350D01*
X44556Y128439D01*
X44778Y128478D01*
X44984Y128534D01*
X45174Y128597D01*
X45348Y128660D01*
X45515Y128732D01*
X45665Y128811D01*
X45800Y128882D01*
X45919Y128962D01*
X46030Y129033D01*
X46125Y129104D01*
X46196Y129168D01*
X46267Y129223D01*
X46315Y129271D01*
X46347Y129302D01*
X46371Y129326D01*
X46378Y129334D01*
X46489Y129469D01*
X46576Y129619D01*
X46664Y129770D01*
X46727Y129921D01*
X46790Y130079D01*
X46838Y130230D01*
X46878Y130380D01*
X46909Y130523D01*
X46941Y130658D01*
X46957Y130784D01*
X46973Y130895D01*
X46981Y130990D01*
Y131070D01*
X46989Y131133D01*
Y131180D01*
X46973Y131474D01*
X46941Y131751D01*
X46878Y132013D01*
X46806Y132258D01*
X46711Y132488D01*
X46616Y132702D01*
X46505Y132892D01*
X46394Y133067D01*
X46291Y133225D01*
X46180Y133368D01*
X46085Y133487D01*
X45990Y133582D01*
X45919Y133661D01*
X45855Y133716D01*
X45824Y133756D01*
X45808Y133764D01*
X45689Y133851D01*
X45570Y133938D01*
X45301Y134089D01*
X45007Y134224D01*
X44698Y134335D01*
X44381Y134430D01*
X44064Y134517D01*
X43740Y134580D01*
X43430Y134628D01*
X43129Y134675D01*
X42852Y134699D01*
X42717Y134715D01*
X42598Y134723D01*
X42479Y134731D01*
X42376Y134739D01*
X42281Y134747D01*
X42194D01*
X42123Y134755D01*
D02*
G37*
G36*
X46806Y127131D02*
X41774D01*
X41536Y127115D01*
X41307Y127099D01*
X41093Y127083D01*
X40887Y127060D01*
X40696Y127028D01*
X40522Y126996D01*
X40363Y126973D01*
X40213Y126941D01*
X40086Y126909D01*
X39983Y126885D01*
X39888Y126854D01*
X39817Y126838D01*
X39761Y126822D01*
X39729Y126806D01*
X39722D01*
X39389Y126679D01*
X39230Y126600D01*
X39080Y126529D01*
X38945Y126449D01*
X38810Y126370D01*
X38691Y126299D01*
X38580Y126228D01*
X38485Y126156D01*
X38398Y126093D01*
X38319Y126029D01*
X38256Y125982D01*
X38208Y125934D01*
X38176Y125903D01*
X38152Y125887D01*
X38145Y125879D01*
X38026Y125760D01*
X37923Y125641D01*
X37820Y125514D01*
X37733Y125387D01*
X37645Y125269D01*
X37574Y125142D01*
X37511Y125023D01*
X37447Y124912D01*
X37400Y124809D01*
X37352Y124714D01*
X37320Y124627D01*
X37289Y124548D01*
X37265Y124492D01*
X37257Y124445D01*
X37241Y124413D01*
Y124405D01*
X37209Y124278D01*
X37178Y124143D01*
X37154Y124001D01*
X37130Y123850D01*
X37099Y123541D01*
X37075Y123240D01*
X37067Y123097D01*
X37059Y122970D01*
Y122852D01*
X37051Y122748D01*
Y122970D01*
Y118961D01*
X46806D01*
Y122859D01*
X46798Y123050D01*
X46790Y123224D01*
X46775Y123391D01*
X46759Y123549D01*
X46743Y123692D01*
X46719Y123818D01*
X46703Y123937D01*
X46687Y124048D01*
X46664Y124143D01*
X46648Y124223D01*
X46632Y124286D01*
X46616Y124333D01*
X46608Y124373D01*
X46600Y124397D01*
Y124405D01*
X46545Y124563D01*
X46489Y124714D01*
X46426Y124857D01*
X46363Y124983D01*
X46299Y125110D01*
X46236Y125221D01*
X46172Y125324D01*
X46109Y125419D01*
X46054Y125499D01*
X45998Y125578D01*
X45950Y125641D01*
X45903Y125689D01*
X45871Y125728D01*
X45848Y125760D01*
X45832Y125776D01*
X45824Y125784D01*
X45697Y125911D01*
X45562Y126021D01*
X45277Y126236D01*
X44992Y126418D01*
X44849Y126489D01*
X44714Y126560D01*
X44587Y126624D01*
X44476Y126679D01*
X44373Y126727D01*
X44278Y126766D01*
X44207Y126790D01*
X44152Y126814D01*
X44112Y126822D01*
X44104Y126830D01*
X43763Y126933D01*
X43415Y127004D01*
X43066Y127060D01*
X42899Y127076D01*
X42741Y127091D01*
X42590Y127107D01*
X42456Y127115D01*
X42337Y127123D01*
X42226D01*
X42147Y127131D01*
X46806D01*
D02*
G37*
G36*
X44207Y117875D02*
X42337D01*
Y114213D01*
X44207D01*
Y117875D01*
D02*
G37*
G36*
X46806Y112763D02*
X41774D01*
X41536Y112747D01*
X41307Y112732D01*
X41093Y112716D01*
X40887Y112692D01*
X40696Y112660D01*
X40522Y112629D01*
X40363Y112605D01*
X40213Y112573D01*
X40086Y112541D01*
X39983Y112518D01*
X39888Y112486D01*
X39817Y112470D01*
X39761Y112454D01*
X39729Y112438D01*
X39722D01*
X39389Y112312D01*
X39230Y112232D01*
X39080Y112161D01*
X38945Y112082D01*
X38810Y112002D01*
X38691Y111931D01*
X38580Y111860D01*
X38485Y111789D01*
X38398Y111725D01*
X38319Y111662D01*
X38256Y111614D01*
X38208Y111567D01*
X38176Y111535D01*
X38152Y111519D01*
X38145Y111511D01*
X38026Y111392D01*
X37923Y111273D01*
X37820Y111147D01*
X37733Y111020D01*
X37645Y110901D01*
X37574Y110774D01*
X37511Y110655D01*
X37447Y110544D01*
X37400Y110441D01*
X37352Y110346D01*
X37320Y110259D01*
X37289Y110180D01*
X37265Y110124D01*
X37257Y110077D01*
X37241Y110045D01*
Y110037D01*
X37209Y109910D01*
X37178Y109776D01*
X37154Y109633D01*
X37130Y109482D01*
X37099Y109173D01*
X37075Y108872D01*
X37067Y108730D01*
X37059Y108603D01*
Y108484D01*
X37051Y108381D01*
Y104593D01*
X46806D01*
Y108492D01*
X46798Y108682D01*
X46790Y108856D01*
X46775Y109023D01*
X46759Y109181D01*
X46743Y109324D01*
X46719Y109451D01*
X46703Y109570D01*
X46687Y109681D01*
X46664Y109776D01*
X46648Y109855D01*
X46632Y109918D01*
X46616Y109966D01*
X46608Y110006D01*
X46600Y110029D01*
Y110037D01*
X46545Y110196D01*
X46489Y110346D01*
X46426Y110489D01*
X46363Y110616D01*
X46299Y110743D01*
X46236Y110853D01*
X46172Y110956D01*
X46109Y111052D01*
X46054Y111131D01*
X45998Y111210D01*
X45950Y111273D01*
X45903Y111321D01*
X45871Y111361D01*
X45848Y111392D01*
X45832Y111408D01*
X45824Y111416D01*
X45697Y111543D01*
X45562Y111654D01*
X45277Y111868D01*
X44992Y112050D01*
X44849Y112121D01*
X44714Y112193D01*
X44587Y112256D01*
X44476Y112312D01*
X44373Y112359D01*
X44278Y112399D01*
X44207Y112423D01*
X44152Y112446D01*
X44112Y112454D01*
X44104Y112462D01*
X43763Y112565D01*
X43415Y112636D01*
X43066Y112692D01*
X42899Y112708D01*
X42741Y112724D01*
X42590Y112739D01*
X42456Y112747D01*
X42337Y112755D01*
X42226D01*
X42147Y112763D01*
X46806D01*
D02*
G37*
G36*
Y102929D02*
X45158D01*
Y97484D01*
X42511D01*
Y102374D01*
X40863D01*
Y97484D01*
X38699D01*
Y102738D01*
X37051D01*
Y102929D01*
D01*
Y95519D01*
X46806D01*
Y102929D01*
D02*
G37*
G36*
Y94108D02*
X45158D01*
Y89211D01*
X37138D01*
Y87245D01*
X46806D01*
Y94108D01*
D02*
G37*
%LPD*%
G36*
X41465Y134747D02*
X41235Y134731D01*
X41021Y134715D01*
X40815Y134691D01*
X40617Y134667D01*
X40419Y134636D01*
X40237Y134604D01*
X40062Y134572D01*
X39896Y134533D01*
X39737Y134493D01*
X39587Y134453D01*
X39444Y134414D01*
X39309Y134366D01*
X39064Y134279D01*
X38850Y134192D01*
X38660Y134105D01*
X38509Y134025D01*
X38382Y133954D01*
X38287Y133891D01*
X38216Y133843D01*
X38176Y133812D01*
X38160Y133804D01*
X37954Y133621D01*
X37780Y133423D01*
X37629Y133225D01*
X37495Y133019D01*
X37384Y132821D01*
X37289Y132615D01*
X37217Y132417D01*
X37154Y132234D01*
X37106Y132052D01*
X37075Y131894D01*
X37043Y131743D01*
X37027Y131616D01*
X37019Y131513D01*
X37011Y131434D01*
Y134755D01*
X41695D01*
X41465Y134747D01*
D02*
G37*
G36*
X40760Y132647D02*
X40887Y132631D01*
X41013Y132607D01*
X41124Y132575D01*
X41227Y132544D01*
X41315Y132512D01*
X41402Y132480D01*
X41473Y132441D01*
X41536Y132409D01*
X41592Y132377D01*
X41639Y132346D01*
X41671Y132322D01*
X41695Y132306D01*
X41711Y132298D01*
X41719Y132290D01*
X41790Y132219D01*
X41853Y132147D01*
X41917Y132068D01*
X41964Y131997D01*
X42036Y131846D01*
X42083Y131704D01*
X42115Y131577D01*
X42123Y131521D01*
X42131Y131474D01*
X42139Y131442D01*
Y131387D01*
X42131Y131284D01*
X42123Y131188D01*
X42067Y131006D01*
X42004Y130840D01*
X41917Y130705D01*
X41838Y130602D01*
X41774Y130515D01*
X41742Y130491D01*
X41719Y130467D01*
X41711Y130459D01*
X41703Y130451D01*
X41616Y130388D01*
X41513Y130333D01*
X41299Y130238D01*
X41069Y130174D01*
X40839Y130134D01*
X40736Y130119D01*
X40641Y130103D01*
X40546Y130095D01*
X40466D01*
X40403Y130087D01*
X40356D01*
X40324D01*
X40316D01*
X40149Y130095D01*
X39991Y130103D01*
X39848Y130119D01*
X39714Y130142D01*
X39595Y130166D01*
X39484Y130198D01*
X39389Y130230D01*
X39302Y130261D01*
X39222Y130293D01*
X39159Y130317D01*
X39104Y130348D01*
X39056Y130372D01*
X39024Y130396D01*
X38993Y130412D01*
X38985Y130428D01*
X38977D01*
X38905Y130491D01*
X38842Y130562D01*
X38786Y130634D01*
X38739Y130705D01*
X38668Y130848D01*
X38612Y130982D01*
X38588Y131101D01*
X38580Y131157D01*
X38572Y131196D01*
X38565Y131236D01*
Y131284D01*
X38572Y131387D01*
X38588Y131482D01*
X38612Y131577D01*
X38644Y131664D01*
X38723Y131830D01*
X38810Y131965D01*
X38905Y132084D01*
X38945Y132132D01*
X38985Y132171D01*
X39016Y132203D01*
X39040Y132227D01*
X39056Y132234D01*
X39064Y132242D01*
X39159Y132314D01*
X39270Y132385D01*
X39381Y132441D01*
X39492Y132488D01*
X39729Y132559D01*
X39951Y132607D01*
X40054Y132631D01*
X40157Y132639D01*
X40245Y132647D01*
X40316Y132654D01*
X40379Y132662D01*
X40427D01*
X40459D01*
X40466D01*
X40617D01*
X40760Y132647D01*
D02*
G37*
G36*
X42337Y125094D02*
X42519Y125086D01*
X42693Y125070D01*
X42852Y125055D01*
X42994Y125039D01*
X43129Y125015D01*
X43256Y124999D01*
X43359Y124983D01*
X43454Y124960D01*
X43533Y124944D01*
X43605Y124928D01*
X43652Y124912D01*
X43692Y124904D01*
X43716Y124896D01*
X43724D01*
X43843Y124857D01*
X43953Y124817D01*
X44049Y124777D01*
X44144Y124730D01*
X44231Y124690D01*
X44310Y124643D01*
X44437Y124563D01*
X44540Y124492D01*
X44611Y124437D01*
X44651Y124397D01*
X44667Y124381D01*
X44762Y124254D01*
X44849Y124128D01*
X44920Y123993D01*
X44976Y123866D01*
X45015Y123755D01*
X45047Y123668D01*
X45055Y123636D01*
X45063Y123612D01*
X45071Y123596D01*
Y123589D01*
X45087Y123517D01*
X45103Y123430D01*
X45118Y123248D01*
X45134Y123050D01*
X45150Y122852D01*
Y122669D01*
X45158Y122598D01*
Y120926D01*
X38699D01*
Y122218D01*
X38707Y122400D01*
X38715Y122566D01*
X38723Y122717D01*
X38731Y122852D01*
X38739Y122970D01*
X38747Y123074D01*
X38755Y123161D01*
X38763Y123232D01*
X38771Y123295D01*
X38779Y123343D01*
X38786Y123383D01*
Y123406D01*
X38794Y123422D01*
Y123430D01*
X38850Y123628D01*
X38913Y123802D01*
X38993Y123953D01*
X39072Y124088D01*
X39143Y124191D01*
X39199Y124270D01*
X39238Y124318D01*
X39246Y124333D01*
X39254D01*
X39389Y124460D01*
X39547Y124579D01*
X39706Y124674D01*
X39856Y124754D01*
X39991Y124817D01*
X40054Y124841D01*
X40102Y124857D01*
X40149Y124872D01*
X40181Y124888D01*
X40197Y124896D01*
X40205D01*
X40324Y124936D01*
X40451Y124967D01*
X40728Y125015D01*
X41013Y125055D01*
X41291Y125078D01*
X41425Y125086D01*
X41544Y125094D01*
X41655D01*
X41750Y125102D01*
X41822D01*
X41885D01*
X41917D01*
X41933D01*
X42139D01*
X42337Y125094D01*
D02*
G37*
G36*
Y110727D02*
X42519Y110719D01*
X42693Y110703D01*
X42852Y110687D01*
X42994Y110671D01*
X43129Y110647D01*
X43256Y110632D01*
X43359Y110616D01*
X43454Y110592D01*
X43533Y110576D01*
X43605Y110560D01*
X43652Y110544D01*
X43692Y110536D01*
X43716Y110528D01*
X43724D01*
X43843Y110489D01*
X43953Y110449D01*
X44049Y110410D01*
X44144Y110362D01*
X44231Y110323D01*
X44310Y110275D01*
X44437Y110196D01*
X44540Y110124D01*
X44611Y110069D01*
X44651Y110029D01*
X44667Y110013D01*
X44762Y109887D01*
X44849Y109760D01*
X44920Y109625D01*
X44976Y109498D01*
X45015Y109387D01*
X45047Y109300D01*
X45055Y109269D01*
X45063Y109245D01*
X45071Y109229D01*
Y109221D01*
X45087Y109150D01*
X45103Y109062D01*
X45118Y108880D01*
X45134Y108682D01*
X45150Y108484D01*
Y108302D01*
X45158Y108230D01*
Y106558D01*
X38699D01*
Y107850D01*
X38707Y108032D01*
X38715Y108199D01*
X38723Y108349D01*
X38731Y108484D01*
X38739Y108603D01*
X38747Y108706D01*
X38755Y108793D01*
X38763Y108864D01*
X38771Y108928D01*
X38779Y108975D01*
X38786Y109015D01*
Y109039D01*
X38794Y109054D01*
Y109062D01*
X38850Y109261D01*
X38913Y109435D01*
X38993Y109586D01*
X39072Y109720D01*
X39143Y109823D01*
X39199Y109902D01*
X39238Y109950D01*
X39246Y109966D01*
X39254D01*
X39389Y110093D01*
X39547Y110211D01*
X39706Y110307D01*
X39856Y110386D01*
X39991Y110449D01*
X40054Y110473D01*
X40102Y110489D01*
X40149Y110505D01*
X40181Y110521D01*
X40197Y110528D01*
X40205D01*
X40324Y110568D01*
X40451Y110600D01*
X40728Y110647D01*
X41013Y110687D01*
X41291Y110711D01*
X41425Y110719D01*
X41544Y110727D01*
X41655D01*
X41750Y110735D01*
X41822D01*
X41885D01*
X41917D01*
X41933D01*
X42139D01*
X42337Y110727D01*
D02*
G37*
%LPC*%
G36*
X7866Y242075D02*
Y239190D01*
X-241D01*
Y242075D01*
X7866D01*
X-1890D01*
Y234332D01*
X-241D01*
Y237225D01*
X7866D01*
Y242075D01*
D02*
G37*
G36*
Y233349D02*
X6217D01*
Y227905D01*
X3571D01*
Y232795D01*
X1922D01*
Y227905D01*
X-241D01*
Y233159D01*
X-1890D01*
Y233349D01*
D01*
Y225940D01*
X7866D01*
Y233349D01*
D02*
G37*
G36*
X3851Y224275D02*
X-2048D01*
D01*
X3851D01*
D02*
G37*
G36*
X8048D02*
X5037D01*
X4862Y224268D01*
X4704Y224260D01*
X4545Y224236D01*
X4403Y224212D01*
X4268Y224180D01*
X4141Y224149D01*
X4022Y224117D01*
X3911Y224077D01*
X3816Y224038D01*
X3729Y224006D01*
X3658Y223974D01*
X3594Y223943D01*
X3547Y223919D01*
X3515Y223895D01*
X3491Y223887D01*
X3483Y223879D01*
X3262Y223721D01*
X3063Y223546D01*
X2897Y223364D01*
X2754Y223198D01*
X2643Y223039D01*
X2596Y222976D01*
X2556Y222912D01*
X2532Y222865D01*
X2509Y222833D01*
X2501Y222809D01*
X2493Y222801D01*
X2421Y222667D01*
X2358Y222516D01*
X2295Y222350D01*
X2231Y222175D01*
X2112Y221827D01*
X2057Y221652D01*
X2009Y221478D01*
X1962Y221320D01*
X1922Y221169D01*
X1883Y221034D01*
X1851Y220915D01*
X1827Y220812D01*
X1811Y220741D01*
X1795Y220693D01*
Y220678D01*
X1732Y220424D01*
X1669Y220186D01*
X1605Y219980D01*
X1550Y219790D01*
X1494Y219624D01*
X1439Y219473D01*
X1383Y219346D01*
X1336Y219235D01*
X1296Y219140D01*
X1257Y219061D01*
X1225Y218997D01*
X1193Y218942D01*
X1169Y218910D01*
X1154Y218879D01*
X1138Y218871D01*
Y218863D01*
X1043Y218768D01*
X940Y218696D01*
X844Y218649D01*
X749Y218617D01*
X670Y218593D01*
X599Y218585D01*
X559Y218577D01*
X543D01*
X409Y218593D01*
X290Y218625D01*
X187Y218673D01*
X99Y218736D01*
X36Y218792D01*
X-19Y218839D01*
X-51Y218871D01*
X-59Y218887D01*
X-122Y218982D01*
X-178Y219085D01*
X-265Y219307D01*
X-328Y219529D01*
X-368Y219742D01*
X-384Y219846D01*
X-400Y219941D01*
X-408Y220020D01*
Y220091D01*
X-416Y220154D01*
Y220384D01*
X-400Y220527D01*
X-384Y220662D01*
X-360Y220781D01*
X-336Y220891D01*
X-313Y220995D01*
X-281Y221090D01*
X-249Y221169D01*
X-217Y221248D01*
X-186Y221311D01*
X-162Y221367D01*
X-138Y221407D01*
X-115Y221438D01*
X-99Y221470D01*
X-91Y221478D01*
X-83Y221486D01*
X-19Y221565D01*
X60Y221628D01*
X226Y221747D01*
X401Y221842D01*
X583Y221914D01*
X741Y221969D01*
X813Y221993D01*
X876Y222009D01*
X924Y222017D01*
X963Y222025D01*
X987Y222033D01*
X995D01*
X908Y223998D01*
X662Y223982D01*
X432Y223943D01*
X211Y223887D01*
X4Y223824D01*
X-186Y223752D01*
X-360Y223665D01*
X-519Y223578D01*
X-669Y223491D01*
X-796Y223404D01*
X-915Y223316D01*
X-1010Y223237D01*
X-1089Y223166D01*
X-1160Y223103D01*
X-1200Y223055D01*
X-1232Y223023D01*
X-1240Y223015D01*
X-1382Y222833D01*
X-1509Y222627D01*
X-1612Y222413D01*
X-1707Y222191D01*
X-1787Y221961D01*
X-1850Y221732D01*
X-1905Y221502D01*
X-1945Y221288D01*
X-1977Y221074D01*
X-2008Y220884D01*
X-2024Y220701D01*
X-2032Y220551D01*
X-2040Y220424D01*
X-2048Y220376D01*
Y216343D01*
D01*
Y220044D01*
X-2032Y219846D01*
X-2016Y219655D01*
X-1993Y219473D01*
X-1969Y219307D01*
X-1937Y219148D01*
X-1913Y218997D01*
X-1882Y218863D01*
X-1850Y218744D01*
X-1818Y218633D01*
X-1787Y218546D01*
X-1763Y218466D01*
X-1739Y218403D01*
X-1723Y218363D01*
X-1715Y218332D01*
X-1707Y218324D01*
X-1644Y218181D01*
X-1565Y218046D01*
X-1493Y217920D01*
X-1406Y217801D01*
X-1327Y217690D01*
X-1248Y217595D01*
X-1160Y217500D01*
X-1081Y217421D01*
X-1010Y217349D01*
X-939Y217286D01*
X-875Y217230D01*
X-828Y217191D01*
X-780Y217159D01*
X-748Y217135D01*
X-725Y217119D01*
X-717Y217111D01*
X-598Y217040D01*
X-471Y216977D01*
X-344Y216913D01*
X-225Y216866D01*
X12Y216794D01*
X226Y216747D01*
X321Y216723D01*
X409Y216715D01*
X488Y216707D01*
X551Y216699D01*
X607Y216691D01*
X646D01*
X670D01*
X678D01*
X892Y216699D01*
X1098Y216731D01*
X1288Y216771D01*
X1470Y216834D01*
X1645Y216897D01*
X1811Y216977D01*
X1954Y217056D01*
X2097Y217143D01*
X2215Y217222D01*
X2326Y217302D01*
X2421Y217381D01*
X2501Y217444D01*
X2564Y217508D01*
X2604Y217547D01*
X2636Y217579D01*
X2643Y217587D01*
X2746Y217722D01*
X2849Y217864D01*
X2945Y218031D01*
X3032Y218205D01*
X3198Y218577D01*
X3341Y218942D01*
X3404Y219116D01*
X3452Y219275D01*
X3499Y219425D01*
X3539Y219560D01*
X3571Y219663D01*
X3594Y219742D01*
X3602Y219774D01*
Y219798D01*
X3610Y219806D01*
Y219814D01*
X3666Y220036D01*
X3713Y220234D01*
X3761Y220416D01*
X3800Y220583D01*
X3840Y220725D01*
X3872Y220860D01*
X3903Y220971D01*
X3935Y221066D01*
X3959Y221145D01*
X3975Y221216D01*
X3991Y221272D01*
X4006Y221320D01*
X4014Y221351D01*
X4022Y221375D01*
X4030Y221391D01*
X4101Y221565D01*
X4173Y221716D01*
X4244Y221842D01*
X4315Y221938D01*
X4371Y222009D01*
X4419Y222064D01*
X4450Y222096D01*
X4458Y222104D01*
X4553Y222175D01*
X4648Y222223D01*
X4751Y222262D01*
X4839Y222286D01*
X4918Y222302D01*
X4989Y222310D01*
X5029D01*
X5037D01*
X5045D01*
X5148Y222302D01*
X5243Y222286D01*
X5330Y222262D01*
X5417Y222239D01*
X5584Y222160D01*
X5718Y222072D01*
X5829Y221977D01*
X5916Y221906D01*
X5948Y221874D01*
X5972Y221850D01*
X5980Y221835D01*
X5988Y221827D01*
X6059Y221732D01*
X6114Y221628D01*
X6170Y221518D01*
X6217Y221399D01*
X6289Y221161D01*
X6336Y220923D01*
X6352Y220812D01*
X6360Y220717D01*
X6368Y220622D01*
X6376Y220543D01*
X6384Y220479D01*
Y220384D01*
X6376Y220218D01*
X6368Y220067D01*
X6344Y219917D01*
X6313Y219782D01*
X6281Y219655D01*
X6241Y219536D01*
X6202Y219433D01*
X6154Y219338D01*
X6114Y219251D01*
X6075Y219172D01*
X6035Y219109D01*
X6004Y219053D01*
X5972Y219013D01*
X5948Y218982D01*
X5940Y218966D01*
X5932Y218958D01*
X5845Y218863D01*
X5742Y218776D01*
X5631Y218696D01*
X5520Y218625D01*
X5282Y218506D01*
X5052Y218411D01*
X4942Y218371D01*
X4846Y218340D01*
X4751Y218316D01*
X4672Y218292D01*
X4609Y218276D01*
X4553Y218268D01*
X4522Y218260D01*
X4514D01*
X4704Y216343D01*
D01*
X5005Y216390D01*
X5282Y216446D01*
X5544Y216525D01*
X5789Y216604D01*
X6011Y216699D01*
X6217Y216802D01*
X6400Y216905D01*
X6566Y217008D01*
X6717Y217104D01*
X6844Y217199D01*
X6955Y217286D01*
X7042Y217365D01*
X7113Y217428D01*
X7161Y217484D01*
X7192Y217516D01*
X7200Y217523D01*
X7351Y217722D01*
X7477Y217928D01*
X7596Y218158D01*
X7692Y218387D01*
X7771Y218625D01*
X7842Y218863D01*
X7897Y219093D01*
X7945Y219314D01*
X7977Y219529D01*
X8001Y219727D01*
X8024Y219909D01*
X8032Y220067D01*
X8040Y220194D01*
X8048Y220242D01*
Y220368D01*
X8040Y220598D01*
X8032Y220820D01*
X8016Y221034D01*
X7993Y221232D01*
X7969Y221423D01*
X7937Y221597D01*
X7905Y221755D01*
X7874Y221906D01*
X7842Y222033D01*
X7810Y222152D01*
X7779Y222247D01*
X7755Y222334D01*
X7731Y222397D01*
X7715Y222445D01*
X7699Y222477D01*
Y222484D01*
X7628Y222643D01*
X7549Y222786D01*
X7470Y222928D01*
X7382Y223055D01*
X7287Y223174D01*
X7200Y223277D01*
X7113Y223380D01*
X7026Y223467D01*
X6939Y223546D01*
X6859Y223618D01*
X6796Y223673D01*
X6733Y223721D01*
X6685Y223760D01*
X6645Y223784D01*
X6622Y223800D01*
X6614Y223808D01*
X6471Y223887D01*
X6336Y223966D01*
X6194Y224022D01*
X6059Y224077D01*
X5924Y224125D01*
X5789Y224165D01*
X5663Y224196D01*
X5552Y224220D01*
X5441Y224236D01*
X5338Y224252D01*
X5251Y224260D01*
X5179Y224268D01*
X5116Y224275D01*
X8048D01*
D02*
G37*
G36*
X7866Y215170D02*
X6217D01*
Y209725D01*
X3571D01*
Y214615D01*
X1922D01*
Y209725D01*
X-241D01*
Y214980D01*
X-1890D01*
Y215170D01*
D01*
Y207760D01*
X7866D01*
Y215170D01*
D02*
G37*
G36*
Y206690D02*
X5964Y205494D01*
X5758Y205367D01*
X5568Y205240D01*
X5401Y205129D01*
X5243Y205018D01*
X5092Y204923D01*
X4965Y204828D01*
X4854Y204741D01*
X4751Y204669D01*
X4664Y204598D01*
X4585Y204535D01*
X4522Y204487D01*
X4474Y204448D01*
X4434Y204416D01*
X4411Y204384D01*
X4395Y204376D01*
X4387Y204368D01*
X4220Y204202D01*
X4070Y204028D01*
X3927Y203853D01*
X3808Y203695D01*
X3705Y203544D01*
X3666Y203481D01*
X3626Y203425D01*
X3602Y203386D01*
X3578Y203354D01*
X3571Y203330D01*
X3563Y203322D01*
X3523Y203552D01*
X3476Y203774D01*
X3412Y203980D01*
X3349Y204162D01*
X3277Y204337D01*
X3198Y204495D01*
X3119Y204638D01*
X3047Y204765D01*
X2976Y204883D01*
X2905Y204979D01*
X2842Y205058D01*
X2778Y205129D01*
X2731Y205177D01*
X2699Y205216D01*
X2675Y205240D01*
X2667Y205248D01*
X2524Y205359D01*
X2382Y205462D01*
X2231Y205549D01*
X2081Y205620D01*
X1930Y205684D01*
X1780Y205739D01*
X1629Y205779D01*
X1486Y205819D01*
X1360Y205842D01*
X1233Y205866D01*
X1130Y205882D01*
X1035Y205890D01*
X955D01*
X900Y205898D01*
X868D01*
X852D01*
X694Y205890D01*
X535Y205882D01*
X242Y205834D01*
X107Y205803D01*
X-19Y205763D01*
X-138Y205723D01*
X-241Y205684D01*
X-344Y205644D01*
X-431Y205605D01*
X-503Y205573D01*
X-566Y205533D01*
X-622Y205509D01*
X-653Y205486D01*
X-677Y205478D01*
X-685Y205470D01*
X-804Y205391D01*
X-923Y205296D01*
X-1018Y205208D01*
X-1113Y205113D01*
X-1200Y205018D01*
X-1279Y204923D01*
X-1343Y204828D01*
X-1406Y204741D01*
X-1454Y204654D01*
X-1501Y204574D01*
X-1541Y204511D01*
X-1573Y204448D01*
X-1588Y204400D01*
X-1604Y204360D01*
X-1620Y204337D01*
Y204329D01*
X-1668Y204186D01*
X-1707Y204028D01*
X-1747Y203861D01*
X-1779Y203679D01*
X-1826Y203298D01*
X-1842Y203116D01*
X-1858Y202934D01*
X-1866Y202760D01*
X-1874Y202593D01*
X-1882Y202443D01*
X-1890Y202316D01*
Y202403D01*
Y202316D01*
D01*
Y197925D01*
X7866D01*
Y200525D01*
Y199891D01*
X3792D01*
Y200414D01*
X3800Y200525D01*
Y200636D01*
X3808Y200731D01*
X3816Y200818D01*
X3824Y200897D01*
X3840Y200977D01*
X3848Y201040D01*
X3856Y201095D01*
X3872Y201143D01*
X3888Y201222D01*
X3896Y201262D01*
X3903Y201278D01*
X3951Y201397D01*
X4014Y201507D01*
X4086Y201603D01*
X4149Y201698D01*
X4212Y201769D01*
X4268Y201824D01*
X4300Y201856D01*
X4315Y201872D01*
X4379Y201928D01*
X4458Y201999D01*
X4553Y202070D01*
X4664Y202149D01*
X4775Y202237D01*
X4894Y202324D01*
X5140Y202498D01*
X5259Y202577D01*
X5369Y202657D01*
X5472Y202728D01*
X5568Y202783D01*
X5639Y202839D01*
X5702Y202878D01*
X5734Y202902D01*
X5750Y202910D01*
X7866Y204329D01*
Y202070D01*
Y206690D01*
D02*
G37*
%LPD*%
G36*
X1138Y203861D02*
X1280Y203837D01*
X1399Y203806D01*
X1510Y203766D01*
X1589Y203726D01*
X1653Y203695D01*
X1692Y203671D01*
X1708Y203663D01*
X1811Y203584D01*
X1898Y203497D01*
X1970Y203402D01*
X2025Y203314D01*
X2065Y203235D01*
X2097Y203164D01*
X2112Y203124D01*
X2120Y203116D01*
Y203108D01*
X2144Y203029D01*
X2160Y202934D01*
X2176Y202815D01*
X2192Y202688D01*
X2200Y202546D01*
X2208Y202395D01*
X2223Y202094D01*
X2231Y201951D01*
Y201809D01*
X2239Y201682D01*
Y199891D01*
X-241D01*
Y201999D01*
X-233Y202157D01*
Y202292D01*
X-225Y202403D01*
Y202593D01*
X-217Y202665D01*
Y202728D01*
X-210Y202768D01*
Y202807D01*
X-202Y202831D01*
Y202863D01*
X-162Y203029D01*
X-106Y203180D01*
X-43Y203306D01*
X20Y203409D01*
X76Y203489D01*
X131Y203552D01*
X163Y203584D01*
X179Y203600D01*
X298Y203687D01*
X432Y203758D01*
X567Y203806D01*
X694Y203837D01*
X805Y203853D01*
X900Y203869D01*
X932D01*
X955D01*
X971D01*
X979D01*
X1138Y203861D01*
D02*
G37*
%LPC*%
G36*
X-142751Y-305042D02*
X-143850D01*
Y-308672D01*
X-145614D01*
Y-305412D01*
X-146713D01*
Y-308672D01*
X-148155D01*
Y-305169D01*
X-149254D01*
Y-305042D01*
X-149254D01*
X-149254D01*
Y-309982D01*
X-142751D01*
Y-305042D01*
D02*
G37*
G36*
Y-310653D02*
Y-312983D01*
X-149254Y-310653D01*
Y-316707D01*
D01*
X-142751Y-314388D01*
Y-310653D01*
D02*
G37*
G36*
X-142640Y-317072D02*
X-149360D01*
Y-323375D01*
D01*
Y-320237D01*
X-149355Y-320384D01*
X-149349Y-320522D01*
X-149339Y-320659D01*
X-149318Y-320791D01*
X-149302Y-320913D01*
X-149281Y-321029D01*
X-149254Y-321135D01*
X-149233Y-321235D01*
X-149207Y-321325D01*
X-149186Y-321404D01*
X-149159Y-321473D01*
X-149143Y-321531D01*
X-149128Y-321573D01*
X-149112Y-321610D01*
X-149107Y-321631D01*
X-149101Y-321637D01*
X-149022Y-321800D01*
X-148932Y-321959D01*
X-148832Y-322102D01*
X-148784Y-322165D01*
X-148737Y-322228D01*
X-148694Y-322281D01*
X-148652Y-322329D01*
X-148615Y-322371D01*
X-148578Y-322408D01*
X-148552Y-322440D01*
X-148531Y-322461D01*
X-148520Y-322471D01*
X-148515Y-322477D01*
X-148362Y-322614D01*
X-148208Y-322730D01*
X-148060Y-322836D01*
X-147918Y-322920D01*
X-147860Y-322957D01*
X-147802Y-322989D01*
X-147749Y-323016D01*
X-147706Y-323037D01*
X-147669Y-323058D01*
X-147643Y-323068D01*
X-147627Y-323074D01*
X-147622Y-323079D01*
X-147495Y-323132D01*
X-147358Y-323174D01*
X-147220Y-323216D01*
X-147078Y-323248D01*
X-146803Y-323301D01*
X-146666Y-323322D01*
X-146539Y-323338D01*
X-146417Y-323348D01*
X-146306Y-323359D01*
X-146211Y-323364D01*
X-146122Y-323369D01*
X-146053Y-323375D01*
X-145958D01*
X-145672Y-323364D01*
X-145408Y-323338D01*
X-145155Y-323296D01*
X-144922Y-323243D01*
X-144706Y-323179D01*
X-144505Y-323105D01*
X-144320Y-323026D01*
X-144156Y-322947D01*
X-144014Y-322868D01*
X-143881Y-322794D01*
X-143776Y-322720D01*
X-143686Y-322656D01*
X-143612Y-322603D01*
X-143564Y-322561D01*
X-143533Y-322535D01*
X-143522Y-322524D01*
X-143369Y-322355D01*
X-143232Y-322181D01*
X-143115Y-321991D01*
X-143010Y-321800D01*
X-142925Y-321610D01*
X-142857Y-321420D01*
X-142798Y-321230D01*
X-142751Y-321050D01*
X-142714Y-320876D01*
X-142687Y-320723D01*
X-142666Y-320580D01*
X-142661Y-320517D01*
X-142656Y-320453D01*
X-142650Y-320400D01*
X-142645Y-320353D01*
Y-320316D01*
X-142640Y-320279D01*
Y-320215D01*
X-142650Y-319951D01*
X-142677Y-319708D01*
X-142724Y-319471D01*
X-142777Y-319254D01*
X-142846Y-319048D01*
X-142920Y-318863D01*
X-142999Y-318689D01*
X-143084Y-318535D01*
X-143168Y-318398D01*
X-143247Y-318277D01*
X-143321Y-318171D01*
X-143390Y-318086D01*
X-143448Y-318018D01*
X-143490Y-317965D01*
X-143517Y-317938D01*
X-143527Y-317928D01*
X-143702Y-317775D01*
X-143887Y-317642D01*
X-144082Y-317532D01*
X-144288Y-317431D01*
X-144494Y-317352D01*
X-144695Y-317283D01*
X-144896Y-317225D01*
X-145091Y-317178D01*
X-145276Y-317146D01*
X-145445Y-317120D01*
X-145598Y-317098D01*
X-145667Y-317093D01*
X-145730Y-317083D01*
X-145789D01*
X-145836Y-317077D01*
X-145884D01*
X-145921Y-317072D01*
X-142640D01*
D01*
D02*
G37*
G36*
X-142751Y-323819D02*
X-149254D01*
Y-329662D01*
X-142751D01*
Y-328003D01*
Y-328352D01*
X-145466D01*
Y-328003D01*
X-145461Y-327929D01*
Y-327855D01*
X-145456Y-327791D01*
X-145450Y-327733D01*
X-145445Y-327681D01*
X-145435Y-327628D01*
X-145429Y-327585D01*
X-145424Y-327548D01*
X-145414Y-327517D01*
X-145403Y-327464D01*
X-145398Y-327438D01*
X-145392Y-327427D01*
X-145361Y-327348D01*
X-145318Y-327274D01*
X-145271Y-327210D01*
X-145229Y-327147D01*
X-145186Y-327099D01*
X-145149Y-327062D01*
X-145128Y-327041D01*
X-145118Y-327031D01*
X-145075Y-326994D01*
X-145023Y-326946D01*
X-144959Y-326899D01*
X-144885Y-326846D01*
X-144811Y-326788D01*
X-144732Y-326730D01*
X-144568Y-326613D01*
X-144489Y-326561D01*
X-144415Y-326508D01*
X-144346Y-326460D01*
X-144283Y-326423D01*
X-144235Y-326386D01*
X-144193Y-326360D01*
X-144172Y-326344D01*
X-144161Y-326339D01*
X-142751Y-325393D01*
Y-323819D01*
D02*
G37*
G36*
X-142640Y-330877D02*
X-149360D01*
Y-336958D01*
D01*
Y-333730D01*
X-149355Y-333899D01*
X-149344Y-334063D01*
X-149328Y-334221D01*
X-149307Y-334369D01*
X-149286Y-334506D01*
X-149254Y-334633D01*
X-149228Y-334749D01*
X-149196Y-334860D01*
X-149165Y-334956D01*
X-149138Y-335040D01*
X-149107Y-335114D01*
X-149085Y-335177D01*
X-149064Y-335225D01*
X-149048Y-335262D01*
X-149038Y-335283D01*
X-149032Y-335288D01*
X-148948Y-335436D01*
X-148863Y-335579D01*
X-148768Y-335706D01*
X-148668Y-335827D01*
X-148568Y-335938D01*
X-148467Y-336044D01*
X-148367Y-336134D01*
X-148272Y-336218D01*
X-148182Y-336292D01*
X-148097Y-336356D01*
X-148018Y-336408D01*
X-147955Y-336456D01*
X-147897Y-336488D01*
X-147860Y-336514D01*
X-147833Y-336530D01*
X-147823Y-336535D01*
X-147675Y-336609D01*
X-147521Y-336673D01*
X-147363Y-336731D01*
X-147210Y-336778D01*
X-147057Y-336820D01*
X-146909Y-336852D01*
X-146761Y-336884D01*
X-146629Y-336905D01*
X-146502Y-336921D01*
X-146386Y-336937D01*
X-146280Y-336947D01*
X-146190Y-336953D01*
X-146122D01*
X-146069Y-336958D01*
X-146021D01*
X-145847Y-336953D01*
X-145678Y-336942D01*
X-145514Y-336921D01*
X-145355Y-336900D01*
X-145208Y-336868D01*
X-145060Y-336836D01*
X-144928Y-336805D01*
X-144806Y-336768D01*
X-144690Y-336731D01*
X-144589Y-336699D01*
X-144500Y-336667D01*
X-144426Y-336636D01*
X-144368Y-336614D01*
X-144325Y-336593D01*
X-144299Y-336583D01*
X-144288Y-336577D01*
X-144146Y-336503D01*
X-144008Y-336419D01*
X-143881Y-336329D01*
X-143760Y-336239D01*
X-143649Y-336144D01*
X-143549Y-336049D01*
X-143459Y-335959D01*
X-143374Y-335864D01*
X-143306Y-335780D01*
X-143242Y-335700D01*
X-143184Y-335626D01*
X-143142Y-335563D01*
X-143110Y-335516D01*
X-143084Y-335473D01*
X-143068Y-335452D01*
X-143062Y-335442D01*
X-142989Y-335294D01*
X-142925Y-335146D01*
X-142867Y-334992D01*
X-142819Y-334845D01*
X-142777Y-334691D01*
X-142746Y-334543D01*
X-142714Y-334401D01*
X-142693Y-334263D01*
X-142677Y-334142D01*
X-142661Y-334026D01*
X-142650Y-333920D01*
X-142645Y-333830D01*
Y-333762D01*
X-142640Y-333709D01*
Y-333661D01*
X-142645Y-333513D01*
X-142650Y-333360D01*
X-142666Y-333217D01*
X-142687Y-333075D01*
X-142709Y-332937D01*
X-142735Y-332805D01*
X-142761Y-332684D01*
X-142793Y-332568D01*
X-142819Y-332462D01*
X-142846Y-332367D01*
X-142872Y-332282D01*
X-142893Y-332208D01*
X-142915Y-332155D01*
X-142930Y-332113D01*
X-142936Y-332087D01*
X-142941Y-332076D01*
X-142999Y-331934D01*
X-143057Y-331801D01*
X-143115Y-331675D01*
X-143179Y-331558D01*
X-143237Y-331453D01*
X-143295Y-331352D01*
X-143353Y-331263D01*
X-143406Y-331183D01*
X-143454Y-331109D01*
X-143501Y-331051D01*
X-143543Y-330998D01*
X-143575Y-330956D01*
X-143607Y-330919D01*
X-143628Y-330898D01*
X-143638Y-330882D01*
X-143644Y-330877D01*
X-142640D01*
D01*
D02*
G37*
%LPD*%
G36*
X-144441Y-313643D02*
X-149254Y-315286D01*
Y-312048D01*
X-144441Y-313643D01*
D02*
G37*
G36*
X-146280Y-317083D02*
X-146549Y-317109D01*
X-146808Y-317151D01*
X-147046Y-317209D01*
X-147268Y-317273D01*
X-147469Y-317347D01*
X-147654Y-317426D01*
X-147823Y-317505D01*
X-147971Y-317584D01*
X-148103Y-317664D01*
X-148214Y-317738D01*
X-148303Y-317801D01*
X-148372Y-317859D01*
X-148425Y-317901D01*
X-148457Y-317928D01*
X-148467Y-317938D01*
X-148626Y-318107D01*
X-148763Y-318282D01*
X-148879Y-318472D01*
X-148985Y-318662D01*
X-149069Y-318852D01*
X-149143Y-319043D01*
X-149202Y-319233D01*
X-149249Y-319412D01*
X-149286Y-319582D01*
X-149313Y-319735D01*
X-149334Y-319877D01*
X-149339Y-319941D01*
X-149344Y-319999D01*
X-149349Y-320052D01*
X-149355Y-320099D01*
Y-320141D01*
X-149360Y-320173D01*
Y-317072D01*
X-145989D01*
X-146280Y-317083D01*
D02*
G37*
G36*
X-145815Y-318430D02*
X-145625Y-318446D01*
X-145445Y-318472D01*
X-145281Y-318504D01*
X-145128Y-318541D01*
X-144986Y-318583D01*
X-144864Y-318631D01*
X-144748Y-318678D01*
X-144648Y-318726D01*
X-144563Y-318773D01*
X-144489Y-318815D01*
X-144431Y-318852D01*
X-144383Y-318884D01*
X-144352Y-318911D01*
X-144331Y-318926D01*
X-144325Y-318932D01*
X-144225Y-319027D01*
X-144140Y-319132D01*
X-144061Y-319238D01*
X-143998Y-319344D01*
X-143945Y-319455D01*
X-143897Y-319560D01*
X-143860Y-319666D01*
X-143829Y-319766D01*
X-143807Y-319856D01*
X-143792Y-319946D01*
X-143776Y-320025D01*
X-143771Y-320089D01*
X-143765Y-320147D01*
X-143760Y-320184D01*
Y-320221D01*
X-143765Y-320363D01*
X-143786Y-320501D01*
X-143813Y-320633D01*
X-143850Y-320754D01*
X-143892Y-320865D01*
X-143940Y-320976D01*
X-143992Y-321071D01*
X-144045Y-321161D01*
X-144098Y-321240D01*
X-144146Y-321309D01*
X-144193Y-321372D01*
X-144235Y-321420D01*
X-144272Y-321462D01*
X-144299Y-321494D01*
X-144320Y-321510D01*
X-144325Y-321515D01*
X-144436Y-321605D01*
X-144563Y-321684D01*
X-144690Y-321748D01*
X-144827Y-321806D01*
X-144965Y-321858D01*
X-145107Y-321901D01*
X-145245Y-321932D01*
X-145377Y-321959D01*
X-145503Y-321980D01*
X-145620Y-321996D01*
X-145725Y-322006D01*
X-145820Y-322012D01*
X-145894Y-322017D01*
X-145952Y-322022D01*
X-145974D01*
X-145989D01*
X-145995D01*
X-146000D01*
X-146206Y-322017D01*
X-146396Y-322001D01*
X-146571Y-321975D01*
X-146740Y-321943D01*
X-146888Y-321906D01*
X-147025Y-321864D01*
X-147152Y-321822D01*
X-147263Y-321774D01*
X-147358Y-321726D01*
X-147448Y-321684D01*
X-147516Y-321642D01*
X-147574Y-321605D01*
X-147622Y-321573D01*
X-147654Y-321547D01*
X-147675Y-321531D01*
X-147680Y-321526D01*
X-147780Y-321431D01*
X-147865Y-321325D01*
X-147939Y-321219D01*
X-148002Y-321114D01*
X-148060Y-321003D01*
X-148103Y-320897D01*
X-148140Y-320786D01*
X-148171Y-320686D01*
X-148193Y-320591D01*
X-148208Y-320501D01*
X-148224Y-320421D01*
X-148230Y-320353D01*
X-148235Y-320300D01*
X-148240Y-320258D01*
Y-320221D01*
X-148235Y-320073D01*
X-148219Y-319930D01*
X-148187Y-319798D01*
X-148155Y-319671D01*
X-148113Y-319555D01*
X-148066Y-319449D01*
X-148013Y-319354D01*
X-147965Y-319265D01*
X-147913Y-319185D01*
X-147860Y-319116D01*
X-147812Y-319053D01*
X-147770Y-319006D01*
X-147738Y-318969D01*
X-147712Y-318937D01*
X-147691Y-318921D01*
X-147685Y-318916D01*
X-147574Y-318831D01*
X-147458Y-318752D01*
X-147326Y-318689D01*
X-147194Y-318631D01*
X-147057Y-318583D01*
X-146919Y-318546D01*
X-146782Y-318514D01*
X-146650Y-318488D01*
X-146523Y-318467D01*
X-146402Y-318451D01*
X-146296Y-318440D01*
X-146206Y-318430D01*
X-146127D01*
X-146095Y-318424D01*
X-146069D01*
X-146047D01*
X-146032D01*
X-146026D01*
X-146021D01*
X-145815Y-318430D01*
D02*
G37*
G36*
X-144019Y-324616D02*
X-144156Y-324701D01*
X-144283Y-324785D01*
X-144394Y-324859D01*
X-144500Y-324933D01*
X-144600Y-324997D01*
X-144684Y-325060D01*
X-144758Y-325118D01*
X-144827Y-325166D01*
X-144885Y-325213D01*
X-144938Y-325256D01*
X-144980Y-325287D01*
X-145012Y-325314D01*
X-145038Y-325335D01*
X-145054Y-325356D01*
X-145065Y-325361D01*
X-145070Y-325367D01*
X-145181Y-325477D01*
X-145281Y-325594D01*
X-145377Y-325710D01*
X-145456Y-325816D01*
X-145525Y-325916D01*
X-145551Y-325958D01*
X-145577Y-325995D01*
X-145593Y-326022D01*
X-145609Y-326043D01*
X-145614Y-326059D01*
X-145620Y-326064D01*
X-145646Y-325911D01*
X-145678Y-325763D01*
X-145720Y-325625D01*
X-145762Y-325504D01*
X-145810Y-325388D01*
X-145863Y-325282D01*
X-145915Y-325187D01*
X-145963Y-325102D01*
X-146011Y-325023D01*
X-146058Y-324960D01*
X-146100Y-324907D01*
X-146143Y-324859D01*
X-146174Y-324828D01*
X-146195Y-324801D01*
X-146211Y-324785D01*
X-146217Y-324780D01*
X-146312Y-324706D01*
X-146407Y-324637D01*
X-146507Y-324579D01*
X-146608Y-324532D01*
X-146708Y-324490D01*
X-146808Y-324453D01*
X-146909Y-324426D01*
X-147004Y-324400D01*
X-147088Y-324384D01*
X-147173Y-324368D01*
X-147241Y-324357D01*
X-147305Y-324352D01*
X-147358D01*
X-147395Y-324347D01*
X-147416D01*
X-147427D01*
X-147532Y-324352D01*
X-147638Y-324357D01*
X-147833Y-324389D01*
X-147923Y-324410D01*
X-148008Y-324437D01*
X-148087Y-324463D01*
X-148155Y-324490D01*
X-148224Y-324516D01*
X-148282Y-324542D01*
X-148330Y-324563D01*
X-148372Y-324590D01*
X-148409Y-324606D01*
X-148430Y-324622D01*
X-148446Y-324627D01*
X-148451Y-324632D01*
X-148531Y-324685D01*
X-148610Y-324748D01*
X-148673Y-324807D01*
X-148737Y-324870D01*
X-148795Y-324933D01*
X-148848Y-324997D01*
X-148890Y-325060D01*
X-148932Y-325118D01*
X-148964Y-325176D01*
X-148996Y-325229D01*
X-149022Y-325271D01*
X-149043Y-325314D01*
X-149054Y-325345D01*
X-149064Y-325372D01*
X-149075Y-325388D01*
Y-325393D01*
X-149107Y-325488D01*
X-149133Y-325594D01*
X-149159Y-325705D01*
X-149180Y-325826D01*
X-149212Y-326080D01*
X-149223Y-326201D01*
X-149233Y-326323D01*
X-149239Y-326439D01*
X-149244Y-326550D01*
X-149249Y-326650D01*
X-149254Y-326735D01*
Y-323819D01*
X-142751D01*
X-144019Y-324616D01*
D02*
G37*
G36*
X-147236Y-325705D02*
X-147141Y-325720D01*
X-147062Y-325742D01*
X-146988Y-325768D01*
X-146935Y-325794D01*
X-146893Y-325816D01*
X-146866Y-325831D01*
X-146856Y-325837D01*
X-146787Y-325890D01*
X-146729Y-325948D01*
X-146681Y-326011D01*
X-146644Y-326069D01*
X-146618Y-326122D01*
X-146597Y-326170D01*
X-146586Y-326196D01*
X-146581Y-326201D01*
Y-326207D01*
X-146565Y-326259D01*
X-146555Y-326323D01*
X-146544Y-326402D01*
X-146534Y-326487D01*
X-146528Y-326582D01*
X-146523Y-326682D01*
X-146512Y-326883D01*
X-146507Y-326978D01*
Y-327073D01*
X-146502Y-327158D01*
Y-328352D01*
X-148155D01*
Y-326946D01*
X-148150Y-326841D01*
Y-326751D01*
X-148145Y-326677D01*
Y-326550D01*
X-148140Y-326502D01*
Y-326460D01*
X-148134Y-326434D01*
Y-326407D01*
X-148129Y-326391D01*
Y-326370D01*
X-148103Y-326259D01*
X-148066Y-326159D01*
X-148024Y-326074D01*
X-147981Y-326006D01*
X-147944Y-325953D01*
X-147907Y-325911D01*
X-147886Y-325890D01*
X-147875Y-325879D01*
X-147796Y-325821D01*
X-147706Y-325773D01*
X-147617Y-325742D01*
X-147532Y-325720D01*
X-147458Y-325710D01*
X-147395Y-325699D01*
X-147374D01*
X-147358D01*
X-147347D01*
X-147342D01*
X-147236Y-325705D01*
D02*
G37*
G36*
X-146238Y-333709D02*
X-145139D01*
Y-332203D01*
X-144309D01*
X-144230Y-332319D01*
X-144151Y-332441D01*
X-144087Y-332562D01*
X-144029Y-332673D01*
X-143982Y-332774D01*
X-143966Y-332816D01*
X-143950Y-332853D01*
X-143934Y-332879D01*
X-143924Y-332900D01*
X-143918Y-332916D01*
Y-332921D01*
X-143866Y-333075D01*
X-143829Y-333223D01*
X-143797Y-333365D01*
X-143781Y-333487D01*
X-143776Y-333545D01*
X-143771Y-333592D01*
X-143765Y-333635D01*
Y-333677D01*
X-143760Y-333703D01*
Y-333746D01*
X-143765Y-333899D01*
X-143786Y-334042D01*
X-143813Y-334179D01*
X-143850Y-334306D01*
X-143892Y-334427D01*
X-143945Y-334538D01*
X-143992Y-334639D01*
X-144051Y-334734D01*
X-144103Y-334813D01*
X-144156Y-334887D01*
X-144204Y-334950D01*
X-144246Y-334998D01*
X-144283Y-335040D01*
X-144309Y-335066D01*
X-144331Y-335088D01*
X-144336Y-335093D01*
X-144452Y-335183D01*
X-144579Y-335262D01*
X-144711Y-335331D01*
X-144853Y-335389D01*
X-144996Y-335436D01*
X-145139Y-335479D01*
X-145287Y-335516D01*
X-145424Y-335542D01*
X-145556Y-335563D01*
X-145678Y-335579D01*
X-145789Y-335589D01*
X-145884Y-335595D01*
X-145963Y-335600D01*
X-145995Y-335605D01*
X-146021D01*
X-146047D01*
X-146063D01*
X-146069D01*
X-146074D01*
X-146269Y-335600D01*
X-146449Y-335584D01*
X-146623Y-335558D01*
X-146777Y-335526D01*
X-146924Y-335489D01*
X-147057Y-335447D01*
X-147178Y-335399D01*
X-147284Y-335352D01*
X-147379Y-335304D01*
X-147463Y-335257D01*
X-147532Y-335214D01*
X-147590Y-335177D01*
X-147633Y-335146D01*
X-147664Y-335119D01*
X-147685Y-335103D01*
X-147691Y-335098D01*
X-147786Y-334998D01*
X-147870Y-334892D01*
X-147944Y-334781D01*
X-148008Y-334670D01*
X-148060Y-334554D01*
X-148108Y-334443D01*
X-148145Y-334332D01*
X-148171Y-334221D01*
X-148193Y-334121D01*
X-148214Y-334031D01*
X-148224Y-333946D01*
X-148230Y-333872D01*
X-148235Y-333814D01*
X-148240Y-333767D01*
Y-333730D01*
X-148235Y-333624D01*
X-148230Y-333529D01*
X-148214Y-333434D01*
X-148198Y-333344D01*
X-148177Y-333260D01*
X-148150Y-333186D01*
X-148124Y-333112D01*
X-148103Y-333048D01*
X-148076Y-332990D01*
X-148050Y-332937D01*
X-148024Y-332895D01*
X-148002Y-332858D01*
X-147986Y-332826D01*
X-147971Y-332805D01*
X-147965Y-332795D01*
X-147960Y-332789D01*
X-147907Y-332721D01*
X-147849Y-332657D01*
X-147786Y-332599D01*
X-147722Y-332546D01*
X-147596Y-332457D01*
X-147479Y-332383D01*
X-147368Y-332330D01*
X-147326Y-332309D01*
X-147284Y-332293D01*
X-147252Y-332282D01*
X-147226Y-332272D01*
X-147210Y-332266D01*
X-147205D01*
X-147448Y-330961D01*
X-147611Y-331004D01*
X-147765Y-331057D01*
X-147907Y-331115D01*
X-148045Y-331183D01*
X-148166Y-331252D01*
X-148282Y-331326D01*
X-148388Y-331400D01*
X-148483Y-331474D01*
X-148568Y-331543D01*
X-148642Y-331611D01*
X-148705Y-331675D01*
X-148752Y-331727D01*
X-148795Y-331775D01*
X-148827Y-331807D01*
X-148842Y-331833D01*
X-148848Y-331838D01*
X-148937Y-331971D01*
X-149017Y-332113D01*
X-149085Y-332266D01*
X-149143Y-332420D01*
X-149196Y-332578D01*
X-149233Y-332737D01*
X-149270Y-332890D01*
X-149297Y-333038D01*
X-149318Y-333180D01*
X-149334Y-333312D01*
X-149344Y-333429D01*
X-149355Y-333529D01*
Y-333614D01*
X-149360Y-333645D01*
Y-330877D01*
X-146238D01*
Y-333709D01*
D02*
G37*
%LPC*%
G36*
X197928Y-274899D02*
X197881D01*
X197712Y-274904D01*
X197548Y-274926D01*
X197390Y-274963D01*
X197247Y-275005D01*
X197110Y-275053D01*
X196983Y-275111D01*
X196861Y-275169D01*
X196756Y-275232D01*
X196660Y-275296D01*
X196576Y-275354D01*
X196502Y-275412D01*
X196444Y-275459D01*
X196396Y-275501D01*
X196359Y-275539D01*
X196338Y-275560D01*
X196333Y-275565D01*
X196227Y-275697D01*
X196132Y-275834D01*
X196053Y-275982D01*
X195984Y-276130D01*
X195921Y-276283D01*
X195873Y-276437D01*
X195831Y-276585D01*
X195799Y-276733D01*
X195778Y-276870D01*
X195757Y-276991D01*
X195746Y-277108D01*
X195736Y-277203D01*
X195731Y-277287D01*
X195725Y-277319D01*
Y-274899D01*
D01*
D01*
Y-279823D01*
Y-277398D01*
X195731Y-277578D01*
X195746Y-277752D01*
X195768Y-277911D01*
X195799Y-278069D01*
X195831Y-278212D01*
X195873Y-278344D01*
X195916Y-278465D01*
X195958Y-278582D01*
X196000Y-278682D01*
X196042Y-278772D01*
X196085Y-278846D01*
X196116Y-278909D01*
X196148Y-278957D01*
X196169Y-278994D01*
X196185Y-279020D01*
X196190Y-279025D01*
X196306Y-279168D01*
X196439Y-279290D01*
X196576Y-279395D01*
X196719Y-279485D01*
X196872Y-279564D01*
X197020Y-279628D01*
X197173Y-279681D01*
X197316Y-279723D01*
X197453Y-279755D01*
X197585Y-279781D01*
X197701Y-279797D01*
X197802Y-279813D01*
X197886Y-279818D01*
X197918D01*
X197950Y-279823D01*
X195725D01*
X200121D01*
X198002D01*
X198145Y-279818D01*
X198282Y-279807D01*
X198409Y-279792D01*
X198531Y-279765D01*
X198647Y-279739D01*
X198753Y-279712D01*
X198848Y-279681D01*
X198937Y-279644D01*
X199017Y-279612D01*
X199091Y-279580D01*
X199149Y-279554D01*
X199202Y-279522D01*
X199239Y-279501D01*
X199270Y-279485D01*
X199286Y-279475D01*
X199291Y-279469D01*
X199387Y-279401D01*
X199471Y-279321D01*
X199556Y-279237D01*
X199630Y-279152D01*
X199698Y-279068D01*
X199762Y-278978D01*
X199814Y-278893D01*
X199867Y-278809D01*
X199910Y-278735D01*
X199947Y-278661D01*
X199978Y-278592D01*
X200005Y-278534D01*
X200026Y-278486D01*
X200042Y-278455D01*
X200047Y-278428D01*
X200052Y-278423D01*
X198811Y-278217D01*
X198768Y-278344D01*
X198721Y-278450D01*
X198668Y-278539D01*
X198620Y-278608D01*
X198573Y-278666D01*
X198536Y-278703D01*
X198515Y-278730D01*
X198504Y-278735D01*
X198425Y-278788D01*
X198346Y-278825D01*
X198267Y-278856D01*
X198187Y-278872D01*
X198119Y-278883D01*
X198066Y-278888D01*
X198045Y-278893D01*
X198018D01*
X197939Y-278888D01*
X197865Y-278878D01*
X197791Y-278867D01*
X197728Y-278846D01*
X197601Y-278798D01*
X197500Y-278740D01*
X197453Y-278714D01*
X197416Y-278682D01*
X197379Y-278656D01*
X197353Y-278634D01*
X197331Y-278613D01*
X197316Y-278598D01*
X197305Y-278592D01*
X197300Y-278587D01*
X197252Y-278529D01*
X197205Y-278460D01*
X197168Y-278391D01*
X197136Y-278323D01*
X197083Y-278180D01*
X197046Y-278037D01*
X197030Y-277974D01*
X197025Y-277916D01*
X197014Y-277858D01*
X197009Y-277810D01*
Y-277773D01*
X197004Y-277747D01*
Y-277726D01*
Y-277721D01*
X200121D01*
Y-277462D01*
X200105Y-277219D01*
X200079Y-276991D01*
X200042Y-276785D01*
X199999Y-276595D01*
X199947Y-276421D01*
X199894Y-276262D01*
X199841Y-276120D01*
X199783Y-275998D01*
X199730Y-275893D01*
X199682Y-275803D01*
X199635Y-275729D01*
X199598Y-275671D01*
X199566Y-275628D01*
X199545Y-275607D01*
X199540Y-275597D01*
X199424Y-275475D01*
X199297Y-275364D01*
X199159Y-275274D01*
X199022Y-275195D01*
X198885Y-275126D01*
X198747Y-275068D01*
X198615Y-275021D01*
X198483Y-274984D01*
X198362Y-274957D01*
X198245Y-274936D01*
X198145Y-274920D01*
X198055Y-274910D01*
X197981Y-274904D01*
X197928Y-274899D01*
D02*
G37*
G36*
X184662D02*
D01*
Y-278085D01*
Y-274899D01*
D01*
D02*
G37*
G36*
X186908D02*
X186828D01*
X186659Y-274904D01*
X186506Y-274915D01*
X186358Y-274931D01*
X186226Y-274952D01*
X186099Y-274973D01*
X185988Y-275005D01*
X185883Y-275031D01*
X185793Y-275063D01*
X185708Y-275095D01*
X185640Y-275121D01*
X185582Y-275153D01*
X185534Y-275174D01*
X185492Y-275195D01*
X185465Y-275211D01*
X185450Y-275222D01*
X185444Y-275227D01*
X185360Y-275290D01*
X185280Y-275364D01*
X185212Y-275443D01*
X185148Y-275523D01*
X185085Y-275607D01*
X185032Y-275692D01*
X184985Y-275771D01*
X184942Y-275856D01*
X184905Y-275930D01*
X184874Y-276003D01*
X184847Y-276067D01*
X184826Y-276125D01*
X184810Y-276173D01*
X184800Y-276204D01*
X184789Y-276231D01*
Y-276236D01*
X185920Y-276442D01*
X185962Y-276326D01*
X186015Y-276231D01*
X186062Y-276151D01*
X186110Y-276088D01*
X186152Y-276040D01*
X186184Y-276009D01*
X186205Y-275988D01*
X186216Y-275982D01*
X186295Y-275940D01*
X186379Y-275908D01*
X186464Y-275882D01*
X186548Y-275866D01*
X186622Y-275856D01*
X186686Y-275850D01*
X186828D01*
X186908Y-275856D01*
X186982Y-275866D01*
X187050Y-275877D01*
X187114Y-275887D01*
X187167Y-275898D01*
X187214Y-275914D01*
X187256Y-275930D01*
X187293Y-275945D01*
X187325Y-275956D01*
X187351Y-275972D01*
X187373Y-275982D01*
X187399Y-276003D01*
X187410Y-276009D01*
X187468Y-276072D01*
X187515Y-276151D01*
X187547Y-276236D01*
X187568Y-276320D01*
X187579Y-276400D01*
X187589Y-276463D01*
Y-276490D01*
Y-276505D01*
Y-276516D01*
Y-276521D01*
Y-276643D01*
X187521Y-276669D01*
X187441Y-276695D01*
X187351Y-276722D01*
X187256Y-276748D01*
X187056Y-276801D01*
X186855Y-276849D01*
X186760Y-276870D01*
X186670Y-276891D01*
X186585Y-276907D01*
X186517Y-276923D01*
X186459Y-276933D01*
X186411Y-276944D01*
X186385Y-276949D01*
X186374D01*
X186258Y-276975D01*
X186147Y-276997D01*
X186041Y-277023D01*
X185946Y-277050D01*
X185862Y-277076D01*
X185777Y-277097D01*
X185703Y-277124D01*
X185640Y-277145D01*
X185582Y-277166D01*
X185529Y-277187D01*
X185487Y-277203D01*
X185450Y-277219D01*
X185423Y-277229D01*
X185402Y-277240D01*
X185391Y-277245D01*
X185386D01*
X185265Y-277314D01*
X185159Y-277388D01*
X185069Y-277467D01*
X184990Y-277546D01*
X184932Y-277615D01*
X184890Y-277668D01*
X184874Y-277689D01*
X184863Y-277705D01*
X184853Y-277715D01*
Y-277721D01*
X184789Y-277842D01*
X184741Y-277964D01*
X184710Y-278085D01*
X184689Y-278196D01*
X184673Y-278291D01*
X184668Y-278333D01*
Y-278365D01*
X184662Y-278397D01*
Y-278391D01*
Y-279823D01*
Y-278434D01*
X184668Y-278545D01*
X184678Y-278650D01*
X184699Y-278751D01*
X184726Y-278846D01*
X184757Y-278930D01*
X184794Y-279015D01*
X184831Y-279089D01*
X184874Y-279158D01*
X184911Y-279221D01*
X184948Y-279274D01*
X184985Y-279321D01*
X185016Y-279358D01*
X185043Y-279390D01*
X185064Y-279416D01*
X185074Y-279427D01*
X185080Y-279432D01*
X185159Y-279501D01*
X185249Y-279559D01*
X185338Y-279612D01*
X185434Y-279659D01*
X185529Y-279696D01*
X185624Y-279728D01*
X185719Y-279755D01*
X185809Y-279776D01*
X185893Y-279792D01*
X185972Y-279802D01*
X186047Y-279813D01*
X186105Y-279818D01*
X186157D01*
X186194Y-279823D01*
X184662D01*
X189084D01*
D01*
X186226D01*
X186379Y-279818D01*
X186522Y-279797D01*
X186654Y-279776D01*
X186770Y-279744D01*
X186818Y-279733D01*
X186865Y-279718D01*
X186908Y-279707D01*
X186939Y-279691D01*
X186966Y-279686D01*
X186987Y-279675D01*
X186998Y-279670D01*
X187003D01*
X187135Y-279607D01*
X187262Y-279533D01*
X187378Y-279453D01*
X187478Y-279379D01*
X187563Y-279311D01*
X187600Y-279284D01*
X187631Y-279258D01*
X187653Y-279237D01*
X187668Y-279221D01*
X187679Y-279210D01*
X187684Y-279205D01*
X187690Y-279221D01*
X187700Y-279242D01*
X187716Y-279295D01*
X187721Y-279316D01*
X187726Y-279337D01*
X187732Y-279348D01*
Y-279353D01*
X187758Y-279438D01*
X187779Y-279512D01*
X187801Y-279575D01*
X187816Y-279628D01*
X187832Y-279665D01*
X187843Y-279696D01*
X187853Y-279712D01*
Y-279718D01*
X189084D01*
X189026Y-279596D01*
X188979Y-279480D01*
X188936Y-279374D01*
X188910Y-279279D01*
X188884Y-279200D01*
X188878Y-279168D01*
X188868Y-279142D01*
X188862Y-279121D01*
Y-279099D01*
X188857Y-279094D01*
Y-279089D01*
X188847Y-279031D01*
X188836Y-278962D01*
X188825Y-278819D01*
X188815Y-278666D01*
X188804Y-278518D01*
Y-278450D01*
Y-278381D01*
X188799Y-278323D01*
Y-278270D01*
Y-278228D01*
Y-278196D01*
Y-278175D01*
Y-278169D01*
X188815Y-276717D01*
Y-276569D01*
X188810Y-276437D01*
X188799Y-276310D01*
X188789Y-276199D01*
X188778Y-276098D01*
X188762Y-276009D01*
X188746Y-275924D01*
X188730Y-275856D01*
X188715Y-275792D01*
X188699Y-275739D01*
X188683Y-275697D01*
X188672Y-275660D01*
X188662Y-275634D01*
X188651Y-275618D01*
X188646Y-275607D01*
Y-275602D01*
X188614Y-275544D01*
X188572Y-275491D01*
X188487Y-275396D01*
X188387Y-275306D01*
X188297Y-275237D01*
X188207Y-275179D01*
X188170Y-275153D01*
X188139Y-275137D01*
X188107Y-275121D01*
X188086Y-275111D01*
X188075Y-275100D01*
X188070D01*
X187991Y-275063D01*
X187901Y-275031D01*
X187806Y-275005D01*
X187705Y-274984D01*
X187499Y-274947D01*
X187299Y-274926D01*
X187204Y-274915D01*
X187114Y-274910D01*
X187034Y-274904D01*
X186966D01*
X186908Y-274899D01*
D02*
G37*
G36*
X181234Y-273214D02*
X178449D01*
Y-279718D01*
X183891D01*
D01*
X180879D01*
X181086Y-279712D01*
X181271D01*
X181434Y-279707D01*
X181577D01*
X181709Y-279702D01*
X181820Y-279696D01*
X181915D01*
X182000Y-279691D01*
X182068Y-279686D01*
X182121D01*
X182169Y-279681D01*
X182200D01*
X182222Y-279675D01*
X182237D01*
X182428Y-279644D01*
X182597Y-279601D01*
X182676Y-279580D01*
X182745Y-279554D01*
X182813Y-279527D01*
X182877Y-279501D01*
X182929Y-279475D01*
X182977Y-279448D01*
X183019Y-279427D01*
X183056Y-279406D01*
X183083Y-279390D01*
X183104Y-279379D01*
X183114Y-279369D01*
X183120D01*
X183246Y-279268D01*
X183357Y-279158D01*
X183458Y-279047D01*
X183537Y-278936D01*
X183600Y-278841D01*
X183627Y-278804D01*
X183648Y-278766D01*
X183664Y-278740D01*
X183674Y-278714D01*
X183685Y-278703D01*
Y-278698D01*
X183754Y-278539D01*
X183806Y-278386D01*
X183843Y-278238D01*
X183864Y-278106D01*
X183875Y-278048D01*
X183880Y-277995D01*
X183886Y-277948D01*
Y-277905D01*
X183891Y-277874D01*
Y-277831D01*
X183886Y-277726D01*
X183875Y-277631D01*
X183859Y-277536D01*
X183843Y-277440D01*
X183817Y-277356D01*
X183791Y-277277D01*
X183759Y-277203D01*
X183732Y-277134D01*
X183701Y-277071D01*
X183669Y-277018D01*
X183643Y-276970D01*
X183622Y-276928D01*
X183600Y-276896D01*
X183584Y-276875D01*
X183574Y-276859D01*
X183569Y-276854D01*
X183505Y-276780D01*
X183437Y-276706D01*
X183368Y-276643D01*
X183294Y-276585D01*
X183220Y-276532D01*
X183141Y-276484D01*
X182998Y-276400D01*
X182929Y-276368D01*
X182866Y-276342D01*
X182808Y-276315D01*
X182755Y-276294D01*
X182718Y-276283D01*
X182686Y-276273D01*
X182665Y-276262D01*
X182660D01*
X182808Y-276183D01*
X182940Y-276093D01*
X183056Y-275998D01*
X183151Y-275903D01*
X183225Y-275824D01*
X183257Y-275787D01*
X183283Y-275755D01*
X183299Y-275729D01*
X183315Y-275708D01*
X183320Y-275697D01*
X183326Y-275692D01*
X183368Y-275618D01*
X183410Y-275544D01*
X183468Y-275396D01*
X183516Y-275259D01*
X183542Y-275126D01*
X183553Y-275068D01*
X183563Y-275016D01*
X183569Y-274968D01*
Y-274931D01*
X183574Y-274894D01*
Y-274873D01*
Y-274857D01*
Y-274852D01*
X183563Y-274699D01*
X183542Y-274556D01*
X183511Y-274424D01*
X183474Y-274313D01*
X183452Y-274265D01*
X183437Y-274218D01*
X183421Y-274181D01*
X183405Y-274149D01*
X183394Y-274123D01*
X183384Y-274107D01*
X183373Y-274096D01*
Y-274091D01*
X183294Y-273969D01*
X183209Y-273864D01*
X183125Y-273774D01*
X183046Y-273695D01*
X182977Y-273631D01*
X182924Y-273589D01*
X182903Y-273573D01*
X182887Y-273563D01*
X182877Y-273552D01*
X182871D01*
X182755Y-273483D01*
X182639Y-273425D01*
X182528Y-273378D01*
X182422Y-273341D01*
X182332Y-273314D01*
X182290Y-273304D01*
X182258Y-273293D01*
X182232Y-273288D01*
X182211D01*
X182200Y-273283D01*
X182195D01*
X182121Y-273272D01*
X182036Y-273262D01*
X181947Y-273251D01*
X181857Y-273240D01*
X181661Y-273230D01*
X181476Y-273225D01*
X181387Y-273219D01*
X181308D01*
X181234Y-273214D01*
D02*
G37*
G36*
X194368Y-273335D02*
X193121Y-274070D01*
Y-275005D01*
X192550D01*
Y-279823D01*
X195319D01*
X194336D01*
X194537Y-279813D01*
X194722Y-279792D01*
X194806Y-279781D01*
X194885Y-279765D01*
X194959Y-279749D01*
X195033Y-279728D01*
X195097Y-279712D01*
X195149Y-279696D01*
X195202Y-279681D01*
X195239Y-279665D01*
X195276Y-279654D01*
X195297Y-279644D01*
X195313Y-279638D01*
X195319D01*
X195208Y-278671D01*
X195091Y-278708D01*
X194991Y-278740D01*
X194906Y-278761D01*
X194838Y-278772D01*
X194780Y-278782D01*
X194743Y-278788D01*
X194711D01*
X194663Y-278782D01*
X194626Y-278777D01*
X194589Y-278766D01*
X194558Y-278756D01*
X194531Y-278745D01*
X194515Y-278740D01*
X194505Y-278730D01*
X194500D01*
X194473Y-278703D01*
X194447Y-278677D01*
X194415Y-278624D01*
X194399Y-278603D01*
X194394Y-278587D01*
X194389Y-278576D01*
Y-278571D01*
X194383Y-278550D01*
Y-278513D01*
X194378Y-278476D01*
Y-278428D01*
X194373Y-278318D01*
Y-278201D01*
X194368Y-278085D01*
Y-278037D01*
Y-277990D01*
Y-277953D01*
Y-277927D01*
Y-277905D01*
Y-277900D01*
Y-275998D01*
X195218D01*
Y-275005D01*
X194368D01*
Y-273335D01*
D02*
G37*
G36*
X191346D02*
X190099Y-274070D01*
Y-275005D01*
X189528D01*
Y-279823D01*
X192297D01*
X191314D01*
X191515Y-279813D01*
X191700Y-279792D01*
X191784Y-279781D01*
X191863Y-279765D01*
X191937Y-279749D01*
X192011Y-279728D01*
X192075Y-279712D01*
X192127Y-279696D01*
X192180Y-279681D01*
X192217Y-279665D01*
X192254Y-279654D01*
X192275Y-279644D01*
X192291Y-279638D01*
X192297D01*
X192186Y-278671D01*
X192069Y-278708D01*
X191969Y-278740D01*
X191884Y-278761D01*
X191816Y-278772D01*
X191758Y-278782D01*
X191721Y-278788D01*
X191689D01*
X191641Y-278782D01*
X191604Y-278777D01*
X191567Y-278766D01*
X191536Y-278756D01*
X191509Y-278745D01*
X191493Y-278740D01*
X191483Y-278730D01*
X191478D01*
X191451Y-278703D01*
X191425Y-278677D01*
X191393Y-278624D01*
X191377Y-278603D01*
X191372Y-278587D01*
X191367Y-278576D01*
Y-278571D01*
X191361Y-278550D01*
Y-278513D01*
X191356Y-278476D01*
Y-278428D01*
X191351Y-278318D01*
Y-278201D01*
X191346Y-278085D01*
Y-278037D01*
Y-277990D01*
Y-277953D01*
Y-277927D01*
Y-277905D01*
Y-277900D01*
Y-275998D01*
X192196D01*
Y-275005D01*
X191346D01*
Y-273335D01*
D02*
G37*
G36*
X204136Y-274899D02*
X201082D01*
Y-279718D01*
X204083D01*
X202329D01*
Y-278265D01*
Y-278048D01*
X202335Y-277853D01*
X202340Y-277673D01*
X202345Y-277514D01*
X202350Y-277367D01*
X202361Y-277240D01*
X202372Y-277124D01*
X202382Y-277028D01*
X202387Y-276944D01*
X202398Y-276870D01*
X202409Y-276812D01*
X202414Y-276770D01*
X202419Y-276733D01*
X202424Y-276706D01*
X202430Y-276695D01*
Y-276690D01*
X202451Y-276622D01*
X202472Y-276558D01*
X202493Y-276500D01*
X202519Y-276447D01*
X202567Y-276357D01*
X202615Y-276283D01*
X202652Y-276231D01*
X202683Y-276194D01*
X202710Y-276173D01*
X202715Y-276167D01*
X202789Y-276120D01*
X202863Y-276083D01*
X202937Y-276056D01*
X203006Y-276035D01*
X203069Y-276025D01*
X203116Y-276019D01*
X203159D01*
X203259Y-276030D01*
X203365Y-276051D01*
X203465Y-276083D01*
X203555Y-276120D01*
X203629Y-276162D01*
X203666Y-276178D01*
X203692Y-276194D01*
X203713Y-276204D01*
X203729Y-276215D01*
X203740Y-276225D01*
X203745D01*
X204083Y-275284D01*
D01*
X204135Y-275141D01*
X205874Y-279733D01*
X205827Y-279871D01*
X205779Y-279998D01*
X205726Y-280109D01*
X205674Y-280204D01*
X205626Y-280278D01*
X205589Y-280330D01*
X205573Y-280352D01*
X205563Y-280367D01*
X205552Y-280373D01*
Y-280378D01*
X205510Y-280425D01*
X205467Y-280462D01*
X205415Y-280499D01*
X205367Y-280526D01*
X205261Y-280573D01*
X205156Y-280605D01*
X205061Y-280621D01*
X205019Y-280626D01*
X204981Y-280632D01*
X204955Y-280637D01*
X204913D01*
X204823Y-280632D01*
X204728Y-280626D01*
X204643Y-280616D01*
X204559Y-280605D01*
X204490Y-280595D01*
X204432Y-280589D01*
X204411Y-280584D01*
X204395Y-280579D01*
X204384D01*
X204495Y-281551D01*
X204622Y-281577D01*
X204749Y-281598D01*
X204870Y-281609D01*
X204976Y-281619D01*
X205066Y-281625D01*
X205103Y-281630D01*
X208928D01*
X205198D01*
X205325Y-281625D01*
X205446Y-281619D01*
X205552Y-281604D01*
X205647Y-281588D01*
X205726Y-281577D01*
X205758Y-281567D01*
X205784Y-281561D01*
X205806Y-281556D01*
X205821D01*
X205827Y-281551D01*
X205832D01*
X205933Y-281519D01*
X206028Y-281487D01*
X206107Y-281450D01*
X206175Y-281419D01*
X206234Y-281387D01*
X206276Y-281361D01*
X206297Y-281345D01*
X206308Y-281339D01*
X206376Y-281287D01*
X206445Y-281229D01*
X206503Y-281170D01*
X206551Y-281118D01*
X206593Y-281065D01*
X206625Y-281028D01*
X206646Y-281001D01*
X206651Y-280991D01*
X206709Y-280901D01*
X206762Y-280801D01*
X206815Y-280695D01*
X206862Y-280595D01*
X206905Y-280505D01*
X206920Y-280462D01*
X206936Y-280431D01*
X206947Y-280399D01*
X206957Y-280378D01*
X206963Y-280367D01*
Y-280362D01*
X207264Y-279543D01*
X208928Y-275005D01*
D01*
X204136D01*
X204083D01*
X204133Y-275135D01*
X204062Y-275095D01*
X203988Y-275058D01*
X203840Y-275000D01*
X203703Y-274957D01*
X203576Y-274931D01*
X203518Y-274920D01*
X203470Y-274910D01*
X203423Y-274904D01*
X203386D01*
X203354Y-274899D01*
X204136D01*
D02*
G37*
G36*
X204083Y-279718D02*
Y-281630D01*
D01*
Y-279718D01*
D02*
G37*
%LPD*%
G36*
X198023Y-275856D02*
X198092Y-275861D01*
X198214Y-275893D01*
X198325Y-275940D01*
X198420Y-275993D01*
X198494Y-276046D01*
X198525Y-276067D01*
X198552Y-276093D01*
X198573Y-276109D01*
X198589Y-276125D01*
X198594Y-276130D01*
X198599Y-276136D01*
X198647Y-276194D01*
X198689Y-276252D01*
X198758Y-276384D01*
X198811Y-276521D01*
X198842Y-276653D01*
X198858Y-276717D01*
X198864Y-276775D01*
X198874Y-276828D01*
X198879Y-276870D01*
Y-276907D01*
X198885Y-276933D01*
Y-276954D01*
Y-276960D01*
X197025D01*
Y-276865D01*
X197036Y-276780D01*
X197046Y-276695D01*
X197062Y-276622D01*
X197083Y-276548D01*
X197104Y-276479D01*
X197131Y-276421D01*
X197152Y-276363D01*
X197178Y-276315D01*
X197199Y-276273D01*
X197220Y-276236D01*
X197242Y-276204D01*
X197257Y-276183D01*
X197273Y-276167D01*
X197279Y-276157D01*
X197284Y-276151D01*
X197337Y-276098D01*
X197390Y-276051D01*
X197442Y-276014D01*
X197500Y-275977D01*
X197559Y-275945D01*
X197611Y-275924D01*
X197717Y-275887D01*
X197812Y-275866D01*
X197854Y-275861D01*
X197886Y-275856D01*
X197918Y-275850D01*
X197955D01*
X198023Y-275856D01*
D02*
G37*
G36*
X187589Y-277705D02*
Y-277784D01*
Y-277858D01*
X187584Y-277927D01*
X187579Y-277990D01*
Y-278043D01*
X187573Y-278096D01*
X187568Y-278138D01*
X187563Y-278175D01*
X187552Y-278238D01*
X187547Y-278281D01*
X187536Y-278307D01*
Y-278312D01*
X187505Y-278402D01*
X187462Y-278481D01*
X187415Y-278555D01*
X187362Y-278613D01*
X187314Y-278661D01*
X187278Y-278698D01*
X187251Y-278724D01*
X187246Y-278730D01*
X187241D01*
X187124Y-278804D01*
X187013Y-278856D01*
X186902Y-278893D01*
X186802Y-278920D01*
X186717Y-278936D01*
X186686Y-278941D01*
X186654D01*
X186628Y-278946D01*
X186596D01*
X186490Y-278936D01*
X186390Y-278915D01*
X186305Y-278888D01*
X186237Y-278851D01*
X186179Y-278814D01*
X186136Y-278788D01*
X186110Y-278766D01*
X186099Y-278756D01*
X186036Y-278682D01*
X185988Y-278603D01*
X185957Y-278529D01*
X185935Y-278460D01*
X185920Y-278397D01*
X185914Y-278349D01*
X185909Y-278318D01*
Y-278312D01*
Y-278307D01*
X185914Y-278259D01*
X185920Y-278212D01*
X185946Y-278122D01*
X185988Y-278048D01*
X186031Y-277985D01*
X186073Y-277937D01*
X186115Y-277900D01*
X186142Y-277874D01*
X186152Y-277868D01*
X186184Y-277847D01*
X186226Y-277826D01*
X186274Y-277810D01*
X186327Y-277789D01*
X186437Y-277752D01*
X186548Y-277721D01*
X186654Y-277694D01*
X186702Y-277678D01*
X186744Y-277673D01*
X186781Y-277662D01*
X186807Y-277657D01*
X186823Y-277652D01*
X186828D01*
X186924Y-277631D01*
X187008Y-277610D01*
X187093Y-277594D01*
X187167Y-277572D01*
X187235Y-277557D01*
X187299Y-277541D01*
X187351Y-277525D01*
X187404Y-277514D01*
X187446Y-277499D01*
X187484Y-277488D01*
X187515Y-277477D01*
X187542Y-277472D01*
X187563Y-277467D01*
X187579Y-277462D01*
X187584Y-277456D01*
X187589D01*
Y-277705D01*
D02*
G37*
G36*
X181075Y-274302D02*
X181181D01*
X181271Y-274307D01*
X181418D01*
X181476Y-274313D01*
X181519D01*
X181556Y-274318D01*
X181588D01*
X181609Y-274323D01*
X181630D01*
X181746Y-274345D01*
X181846Y-274376D01*
X181931Y-274413D01*
X182005Y-274450D01*
X182058Y-274487D01*
X182095Y-274519D01*
X182121Y-274540D01*
X182126Y-274551D01*
X182185Y-274625D01*
X182227Y-274704D01*
X182253Y-274783D01*
X182274Y-274862D01*
X182285Y-274931D01*
X182295Y-274989D01*
Y-275005D01*
Y-275021D01*
Y-275031D01*
Y-275037D01*
X182285Y-275148D01*
X182264Y-275248D01*
X182232Y-275338D01*
X182200Y-275412D01*
X182163Y-275470D01*
X182132Y-275512D01*
X182111Y-275539D01*
X182100Y-275549D01*
X182021Y-275613D01*
X181936Y-275665D01*
X181852Y-275702D01*
X181767Y-275734D01*
X181688Y-275755D01*
X181630Y-275766D01*
X181603Y-275771D01*
X181588Y-275776D01*
X181572D01*
X181529Y-275781D01*
X181476D01*
X181413Y-275787D01*
X181344D01*
X181265Y-275792D01*
X181022D01*
X180943Y-275797D01*
X179760D01*
Y-274297D01*
X180959D01*
X181075Y-274302D01*
D02*
G37*
G36*
X181122Y-276886D02*
X181260Y-276891D01*
X181376Y-276896D01*
X181487Y-276902D01*
X181582Y-276912D01*
X181667Y-276917D01*
X181735Y-276928D01*
X181799Y-276939D01*
X181852Y-276944D01*
X181894Y-276954D01*
X181926Y-276960D01*
X181952Y-276965D01*
X181973Y-276970D01*
X181978Y-276975D01*
X181984D01*
X182079Y-277018D01*
X182163Y-277060D01*
X182232Y-277113D01*
X182290Y-277160D01*
X182338Y-277208D01*
X182369Y-277245D01*
X182390Y-277266D01*
X182396Y-277277D01*
X182443Y-277356D01*
X182480Y-277440D01*
X182502Y-277520D01*
X182523Y-277599D01*
X182533Y-277668D01*
X182538Y-277721D01*
Y-277742D01*
Y-277757D01*
Y-277763D01*
Y-277768D01*
X182533Y-277889D01*
X182512Y-278001D01*
X182480Y-278096D01*
X182449Y-278175D01*
X182412Y-278238D01*
X182385Y-278286D01*
X182364Y-278312D01*
X182353Y-278323D01*
X182280Y-278391D01*
X182200Y-278450D01*
X182121Y-278497D01*
X182042Y-278529D01*
X181978Y-278555D01*
X181920Y-278571D01*
X181899Y-278576D01*
X181889D01*
X181878Y-278582D01*
X181873D01*
X181831Y-278587D01*
X181778Y-278592D01*
X181720Y-278598D01*
X181651Y-278603D01*
X181503Y-278608D01*
X181355Y-278613D01*
X181281D01*
X181207Y-278619D01*
X179760D01*
Y-276880D01*
X180980D01*
X181122Y-276886D01*
D02*
G37*
G36*
X193121Y-278053D02*
Y-278175D01*
Y-278281D01*
X193126Y-278381D01*
Y-278471D01*
X193131Y-278555D01*
Y-278624D01*
X193137Y-278687D01*
X193142Y-278745D01*
Y-278793D01*
X193147Y-278830D01*
Y-278867D01*
X193152Y-278893D01*
Y-278909D01*
X193158Y-278925D01*
Y-278930D01*
Y-278936D01*
X193179Y-279047D01*
X193205Y-279142D01*
X193232Y-279226D01*
X193263Y-279295D01*
X193290Y-279348D01*
X193311Y-279390D01*
X193327Y-279411D01*
X193332Y-279422D01*
X193385Y-279485D01*
X193448Y-279543D01*
X193512Y-279591D01*
X193580Y-279633D01*
X193638Y-279670D01*
X193686Y-279691D01*
X193718Y-279707D01*
X193723Y-279712D01*
X193728D01*
X193834Y-279749D01*
X193940Y-279776D01*
X194040Y-279797D01*
X194135Y-279807D01*
X194214Y-279818D01*
X194251D01*
X194278Y-279823D01*
X192550D01*
Y-275998D01*
X193121D01*
Y-278053D01*
D02*
G37*
G36*
X190099D02*
Y-278175D01*
Y-278281D01*
X190104Y-278381D01*
Y-278471D01*
X190109Y-278555D01*
Y-278624D01*
X190115Y-278687D01*
X190120Y-278745D01*
Y-278793D01*
X190125Y-278830D01*
Y-278867D01*
X190130Y-278893D01*
Y-278909D01*
X190136Y-278925D01*
Y-278930D01*
Y-278936D01*
X190157Y-279047D01*
X190183Y-279142D01*
X190210Y-279226D01*
X190241Y-279295D01*
X190268Y-279348D01*
X190289Y-279390D01*
X190305Y-279411D01*
X190310Y-279422D01*
X190363Y-279485D01*
X190426Y-279543D01*
X190490Y-279591D01*
X190558Y-279633D01*
X190616Y-279670D01*
X190664Y-279691D01*
X190696Y-279707D01*
X190701Y-279712D01*
X190706D01*
X190812Y-279749D01*
X190918Y-279776D01*
X191018Y-279797D01*
X191113Y-279807D01*
X191192Y-279818D01*
X191229D01*
X191256Y-279823D01*
X189528D01*
Y-275998D01*
X190099D01*
Y-278053D01*
D02*
G37*
G36*
X203201Y-274904D02*
X203101Y-274920D01*
X203011Y-274947D01*
X202932Y-274973D01*
X202863Y-275005D01*
X202815Y-275026D01*
X202784Y-275047D01*
X202778Y-275053D01*
X202773D01*
X202726Y-275084D01*
X202683Y-275121D01*
X202636Y-275163D01*
X202588Y-275211D01*
X202498Y-275317D01*
X202419Y-275417D01*
X202345Y-275517D01*
X202313Y-275560D01*
X202287Y-275597D01*
X202266Y-275628D01*
X202255Y-275655D01*
X202245Y-275671D01*
X202239Y-275676D01*
Y-275005D01*
X201082D01*
Y-274899D01*
X203312D01*
X203201Y-274904D01*
D02*
G37*
G36*
X206535Y-278354D02*
X205409Y-275005D01*
X207639D01*
X206535Y-278354D01*
D02*
G37*
%LPC*%
G36*
X7874Y293347D02*
Y290462D01*
X-233D01*
Y293347D01*
X7874D01*
X-1882D01*
Y285604D01*
X-233D01*
Y288497D01*
X7874D01*
Y285604D01*
D01*
Y293347D01*
D02*
G37*
G36*
X8040Y284756D02*
X3119D01*
D01*
X8040D01*
D02*
G37*
G36*
X3119D02*
X3016D01*
X2580Y284740D01*
X2176Y284701D01*
X1787Y284637D01*
X1431Y284550D01*
X1098Y284455D01*
X797Y284344D01*
X520Y284225D01*
X266Y284106D01*
X44Y283988D01*
X-154Y283869D01*
X-320Y283758D01*
X-455Y283663D01*
X-558Y283575D01*
X-637Y283512D01*
X-685Y283472D01*
X-701Y283457D01*
X-939Y283203D01*
X-1145Y282941D01*
X-1319Y282656D01*
X-1478Y282371D01*
X-1604Y282086D01*
X-1715Y281800D01*
X-1802Y281515D01*
X-1874Y281246D01*
X-1929Y280992D01*
X-1969Y280762D01*
X-2001Y280548D01*
X-2008Y280453D01*
X-2016Y280366D01*
X-2024Y280287D01*
X-2032Y280215D01*
Y280152D01*
X-2040Y280104D01*
Y275302D01*
Y280009D01*
X-2032Y279787D01*
X-2024Y279581D01*
X-2008Y279375D01*
X-1977Y279177D01*
X-1953Y278995D01*
X-1921Y278821D01*
X-1882Y278662D01*
X-1850Y278512D01*
X-1810Y278377D01*
X-1779Y278258D01*
X-1739Y278155D01*
X-1715Y278068D01*
X-1691Y278004D01*
X-1668Y277949D01*
X-1660Y277917D01*
X-1652Y277909D01*
X-1533Y277664D01*
X-1398Y277426D01*
X-1248Y277212D01*
X-1176Y277117D01*
X-1105Y277022D01*
X-1042Y276942D01*
X-978Y276871D01*
X-923Y276808D01*
X-867Y276752D01*
X-828Y276705D01*
X-796Y276673D01*
X-780Y276657D01*
X-772Y276649D01*
X-542Y276443D01*
X-313Y276269D01*
X-91Y276110D01*
X123Y275984D01*
X211Y275928D01*
X298Y275881D01*
X377Y275841D01*
X440Y275809D01*
X496Y275777D01*
X535Y275762D01*
X559Y275754D01*
X567Y275746D01*
X757Y275667D01*
X963Y275603D01*
X1169Y275540D01*
X1383Y275492D01*
X1795Y275413D01*
X2001Y275381D01*
X2192Y275357D01*
X2374Y275342D01*
X2540Y275326D01*
X2683Y275318D01*
X2818Y275310D01*
X2921Y275302D01*
X-2040D01*
X8040D01*
X3063D01*
X3491Y275318D01*
X3888Y275357D01*
X4268Y275421D01*
X4617Y275500D01*
X4942Y275595D01*
X5243Y275706D01*
X5520Y275825D01*
X5766Y275944D01*
X5980Y276063D01*
X6178Y276174D01*
X6336Y276285D01*
X6471Y276380D01*
X6582Y276459D01*
X6653Y276522D01*
X6701Y276562D01*
X6717Y276578D01*
X6946Y276831D01*
X7153Y277093D01*
X7327Y277378D01*
X7485Y277664D01*
X7612Y277949D01*
X7715Y278234D01*
X7802Y278519D01*
X7874Y278789D01*
X7929Y279050D01*
X7969Y279280D01*
X8001Y279494D01*
X8008Y279589D01*
X8016Y279684D01*
X8024Y279764D01*
X8032Y279835D01*
Y279890D01*
X8040Y279946D01*
Y280041D01*
X8024Y280437D01*
X7985Y280802D01*
X7913Y281158D01*
X7834Y281483D01*
X7731Y281792D01*
X7620Y282070D01*
X7501Y282331D01*
X7375Y282561D01*
X7248Y282767D01*
X7129Y282949D01*
X7018Y283108D01*
X6915Y283235D01*
X6828Y283338D01*
X6764Y283417D01*
X6725Y283457D01*
X6709Y283472D01*
X6447Y283702D01*
X6170Y283900D01*
X5877Y284067D01*
X5568Y284217D01*
X5259Y284336D01*
X4957Y284439D01*
X4656Y284526D01*
X4363Y284598D01*
X4086Y284645D01*
X3832Y284685D01*
X3602Y284717D01*
X3499Y284725D01*
X3404Y284740D01*
X3317D01*
X3246Y284748D01*
X3174D01*
X3119Y284756D01*
D02*
G37*
G36*
Y274161D02*
X3016D01*
X2580Y274145D01*
X2176Y274105D01*
X1787Y274042D01*
X1431Y273955D01*
X1098Y273860D01*
X797Y273749D01*
X520Y273630D01*
X266Y273511D01*
X44Y273392D01*
X-154Y273273D01*
X-320Y273162D01*
X-455Y273067D01*
X-558Y272980D01*
X-637Y272917D01*
X-685Y272877D01*
X-701Y272861D01*
X-939Y272607D01*
X-1145Y272346D01*
X-1319Y272061D01*
X-1478Y271775D01*
X-1604Y271490D01*
X-1715Y271205D01*
X-1802Y270919D01*
X-1874Y270650D01*
X-1929Y270396D01*
X-1969Y270167D01*
X-2001Y269953D01*
X-2008Y269858D01*
X-2016Y269771D01*
X-2024Y269691D01*
X-2032Y269620D01*
Y269557D01*
X-2040Y269509D01*
Y264706D01*
Y269414D01*
X-2032Y269192D01*
X-2024Y268986D01*
X-2008Y268780D01*
X-1977Y268582D01*
X-1953Y268400D01*
X-1921Y268225D01*
X-1882Y268067D01*
X-1850Y267916D01*
X-1810Y267781D01*
X-1779Y267663D01*
X-1739Y267559D01*
X-1715Y267472D01*
X-1691Y267409D01*
X-1668Y267353D01*
X-1660Y267322D01*
X-1652Y267314D01*
X-1533Y267068D01*
X-1398Y266830D01*
X-1248Y266616D01*
X-1176Y266521D01*
X-1105Y266426D01*
X-1042Y266347D01*
X-978Y266276D01*
X-923Y266212D01*
X-867Y266157D01*
X-828Y266109D01*
X-796Y266077D01*
X-780Y266062D01*
X-772Y266054D01*
X-542Y265848D01*
X-313Y265673D01*
X-91Y265515D01*
X123Y265388D01*
X211Y265333D01*
X298Y265285D01*
X377Y265245D01*
X440Y265214D01*
X496Y265182D01*
X535Y265166D01*
X559Y265158D01*
X567Y265150D01*
X757Y265071D01*
X963Y265008D01*
X1169Y264944D01*
X1383Y264897D01*
X1795Y264818D01*
X2001Y264786D01*
X2192Y264762D01*
X2374Y264746D01*
X2540Y264730D01*
X2683Y264722D01*
X2818Y264714D01*
X2921Y264706D01*
X-2040D01*
X8040D01*
X3063D01*
X3491Y264722D01*
X3888Y264762D01*
X4268Y264825D01*
X4617Y264905D01*
X4942Y265000D01*
X5243Y265111D01*
X5520Y265229D01*
X5766Y265348D01*
X5980Y265467D01*
X6178Y265578D01*
X6336Y265689D01*
X6471Y265784D01*
X6582Y265863D01*
X6653Y265927D01*
X6701Y265966D01*
X6717Y265982D01*
X6946Y266236D01*
X7153Y266497D01*
X7327Y266783D01*
X7485Y267068D01*
X7612Y267353D01*
X7715Y267639D01*
X7802Y267924D01*
X7874Y268193D01*
X7929Y268455D01*
X7969Y268685D01*
X8001Y268899D01*
X8008Y268994D01*
X8016Y269089D01*
X8024Y269168D01*
X8032Y269240D01*
Y269295D01*
X8040Y269350D01*
Y269445D01*
X8024Y269842D01*
X7985Y270206D01*
X7913Y270563D01*
X7834Y270888D01*
X7731Y271197D01*
X7620Y271474D01*
X7501Y271736D01*
X7375Y271966D01*
X7248Y272172D01*
X7129Y272354D01*
X7018Y272512D01*
X6915Y272639D01*
X6828Y272742D01*
X6764Y272822D01*
X6725Y272861D01*
X6709Y272877D01*
X6447Y273107D01*
X6170Y273305D01*
X5877Y273471D01*
X5568Y273622D01*
X5259Y273741D01*
X4957Y273844D01*
X4656Y273931D01*
X4363Y274002D01*
X4086Y274050D01*
X3832Y274090D01*
X3602Y274121D01*
X3499Y274129D01*
X3404Y274145D01*
X3317D01*
X3246Y274153D01*
X3174D01*
X3119Y274161D01*
D02*
G37*
G36*
X5108Y263438D02*
X5045D01*
X4886Y263431D01*
X4743Y263415D01*
X4601Y263391D01*
X4458Y263367D01*
X4331Y263328D01*
X4212Y263288D01*
X4101Y263240D01*
X3999Y263201D01*
X3903Y263153D01*
X3824Y263106D01*
X3753Y263066D01*
X3690Y263034D01*
X3642Y263003D01*
X3610Y262979D01*
X3586Y262963D01*
X3578Y262955D01*
X3468Y262860D01*
X3357Y262757D01*
X3262Y262654D01*
X3174Y262543D01*
X3095Y262432D01*
X3024Y262313D01*
X2897Y262099D01*
X2849Y261996D01*
X2810Y261901D01*
X2770Y261814D01*
X2738Y261735D01*
X2723Y261679D01*
X2707Y261632D01*
X2691Y261600D01*
Y261592D01*
X2572Y261814D01*
X2437Y262012D01*
X2295Y262186D01*
X2152Y262329D01*
X2033Y262440D01*
X1978Y262488D01*
X1930Y262527D01*
X1891Y262551D01*
X1859Y262575D01*
X1843Y262583D01*
X1835Y262591D01*
X1724Y262654D01*
X1613Y262717D01*
X1391Y262805D01*
X1185Y262876D01*
X987Y262915D01*
X900Y262931D01*
X821Y262947D01*
X749Y262955D01*
X694D01*
X638Y262963D01*
X607D01*
X583D01*
X575D01*
X345Y262947D01*
X131Y262915D01*
X-67Y262868D01*
X-233Y262812D01*
X-305Y262781D01*
X-376Y262757D01*
X-431Y262733D01*
X-479Y262710D01*
X-519Y262694D01*
X-542Y262678D01*
X-558Y262662D01*
X-566D01*
X-748Y262543D01*
X-907Y262416D01*
X-1042Y262289D01*
X-1160Y262171D01*
X-1256Y262068D01*
X-1319Y261988D01*
X-1343Y261957D01*
X-1359Y261933D01*
X-1374Y261917D01*
Y261909D01*
X-1478Y261735D01*
X-1565Y261560D01*
X-1636Y261394D01*
X-1691Y261235D01*
X-1731Y261101D01*
X-1747Y261037D01*
X-1763Y260990D01*
X-1771Y260950D01*
Y260919D01*
X-1779Y260903D01*
Y260895D01*
X-1795Y260784D01*
X-1810Y260657D01*
X-1826Y260522D01*
X-1842Y260387D01*
X-1858Y260094D01*
X-1866Y259817D01*
X-1874Y259682D01*
Y259563D01*
X-1882Y259452D01*
Y255276D01*
X7874D01*
Y258921D01*
X7866Y259230D01*
Y259508D01*
X7858Y259753D01*
Y259967D01*
X7850Y260166D01*
X7842Y260332D01*
Y260475D01*
X7834Y260602D01*
X7826Y260704D01*
Y260784D01*
X7818Y260855D01*
Y260903D01*
X7810Y260934D01*
Y260958D01*
X7763Y261243D01*
X7699Y261497D01*
X7668Y261616D01*
X7628Y261719D01*
X7588Y261822D01*
X7549Y261917D01*
X7509Y261996D01*
X7470Y262068D01*
X7438Y262131D01*
X7406Y262186D01*
X7382Y262226D01*
X7367Y262258D01*
X7351Y262274D01*
Y262281D01*
X7200Y262472D01*
X7034Y262638D01*
X6867Y262789D01*
X6701Y262908D01*
X6558Y263003D01*
X6503Y263042D01*
X6447Y263074D01*
X6408Y263098D01*
X6368Y263114D01*
X6352Y263130D01*
X6344D01*
X6107Y263232D01*
X5877Y263312D01*
X5655Y263367D01*
X5457Y263399D01*
X5369Y263415D01*
X5290Y263423D01*
X5219Y263431D01*
X5156D01*
X5108Y263438D01*
D02*
G37*
%LPD*%
G36*
X3277Y282720D02*
X3563Y282696D01*
X3832Y282656D01*
X4078Y282609D01*
X4308Y282553D01*
X4522Y282490D01*
X4704Y282418D01*
X4878Y282347D01*
X5029Y282276D01*
X5156Y282204D01*
X5267Y282141D01*
X5354Y282086D01*
X5425Y282038D01*
X5472Y281998D01*
X5504Y281975D01*
X5512Y281967D01*
X5663Y281824D01*
X5789Y281666D01*
X5908Y281507D01*
X6004Y281349D01*
X6083Y281182D01*
X6154Y281024D01*
X6209Y280865D01*
X6257Y280715D01*
X6289Y280580D01*
X6313Y280445D01*
X6336Y280326D01*
X6344Y280231D01*
X6352Y280144D01*
X6360Y280089D01*
Y280033D01*
X6352Y279819D01*
X6320Y279613D01*
X6281Y279415D01*
X6225Y279233D01*
X6162Y279066D01*
X6091Y278900D01*
X6011Y278757D01*
X5932Y278622D01*
X5853Y278504D01*
X5782Y278401D01*
X5710Y278305D01*
X5647Y278234D01*
X5591Y278171D01*
X5552Y278123D01*
X5520Y278099D01*
X5512Y278092D01*
X5346Y277957D01*
X5156Y277838D01*
X4965Y277743D01*
X4759Y277656D01*
X4553Y277576D01*
X4339Y277513D01*
X4133Y277465D01*
X3935Y277426D01*
X3745Y277394D01*
X3571Y277370D01*
X3412Y277355D01*
X3269Y277347D01*
X3158Y277339D01*
X3071Y277331D01*
X3040D01*
X3016D01*
X3008D01*
X3000D01*
X2691Y277339D01*
X2406Y277362D01*
X2144Y277402D01*
X1891Y277450D01*
X1669Y277505D01*
X1463Y277568D01*
X1272Y277632D01*
X1106Y277703D01*
X963Y277775D01*
X829Y277838D01*
X726Y277901D01*
X638Y277957D01*
X567Y278004D01*
X520Y278044D01*
X488Y278068D01*
X480Y278076D01*
X329Y278218D01*
X203Y278377D01*
X92Y278535D01*
X-3Y278694D01*
X-91Y278860D01*
X-154Y279019D01*
X-210Y279185D01*
X-257Y279336D01*
X-289Y279478D01*
X-313Y279613D01*
X-336Y279732D01*
X-344Y279835D01*
X-352Y279914D01*
X-360Y279978D01*
Y280033D01*
X-352Y280255D01*
X-328Y280469D01*
X-281Y280667D01*
X-233Y280857D01*
X-170Y281032D01*
X-99Y281190D01*
X-19Y281333D01*
X52Y281467D01*
X131Y281586D01*
X211Y281689D01*
X282Y281784D01*
X345Y281856D01*
X393Y281911D01*
X432Y281959D01*
X464Y281983D01*
X472Y281991D01*
X638Y282117D01*
X813Y282236D01*
X1011Y282331D01*
X1209Y282418D01*
X1415Y282490D01*
X1621Y282545D01*
X1827Y282593D01*
X2025Y282632D01*
X2215Y282664D01*
X2398Y282688D01*
X2556Y282704D01*
X2691Y282720D01*
X2810D01*
X2857Y282728D01*
X2897D01*
X2929D01*
X2952D01*
X2960D01*
X2968D01*
X3277Y282720D01*
D02*
G37*
G36*
Y272124D02*
X3563Y272100D01*
X3832Y272061D01*
X4078Y272013D01*
X4308Y271958D01*
X4522Y271894D01*
X4704Y271823D01*
X4878Y271752D01*
X5029Y271680D01*
X5156Y271609D01*
X5267Y271546D01*
X5354Y271490D01*
X5425Y271443D01*
X5472Y271403D01*
X5504Y271379D01*
X5512Y271371D01*
X5663Y271229D01*
X5789Y271070D01*
X5908Y270912D01*
X6004Y270753D01*
X6083Y270587D01*
X6154Y270428D01*
X6209Y270270D01*
X6257Y270119D01*
X6289Y269984D01*
X6313Y269850D01*
X6336Y269731D01*
X6344Y269636D01*
X6352Y269549D01*
X6360Y269493D01*
Y269438D01*
X6352Y269224D01*
X6320Y269018D01*
X6281Y268820D01*
X6225Y268637D01*
X6162Y268471D01*
X6091Y268304D01*
X6011Y268162D01*
X5932Y268027D01*
X5853Y267908D01*
X5782Y267805D01*
X5710Y267710D01*
X5647Y267639D01*
X5591Y267575D01*
X5552Y267528D01*
X5520Y267504D01*
X5512Y267496D01*
X5346Y267361D01*
X5156Y267242D01*
X4965Y267147D01*
X4759Y267060D01*
X4553Y266981D01*
X4339Y266917D01*
X4133Y266870D01*
X3935Y266830D01*
X3745Y266799D01*
X3571Y266775D01*
X3412Y266759D01*
X3269Y266751D01*
X3158Y266743D01*
X3071Y266735D01*
X3040D01*
X3016D01*
X3008D01*
X3000D01*
X2691Y266743D01*
X2406Y266767D01*
X2144Y266807D01*
X1891Y266854D01*
X1669Y266910D01*
X1463Y266973D01*
X1272Y267036D01*
X1106Y267108D01*
X963Y267179D01*
X829Y267242D01*
X726Y267306D01*
X638Y267361D01*
X567Y267409D01*
X520Y267449D01*
X488Y267472D01*
X480Y267480D01*
X329Y267623D01*
X203Y267781D01*
X92Y267940D01*
X-3Y268098D01*
X-91Y268265D01*
X-154Y268423D01*
X-210Y268590D01*
X-257Y268740D01*
X-289Y268883D01*
X-313Y269018D01*
X-336Y269137D01*
X-344Y269240D01*
X-352Y269319D01*
X-360Y269382D01*
Y269438D01*
X-352Y269660D01*
X-328Y269874D01*
X-281Y270072D01*
X-233Y270262D01*
X-170Y270436D01*
X-99Y270595D01*
X-19Y270737D01*
X52Y270872D01*
X131Y270991D01*
X211Y271094D01*
X282Y271189D01*
X345Y271260D01*
X393Y271316D01*
X432Y271363D01*
X464Y271387D01*
X472Y271395D01*
X638Y271522D01*
X813Y271641D01*
X1011Y271736D01*
X1209Y271823D01*
X1415Y271894D01*
X1621Y271950D01*
X1827Y271997D01*
X2025Y272037D01*
X2215Y272069D01*
X2398Y272092D01*
X2556Y272108D01*
X2691Y272124D01*
X2810D01*
X2857Y272132D01*
X2897D01*
X2929D01*
X2952D01*
X2960D01*
X2968D01*
X3277Y272124D01*
D02*
G37*
G36*
X5132Y261402D02*
X5298Y261370D01*
X5441Y261323D01*
X5560Y261275D01*
X5655Y261220D01*
X5726Y261180D01*
X5766Y261148D01*
X5782Y261132D01*
X5885Y261021D01*
X5972Y260903D01*
X6043Y260784D01*
X6091Y260665D01*
X6130Y260570D01*
X6154Y260483D01*
X6162Y260451D01*
Y260435D01*
X6170Y260419D01*
Y260411D01*
X6178Y260348D01*
X6186Y260269D01*
X6194Y260181D01*
X6202Y260078D01*
X6209Y259856D01*
X6217Y259635D01*
Y259524D01*
X6225Y259413D01*
Y257241D01*
X3618D01*
Y259072D01*
X3626Y259286D01*
X3634Y259492D01*
X3642Y259666D01*
X3650Y259833D01*
X3666Y259975D01*
X3674Y260102D01*
X3690Y260205D01*
X3705Y260300D01*
X3713Y260380D01*
X3729Y260443D01*
X3737Y260490D01*
X3745Y260530D01*
X3753Y260562D01*
X3761Y260570D01*
Y260578D01*
X3824Y260720D01*
X3888Y260847D01*
X3967Y260950D01*
X4038Y261037D01*
X4110Y261109D01*
X4165Y261156D01*
X4197Y261188D01*
X4212Y261196D01*
X4331Y261267D01*
X4458Y261323D01*
X4577Y261354D01*
X4696Y261386D01*
X4799Y261402D01*
X4878Y261410D01*
X4910D01*
X4934D01*
X4942D01*
X4949D01*
X5132Y261402D01*
D02*
G37*
G36*
X1019Y261029D02*
X1169Y260998D01*
X1304Y260950D01*
X1415Y260903D01*
X1502Y260847D01*
X1566Y260800D01*
X1605Y260768D01*
X1621Y260752D01*
X1716Y260633D01*
X1795Y260506D01*
X1851Y260380D01*
X1898Y260253D01*
X1930Y260134D01*
X1946Y260047D01*
X1954Y260007D01*
X1962Y259983D01*
Y259960D01*
X1970Y259896D01*
Y259817D01*
X1978Y259722D01*
Y259619D01*
X1986Y259500D01*
Y259135D01*
X1993Y259016D01*
Y257241D01*
X-257D01*
Y259040D01*
X-249Y259215D01*
Y259373D01*
X-241Y259508D01*
Y259730D01*
X-233Y259817D01*
Y259880D01*
X-225Y259936D01*
Y259983D01*
X-217Y260015D01*
Y260047D01*
X-186Y260221D01*
X-138Y260372D01*
X-83Y260498D01*
X-27Y260609D01*
X28Y260689D01*
X76Y260744D01*
X107Y260784D01*
X123Y260792D01*
X234Y260879D01*
X353Y260942D01*
X472Y260982D01*
X591Y261014D01*
X694Y261029D01*
X781Y261045D01*
X805D01*
X829D01*
X844D01*
X852D01*
X1019Y261029D01*
D02*
G37*
G54D10*
X-78214Y168750D02*
X-80214D01*
X-78214D01*
X286000Y-426500D02*
X284000D01*
X286000D01*
X-239000Y-406000D02*
X-241000D01*
X-239000D01*
X31380Y49753D02*
X30192Y51810D01*
X27817D01*
X26630Y49753D01*
X152250Y-152875D02*
X154307Y-151687D01*
Y-149312D01*
X152250Y-148125D01*
X-157349Y202500D02*
X-159151D01*
X-157349D01*
X157400Y138000D02*
X155400D01*
X157400D01*
X54750Y182500D02*
X65250D01*
X54750Y167500D02*
X65250D01*
X225300Y253600D02*
Y274000D01*
Y253600D02*
X230300Y251100D01*
X250700Y253600D02*
Y274000D01*
X225300D02*
X230300Y276500D01*
X245700Y251100D02*
X250700Y253600D01*
X245700Y276500D02*
X250700Y274000D01*
X245700Y251100D02*
X250700Y248600D01*
X225300Y223200D02*
X230300Y225700D01*
X250700Y202800D02*
Y223200D01*
X245700Y225700D02*
X250700Y228200D01*
X225300Y202800D02*
X230300Y200300D01*
X225300Y248600D02*
X230300Y251100D01*
X250700Y228200D02*
Y248600D01*
X225300Y228200D02*
X230300Y225700D01*
X245700D02*
X250700Y223200D01*
X225300Y202800D02*
Y223200D01*
X245700Y200300D02*
X250700Y202800D01*
X230300Y200300D02*
X245700D01*
X225300Y228200D02*
Y248600D01*
X245700Y301900D02*
X250700Y299400D01*
X245700Y276500D02*
X250700Y279000D01*
X225300Y299400D02*
X230300Y301900D01*
X250700Y279000D02*
Y299400D01*
X225300Y279000D02*
X230300Y276500D01*
X225300Y279000D02*
Y299400D01*
Y304400D02*
Y324800D01*
Y304400D02*
X230300Y301900D01*
X250700Y304400D02*
Y324800D01*
X225300D02*
X230300Y327300D01*
X245700Y301900D02*
X250700Y304400D01*
X245700Y327300D02*
X250700Y324800D01*
X225300Y329800D02*
Y350200D01*
Y329800D02*
X230300Y327300D01*
X250700Y329800D02*
Y350200D01*
X225300D02*
X230300Y352700D01*
X245700Y327300D02*
X250700Y329800D01*
X230300Y352700D02*
X245700D01*
X250700Y350200D01*
X237100Y-130650D02*
X251900D01*
X277400D02*
X291400D01*
Y-33350D01*
X237100D02*
X251900D01*
X277400D02*
X291400D01*
X-40000Y199000D02*
Y241000D01*
X-6000Y199000D02*
Y241000D01*
X29155Y49753D02*
Y78253D01*
X28855D02*
X29155D01*
X28855Y49753D02*
Y78253D01*
X26630Y49753D02*
X28855D01*
X29155D02*
X31380D01*
X152250Y-152875D02*
Y-150650D01*
Y-150350D02*
Y-148125D01*
Y-150350D02*
X180750D01*
Y-150650D02*
Y-150350D01*
X152250Y-150650D02*
X180750D01*
X166000Y3000D02*
Y11000D01*
X175000D01*
X166000Y-19000D02*
Y-11000D01*
Y-19000D02*
X175000D01*
X206000Y0D02*
X216000D01*
X207000Y-7000D02*
X211000Y0D01*
X216000Y-7000D01*
X207000D02*
X216000D01*
X211000Y0D02*
Y2000D01*
Y-10000D02*
Y-7000D01*
X-104000Y71500D02*
X-101000Y79000D01*
X-107000D02*
X-104000Y71500D01*
X-107000Y79000D02*
X-101000D01*
X-170000Y49375D02*
X-150000D01*
Y102625D01*
X-170000D02*
X-150000D01*
X-170000Y49375D02*
Y102625D01*
X224250Y-188250D02*
X241750D01*
Y-155750D01*
X224250D02*
X241750D01*
X224250Y-188250D02*
Y-155750D01*
X-53500Y-182500D02*
Y-178750D01*
X-57250Y-182500D02*
X-53500D01*
X-96500D02*
X-92750D01*
X-96500D02*
Y-178750D01*
Y-143250D02*
Y-139500D01*
X-92750D01*
X-53500Y-143250D02*
Y-139500D01*
X-57250D02*
X-53500D01*
X-160600Y171000D02*
X-153500D01*
Y174500D01*
X-160600Y199000D02*
X-153500D01*
Y195500D02*
Y199000D01*
X-183000Y171000D02*
X-175900D01*
X-183000Y199000D02*
X-175900D01*
X-183000Y171000D02*
Y174500D01*
Y195500D02*
Y199000D01*
X196750Y116750D02*
X221250D01*
Y149250D01*
X196750D02*
X221250D01*
X196750Y116750D02*
Y149250D01*
X-46000Y-122750D02*
Y-105250D01*
X-78250D02*
X-46000D01*
X-78250Y-122750D02*
Y-105250D01*
Y-122750D02*
X-46000D01*
X-182000Y346500D02*
X-98000D01*
X-191000Y286500D02*
X-180000D01*
X-191000Y271500D02*
Y286500D01*
X-200000Y271500D02*
X-191000D01*
X-200000D02*
Y310500D01*
X-100000Y286500D02*
X-89000D01*
Y271500D02*
Y286500D01*
Y271500D02*
X-80000D01*
Y310500D01*
X211000Y-282000D02*
X250000D01*
X211000D02*
Y-273000D01*
X226000D01*
Y-262000D01*
X211000Y-202000D02*
X250000D01*
X211000Y-211000D02*
Y-202000D01*
Y-211000D02*
X226000D01*
Y-222000D02*
Y-211000D01*
X286000Y-264000D02*
Y-220000D01*
X-57750Y-216000D02*
X-57000D01*
X-83500D02*
X-82750D01*
X-83500Y-201500D02*
Y-197500D01*
Y-216000D02*
Y-212000D01*
Y-197500D02*
X-82750D01*
X-57000Y-216000D02*
Y-212000D01*
X190000Y-257000D02*
Y-213000D01*
X166000D02*
X190000D01*
X166000Y-257000D02*
Y-213000D01*
Y-257000D02*
X190000D01*
X113000Y211500D02*
X168000D01*
Y366000D01*
X14000D02*
X168000D01*
X14000Y211500D02*
Y366000D01*
Y211500D02*
X113000D01*
X180250Y179625D02*
Y197625D01*
X214250D01*
Y179625D02*
Y197625D01*
X180250Y179625D02*
X214250D01*
X153000Y13000D02*
Y31000D01*
X187000D01*
Y13000D02*
Y31000D01*
X153000Y13000D02*
X187000D01*
X153000Y31000D02*
Y49000D01*
X187000D01*
Y31000D02*
Y49000D01*
X153000Y31000D02*
X187000D01*
X153000Y49000D02*
Y67000D01*
X187000D01*
Y49000D02*
Y67000D01*
X153000Y49000D02*
X187000D01*
X230000Y135000D02*
Y169000D01*
Y135000D02*
X248000D01*
Y169000D01*
X230000D02*
X248000D01*
X236000Y45000D02*
Y79000D01*
X218000D02*
X236000D01*
X218000Y45000D02*
Y79000D01*
Y45000D02*
X236000D01*
X-3000Y327000D02*
Y361000D01*
X-21000D02*
X-3000D01*
X-21000Y327000D02*
Y361000D01*
Y327000D02*
X-3000D01*
X-21000D02*
Y361000D01*
X-39000D02*
X-21000D01*
X-39000Y327000D02*
Y361000D01*
Y327000D02*
X-21000D01*
X-144000Y-5000D02*
X-126000D01*
Y-39000D02*
Y-5000D01*
X-144000Y-39000D02*
X-126000D01*
X-144000D02*
Y-5000D01*
Y222000D02*
Y240000D01*
X-178000Y222000D02*
X-144000D01*
X-178000D02*
Y240000D01*
X-144000D01*
X193000Y235000D02*
Y244000D01*
X201000D01*
X223000Y235000D02*
Y244000D01*
X215000D02*
X223000D01*
X193000Y289000D02*
Y298000D01*
X201000D01*
X223000Y289000D02*
Y298000D01*
X215000D02*
X223000D01*
X-6000Y266000D02*
Y308000D01*
X-40000Y266000D02*
Y308000D01*
X51313Y-120001D02*
X69313D01*
X51313D02*
Y-86001D01*
X69313D01*
Y-120001D02*
Y-86001D01*
X80813Y-168501D02*
Y-164751D01*
X77063Y-168501D02*
X80813D01*
X37813D02*
X41563D01*
X37813D02*
Y-164751D01*
Y-129251D02*
Y-125501D01*
X41563D01*
X80813Y-129251D02*
Y-125501D01*
X77063D02*
X80813D01*
X10563Y-110001D02*
X28063D01*
X10563Y-142251D02*
Y-110001D01*
Y-142251D02*
X28063D01*
Y-110001D01*
X-112000Y-97000D02*
X-78000D01*
X-112000Y-115000D02*
Y-97000D01*
Y-115000D02*
X-78000D01*
Y-97000D01*
X-190000Y-269000D02*
Y-235000D01*
Y-269000D02*
X-172000D01*
Y-235000D01*
X-190000D02*
X-172000D01*
X214250Y68735D02*
Y86735D01*
X180250Y68735D02*
X214250D01*
X180250D02*
Y86735D01*
X214250D01*
Y86735D02*
Y104735D01*
X180250Y86735D02*
X214250D01*
X180250D02*
Y104735D01*
X214250D01*
X180250Y161625D02*
Y179625D01*
X214250D01*
Y161625D02*
Y179625D01*
X180250Y161625D02*
X214250D01*
G54D11*
X207100Y-114650D02*
X205225Y-113567D01*
Y-115732D01*
X207100Y-114650D01*
X-45750Y-181000D02*
X-47625Y-179918D01*
Y-182083D01*
X-45750Y-181000D01*
X-55750Y-199500D02*
X-57625Y-198417D01*
Y-200583D01*
X-55750Y-199500D01*
X88563Y-167001D02*
X86688Y-165918D01*
Y-168083D01*
X88563Y-167001D01*
G54D12*
X-42000Y200000D02*
X-44000D01*
X-42000D01*
X-64750Y-232750D02*
X-66750D01*
X-64750D01*
X-24586Y-176000D02*
X-26707Y-174775D01*
Y-177225D01*
X-24586Y-176000D01*
X57417Y-205501D02*
X55417D01*
X57417D01*
Y-173751D02*
X55417D01*
X57417D01*
X-2000Y307000D02*
X-4000D01*
X-2000D01*
X107727Y-145001D02*
X105606Y-143776D01*
Y-146226D01*
X107727Y-145001D01*
X-82184Y167220D02*
Y202780D01*
X-117744Y167220D02*
X-82184D01*
X-117744Y202780D02*
X-82184D01*
X-117744Y167220D02*
Y202780D01*
X-12000Y-255500D02*
Y-62500D01*
X145000Y-255500D02*
Y-62500D01*
X-12000D02*
X145000D01*
X-12000Y-255500D02*
X145000D01*
X-170000Y-255500D02*
Y-62500D01*
X-13000Y-255500D02*
Y-62500D01*
X-170000D02*
X-13000D01*
X-170000Y-255500D02*
X-13000D01*
G54D13*
X36504Y46503D02*
X34505D01*
X36504D01*
X150000Y-157000D02*
X148000D01*
X150000D01*
X-126000Y87125D02*
X-126095Y89666D01*
X-126380Y92192D01*
X-126853Y94691D01*
X-127510Y97147D01*
X-128350Y99547D01*
X-129367Y101877D01*
X-130555Y104125D01*
X-131908Y106278D01*
X-133418Y108324D01*
X-135076Y110251D01*
X-136874Y112049D01*
X-138801Y113707D01*
X-140847Y115217D01*
X-143000Y116570D01*
X-145248Y117758D01*
X-147578Y118775D01*
X-149978Y119614D01*
X-152434Y120273D01*
X-154933Y120745D01*
X-157459Y121030D01*
X-160000Y121125D01*
X-162541Y121030D01*
X-165068Y120745D01*
X-167566Y120273D01*
X-170022Y119614D01*
X-172422Y118775D01*
X-174752Y117758D01*
X-177000Y116570D01*
X-179153Y115217D01*
X-181199Y113707D01*
X-183126Y112049D01*
X-184924Y110251D01*
X-186582Y108324D01*
X-188092Y106278D01*
X-189445Y104125D01*
X-190633Y101877D01*
X-191650Y99547D01*
X-192489Y97147D01*
X-193148Y94691D01*
X-193620Y92192D01*
X-193905Y89666D01*
X-194000Y87125D01*
X-193905Y84584D01*
X-193620Y82058D01*
X-193148Y79559D01*
X-192489Y77103D01*
X-191650Y74703D01*
X-190633Y72373D01*
X-189445Y70125D01*
X-188092Y67972D01*
X-186582Y65926D01*
X-184924Y63999D01*
X-183126Y62201D01*
X-181199Y60543D01*
X-179153Y59033D01*
X-177000Y57680D01*
X-174752Y56492D01*
X-172422Y55475D01*
X-170022Y54636D01*
X-167566Y53977D01*
X-165067Y53505D01*
X-162541Y53220D01*
X-160000Y53125D01*
X-157459Y53220D01*
X-154932Y53505D01*
X-152434Y53977D01*
X-149978Y54636D01*
X-147578Y55475D01*
X-145248Y56492D01*
X-143000Y57680D01*
X-140847Y59033D01*
X-138801Y60543D01*
X-136874Y62201D01*
X-135076Y63999D01*
X-133418Y65926D01*
X-131908Y67972D01*
X-130555Y70125D01*
X-129367Y72373D01*
X-128350Y74703D01*
X-127510Y77103D01*
X-126853Y79559D01*
X-126380Y82058D01*
X-126095Y84584D01*
X-126000Y87125D01*
X-141099Y69795D02*
Y79955D01*
X-146179Y74875D02*
X-136019D01*
X60000Y121500D02*
Y123500D01*
Y125500D01*
X54000Y121500D02*
Y125500D01*
X120750Y-29000D02*
X122750D01*
Y1000D01*
X120750D02*
X122750D01*
X91750Y-29000D02*
X93750D01*
X91750D02*
Y-22000D01*
Y-6000D02*
Y1000D01*
X93750D01*
X-110128Y-295000D02*
X-108128D01*
Y-265000D01*
X-110128D02*
X-108128D01*
X206000Y262000D02*
X208000D01*
X210000D01*
X206000Y268000D02*
X210000D01*
X206400Y207600D02*
X208400D01*
X210400D01*
X206400Y213600D02*
X210400D01*
X205000Y45000D02*
Y47000D01*
Y43000D02*
Y45000D01*
X211000Y43000D02*
Y47000D01*
X154000Y-183500D02*
Y-181500D01*
Y-185500D02*
Y-183500D01*
X160000Y-185500D02*
Y-181500D01*
X174000Y-120000D02*
X176000D01*
X172000D02*
X174000D01*
X172000Y-126000D02*
X176000D01*
X167000Y-183500D02*
Y-181500D01*
Y-185500D02*
Y-183500D01*
X173000Y-185500D02*
Y-181500D01*
X72000Y59000D02*
Y61000D01*
Y63000D01*
X66000Y59000D02*
Y63000D01*
X-192500Y-110000D02*
X-190500D01*
X-188500D01*
X-192500Y-104000D02*
X-188500D01*
X-192500Y-85000D02*
X-190500D01*
X-188500D01*
X-192500Y-79000D02*
X-188500D01*
X199000Y-113000D02*
Y-111000D01*
Y-109000D01*
X193000Y-113000D02*
Y-109000D01*
X187000Y-47000D02*
Y-45000D01*
Y-49000D02*
Y-47000D01*
X193000Y-49000D02*
Y-45000D01*
X93872Y-293000D02*
X95872D01*
Y-263000D01*
X93872D02*
X95872D01*
X203540Y-221742D02*
Y-213278D01*
X199308Y-217510D02*
X207772D01*
X202946Y-268732D02*
Y-260268D01*
G54D14*
X-116024Y251526D02*
D03*
X-137000Y10125D02*
D03*
X-125689Y-215211D02*
D03*
X209500Y-180000D02*
D03*
X197000Y-73000D02*
D03*
X206000Y-81000D02*
D03*
X-195000Y-159500D02*
D03*
X-190000Y-206500D02*
D03*
X-123000Y242500D02*
D03*
G54D15*
X-52000Y165000D02*
X-54000D01*
X-52000D01*
X-152000Y7625D02*
X-147500Y3125D01*
X-152000Y-1375D02*
X-147500Y3125D01*
X200840Y18860D02*
X208460D01*
Y20130D01*
X200840D02*
X208460D01*
X200840Y18860D02*
Y20130D01*
X221160Y18860D02*
Y20130D01*
X213540D02*
X221160D01*
X213540Y18860D02*
Y20130D01*
Y18860D02*
X221160D01*
X200840Y-28130D02*
Y18860D01*
X221160Y-28130D02*
Y18860D01*
X200840Y-28130D02*
X204250D01*
X217750D02*
X221160D01*
X50750Y111750D02*
Y135250D01*
X63250D01*
Y111750D02*
Y135250D01*
X50750Y111750D02*
X63250D01*
X-124952Y-228470D02*
X-123184Y-226702D01*
X-126720D02*
X-124952Y-228470D01*
X-126720Y-226702D02*
X-124952Y-224934D01*
X-123184Y-226702D01*
X-27500Y144500D02*
Y148250D01*
X-31500Y144500D02*
X-27500D01*
X-50500D02*
Y148250D01*
Y144500D02*
X-46500D01*
X-50500Y163750D02*
Y167500D01*
X-46500D01*
X-31500D02*
X-27500D01*
Y163750D02*
Y167500D01*
X51000Y87500D02*
X63000D01*
Y111500D01*
X51000D02*
X63000D01*
X51000Y87500D02*
Y111500D01*
X53000Y97500D02*
X57000Y101500D01*
X61000Y97500D01*
X178000Y184500D02*
Y197500D01*
X153000D02*
X178000D01*
X153000Y184500D02*
Y197500D01*
Y184500D02*
X178000D01*
X224000Y8000D02*
X236000D01*
Y32000D01*
X224000D02*
X236000D01*
X224000Y8000D02*
Y32000D01*
X226000Y18000D02*
X230000Y22000D01*
X234000Y18000D01*
X177000Y-103000D02*
Y-91000D01*
X153000D02*
X177000D01*
X153000Y-103000D02*
Y-91000D01*
Y-103000D02*
X177000D01*
X163000Y-97000D02*
X167000Y-101000D01*
X163000Y-97000D02*
X167000Y-93000D01*
Y-209000D02*
Y-197000D01*
Y-209000D02*
X191000D01*
Y-197000D01*
X167000D02*
X191000D01*
X177000Y-199000D02*
X181000Y-203000D01*
X177000Y-207000D02*
X181000Y-203000D01*
X246500Y-28500D02*
Y-15500D01*
X221500D02*
X246500D01*
X221500Y-28500D02*
Y-15500D01*
Y-28500D02*
X246500D01*
X-52500Y313500D02*
X-39500D01*
Y338500D01*
X-52500D02*
X-39500D01*
X-52500Y313500D02*
Y338500D01*
X196250Y271250D02*
X219750D01*
Y258750D02*
Y271250D01*
X196250Y258750D02*
X219750D01*
X196250D02*
Y271250D01*
X196650Y216850D02*
X220150D01*
Y204350D02*
Y216850D01*
X196650Y204350D02*
X220150D01*
X196650D02*
Y216850D01*
X214250Y33250D02*
Y56750D01*
X201750Y33250D02*
X214250D01*
X201750D02*
Y56750D01*
X214250D01*
X163250Y-195250D02*
Y-171750D01*
X150750Y-195250D02*
X163250D01*
X150750D02*
Y-171750D01*
X163250D01*
X162250Y-129250D02*
X185750D01*
X162250D02*
Y-116750D01*
X185750D01*
Y-129250D02*
Y-116750D01*
X176250Y-195250D02*
Y-171750D01*
X163750Y-195250D02*
X176250D01*
X163750D02*
Y-171750D01*
X176250D01*
X62750Y49250D02*
Y72750D01*
X75250D01*
Y49250D02*
Y72750D01*
X62750Y49250D02*
X75250D01*
X-202250Y-100750D02*
X-178750D01*
Y-113250D02*
Y-100750D01*
X-202250Y-113250D02*
X-178750D01*
X-202250D02*
Y-100750D01*
Y-75750D02*
X-178750D01*
Y-88250D02*
Y-75750D01*
X-202250Y-88250D02*
X-178750D01*
X-202250D02*
Y-75750D01*
X189750Y-122750D02*
Y-99250D01*
X202250D01*
Y-122750D02*
Y-99250D01*
X189750Y-122750D02*
X202250D01*
X196250Y-58750D02*
Y-35250D01*
X183750Y-58750D02*
X196250D01*
X183750D02*
Y-35250D01*
X196250D01*
X82813Y-116501D02*
Y-91501D01*
X69813Y-116501D02*
X82813D01*
X69813D02*
Y-91501D01*
X82813D01*
X-63500Y-96500D02*
Y-83500D01*
X-88500D02*
X-63500D01*
X-88500Y-96500D02*
Y-83500D01*
Y-96500D02*
X-63500D01*
X153002Y69390D02*
Y82390D01*
Y69390D02*
X178002D01*
Y82390D01*
X153002D02*
X178002D01*
G54D16*
X208788Y-264414D02*
X208209Y-261879D01*
X206588Y-259846D01*
X204246Y-258718D01*
X201646D01*
X199304Y-259846D01*
X197682Y-261879D01*
X197104Y-264414D01*
X197682Y-266949D01*
X199304Y-268981D01*
X201646Y-270110D01*
X204246D01*
X206588Y-268981D01*
X208209Y-266949D01*
X208788Y-264414D01*
X209296Y-217424D02*
X208717Y-214889D01*
X207096Y-212857D01*
X204754Y-211728D01*
X202154D01*
X199812Y-212857D01*
X198190Y-214889D01*
X197612Y-217424D01*
X198190Y-219959D01*
X199812Y-221992D01*
X202154Y-223120D01*
X204754D01*
X207096Y-221992D01*
X208717Y-219959D01*
X209296Y-217424D01*
X-51000Y-416650D02*
Y-301350D01*
X289000Y-395115D02*
Y-301350D01*
X-51000Y-416650D02*
X-21635D01*
X243135D02*
X276865D01*
X187635D02*
X224865D01*
X20635D02*
X146365D01*
X-51000Y-301350D02*
X-22635D01*
X19635D02*
X212865D01*
X255135D02*
X289000D01*
X-236500Y-432500D02*
X-184200D01*
X-236500Y-295000D02*
X-202335D01*
X-236500Y-374865D02*
Y-295000D01*
Y-432500D02*
Y-415135D01*
X-184200Y-432500D02*
Y-415135D01*
Y-396865D02*
Y-308135D01*
X-238000Y-186000D02*
Y-172000D01*
X-238000Y-272000D02*
X-192000D01*
X-238000Y-172000D02*
X-192000D01*
Y-272000D02*
Y-172000D01*
X-233000Y-186000D02*
Y-172000D01*
X-238000Y-186000D02*
X-233000D01*
Y-222000D02*
Y-186000D01*
Y-258000D02*
Y-222000D01*
X-238000Y-258000D02*
X-233000D01*
Y-272000D02*
Y-258000D01*
X-238000Y-272000D02*
Y-258000D01*
X163000Y118000D02*
Y120800D01*
Y118000D02*
X165800D01*
X193000Y145200D02*
Y148000D01*
X190200D02*
X193000D01*
Y118000D02*
Y120800D01*
X190200Y118000D02*
X193000D01*
X163000Y145200D02*
Y148000D01*
X165800D01*
G54D17*
X-90000Y70000D02*
X-20090D01*
X-89910Y-32000D02*
X-20000D01*
G54D18*
X-176000Y-342000D02*
X-170000Y-348000D01*
X-176000Y-342000D02*
Y-292000D01*
X-191000Y-277000D02*
X-176000Y-292000D01*
X-191000Y-277000D02*
Y-273000D01*
X-45000Y255000D02*
X-41000Y251000D01*
X-45000Y255000D02*
X-45000D01*
X-45000D02*
X-45000D01*
X-96000D02*
X-45000D01*
X-100000Y259000D02*
X-96000Y255000D01*
G54D19*
X-93522Y213809D02*
X-90983D01*
X-92252D01*
Y206191D01*
X-93522D01*
X-90983D01*
X-82096Y212539D02*
X-83365Y213809D01*
X-85904D01*
X-87174Y212539D01*
Y207461D01*
X-85904Y206191D01*
X-83365D01*
X-82096Y207461D01*
X-74478Y213809D02*
X-79556D01*
Y210000D01*
X-77017Y211270D01*
X-75748D01*
X-74478Y210000D01*
Y207461D01*
X-75748Y206191D01*
X-78287D01*
X-79556Y207461D01*
X26652Y179809D02*
X31730Y172191D01*
Y179809D02*
X26652Y172191D01*
X39348D02*
X34270D01*
X39348Y177270D01*
Y178539D01*
X38078Y179809D01*
X35539D01*
X34270Y178539D01*
X-45270Y-290191D02*
X-50348D01*
Y-297809D01*
X-45270D01*
X-50348Y-294000D02*
X-47809D01*
X-37652Y-297809D02*
X-42730D01*
X-37652Y-292730D01*
Y-291461D01*
X-38922Y-290191D01*
X-41461D01*
X-42730Y-291461D01*
X-230700Y-284191D02*
X-235778D01*
Y-291809D01*
X-230700D01*
X-235778Y-288000D02*
X-233239D01*
X-228161Y-291809D02*
X-225622D01*
X-226891D01*
Y-284191D01*
X-228161Y-285461D01*
X242000Y364809D02*
X239461D01*
X240730D01*
Y358461D01*
X239461Y357191D01*
X238191D01*
X236922Y358461D01*
X244539Y357191D02*
X247078D01*
X245809D01*
Y364809D01*
X244539Y363539D01*
X279191Y-24270D02*
Y-26809D01*
Y-25539D01*
X285539D01*
X286809Y-26809D01*
Y-28078D01*
X285539Y-29348D01*
X286809Y-16652D02*
Y-21730D01*
X281730Y-16652D01*
X280461D01*
X279191Y-17922D01*
Y-20461D01*
X280461Y-21730D01*
X-49539Y188730D02*
X-50809Y187461D01*
Y184922D01*
X-49539Y183652D01*
X-48270D01*
X-47000Y184922D01*
Y187461D01*
X-45731Y188730D01*
X-44461D01*
X-43191Y187461D01*
Y184922D01*
X-44461Y183652D01*
X-49539Y191270D02*
X-50809Y192539D01*
Y195078D01*
X-49539Y196348D01*
X-48270D01*
X-47000Y195078D01*
Y193809D01*
Y195078D01*
X-45731Y196348D01*
X-44461D01*
X-43191Y195078D01*
Y192539D01*
X-44461Y191270D01*
X76191Y-40522D02*
X83809D01*
Y-36713D01*
X82539Y-35443D01*
X77461D01*
X76191Y-36713D01*
Y-40522D01*
X83809Y-32904D02*
Y-30365D01*
Y-31635D01*
X76191D01*
X77461Y-32904D01*
Y-26556D02*
X76191Y-25287D01*
Y-22748D01*
X77461Y-21478D01*
X82539D01*
X83809Y-22748D01*
Y-25287D01*
X82539Y-26556D01*
X77461D01*
X15730Y39461D02*
Y44539D01*
X14461Y45809D01*
X11922D01*
X10652Y44539D01*
Y39461D01*
X11922Y38191D01*
X14461D01*
X13191Y40730D02*
X15730Y38191D01*
X14461D02*
X15730Y39461D01*
X18270Y44539D02*
X19539Y45809D01*
X22078D01*
X23348Y44539D01*
Y43270D01*
X22078Y42000D01*
X20809D01*
X22078D01*
X23348Y40730D01*
Y39461D01*
X22078Y38191D01*
X19539D01*
X18270Y39461D01*
X152191Y-128252D02*
Y-125713D01*
Y-126983D01*
X159809D01*
Y-128252D01*
Y-125713D01*
X153461Y-116826D02*
X152191Y-118096D01*
Y-120635D01*
X153461Y-121904D01*
X158539D01*
X159809Y-120635D01*
Y-118096D01*
X158539Y-116826D01*
X159809Y-114287D02*
Y-111748D01*
Y-113017D01*
X152191D01*
X153461Y-114287D01*
X148730Y-16539D02*
Y-11461D01*
X147461Y-10191D01*
X144922D01*
X143652Y-11461D01*
Y-16539D01*
X144922Y-17809D01*
X147461D01*
X146191Y-15270D02*
X148730Y-17809D01*
X147461D02*
X148730Y-16539D01*
X156348Y-10191D02*
X151270D01*
Y-14000D01*
X153809Y-12730D01*
X155078D01*
X156348Y-14000D01*
Y-16539D01*
X155078Y-17809D01*
X152539D01*
X151270Y-16539D01*
X-99809Y232478D02*
X-92191D01*
Y236287D01*
X-93461Y237556D01*
X-98539D01*
X-99809Y236287D01*
Y232478D01*
X-92191Y240096D02*
Y242635D01*
Y241365D01*
X-99809D01*
X-98539Y240096D01*
X-92191Y251522D02*
Y246444D01*
X-97270Y251522D01*
X-98539D01*
X-99809Y250252D01*
Y247713D01*
X-98539Y246444D01*
X-135348Y6809D02*
Y-809D01*
X-131539D01*
X-130270Y461D01*
Y5539D01*
X-131539Y6809D01*
X-135348D01*
X-127730Y461D02*
X-126461Y-809D01*
X-123922D01*
X-122652Y461D01*
Y5539D01*
X-123922Y6809D01*
X-126461D01*
X-127730Y5539D01*
Y4270D01*
X-126461Y3000D01*
X-122652D01*
X205652Y29809D02*
Y22191D01*
X209461D01*
X210730Y23461D01*
Y28539D01*
X209461Y29809D01*
X205652D01*
X217078Y22191D02*
Y29809D01*
X213270Y26000D01*
X218348D01*
X-98348Y82809D02*
Y76461D01*
X-97078Y75191D01*
X-94539D01*
X-93270Y76461D01*
Y82809D01*
X-85652Y75191D02*
X-90730D01*
X-85652Y80270D01*
Y81539D01*
X-86922Y82809D01*
X-89461D01*
X-90730Y81539D01*
X-184270Y51539D02*
X-185539Y52809D01*
X-188078D01*
X-189348Y51539D01*
Y46461D01*
X-188078Y45191D01*
X-185539D01*
X-184270Y46461D01*
X-181730Y51539D02*
X-180461Y52809D01*
X-177922D01*
X-176652Y51539D01*
Y50270D01*
X-177922Y49000D01*
X-176652Y47730D01*
Y46461D01*
X-177922Y45191D01*
X-180461D01*
X-181730Y46461D01*
Y47730D01*
X-180461Y49000D01*
X-181730Y50270D01*
Y51539D01*
X-180461Y49000D02*
X-177922D01*
X253809Y-190157D02*
X246191D01*
Y-186348D01*
X247461Y-185078D01*
X250000D01*
X251270Y-186348D01*
Y-190157D01*
Y-187617D02*
X253809Y-185078D01*
Y-178730D02*
X246191D01*
X250000Y-182539D01*
Y-177461D01*
X246191Y-174922D02*
Y-169843D01*
X247461D01*
X252539Y-174922D01*
X253809D01*
X73809Y113843D02*
X66191D01*
Y117652D01*
X67461Y118922D01*
X70000D01*
X71270Y117652D01*
Y113843D01*
Y116383D02*
X73809Y118922D01*
Y126539D02*
Y121461D01*
X68730Y126539D01*
X67461D01*
X66191Y125270D01*
Y122730D01*
X67461Y121461D01*
Y129078D02*
X66191Y130348D01*
Y132887D01*
X67461Y134157D01*
X68730D01*
X70000Y132887D01*
Y131618D01*
Y132887D01*
X71270Y134157D01*
X72539D01*
X73809Y132887D01*
Y130348D01*
X72539Y129078D01*
X197809Y11843D02*
X190191D01*
Y15652D01*
X191461Y16922D01*
X194000D01*
X195270Y15652D01*
Y11843D01*
Y14382D02*
X197809Y16922D01*
Y24539D02*
Y19461D01*
X192730Y24539D01*
X191461D01*
X190191Y23270D01*
Y20730D01*
X191461Y19461D01*
X190191Y32157D02*
Y27078D01*
X194000D01*
X192730Y29618D01*
Y30887D01*
X194000Y32157D01*
X196539D01*
X197809Y30887D01*
Y28348D01*
X196539Y27078D01*
X-177776Y168056D02*
X-175237D01*
X-176506D01*
Y160438D01*
X-177776D01*
X-175237D01*
X-166350Y166786D02*
X-167619Y168056D01*
X-170158D01*
X-171428Y166786D01*
Y161708D01*
X-170158Y160438D01*
X-167619D01*
X-166350Y161708D01*
X-160002Y160438D02*
Y168056D01*
X-163810Y164247D01*
X-158732D01*
X-61812Y142475D02*
Y145014D01*
Y143744D01*
X-54194D01*
Y142475D01*
Y145014D01*
X-60542Y153901D02*
X-61812Y152632D01*
Y150092D01*
X-60542Y148823D01*
X-55464D01*
X-54194Y150092D01*
Y152632D01*
X-55464Y153901D01*
X-60542Y156440D02*
X-61812Y157710D01*
Y160249D01*
X-60542Y161519D01*
X-59273D01*
X-58003Y160249D01*
Y158980D01*
Y160249D01*
X-56733Y161519D01*
X-55464D01*
X-54194Y160249D01*
Y157710D01*
X-55464Y156440D01*
X66191Y89478D02*
X73809D01*
Y93287D01*
X72539Y94557D01*
X67461D01*
X66191Y93287D01*
Y89478D01*
X73809Y97096D02*
Y99635D01*
Y98365D01*
X66191D01*
X67461Y97096D01*
Y103444D02*
X66191Y104713D01*
Y107252D01*
X67461Y108522D01*
X68730D01*
X70000Y107252D01*
Y105983D01*
Y107252D01*
X71270Y108522D01*
X72539D01*
X73809Y107252D01*
Y104713D01*
X72539Y103444D01*
X66191Y-31825D02*
X73809D01*
Y-26747D01*
X66191Y-24207D02*
Y-19129D01*
X67461D01*
X72539Y-24207D01*
X73809D01*
X-100270Y362809D02*
X-102809D01*
X-101539D01*
Y356461D01*
X-102809Y355191D01*
X-104078D01*
X-105348Y356461D01*
X-93922Y355191D02*
Y362809D01*
X-97730Y359000D01*
X-92652D01*
X271730Y-187191D02*
X269191D01*
X270461D01*
Y-193539D01*
X269191Y-194809D01*
X267922D01*
X266652Y-193539D01*
X279348Y-187191D02*
X274270D01*
Y-191000D01*
X276809Y-189730D01*
X278078D01*
X279348Y-191000D01*
Y-193539D01*
X278078Y-194809D01*
X275539D01*
X274270Y-193539D01*
X196191Y-175348D02*
X202539D01*
X203809Y-174078D01*
Y-171539D01*
X202539Y-170270D01*
X196191D01*
Y-162652D02*
Y-167730D01*
X200000D01*
X198730Y-165191D01*
Y-163922D01*
X200000Y-162652D01*
X202539D01*
X203809Y-163922D01*
Y-166461D01*
X202539Y-167730D01*
X155191Y-229000D02*
Y-234078D01*
X159000D01*
Y-231539D01*
Y-234078D01*
X162809D01*
Y-226461D02*
Y-223922D01*
Y-225191D01*
X155191D01*
X156461Y-226461D01*
X160922Y207809D02*
Y201461D01*
X162191Y200191D01*
X164730D01*
X166000Y201461D01*
Y207809D01*
X168539Y200191D02*
X171078D01*
X169809D01*
Y207809D01*
X168539Y206539D01*
X176652Y-61191D02*
Y-68809D01*
X181730D01*
X184270Y-62461D02*
X185539Y-61191D01*
X188078D01*
X189348Y-62461D01*
Y-63730D01*
X188078Y-65000D01*
X186809D01*
X188078D01*
X189348Y-66270D01*
Y-67539D01*
X188078Y-68809D01*
X185539D01*
X184270Y-67539D01*
X-215270Y-274191D02*
X-217809D01*
X-216539D01*
Y-280539D01*
X-217809Y-281809D01*
X-219078D01*
X-220348Y-280539D01*
X-212730Y-275461D02*
X-211461Y-274191D01*
X-208922D01*
X-207652Y-275461D01*
Y-276730D01*
X-208922Y-278000D01*
X-210191D01*
X-208922D01*
X-207652Y-279270D01*
Y-280539D01*
X-208922Y-281809D01*
X-211461D01*
X-212730Y-280539D01*
X100902Y8191D02*
Y15809D01*
X104711D01*
X105980Y14539D01*
Y12000D01*
X104711Y10730D01*
X100902D01*
X113598Y8191D02*
X108520D01*
X113598Y13270D01*
Y14539D01*
X112328Y15809D01*
X109789D01*
X108520Y14539D01*
X-97191Y-285078D02*
X-104809D01*
Y-281269D01*
X-103539Y-280000D01*
X-101000D01*
X-99730Y-281269D01*
Y-285078D01*
X-97191Y-277461D02*
Y-274922D01*
Y-276191D01*
X-104809D01*
X-103539Y-277461D01*
X-51539Y282000D02*
X-52809Y280730D01*
Y278191D01*
X-51539Y276922D01*
X-46461D01*
X-45191Y278191D01*
Y280730D01*
X-46461Y282000D01*
X-45191Y284539D02*
Y287078D01*
Y285809D01*
X-52809D01*
X-51539Y284539D01*
X185461Y-144270D02*
X184191Y-145539D01*
Y-148078D01*
X185461Y-149348D01*
X190539D01*
X191809Y-148078D01*
Y-145539D01*
X190539Y-144270D01*
X191809Y-136652D02*
Y-141730D01*
X186730Y-136652D01*
X185461D01*
X184191Y-137922D01*
Y-140461D01*
X185461Y-141730D01*
X-197694Y207789D02*
X-198963Y209059D01*
X-201502D01*
X-202772Y207789D01*
Y202711D01*
X-201502Y201441D01*
X-198963D01*
X-197694Y202711D01*
X-195154Y201441D02*
X-192615D01*
X-193885D01*
Y209059D01*
X-195154Y207789D01*
X-188807D02*
X-187537Y209059D01*
X-184998D01*
X-183728Y207789D01*
Y202711D01*
X-184998Y201441D01*
X-187537D01*
X-188807Y202711D01*
Y207789D01*
X228826Y4539D02*
X227556Y5809D01*
X225017D01*
X223748Y4539D01*
Y-539D01*
X225017Y-1809D01*
X227556D01*
X228826Y-539D01*
X231365Y-1809D02*
X233904D01*
X232635D01*
Y5809D01*
X231365Y4539D01*
X237713Y-1809D02*
X240252D01*
X238983D01*
Y5809D01*
X237713Y4539D01*
X135556Y24539D02*
X134287Y25809D01*
X131748D01*
X130478Y24539D01*
Y19461D01*
X131748Y18191D01*
X134287D01*
X135556Y19461D01*
X138096Y18191D02*
X140635D01*
X139365D01*
Y25809D01*
X138096Y24539D01*
X144444D02*
X145713Y25809D01*
X148252D01*
X149522Y24539D01*
Y23270D01*
X148252Y22000D01*
X146983D01*
X148252D01*
X149522Y20730D01*
Y19461D01*
X148252Y18191D01*
X145713D01*
X144444Y19461D01*
X135556Y42539D02*
X134287Y43809D01*
X131748D01*
X130478Y42539D01*
Y37461D01*
X131748Y36191D01*
X134287D01*
X135556Y37461D01*
X138096Y36191D02*
X140635D01*
X139365D01*
Y43809D01*
X138096Y42539D01*
X148252Y36191D02*
Y43809D01*
X144444Y40000D01*
X149522D01*
X135556Y60539D02*
X134287Y61809D01*
X131748D01*
X130478Y60539D01*
Y55461D01*
X131748Y54191D01*
X134287D01*
X135556Y55461D01*
X138096Y54191D02*
X140635D01*
X139365D01*
Y61809D01*
X138096Y60539D01*
X149522Y61809D02*
X144444D01*
Y58000D01*
X146983Y59270D01*
X148252D01*
X149522Y58000D01*
Y55461D01*
X148252Y54191D01*
X145713D01*
X144444Y55461D01*
X-201789Y185980D02*
X-203059Y184711D01*
Y182172D01*
X-201789Y180902D01*
X-196711D01*
X-195441Y182172D01*
Y184711D01*
X-196711Y185980D01*
X-201789Y188520D02*
X-203059Y189789D01*
Y192328D01*
X-201789Y193598D01*
X-200520D01*
X-199250Y192328D01*
Y191059D01*
Y192328D01*
X-197981Y193598D01*
X-196711D01*
X-195441Y192328D01*
Y189789D01*
X-196711Y188520D01*
X-167270Y19539D02*
X-168539Y20809D01*
X-171078D01*
X-172348Y19539D01*
Y14461D01*
X-171078Y13191D01*
X-168539D01*
X-167270Y14461D01*
X-164730Y20809D02*
X-159652D01*
Y19539D01*
X-164730Y14461D01*
Y13191D01*
X7461Y6730D02*
X6191Y5461D01*
Y2922D01*
X7461Y1652D01*
X12539D01*
X13809Y2922D01*
Y5461D01*
X12539Y6730D01*
Y9270D02*
X13809Y10539D01*
Y13078D01*
X12539Y14348D01*
X7461D01*
X6191Y13078D01*
Y10539D01*
X7461Y9270D01*
X8730D01*
X10000Y10539D01*
Y14348D01*
X236461Y176730D02*
X235191Y175461D01*
Y172922D01*
X236461Y171652D01*
X241539D01*
X242809Y172922D01*
Y175461D01*
X241539Y176730D01*
X235191Y184348D02*
Y179270D01*
X239000D01*
X237730Y181809D01*
Y183078D01*
X239000Y184348D01*
X241539D01*
X242809Y183078D01*
Y180539D01*
X241539Y179270D01*
X239461Y113730D02*
X238191Y112461D01*
Y109922D01*
X239461Y108652D01*
X244539D01*
X245809Y109922D01*
Y112461D01*
X244539Y113730D01*
X238191Y121348D02*
X239461Y118809D01*
X242000Y116270D01*
X244539D01*
X245809Y117539D01*
Y120078D01*
X244539Y121348D01*
X243270D01*
X242000Y120078D01*
Y116270D01*
X224730Y88539D02*
X223461Y89809D01*
X220922D01*
X219652Y88539D01*
Y83461D01*
X220922Y82191D01*
X223461D01*
X224730Y83461D01*
X231078Y82191D02*
Y89809D01*
X227270Y86000D01*
X232348D01*
X240461Y27922D02*
X239191Y26652D01*
Y24113D01*
X240461Y22843D01*
X245539D01*
X246809Y24113D01*
Y26652D01*
X245539Y27922D01*
X246809Y35539D02*
Y30461D01*
X241730Y35539D01*
X240461D01*
X239191Y34270D01*
Y31730D01*
X240461Y30461D01*
Y38078D02*
X239191Y39348D01*
Y41887D01*
X240461Y43157D01*
X241730D01*
X243000Y41887D01*
Y40618D01*
Y41887D01*
X244270Y43157D01*
X245539D01*
X246809Y41887D01*
Y39348D01*
X245539Y38078D01*
X-11539Y150922D02*
X-12809Y149652D01*
Y147113D01*
X-11539Y145843D01*
X-6461D01*
X-5191Y147113D01*
Y149652D01*
X-6461Y150922D01*
X-5191Y158539D02*
Y153461D01*
X-10270Y158539D01*
X-11539D01*
X-12809Y157270D01*
Y154730D01*
X-11539Y153461D01*
X-5191Y164887D02*
X-12809D01*
X-9000Y161078D01*
Y166157D01*
X-126539Y172922D02*
X-127809Y171652D01*
Y169113D01*
X-126539Y167843D01*
X-121461D01*
X-120191Y169113D01*
Y171652D01*
X-121461Y172922D01*
X-120191Y180539D02*
Y175461D01*
X-125270Y180539D01*
X-126539D01*
X-127809Y179270D01*
Y176730D01*
X-126539Y175461D01*
X-127809Y188157D02*
Y183078D01*
X-124000D01*
X-125270Y185618D01*
Y186887D01*
X-124000Y188157D01*
X-121461D01*
X-120191Y186887D01*
Y184348D01*
X-121461Y183078D01*
X-131078Y211539D02*
X-132348Y212809D01*
X-134887D01*
X-136157Y211539D01*
Y206461D01*
X-134887Y205191D01*
X-132348D01*
X-131078Y206461D01*
X-123461Y205191D02*
X-128539D01*
X-123461Y210270D01*
Y211539D01*
X-124730Y212809D01*
X-127270D01*
X-128539Y211539D01*
X-115843Y212809D02*
X-118382Y211539D01*
X-120922Y209000D01*
Y206461D01*
X-119652Y205191D01*
X-117113D01*
X-115843Y206461D01*
Y207730D01*
X-117113Y209000D01*
X-120922D01*
X-24078Y381539D02*
X-25348Y382809D01*
X-27887D01*
X-29157Y381539D01*
Y376461D01*
X-27887Y375191D01*
X-25348D01*
X-24078Y376461D01*
X-16461Y375191D02*
X-21539D01*
X-16461Y380270D01*
Y381539D01*
X-17730Y382809D01*
X-20269D01*
X-21539Y381539D01*
X-13922Y382809D02*
X-8843D01*
Y381539D01*
X-13922Y376461D01*
Y375191D01*
X-39078Y370539D02*
X-40348Y371809D01*
X-42887D01*
X-44157Y370539D01*
Y365461D01*
X-42887Y364191D01*
X-40348D01*
X-39078Y365461D01*
X-31461Y364191D02*
X-36539D01*
X-31461Y369270D01*
Y370539D01*
X-32730Y371809D01*
X-35270D01*
X-36539Y370539D01*
X-28922D02*
X-27652Y371809D01*
X-25113D01*
X-23843Y370539D01*
Y369270D01*
X-25113Y368000D01*
X-23843Y366730D01*
Y365461D01*
X-25113Y364191D01*
X-27652D01*
X-28922Y365461D01*
Y366730D01*
X-27652Y368000D01*
X-28922Y369270D01*
Y370539D01*
X-27652Y368000D02*
X-25113D01*
X-11078Y370539D02*
X-12348Y371809D01*
X-14887D01*
X-16157Y370539D01*
Y365461D01*
X-14887Y364191D01*
X-12348D01*
X-11078Y365461D01*
X-3461Y364191D02*
X-8539D01*
X-3461Y369270D01*
Y370539D01*
X-4730Y371809D01*
X-7269D01*
X-8539Y370539D01*
X-922Y365461D02*
X348Y364191D01*
X2887D01*
X4157Y365461D01*
Y370539D01*
X2887Y371809D01*
X348D01*
X-922Y370539D01*
Y369270D01*
X348Y368000D01*
X4157D01*
X-73539Y318922D02*
X-74809Y317652D01*
Y315113D01*
X-73539Y313843D01*
X-68461D01*
X-67191Y315113D01*
Y317652D01*
X-68461Y318922D01*
X-73539Y321461D02*
X-74809Y322730D01*
Y325270D01*
X-73539Y326539D01*
X-72270D01*
X-71000Y325270D01*
Y324000D01*
Y325270D01*
X-69730Y326539D01*
X-68461D01*
X-67191Y325270D01*
Y322730D01*
X-68461Y321461D01*
X-73539Y329078D02*
X-74809Y330348D01*
Y332887D01*
X-73539Y334157D01*
X-68461D01*
X-67191Y332887D01*
Y330348D01*
X-68461Y329078D01*
X-73539D01*
X194461Y337191D02*
X193191Y335922D01*
Y333382D01*
X194461Y332113D01*
X199539D01*
X200809Y333382D01*
Y335922D01*
X199539Y337191D01*
X194461Y339730D02*
X193191Y341000D01*
Y343539D01*
X194461Y344809D01*
X195730D01*
X197000Y343539D01*
Y342270D01*
Y343539D01*
X198270Y344809D01*
X199539D01*
X200809Y343539D01*
Y341000D01*
X199539Y339730D01*
X200809Y347348D02*
Y349887D01*
Y348618D01*
X193191D01*
X194461Y347348D01*
X22922Y193539D02*
X21652Y194809D01*
X19113D01*
X17843Y193539D01*
Y188461D01*
X19113Y187191D01*
X21652D01*
X22922Y188461D01*
X25461Y193539D02*
X26730Y194809D01*
X29270D01*
X30539Y193539D01*
Y192270D01*
X29270Y191000D01*
X28000D01*
X29270D01*
X30539Y189730D01*
Y188461D01*
X29270Y187191D01*
X26730D01*
X25461Y188461D01*
X38157Y187191D02*
X33078D01*
X38157Y192270D01*
Y193539D01*
X36887Y194809D01*
X34348D01*
X33078Y193539D01*
X86922D02*
X85652Y194809D01*
X83113D01*
X81843Y193539D01*
Y188461D01*
X83113Y187191D01*
X85652D01*
X86922Y188461D01*
X89461Y193539D02*
X90730Y194809D01*
X93270D01*
X94539Y193539D01*
Y192270D01*
X93270Y191000D01*
X92000D01*
X93270D01*
X94539Y189730D01*
Y188461D01*
X93270Y187191D01*
X90730D01*
X89461Y188461D01*
X97078Y193539D02*
X98348Y194809D01*
X100887D01*
X102157Y193539D01*
Y192270D01*
X100887Y191000D01*
X99618D01*
X100887D01*
X102157Y189730D01*
Y188461D01*
X100887Y187191D01*
X98348D01*
X97078Y188461D01*
X37461Y6922D02*
X36191Y5652D01*
Y3113D01*
X37461Y1843D01*
X42539D01*
X43809Y3113D01*
Y5652D01*
X42539Y6922D01*
X37461Y9461D02*
X36191Y10730D01*
Y13270D01*
X37461Y14539D01*
X38730D01*
X40000Y13270D01*
Y12000D01*
Y13270D01*
X41270Y14539D01*
X42539D01*
X43809Y13270D01*
Y10730D01*
X42539Y9461D01*
X43809Y20887D02*
X36191D01*
X40000Y17078D01*
Y22157D01*
X-153539Y-27078D02*
X-154809Y-28348D01*
Y-30887D01*
X-153539Y-32157D01*
X-148461D01*
X-147191Y-30887D01*
Y-28348D01*
X-148461Y-27078D01*
X-153539Y-24539D02*
X-154809Y-23270D01*
Y-20730D01*
X-153539Y-19461D01*
X-152270D01*
X-151000Y-20730D01*
Y-22000D01*
Y-20730D01*
X-149730Y-19461D01*
X-148461D01*
X-147191Y-20730D01*
Y-23270D01*
X-148461Y-24539D01*
X-154809Y-11843D02*
Y-16922D01*
X-151000D01*
X-152270Y-14382D01*
Y-13113D01*
X-151000Y-11843D01*
X-148461D01*
X-147191Y-13113D01*
Y-15652D01*
X-148461Y-16922D01*
X-121539Y-46078D02*
X-122809Y-47348D01*
Y-49887D01*
X-121539Y-51157D01*
X-116461D01*
X-115191Y-49887D01*
Y-47348D01*
X-116461Y-46078D01*
X-121539Y-43539D02*
X-122809Y-42270D01*
Y-39730D01*
X-121539Y-38461D01*
X-120270D01*
X-119000Y-39730D01*
Y-41000D01*
Y-39730D01*
X-117730Y-38461D01*
X-116461D01*
X-115191Y-39730D01*
Y-42270D01*
X-116461Y-43539D01*
X-122809Y-30843D02*
X-121539Y-33382D01*
X-119000Y-35922D01*
X-116461D01*
X-115191Y-34652D01*
Y-32113D01*
X-116461Y-30843D01*
X-117730D01*
X-119000Y-32113D01*
Y-35922D01*
X-196078Y233539D02*
X-197348Y234809D01*
X-199887D01*
X-201157Y233539D01*
Y228461D01*
X-199887Y227191D01*
X-197348D01*
X-196078Y228461D01*
X-193539Y233539D02*
X-192270Y234809D01*
X-189730D01*
X-188461Y233539D01*
Y232270D01*
X-189730Y231000D01*
X-191000D01*
X-189730D01*
X-188461Y229730D01*
Y228461D01*
X-189730Y227191D01*
X-192270D01*
X-193539Y228461D01*
X-185922Y234809D02*
X-180843D01*
Y233539D01*
X-185922Y228461D01*
Y227191D01*
X-185078Y249539D02*
X-186348Y250809D01*
X-188887D01*
X-190157Y249539D01*
Y244461D01*
X-188887Y243191D01*
X-186348D01*
X-185078Y244461D01*
X-182539Y249539D02*
X-181270Y250809D01*
X-178730D01*
X-177461Y249539D01*
Y248270D01*
X-178730Y247000D01*
X-180000D01*
X-178730D01*
X-177461Y245730D01*
Y244461D01*
X-178730Y243191D01*
X-181270D01*
X-182539Y244461D01*
X-174922Y249539D02*
X-173652Y250809D01*
X-171113D01*
X-169843Y249539D01*
Y248270D01*
X-171113Y247000D01*
X-169843Y245730D01*
Y244461D01*
X-171113Y243191D01*
X-173652D01*
X-174922Y244461D01*
Y245730D01*
X-173652Y247000D01*
X-174922Y248270D01*
Y249539D01*
X-173652Y247000D02*
X-171113D01*
X238922Y15809D02*
Y8191D01*
X242730D01*
X244000Y9461D01*
Y14539D01*
X242730Y15809D01*
X238922D01*
X246539Y8191D02*
X249078D01*
X247809D01*
Y15809D01*
X246539Y14539D01*
X199191Y-57348D02*
X206809D01*
Y-53539D01*
X205539Y-52270D01*
X200461D01*
X199191Y-53539D01*
Y-57348D01*
X206809Y-44652D02*
Y-49730D01*
X201730Y-44652D01*
X200461D01*
X199191Y-45922D01*
Y-48461D01*
X200461Y-49730D01*
X187191Y-96348D02*
X194809D01*
Y-92539D01*
X193539Y-91270D01*
X188461D01*
X187191Y-92539D01*
Y-96348D01*
X188461Y-88730D02*
X187191Y-87461D01*
Y-84922D01*
X188461Y-83652D01*
X189730D01*
X191000Y-84922D01*
Y-86191D01*
Y-84922D01*
X192270Y-83652D01*
X193539D01*
X194809Y-84922D01*
Y-87461D01*
X193539Y-88730D01*
X156652Y-80191D02*
Y-87809D01*
X160461D01*
X161730Y-86539D01*
Y-81461D01*
X160461Y-80191D01*
X156652D01*
X169348D02*
X164270D01*
Y-84000D01*
X166809Y-82730D01*
X168078D01*
X169348Y-84000D01*
Y-86539D01*
X168078Y-87809D01*
X165539D01*
X164270Y-86539D01*
X157191Y-210348D02*
X164809D01*
Y-206539D01*
X163539Y-205270D01*
X158461D01*
X157191Y-206539D01*
Y-210348D01*
Y-197652D02*
X158461Y-200191D01*
X161000Y-202730D01*
X163539D01*
X164809Y-201461D01*
Y-198922D01*
X163539Y-197652D01*
X162270D01*
X161000Y-198922D01*
Y-202730D01*
X-194809Y-143348D02*
X-187191D01*
Y-139539D01*
X-188461Y-138270D01*
X-193539D01*
X-194809Y-139539D01*
Y-143348D01*
Y-135730D02*
Y-130652D01*
X-193539D01*
X-188461Y-135730D01*
X-187191D01*
X-189809Y-190348D02*
X-182191D01*
Y-186539D01*
X-183461Y-185270D01*
X-188539D01*
X-189809Y-186539D01*
Y-190348D01*
X-188539Y-182730D02*
X-189809Y-181461D01*
Y-178922D01*
X-188539Y-177652D01*
X-187270D01*
X-186000Y-178922D01*
X-184730Y-177652D01*
X-183461D01*
X-182191Y-178922D01*
Y-181461D01*
X-183461Y-182730D01*
X-184730D01*
X-186000Y-181461D01*
X-187270Y-182730D01*
X-188539D01*
X-186000Y-181461D02*
Y-178922D01*
X244191Y-12348D02*
X251809D01*
Y-7270D01*
Y348D02*
Y-4730D01*
X246730Y348D01*
X245461D01*
X244191Y-922D01*
Y-3461D01*
X245461Y-4730D01*
X-49809Y340922D02*
X-42191D01*
Y346000D01*
Y348539D02*
Y351078D01*
Y349809D01*
X-49809D01*
X-48539Y348539D01*
X197000Y248461D02*
Y253539D01*
X195730Y254809D01*
X193191D01*
X191922Y253539D01*
Y248461D01*
X193191Y247191D01*
X195730D01*
X194461Y249730D02*
X197000Y247191D01*
X195730D02*
X197000Y248461D01*
X199539Y247191D02*
X202078D01*
X200809D01*
Y254809D01*
X199539Y253539D01*
X194730Y302461D02*
Y307539D01*
X193461Y308809D01*
X190922D01*
X189652Y307539D01*
Y302461D01*
X190922Y301191D01*
X193461D01*
X192191Y303730D02*
X194730Y301191D01*
X193461D02*
X194730Y302461D01*
X202348Y301191D02*
X197270D01*
X202348Y306270D01*
Y307539D01*
X201078Y308809D01*
X198539D01*
X197270Y307539D01*
X183922Y261191D02*
Y268809D01*
X187730D01*
X189000Y267539D01*
Y265000D01*
X187730Y263730D01*
X183922D01*
X186461D02*
X189000Y261191D01*
X191539D02*
X194078D01*
X192809D01*
Y268809D01*
X191539Y267539D01*
X-57191Y274652D02*
X-64809D01*
Y278461D01*
X-63539Y279730D01*
X-61000D01*
X-59730Y278461D01*
Y274652D01*
Y277191D02*
X-57191Y279730D01*
Y287348D02*
Y282270D01*
X-62270Y287348D01*
X-63539D01*
X-64809Y286078D01*
Y283539D01*
X-63539Y282270D01*
X181652Y207191D02*
Y214809D01*
X185461D01*
X186730Y213539D01*
Y211000D01*
X185461Y209730D01*
X181652D01*
X184191D02*
X186730Y207191D01*
X189270Y213539D02*
X190539Y214809D01*
X193078D01*
X194348Y213539D01*
Y212270D01*
X193078Y211000D01*
X191809D01*
X193078D01*
X194348Y209730D01*
Y208461D01*
X193078Y207191D01*
X190539D01*
X189270Y208461D01*
X199809Y38652D02*
X192191D01*
Y42461D01*
X193461Y43730D01*
X196000D01*
X197270Y42461D01*
Y38652D01*
Y41191D02*
X199809Y43730D01*
Y50078D02*
X192191D01*
X196000Y46270D01*
Y51348D01*
X154809Y-210348D02*
X147191D01*
Y-206539D01*
X148461Y-205270D01*
X151000D01*
X152270Y-206539D01*
Y-210348D01*
Y-207809D02*
X154809Y-205270D01*
X147191Y-197652D02*
Y-202730D01*
X151000D01*
X149730Y-200191D01*
Y-198922D01*
X151000Y-197652D01*
X153539D01*
X154809Y-198922D01*
Y-201461D01*
X153539Y-202730D01*
X168652Y-113309D02*
Y-105691D01*
X172461D01*
X173730Y-106961D01*
Y-109500D01*
X172461Y-110770D01*
X168652D01*
X171191D02*
X173730Y-113309D01*
X181348Y-105691D02*
X178809Y-106961D01*
X176270Y-109500D01*
Y-112039D01*
X177539Y-113309D01*
X180078D01*
X181348Y-112039D01*
Y-110770D01*
X180078Y-109500D01*
X176270D01*
X185809Y-183348D02*
X178191D01*
Y-179539D01*
X179461Y-178270D01*
X182000D01*
X183270Y-179539D01*
Y-183348D01*
Y-180809D02*
X185809Y-178270D01*
X178191Y-175730D02*
Y-170652D01*
X179461D01*
X184539Y-175730D01*
X185809D01*
X-177191Y-142522D02*
X-184809D01*
Y-138713D01*
X-183539Y-137444D01*
X-181000D01*
X-179730Y-138713D01*
Y-142522D01*
Y-139983D02*
X-177191Y-137444D01*
Y-134904D02*
Y-132365D01*
Y-133635D01*
X-184809D01*
X-183539Y-134904D01*
Y-128556D02*
X-184809Y-127287D01*
Y-124748D01*
X-183539Y-123478D01*
X-178461D01*
X-177191Y-124748D01*
Y-127287D01*
X-178461Y-128556D01*
X-183539D01*
X-172191Y-189252D02*
X-179809D01*
Y-185443D01*
X-178539Y-184174D01*
X-176000D01*
X-174730Y-185443D01*
Y-189252D01*
Y-186713D02*
X-172191Y-184174D01*
Y-181635D02*
Y-179096D01*
Y-180365D01*
X-179809D01*
X-178539Y-181635D01*
X-172191Y-175287D02*
Y-172748D01*
Y-174017D01*
X-179809D01*
X-178539Y-175287D01*
X-150772Y157441D02*
Y165059D01*
X-146963D01*
X-145694Y163789D01*
Y161250D01*
X-146963Y159980D01*
X-150772D01*
X-148233D02*
X-145694Y157441D01*
X-143154D02*
X-140615D01*
X-141885D01*
Y165059D01*
X-143154Y163789D01*
X-131728Y157441D02*
X-136807D01*
X-131728Y162520D01*
Y163789D01*
X-132998Y165059D01*
X-135537D01*
X-136807Y163789D01*
X63483Y75194D02*
Y82812D01*
X67291D01*
X68561Y81542D01*
Y79003D01*
X67291Y77734D01*
X63483D01*
X66022D02*
X68561Y75194D01*
X71100D02*
X73639D01*
X72370D01*
Y82812D01*
X71100Y81542D01*
X77448D02*
X78718Y82812D01*
X81257D01*
X82527Y81542D01*
Y80273D01*
X81257Y79003D01*
X79987D01*
X81257D01*
X82527Y77734D01*
Y76464D01*
X81257Y75194D01*
X78718D01*
X77448Y76464D01*
X173478Y321191D02*
Y328809D01*
X177287D01*
X178556Y327539D01*
Y325000D01*
X177287Y323730D01*
X173478D01*
X176017D02*
X178556Y321191D01*
X181096D02*
X183635D01*
X182365D01*
Y328809D01*
X181096Y327539D01*
X191252Y321191D02*
Y328809D01*
X187444Y325000D01*
X192522D01*
X-150772Y189441D02*
Y197059D01*
X-146963D01*
X-145694Y195789D01*
Y193250D01*
X-146963Y191980D01*
X-150772D01*
X-148233D02*
X-145694Y189441D01*
X-143154D02*
X-140615D01*
X-141885D01*
Y197059D01*
X-143154Y195789D01*
X-131728Y197059D02*
X-136807D01*
Y193250D01*
X-134267Y194520D01*
X-132998D01*
X-131728Y193250D01*
Y190711D01*
X-132998Y189441D01*
X-135537D01*
X-136807Y190711D01*
X85813Y51481D02*
X78196D01*
Y55290D01*
X79465Y56560D01*
X82005D01*
X83274Y55290D01*
Y51481D01*
Y54021D02*
X85813Y56560D01*
Y59099D02*
Y61638D01*
Y60368D01*
X78196D01*
X79465Y59099D01*
X78196Y70525D02*
X79465Y67986D01*
X82005Y65447D01*
X84544D01*
X85813Y66716D01*
Y69255D01*
X84544Y70525D01*
X83274D01*
X82005Y69255D01*
Y65447D01*
X63483Y39194D02*
Y46812D01*
X67291D01*
X68561Y45542D01*
Y43003D01*
X67291Y41734D01*
X63483D01*
X66022D02*
X68561Y39194D01*
X71100D02*
X73639D01*
X72370D01*
Y46812D01*
X71100Y45542D01*
X77448Y46812D02*
X82527D01*
Y45542D01*
X77448Y40464D01*
Y39194D01*
X-138486Y146191D02*
Y153809D01*
X-134677D01*
X-133408Y152539D01*
Y150000D01*
X-134677Y148730D01*
X-138486D01*
X-135947D02*
X-133408Y146191D01*
X-130868D02*
X-128329D01*
X-129599D01*
Y153809D01*
X-130868Y152539D01*
X-124520D02*
X-123251Y153809D01*
X-120712D01*
X-119442Y152539D01*
Y151270D01*
X-120712Y150000D01*
X-119442Y148730D01*
Y147461D01*
X-120712Y146191D01*
X-123251D01*
X-124520Y147461D01*
Y148730D01*
X-123251Y150000D01*
X-124520Y151270D01*
Y152539D01*
X-123251Y150000D02*
X-120712D01*
X-199522Y-98809D02*
Y-91191D01*
X-195713D01*
X-194444Y-92461D01*
Y-95000D01*
X-195713Y-96270D01*
X-199522D01*
X-196983D02*
X-194444Y-98809D01*
X-191904D02*
X-189365D01*
X-190635D01*
Y-91191D01*
X-191904Y-92461D01*
X-185556Y-97539D02*
X-184287Y-98809D01*
X-181748D01*
X-180478Y-97539D01*
Y-92461D01*
X-181748Y-91191D01*
X-184287D01*
X-185556Y-92461D01*
Y-93730D01*
X-184287Y-95000D01*
X-180478D01*
X-200157Y-73809D02*
Y-66191D01*
X-196348D01*
X-195078Y-67461D01*
Y-70000D01*
X-196348Y-71270D01*
X-200157D01*
X-197617D02*
X-195078Y-73809D01*
X-187461D02*
X-192539D01*
X-187461Y-68730D01*
Y-67461D01*
X-188730Y-66191D01*
X-191270D01*
X-192539Y-67461D01*
X-184922D02*
X-183652Y-66191D01*
X-181113D01*
X-179843Y-67461D01*
Y-72539D01*
X-181113Y-73809D01*
X-183652D01*
X-184922Y-72539D01*
Y-67461D01*
X-57155Y167113D02*
X-64773D01*
Y170922D01*
X-63503Y172191D01*
X-60964D01*
X-59694Y170922D01*
Y167113D01*
Y169652D02*
X-57155Y172191D01*
Y179809D02*
Y174730D01*
X-62234Y179809D01*
X-63503D01*
X-64773Y178539D01*
Y176000D01*
X-63503Y174730D01*
X-57155Y182348D02*
Y184887D01*
Y183618D01*
X-64773D01*
X-63503Y182348D01*
X189843Y-133809D02*
Y-126191D01*
X193652D01*
X194922Y-127461D01*
Y-130000D01*
X193652Y-131270D01*
X189843D01*
X192383D02*
X194922Y-133809D01*
X202539D02*
X197461D01*
X202539Y-128730D01*
Y-127461D01*
X201270Y-126191D01*
X198730D01*
X197461Y-127461D01*
X205078Y-126191D02*
X210157D01*
Y-127461D01*
X205078Y-132539D01*
Y-133809D01*
X180809Y-57157D02*
X173191D01*
Y-53348D01*
X174461Y-52078D01*
X177000D01*
X178270Y-53348D01*
Y-57157D01*
Y-54618D02*
X180809Y-52078D01*
Y-44461D02*
Y-49539D01*
X175730Y-44461D01*
X174461D01*
X173191Y-45730D01*
Y-48270D01*
X174461Y-49539D01*
Y-41922D02*
X173191Y-40652D01*
Y-38113D01*
X174461Y-36843D01*
X175730D01*
X177000Y-38113D01*
X178270Y-36843D01*
X179539D01*
X180809Y-38113D01*
Y-40652D01*
X179539Y-41922D01*
X178270D01*
X177000Y-40652D01*
X175730Y-41922D01*
X174461D01*
X177000Y-40652D02*
Y-38113D01*
X153843Y-30809D02*
Y-23191D01*
X157652D01*
X158922Y-24461D01*
Y-27000D01*
X157652Y-28270D01*
X153843D01*
X156383D02*
X158922Y-30809D01*
X166539D02*
X161461D01*
X166539Y-25730D01*
Y-24461D01*
X165270Y-23191D01*
X162730D01*
X161461Y-24461D01*
X169078Y-29539D02*
X170348Y-30809D01*
X172887D01*
X174157Y-29539D01*
Y-24461D01*
X172887Y-23191D01*
X170348D01*
X169078Y-24461D01*
Y-25730D01*
X170348Y-27000D01*
X174157D01*
X-57191Y189652D02*
X-64809D01*
Y193461D01*
X-63539Y194730D01*
X-61000D01*
X-59730Y193461D01*
Y189652D01*
Y192191D02*
X-57191Y194730D01*
X-63539Y197270D02*
X-64809Y198539D01*
Y201078D01*
X-63539Y202348D01*
X-62270D01*
X-61000Y201078D01*
X-59730Y202348D01*
X-58461D01*
X-57191Y201078D01*
Y198539D01*
X-58461Y197270D01*
X-59730D01*
X-61000Y198539D01*
X-62270Y197270D01*
X-63539D01*
X-61000Y198539D02*
Y201078D01*
X211809Y332652D02*
X204191D01*
Y336461D01*
X205461Y337730D01*
X208000D01*
X209270Y336461D01*
Y332652D01*
Y335191D02*
X211809Y337730D01*
X210539Y340270D02*
X211809Y341539D01*
Y344078D01*
X210539Y345348D01*
X205461D01*
X204191Y344078D01*
Y341539D01*
X205461Y340270D01*
X206730D01*
X208000Y341539D01*
Y345348D01*
X71843Y198191D02*
Y205809D01*
X75652D01*
X76922Y204539D01*
Y202000D01*
X75652Y200730D01*
X71843D01*
X74383D02*
X76922Y198191D01*
X79461Y204539D02*
X80730Y205809D01*
X83270D01*
X84539Y204539D01*
Y203270D01*
X83270Y202000D01*
X82000D01*
X83270D01*
X84539Y200730D01*
Y199461D01*
X83270Y198191D01*
X80730D01*
X79461Y199461D01*
X92157Y198191D02*
X87078D01*
X92157Y203270D01*
Y204539D01*
X90887Y205809D01*
X88348D01*
X87078Y204539D01*
X-180191Y-11157D02*
X-187809D01*
Y-7348D01*
X-186539Y-6078D01*
X-184000D01*
X-182730Y-7348D01*
Y-11157D01*
Y-8618D02*
X-180191Y-6078D01*
X-186539Y-3539D02*
X-187809Y-2270D01*
Y270D01*
X-186539Y1539D01*
X-185270D01*
X-184000Y270D01*
Y-1000D01*
Y270D01*
X-182730Y1539D01*
X-181461D01*
X-180191Y270D01*
Y-2270D01*
X-181461Y-3539D01*
X-186539Y4078D02*
X-187809Y5348D01*
Y7887D01*
X-186539Y9157D01*
X-185270D01*
X-184000Y7887D01*
Y6618D01*
Y7887D01*
X-182730Y9157D01*
X-181461D01*
X-180191Y7887D01*
Y5348D01*
X-181461Y4078D01*
X-170191Y-11157D02*
X-177809D01*
Y-7348D01*
X-176539Y-6078D01*
X-174000D01*
X-172730Y-7348D01*
Y-11157D01*
Y-8618D02*
X-170191Y-6078D01*
X-176539Y-3539D02*
X-177809Y-2270D01*
Y270D01*
X-176539Y1539D01*
X-175270D01*
X-174000Y270D01*
Y-1000D01*
Y270D01*
X-172730Y1539D01*
X-171461D01*
X-170191Y270D01*
Y-2270D01*
X-171461Y-3539D01*
X-170191Y7887D02*
X-177809D01*
X-174000Y4078D01*
Y9157D01*
X-190191Y-11157D02*
X-197809D01*
Y-7348D01*
X-196539Y-6078D01*
X-194000D01*
X-192731Y-7348D01*
Y-11157D01*
Y-8618D02*
X-190191Y-6078D01*
X-196539Y-3539D02*
X-197809Y-2270D01*
Y270D01*
X-196539Y1539D01*
X-195270D01*
X-194000Y270D01*
Y-1000D01*
Y270D01*
X-192731Y1539D01*
X-191461D01*
X-190191Y270D01*
Y-2270D01*
X-191461Y-3539D01*
X-197809Y4078D02*
Y9157D01*
X-196539D01*
X-191461Y4078D01*
X-190191D01*
X-66191Y99843D02*
X-73809D01*
Y103652D01*
X-72539Y104922D01*
X-70000D01*
X-68730Y103652D01*
Y99843D01*
Y102382D02*
X-66191Y104922D01*
X-72539Y107461D02*
X-73809Y108730D01*
Y111270D01*
X-72539Y112539D01*
X-71270D01*
X-70000Y111270D01*
Y110000D01*
Y111270D01*
X-68730Y112539D01*
X-67461D01*
X-66191Y111270D01*
Y108730D01*
X-67461Y107461D01*
X-72539Y115078D02*
X-73809Y116348D01*
Y118887D01*
X-72539Y120157D01*
X-71270D01*
X-70000Y118887D01*
X-68730Y120157D01*
X-67461D01*
X-66191Y118887D01*
Y116348D01*
X-67461Y115078D01*
X-68730D01*
X-70000Y116348D01*
X-71270Y115078D01*
X-72539D01*
X-70000Y116348D02*
Y118887D01*
X-127191Y21843D02*
X-134809D01*
Y25652D01*
X-133539Y26922D01*
X-131000D01*
X-129730Y25652D01*
Y21843D01*
Y24383D02*
X-127191Y26922D01*
X-133539Y29461D02*
X-134809Y30730D01*
Y33270D01*
X-133539Y34539D01*
X-132270D01*
X-131000Y33270D01*
Y32000D01*
Y33270D01*
X-129730Y34539D01*
X-128461D01*
X-127191Y33270D01*
Y30730D01*
X-128461Y29461D01*
Y37078D02*
X-127191Y38348D01*
Y40887D01*
X-128461Y42157D01*
X-133539D01*
X-134809Y40887D01*
Y38348D01*
X-133539Y37078D01*
X-132270D01*
X-131000Y38348D01*
Y42157D01*
X28809Y-6157D02*
X21191D01*
Y-2348D01*
X22461Y-1078D01*
X25000D01*
X26270Y-2348D01*
Y-6157D01*
Y-3618D02*
X28809Y-1078D01*
Y5270D02*
X21191D01*
X25000Y1461D01*
Y6539D01*
X22461Y9078D02*
X21191Y10348D01*
Y12887D01*
X22461Y14157D01*
X27539D01*
X28809Y12887D01*
Y10348D01*
X27539Y9078D01*
X22461D01*
X-79887Y-42809D02*
Y-35191D01*
X-76078D01*
X-74809Y-36461D01*
Y-39000D01*
X-76078Y-40270D01*
X-79887D01*
X-77348D02*
X-74809Y-42809D01*
X-68461D02*
Y-35191D01*
X-72270Y-39000D01*
X-67191D01*
X-64652Y-42809D02*
X-62113D01*
X-63382D01*
Y-35191D01*
X-64652Y-36461D01*
X-10157Y316191D02*
Y323809D01*
X-6348D01*
X-5078Y322539D01*
Y320000D01*
X-6348Y318730D01*
X-10157D01*
X-7617D02*
X-5078Y316191D01*
X1270D02*
Y323809D01*
X-2539Y320000D01*
X2539D01*
X10157Y316191D02*
X5078D01*
X10157Y321270D01*
Y322539D01*
X8887Y323809D01*
X6348D01*
X5078Y322539D01*
X-77191Y99843D02*
X-84809D01*
Y103652D01*
X-83539Y104922D01*
X-81000D01*
X-79730Y103652D01*
Y99843D01*
Y102382D02*
X-77191Y104922D01*
Y111270D02*
X-84809D01*
X-81000Y107461D01*
Y112539D01*
X-83539Y115078D02*
X-84809Y116348D01*
Y118887D01*
X-83539Y120157D01*
X-82270D01*
X-81000Y118887D01*
Y117618D01*
Y118887D01*
X-79730Y120157D01*
X-78461D01*
X-77191Y118887D01*
Y116348D01*
X-78461Y115078D01*
X-55191Y99843D02*
X-62809D01*
Y103652D01*
X-61539Y104922D01*
X-59000D01*
X-57730Y103652D01*
Y99843D01*
Y102382D02*
X-55191Y104922D01*
Y111270D02*
X-62809D01*
X-59000Y107461D01*
Y112539D01*
X-55191Y118887D02*
X-62809D01*
X-59000Y115078D01*
Y120157D01*
X-49539Y265000D02*
X-50809Y263730D01*
Y261191D01*
X-49539Y259922D01*
X-48270D01*
X-47000Y261191D01*
Y263730D01*
X-45730Y265000D01*
X-44461D01*
X-43191Y263730D01*
Y261191D01*
X-44461Y259922D01*
X-43191Y267539D02*
Y270078D01*
Y268809D01*
X-50809D01*
X-49539Y267539D01*
X255922Y-353461D02*
X254652Y-352191D01*
X252113D01*
X250843Y-353461D01*
Y-358539D01*
X252113Y-359809D01*
X254652D01*
X255922Y-358539D01*
X258461D02*
X259730Y-359809D01*
X262270D01*
X263539Y-358539D01*
Y-353461D01*
X262270Y-352191D01*
X259730D01*
X258461Y-353461D01*
Y-354730D01*
X259730Y-356000D01*
X263539D01*
X266078Y-358539D02*
X267348Y-359809D01*
X269887D01*
X271157Y-358539D01*
Y-353461D01*
X269887Y-352191D01*
X267348D01*
X266078Y-353461D01*
Y-354730D01*
X267348Y-356000D01*
X271157D01*
X255748Y-383461D02*
X254478Y-382191D01*
X251939D01*
X250669Y-383461D01*
Y-388539D01*
X251939Y-389809D01*
X254478D01*
X255748Y-388539D01*
X258287Y-389809D02*
X260826D01*
X259557D01*
Y-382191D01*
X258287Y-383461D01*
X264635D02*
X265904Y-382191D01*
X268444D01*
X269713Y-383461D01*
Y-388539D01*
X268444Y-389809D01*
X265904D01*
X264635Y-388539D01*
Y-383461D01*
X272252D02*
X273522Y-382191D01*
X276061D01*
X277331Y-383461D01*
Y-388539D01*
X276061Y-389809D01*
X273522D01*
X272252Y-388539D01*
Y-383461D01*
X242843Y-373809D02*
Y-366191D01*
X246652D01*
X247922Y-367461D01*
Y-370000D01*
X246652Y-371270D01*
X242843D01*
X245382D02*
X247922Y-373809D01*
X250461Y-366191D02*
X255539D01*
Y-367461D01*
X250461Y-372539D01*
Y-373809D01*
X263157Y-366191D02*
X258078D01*
Y-370000D01*
X260618Y-368730D01*
X261887D01*
X263157Y-370000D01*
Y-372539D01*
X261887Y-373809D01*
X259348D01*
X258078Y-372539D01*
X55809Y-293157D02*
X48191D01*
Y-289348D01*
X49461Y-288078D01*
X52000D01*
X53270Y-289348D01*
Y-293157D01*
Y-290618D02*
X55809Y-288078D01*
X49461Y-285539D02*
X48191Y-284270D01*
Y-281730D01*
X49461Y-280461D01*
X50730D01*
X52000Y-281730D01*
X53270Y-280461D01*
X54539D01*
X55809Y-281730D01*
Y-284270D01*
X54539Y-285539D01*
X53270D01*
X52000Y-284270D01*
X50730Y-285539D01*
X49461D01*
X52000Y-284270D02*
Y-281730D01*
X55809Y-274113D02*
X48191D01*
X52000Y-277922D01*
Y-272843D01*
X-224078Y-344461D02*
X-225348Y-343191D01*
X-227887D01*
X-229157Y-344461D01*
Y-349539D01*
X-227887Y-350809D01*
X-225348D01*
X-224078Y-349539D01*
X-221539Y-344461D02*
X-220270Y-343191D01*
X-217730D01*
X-216461Y-344461D01*
Y-345730D01*
X-217730Y-347000D01*
X-216461Y-348270D01*
Y-349539D01*
X-217730Y-350809D01*
X-220270D01*
X-221539Y-349539D01*
Y-348270D01*
X-220270Y-347000D01*
X-221539Y-345730D01*
Y-344461D01*
X-220270Y-347000D02*
X-217730D01*
X-213922Y-343191D02*
X-208843D01*
Y-344461D01*
X-213922Y-349539D01*
Y-350809D01*
X-216539Y-422078D02*
X-217809Y-423348D01*
Y-425887D01*
X-216539Y-427157D01*
X-211461D01*
X-210191Y-425887D01*
Y-423348D01*
X-211461Y-422078D01*
X-216539Y-419539D02*
X-217809Y-418270D01*
Y-415730D01*
X-216539Y-414461D01*
X-215270D01*
X-214000Y-415730D01*
X-212730Y-414461D01*
X-211461D01*
X-210191Y-415730D01*
Y-418270D01*
X-211461Y-419539D01*
X-212730D01*
X-214000Y-418270D01*
X-215270Y-419539D01*
X-216539D01*
X-214000Y-418270D02*
Y-415730D01*
X-216539Y-411922D02*
X-217809Y-410652D01*
Y-408113D01*
X-216539Y-406843D01*
X-215270D01*
X-214000Y-408113D01*
X-212730Y-406843D01*
X-211461D01*
X-210191Y-408113D01*
Y-410652D01*
X-211461Y-411922D01*
X-212730D01*
X-214000Y-410652D01*
X-215270Y-411922D01*
X-216539D01*
X-214000Y-410652D02*
Y-408113D01*
X-199191Y-384157D02*
X-206809D01*
Y-380348D01*
X-205539Y-379078D01*
X-203000D01*
X-201730Y-380348D01*
Y-384157D01*
Y-381618D02*
X-199191Y-379078D01*
X-206809Y-371461D02*
X-205539Y-374000D01*
X-203000Y-376539D01*
X-200461D01*
X-199191Y-375270D01*
Y-372730D01*
X-200461Y-371461D01*
X-201730D01*
X-203000Y-372730D01*
Y-376539D01*
X-200461Y-368922D02*
X-199191Y-367652D01*
Y-365113D01*
X-200461Y-363843D01*
X-205539D01*
X-206809Y-365113D01*
Y-367652D01*
X-205539Y-368922D01*
X-204270D01*
X-203000Y-367652D01*
Y-363843D01*
X-147819Y-295157D02*
X-155437D01*
Y-291348D01*
X-154167Y-290078D01*
X-151628D01*
X-150358Y-291348D01*
Y-295157D01*
Y-292618D02*
X-147819Y-290078D01*
X-154167Y-287539D02*
X-155437Y-286270D01*
Y-283731D01*
X-154167Y-282461D01*
X-152898D01*
X-151628Y-283731D01*
X-150358Y-282461D01*
X-149089D01*
X-147819Y-283731D01*
Y-286270D01*
X-149089Y-287539D01*
X-150358D01*
X-151628Y-286270D01*
X-152898Y-287539D01*
X-154167D01*
X-151628Y-286270D02*
Y-283731D01*
X-154167Y-279922D02*
X-155437Y-278652D01*
Y-276113D01*
X-154167Y-274843D01*
X-152898D01*
X-151628Y-276113D01*
Y-277383D01*
Y-276113D01*
X-150358Y-274843D01*
X-149089D01*
X-147819Y-276113D01*
Y-278652D01*
X-149089Y-279922D01*
X79922Y12539D02*
X78652Y13809D01*
X76113D01*
X74843Y12539D01*
Y7461D01*
X76113Y6191D01*
X78652D01*
X79922Y7461D01*
X82461Y12539D02*
X83730Y13809D01*
X86270D01*
X87539Y12539D01*
Y11270D01*
X86270Y10000D01*
X85000D01*
X86270D01*
X87539Y8730D01*
Y7461D01*
X86270Y6191D01*
X83730D01*
X82461Y7461D01*
X90078D02*
X91348Y6191D01*
X93887D01*
X95157Y7461D01*
Y12539D01*
X93887Y13809D01*
X91348D01*
X90078Y12539D01*
Y11270D01*
X91348Y10000D01*
X95157D01*
X48461Y-1078D02*
X47191Y-2348D01*
Y-4887D01*
X48461Y-6157D01*
X53539D01*
X54809Y-4887D01*
Y-2348D01*
X53539Y-1078D01*
X54809Y5270D02*
X47191D01*
X51000Y1461D01*
Y6539D01*
X48461Y9078D02*
X47191Y10348D01*
Y12887D01*
X48461Y14157D01*
X53539D01*
X54809Y12887D01*
Y10348D01*
X53539Y9078D01*
X48461D01*
X229191Y-134461D02*
X227922Y-133191D01*
X225382D01*
X224113Y-134461D01*
Y-139539D01*
X225382Y-140809D01*
X227922D01*
X229191Y-139539D01*
X235539Y-140809D02*
Y-133191D01*
X231730Y-137000D01*
X236809D01*
X239348Y-140809D02*
X241887D01*
X240618D01*
Y-133191D01*
X239348Y-134461D01*
X228922Y-145461D02*
X227652Y-144191D01*
X225113D01*
X223843Y-145461D01*
Y-150539D01*
X225113Y-151809D01*
X227652D01*
X228922Y-150539D01*
X235270Y-151809D02*
Y-144191D01*
X231461Y-148000D01*
X236539D01*
X244157Y-151809D02*
X239078D01*
X244157Y-146730D01*
Y-145461D01*
X242887Y-144191D01*
X240348D01*
X239078Y-145461D01*
X74843Y28191D02*
Y35809D01*
X78652D01*
X79922Y34539D01*
Y32000D01*
X78652Y30730D01*
X74843D01*
X77382D02*
X79922Y28191D01*
X86270D02*
Y35809D01*
X82461Y32000D01*
X87539D01*
X95157Y35809D02*
X92618Y34539D01*
X90078Y32000D01*
Y29461D01*
X91348Y28191D01*
X93887D01*
X95157Y29461D01*
Y30730D01*
X93887Y32000D01*
X90078D01*
X219843Y-198809D02*
Y-191191D01*
X223652D01*
X224922Y-192461D01*
Y-195000D01*
X223652Y-196270D01*
X219843D01*
X222383D02*
X224922Y-198809D01*
X231270D02*
Y-191191D01*
X227461Y-195000D01*
X232539D01*
X235078Y-192461D02*
X236348Y-191191D01*
X238887D01*
X240157Y-192461D01*
Y-193730D01*
X238887Y-195000D01*
X240157Y-196270D01*
Y-197539D01*
X238887Y-198809D01*
X236348D01*
X235078Y-197539D01*
Y-196270D01*
X236348Y-195000D01*
X235078Y-193730D01*
Y-192461D01*
X236348Y-195000D02*
X238887D01*
X-29156Y170191D02*
Y177809D01*
X-25347D01*
X-24077Y176539D01*
Y174000D01*
X-25347Y172730D01*
X-29156D01*
X-26617D02*
X-24077Y170191D01*
X-17730D02*
Y177809D01*
X-21538Y174000D01*
X-16460D01*
X-13921Y171461D02*
X-12651Y170191D01*
X-10112D01*
X-8842Y171461D01*
Y176539D01*
X-10112Y177809D01*
X-12651D01*
X-13921Y176539D01*
Y175270D01*
X-12651Y174000D01*
X-8842D01*
X-30160Y134188D02*
Y141806D01*
X-26351D01*
X-25081Y140536D01*
Y137997D01*
X-26351Y136727D01*
X-30160D01*
X-27620D02*
X-25081Y134188D01*
X-17464Y141806D02*
X-22542D01*
Y137997D01*
X-20003Y139266D01*
X-18733D01*
X-17464Y137997D01*
Y135458D01*
X-18733Y134188D01*
X-21273D01*
X-22542Y135458D01*
X-14925Y140536D02*
X-13655Y141806D01*
X-11116D01*
X-9846Y140536D01*
Y135458D01*
X-11116Y134188D01*
X-13655D01*
X-14925Y135458D01*
Y140536D01*
X-164078Y-260461D02*
X-165348Y-259191D01*
X-167887D01*
X-169157Y-260461D01*
Y-265539D01*
X-167887Y-266809D01*
X-165348D01*
X-164078Y-265539D01*
X-157730Y-266809D02*
Y-259191D01*
X-161539Y-263000D01*
X-156461D01*
X-153922Y-260461D02*
X-152652Y-259191D01*
X-150113D01*
X-148843Y-260461D01*
Y-261730D01*
X-150113Y-263000D01*
X-151383D01*
X-150113D01*
X-148843Y-264270D01*
Y-265539D01*
X-150113Y-266809D01*
X-152652D01*
X-153922Y-265539D01*
X-178539Y-227078D02*
X-179809Y-228348D01*
Y-230887D01*
X-178539Y-232157D01*
X-173461D01*
X-172191Y-230887D01*
Y-228348D01*
X-173461Y-227078D01*
X-172191Y-220730D02*
X-179809D01*
X-176000Y-224539D01*
Y-219461D01*
X-172191Y-213113D02*
X-179809D01*
X-176000Y-216922D01*
Y-211843D01*
X-139809Y225748D02*
X-132191D01*
Y229557D01*
X-133461Y230826D01*
X-138539D01*
X-139809Y229557D01*
Y225748D01*
X-132191Y233365D02*
Y235904D01*
Y234635D01*
X-139809D01*
X-138539Y233365D01*
X-132191Y239713D02*
Y242252D01*
Y240983D01*
X-139809D01*
X-138539Y239713D01*
X-102191Y224113D02*
X-109809D01*
Y227922D01*
X-108539Y229191D01*
X-106000D01*
X-104730Y227922D01*
Y224113D01*
Y226652D02*
X-102191Y229191D01*
X-109809Y236809D02*
Y231730D01*
X-106000D01*
X-107270Y234270D01*
Y235539D01*
X-106000Y236809D01*
X-103461D01*
X-102191Y235539D01*
Y233000D01*
X-103461Y231730D01*
X-102191Y239348D02*
Y241887D01*
Y240618D01*
X-109809D01*
X-108539Y239348D01*
X-132157Y215191D02*
Y222809D01*
X-128348D01*
X-127078Y221539D01*
Y219000D01*
X-128348Y217730D01*
X-132157D01*
X-129618D02*
X-127078Y215191D01*
X-119461Y222809D02*
X-124539D01*
Y219000D01*
X-122000Y220270D01*
X-120730D01*
X-119461Y219000D01*
Y216461D01*
X-120730Y215191D01*
X-123270D01*
X-124539Y216461D01*
X-111843Y215191D02*
X-116922D01*
X-111843Y220270D01*
Y221539D01*
X-113113Y222809D01*
X-115652D01*
X-116922Y221539D01*
X106809Y-284348D02*
X99191D01*
Y-280539D01*
X100461Y-279270D01*
X103000D01*
X104270Y-280539D01*
Y-284348D01*
X100461Y-276730D02*
X99191Y-275461D01*
Y-272922D01*
X100461Y-271652D01*
X101730D01*
X103000Y-272922D01*
Y-274191D01*
Y-272922D01*
X104270Y-271652D01*
X105539D01*
X106809Y-272922D01*
Y-275461D01*
X105539Y-276730D01*
X195843Y-199809D02*
Y-192191D01*
X199652D01*
X200922Y-193461D01*
Y-196000D01*
X199652Y-197270D01*
X195843D01*
X198382D02*
X200922Y-199809D01*
X208539D02*
X203461D01*
X208539Y-194730D01*
Y-193461D01*
X207270Y-192191D01*
X204730D01*
X203461Y-193461D01*
X216157Y-199809D02*
X211078D01*
X216157Y-194730D01*
Y-193461D01*
X214887Y-192191D01*
X212348D01*
X211078Y-193461D01*
X74843Y17191D02*
Y24809D01*
X78652D01*
X79922Y23539D01*
Y21000D01*
X78652Y19730D01*
X74843D01*
X77382D02*
X79922Y17191D01*
X87539D02*
X82461D01*
X87539Y22270D01*
Y23539D01*
X86270Y24809D01*
X83730D01*
X82461Y23539D01*
X93887Y17191D02*
Y24809D01*
X90078Y21000D01*
X95157D01*
X-167890Y-334620D02*
X-169159Y-333350D01*
X-171698D01*
X-172968Y-334620D01*
Y-339698D01*
X-171698Y-340968D01*
X-169159D01*
X-167890Y-339698D01*
Y-337159D01*
X-170429D01*
X-165350Y-340968D02*
Y-333350D01*
X-160272Y-340968D01*
Y-333350D01*
X-157733D02*
Y-340968D01*
X-153924D01*
X-152655Y-339698D01*
Y-334620D01*
X-153924Y-333350D01*
X-157733D01*
X-172968Y-323620D02*
X-171698Y-322351D01*
X-169159D01*
X-167890Y-323620D01*
Y-324890D01*
X-169159Y-326159D01*
X-170429D01*
X-169159D01*
X-167890Y-327429D01*
Y-328698D01*
X-169159Y-329968D01*
X-171698D01*
X-172968Y-328698D01*
X-165350Y-322351D02*
Y-327429D01*
X-162811Y-329968D01*
X-160272Y-327429D01*
Y-322351D01*
X-157733Y-323620D02*
X-156463Y-322351D01*
X-153924D01*
X-152655Y-323620D01*
Y-324890D01*
X-153924Y-326159D01*
X-155194D01*
X-153924D01*
X-152655Y-327429D01*
Y-328698D01*
X-153924Y-329968D01*
X-156463D01*
X-157733Y-328698D01*
X-167890Y-312620D02*
X-169159Y-311350D01*
X-171698D01*
X-172968Y-312620D01*
Y-317698D01*
X-171698Y-318968D01*
X-169159D01*
X-167890Y-317698D01*
Y-315159D01*
X-170429D01*
X-165350Y-311350D02*
Y-318968D01*
X-161542D01*
X-160272Y-317698D01*
Y-312620D01*
X-161542Y-311350D01*
X-165350D01*
X-157733Y-318968D02*
X-155194D01*
X-156463D01*
Y-311350D01*
X-157733Y-312620D01*
X-167890Y-301620D02*
X-169159Y-300350D01*
X-171698D01*
X-172968Y-301620D01*
Y-306698D01*
X-171698Y-307968D01*
X-169159D01*
X-167890Y-306698D01*
Y-304159D01*
X-170429D01*
X-165350Y-300350D02*
Y-307968D01*
X-161542D01*
X-160272Y-306698D01*
Y-301620D01*
X-161542Y-300350D01*
X-165350D01*
X-157733Y-301620D02*
X-156463Y-300350D01*
X-153924D01*
X-152655Y-301620D01*
Y-306698D01*
X-153924Y-307968D01*
X-156463D01*
X-157733Y-306698D01*
Y-301620D01*
X-80380Y234110D02*
X-81650Y232841D01*
Y230302D01*
X-80380Y229032D01*
X-75302D01*
X-74032Y230302D01*
Y232841D01*
X-75302Y234110D01*
X-77841D01*
Y231571D01*
X-74032Y236649D02*
X-81650D01*
X-74032Y241728D01*
X-81650D01*
Y244267D02*
X-74032D01*
Y248076D01*
X-75302Y249345D01*
X-80380D01*
X-81650Y248076D01*
Y244267D01*
X-70380Y229032D02*
X-71649Y230302D01*
Y232841D01*
X-70380Y234110D01*
X-69110D01*
X-67841Y232841D01*
Y231571D01*
Y232841D01*
X-66571Y234110D01*
X-65302D01*
X-64032Y232841D01*
Y230302D01*
X-65302Y229032D01*
X-71649Y236649D02*
X-66571D01*
X-64032Y239189D01*
X-66571Y241728D01*
X-71649D01*
X-70380Y244267D02*
X-71649Y245537D01*
Y248076D01*
X-70380Y249345D01*
X-69110D01*
X-67841Y248076D01*
Y246806D01*
Y248076D01*
X-66571Y249345D01*
X-65302D01*
X-64032Y248076D01*
Y245537D01*
X-65302Y244267D01*
X-60380Y234110D02*
X-61649Y232841D01*
Y230302D01*
X-60380Y229032D01*
X-59110D01*
X-57841Y230302D01*
Y232841D01*
X-56571Y234110D01*
X-55302D01*
X-54032Y232841D01*
Y230302D01*
X-55302Y229032D01*
X-61649Y236649D02*
X-54032D01*
Y240458D01*
X-55302Y241728D01*
X-60380D01*
X-61649Y240458D01*
Y236649D01*
X-54032Y244267D02*
X-59110D01*
X-61649Y246806D01*
X-59110Y249345D01*
X-54032D01*
X-57841D01*
Y244267D01*
X-50380Y234110D02*
X-51649Y232841D01*
Y230302D01*
X-50380Y229032D01*
X-45302D01*
X-44032Y230302D01*
Y232841D01*
X-45302Y234110D01*
X-51649Y236649D02*
X-44032D01*
Y241728D01*
X-51649Y244267D02*
X-44032D01*
X-46571D01*
X-51649Y249345D01*
X-47841Y245537D01*
X-44032Y249345D01*
G54D20*
X223650Y210201D02*
D03*
M02*
