G04*
G04 #@! TF.GenerationSoftware,Altium Limited,Altium Designer,21.9.2 (33)*
G04*
G04 Layer_Physical_Order=2*
G04 Layer_Color=32768*
%FSLAX44Y44*%
%MOMM*%
G71*
G04*
G04 #@! TF.SameCoordinates,2677EA57-048B-4CE0-8197-23F7109DD1FC*
G04*
G04*
G04 #@! TF.FilePolarity,Negative*
G04*
G01*
G75*
%ADD149C,1.0160*%
%ADD174C,1.2556*%
%ADD175C,1.4556*%
%ADD176C,1.0056*%
%ADD177C,1.1556*%
%ADD178C,1.3556*%
%ADD179C,0.6556*%
G36*
X-162668Y241239D02*
X-161261Y239832D01*
X-160500Y237994D01*
X-160500Y237000D01*
X-160500Y237000D01*
X-160500Y223000D01*
Y222005D01*
X-161261Y220168D01*
X-162668Y218761D01*
X-164506Y218000D01*
X-166495D01*
X-168332Y218761D01*
X-169739Y220168D01*
X-170500Y222005D01*
Y223000D01*
X-170500D01*
Y232000D01*
X-171500D01*
Y190000D01*
X-171500D01*
Y190994D01*
X-170739Y192832D01*
X-169332Y194239D01*
X-167495Y195000D01*
X-166500Y195000D01*
X-165506D01*
X-163668Y194239D01*
X-162261Y192832D01*
X-161500Y190994D01*
Y190000D01*
Y179000D01*
Y178005D01*
X-162261Y176168D01*
X-163668Y174761D01*
X-165506Y174000D01*
X-224495D01*
X-226332Y174761D01*
X-227739Y176168D01*
X-228500Y178005D01*
Y179000D01*
Y199000D01*
Y199995D01*
X-227739Y201832D01*
X-226332Y203239D01*
X-224495Y204000D01*
X-222505D01*
X-220668Y203239D01*
X-219261Y201832D01*
X-218500Y199995D01*
Y199000D01*
Y184000D01*
X-171500D01*
Y186000D01*
X-217500D01*
Y232000D01*
X-218500D01*
X-218500Y221000D01*
X-218512Y220016D01*
X-219284Y218205D01*
X-220690Y216827D01*
X-222515Y216089D01*
X-223499Y216097D01*
X-224494Y216097D01*
X-226332Y216858D01*
X-227739Y218265D01*
X-228500Y220103D01*
Y221098D01*
Y237000D01*
Y237994D01*
X-227739Y239832D01*
X-226332Y241239D01*
X-224495Y242000D01*
X-223500Y242000D01*
X-223500Y242000D01*
X-165500Y242000D01*
X-164506Y242000D01*
X-162668Y241239D01*
D02*
G37*
G36*
X-101500Y183000D02*
X-146500D01*
Y229000D01*
X-140500D01*
Y217000D01*
X-135500D01*
Y229000D01*
X-101500D01*
Y183000D01*
D02*
G37*
G36*
X80500Y-14000D02*
X-53500D01*
Y26000D01*
X80500D01*
Y-14000D01*
D02*
G37*
G36*
X-101500Y-183000D02*
X53500D01*
Y-204000D01*
X74324D01*
Y-265000D01*
X269004D01*
Y-414000D01*
X-98628D01*
Y-409000D01*
X-188628D01*
Y-414000D01*
X-268986D01*
Y-255000D01*
X-139492D01*
Y-162000D01*
X-101500D01*
Y-183000D01*
D02*
G37*
%LPC*%
G36*
X-182500Y232000D02*
X-187500D01*
Y224000D01*
X-182500D01*
Y232000D01*
D02*
G37*
G36*
X-98628Y-389000D02*
X-188628D01*
Y-389000D01*
X-98628D01*
Y-389000D01*
D02*
G37*
G36*
X-153099Y-390824D02*
X-153334D01*
X-153734Y-390847D01*
X-154110Y-390871D01*
X-154838Y-390988D01*
X-155449Y-391176D01*
X-155731Y-391270D01*
X-155989Y-391388D01*
X-156224Y-391482D01*
X-156412Y-391599D01*
X-156600Y-391693D01*
X-156741Y-391764D01*
X-156859Y-391858D01*
X-156929Y-391905D01*
X-156976Y-391928D01*
X-157000Y-391952D01*
X-157258Y-392187D01*
X-157493Y-392421D01*
X-157704Y-392704D01*
X-157892Y-393009D01*
X-158174Y-393620D01*
X-158409Y-394207D01*
X-158480Y-394513D01*
X-158550Y-394771D01*
X-158621Y-395006D01*
X-158644Y-395217D01*
X-158691Y-395405D01*
Y-395523D01*
X-158715Y-395617D01*
Y-395640D01*
X-155613Y-395946D01*
X-155566Y-395476D01*
X-155472Y-395076D01*
X-155378Y-394724D01*
X-155261Y-394466D01*
X-155167Y-394254D01*
X-155073Y-394113D01*
X-155002Y-394019D01*
X-154979Y-393996D01*
X-154744Y-393808D01*
X-154486Y-393667D01*
X-154227Y-393549D01*
X-153969Y-393479D01*
X-153757Y-393432D01*
X-153569Y-393408D01*
X-153405D01*
X-153052Y-393432D01*
X-152747Y-393502D01*
X-152488Y-393596D01*
X-152254Y-393690D01*
X-152089Y-393784D01*
X-151948Y-393878D01*
X-151878Y-393949D01*
X-151854Y-393972D01*
X-151666Y-394207D01*
X-151525Y-394466D01*
X-151431Y-394724D01*
X-151361Y-394982D01*
X-151314Y-395217D01*
X-151290Y-395429D01*
Y-395546D01*
Y-395570D01*
Y-395593D01*
X-151314Y-395946D01*
X-151384Y-396275D01*
X-151502Y-396604D01*
X-151619Y-396886D01*
X-151737Y-397144D01*
X-151854Y-397332D01*
X-151925Y-397449D01*
X-151948Y-397496D01*
X-152042Y-397637D01*
X-152183Y-397802D01*
X-152371Y-398013D01*
X-152559Y-398201D01*
X-152982Y-398648D01*
X-153405Y-399094D01*
X-153828Y-399517D01*
X-154016Y-399705D01*
X-154204Y-399846D01*
X-154345Y-399987D01*
X-154439Y-400081D01*
X-154509Y-400151D01*
X-154533Y-400175D01*
X-155002Y-400621D01*
X-155425Y-401044D01*
X-155825Y-401444D01*
X-156177Y-401796D01*
X-156506Y-402149D01*
X-156788Y-402477D01*
X-157046Y-402759D01*
X-157258Y-403041D01*
X-157446Y-403276D01*
X-157610Y-403488D01*
X-157751Y-403652D01*
X-157845Y-403817D01*
X-157939Y-403911D01*
X-157986Y-404005D01*
X-158033Y-404052D01*
Y-404075D01*
X-158339Y-404615D01*
X-158574Y-405179D01*
X-158762Y-405696D01*
X-158903Y-406166D01*
X-158997Y-406589D01*
X-159020Y-406754D01*
X-159044Y-406894D01*
X-159067Y-407012D01*
X-159091Y-407106D01*
Y-407176D01*
X-148165D01*
Y-404286D01*
X-154368D01*
X-154180Y-403981D01*
X-153969Y-403723D01*
X-153875Y-403605D01*
X-153804Y-403511D01*
X-153757Y-403464D01*
X-153734Y-403441D01*
X-153640Y-403347D01*
X-153546Y-403229D01*
X-153264Y-402971D01*
X-152958Y-402665D01*
X-152653Y-402360D01*
X-152347Y-402078D01*
X-152089Y-401843D01*
X-151995Y-401749D01*
X-151925Y-401679D01*
X-151878Y-401655D01*
X-151854Y-401632D01*
X-151337Y-401138D01*
X-150914Y-400739D01*
X-150562Y-400363D01*
X-150280Y-400081D01*
X-150069Y-399846D01*
X-149928Y-399682D01*
X-149834Y-399564D01*
X-149810Y-399540D01*
X-149505Y-399141D01*
X-149246Y-398765D01*
X-149035Y-398413D01*
X-148870Y-398107D01*
X-148729Y-397849D01*
X-148635Y-397637D01*
X-148588Y-397520D01*
X-148565Y-397473D01*
X-148424Y-397097D01*
X-148330Y-396721D01*
X-148259Y-396369D01*
X-148212Y-396040D01*
X-148189Y-395781D01*
X-148165Y-395570D01*
Y-395382D01*
X-148189Y-395029D01*
X-148236Y-394677D01*
X-148283Y-394348D01*
X-148377Y-394043D01*
X-148612Y-393502D01*
X-148847Y-393032D01*
X-148988Y-392821D01*
X-149105Y-392657D01*
X-149223Y-392492D01*
X-149340Y-392375D01*
X-149434Y-392281D01*
X-149481Y-392187D01*
X-149528Y-392163D01*
X-149552Y-392140D01*
X-149810Y-391905D01*
X-150115Y-391693D01*
X-150397Y-391529D01*
X-150726Y-391388D01*
X-151337Y-391153D01*
X-151948Y-390988D01*
X-152230Y-390941D01*
X-152488Y-390894D01*
X-152723Y-390871D01*
X-152935Y-390847D01*
X-153099Y-390824D01*
D02*
G37*
%LPD*%
G54D149*
X-222505Y204000D02*
X-220668Y203239D01*
X-219261Y201832D01*
X-218500Y199995D01*
Y199000D02*
Y199995D01*
Y184000D02*
Y199000D01*
Y184000D02*
X-171500D01*
Y190000D01*
X-171500D01*
Y190994D01*
X-170739Y192832D01*
X-169332Y194239D01*
X-167495Y195000D01*
X-166500Y195000D01*
X-165506D01*
X-163668Y194239D01*
X-162261Y192832D01*
X-161500Y190994D01*
Y190000D02*
Y190994D01*
Y179000D02*
Y190000D01*
Y178005D02*
Y179000D01*
X-162261Y176168D02*
X-161500Y178005D01*
X-163668Y174761D02*
X-162261Y176168D01*
X-165506Y174000D02*
X-163668Y174761D01*
X-224495Y174000D02*
X-165506D01*
X-226332Y174761D02*
X-224495Y174000D01*
X-227739Y176168D02*
X-226332Y174761D01*
X-228500Y178005D02*
X-227739Y176168D01*
X-228500Y178005D02*
Y179000D01*
Y199000D01*
Y199995D01*
X-227739Y201832D01*
X-226332Y203239D01*
X-224495Y204000D01*
X-222505D01*
X-164506Y242000D02*
X-162668Y241239D01*
X-161261Y239832D01*
X-160500Y237994D01*
X-160500Y237000D02*
X-160500Y237994D01*
X-160500Y237000D02*
X-160500Y237000D01*
X-160500Y223000D02*
X-160500Y237000D01*
X-160500Y222005D02*
Y223000D01*
X-161261Y220168D02*
X-160500Y222005D01*
X-162668Y218761D02*
X-161261Y220168D01*
X-164506Y218000D02*
X-162668Y218761D01*
X-166495Y218000D02*
X-164506D01*
X-168332Y218761D02*
X-166495Y218000D01*
X-169739Y220168D02*
X-168332Y218761D01*
X-170500Y222005D02*
X-169739Y220168D01*
X-170500Y222005D02*
Y223000D01*
X-170500D02*
X-170500D01*
X-170500D02*
Y232000D01*
X-218500D02*
X-170500D01*
X-218500Y221000D02*
X-218500Y232000D01*
X-218512Y220016D02*
X-218500Y221000D01*
X-219284Y218205D02*
X-218512Y220016D01*
X-220690Y216827D02*
X-219284Y218205D01*
X-222515Y216089D02*
X-220690Y216827D01*
X-223499Y216097D02*
X-222515Y216089D01*
X-224494Y216097D02*
X-223499Y216097D01*
X-226332Y216858D02*
X-224494Y216097D01*
X-227739Y218265D02*
X-226332Y216858D01*
X-228500Y220103D02*
X-227739Y218265D01*
X-228500Y220103D02*
Y221098D01*
Y237000D01*
Y237994D01*
X-227739Y239832D01*
X-226332Y241239D01*
X-224495Y242000D01*
X-223500Y242000D01*
X-223500Y242000D01*
X-165500Y242000D01*
X-164506Y242000D01*
X-60500Y439000D02*
X-9500Y388000D01*
X-210750Y439000D02*
X-60500D01*
X-268986Y380764D02*
X-210750Y439000D01*
X-268986Y-409514D02*
Y380764D01*
Y-410406D02*
Y-409514D01*
Y-410406D02*
X-268303Y-412055D01*
X-267041Y-413317D01*
X-265392Y-414000D01*
X265005D01*
X265800Y-414000D01*
X267270Y-413391D01*
X268396Y-412266D01*
X269004Y-410796D01*
X269004Y-410000D02*
X269004Y-410796D01*
X269004Y-410000D02*
X269004Y-263998D01*
X279000Y-253998D01*
Y26000D01*
X269004Y35995D02*
X279000Y26000D01*
X269004Y35995D02*
X269005Y376104D01*
Y381236D01*
X267931Y382310D02*
X269005Y381236D01*
X236395Y413846D02*
X267931Y382310D01*
X170346Y413846D02*
X236395Y413846D01*
X144500Y388000D02*
X170346Y413846D01*
X-9500Y388000D02*
X144500D01*
G54D174*
X265000Y-163000D02*
D03*
G54D175*
X214500Y284800D02*
D03*
Y234000D02*
D03*
Y259400D02*
D03*
Y310200D02*
D03*
Y335600D02*
D03*
G54D176*
X228850Y-89900D02*
D03*
Y-32100D02*
D03*
G54D177*
X-236500Y-211000D02*
D03*
Y-191000D02*
D03*
Y-171000D02*
D03*
G54D178*
X-241500Y-86040D02*
D03*
Y-60640D02*
D03*
Y15560D02*
D03*
Y40960D02*
D03*
Y66360D02*
D03*
Y91760D02*
D03*
Y117160D02*
D03*
Y142560D02*
D03*
Y-35240D02*
D03*
Y183200D02*
D03*
Y208600D02*
D03*
Y234000D02*
D03*
Y259400D02*
D03*
Y284800D02*
D03*
Y310200D02*
D03*
Y335600D02*
D03*
Y361000D02*
D03*
X241100Y234000D02*
D03*
Y259400D02*
D03*
Y284800D02*
D03*
Y310200D02*
D03*
Y335600D02*
D03*
Y361000D02*
D03*
Y5400D02*
D03*
Y30800D02*
D03*
Y183200D02*
D03*
Y56200D02*
D03*
Y107000D02*
D03*
Y81600D02*
D03*
G54D179*
X224008Y-4000D02*
D03*
Y3000D02*
D03*
X228866Y-41368D02*
D03*
X-182000Y20000D02*
D03*
X-228828Y-30415D02*
D03*
X222372Y-292790D02*
D03*
X237432Y-322909D02*
D03*
X222372Y-353028D02*
D03*
X207313Y-322909D02*
D03*
X192253Y-353028D02*
D03*
X162134Y-292790D02*
D03*
X177193Y-322909D02*
D03*
X162134Y-353028D02*
D03*
X132014Y-292790D02*
D03*
X147074Y-322909D02*
D03*
X132014Y-353028D02*
D03*
X101895Y-292790D02*
D03*
X116955Y-322909D02*
D03*
X101895Y-353028D02*
D03*
X71776Y-292790D02*
D03*
X86835Y-322909D02*
D03*
X71776Y-353028D02*
D03*
X56716Y-262670D02*
D03*
Y-322909D02*
D03*
X41656Y-353028D02*
D03*
X26597Y-322909D02*
D03*
X11537Y-353028D02*
D03*
X-3523Y-262670D02*
D03*
X-18582Y-292790D02*
D03*
X-3523Y-322909D02*
D03*
X-18582Y-353028D02*
D03*
X-33642Y-322909D02*
D03*
X-48702Y-353028D02*
D03*
X-63761Y-202432D02*
D03*
X-78821Y-292790D02*
D03*
X-63761Y-322909D02*
D03*
X-78821Y-353028D02*
D03*
X-108940Y189119D02*
D03*
X-93881Y-202432D02*
D03*
Y-262670D02*
D03*
Y-322909D02*
D03*
X-108940Y-353028D02*
D03*
X-124000Y219239D02*
D03*
X-139060Y189119D02*
D03*
Y-353028D02*
D03*
X-154119Y-262670D02*
D03*
X-169179Y-292790D02*
D03*
Y-353028D02*
D03*
X-184239Y-262670D02*
D03*
X-199298Y-353028D02*
D03*
X-244477Y-262670D02*
D03*
X-259537Y-292790D02*
D03*
X115000Y259000D02*
D03*
X-68000Y212000D02*
D03*
X-69000Y195000D02*
D03*
X-38000Y219000D02*
D03*
X-49000Y192000D02*
D03*
X-138000Y319000D02*
D03*
Y326000D02*
D03*
X-140000Y335000D02*
D03*
X-170000Y262000D02*
D03*
X-168000Y123000D02*
D03*
X-173000Y129000D02*
D03*
X-169575Y3320D02*
D03*
X229000Y-81000D02*
D03*
X145000Y-119000D02*
D03*
Y-110000D02*
D03*
X146000Y-77000D02*
D03*
X158000Y-210000D02*
D03*
X149000D02*
D03*
X145000Y-191000D02*
D03*
X-13500Y23008D02*
D03*
X-54000Y-281000D02*
D03*
X-105250Y-261750D02*
D03*
Y-251750D02*
D03*
X-67500Y-262750D02*
D03*
X-68000Y-232000D02*
D03*
X-86000Y-303000D02*
D03*
X-49000Y-223000D02*
D03*
X-36000Y-188000D02*
D03*
X-6000Y-250250D02*
D03*
X-28000Y-302000D02*
D03*
X-42000Y-307000D02*
D03*
X-54000Y-296000D02*
D03*
X-50000Y-268000D02*
D03*
X17750Y-255500D02*
D03*
X-21000Y-280000D02*
D03*
X-15000Y-267000D02*
D03*
X-21000Y-254000D02*
D03*
X4000Y-238000D02*
D03*
X-100750Y-302750D02*
D03*
X145815Y367705D02*
D03*
X-8500Y178000D02*
D03*
X-179000Y297000D02*
D03*
X51150Y-196852D02*
D03*
X2500Y231000D02*
D03*
X-194500Y215000D02*
D03*
X-178000Y262000D02*
D03*
X35232Y-116000D02*
D03*
X28044Y-118221D02*
D03*
X27844Y-125886D02*
D03*
X-174695Y-167893D02*
D03*
X-129086Y-166346D02*
D03*
X-130560Y-175235D02*
D03*
X-129246Y-184148D02*
D03*
X-111128Y-183894D02*
D03*
X-109940Y-174963D02*
D03*
X-111576Y-166103D02*
D03*
X99806Y212548D02*
D03*
X-64552Y-62393D02*
D03*
X-76500Y-66000D02*
D03*
X-64500Y-75000D02*
D03*
X54500Y176000D02*
D03*
X107142Y177000D02*
D03*
X85498Y173232D02*
D03*
X94500Y182000D02*
D03*
X103912Y188412D02*
D03*
X96250Y169750D02*
D03*
X33240Y167383D02*
D03*
X1501Y173980D02*
D03*
X1250Y167000D02*
D03*
X-11500Y109000D02*
D03*
X-3500D02*
D03*
X24242Y-174892D02*
D03*
X21508Y-164000D02*
D03*
X-7618Y-211812D02*
D03*
X-15248Y-216604D02*
D03*
X3711Y-221273D02*
D03*
X208758Y-337750D02*
D03*
X16130Y-185709D02*
D03*
X11633Y-193516D02*
D03*
X30334Y-203644D02*
D03*
X33707Y-220960D02*
D03*
X40246Y-227159D02*
D03*
X71409Y-219093D02*
D03*
X42352Y-193906D02*
D03*
X-258750Y-350750D02*
D03*
Y-375250D02*
D03*
X-245500D02*
D03*
X-227665Y-367395D02*
D03*
X-227737Y-358385D02*
D03*
X-130290Y-275397D02*
D03*
Y-284407D02*
D03*
X-131508Y-293334D02*
D03*
X-137640Y-299935D02*
D03*
X-146478Y-301690D02*
D03*
X-155488D02*
D03*
X-164498D02*
D03*
X-173508D02*
D03*
X-182518D02*
D03*
X-191528D02*
D03*
X-200538D02*
D03*
X-209548D02*
D03*
X-218535Y-302323D02*
D03*
X-227115Y-305075D02*
D03*
X-234727Y-309895D02*
D03*
X-240925Y-316434D02*
D03*
X-245237Y-324345D02*
D03*
X-245500Y-350750D02*
D03*
X-229683Y-352078D02*
D03*
X-227190Y-343419D02*
D03*
X-226934Y-334413D02*
D03*
X-222587Y-326521D02*
D03*
X-214522Y-322503D02*
D03*
X-205515Y-322310D02*
D03*
X-196505D02*
D03*
X-187495D02*
D03*
X-178485D02*
D03*
X-169475D02*
D03*
X-160465D02*
D03*
X-151455D02*
D03*
X-142446Y-322164D02*
D03*
X-133587Y-320522D02*
D03*
X-125476Y-316599D02*
D03*
X-118634Y-310736D02*
D03*
X-113520Y-303318D02*
D03*
X-110523Y-294821D02*
D03*
X-109669Y-285851D02*
D03*
X-129918Y-200524D02*
D03*
X-130310Y-209525D02*
D03*
Y-218535D02*
D03*
Y-236555D02*
D03*
Y-245565D02*
D03*
X-130197Y-254574D02*
D03*
X-126645Y-262855D02*
D03*
X-109690Y-224161D02*
D03*
Y-215151D02*
D03*
Y-206141D02*
D03*
X-61687Y-111499D02*
D03*
X-174695Y-157001D02*
D03*
Y-147001D02*
D03*
Y-137001D02*
D03*
X5492Y-136000D02*
D03*
Y-156000D02*
D03*
Y-146000D02*
D03*
X57500Y-80000D02*
D03*
X57132Y-113067D02*
D03*
X32775Y-136939D02*
D03*
X34500Y-239000D02*
D03*
X46992Y-186777D02*
D03*
X79500Y-55000D02*
D03*
X95500Y-116000D02*
D03*
X102500D02*
D03*
X72500Y-55000D02*
D03*
X65500D02*
D03*
X84008Y-211000D02*
D03*
X87500Y-156000D02*
D03*
X15518Y-224492D02*
D03*
X50174Y-209559D02*
D03*
X46389Y-174585D02*
D03*
X-21500Y-223000D02*
D03*
X22000Y-204750D02*
D03*
X-2754Y-165849D02*
D03*
X-505Y-190995D02*
D03*
X-7500Y-194000D02*
D03*
X-10005Y-200495D02*
D03*
X24255Y-215755D02*
D03*
X-144000Y-289000D02*
D03*
X128946Y-56132D02*
D03*
X-204946Y-52992D02*
D03*
Y-77992D02*
D03*
X120054Y-82524D02*
D03*
X-146500Y-21554D02*
D03*
X-133567Y-28762D02*
D03*
X40148Y-3310D02*
D03*
X49158D02*
D03*
X58168D02*
D03*
X67178D02*
D03*
X78881Y6135D02*
D03*
X68996Y17212D02*
D03*
X5837D02*
D03*
X12078Y-3310D02*
D03*
X21088D02*
D03*
X30068Y-2575D02*
D03*
X26996Y17212D02*
D03*
X-45045Y3068D02*
D03*
X-10485Y-3310D02*
D03*
X-1572Y-1988D02*
D03*
X-6004Y17212D02*
D03*
X-175742Y215154D02*
D03*
X16500Y232992D02*
D03*
X-152533Y-128976D02*
D03*
X-237500Y-384008D02*
D03*
X-253508Y-338000D02*
D03*
X-129258Y-192000D02*
D03*
X-111242Y-191125D02*
D03*
X-27976Y324349D02*
D03*
X26754Y81974D02*
D03*
X26680Y88103D02*
D03*
X30492Y47000D02*
D03*
X56500Y23008D02*
D03*
X36500Y20492D02*
D03*
X16500Y23008D02*
D03*
X-43508Y-4000D02*
D03*
Y18000D02*
D03*
X-197500Y9008D02*
D03*
X-207500D02*
D03*
X-217500D02*
D03*
X-202125Y190992D02*
D03*
X-211750Y219258D02*
D03*
X160500Y225000D02*
D03*
X164923Y231125D02*
D03*
X145008Y251000D02*
D03*
Y260000D02*
D03*
X162500Y384008D02*
D03*
X168508Y357000D02*
D03*
X129976Y326524D02*
D03*
X129992Y319000D02*
D03*
X184250Y332508D02*
D03*
X5008Y344125D02*
D03*
Y311000D02*
D03*
Y302000D02*
D03*
Y294000D02*
D03*
Y285250D02*
D03*
Y276250D02*
D03*
Y268000D02*
D03*
Y259000D02*
D03*
Y251000D02*
D03*
X24750Y232992D02*
D03*
X59855D02*
D03*
X50500D02*
D03*
X84500Y232500D02*
D03*
X112701Y195028D02*
D03*
X-149445Y-123500D02*
D03*
X-152679Y-166413D02*
D03*
X-114329Y-83339D02*
D03*
X145264Y-199236D02*
D03*
X175250Y6250D02*
D03*
X-82000Y-239000D02*
D03*
X-83750Y-282500D02*
D03*
X-102750Y-281750D02*
D03*
X127500Y201264D02*
D03*
X127500Y194000D02*
D03*
Y209000D02*
D03*
X-219500Y-207000D02*
D03*
Y-214000D02*
D03*
Y-221000D02*
D03*
X229500Y72000D02*
D03*
Y87000D02*
D03*
X134500Y201264D02*
D03*
X134500Y194000D02*
D03*
X-103687Y-67001D02*
D03*
X-109687D02*
D03*
X-84000Y325000D02*
D03*
X-76000Y333000D02*
D03*
Y325000D02*
D03*
X-169500Y10000D02*
D03*
X-11500Y102000D02*
D03*
X-3500D02*
D03*
X175500Y-6000D02*
D03*
X196500D02*
D03*
Y11000D02*
D03*
X228500Y102000D02*
D03*
Y112000D02*
D03*
Y178000D02*
D03*
Y188000D02*
D03*
X133500Y10000D02*
D03*
X140500D02*
D03*
X147500D02*
D03*
X146000Y-68000D02*
D03*
X138000Y-73000D02*
D03*
X52444Y251944D02*
D03*
X126500Y253000D02*
D03*
X-95687Y-134001D02*
D03*
X-151651Y-96001D02*
D03*
X-126750Y-83250D02*
D03*
M02*
