G04*
G04 #@! TF.GenerationSoftware,Altium Limited,Altium Designer,21.9.2 (33)*
G04*
G04 Layer_Color=8388736*
%FSLAX44Y44*%
%MOMM*%
G71*
G04*
G04 #@! TF.SameCoordinates,61AA5504-0FCC-4927-8ACB-8CDE8AB09ADF*
G04*
G04*
G04 #@! TF.FilePolarity,Positive*
G04*
G01*
G75*
%ADD12C,0.1000*%
%ADD14C,0.1000*%
G54D12*
X218588Y414197D02*
X218232Y414346D01*
X218585Y414200D02*
X218232Y414346D01*
X256614Y388995D02*
X256612D01*
X170346Y414346D02*
X169992Y414200D01*
X170346Y414346D02*
X169989Y414197D01*
X256614Y388995D02*
X256612D01*
X269505Y376104D02*
X269257Y378619D01*
X268524Y381037D01*
X267332Y383266D01*
X265729Y385219D01*
X263776Y386822D01*
X261547Y388013D01*
X259129Y388747D01*
X256614Y388995D01*
X-34992Y414200D02*
X-35346Y414346D01*
X-34989Y414197D02*
X-35346Y414346D01*
X-114101D02*
X-114455Y414200D01*
X-114101Y414346D02*
X-114458Y414197D01*
X-161000Y237000D02*
X-161000Y236995D01*
Y223005D02*
X-161000Y223000D01*
X269505Y-410005D02*
X269505Y-410000D01*
X269505Y-410005D02*
Y-410000D01*
X265010Y-414500D02*
X267256Y-413896D01*
X268901Y-412252D01*
X269505Y-410005D01*
X265005Y-414500D02*
X265010D01*
X265005Y-414500D02*
X265010Y-414500D01*
X-161000Y237000D02*
Y237000D01*
X-161603Y239250D01*
X-163250Y240897D01*
X-165500Y241500D01*
Y218500D02*
X-163250Y219103D01*
X-161603Y220750D01*
X-161000Y223000D01*
X-165505Y241500D02*
X-165500Y241500D01*
X-170000Y232000D02*
X-170500Y232500D01*
X-170000Y223000D02*
X-169397Y220750D01*
X-167750Y219103D01*
X-165500Y218500D01*
X-166495Y194500D02*
X-166500D01*
X-162000Y190000D02*
X-162602Y192248D01*
X-164247Y193895D01*
X-166495Y194500D01*
X-166500Y194500D02*
X-166495Y194500D01*
X-166500Y174500D02*
X-164250Y175103D01*
X-162603Y176750D01*
X-162000Y179000D01*
X-170000Y232000D02*
X-170500Y232500D01*
X-218500D02*
X-219000Y232000D01*
X-218500Y232500D02*
X-219000Y232000D01*
X-170000Y223000D02*
X-170000Y223005D01*
X-223491Y216597D02*
X-221263Y217176D01*
X-219620Y218789D01*
X-219000Y221006D01*
X-223495Y216597D02*
X-223491Y216597D01*
Y216597D02*
X-223499Y216597D01*
X-223500Y241500D02*
X-223495Y241500D01*
X-223500Y241500D02*
X-225750Y240897D01*
X-227397Y239250D01*
X-228000Y237000D01*
X-253751Y388955D02*
X-254108Y388806D01*
X-253751Y388955D02*
X-254105Y388809D01*
X-269337Y373577D02*
X-269486Y373220D01*
X-269340Y373574D02*
X-269486Y373220D01*
X-228000Y221098D02*
X-227397Y218847D01*
X-225749Y217200D01*
X-223499Y216597D01*
X-223495Y216597D02*
X-223499Y216597D01*
X-166500Y194500D02*
X-168750Y193897D01*
X-170397Y192250D01*
X-171000Y190000D01*
X-171000Y189995D02*
X-171000Y190000D01*
X-219000Y199000D02*
X-219603Y201250D01*
X-221250Y202897D01*
X-223500Y203500D01*
X-171500Y183500D02*
X-171000Y184000D01*
X-171500Y183500D02*
X-171000Y184000D01*
X-219000D02*
X-218500Y183500D01*
X-219000Y184000D02*
X-218500Y183500D01*
X-223500Y203500D02*
X-223500D01*
X-223500D02*
X-223500D01*
X-223500D02*
X-225750Y202897D01*
X-227397Y201250D01*
X-228000Y199000D01*
Y179000D02*
X-227397Y176750D01*
X-225750Y175103D01*
X-223500Y174500D01*
X-269486Y-409514D02*
X-268818Y-412007D01*
X-266993Y-413832D01*
X-264500Y-414500D01*
X218588Y414197D02*
X243829Y388956D01*
X218585Y414200D02*
X218588Y414197D01*
X170346Y414346D02*
X218232D01*
X169989Y414197D02*
X169992Y414200D01*
X144293Y388500D02*
X169989Y414197D01*
X243829Y388956D02*
X256612Y388995D01*
X-34992Y414200D02*
X-34989Y414197D01*
X-9293Y388500D01*
X-114101Y414346D02*
X-35346D01*
X-114458Y414197D02*
X-114455Y414200D01*
X-139699Y388955D02*
X-114458Y414197D01*
X-9293Y388500D02*
X144293D01*
X269505Y-410000D02*
Y376104D01*
X-161000Y236995D02*
Y237000D01*
Y223005D02*
Y236995D01*
Y223000D02*
Y223005D01*
X-170000Y223005D02*
Y232000D01*
Y223000D02*
Y223005D01*
X-162000Y179000D02*
Y190000D01*
X-218500Y232500D02*
X-170500D01*
X-253751Y388955D02*
X-139699D01*
X-165505Y241500D02*
X-165500D01*
X-223495Y241500D02*
X-165505Y241500D01*
X-223500Y241500D02*
X-223495D01*
X-219000Y221006D02*
Y232000D01*
Y221000D02*
Y221006D01*
X-254108Y388806D02*
X-254105Y388809D01*
X-269337Y373577D02*
X-254108Y388806D01*
X-269340Y373574D02*
X-269337Y373577D01*
X-228000Y237000D02*
Y237000D01*
Y221098D02*
Y237000D01*
X-223500Y203500D02*
X-223500D01*
X-171000Y189995D02*
Y190000D01*
Y184000D02*
Y189995D01*
X-219000Y184000D02*
Y199000D01*
X-218500Y183500D02*
X-171500D01*
X-223500Y174500D02*
X-166500D01*
X-264500Y-414500D02*
X265005D01*
X-228000Y179000D02*
Y199000D01*
X-269486Y-409514D02*
Y373220D01*
G54D14*
X-223500Y203500D02*
D03*
X-223500D02*
D03*
M02*
