M48
;Layer_Color=9474304
;FILE_FORMAT=4:4
METRIC,LZ
;TYPE=PLATED
T1F00S00C0.3000
T3F00S00C0.8000
T4F00S00C1.0160
T5F00S00C1.1000
%
T01
X00259486Y-00372034
X00274546Y-00341915
X00259486Y-00311795
X00244426Y-00341915
X00220404Y-00344112
X00225255Y-00351705
X00232258Y-0035875
X00226013Y-00369613
X0022617Y-00379534
X00232258Y-003895
X002275Y-0039775
Y-004065
Y-0041575
X002215Y-00424
X0021225
X00205Y-0041675
Y-0040775
Y-0039875
X0020594Y-00389665
X00206107Y-00380657
X00206344Y-00369039
X0020594Y-00360038
X00197052Y-0035856
X00188042
X00179032
X00170022
X00161012
X00152002
X00142992
X00133982
X00124972
X00115962
X00106952
X00097942
X00088932
X00079922
X00070912
X00061902
X00052892
X00043883Y-00358462
X00034981Y-00357068
X00026624Y-00353702
X00019293Y-00348463
X00013292Y-00341742
X00003472Y-00341915
X00009089Y-00333773
X00006687Y-00325089
X00006262Y-00316089
Y-00307079
Y-00298069
X00026883Y-00308559
Y-00317569
X00028219Y-00326479
X0003363Y-00333683
X00041729Y-00337631
X00050734Y-0033794
X00059744
X00068754
X00077764
X00086774
X00095784
X00104794
X00113804
X00122814
X00131824
X00140834
X00149844
X00158854
X00167864
X00176874
X00185884
X00194894
X00203904
X00212818Y-00339252
X00169128Y-00311795
X00139009
X00108889
X0007877
X00048651
X00058Y-003
X00048651Y-00372034
X0007877
X00108889
X00139009
X00169128
X00184188Y-00402153
X00244426
X00123949
X0009383
X0006371
X00033591
X00018531Y-00372034
X-00011588
X-00041707
X-00071827
X-00101946
X-00132065
X-00127955Y-0034331
X-00136965
X-00145975
X-00150008Y-0032269
X-00140998
X-00131988
X-00122978
X-0011414Y-00320935
X-00108007Y-00314334
X-0010679Y-00305407
Y-00296397
X-001205Y-0031
X-00132065Y-00311795
X-00118946Y-00343164
X-00110087Y-00341521
X-00101976Y-00337599
X-00095134Y-00331736
X-0009002Y-00324318
X-00087023Y-00315821
X-00086169Y-00306851
X-000785Y-0031
X-000685
X-000585Y-003
X-00056767Y-00341915
X-00026648
X-00086886
Y-00402153
X-00056767
X-00117006
X-00147125
X-00162185Y-00372034
X-00192304
X-00206183Y-00373078
X-00204237Y-00379385
X-00204165Y-00388395
X-0020369Y-00364419
X-00203434Y-00355413
X-00199087Y-00347521
X-00191022Y-00343503
X-00182015Y-0034331
X-00173005
X-00163995
X-00154985
X-00159018Y-0032269
X-00168028
X-00177038
X-00186048
X-00195035Y-00323322
X-00203615Y-00326075
X-00211227Y-00330895
X-00217425Y-00337434
X-00221737Y-00345345
X-00230008Y-00359
X-0023525Y-0037175
X-00222
Y-0039625
X-0023525
X-00214Y-00405008
X-00222423Y-00311795
X-00162185
X-00181Y-00253492
X-00196Y-00242
Y-00235
Y-00228
X-00179492Y-00217
X-00186Y-00190992
X-00151195Y-00188893
X-00151195Y-00178001
Y-00168001
Y-00158001
X-00191Y-00143992
X-00192304Y-00131079
X-00181446Y-00098992
Y-00073992
X-0023925Y-0008
Y-0006
Y-0004
Y-0002
Y0
Y0002
Y0004
Y0006
Y0008
Y001
X-00168Y00023117
X-00158008Y00017375
X-00152Y-00011
Y-00017
X-00174Y-00011992
X-00184
X-00194
X-0023925Y-001
Y-0012
Y-0014
Y-0016
Y-0018
Y-002
Y-0022
Y-0024
Y-0026
X-00147125Y-00281676
X-00117006
X-00103145Y-00283855
X-00106697Y-00275574
X-0010681Y-00266565
Y-00257555
Y-00239535
Y-00230525
X-00106418Y-00221524
X-00105758Y-00213
X-00105746Y-00205148
X-0010706Y-00196234
X-00105586Y-00187346
X-00106258Y-001805
X-00104024Y-00172947
X-00089024Y-00173146
X-00087242Y-0018025
X-00088076Y-00187103
X-0008644Y-00195963
X-00087628Y-00204894
X-00087742Y-00212125
X-0008619Y-00227141
Y-00236151
Y-00245161
Y-00272191
X-00086904Y-00281173
X-00056767Y-00281676
X-000585Y-0026
X-00041707Y-00251557
X-00026648Y-00221437
X00003472
X00013495Y-00221495
X00016Y-00215
X00022995Y-00211995
X00035133Y-00214516
X0003963Y-00206709
X00047742Y-00203416
X00047742Y-00195892
X00045008Y-00185
X00028992Y-00177
Y-00167
Y-00157
X00056275Y-00157939
X00051344Y-00146886
X00051544Y-00139221
X00058732Y-00137
X00058992Y-00129
X00058992Y-00121
X00061508Y-00106
X00081Y-00101
X00094492Y-00098963
X00096Y-00076
X00103
X00089
X00090678Y-0002431
X00081668
X00072658
X00063648
X00053568Y-00023575
X00044588Y-0002431
X00035578
X00021928Y-00022988
X00013015Y-0002431
X00017495Y-00003789
X00029337
X0004Y00002008
X00050496Y-00003789
X0006Y-00000508
X0008Y00002008
X00092496Y-00003789
X00102381Y-00014865
X0009383Y00019517
X0011Y0003
X00053992Y00026
X00057Y00037992
X00050254Y00060974
X0005018Y00067103
X00071Y00085992
X0002Y00088
Y00081
X00012
Y00088
X00007997Y00066998
X0001Y00002008
X-00020008Y-00003
X-00021545Y-00017932
X-00020008Y-00025
X-00041707Y-00010602
X-00041052Y-00083393
X-00041Y-00096
X-00026648Y-0010096
X00003472
X00018531Y-00131079
X00020746Y-00186849
X00022992Y-00197
X0003075Y-00229
X00027211Y-00242273
X00039018Y-00245492
X00045Y-00244
X00047755Y-00236755
X00057207Y-0024196
X00063746Y-00248159
X00058Y-0026
X0006371Y-00281676
X00026552Y-00278301
X00008043Y-00282222
X00007135Y-00289101
X0000619Y-00273405
Y-00264395
X00002Y-00244
X00008252Y-00237604
X00015882Y-00232812
X00053834Y-00224644
X00065852Y-00214907
X00070492Y-00207777
X00069889Y-00195585
X00075Y-00188
X00076Y-00168
X00083
X0009
Y-00161
X00083
Y-00154
X0009
X00076
Y-00161
X00080632Y-00134067
X00119Y-00137
X00126
X0012825Y-00146492
X00110585Y-00147033
X00109749Y-0016879
X00111Y-00177
X00133008Y-00182
X00128508Y-00191
X00128508Y-00199
X00105008Y-00207
X00100747Y-00213676
X00107508Y-00222
Y-00232
X00094909Y-00240093
X00108889Y-00251557
X00073674Y-00230559
X00075139Y-00218312
X00084833Y-00206774
X00091Y-00206726
X00184492Y-00188
X00198035Y-00183454
X00203413Y-00172554
X0020307Y-00165038
X00194992Y-00154
X00188Y-00148992
X00184633Y-00142263
X00185Y-00135
X00199247Y-00131079
X00201992Y-00142
X00207842Y-00114
X00196Y-00112492
X00195992Y-00091
Y-00063
X0019Y-00045508
X00207842Y-0005
X00199Y-00027
X0019875Y-0001475
X0022Y-0001
Y-00027
X00243008Y-00009
X00244426Y00019517
X00243Y00069008
X00214758Y0007708
X00198Y00077
Y00095
X00214758Y0009592
X00242Y00105008
X00208Y00058508
X00187508Y00058
Y0004
Y00022
X00171Y-00011
X00164
X00157
X00175992Y-00027
X00152446Y-00077132
X00143554Y-00103524
X00175492Y-00123
X00174524Y-00154492
X00180476Y-001545
X00167Y-00154492
X00226Y-00152
X00232
X00238
X0022Y-0018
X00192492Y-00252
X00167Y-00255492
X-00056767Y-00221437
X-00041707Y-00191318
X-00071827
X-00072187Y-00155001
X-00092187Y-00154001
X-00099187
Y-00147001
X-00092187
Y-00140001
X-00099187
X-00106187
Y-00147001
Y-00154001
X-00129033Y-00149976
X-00125945Y-001445
X-0012526Y-00132041
X-00128151Y-00117001
X-0012Y-00095
X-00112
X-0010325Y-0010425
X-00090829Y-00104339
X-00086187Y-00088001
X-00080187
X-00098187Y-00085493
X-00100195Y-00079001
X-00110067Y-00049762
X-00123Y-00042554
X-00119Y-00030008
X-00135Y-00023492
X-00146Y-00017
Y-00011
X-00132065Y00049637
X-00117006Y00079756
X-00147125
X-00089992Y00063
X-0004Y0009
X-00053Y-00087
X-00048679Y-00123
X-00038187Y-00132499
X-00049054Y-00155251
Y-00163251
X-00026648Y-00161199
X-00129179Y-00187413
X-00147125Y-00221437
X-00148829Y-00141684
X00285Y-0014
Y-0012
Y-001
X00274546Y-0010096
X00285Y-0008
Y-0006
Y-0004
Y-0002
Y-0
Y0002
Y0004
Y0006
Y0008
Y001
X00252Y00091
Y00081
X00253Y00066
Y00051
X00259486Y-00070841
Y-00191318
X00285Y-0018
Y-0024
X00259486Y-00251557
X00285Y0012
Y0014
Y0016
Y0018
Y002
Y0022
Y0024
Y0026
Y0028
Y003
Y0032
Y0034
X00275Y0036
X00255Y0037
X00252Y00167
Y00157
X00221502Y00156
X00214502
X00208008
X00214758Y0017092
X00198Y00171
Y00188
X00214758Y0018808
X00184Y00204
X00188423Y00210125
X00161Y00211992
X00168508Y0023
Y00239
X0015Y00232
X00148Y00249
X00135Y00247
X00128Y0024
X00121Y00234
X001Y0024
X0008
X00075944Y00230944
X0006Y0023
Y0024
X0004
Y0023
X00028508
Y00238
Y00247
Y0025525
Y0026425
Y00273
Y00281
Y0029
X0005Y0028
X00028508Y00323125
Y00348
X0003325Y00351992
X0004Y00352
X00049
X00057
X00065125Y00351992
X00074
X0008225
X00091
X00099125
X00108
X0011625
X00125
X0013325
X00142
X0015075
X00152Y00344573
X00168508Y00331158
X00168508Y0032325
X00153476Y00305524
X00153492Y00298
X0014Y0028
X0012
X00108Y002115
X00113477Y00204011
X00123306Y00191548
X00127412Y00167412
X00130642Y00156
X00118Y00161
X0011975Y0014875
X00108998Y00152232
X00078Y00155
X00071Y00161
X0005674Y00146383
X0002475Y00146
X00025001Y0015298
X0002475Y001605
X00018981Y0016648
X00025878Y00175074
X00031702Y0016925
X00012Y00181
X-00011588Y00170114
X-0003392Y00190492
Y00249508
X-00056767Y00260472
X-00051037Y00311008
X-00069Y00313
Y00321
Y00305
X-00058Y00335008
X-0003Y00345492
X-00012
X00004Y00350008
X00013492Y00359
Y0034075
X0Y0037
X-0001Y0038
X-00025Y00385
X-00045
X-00075
X-0009Y0038
X-001Y0037
X-00125Y0036
X-00145
X-00147Y00301
X-00146Y0025
Y00243
X-00139008Y00247
X-00101016Y00247026
X-00101Y00185
X-00118972Y0018
X-00114722Y0019775
X-00105Y00123
X-0008
X-00055
X00021Y00122654
X000245Y00133592
X0001179Y00140225
X00013492Y00219
X0003125Y00211992
X0004
X0004825
X00074
X00083355
X00063003Y00184492
X00056997
X00136201Y00174028
X00151Y00173
X00158
X00158Y00180264
X00151
X00151Y00188
X00161508Y00155
X0017Y0015225
X001735Y0013775
Y0012825
X00164Y00116508
X0019675Y00133
X00204
X00211
X00208008Y0011
X00214502
X00221502
X00239Y00134492
X00108889Y00109875
X-0001208Y00275008
X-000121Y00298992
X-00004476Y00303349
X00000492Y00309
X0020775Y00311508
X00192008Y00336
X00186Y00363008
X00176
X00168508Y00359
X0019Y00375
X002Y00385
X00225
X00245Y0038
X-00165Y0036
X-00185
X-00205
X-00225
X-0023925Y0034
Y0032
Y003
Y0028
Y0026
Y0024
Y0022
Y002
Y0018
Y0016
Y0014
Y0012
X-00181315Y00123119
X-00174497Y00127111
X-00178625Y00169992
X-00171Y00194
X-00152242Y00194154
X-00161242Y0020525
X-0018825Y00198258
X-00178508Y00231
X-00170008Y00246
X-0017Y00252992
X-00154Y00301
X-00177244Y0032071
T03
X-00213Y-00252
Y-00232
Y-00212
Y-00192
T04
X-00218Y-0010704
Y-0008164
Y-0005624
Y-0003084
Y-0000544
Y0001996
Y0004536
Y0007076
Y0009616
X002646Y00086
Y000606
Y000352
Y000098
Y-000156
Y001114
Y001368
Y001622
Y00213
Y002384
Y002638
Y002892
Y003146
Y0034
X-00218
Y003146
Y002892
Y002638
Y002384
Y00213
Y001876
Y001622
Y0012156
T05
X00238Y00213
Y002384
Y002638
Y002892
Y003146
Y0034
M30
