M48
;Layer_Color=9474304
;FILE_FORMAT=4:4
METRIC,LZ
;TYPE=PLATED
T1F00S00C0.3000
T3F00S00C0.8000
T4F00S00C0.9000
T5F00S00C1.0000
T6F00S00C1.1000
%
T01
X00237432Y-00322909
X00207313
X00208758Y-0033775
X00222372Y-00353028
X00192253
X00162134
X00132014
X00101895
X00071776
X00041656
X00011537
X-00018582
X-00048702
X-00078821
X-0010894
X-0013906
X-00169179
X-00169475Y-0032231
X-00160465
X-00151455
X-00142446Y-00322164
X-00133587Y-00320522
X-00125476Y-00316599
X-00118634Y-00310736
X-0011352Y-00303318
X-00110523Y-00294821
X-00109669Y-00285851
X-0010275Y-0028175
X-0008375Y-002825
X-00078821Y-0029279
X-00086Y-00303
X-0010075Y-0030275
X-00093881Y-00322909
X-00063761
X-00033642
X-00042Y-00307
X-00028Y-00302
X-00018582Y-0029279
X-00021Y-0028
X-00054Y-00281
Y-00296
X-00003523Y-00322909
X00026597
X00056716
X00086835
X00116955
X00147074
X00177193
X00162134Y-0029279
X00132014
X00101895
X00071776
X00222372
X-00131508Y-00293334
X-0013029Y-00284407
Y-00275397
X-00144Y-00289
X-00146478Y-0030169
X-00155488
X-00164498
X-00173508
X-00169179Y-0029279
X-0013764Y-00299935
X-00182518Y-0030169
X-00191528
X-00200538
X-00209548
X-00218535Y-00302323
X-00227115Y-00305075
X-00234727Y-00309895
X-00240925Y-00316434
X-00245237Y-00324345
X-00253508Y-00338
X-0025875Y-0035075
X-002455
X-00229683Y-00352078
X-00227737Y-00358385
X-00227665Y-00367395
X-0022719Y-00343419
X-00226934Y-00334413
X-00222587Y-00326521
X-00214522Y-00322503
X-00205515Y-0032231
X-00196505
X-00187495
X-00178485
X-00199298Y-00353028
X-002455Y-0037525
X-0025875
X-002375Y-00384008
X-00259537Y-0029279
X-00244477Y-0026267
X-0026275Y-00239
Y-00219
Y-00199
Y-00179
Y-00159
Y-00139
X-00244477Y-00142193
X-00251Y-00107
X-0026275Y-00099
Y-00079
Y-00059
Y-00039
Y-00019
Y00001
Y00021
Y00041
Y00061
Y00081
Y00101
Y00121
X-002175Y00009008
X-002075
X-001975
X-00182Y0002
X-00181508Y00038375
X-00192Y-00039
X-00204946Y-00052992
Y-00077992
X-00183Y-0007
X-00174695Y-00137001
Y-00147001
Y-00157001
X-00174695Y-00167893
X-0019025Y-001865
X-00202992Y-00196
X-002195Y-00207
Y-00214
Y-00221
X-002045Y-00232492
X-00183Y-00218
X-00184239Y-0026267
X-002095Y-00169992
X-00191Y-00139
X-002145Y-00122992
X-00228828Y-00030415
X-001465Y-00021554
X-00142207Y-00014469
X-00133567Y-00028762
X-00113Y-00038
X-00123695Y-00058001
X-00121687Y-00064493
X-00109687Y-00067001
X-00103687
X-00114329Y-00083339
X-0012675Y-0008325
X-001355Y-00074
X-001435
X-00151651Y-00096001
X-0014876Y-00111041
X-00149445Y-001235
X-00152533Y-00128976
X-00129687Y-00126001
Y-00133001
X-00122687
Y-00126001
X-00115687
Y-00133001
Y-00119001
X-00122687
X-00129687
X-00127524Y-00151947
X-00129758Y-001595
X-00129086Y-00166346
X-0013056Y-00175235
X-00129246Y-00184148
X-00129258Y-00192
X-00129918Y-00200524
X-0013031Y-00209525
Y-00218535
Y-00236555
Y-00245565
X-00130197Y-00254574
X-00126645Y-00262855
X-0010525Y-0026175
Y-0025175
X-00093881Y-0026267
X-000675Y-0026275
X-0005Y-00268
X-00015Y-00267
X-00003523Y-0026267
X-00006Y-0025025
X-00021Y-00254
X-000215Y-00223
X-00015248Y-00216604
X-00007618Y-00211812
X-00010005Y-00200495
X-000075Y-00194
X-00000505Y-00190995
X00011633Y-00193516
X0001613Y-00185709
X00024242Y-00182416
X00024242Y-00174892
X00021508Y-00164
X00005492Y-00156
Y-00146
Y-00136
X00032775Y-00136939
X00027844Y-00125886
X00028044Y-00118221
X00035232Y-00116
X00035492Y-00108
X00035492Y-001
X0003825Y-00089
Y-000805
X000575Y-0008
X00070992Y-00077963
X000725Y-00055
X000795
X000655
X0011Y-00053
X00128946Y-00056132
X00138Y-00073
X00146Y-00077
Y-00068
X00138532Y-0010046
X00145Y-0011
Y-00119
Y-00127
X00137Y-0014
X00177193Y-00142193
X00207313
X00196Y-00159
X00192253Y-00172313
X00196Y-00187
X00207313Y-00202432
X00215Y-00217
X00222372Y-00172313
X00195Y-0011
X00197Y-00091492
X00208842Y-00093
X00196992Y-0007
Y-00042
X00191Y-00024508
X00177193Y-00021716
X001755Y-00006
X0017525Y0000625
X001965Y00011
Y-00006
X00208842Y-00029
X00219508Y00012
X001475Y0001
X001405
X001335
X00152492Y-00006
X00164008Y00043
Y00061
Y00079
X001845Y00079508
X00191258Y0009808
X001745Y00098
Y00116
X00191258Y0011692
X002185Y00126008
X002195Y00090008
X000865Y00051
X00056716Y00038523
X000565Y00023008
X00068996Y00017212
X00078881Y00006135
X00067178Y-0000331
X00058168
X00049158
X00040148
X00030068Y-00002575
X00021088Y-0000331
X00012078
X-00001572Y-00001988
X-00010485Y-0000331
X-00006004Y00017212
X00005837
X000165Y00023008
X00026996Y00017212
X000365Y00020492
X00030492Y00047
X000335Y00058992
X00026754Y00081974
X0002668Y00088103
X-00015503Y00087998
X-000115Y00102
Y00109
X-000035
Y00102
X-00063761Y00098761
X-000635Y00111
X-00048702Y00068642
X-00043508Y00018
X-00045045Y00003068
X-00043508Y-00004
X-00078821Y00008403
X-000745Y-0003775
X-000765Y-00066
X-00064552Y-00062393
X-000645Y-00075
X-00072179Y-00102
X-00061687Y-00111499
X-00063761Y-00142193
X-00072554Y-00142251
Y-00134251
X-00095687Y-00134001
X-00112524Y-00152146
X-00110742Y-0015925
X-00111576Y-00166103
X-0010994Y-00174963
X-00111128Y-00183894
X-00111242Y-00191125
X-0010969Y-00206141
Y-00215151
Y-00224161
X-00093881Y-00202432
X-00063761
X-00068Y-00232
X-00082Y-00239
X-00049Y-00223
X-00036Y-00188
X-00048702Y-00172313
X-00018582
X-00000508Y-00176
X-00002754Y-00165849
X000515Y-00167
X00046389Y-00174585
X00046992Y-00186777
X00042352Y-00193906
X0005115Y-00196852
X00050174Y-00209559
X00030334Y-00203644
X00022Y-0020475
X00024255Y-00215755
X00033707Y-0022096
X00040246Y-00227159
X000345Y-00239
X00004Y-00238
X00003711Y-00221273
X00015518Y-00224492
X0001775Y-002555
X00056716Y-0026267
X00091Y-0025
X00089Y-0023
X00084008Y-00211
Y-00201
X00077247Y-00192676
X00081508Y-00186
X000675Y-00185726
X00061333Y-00185774
X000595Y-00147
X000665
Y-0014
X000595
Y-00133
X000665
X000525
Y-0014
Y-00147
X00086249Y-0014779
X000875Y-00156
X00109508Y-00161
X00105008Y-0017
X00105008Y-00178
X0010475Y-00125492
X001025Y-00116
X000955
X00087085Y-00126033
X00057132Y-00113067
X-00003523Y-00081954
X-00036Y-0009
X-00025Y-00052
X00011875Y-00041152
X-000135Y00023008
X-00143495Y00047252
X-00169179Y00068642
X-00168Y00123
X-00124Y00098761
X-00113492Y00084
X-001695Y0001
X-00169575Y0000332
X-001585Y-00002492
X-00172329Y-00120684
X-00152679Y-00166413
X-00154119Y-00202432
X-001655Y-0023075
X-00154119Y-0026267
X-00078821Y-00172313
X00071409Y-00219093
X00138Y-00220008
X00149Y-0021
X00158
X00145264Y-00199236
X00145Y-00191
X00169492Y-002285
X00140109Y-00254785
X00120054Y-00082524
X00229Y-00081
X002615Y-00079
Y-00059
Y-00039
X00228866Y-00041368
X00224008Y-00004
Y00003
X002615Y00001
Y00021
Y00041
Y00061
Y00081
Y00101
Y00121
X002285Y00112
Y00102
X002295Y00087
Y00072
X002615Y-00119
X00262Y-00136
X00265Y-00197
X00258Y-0021
X00237432Y-00202432
X002615Y00141
Y00161
Y00181
Y00201
Y00221
Y00241
Y00261
Y00281
Y00301
Y00321
Y00341
Y00361
X00256032Y00382778
X00239014Y00399034
X002285Y00188
Y00178
X00198002Y00177
X00191002
X00184508
X00191258Y0019192
X001745Y00192
Y00209
X00191258Y0020908
X001605Y00225
X00164923Y00231125
X001375Y00232992
X00145008Y00251
Y0026
X001265Y00253
X00115Y00259
X00102
X000765Y00261
X000565
X00052444Y00251944
X000365Y00251
Y00261
X000165
Y00251
X00005008
Y00259
Y00268
Y0027625
Y0028525
Y00294
Y00302
Y00311
Y00344125
X0003Y0034
X00059Y00339
X00076Y00338
Y00319
X00059
Y00302
Y00286
X00076
Y00302
X00094Y00303
X00101895Y00309597
X00094Y00319
X00129992Y00319
X00129976Y00326524
X00128605Y00349281
X00146108Y00348856
X00145815Y00367705
X00145008Y0038
X001525Y00384008
X001625
X00163Y00396
X001765Y00406
X002015
X00221742Y00405892
X00168508Y00357
X0018425Y00332508
X0012725Y00372992
X001185
X0010975
X001015
X0009275
X000845
X00075625
X000675
X0005875
X000505
X00041625
X000335Y00373
X000255
X000165
X00007Y00372
X-00010008Y0038
Y0036175
X-000195Y00371008
X-000355Y00366492
X-000535
X-00066Y00344
X-00076Y00333
Y00325
X-00084
X-00063Y00315
X-00027976Y00324349
X-00019Y0033
X-000235Y00391
X-000335Y00401
X-000485Y00406
X-00068Y00406
X-00093881Y00399955
X-00109Y00406
X-00124Y00399955
X-00154119
X-0014Y0043
X-0017
X-00095Y00425
Y00296
X-00134Y00297
X-00138Y00319
Y00326
X-0014Y00335
X-00156478Y00341522
X-00157Y00328
X-00152Y00263
X-0017Y00262
X-00113Y00263
X-00124Y00219239
X-0010894Y00189119
X-0013906
X-00124Y00159
X-001285Y00144
X-001035
X-000785
X-00069Y00195
X-00068Y00212
X-0007874Y0021844
X-00059Y0024
X-0005742Y00270508
X-00038Y00219
X-00049Y00192
X-000085Y00178
X00001501Y0017398
X0000125Y00167
X000015Y00156
X-00012Y00151
X0003324Y00167383
X000545Y00176
X00085498Y00173232
X0009625Y0016975
X000945Y00182
X00103912Y00188412
X00107142Y00177
X00112701Y00195028
X001275Y00194
X001345
X001345Y00201264
X001275
X001275Y00209
X00099806Y00212548
X00089977Y00225011
X000845Y002325
X00059855Y00232992
X000505
X0002475
X000165
X000025Y00231
X-00010008Y0024
X00011537Y00189119
X00033497Y00205492
X00039503
X00041Y00302
Y00319
X00071776Y00128881
X001405Y00137508
X0015Y0014925
Y0015875
X001465Y0017325
X00138008Y00176
X0017325Y00154
X001805
X001875
X00184508Y00131
X00191002
X00198002
X002155Y00155492
X-00173Y00129
X-00199298Y00128881
X-00202125Y00190992
X-001945Y00215
X-00175742Y00215154
X-00184742Y0022625
X-0021175Y00219258
X-0026275Y00221
Y00241
Y00261
Y00281
Y00301
Y00321
Y00341
Y00361
X-002485Y00381
X-002285
X-002085
X-001885
X-00199298Y00369835
X-00214358Y00399955
X-00205Y0043
X-00214358Y00339716
X-00211722Y0028875
X-00215972Y00271
X-00178Y00262
X-00179Y00297
X-0026275Y00201
Y00181
Y00161
Y00141
X-00244477Y00159
T03
X-002365Y-00231
Y-00211
Y-00191
Y-00171
T04
X00265Y-00183
Y-00163
T05
X-002415Y-0008604
Y-0006064
Y-0003524
Y-0000984
Y0001556
Y0004096
Y0006636
Y0009176
Y0011716
X002411Y00107
Y000816
Y000562
Y000308
Y000054
Y001324
Y001578
Y001832
Y00234
Y002594
Y002848
Y003102
Y003356
Y00361
X-002415
Y003356
Y003102
Y002848
Y002594
Y00234
Y002086
Y001832
Y0014256
T06
X002145Y00234
Y002594
Y002848
Y003102
Y003356
Y00361
M30
