M48
;Layer_Color=9474304
;FILE_FORMAT=4:4
METRIC,LZ
;TYPE=PLATED
T1F00S00C0.3000
T3F00S00C0.8000
T4F00S00C1.0000
T5F00S00C1.1000
T6F00S00C3.3000
%
T01
X00235909Y-00382477
X00250969Y-00352358
X00235909Y-00322239
X00250969Y-00292119
X00220849
X0020579Y-00322239
X00208758Y-0033775
X00220849Y-00352358
X0019073
X00160611
X00130492
X00100372
X00070253
X00040134
X00010014
X-00020105
X-00050224
X-00080344
X-00110463
X-00140582
X-00170702
X-00169475Y-0032231
X-00160465
X-00151455
X-00142446Y-00322164
X-00133587Y-00320522
X-00125476Y-00316599
X-00118634Y-00310736
X-0011352Y-00303318
X-00110523Y-00294821
X-00109669Y-00285851
X-0010275Y-0028175
X-0008375Y-002825
X-00080344Y-00292119
X-00086Y-00303
X-0010075Y-0030275
X-00095403Y-00322239
X-00065284
X-00035165
X-00042Y-00307
X-00028Y-00302
X-00020105Y-00292119
X-00021Y-0028
X-00054Y-00281
Y-00296
X-00005045Y-00322239
X00025074
X00055193
X00085312
X00115432
X00145551
X00175671
X00160611Y-00292119
X00130492
X00100372
X00070253
X00085312Y-00382477
X00115432
X00145551
X00055193
X00025074
X-00005045
X-00095403
X-00125523
X-00155642
X-00155488Y-0030169
X-00146478
X-0013764Y-00299935
X-00131508Y-00293334
X-0013029Y-00284407
Y-00275397
X-00144Y-00289
X-00170702Y-00292119
X-00173508Y-0030169
X-00164498
X-00182518
X-00191528
X-00200538
X-00209548
X-00218535Y-00302323
X-00227115Y-00305075
X-00234727Y-00309895
X-00240925Y-00316434
X-00245237Y-00324345
X-00253508Y-00338
X-0025875Y-0035075
X-002455
X-00229683Y-00352078
X-00227737Y-00358385
X-00227665Y-00367395
X-0022719Y-00343419
X-00226934Y-00334413
X-00222587Y-00326521
X-00214522Y-00322503
X-00205515Y-0032231
X-00196505
X-00187495
X-00178485
X-00200821Y-00352358
X-00185761Y-00382477
X-002375Y-00384008
X-002455Y-0037525
X-0025875
X-00246Y-00262
X-0026275Y-00239
Y-00219
Y-00199
Y-00179
Y-00159
Y-00139
Y-00119
Y-00099
Y-00079
Y-00059
Y-00039
Y-00019
Y00001
Y00021
Y00041
Y00061
Y00081
Y00101
Y00121
X-00215881Y00099432
X-001915Y00044117
X-00181508Y00038375
X-001755Y0001
Y00004
X-001975Y00009008
X-002075
X-002175
X-00192Y-00039
X-00204946Y-00052992
Y-00077992
X-00183Y-0007
X-00174695Y-00137001
Y-00147001
Y-00157001
X-00174695Y-00167893
X-0019025Y-001865
X-00202992Y-00196
X-002195Y-00207
Y-00214
Y-00221
X-002045Y-00232492
X-00183Y-00218
X-00185761Y-00262
X-002095Y-00169992
X-00191Y-00139
X-002145Y-00122992
X-00172329Y-00120684
X-00149445Y-001235
X-00152533Y-00128976
X-0014876Y-00111041
X-00151651Y-00096001
X-001435Y-00074
X-001355
X-0012675Y-0008325
X-00114329Y-00083339
X-00109687Y-00067001
X-00103687
X-00121687Y-00064493
X-00123695Y-00058001
X-00113Y-00038
X-00133567Y-00028762
X-001465Y-00021554
X-001425Y-00009008
X-001585Y-00002492
X-001695Y00004
Y0001
X-00080344Y00009074
X-00045045Y00003068
X-00043508Y-00004
Y00018
X-000135Y00023008
X-00006004Y00017212
X00005837
X000165Y00023008
X00026996Y00017212
X000365Y00020492
X000565Y00023008
X00068996Y00017212
X00078881Y00006135
X00067178Y-0000331
X00058168
X00049158
X00040148
X00030068Y-00002575
X00021088Y-0000331
X00012078
X-00001572Y-00001988
X-00010485Y-0000331
X00011875Y-00041152
X-00025Y-00052
X-00036Y-0009
X-00005045Y-00081284
X0003825Y-000805
Y-00089
X00035492Y-001
X00035492Y-00108
X00035232Y-00116
X00028044Y-00118221
X00027844Y-00125886
X00032775Y-00136939
X000525Y-0014
Y-00133
X000595
Y-0014
X000665
Y-00133
Y-00147
X000595
X000525
X000515Y-00167
X00046389Y-00174585
X00046992Y-00186777
X00042352Y-00193906
X0005115Y-00196852
X00050174Y-00209559
X00030334Y-00203644
X00022Y-0020475
X00024255Y-00215755
X00033707Y-0022096
X00040246Y-00227159
X000345Y-00239
X00004Y-00238
X00003711Y-00221273
X00015518Y-00224492
X0001775Y-002555
X-00006Y-0025025
X-00005045Y-00262
X-00015Y-00267
X-00021Y-00254
X-000215Y-00223
X-00015248Y-00216604
X-00007618Y-00211812
X-00010005Y-00200495
X-000075Y-00194
X-00000505Y-00190995
X00011633Y-00193516
X0001613Y-00185709
X00024242Y-00182416
X00024242Y-00174892
X00021508Y-00164
X00005492Y-00156
Y-00146
Y-00136
X-00002754Y-00165849
X-00000508Y-00176
X-00036Y-00188
X-00050224Y-00171642
X-00080344
X-0010994Y-00174963
X-00111128Y-00183894
X-00111242Y-00191125
X-0010969Y-00206141
Y-00215151
Y-00224161
X-0013031Y-00218535
Y-00209525
X-00129918Y-00200524
X-00129258Y-00192
X-00129246Y-00184148
X-0013056Y-00175235
X-00129086Y-00166346
X-00129758Y-001595
X-00127524Y-00151947
X-00112524Y-00152146
X-00110742Y-0015925
X-00111576Y-00166103
X-00115687Y-00133001
X-00122687
Y-00126001
X-00115687
Y-00119001
X-00122687
X-00129687
Y-00126001
Y-00133001
X-00095687Y-00134001
X-00072554Y-00134251
Y-00142251
X-00072179Y-00102
X-00061687Y-00111499
X-000645Y-00075
X-00064552Y-00062393
X-000765Y-00066
X-000745Y-0003775
X-00050224Y00069313
X-00065284Y00099432
X-000635Y00111
X-000115Y00109
Y00102
X-000035
Y00109
X-00015503Y00087998
X0002668Y00088103
X00026754Y00081974
X000335Y00058992
X00030492Y00047
X000865Y00051
X00164008Y00043
Y00061
Y00079
X001845Y00079508
X00191258Y0009808
X001745Y00098
Y00116
X00191258Y0011692
X002185Y00126008
X002195Y00090008
X00219508Y00012
X001965Y00011
Y-00006
X001755
X0017525Y0000625
X00175671Y-00021045
X001665Y-00024508
X00184342Y-00029
X00172492Y-00042
Y-0007
X001725Y-00091492
X00184342Y-00093
X00177Y-00116
X001615Y-00114
X00161133Y-00121263
X001645Y-00127992
X00171492Y-00133
X00156976Y-001335
X00151024Y-00133492
X001435
X00151992Y-00102
X00120054Y-00082524
X00128946Y-00056132
X0011Y-00053
X000795Y-00055
X000725
X000655
X00070992Y-00077963
X000575Y-0008
X00057132Y-00113067
X000955Y-00116
X001025
X0010475Y-00125492
X00087085Y-00126033
X00086249Y-0014779
X000875Y-00156
X00109508Y-00161
X00105008Y-0017
X00105008Y-00178
X00081508Y-00186
X00077247Y-00192676
X00084008Y-00201
Y-00211
X00071409Y-00219093
X00089Y-0023
X00091Y-0025
X00055193Y-00262
X00061333Y-00185774
X000675Y-00185726
X0016925Y-0020375
X0017075Y-0022
X001435Y-00234492
X00140109Y-00254785
X0019175Y-0024425
X00220849Y-00231881
X00213Y-0021725
X0021275Y-0020525
X00195Y-0017
X00179Y-0016
X00179913Y-00151554
X00171Y-0015
X002025Y-00131
X002085
X002145
X00220849Y-00111403
X00152492Y-00006
X001475Y0001
X001405
X001335
X000475Y00106992
X-00125523Y00099432
X-00113492Y00084
X-00155642Y00099432
X-00152679Y-00166413
X-00155642Y-00201761
X-001655Y-0023075
X-0013031Y-00236555
Y-00245565
X-00130197Y-00254574
X-00126645Y-00262855
X-0010525Y-0026175
Y-0025175
X-00095403Y-00262
X-000675Y-0026275
X-0005Y-00268
X-00049Y-00223
X-00068Y-00232
X-00082Y-00239
X-00095403Y-00201761
X-00065284
X-00155642Y-00262
X00250969Y-00231881
X002615Y-00219
X00250969Y-00171642
X002615Y-00159
Y-00119
X00250969Y-00111403
X002615Y-00099
Y-00079
Y-00059
X00250969Y-00051165
X002615Y-00039
Y-00019
Y00001
Y00021
Y00041
Y00061
Y00081
Y00101
Y00121
X002285Y00112
Y00102
X002295Y00087
Y00072
X00235909Y-00081284
X002615Y00141
Y00161
Y00181
Y00201
Y00221
Y00241
Y00261
Y00281
Y00301
Y00321
Y00341
Y00361
X002515Y00381
X002315Y00391
X002285Y00188
Y00178
X00198002Y00177
X00191002
X00184508
X00191258Y0019192
X001745Y00192
Y00209
X00191258Y0020908
X001605Y00225
X00164923Y00231125
X001375Y00232992
X00145008Y00251
Y0026
X001265Y00253
X001245Y0027
X001115Y00268
X001045Y00261
X000975Y00255
X000765Y00261
X000565
X00052444Y00251944
X000365Y00251
Y00261
X000165
Y00251
X00005008
Y00259
Y00268
Y0027625
Y0028525
Y00294
Y00302
Y00311
X000265Y00301
X00040134Y00310267
X00100372
X000965Y00301
X001165
X00129992Y00319
X00129976Y00326524
X00128605Y00349281
X00146108Y00348856
X00145815Y00367705
X00145008Y0038
X001525Y00384008
X001625
X001665Y00396
X001765Y00406
X002015
X002215Y00401
X00168508Y00357
X0018425Y00332508
X0012725Y00372992
X001185
X0010975
X001015
X0009275
X000845
X00075625
X000675
X0005875
X000505
X00041625
X000335Y00373
X000255
X000165
X00007Y00372
X-00010008Y0038
Y0036175
X-000195Y00371008
X-000355Y00366492
X-000535
X-000815Y00356008
X-000925Y00342
Y00334
Y00326
X-00074537Y00332008
X-000356Y00319992
X-00027976Y00324349
X-00019Y0033
X00005008Y00344125
X-000235Y00391
X-000335Y00401
X-000485Y00406
X-000685
X-000985
X-001135Y00401
X-001235Y00391
X-001485Y00381
X-001685
X-001705Y00322
X-001695Y00271
Y00264
X-00162508Y00268
X-00124516Y00268026
X-001055Y00227
X-0007874Y0021844
X-0005742Y00211492
Y00270508
X-0003558Y00296008
X-00010008Y0024
X000025Y00231
X000165Y00232992
X0002475
X000505
X00059855
X000845Y002325
X00089977Y00225011
X00099806Y00212548
X00103912Y00188412
X00107142Y00177
X000945Y00182
X0009625Y0016975
X00085498Y00173232
X000545Y00176
X000475Y00182
X0003324Y00167383
X0000125Y00167
X00001501Y0017398
X-000085Y00178
X00010014Y0018979
X00033497Y00205492
X00039503
X00112701Y00195028
X001275Y00194
X001345
X001345Y00201264
X001275
X001275Y00209
X00138008Y00176
X001465Y0017325
X0015Y0015875
Y0014925
X001405Y00137508
X0017325Y00154
X001805
X001875
X00184508Y00131
X00191002
X00198002
X002155Y00155492
X00070253Y00129551
X000015Y00156
X-00012Y00151
X-000785Y00144
X-001035
X-001285
X-001245Y00206
X-00142472Y00201
X-00138222Y0021875
X-00175742Y00215154
X-001945Y00215
X-00184742Y0022625
X-0021175Y00219258
X-00202125Y00190992
X-001975Y00137
X-001875
X-0026275Y00141
Y00161
Y00181
Y00201
Y00221
Y00241
Y00261
Y00281
Y00301
Y00321
Y00341
Y00361
X-002485Y00381
X-002285
X-002085
X-00200821Y00370506
X-001885Y00381
X-001775Y00322
X-001935Y00273992
X-00193508Y00267
X-00202008Y00252
T03
X-002365Y-00231
Y-00211
Y-00191
Y-00171
T04
X-002415Y-0008604
Y-0006064
Y-0003524
Y-0000984
Y0001556
Y0004096
Y0006636
Y0009176
Y0011716
X002411Y00107
Y000816
Y000562
Y000308
Y000054
Y001324
Y001578
Y001832
Y00234
Y002594
Y002848
Y003102
Y003356
Y00361
X-002415
Y003356
Y003102
Y002848
Y002594
Y00234
Y002086
Y001832
Y0014256
T05
X002145Y00234
Y002594
Y002848
Y003102
Y003356
Y00361
T06
X-002415Y-001216
X002411Y-001343
X001903Y003864
X-000891
M30
