M48
;Layer_Color=9474304
;FILE_FORMAT=4:4
METRIC,LZ
;TYPE=PLATED
T1F00S00C0.2500
T3F00S00C0.8000
T4F00S00C1.0160
T5F00S00C1.1000
%
T01
X00249758Y-00386
X00259486Y-00372034
X00249758Y-00356
X00274546Y-00341915
X00259486Y-00311795
X00274546Y-00402153
X00245Y-00402
Y-0041
Y-00418
X00236Y-00424
X00228
X00223Y-00415
Y-00406
Y-00398
X00223945Y-00389066
Y-00380556
X0022614Y-00368656
X00223945Y-00360434
X00217351Y-00355055
X00208841
X00200331
X00191821
X00183311
X001748
X0016629
X00157781
X00149271
X00140761
X00132251
X00123741
X00115231
X00106721
X00098211
X00089701
X0008121Y-00354474
X00073087Y-0035194
X00065759Y-00347613
X00059714Y-00341623
X00055252Y-00334376
X00052643Y-00326277
X00051945Y-00317795
Y-00309285
Y-00300775
Y-00292265
X00072055Y-00305657
Y-00314167
X00072326Y-00322673
X00076288Y-00330204
X00083652Y-00334469
X00092148Y-00334945
X00100658
X00109168
X00117678
X00126188
X00134698
X00143208
X00151718
X00160228
X00168738
X00177248
X00185758
X00194268
X00202778
X00211288
X00219798
X00228274Y-00335701
X002359Y-00339478
X00241401Y-00345971
X00244031Y-00362623
X00241294Y-00370681
X00244055Y-00393186
X00214307Y-00402153
X00199247Y-00372034
X00169128
X00139009
X00108889
X0007877
X00048651
X00018531
X-00011588
X-00041707
X-00026648Y-00341915
X00003472
X00033591
Y-00402153
X0006371
X0009383
X00123949
X00139009Y-00311795
X00169128
X00199247
X00108889
X001Y-003
X0009Y-0031
X0008
X-00041707Y-00311795
X-00071827
X-00101946
X-001Y-003
X-0012Y-0031
X-00130945Y-00307185
X-00131968Y-00315634
X-00134851Y-00323641
X-00139622Y-00330687
X-00145862Y-00336474
X-00117006Y-00341915
X-00086886
X-00056767
Y-00402153
X-00026648
X-00086886
X-00153374Y-00340473
X-00161591Y-00342687
X-00170093Y-00343055
X-00178603
X-00187113
X-00195462Y-003447
X-00201725Y-00350462
X-00203945Y-00358677
X-00204184Y-00367184
X-00206Y-00375
X-00204286Y-00387695
X-00214Y-00404758
X-00225Y-00396
X-00233
X-00231Y-00372
X-00237
X-00222428Y-00370807
X-00229758Y-00359
X-0022161Y-00345705
X-00217666Y-00338164
X-00211957Y-00331853
X-00204978Y-00326983
X-00196988Y-00324054
X-00188551Y-00322945
X-00180041
X-00171531
X-00163029Y-00322584
X-00155555Y-00318515
X-00151444Y-00311063
X-00151055Y-00302562
Y-00294052
X-00162185Y-00311795
X-00222423
X-00237483Y-00341915
X-00192304Y-00372034
X-00207363Y-00281676
X-00237483
X-0024Y-0026
Y-0024
Y-0022
Y-002
Y-0018
Y-0016
Y-0014
Y-0012
Y-001
Y-0008
Y-0006
Y-0004
Y-0002
Y0
Y0002
Y0004
Y0006
Y0008
Y001
X-00168Y00023367
X-00157758Y00017125
X-00152Y-00011
Y-00017
X-00174Y-00012242
X-00184
X-00194
X-00188758Y-00082
Y-00107
X-00191Y-00144242
X-00186Y-00191242
X-00179742Y-00217
X-00196Y-00228
Y-00235
Y-00242
X-00181Y-00253742
X-00156Y-00244
X-00151555Y-00260363
Y-00268873
X-00151461Y-00277382
X-0014864Y-00285411
X-00132851Y-00284137
X-00131445Y-00275744
X-00117006Y-00281676
X-00086886
X-00056767
X-00026648
X-00041707Y-00251557
X-00050742Y-00232
Y-00222
X-00057253Y-00213676
X-00053242Y-00207
X-00066766Y-00206008
X-00073734Y-00207492
X-00087258Y-00207
X-00088492Y-00195205
X-00083089Y-00187469
X-00082Y-00168
X-00075
X-00068
Y-00161
X-00075
Y-00154
X-00068
X-00082
Y-00161
X-00102Y-00158
X-00107197Y-00146886
X-00106664Y-00139221
X-001Y-00137
X-00098758Y-00129
X-00099Y-00121
X-00096742Y-00106
X-00077Y-00101
X-00063258Y-00098963
X-00062Y-00076
X-00055
X-00069
X-00077242Y-00076
X-00115Y-00056
X-00119388Y-00050515
X-00117006Y-00040722
X-00119Y-00029758
X-00135Y-00023742
X-00146Y-00017
Y-00011
X-00132065Y00049637
X-00117006Y00079756
X-00147125
X-00090242Y00063
X-00041707Y00049637
X-0004Y0009
X00012Y00088
Y00081
X0002
Y00088
X00008246Y00064003
X0005Y00067
Y00061
X00057Y00038242
X00054242Y00026
X0006Y-00000258
X00050471Y-00004038
X0004Y00001758
X00026264Y-00004765
X00017471Y-00004038
X0001Y00001758
X00014071Y-00024055
X0002241Y-00022359
X00028867Y-00023925
X00037376Y-00024055
X00045886
X00054328Y-00022989
X00066704Y-00024055
X00075214
X00083724
X00092234Y-00024009
X00102126Y-00014132
X00092471Y-00004038
X0008Y00001758
X0009383Y00019517
X0011Y0003
X00187258Y00022
Y0004
Y00058
X00208Y00058258
X00214508Y00077
X00198
Y00095
X00214508Y00096
X00243Y00071758
X00244426Y00019517
X00242758Y-00009
X0022Y-0001
Y-00027
X00199
Y-00013758
X00171Y-00011
X00164
X00157
X00176242Y-00027
X0019Y-00045258
X00208092Y-0005
X00196242Y-00063
Y-00091
X00196Y-00112742
X00208092Y-00114
X00199247Y-00131079
X00202242Y-00142
X00184957Y-00142911
X00185Y-00135
X00188Y-00149242
X00195242Y-00154
X0018
X00174
X00167Y-00154742
X00175742Y-00123
X0018Y-00097
X00154196Y-00081033
X00149Y-00086
X00125867Y-00084
X00119439Y-00081166
X00113125Y-00078091
X00078313Y-00088001
X00072313
X00067208Y-00104151
X00060257Y-00101259
X00053768Y-00104436
X00046Y-00099493
X00039Y-00099493
X00030349Y-00117001
X00033349Y-00131999
X00032313Y-00145001
X00029313Y-00150001
X00007555Y-00148001
X00007555Y-00158001
Y-00168001
Y-00178001
X00007555Y-00188001
X00029071Y-00187921
X00052133Y-00189818
X00051695Y-00198316
X00053974Y-00206516
X00052992Y-00213
X00052572Y-0022073
X00051945Y-00229216
Y-00237726
X00072055Y-00234949
Y-00243458
Y-00226439
X00070073Y-00218163
X00070508Y-00212
X00071082Y-00203734
X00071805Y-00195255
X00070007Y-00186937
X00071008Y-00181
X00069623Y-00172941
X00054469Y-00172643
X00052492Y-00181
X00052313Y-00154001
Y-00147001
Y-00140001
X00059313
X00066313
Y-00147001
X00059313
Y-00154001
X00066313
X00086313Y-00155001
X00109196Y-00155
Y-00163
X0012Y-00165759
X00109571Y-00123
X00058555Y-00079
X-00019758Y-00025
X-00021376Y-00012762
X-00019758Y-00003
X-00041707Y-00010602
X-00039Y-00137
X-00032
X-0003Y-00146742
X-00048274Y-00153
X-00048527Y-00169059
X-00047Y-00177
X-00036436Y-00175257
X-00025242Y-00182
X-00029742Y-00191
X-00029742Y-00199
X-00082861Y-00218605
X-00092245Y-00215142
X-00083535Y-00231577
X-00104435Y-00228645
X-00103089Y-00237048
X-00110422Y-00236578
X-00113Y-00244
X-00119586Y-00245742
X-00098574Y-00244261
X-00091678Y-00249247
X-001Y-0026
X-00114355Y-00225475
X-0012725Y-00229
X-00144328Y-00221672
X-00142Y-00215
X-00134828Y-00212172
X-00120938Y-00209647
X-00110008Y-00203205
X-00110008Y-00195205
X-00107242Y-00187
X-00130504
X-00128758Y-00177
Y-00167
X-00129094Y-00157
X-00078153Y-00134527
X-0006623Y-00134675
X-0006302Y-00238801
X-00147781Y-0023567
X00018531Y-00251557
X00051945Y-00263256
Y-00271766
X00053756Y-00280081
X00071547Y-00277483
X0009383Y-00281676
X001Y-0026
X0009383Y-00221437
X00123949
X00154068
X00192258Y-00203
X00184742Y-00188
X00198242Y-00184978
X00204Y-00169
X00204Y-00161976
X00226Y-00152
X00232
X00238
X0022Y-0018
X00234258Y-00252
X00033591Y-00281676
X00057Y00086242
X00252Y00091
Y00081
X00253Y00066
Y00051
X00285Y0006
Y0004
Y0002
Y-0
Y-0002
Y-0004
Y-0006
Y-0008
Y-001
X00274546Y-0010096
X00285Y-0012
Y-0014
Y-0016
Y-0018
X00259486Y-00191318
Y-00251557
X00285Y-0024
X00259486Y-00070841
X00285Y0008
Y001
Y0012
Y0014
Y0016
Y0018
Y002
Y0022
Y0024
Y0026
Y0028
Y003
Y0032
Y0034
X00275Y0036
X00255Y0037
X00252Y00167
Y00157
X00221502Y00156
X00214502
X00208
X00214508Y00171
X00198
Y00188
X00214508
X00184Y00204
X00188424Y00209772
X00161Y00212242
X00168258Y0023
Y00239
X0015Y00232
X00148Y00249
X0014Y0028
X0012
X00153742Y00298
Y00306
X00168258Y00323
Y00331
Y00359
X00176Y00362758
X00186
X0019Y00375
X002Y00385
X00225
X00245Y0038
X00191758Y00336
X0020775Y00311258
X00152Y00345
X00151Y00352242
X00142
X00133
X00125
X00116
X00108
X00099
X00091
X00082
X00074
X00065
X00057Y00352
X00049
X0004
X00032Y00352242
X00028258Y00348
X00013742Y00341
Y00359
X00005Y00354758
X0Y0037
X-0001Y0038
X-00025Y00385
X-00045
X-00075
X-0009Y0038
X-001Y0037
X-00125Y0036
X-00145
X-00147Y00301
X-00146Y0025
Y00243
X-00138758Y00247
X-00101266Y00247026
X-00086886Y00260472
X-00056767
X-00034Y00249258
X-00012Y00274758
X-0001202Y00299242
X-00004726Y00304591
X00000742Y00309
X00028258Y00323
Y0029
Y00281
Y00273
Y00264
Y00256
Y00247
Y00238
Y0023
X0004
Y00212242
X00048
X00031
X00013742Y00219
X00035Y00186
X00057Y00184742
X00063
X00052Y00161
X00083
X00108515Y00149612
X00114Y00154
X0012Y00159
X00125196Y0016377
X00130442Y00168442
X00135564Y00173408
X00151Y00173
X00158
X00158Y00180264
X00151
X00151Y00188
X00123556Y00191444
X00108Y00212242
X00083
X00074
X00075944Y00230944
X0008Y0024
X001
X0006Y0023
X0005Y0028
X-00012Y00345742
X-0003
X-00058Y00334758
X-00069Y00321
Y00313
Y00305
X-00049Y00310758
X-00034Y00190742
X-00025196Y00188
X-0002Y00197
X-00036Y00180258
X-00026Y00166
X-00026441Y00159145
X-00026921Y00146172
X-00036003Y00153133
X-00041997Y00153261
X-00037Y00131742
X-00056767Y00139994
X-00101Y00185
X-00118722Y0018
X-00114472Y00198
X00018531Y00109875
X0007877
X00108889
X00164Y00116258
X00173502Y00128
Y00138
X0017Y00152
X00161258Y00155
X0019675Y00133
X00204
X00211
X00208Y0011
X00214502
X00221502
X00242Y0010725
X00239Y00134742
X-00173508Y00127111
X-0018Y00124
X-00179Y00170242
X-00171Y00194
X-0015106Y00193425
X-00161492Y0020525
X-0018825Y00198008
X-00178258Y00231
X-00169758Y00246
X-0017Y00253242
X-00154Y00301
X-00177244Y0032071
X-00185Y0036
X-00165
X-00205
X-00225
X-0024Y0034
Y0032
Y003
Y0028
Y0026
Y0024
Y0022
Y002
Y0018
Y0016
Y0014
Y0012
T03
X-00213Y-00252
Y-00232
Y-00212
Y-00192
T04
X-00218Y-0010704
Y-0008164
Y-0005624
Y-0003084
Y-0000544
Y0001996
Y0004536
Y0007076
Y0009616
X002646Y00086
Y000606
Y000352
Y000098
Y-000156
Y001114
Y001368
Y001622
Y00213
Y002384
Y002638
Y002892
Y003146
Y0034
X-00218
Y003146
Y002892
Y002638
Y002384
Y00213
Y001876
Y001622
Y0012156
T05
X00238Y00213
Y002384
Y002638
Y002892
Y003146
Y0034
M30
