G04*
G04 #@! TF.GenerationSoftware,Altium Limited,Altium Designer,23.5.1 (21)*
G04*
G04 Layer_Physical_Order=2*
G04 Layer_Color=32768*
%FSLAX44Y44*%
%MOMM*%
G71*
G04*
G04 #@! TF.SameCoordinates,ABEBA2A1-82FC-470D-B438-6AC9AF40FB77*
G04*
G04*
G04 #@! TF.FilePolarity,Negative*
G04*
G01*
G75*
%ADD163C,1.0160*%
%ADD197C,1.4556*%
%ADD198C,1.0056*%
%ADD199C,1.1556*%
%ADD200C,1.3716*%
%ADD201C,3.6556*%
%ADD202C,0.6556*%
G36*
X-148000Y165000D02*
X-194000D01*
Y214000D01*
X-164000D01*
Y203000D01*
X-159000D01*
Y214000D01*
X-148000D01*
Y165000D01*
D02*
G37*
G36*
X-78000Y162000D02*
X-123000D01*
Y208000D01*
X-117000D01*
Y196000D01*
X-112000D01*
Y208000D01*
X-78000D01*
Y162000D01*
D02*
G37*
G36*
X104000Y-35000D02*
X-30000D01*
Y5000D01*
X104000D01*
Y-35000D01*
D02*
G37*
G36*
X-78000Y-204000D02*
X77000D01*
Y-225000D01*
X97824D01*
Y-286000D01*
X292505D01*
Y-435000D01*
X-75128D01*
Y-430000D01*
X-165128D01*
Y-435000D01*
X-245486D01*
Y-276000D01*
X-115992D01*
Y-183000D01*
X-78000D01*
Y-204000D01*
D02*
G37*
%LPC*%
G36*
X-75128Y-410000D02*
X-165128D01*
Y-410000D01*
X-75128D01*
Y-410000D01*
D02*
G37*
G36*
X-129725Y-411838D02*
X-129831D01*
X-130227Y-411851D01*
X-130623Y-411890D01*
X-130980Y-411943D01*
X-131323Y-412009D01*
X-131653Y-412102D01*
X-131957Y-412194D01*
X-132235Y-412300D01*
X-132486Y-412392D01*
X-132710Y-412498D01*
X-132908Y-412604D01*
X-133080Y-412696D01*
X-133225Y-412789D01*
X-133344Y-412855D01*
X-133423Y-412907D01*
X-133476Y-412947D01*
X-133489Y-412960D01*
X-133754Y-413185D01*
X-133978Y-413436D01*
X-134190Y-413713D01*
X-134374Y-414017D01*
X-134546Y-414321D01*
X-134678Y-414624D01*
X-134797Y-414928D01*
X-134903Y-415232D01*
X-134995Y-415523D01*
X-135061Y-415787D01*
X-135114Y-416025D01*
X-135154Y-416236D01*
X-135180Y-416408D01*
X-135206Y-416540D01*
Y-416592D01*
X-135220Y-416632D01*
Y-416645D01*
Y-416659D01*
X-132116Y-416962D01*
X-132089Y-416711D01*
X-132063Y-416487D01*
X-132023Y-416275D01*
X-131984Y-416091D01*
X-131931Y-415906D01*
X-131878Y-415747D01*
X-131825Y-415602D01*
X-131759Y-415483D01*
X-131706Y-415364D01*
X-131653Y-415272D01*
X-131601Y-415192D01*
X-131561Y-415126D01*
X-131522Y-415087D01*
X-131495Y-415047D01*
X-131469Y-415021D01*
X-131350Y-414915D01*
X-131231Y-414823D01*
X-130980Y-414677D01*
X-130716Y-414572D01*
X-130465Y-414506D01*
X-130253Y-414453D01*
X-130148Y-414440D01*
X-130069D01*
X-130002Y-414426D01*
X-129725D01*
X-129553Y-414453D01*
X-129250Y-414519D01*
X-128986Y-414611D01*
X-128761Y-414704D01*
X-128589Y-414809D01*
X-128470Y-414902D01*
X-128391Y-414968D01*
X-128365Y-414981D01*
Y-414994D01*
X-128259Y-415100D01*
X-128180Y-415219D01*
X-128034Y-415483D01*
X-127929Y-415747D01*
X-127863Y-415998D01*
X-127823Y-416236D01*
X-127810Y-416328D01*
Y-416421D01*
X-127797Y-416487D01*
Y-416540D01*
Y-416579D01*
Y-416592D01*
X-127810Y-416764D01*
X-127823Y-416949D01*
X-127902Y-417293D01*
X-127995Y-417609D01*
X-128114Y-417900D01*
X-128180Y-418032D01*
X-128233Y-418151D01*
X-128299Y-418257D01*
X-128338Y-418336D01*
X-128378Y-418415D01*
X-128418Y-418468D01*
X-128431Y-418494D01*
X-128444Y-418508D01*
X-128550Y-418653D01*
X-128695Y-418825D01*
X-128853Y-419010D01*
X-129052Y-419208D01*
X-129250Y-419432D01*
X-129474Y-419644D01*
X-129910Y-420093D01*
X-130135Y-420304D01*
X-130333Y-420502D01*
X-130531Y-420687D01*
X-130689Y-420845D01*
X-130835Y-420978D01*
X-130940Y-421070D01*
X-131006Y-421136D01*
X-131033Y-421162D01*
X-131508Y-421612D01*
X-131931Y-422021D01*
X-132327Y-422430D01*
X-132684Y-422800D01*
X-133001Y-423144D01*
X-133291Y-423461D01*
X-133542Y-423751D01*
X-133767Y-424015D01*
X-133952Y-424253D01*
X-134110Y-424464D01*
X-134242Y-424649D01*
X-134348Y-424795D01*
X-134427Y-424913D01*
X-134493Y-424993D01*
X-134520Y-425046D01*
X-134533Y-425059D01*
X-134691Y-425336D01*
X-134837Y-425614D01*
X-134956Y-425891D01*
X-135074Y-426168D01*
X-135167Y-426432D01*
X-135259Y-426683D01*
X-135325Y-426934D01*
X-135391Y-427159D01*
X-135444Y-427370D01*
X-135484Y-427568D01*
X-135524Y-427740D01*
X-135550Y-427885D01*
X-135563Y-428004D01*
X-135576Y-428083D01*
X-135590Y-428149D01*
Y-428163D01*
X-124667D01*
Y-425270D01*
X-130874D01*
X-130769Y-425112D01*
X-130663Y-424966D01*
X-130557Y-424821D01*
X-130452Y-424689D01*
X-130359Y-424570D01*
X-130293Y-424491D01*
X-130240Y-424425D01*
X-130227Y-424412D01*
X-130135Y-424319D01*
X-130029Y-424200D01*
X-129910Y-424081D01*
X-129765Y-423936D01*
X-129461Y-423646D01*
X-129144Y-423342D01*
X-128853Y-423064D01*
X-128721Y-422946D01*
X-128603Y-422827D01*
X-128497Y-422747D01*
X-128431Y-422668D01*
X-128378Y-422629D01*
X-128365Y-422615D01*
X-128101Y-422364D01*
X-127850Y-422140D01*
X-127625Y-421915D01*
X-127414Y-421717D01*
X-127229Y-421532D01*
X-127070Y-421361D01*
X-126912Y-421202D01*
X-126780Y-421070D01*
X-126674Y-420951D01*
X-126568Y-420832D01*
X-126489Y-420753D01*
X-126423Y-420674D01*
X-126383Y-420621D01*
X-126344Y-420568D01*
X-126318Y-420555D01*
Y-420542D01*
X-126014Y-420145D01*
X-125763Y-419762D01*
X-125538Y-419406D01*
X-125366Y-419102D01*
X-125301Y-418957D01*
X-125234Y-418838D01*
X-125182Y-418732D01*
X-125142Y-418640D01*
X-125102Y-418560D01*
X-125076Y-418508D01*
X-125063Y-418481D01*
Y-418468D01*
X-124931Y-418085D01*
X-124838Y-417715D01*
X-124759Y-417359D01*
X-124719Y-417042D01*
X-124693Y-416896D01*
Y-416764D01*
X-124680Y-416659D01*
X-124667Y-416553D01*
Y-416368D01*
X-124680Y-416011D01*
X-124719Y-415681D01*
X-124799Y-415351D01*
X-124878Y-415047D01*
X-124984Y-414770D01*
X-125102Y-414506D01*
X-125234Y-414255D01*
X-125353Y-414030D01*
X-125485Y-413832D01*
X-125618Y-413660D01*
X-125736Y-413502D01*
X-125842Y-413383D01*
X-125921Y-413277D01*
X-125987Y-413198D01*
X-126040Y-413158D01*
X-126053Y-413145D01*
X-126318Y-412921D01*
X-126608Y-412709D01*
X-126912Y-412538D01*
X-127229Y-412392D01*
X-127533Y-412260D01*
X-127850Y-412155D01*
X-128153Y-412075D01*
X-128457Y-411996D01*
X-128735Y-411943D01*
X-128999Y-411904D01*
X-129236Y-411877D01*
X-129435Y-411864D01*
X-129593Y-411851D01*
X-129725Y-411838D01*
D02*
G37*
%LPD*%
G54D163*
X292505Y355104D02*
X292266Y357521D01*
X291561Y359846D01*
X290416Y361988D01*
X288875Y363866D01*
X286998Y365406D01*
X284856Y366551D01*
X282531Y367257D01*
X280114Y367495D01*
X288505Y-435000D02*
X291333Y-433828D01*
X292505Y-431000D01*
X-245486Y-430514D02*
X-244885Y-432757D01*
X-243243Y-434399D01*
X-241000Y-435000D01*
X-90601Y392846D02*
X-11846D01*
X14000Y367000D01*
X168000D01*
X193846Y392846D01*
X241732D01*
X292505Y-431000D02*
Y355104D01*
X-241000Y-435000D02*
X288505D01*
X267123Y367455D02*
X280114Y367495D01*
X241732Y392846D02*
X267123Y367455D01*
X-115992D02*
X-90601Y392846D01*
X-230251Y367455D02*
X-115992D01*
X-245486Y352220D02*
X-230251Y367455D01*
X-245486Y-430514D02*
Y352220D01*
G54D197*
X238000Y314600D02*
D03*
Y289200D02*
D03*
Y238400D02*
D03*
Y213000D02*
D03*
Y263800D02*
D03*
G54D198*
X227850Y-110900D02*
D03*
Y-53100D02*
D03*
G54D199*
X-213000Y-232000D02*
D03*
Y-192000D02*
D03*
Y-212000D02*
D03*
G54D200*
X264600Y-15600D02*
D03*
Y9800D02*
D03*
X-218000Y-107040D02*
D03*
Y-81640D02*
D03*
X264600Y162200D02*
D03*
Y35200D02*
D03*
X-218000Y-5440D02*
D03*
Y19960D02*
D03*
Y45360D02*
D03*
Y70760D02*
D03*
Y96160D02*
D03*
Y121560D02*
D03*
Y162200D02*
D03*
Y187600D02*
D03*
Y213000D02*
D03*
Y238400D02*
D03*
Y263800D02*
D03*
Y289200D02*
D03*
Y314600D02*
D03*
Y340000D02*
D03*
Y-56240D02*
D03*
X264600Y340000D02*
D03*
Y314600D02*
D03*
Y289200D02*
D03*
Y263800D02*
D03*
Y238400D02*
D03*
Y213000D02*
D03*
Y86000D02*
D03*
Y60600D02*
D03*
G54D201*
Y-155300D02*
D03*
X-218000Y-142600D02*
D03*
X213800Y365400D02*
D03*
X-65600D02*
D03*
G54D202*
X58732Y-137000D02*
D03*
X51544Y-139221D02*
D03*
X51344Y-146886D02*
D03*
X-151195Y-188893D02*
D03*
X-105586Y-187346D02*
D03*
X-107060Y-196234D02*
D03*
X-105746Y-205148D02*
D03*
X-87628Y-204894D02*
D03*
X-86440Y-195963D02*
D03*
X-88076Y-187103D02*
D03*
X123306Y191548D02*
D03*
X-41052Y-83393D02*
D03*
X-53000Y-87000D02*
D03*
X-41000Y-96000D02*
D03*
X274546Y-341915D02*
D03*
X259486Y-311795D02*
D03*
X244426Y-341915D02*
D03*
X259486Y-372034D02*
D03*
X244426Y-402153D02*
D03*
X184188D02*
D03*
X169128Y-311795D02*
D03*
Y-372034D02*
D03*
X139009Y-311795D02*
D03*
Y-372034D02*
D03*
X123949Y-402153D02*
D03*
X108889Y-311795D02*
D03*
Y-372034D02*
D03*
X93830Y-402153D02*
D03*
X63710Y-281676D02*
D03*
X78770Y-311795D02*
D03*
Y-372034D02*
D03*
X63710Y-402153D02*
D03*
X48651Y-311795D02*
D03*
Y-372034D02*
D03*
X33591Y-402153D02*
D03*
X3472Y-221437D02*
D03*
Y-341915D02*
D03*
X18531Y-372034D02*
D03*
X-26648Y-221437D02*
D03*
Y-341915D02*
D03*
X-11588Y-372034D02*
D03*
X-56767Y-221437D02*
D03*
X-41707Y-251557D02*
D03*
X-56767Y-281676D02*
D03*
Y-341915D02*
D03*
X-41707Y-372034D02*
D03*
X-56767Y-402153D02*
D03*
X-86886Y-341915D02*
D03*
X-71827Y-372034D02*
D03*
X-86886Y-402153D02*
D03*
X-117006Y-281676D02*
D03*
X-101946Y-372034D02*
D03*
X-117006Y-402153D02*
D03*
X-147125Y-281676D02*
D03*
X-132065Y-311795D02*
D03*
Y-372034D02*
D03*
X-147125Y-402153D02*
D03*
X-162185Y-311795D02*
D03*
Y-372034D02*
D03*
X-192304D02*
D03*
X-222423Y-311795D02*
D03*
X78000Y155000D02*
D03*
X130642Y156000D02*
D03*
X108998Y152232D02*
D03*
X118000Y161000D02*
D03*
X127412Y167412D02*
D03*
X119750Y148750D02*
D03*
X12000Y181000D02*
D03*
X21000Y122654D02*
D03*
X56740Y146383D02*
D03*
X18981Y166480D02*
D03*
X24750Y160500D02*
D03*
X25001Y152980D02*
D03*
X25878Y175074D02*
D03*
X31702Y169250D02*
D03*
X24750Y146000D02*
D03*
X71000Y161000D02*
D03*
X12000Y88000D02*
D03*
X20000D02*
D03*
X47742Y-195892D02*
D03*
X45008Y-185000D02*
D03*
X15882Y-232812D02*
D03*
X8252Y-237604D02*
D03*
X6190Y-264395D02*
D03*
Y-273405D02*
D03*
X8043Y-282222D02*
D03*
X26552Y-278301D02*
D03*
X27211Y-242273D02*
D03*
X7135Y-289101D02*
D03*
X6262Y-298069D02*
D03*
Y-307079D02*
D03*
Y-316089D02*
D03*
X6687Y-325089D02*
D03*
X9089Y-333773D02*
D03*
X13292Y-341742D02*
D03*
X19293Y-348463D02*
D03*
X26624Y-353702D02*
D03*
X34981Y-357068D02*
D03*
X43883Y-358462D02*
D03*
X52892Y-358560D02*
D03*
X61902D02*
D03*
X70912D02*
D03*
X79922D02*
D03*
X88932D02*
D03*
X97942D02*
D03*
X106952D02*
D03*
X115962D02*
D03*
X124972D02*
D03*
X133982D02*
D03*
X142992D02*
D03*
X152002D02*
D03*
X161012D02*
D03*
X170022D02*
D03*
X179032D02*
D03*
X188042D02*
D03*
X197052D02*
D03*
X205940Y-360038D02*
D03*
X206344Y-369039D02*
D03*
X226013Y-369613D02*
D03*
X225255Y-351705D02*
D03*
X220404Y-344112D02*
D03*
X212818Y-339252D02*
D03*
X203904Y-337940D02*
D03*
X194894D02*
D03*
X185884D02*
D03*
X176874D02*
D03*
X167864D02*
D03*
X158854D02*
D03*
X149844D02*
D03*
X140834D02*
D03*
X131824D02*
D03*
X122814D02*
D03*
X113804D02*
D03*
X104794D02*
D03*
X95784D02*
D03*
X86774D02*
D03*
X77764D02*
D03*
X68754D02*
D03*
X59744D02*
D03*
X50734D02*
D03*
X41729Y-337631D02*
D03*
X33630Y-333683D02*
D03*
X28219Y-326479D02*
D03*
X26883Y-317569D02*
D03*
Y-308559D02*
D03*
X206107Y-380657D02*
D03*
X205940Y-389665D02*
D03*
X205000Y-398750D02*
D03*
Y-407750D02*
D03*
Y-416750D02*
D03*
X212250Y-424000D02*
D03*
X221500D02*
D03*
X227500Y-415750D02*
D03*
Y-406500D02*
D03*
Y-397750D02*
D03*
X226170Y-379534D02*
D03*
X232258Y-358750D02*
D03*
Y-389500D02*
D03*
X39630Y-206709D02*
D03*
X35133Y-214516D02*
D03*
X53834Y-224644D02*
D03*
X57207Y-241960D02*
D03*
X63746Y-248159D02*
D03*
X94909Y-240093D02*
D03*
X65852Y-214907D02*
D03*
X-235250Y-371750D02*
D03*
Y-396250D02*
D03*
X-222000D02*
D03*
X-204165Y-388395D02*
D03*
X-204237Y-379385D02*
D03*
X-106790Y-296397D02*
D03*
Y-305407D02*
D03*
X-108007Y-314334D02*
D03*
X-114140Y-320935D02*
D03*
X-122978Y-322690D02*
D03*
X-131988D02*
D03*
X-140998D02*
D03*
X-150008D02*
D03*
X-159018D02*
D03*
X-168028D02*
D03*
X-177038D02*
D03*
X-186048D02*
D03*
X-195035Y-323322D02*
D03*
X-203615Y-326075D02*
D03*
X-211227Y-330895D02*
D03*
X-217425Y-337434D02*
D03*
X-221737Y-345345D02*
D03*
X-222000Y-371750D02*
D03*
X-206183Y-373078D02*
D03*
X-203690Y-364419D02*
D03*
X-203434Y-355413D02*
D03*
X-199087Y-347521D02*
D03*
X-191022Y-343503D02*
D03*
X-182015Y-343310D02*
D03*
X-173005D02*
D03*
X-163995D02*
D03*
X-154985D02*
D03*
X-145975D02*
D03*
X-136965D02*
D03*
X-127955D02*
D03*
X-118946Y-343164D02*
D03*
X-110087Y-341521D02*
D03*
X-101976Y-337599D02*
D03*
X-95134Y-331736D02*
D03*
X-90020Y-324318D02*
D03*
X-87023Y-315821D02*
D03*
X-86169Y-306851D02*
D03*
X-106418Y-221524D02*
D03*
X-106810Y-230525D02*
D03*
Y-239535D02*
D03*
Y-257555D02*
D03*
Y-266565D02*
D03*
X-106697Y-275574D02*
D03*
X-103145Y-283855D02*
D03*
X-86904Y-281173D02*
D03*
X-86190Y-272191D02*
D03*
Y-245161D02*
D03*
Y-236151D02*
D03*
Y-227141D02*
D03*
X-38187Y-132499D02*
D03*
X-151195Y-178001D02*
D03*
Y-168001D02*
D03*
Y-158001D02*
D03*
X28992Y-157000D02*
D03*
Y-177000D02*
D03*
Y-167000D02*
D03*
X30750Y-229000D02*
D03*
X81000Y-101000D02*
D03*
X80632Y-134067D02*
D03*
X56275Y-157939D02*
D03*
X58000Y-300000D02*
D03*
Y-260000D02*
D03*
X70492Y-207777D02*
D03*
X103000Y-76000D02*
D03*
X119000Y-137000D02*
D03*
X126000D02*
D03*
X96000Y-76000D02*
D03*
X89000D02*
D03*
X107508Y-232000D02*
D03*
X111000Y-177000D02*
D03*
X39018Y-245492D02*
D03*
X73674Y-230559D02*
D03*
X75139Y-218312D02*
D03*
X69889Y-195585D02*
D03*
X2000Y-244000D02*
D03*
X45000Y-244000D02*
D03*
X20746Y-186849D02*
D03*
X22995Y-211995D02*
D03*
X16000Y-215000D02*
D03*
X13495Y-221495D02*
D03*
X47755Y-236755D02*
D03*
X-120500Y-310000D02*
D03*
X152446Y-77132D02*
D03*
X-181446Y-73992D02*
D03*
Y-98992D02*
D03*
X203070Y-165038D02*
D03*
X203413Y-172554D02*
D03*
X143554Y-103524D02*
D03*
X-123000Y-42554D02*
D03*
X-110067Y-49762D02*
D03*
X63648Y-24310D02*
D03*
X72658D02*
D03*
X81668D02*
D03*
X90678D02*
D03*
X102381Y-14865D02*
D03*
X92496Y-3789D02*
D03*
X29337D02*
D03*
X35578Y-24310D02*
D03*
X44588D02*
D03*
X53568Y-23575D02*
D03*
X50496Y-3789D02*
D03*
X-21545Y-17932D02*
D03*
X13015Y-24310D02*
D03*
X21928Y-22988D02*
D03*
X17495Y-3789D02*
D03*
X-152242Y194154D02*
D03*
X40000Y211992D02*
D03*
X-129033Y-149976D02*
D03*
X-214000Y-405008D02*
D03*
X-230008Y-359000D02*
D03*
X-105758Y-213000D02*
D03*
X-87742Y-212125D02*
D03*
X-181315Y123119D02*
D03*
X-174497Y127111D02*
D03*
X-4476Y303349D02*
D03*
X71000Y85992D02*
D03*
X50254Y60974D02*
D03*
X50180Y67103D02*
D03*
X53992Y26000D02*
D03*
X80000Y2008D02*
D03*
X60000Y-508D02*
D03*
X40000Y2008D02*
D03*
X10000D02*
D03*
X-20008Y-25000D02*
D03*
Y-3000D02*
D03*
X-174000Y-11992D02*
D03*
X-184000D02*
D03*
X-194000D02*
D03*
X-118972Y180000D02*
D03*
X-178625Y169992D02*
D03*
X-188250Y198258D02*
D03*
X184000Y204000D02*
D03*
X188423Y210125D02*
D03*
X168508Y230000D02*
D03*
Y239000D02*
D03*
X152000Y344573D02*
D03*
X186000Y363008D02*
D03*
X192008Y336000D02*
D03*
X153476Y305524D02*
D03*
X153492Y298000D02*
D03*
X207750Y311508D02*
D03*
X28508Y323125D02*
D03*
Y290000D02*
D03*
Y281000D02*
D03*
Y273000D02*
D03*
Y264250D02*
D03*
Y255250D02*
D03*
Y247000D02*
D03*
Y238000D02*
D03*
Y230000D02*
D03*
X31250Y211992D02*
D03*
X48250D02*
D03*
X83355D02*
D03*
X74000D02*
D03*
X108000Y211500D02*
D03*
X136201Y174028D02*
D03*
X-125945Y-144500D02*
D03*
X-129179Y-187413D02*
D03*
X-90829Y-104339D02*
D03*
X184492Y-188000D02*
D03*
X184633Y-142263D02*
D03*
X180476Y-154500D02*
D03*
X174524Y-154492D02*
D03*
X-146000Y250000D02*
D03*
X198750Y-14750D02*
D03*
X-58500Y-260000D02*
D03*
Y-300000D02*
D03*
X-78500Y-310000D02*
D03*
X-68500D02*
D03*
X-146000Y243000D02*
D03*
X-171000Y194000D02*
D03*
X-101000Y185000D02*
D03*
X-147000Y301000D02*
D03*
X-154000D02*
D03*
X151000Y180264D02*
D03*
X151000Y173000D02*
D03*
Y188000D02*
D03*
X-196000Y-228000D02*
D03*
Y-235000D02*
D03*
Y-242000D02*
D03*
X253000Y51000D02*
D03*
Y66000D02*
D03*
X158000Y180264D02*
D03*
X158000Y173000D02*
D03*
X-80187Y-88001D02*
D03*
X-86187D02*
D03*
X-69000Y321000D02*
D03*
Y313000D02*
D03*
Y305000D02*
D03*
X-146000Y-11000D02*
D03*
Y-17000D02*
D03*
X-152000D02*
D03*
Y-11000D02*
D03*
X12000Y81000D02*
D03*
X20000D02*
D03*
X199000Y-27000D02*
D03*
X220000D02*
D03*
Y-10000D02*
D03*
X252000Y81000D02*
D03*
Y91000D02*
D03*
Y157000D02*
D03*
Y167000D02*
D03*
X157000Y-11000D02*
D03*
X164000D02*
D03*
X171000D02*
D03*
X226000Y-152000D02*
D03*
X232000D02*
D03*
X238000D02*
D03*
X148000Y249000D02*
D03*
X75944Y230944D02*
D03*
X150000Y232000D02*
D03*
X-72187Y-155001D02*
D03*
X-128151Y-117001D02*
D03*
X-103250Y-104250D02*
D03*
X185000Y-135000D02*
D03*
M02*
